<svg id="Capa_1" data-name="Capa 1" xmlns="http://www.w3.org/2000/svg" viewBox="0 0 93.79 95.1"><title>Icono compartir</title><path d="M70.6,21.09a12.75,12.75,0,0,0,10.56,5.69A13,13,0,0,0,94,13.68a12.82,12.82,0,1,0-25.64,0A13.19,13.19,0,0,0,69,17.87L23.56,41.15A12.71,12.71,0,0,0,13,35.46a13.11,13.11,0,0,0,0,26.21,12.75,12.75,0,0,0,10.64-5.8L69,78.49a12.78,12.78,0,1,0,12.17-9,12.72,12.72,0,0,0-10.63,5.8L25.18,52.63a13.34,13.34,0,0,0,.64-4.07,13.54,13.54,0,0,0-.68-4.2" transform="translate(-0.19 -0.57)" style="fill:#1f6eb5"/></svg>