<svg id="Capa_1" data-name="Capa 1" xmlns="http://www.w3.org/2000/svg" viewBox="0 0 554 932"><defs><style>.cls-1{fill:#71c2e9;stroke:#377c9c;stroke-width:3px;fill-rule:evenodd;}.cls-1,.cls-18,.cls-19{stroke-miterlimit:1.75;}.cls-2{font-size:12px;font-family:Roboto-Light, Roboto;font-weight:300;}.cls-11,.cls-2,.cls-4{fill:#1d1d1b;}.cls-3{letter-spacing:-0.01em;}.cls-4{font-size:15px;font-family:Roboto-Bold, Roboto;font-weight:700;}.cls-5{letter-spacing:-0.02em;}.cls-6{letter-spacing:-0.01em;}.cls-7{letter-spacing:-0.01em;}.cls-8{letter-spacing:-0.01em;}.cls-10,.cls-12,.cls-21,.cls-22,.cls-24,.cls-9{fill:none;}.cls-10,.cls-21,.cls-22,.cls-24,.cls-9{stroke:#0b0c0c;}.cls-10,.cls-12,.cls-13,.cls-14,.cls-15,.cls-16,.cls-21,.cls-22,.cls-24,.cls-9{stroke-linejoin:round;}.cls-10{stroke-dasharray:3.86 3.86;}.cls-12,.cls-13,.cls-14,.cls-15,.cls-16{stroke:#262626;stroke-linecap:round;stroke-width:0.5px;}.cls-13{fill:#fab637;}.cls-14{fill:#ffe7a1;}.cls-15{fill:#4ca8de;}.cls-16{fill:#cfcece;}.cls-17{letter-spacing:-0.02em;}.cls-18{fill:#ec6062;stroke:#cc444b;}.cls-19{fill:#afd28c;stroke:#71915a;isolation:isolate;}.cls-20{letter-spacing:-0.02em;}.cls-21{stroke-dasharray:4 4;}.cls-22{stroke-dasharray:3.55 3.55;}.cls-23{letter-spacing:-0.01em;}.cls-24{stroke-dasharray:4.15 4.15;}</style></defs><path class="cls-1" d="M306.11,496.21,330,508.94,344.28,532l-12.74,17.53-9.31-3.24-19.93,18,3.8,22.35,14.78,9L313,604.79l-8.8-4.11-1,2.78,2,17.58-4.87,2.42,7.34,18L301.24,648l-3-3.43-9.34,5.27-23.46-.95-5.63-33.58L275,607.12l6.41,6.59,8.6-.17,5.44-5.65-21.08-64.76,5.55-7.61,1.72-15.63,15.12,3-2.49-13.57Z"/><path class="cls-1" d="M173.55,283.15l5.6,3.56,0,10,8.77-2.34,8.4,9.33,15.52-.12,4.65,4.75,8-2.92,2.06,9.07,14.93-12.94,6.25,9.47-5.11,9.66,5.19,11.68-6.83,14.22,2.93,7.82-7.51,6.22,8.61,7.81-3,4.82,9.15,3.79L257,387l-1.9,9.4-4,10.32-7.41-.16L230,425.89l-10.83,2.31-3.64,7.72,3.19,11.6-7.91,1.61L198.33,465l-11-12.72-5.14-.4.32-21.94,6.75-6.74-.81-8-24.6-19.47-3.69-13.06,1.26-11.23,8.92-10.38-5.61-9.79,8.56-29.79-2.55-16.57-10.11-5,7.44-5.65L169.33,283Z"/><path class="cls-1" d="M303.27,375.74l7.45,5.07-6.6,6.76,6.42,6.86,2.11,11.84-2.07,10.88-7.25-.7-3.5,4.63,4.76,25.45-5.75,12,.7,14.63,3.6,7,9.59,2.14,4.4,12.76-4.85,6.51-5.08-5.26-7.58,3.38-5.4,9.72,2.54,13.46-7.62.94-9.36-5.37-11.33-19-11.54,1.47-2.83-8.61-6.86.52-1.84-3.87L254,471l-4.19-2.53,17.84-27-.91-9.56,8.68-3.05-3.4-13.56Z"/><path class="cls-1" d="M293.35,57.18l5.87,65.27,8.33,16.87,14.32,11.91.65,12.68-5.39,10.82,13.42,14.21,3.51,12.74-7.08,43,3.1,21.34-3.63,12.72-9.85,5.66-2.54,16.63-18.13,19.28,5.38,28.22-9.82,12.15.35,7.43,11.43,7.61-31.21,39.64-9.84-5-5,7.13L249.7,406.8,257,387l-5.86-9.92L242,373.27l3-4.82-8.61-7.81,7.47-6-2.89-8,6.81-14.1-5.17-11.8,5.11-9.66-2-4.87-5.5-4.14L226.5,314.51l-1.57-8.89-8.46,2.74-4.65-4.75-15.52.12-8.4-9.33-8.77,2.34,0-10L170.67,281,176,268.49l-4.68.56-2.75-11.94,8-11.43,2.58-18.29,6.52-10.89-4.52-2.45.29-7.9,11.42-8.64,3.4-15.8,8.39-6.71-2.09-13.25,4.49-2.38L214,115.56l14.87,3,4.3,15.83,10.22-4.23-1-10.23-6.07-7.55,8.75-5.09,29.11-38.8Z"/><path class="cls-1" d="M246.12,490.29l8,1.94,2.83,8.61,11.54-1.47,13.18,20.23-7.47,27,21.29,55.58L290,613.54l-8.6.17L275,607.12l-14.74,8.14-1.8-8.2-8.94-7-6.62-21.18L216.07,557l-5.56-16.83-7.26-5,6.92-5.45,3.37-12.21,18.9-3.8,8.62-6.54Z"/><path class="cls-1" d="M347.92,512l5.92-2.27,8.64,11.83,18.12,4.64,1.89,10.45,11.76,13.21-5.84,11.36H381l-3.29-6.4-6.39-1.05,2,11.22-7.9,9.14-2.75,11.77-7.27,8.24-6.54,0,8.34,14.13-3.78,4.34-7.32-6.88-13-.52L315,590.54l-5.89.5-6.84-26.46,20-18.25,7.37,4.26,3.57-2.58,11.11-16-9.62-18,8.45-9.43Z"/><path class="cls-1" d="M251.66,409.86,255,417l7.26-6.63,9.49,4.66,3.75,13.94L266.78,432l.91,9.56-17.84,27L254,471l-13,36.13-8.62,6.54-18.9,3.8-3.39,12.24-7,2.85-14.36-17.3L175,513,159.75,479.4l3.08-12,5.61-2.19-4.88-5.36,19.54-23.91-.82,16.13,5.07.2,11.35,12.58,12.1-15.72,7.91-1.61-3.19-11.6,3.64-7.72L230,425.89l13.75-19.4,3.71-1.63Z"/><text class="cls-2" transform="translate(352.67 178.57)">Condo<tspan class="cls-3" x="34.49" y="0">r</tspan><tspan x="38.42" y="0">canqui</tspan></text><text class="cls-4" transform="translate(371.2 199.1)"><tspan xml:space="preserve"> 0 p</tspan><tspan class="cls-5" x="24.52" y="0">r</tspan><tspan class="cls-6" x="29.73" y="0">o</tspan><tspan class="cls-7" x="38.1" y="0">y</tspan><tspan x="45.53" y="0">ec</tspan><tspan class="cls-8" x="61.46" y="0">t</tspan><tspan x="66.31" y="0">os</tspan></text><line class="cls-9" x1="348.11" y1="175.24" x2="346.7" y2="176.66"/><line class="cls-10" x1="343.98" y1="179.4" x2="312.75" y2="210.87"/><line class="cls-9" x1="311.39" y1="212.24" x2="309.98" y2="213.66"/><circle class="cls-11" cx="309.53" cy="214.14" r="1.57"/><circle class="cls-11" cx="348.4" cy="174.92" r="1.57"/><path class="cls-12" d="M360,194.57h1.3l.21-1,.16,0a4,4,0,0,0,1-.42l.14-.08.86.53.92-1-.56-.85.08-.14a3.43,3.43,0,0,0,.4-1l0-.16,1-.23v-1.33l-1-.2-.05-.17a3.55,3.55,0,0,0-.41-1l-.08-.14.52-.86-1-.92-.84.56-.15-.09a3.65,3.65,0,0,0-1-.39l-.16,0-.24-1h-1.32l-.21,1-.16,0a4,4,0,0,0-1,.42l-.14.08-.84-.54-.92.95.56.84-.09.15a3.65,3.65,0,0,0-.39,1l0,.16-1,.24v1.32l1,.2,0,.17a4.18,4.18,0,0,0,.42,1l.08.14-.52.86,1,.92.84-.56.15.08a3.55,3.55,0,0,0,1,.4l.16,0Zm2.59-4.93a2,2,0,1,1-2-2A2,2,0,0,1,362.57,189.64Z"/><path class="cls-12" d="M366.25,201.09h.92l.14-.69.12,0a2.57,2.57,0,0,0,.68-.29l.1-.06.6.37.65-.67-.39-.59.06-.1a2.63,2.63,0,0,0,.28-.7l0-.12.69-.16v-.93l-.69-.14,0-.12a2.68,2.68,0,0,0-.3-.69l-.05-.1.36-.6-.66-.65-.6.39-.1-.06a2.48,2.48,0,0,0-.7-.27l-.11,0-.17-.69h-.93l-.14.69-.12,0a2.57,2.57,0,0,0-.68.29l-.11.06-.59-.38-.64.66.39.6-.06.1a2.63,2.63,0,0,0-.28.7l0,.11-.69.17v.93l.69.14,0,.12a3.28,3.28,0,0,0,.3.69l0,.1-.36.6.66.65.6-.4.1.06a2.5,2.5,0,0,0,.7.28l.11,0Zm1.82-3.47a1.41,1.41,0,1,1-1.41-1.41A1.42,1.42,0,0,1,368.07,197.62Z"/><rect class="cls-13" x="358.45" y="187.72" width="2.36" height="11.25" transform="translate(242.05 -197.67) rotate(45)"/><polygon class="cls-14" points="352.67 201.74 354.82 196.49 358.16 199.83 352.67 201.74"/><rect class="cls-13" x="360.12" y="189.39" width="2.36" height="11.25" transform="translate(243.72 -198.36) rotate(45)"/><rect class="cls-15" x="365.96" y="184.98" width="2.7" height="4.73" transform="translate(759.5 60.09) rotate(135)"/><rect class="cls-16" x="364.05" y="186.89" width="2.7" height="4.73" transform="translate(757.59 64.7) rotate(135)"/><text class="cls-2" transform="translate(334.9 419.76)">Bonga<tspan class="cls-17" x="33.75" y="0">r</tspan><tspan x="37.55" y="0">á</tspan></text><text class="cls-4" transform="translate(353.43 440.29)"><tspan xml:space="preserve"> 3 p</tspan><tspan class="cls-5" x="24.52" y="0">r</tspan><tspan class="cls-6" x="29.73" y="0">o</tspan><tspan class="cls-7" x="38.1" y="0">y</tspan><tspan x="45.53" y="0">ec</tspan><tspan class="cls-8" x="61.46" y="0">t</tspan><tspan x="66.31" y="0">os</tspan></text><line class="cls-9" x1="330.33" y1="416.43" x2="328.92" y2="417.84"/><line class="cls-10" x1="326.21" y1="420.58" x2="294.97" y2="452.05"/><line class="cls-9" x1="293.61" y1="453.42" x2="292.21" y2="454.84"/><circle class="cls-11" cx="291.76" cy="455.32" r="1.57"/><circle class="cls-11" cx="330.63" cy="416.11" r="1.57"/><path class="cls-12" d="M342.2,435.76h1.31l.2-1,.17,0a4,4,0,0,0,1-.42l.14-.08.86.52.92-.95-.56-.84.09-.15a3.88,3.88,0,0,0,.4-1l0-.16,1-.24,0-1.32-1-.2,0-.17a4.18,4.18,0,0,0-.42-1l-.08-.14.52-.85-.94-.93-.85.56-.15-.08a3.55,3.55,0,0,0-1-.4l-.16,0-.24-1h-1.32l-.2,1-.17,0a3.55,3.55,0,0,0-1,.41l-.15.09-.84-.54-.92.94.56.85-.08.14a3.74,3.74,0,0,0-.4,1l0,.16-1,.24v1.32l1,.2,0,.17a3.55,3.55,0,0,0,.41,1l.08.14-.52.86.95.92.85-.56.14.09a3.65,3.65,0,0,0,1,.39l.17,0Zm2.59-4.93a2,2,0,1,1-2-2A2,2,0,0,1,344.79,430.83Z"/><path class="cls-12" d="M348.47,442.28h.92l.14-.69.12,0a2.77,2.77,0,0,0,.69-.29l.1-.06.6.37.65-.67-.4-.59.06-.11a2.23,2.23,0,0,0,.28-.7l0-.11.69-.17v-.93l-.69-.14,0-.12a2.57,2.57,0,0,0-.29-.68l-.06-.1.37-.61L351,436l-.59.39-.11-.06a2.57,2.57,0,0,0-.69-.28l-.12,0-.16-.69h-.93l-.15.69-.11,0a2.54,2.54,0,0,0-.69.3l-.1.05-.59-.37-.65.66.39.59-.05.11a2.28,2.28,0,0,0-.28.69l0,.12-.69.17v.92l.69.15,0,.11a2.49,2.49,0,0,0,.29.69l.06.1-.37.6.67.65.59-.39.1.06a2.63,2.63,0,0,0,.7.28l.12,0Zm1.83-3.47a1.42,1.42,0,1,1-1.42-1.41A1.42,1.42,0,0,1,350.3,438.81Z"/><rect class="cls-13" x="340.67" y="428.91" width="2.36" height="11.25" transform="translate(407.39 -114.46) rotate(45)"/><polygon class="cls-14" points="334.9 442.93 337.04 437.67 340.38 441.02 334.9 442.93"/><rect class="cls-13" x="342.34" y="430.58" width="2.36" height="11.25" transform="translate(409.06 -115.15) rotate(45)"/><rect class="cls-15" x="348.18" y="426.16" width="2.7" height="4.73" transform="translate(899.7 484.39) rotate(135)"/><rect class="cls-16" x="346.27" y="428.07" width="2.7" height="4.73" transform="translate(897.79 488.99) rotate(135)"/><circle class="cls-18" cx="283.88" cy="462.99" r="6.43"/><circle class="cls-18" cx="283.88" cy="479.74" r="6.43"/><circle class="cls-19" cx="283.88" cy="442.28" r="6.43"/><text class="cls-2" transform="translate(52.62 332.07)">Bagua</text><text class="cls-4" transform="translate(71.15 352.6)"><tspan xml:space="preserve"> 1 p</tspan><tspan class="cls-5" x="24.52" y="0">r</tspan><tspan class="cls-6" x="29.73" y="0">o</tspan><tspan class="cls-7" x="38.1" y="0">y</tspan><tspan x="45.53" y="0">ec</tspan><tspan class="cls-8" x="61.46" y="0">t</tspan><tspan x="66.31" y="0">o</tspan></text><line class="cls-9" x1="145.05" y1="333.97" x2="146.45" y2="335.39"/><line class="cls-10" x1="149.17" y1="338.12" x2="180.4" y2="369.6"/><line class="cls-9" x1="181.76" y1="370.96" x2="183.17" y2="372.38"/><circle class="cls-11" cx="183.62" cy="372.87" r="1.57"/><circle class="cls-11" cx="144.75" cy="333.65" r="1.57"/><path class="cls-12" d="M59.93,348.07h1.3l.21-1,.16,0a3.86,3.86,0,0,0,1-.42l.14-.08.86.52.92-.94-.56-.85.09-.14a3.71,3.71,0,0,0,.39-1l0-.16,1-.24v-1.32l-1-.2,0-.17a4,4,0,0,0-.42-1l-.08-.14.52-.86-1-.92-.84.56-.15-.09a4,4,0,0,0-1-.4l-.16,0-.24-1-1.32,0-.2,1-.17,0a4.18,4.18,0,0,0-1,.42l-.14.08-.84-.54-.92,1,.56.84-.08.15a3.27,3.27,0,0,0-.4,1l0,.16-1,.24v1.32l1,.2.05.17a3.74,3.74,0,0,0,.41,1l.08.14-.52.85.95.93.84-.56.15.08a3.68,3.68,0,0,0,1,.4l.16,0Zm2.59-4.93a2,2,0,1,1-2-2A2,2,0,0,1,62.52,343.14Z"/><path class="cls-12" d="M66.2,354.59h.92l.14-.69.12,0a2.57,2.57,0,0,0,.68-.29l.1-.06.61.37.64-.67-.39-.59.06-.1a2.63,2.63,0,0,0,.28-.7l0-.12.69-.16v-.93l-.69-.14,0-.12a2.83,2.83,0,0,0-.29-.69l-.06-.1.37-.6-.67-.65-.6.39-.1-.06a2.85,2.85,0,0,0-.7-.28l-.11,0-.17-.69h-.93l-.14.69-.12,0a2.57,2.57,0,0,0-.68.29l-.1.06-.6-.38-.64.66.39.6-.06.1a2.63,2.63,0,0,0-.28.7l0,.11-.69.17v.93l.7.14,0,.12a2.77,2.77,0,0,0,.29.69l0,.09-.36.61.66.65.6-.4.1.06a2.63,2.63,0,0,0,.7.28l.11,0ZM68,351.12a1.41,1.41,0,1,1-1.41-1.41A1.41,1.41,0,0,1,68,351.12Z"/><rect class="cls-13" x="58.4" y="341.22" width="2.36" height="11.25" transform="translate(262.71 59.46) rotate(45)"/><polygon class="cls-14" points="52.62 355.24 54.77 349.99 58.11 353.33 52.62 355.24"/><rect class="cls-13" x="60.07" y="342.89" width="2.36" height="11.25" transform="translate(264.38 58.77) rotate(45)"/><rect class="cls-15" x="65.91" y="338.48" width="2.7" height="4.73" transform="translate(355.82 534.29) rotate(135)"/><rect class="cls-16" x="64" y="340.38" width="2.7" height="4.73" transform="translate(353.92 538.9) rotate(135)"/><text class="cls-2" transform="translate(52.62 438.94)">Utcubamba</text><text class="cls-4" transform="translate(71.15 459.47)"><tspan xml:space="preserve"> 2 p</tspan><tspan class="cls-5" x="24.52" y="0">r</tspan><tspan class="cls-6" x="29.73" y="0">o</tspan><tspan class="cls-7" x="38.1" y="0">y</tspan><tspan x="45.53" y="0">ec</tspan><tspan class="cls-8" x="61.46" y="0">t</tspan><tspan x="66.31" y="0">os</tspan></text><line class="cls-9" x1="145.05" y1="440.84" x2="146.45" y2="442.26"/><line class="cls-10" x1="149.17" y1="444.99" x2="180.4" y2="476.47"/><line class="cls-9" x1="181.76" y1="477.84" x2="183.17" y2="479.26"/><circle class="cls-11" cx="183.62" cy="479.74" r="1.57"/><circle class="cls-11" cx="144.75" cy="440.52" r="1.57"/><path class="cls-12" d="M59.93,454.94h1.3l.21-1,.16,0a4.19,4.19,0,0,0,1-.41l.14-.09.86.53.92-.95-.56-.85L64,452a3.71,3.71,0,0,0,.39-1l0-.16,1-.23v-1.33l-1-.2,0-.17a4,4,0,0,0-.42-1l-.08-.14.52-.86-1-.92-.84.56-.15-.09a3.52,3.52,0,0,0-1-.39l-.16,0-.24-1H59.78l-.2,1-.17,0a4.18,4.18,0,0,0-1,.42l-.14.08-.84-.54-.92.95.56.84L57,448a3.38,3.38,0,0,0-.4,1l0,.16-1,.24v1.32l1,.2.05.17a3.74,3.74,0,0,0,.41,1l.08.14-.52.86.95.92.84-.56.15.08a3.68,3.68,0,0,0,1,.4l.16,0ZM62.52,450a2,2,0,1,1-2-2A2,2,0,0,1,62.52,450Z"/><path class="cls-12" d="M66.2,461.46h.92l.14-.69.12,0a2.57,2.57,0,0,0,.68-.29l.1-.06.61.37.64-.67L69,459.5l.06-.1a2.63,2.63,0,0,0,.28-.7l0-.11.69-.17v-.93l-.69-.14,0-.12a3,3,0,0,0-.29-.69l-.06-.1.37-.6-.67-.65-.6.39-.1-.05a2.23,2.23,0,0,0-.7-.28l-.11,0-.17-.69h-.93l-.14.69-.12,0a2.57,2.57,0,0,0-.68.29l-.1.06-.6-.38-.64.66.39.6-.06.1a3,3,0,0,0-.28.7l0,.11-.69.17v.93l.69.14,0,.12a2.77,2.77,0,0,0,.29.69l0,.1-.36.6.66.65.6-.4.1.06a2.33,2.33,0,0,0,.7.28l.11,0ZM68,458a1.41,1.41,0,1,1-1.41-1.42A1.41,1.41,0,0,1,68,458Z"/><rect class="cls-13" x="58.4" y="448.09" width="2.36" height="11.25" transform="translate(338.28 90.76) rotate(45)"/><polygon class="cls-14" points="52.62 462.11 54.77 456.86 58.11 460.2 52.62 462.11"/><rect class="cls-13" x="60.07" y="449.76" width="2.36" height="11.25" transform="translate(339.95 90.07) rotate(45)"/><rect class="cls-15" x="65.91" y="445.35" width="2.7" height="4.73" transform="translate(431.39 716.73) rotate(135)"/><rect class="cls-16" x="64" y="447.26" width="2.7" height="4.73" transform="translate(429.49 721.34) rotate(135)"/><circle class="cls-18" cx="191.5" cy="487.4" r="6.43"/><circle class="cls-19" cx="208.22" cy="487.4" r="6.43"/><text class="cls-2" transform="translate(128.71 561.92)"><tspan class="cls-20">L</tspan><tspan x="6.06" y="0">u</tspan><tspan class="cls-6" x="12.66" y="0">y</tspan><tspan x="18.27" y="0">a</tspan></text><text class="cls-4" transform="translate(151.23 582.44)">4 p<tspan class="cls-5" x="20.79" y="0">r</tspan><tspan class="cls-6" x="25.99" y="0">o</tspan><tspan class="cls-7" x="34.37" y="0">y</tspan><tspan x="41.8" y="0">ec</tspan><tspan class="cls-8" x="57.73" y="0">t</tspan><tspan x="62.58" y="0">os</tspan></text><line class="cls-9" x1="160.59" y1="558.65" x2="162.59" y2="558.66"/><line class="cls-21" x1="166.6" y1="558.67" x2="236.67" y2="558.85"/><line class="cls-9" x1="238.67" y1="558.85" x2="240.67" y2="558.86"/><circle class="cls-11" cx="241.33" cy="558.88" r="1.57"/><circle class="cls-11" cx="160.16" cy="558.64" r="1.57"/><path class="cls-12" d="M136,577.91h1.31l.2-1,.16,0a4.19,4.19,0,0,0,1-.41l.14-.09.86.53.92-.95-.56-.85.09-.14a3.71,3.71,0,0,0,.39-1l0-.16,1-.23v-1.33l-1-.2,0-.17a4,4,0,0,0-.42-1l-.08-.14.52-.86-.95-.92-.84.56-.15-.09a3.52,3.52,0,0,0-1-.39l-.16,0-.24-1h-1.32l-.2,1-.17,0a4.18,4.18,0,0,0-1,.42l-.14.08-.84-.54-.92,1,.56.84-.08.15a3.68,3.68,0,0,0-.4,1l0,.16-1,.24v1.32l1,.2,0,.17a3.74,3.74,0,0,0,.41,1l.08.14-.52.86.95.92.84-.56.15.08a3.68,3.68,0,0,0,1,.4l.17,0ZM138.6,573a2,2,0,1,1-2-2A2,2,0,0,1,138.6,573Z"/><path class="cls-12" d="M142.28,584.43h.92l.14-.69.12,0a2.77,2.77,0,0,0,.69-.29l.09-.06.61.37.65-.67-.4-.59.06-.1a2.63,2.63,0,0,0,.28-.7l0-.12.69-.16v-.93l-.69-.14,0-.12a2.62,2.62,0,0,0-.29-.69l-.06-.1.37-.6-.67-.65-.59.39-.11-.06a2.54,2.54,0,0,0-.69-.27l-.12,0-.17-.69h-.92l-.15.69-.11,0a2.49,2.49,0,0,0-.69.29l-.1.06-.59-.38-.65.66.39.6-.06.1a3,3,0,0,0-.28.7l0,.11-.69.17v.93l.69.14,0,.12a2.77,2.77,0,0,0,.29.69l.06.1-.37.6.67.65.59-.4.1.06a2.63,2.63,0,0,0,.7.28l.12,0ZM144.1,581a1.41,1.41,0,1,1-1.41-1.42A1.41,1.41,0,0,1,144.1,581Z"/><rect class="cls-13" x="134.48" y="571.06" width="2.36" height="11.25" transform="translate(447.51 72.98) rotate(45)"/><polygon class="cls-14" points="128.71 585.08 130.85 579.83 134.19 583.17 128.71 585.08"/><rect class="cls-13" x="136.15" y="572.73" width="2.36" height="11.25" transform="translate(449.18 72.29) rotate(45)"/><rect class="cls-15" x="141.99" y="568.32" width="2.7" height="4.73" transform="translate(648.23 872.86) rotate(135)"/><rect class="cls-16" x="140.08" y="570.23" width="2.7" height="4.73" transform="translate(646.32 877.47) rotate(135)"/><circle class="cls-18" cx="252.32" cy="558.73" r="6.43"/><circle class="cls-18" cx="267.86" cy="558.73" r="6.43"/><circle class="cls-19" cx="245.89" cy="541.88" r="6.43"/><circle class="cls-19" cx="261.43" cy="541.88" r="6.43"/><text class="cls-2" transform="translate(254.08 684.58)">Chachap<tspan class="cls-6" x="46.65" y="0">oy</tspan><tspan x="58.9" y="0">as</tspan></text><text class="cls-4" transform="translate(272.61 705.11)"><tspan xml:space="preserve"> 3 p</tspan><tspan class="cls-5" x="24.52" y="0">r</tspan><tspan class="cls-6" x="29.73" y="0">o</tspan><tspan class="cls-7" x="38.1" y="0">y</tspan><tspan x="45.53" y="0">ec</tspan><tspan class="cls-8" x="61.46" y="0">t</tspan><tspan x="66.31" y="0">os</tspan></text><line class="cls-9" x1="286.44" y1="669.5" x2="286.46" y2="667.5"/><line class="cls-22" x1="286.48" y1="663.95" x2="286.62" y2="644.42"/><line class="cls-9" x1="286.63" y1="642.65" x2="286.65" y2="640.65"/><circle class="cls-11" cx="286.67" cy="639.99" r="1.57"/><circle class="cls-11" cx="286.43" cy="669.93" r="1.57"/><path class="cls-12" d="M261.38,700.58h1.31l.2-1,.17-.05a3.55,3.55,0,0,0,1-.41l.14-.08.86.52.92-1-.56-.84.09-.15a4,4,0,0,0,.4-1l0-.16,1-.24,0-1.32-1-.21,0-.16a4.18,4.18,0,0,0-.42-1l-.08-.14.52-.86-.94-.92-.85.56-.14-.08a3.74,3.74,0,0,0-1-.4l-.16,0-.24-1h-1.32l-.2,1-.17,0a3.55,3.55,0,0,0-1,.41l-.15.09-.84-.54-.91.94.55.85-.08.14a3.81,3.81,0,0,0-.4,1l0,.17-1,.23,0,1.32,1,.21,0,.16a3.8,3.8,0,0,0,.41,1l.09.14-.53.86.95.92.85-.56.14.09a3.78,3.78,0,0,0,1,.39l.17,0Zm2.59-4.93a2,2,0,1,1-2-2A2,2,0,0,1,264,695.65Z"/><path class="cls-12" d="M267.65,707.1h.92l.14-.69.12,0a2.68,2.68,0,0,0,.69-.3l.1-.05.6.36.65-.66-.39-.6,0-.1a2.23,2.23,0,0,0,.28-.7l0-.11.69-.17v-.93l-.69-.14,0-.12a2.57,2.57,0,0,0-.29-.68l-.06-.1.37-.61-.67-.64-.59.39-.1-.06a2.63,2.63,0,0,0-.7-.28l-.12,0-.16-.69h-.93l-.15.69-.11,0a2.49,2.49,0,0,0-.69.29l-.1.06-.59-.38-.65.67.4.59-.06.11a2.28,2.28,0,0,0-.28.69l0,.12-.69.16v.93l.69.15,0,.11a2.49,2.49,0,0,0,.29.69l.06.1-.37.6.67.65.59-.39.11.06a2.78,2.78,0,0,0,.69.28l.12,0Zm1.83-3.47a1.42,1.42,0,1,1-1.41-1.41A1.41,1.41,0,0,1,269.48,703.63Z"/><rect class="cls-13" x="259.85" y="693.72" width="2.36" height="11.25" transform="translate(570.97 20.26) rotate(45)"/><polygon class="cls-14" points="254.08 707.74 256.22 702.49 259.56 705.83 254.08 707.74"/><rect class="cls-13" x="261.52" y="695.4" width="2.36" height="11.25" transform="translate(572.64 19.56) rotate(45)"/><rect class="cls-15" x="267.36" y="690.98" width="2.7" height="4.73" transform="translate(948.99 993.61) rotate(135)"/><rect class="cls-16" x="265.45" y="692.89" width="2.7" height="4.73" transform="translate(947.08 998.22) rotate(135)"/><circle class="cls-19" cx="274.29" cy="639" r="6.43"/><circle class="cls-19" cx="285.1" cy="627.13" r="6.43"/><circle class="cls-19" cx="197.54" cy="381.84" r="6.43"/><circle class="cls-18" cx="297.43" cy="639" r="6.43"/><text class="cls-2" transform="translate(368.83 490.79)">Rodriguez de Mend<tspan class="cls-23" x="101.56" y="0">o</tspan><tspan x="108.19" y="0">za</tspan></text><text class="cls-4" transform="translate(387.36 511.32)"><tspan xml:space="preserve"> 1 p</tspan><tspan class="cls-5" x="24.52" y="0">r</tspan><tspan class="cls-6" x="29.73" y="0">o</tspan><tspan class="cls-7" x="38.1" y="0">y</tspan><tspan x="45.53" y="0">ec</tspan><tspan class="cls-8" x="61.46" y="0">t</tspan><tspan x="66.31" y="0">o</tspan></text><line class="cls-9" x1="360.08" y1="487.65" x2="360.07" y2="489.65"/><line class="cls-24" x1="360.05" y1="493.8" x2="359.9" y2="524.91"/><line class="cls-9" x1="359.89" y1="526.99" x2="359.88" y2="528.99"/><circle class="cls-11" cx="359.85" cy="529.64" r="1.57"/><circle class="cls-11" cx="360.1" cy="487.21" r="1.57"/><path class="cls-12" d="M376.14,506.79h1.3l.2-1,.17,0a4.18,4.18,0,0,0,1-.42l.14-.08.85.52.92-1-.55-.84.08-.15a3.55,3.55,0,0,0,.4-1l0-.16,1-.24,0-1.32-1-.2,0-.17a3.74,3.74,0,0,0-.41-1l-.09-.14.53-.86-.95-.92-.85.56-.14-.08a3.81,3.81,0,0,0-1-.4l-.17,0-.23-1H376l-.2,1-.16,0a3.48,3.48,0,0,0-1,.41l-.15.09-.84-.54-.91.94.56.85-.09.14a4.1,4.1,0,0,0-.4,1l0,.16-1,.24,0,1.32,1,.2,0,.17a4,4,0,0,0,.42,1l.08.14-.52.86.94.92.85-.56.14.09a3.71,3.71,0,0,0,1,.39l.16,0Zm2.59-4.93a2,2,0,1,1-2-2A2,2,0,0,1,378.73,501.86Z"/><path class="cls-12" d="M382.41,513.31h.91l.15-.69.11,0a2.83,2.83,0,0,0,.69-.29l.1-.06.6.37.65-.67-.39-.6.06-.1a2.85,2.85,0,0,0,.28-.7l0-.11.69-.17v-.93l-.69-.14,0-.12a2.57,2.57,0,0,0-.29-.68l-.06-.1.37-.61-.66-.64-.6.39-.1-.06a2.63,2.63,0,0,0-.7-.28l-.11,0-.17-.69h-.93l-.14.69-.12,0a3,3,0,0,0-.69.29l-.1.06-.59-.37-.65.66.4.59-.06.11a2.57,2.57,0,0,0-.28.69l0,.12-.69.17v.92l.69.15,0,.11a2.49,2.49,0,0,0,.29.69l.06.1-.37.6.67.65.59-.39.11.06a2.57,2.57,0,0,0,.69.28l.12,0Zm1.82-3.47a1.41,1.41,0,1,1-1.41-1.41A1.41,1.41,0,0,1,384.23,509.84Z"/><rect class="cls-13" x="374.6" y="499.94" width="2.36" height="11.25" transform="translate(467.55 -117.65) rotate(45)"/><polygon class="cls-14" points="368.83 513.96 370.97 508.7 374.32 512.05 368.83 513.96"/><rect class="cls-13" x="376.28" y="501.61" width="2.36" height="11.25" transform="translate(469.22 -118.34) rotate(45)"/><rect class="cls-15" x="382.11" y="497.19" width="2.7" height="4.73" transform="translate(1007.85 581.65) rotate(135)"/><rect class="cls-16" x="380.2" y="499.1" width="2.7" height="4.73" transform="translate(1005.94 586.26) rotate(135)"/></svg>