<svg id="Capa_1" data-name="Capa 1" xmlns="http://www.w3.org/2000/svg" viewBox="0 0 554 932"><defs><style>.cls-1{fill:#71c2e9;stroke:#377c9c;stroke-width:3px;fill-rule:evenodd;}.cls-1,.cls-22,.cls-23{stroke-miterlimit:1.75;}.cls-2{font-size:12px;font-family:Roboto-Light, Roboto;font-weight:300;}.cls-10,.cls-2,.cls-4{fill:#1d1d1b;}.cls-3{letter-spacing:-0.01em;}.cls-4{font-size:15px;font-family:Roboto-Bold, Roboto;font-weight:700;}.cls-5{letter-spacing:-0.02em;}.cls-6{letter-spacing:-0.01em;}.cls-7{letter-spacing:-0.01em;}.cls-11,.cls-16,.cls-18,.cls-21,.cls-24,.cls-8,.cls-9{fill:none;}.cls-16,.cls-18,.cls-21,.cls-24,.cls-8,.cls-9{stroke:#0b0c0c;}.cls-11,.cls-12,.cls-13,.cls-14,.cls-15,.cls-16,.cls-18,.cls-21,.cls-24,.cls-8,.cls-9{stroke-linejoin:round;}.cls-9{stroke-dasharray:3.86 3.86;}.cls-11,.cls-12,.cls-13,.cls-14,.cls-15{stroke:#262626;stroke-linecap:round;stroke-width:0.5px;}.cls-12{fill:#fab637;}.cls-13{fill:#ffe7a1;}.cls-14{fill:#4ca8de;}.cls-15{fill:#cfcece;}.cls-16{stroke-dasharray:3.64 3.64;}.cls-17{letter-spacing:-0.02em;}.cls-18{stroke-dasharray:3.88 3.88;}.cls-19{letter-spacing:-0.01em;}.cls-20{letter-spacing:-0.02em;}.cls-21{stroke-dasharray:3.91 3.91;}.cls-22{fill:#ec6062;stroke:#cc444b;}.cls-23{fill:#afd28c;stroke:#71915a;isolation:isolate;}.cls-24{stroke-dasharray:3.55 3.55;}</style></defs><path class="cls-1" d="M284.67,242l6.47,6.43,17.75,1.06,1,7.06,40.88,21.69,35.2,9,4.72,6.85-7.89,8.54L378,325.11l-9.35-4.47-14.34-7.92-21.13,9.47,8.4,17.71-20.06,10.73,1.83,6.74-13.16,7.31-1.54,18.14L296.48,388l-5.6,25.88-27.57-22.61-3.52-42.38L232.1,327.86l22.84-17.08,17-4.14,6.79-9.89L256.66,276,241.3,262.61l-4.76-12.72L247.41,255Z"/><path class="cls-1" d="M227.08,248.09l51.64,48.66-6.79,9.89-17,4.14L224.27,332l-7.16-1.81-8.09,16-14.38,6.86L182.15,405l9.33,28.71L181,439.22,163.37,480l-15.32-25.63,13.24-22.61-.41-14.08-46.91-98,29.06-7.1.36-24.4,15.19,1.4,7.86-8.09,8.41,3.2-6.69-17.72L176,251.22l43.09,9.51Z"/><path class="cls-1" d="M261.61,390.67l23.31,7.6,10.47,26.91,10.32-2.54,3.64,5.59,13.56-6.41,6.9,12-2.91,4.66,7.05,4,9.87-3.61,5.42-21.67,6.33,3.3,17.33-11.15,17.77,13.12,7.16,4.68,5.18,8.08,1.23,7.33-6.42,20.07-15.71,4.51-12.82,14.4,8.47,11.09-2,11.38-18.33,3.51-6.89,7.25L347.14,507l-16.33,2.57-6.93-2.46-.21-6.74-13.18,1.3-11.62,22.54-4.43-10.76-26.77-9.26-3.26-15.63,6.16-8.82.79-21-21-23.08,8.39-15.21-7.66-22.28Z"/><path class="cls-1" d="M234.57,330.52l25.22,18.41,4.06,40.16-12.71,9.11,7.66,22.28-8.39,15.21,21,23.08-2.42,26.75-10.46,17.62-11.23-1.33-3.15,8.77-8.17-3.93L208.4,518.91l-15.77-10.76-24.75,33-16.08-13-2.47-17.31,11.81-5.76-3.09-17.92,5.32-7.28L181,439.22l10.52-5.54L182.15,405l12.49-51.87L209,346.24l8.09-16Z"/><path class="cls-1" d="M390.5,295l17.9,13.37L419,303l19.46,13.4L461.06,354l-.23,40.79-7.9,9.05,3.84,7-33.44,29-2.05,11.18-13.88,7.75L396.72,456l5-25-15.14-5.63-12.56-15.8,3.53-3.8L392.77,411l7.94-13.47-3.84-13-11-2.63-12-38.48,8.93-40.74Z"/><path class="cls-1" d="M114.29,198.69l3.83,19.25,13.19,2.79,32,21,5.25,9.64,7.41-.14-7.85,15.66,6.69,17.72-8.41-3.2-7.86,8.09-15.19-1.4-.36,24.4-4.58,1.59-33.51-19.62-9.65-37.9,1.41-25.92,5.38-3.52-3.72-13.27Z"/><path class="cls-1" d="M352.15,312.85l24.39,8.75-2.71,21.85,6.2,8.15,1,19.67,6.77,13.07,9.08.22,3.84,13-8.27,13.59-14.85-5.36-22,14.67-6.33-3.3-5.42,21.67-9.41,3.69-7.51-4.07,2.91-4.66-6.9-12-13.72,6.38-3.48-5.56-10.32,2.54-7.93-11.05,9-26.09,12.2-5.22,1.85-18.59,12.85-6.86-.13-8.12,18.36-9.35-8.4-17.71Z"/><text class="cls-2" transform="translate(173.55 200.66)">Andahu<tspan class="cls-3" x="40.36" y="0">a</tspan><tspan x="46.7" y="0">ylas</tspan></text><text class="cls-4" transform="translate(192.08 221.19)"><tspan xml:space="preserve">  13 p</tspan><tspan class="cls-5" x="36.86" y="0">r</tspan><tspan class="cls-3" x="42.07" y="0">o</tspan><tspan class="cls-6" x="50.44" y="0">y</tspan><tspan x="57.88" y="0">ec</tspan><tspan class="cls-7" x="73.81" y="0">t</tspan><tspan x="78.65" y="0">o</tspan></text><line class="cls-8" x1="200.34" y1="230.85" x2="200.34" y2="232.85"/><line class="cls-9" x1="200.36" y1="236.7" x2="200.53" y2="281.04"/><line class="cls-8" x1="200.53" y1="282.97" x2="200.54" y2="284.97"/><circle class="cls-10" cx="200.57" cy="285.63" r="1.57"/><circle class="cls-10" cx="200.32" cy="230.41" r="1.57"/><line class="cls-8" x1="74.23" y1="194.6" x2="75.65" y2="196.01"/><line class="cls-9" x1="78.38" y1="198.72" x2="109.86" y2="229.96"/><line class="cls-8" x1="111.22" y1="231.31" x2="112.64" y2="232.72"/><circle class="cls-10" cx="113.13" cy="233.17" r="1.57"/><circle class="cls-10" cx="73.91" cy="194.3" r="1.57"/><path class="cls-11" d="M180.86,216.66h1.3l.2-1,.17,0a4.18,4.18,0,0,0,1-.42l.14-.08.85.52.92-.94-.55-.85.08-.15a3.55,3.55,0,0,0,.4-1l0-.16,1-.24,0-1.32-1-.2,0-.17a3.74,3.74,0,0,0-.41-1l-.09-.14.53-.85-1-.92-.85.55-.14-.08a3.81,3.81,0,0,0-1-.4l-.17,0-.23-1-1.33,0-.2,1-.16,0a4.19,4.19,0,0,0-1,.41l-.15.09-.84-.54-.91.94.56.85-.09.15a3.88,3.88,0,0,0-.4,1l0,.16-1,.24,0,1.32,1,.2,0,.17a4,4,0,0,0,.42,1l.08.14-.52.86.94.92.85-.55.14.08a4.1,4.1,0,0,0,1,.4l.16,0Zm2.59-4.93a2,2,0,1,1-2-2A2,2,0,0,1,183.45,211.73Z"/><path class="cls-11" d="M187.13,223.18H188l.15-.69.11,0a2.49,2.49,0,0,0,.69-.29l.1-.06.6.37.65-.67-.39-.59.06-.11a2.94,2.94,0,0,0,.28-.69l0-.12.69-.17v-.92l-.69-.15,0-.11a2.49,2.49,0,0,0-.29-.69l-.06-.1.37-.6-.66-.65-.6.39-.1-.06a2.63,2.63,0,0,0-.7-.28l-.11,0-.17-.7H187l-.14.7-.12,0a3.07,3.07,0,0,0-.69.3l-.1.06-.59-.38-.65.66.4.6-.06.1a2.5,2.5,0,0,0-.28.7l0,.11-.69.17v.93l.69.14,0,.12a2.57,2.57,0,0,0,.29.68l.06.1-.37.61.67.64.59-.39.11.06a2.57,2.57,0,0,0,.69.28l.12,0Zm1.82-3.47a1.41,1.41,0,1,1-1.41-1.41A1.41,1.41,0,0,1,189,219.71Z"/><rect class="cls-12" x="179.32" y="209.81" width="2.36" height="11.25" transform="translate(205.2 -64.54) rotate(45)"/><polygon class="cls-13" points="173.55 223.83 175.69 218.57 179.04 221.92 173.55 223.83"/><rect class="cls-12" x="181" y="211.48" width="2.36" height="11.25" transform="translate(206.87 -65.23) rotate(45)"/><rect class="cls-14" x="186.83" y="207.06" width="2.7" height="4.73" transform="translate(469.33 224.45) rotate(135)"/><rect class="cls-15" x="184.92" y="208.97" width="2.7" height="4.73" transform="translate(467.43 229.06) rotate(135)"/><text class="cls-2" transform="translate(340.13 242.78)">Abanc<tspan class="cls-3" x="33.35" y="0">a</tspan><tspan x="39.69" y="0">y</tspan></text><text class="cls-4" transform="translate(358.66 263.31)"><tspan xml:space="preserve">  4 p</tspan><tspan class="cls-5" x="28.26" y="0">r</tspan><tspan class="cls-3" x="33.46" y="0">o</tspan><tspan class="cls-6" x="41.84" y="0">y</tspan><tspan x="49.27" y="0">ec</tspan><tspan class="cls-7" x="65.2" y="0">t</tspan><tspan x="70.05" y="0">o</tspan></text><line class="cls-8" x1="335.56" y1="239.44" x2="334.16" y2="240.86"/><line class="cls-9" x1="331.44" y1="243.6" x2="300.21" y2="275.07"/><line class="cls-8" x1="298.85" y1="276.44" x2="297.44" y2="277.86"/><circle class="cls-10" cx="296.99" cy="278.34" r="1.57"/><circle class="cls-10" cx="335.86" cy="239.13" r="1.57"/><path class="cls-11" d="M347.44,258.78h1.3l.2-1,.17-.05a3.74,3.74,0,0,0,1-.41l.14-.08.85.52.93-.95-.56-.84.08-.15a3.68,3.68,0,0,0,.4-1l0-.16,1-.24v-1.32l-1-.2,0-.17a3.74,3.74,0,0,0-.41-1l-.08-.14.52-.86-.95-.92-.85.56-.14-.08a3.81,3.81,0,0,0-1-.4l-.17,0-.23-1h-1.32l-.21,1-.16,0a3.48,3.48,0,0,0-1,.41l-.14.09-.84-.54-.92.94.56.85-.09.14a4.2,4.2,0,0,0-.4,1l0,.17-1,.23,0,1.33,1,.2,0,.17a4,4,0,0,0,.42,1l.08.14-.52.86.94.92.85-.56.15.09a3.52,3.52,0,0,0,1,.39l.16,0Zm2.59-4.93a2,2,0,1,1-2-2A2,2,0,0,1,350,253.85Z"/><path class="cls-11" d="M353.71,265.3h.91l.15-.69.11,0a2.83,2.83,0,0,0,.69-.29l.1-.06.6.37.65-.67-.39-.6.06-.1a2.85,2.85,0,0,0,.28-.7l0-.11.69-.17v-.93l-.69-.14,0-.12a2.57,2.57,0,0,0-.29-.68l-.05-.1.36-.61-.66-.64-.6.39-.1-.06a2.63,2.63,0,0,0-.7-.28l-.11,0-.17-.69h-.93l-.14.69-.12,0a3.2,3.2,0,0,0-.69.29l-.1.06-.59-.38-.64.67.39.59-.06.11a2.57,2.57,0,0,0-.28.69l0,.12-.69.16v.93l.69.15,0,.11a2.49,2.49,0,0,0,.29.69l.06.1-.37.6.67.65.59-.39.11.06a2.5,2.5,0,0,0,.7.28l.11,0Zm1.82-3.47a1.41,1.41,0,1,1-1.41-1.41A1.41,1.41,0,0,1,355.53,261.83Z"/><rect class="cls-12" x="345.9" y="251.93" width="2.36" height="11.25" transform="translate(283.77 -169.99) rotate(45)"/><polygon class="cls-13" points="340.13 265.94 342.27 260.69 345.62 264.04 340.13 265.94"/><rect class="cls-12" x="347.58" y="253.6" width="2.36" height="11.25" transform="translate(285.45 -170.69) rotate(45)"/><rect class="cls-14" x="353.41" y="249.18" width="2.7" height="4.73" transform="translate(783.49 178.56) rotate(135)"/><rect class="cls-15" x="351.5" y="251.09" width="2.7" height="4.73" transform="translate(781.58 183.17) rotate(135)"/><text class="cls-2" transform="translate(401.67 474.97)">Cotabambas</text><text class="cls-4" transform="translate(420.2 495.5)"><tspan xml:space="preserve">  0 p</tspan><tspan class="cls-5" x="28.26" y="0">r</tspan><tspan class="cls-3" x="33.46" y="0">o</tspan><tspan class="cls-6" x="41.84" y="0">y</tspan><tspan x="49.27" y="0">ec</tspan><tspan class="cls-7" x="65.2" y="0">t</tspan><tspan x="70.05" y="0">os</tspan></text><line class="cls-8" x1="431.99" y1="459.37" x2="430.92" y2="457.68"/><line class="cls-16" x1="428.97" y1="454.6" x2="414.31" y2="431.53"/><line class="cls-8" x1="413.33" y1="429.99" x2="412.26" y2="428.3"/><circle class="cls-10" cx="412.26" cy="428.3" r="1.57"/><circle class="cls-10" cx="432.79" cy="460.37" r="1.57"/><path class="cls-11" d="M409,491h1.31l.2-1,.17,0a4,4,0,0,0,1-.42l.14-.08.86.53.92-1-.56-.85.09-.14a4.1,4.1,0,0,0,.4-1l0-.16,1-.24,0-1.32-1-.2,0-.17a4,4,0,0,0-.42-1l-.08-.14.52-.86-.94-.92-.85.56-.15-.09a3.52,3.52,0,0,0-1-.39l-.16,0-.24-1h-1.32l-.2,1-.17,0a4,4,0,0,0-1,.42l-.15.08-.84-.54-.91.95.55.84-.08.15a3.55,3.55,0,0,0-.4,1l0,.16-1,.24,0,1.32,1,.2,0,.17a3.74,3.74,0,0,0,.41,1l.09.14-.53.86.95.92.85-.56.14.08a3.81,3.81,0,0,0,1,.4l.17,0Zm2.59-4.93a2,2,0,1,1-2-2A2,2,0,0,1,411.56,486Z"/><path class="cls-11" d="M415.24,497.49h.92l.14-.69.12,0a2.77,2.77,0,0,0,.69-.29l.1-.06.6.37.65-.67-.4-.59.06-.1a2.33,2.33,0,0,0,.28-.7l0-.12.69-.16v-.93l-.69-.14,0-.12a2.49,2.49,0,0,0-.29-.69l-.06-.1.37-.6-.67-.65-.59.39-.1-.06a2.6,2.6,0,0,0-.7-.27l-.12,0-.16-.69h-.93l-.15.69-.11,0a2.49,2.49,0,0,0-.69.29l-.1.06-.59-.38-.65.66.4.6-.06.1a2.33,2.33,0,0,0-.28.7l0,.11-.69.17v.93l.69.14,0,.12a2.77,2.77,0,0,0,.29.69l.06.09-.37.61.67.65.59-.4.1.06a2.63,2.63,0,0,0,.7.28l.12,0Zm1.83-3.47a1.42,1.42,0,1,1-1.41-1.41A1.42,1.42,0,0,1,417.07,494Z"/><rect class="cls-12" x="407.44" y="484.12" width="2.36" height="11.25" transform="translate(465.98 -145.5) rotate(45)"/><polygon class="cls-13" points="401.67 498.14 403.81 492.89 407.15 496.23 401.67 498.14"/><rect class="cls-12" x="409.11" y="485.79" width="2.36" height="11.25" transform="translate(467.66 -146.19) rotate(45)"/><rect class="cls-14" x="414.95" y="481.38" width="2.7" height="4.73" transform="translate(1052.72 531.43) rotate(135)"/><rect class="cls-15" x="413.04" y="483.28" width="2.7" height="4.73" transform="translate(1050.82 536.04) rotate(135)"/><text class="cls-2" transform="translate(382.03 535.04)">G<tspan class="cls-17" x="8.2" y="0">r</tspan><tspan x="12.01" y="0">au</tspan></text><text class="cls-4" transform="translate(400.56 555.57)"><tspan xml:space="preserve">  4 p</tspan><tspan class="cls-5" x="28.26" y="0">r</tspan><tspan class="cls-3" x="33.46" y="0">o</tspan><tspan class="cls-6" x="41.84" y="0">y</tspan><tspan x="49.27" y="0">ec</tspan><tspan class="cls-7" x="65.2" y="0">t</tspan><tspan x="70.05" y="0">os</tspan></text><line class="cls-8" x1="392.03" y1="521" x2="391.27" y2="519.15"/><line class="cls-18" x1="389.8" y1="515.56" x2="343.64" y2="402.45"/><line class="cls-8" x1="342.91" y1="400.66" x2="342.15" y2="398.81"/><circle class="cls-10" cx="341.7" cy="399.29" r="1.57"/><circle class="cls-10" cx="392.32" cy="520.68" r="1.57"/><path class="cls-11" d="M389.34,551h1.3l.21-1,.16,0a4,4,0,0,0,1-.42l.14-.08.86.53.92-.95-.56-.85.09-.14a3.71,3.71,0,0,0,.39-1l0-.16,1-.23v-1.33l-1-.2,0-.17a4,4,0,0,0-.42-1l-.08-.14.52-.86-.95-.92-.84.56-.15-.09a3.65,3.65,0,0,0-1-.39l-.16,0-.24-1h-1.32l-.2,1-.17,0a4.18,4.18,0,0,0-1,.42l-.14.08-.84-.54-.92,1,.56.84-.09.15a3.65,3.65,0,0,0-.39,1l0,.16-1,.24v1.32l1,.2.05.17a3.74,3.74,0,0,0,.41,1l.08.14-.52.86.95.92.84-.56.15.08a3.68,3.68,0,0,0,1,.4l.16,0Zm2.59-4.93a2,2,0,1,1-2-2A2,2,0,0,1,391.93,546.11Z"/><path class="cls-11" d="M395.61,557.56h.92l.14-.69.12,0a2.57,2.57,0,0,0,.68-.29l.1-.06.61.37.64-.67-.39-.59.06-.1a2.63,2.63,0,0,0,.28-.7l0-.12.69-.16v-.93l-.69-.14,0-.12a3,3,0,0,0-.29-.69l-.06-.1.37-.6-.67-.65-.6.39-.1-.06a2.48,2.48,0,0,0-.7-.27l-.11,0-.17-.69h-.93l-.14.69-.12,0a2.57,2.57,0,0,0-.68.29l-.11.06-.59-.38-.64.66.39.6-.06.1a2.63,2.63,0,0,0-.28.7l0,.11-.69.17v.93l.7.14,0,.12a3.28,3.28,0,0,0,.3.69l.05.1-.36.6.66.65.6-.4.1.06a2.63,2.63,0,0,0,.7.28l.11,0Zm1.82-3.47a1.41,1.41,0,1,1-1.41-1.41A1.42,1.42,0,0,1,397.43,554.09Z"/><rect class="cls-12" x="387.81" y="544.19" width="2.36" height="11.25" transform="translate(502.71 -114.02) rotate(45)"/><polygon class="cls-13" points="382.03 558.21 384.18 552.96 387.52 556.3 382.03 558.21"/><rect class="cls-12" x="389.48" y="545.86" width="2.36" height="11.25" transform="translate(504.38 -114.71) rotate(45)"/><rect class="cls-14" x="395.32" y="541.45" width="2.7" height="4.73" transform="translate(1061.68 647.86) rotate(135)"/><rect class="cls-15" x="393.41" y="543.36" width="2.7" height="4.73" transform="translate(1059.78 652.47) rotate(135)"/><text class="cls-2" transform="translate(56.94 160.42)">Chinche<tspan class="cls-19" x="42.63" y="0">r</tspan><tspan x="46.55" y="0">os</tspan></text><text class="cls-4" transform="translate(75.46 180.94)"><tspan xml:space="preserve"> 21 p</tspan><tspan class="cls-5" x="33.13" y="0">r</tspan><tspan class="cls-3" x="38.33" y="0">o</tspan><tspan class="cls-6" x="46.71" y="0">y</tspan><tspan x="54.14" y="0">ec</tspan><tspan class="cls-7" x="70.07" y="0">t</tspan><tspan x="74.92" y="0">os</tspan></text><path class="cls-11" d="M64.24,176.41h1.31l.2-1,.17,0a4.31,4.31,0,0,0,1-.41l.14-.09.86.53.92-.95-.56-.85.09-.14a3.71,3.71,0,0,0,.39-1l0-.16,1-.23v-1.33l-1-.2,0-.17a4,4,0,0,0-.42-1l-.08-.14.52-.86-.94-.92-.85.56L66.8,168a3.52,3.52,0,0,0-1-.39l-.16,0-.24-1H64.09l-.2,1-.17,0a4,4,0,0,0-1,.42l-.15.08-.84-.54-.92.95.56.84-.08.15a3.68,3.68,0,0,0-.4,1l0,.16-1,.24v1.32l1,.2,0,.17a3.74,3.74,0,0,0,.41,1l.08.14-.52.86,1,.92.85-.56.14.08a3.68,3.68,0,0,0,1,.4l.17,0Zm2.59-4.93a2,2,0,1,1-2-2A2,2,0,0,1,66.83,171.48Z"/><path class="cls-11" d="M70.51,182.93h.92l.14-.69.12,0a2.77,2.77,0,0,0,.69-.29l.1-.06.6.37.65-.67-.4-.59.06-.1a2.63,2.63,0,0,0,.28-.7l0-.12.69-.16V179l-.69-.14,0-.12a2.62,2.62,0,0,0-.29-.69l-.06-.1.37-.6-.67-.65-.59.39-.11-.06a2.54,2.54,0,0,0-.69-.27l-.12,0-.16-.69h-.93l-.15.69-.11,0a2.49,2.49,0,0,0-.69.29l-.1.06-.59-.38-.65.66.39.6-.06.1a2.6,2.6,0,0,0-.27.7l0,.11-.69.17V180l.69.14,0,.12a2.77,2.77,0,0,0,.29.69l.06.1-.37.6.67.65.59-.4.1.06a2.63,2.63,0,0,0,.7.28l.12,0Zm1.82-3.46a1.41,1.41,0,1,1-1.41-1.42A1.41,1.41,0,0,1,72.33,179.47Z"/><rect class="cls-12" x="62.71" y="169.56" width="2.36" height="11.25" transform="translate(142.59 6.13) rotate(45)"/><polygon class="cls-13" points="56.94 183.58 59.08 178.33 62.42 181.67 56.94 183.58"/><rect class="cls-12" x="64.38" y="171.23" width="2.36" height="11.25" transform="translate(144.26 5.44) rotate(45)"/><rect class="cls-14" x="70.22" y="166.82" width="2.7" height="4.73" transform="translate(241.8 238.21) rotate(135)"/><rect class="cls-15" x="68.31" y="168.73" width="2.7" height="4.73" transform="translate(239.9 242.81) rotate(135)"/><text class="cls-2" transform="translate(42.55 509.1)"><tspan class="cls-20">A</tspan><tspan x="7.2" y="0">yma</tspan><tspan class="cls-17" x="29.96" y="0">r</tspan><tspan x="33.77" y="0">aes</tspan></text><text class="cls-4" transform="translate(61.08 529.62)"><tspan xml:space="preserve">  7 p</tspan><tspan class="cls-5" x="28.26" y="0">r</tspan><tspan class="cls-3" x="33.46" y="0">o</tspan><tspan class="cls-6" x="41.84" y="0">y</tspan><tspan x="49.27" y="0">ec</tspan><tspan class="cls-7" x="65.2" y="0">t</tspan><tspan x="70.05" y="0">os</tspan></text><line class="cls-8" x1="101.84" y1="505.72" x2="103.69" y2="504.94"/><line class="cls-21" x1="107.29" y1="503.42" x2="177.62" y2="473.75"/><line class="cls-8" x1="179.42" y1="472.99" x2="181.27" y2="472.21"/><circle class="cls-10" cx="181.75" cy="471.77" r="1.57"/><circle class="cls-10" cx="101.53" cy="506.01" r="1.57"/><path class="cls-11" d="M49.86,525.09h1.31l.2-1,.16,0a3.48,3.48,0,0,0,1-.41l.14-.08.86.52.92-1-.56-.84.09-.15a3.65,3.65,0,0,0,.39-1l0-.17,1-.23v-1.32l-1-.21,0-.16a4,4,0,0,0-.42-1l-.08-.14.52-.86-1-.92-.84.56-.15-.08a3.27,3.27,0,0,0-1-.4l-.16,0-.24-1H49.71l-.2,1-.17,0a3.74,3.74,0,0,0-1,.41l-.14.08-.84-.53-.92.94L47,518l-.08.14a3.68,3.68,0,0,0-.4,1l0,.17-1,.23v1.32l1,.21,0,.16a3.48,3.48,0,0,0,.41,1l.08.14-.52.86.95.92.84-.56.15.09a3.65,3.65,0,0,0,1,.39l.17,0Zm2.59-4.92a2,2,0,1,1-2-2A2,2,0,0,1,52.45,520.17Z"/><path class="cls-11" d="M56.13,531.61h.92l.14-.68.12,0a3.28,3.28,0,0,0,.69-.3l.09-.05.61.36.65-.66-.4-.6.06-.1a2.63,2.63,0,0,0,.28-.7l0-.11.69-.17v-.93l-.69-.14,0-.12a2.77,2.77,0,0,0-.29-.69l-.06-.09.37-.61-.67-.65-.59.4-.11-.06a2.57,2.57,0,0,0-.69-.28l-.12,0-.17-.69H56l-.14.69-.12,0a2.57,2.57,0,0,0-.68.29l-.1.06-.59-.38-.65.67.39.59-.06.1a3,3,0,0,0-.28.7l0,.12-.69.16v.93l.69.15,0,.11a2.49,2.49,0,0,0,.29.69l.06.1-.37.6.66.65.6-.39.1.06a3,3,0,0,0,.7.28l.11,0ZM58,528.15a1.41,1.41,0,1,1-1.41-1.41A1.41,1.41,0,0,1,58,528.15Z"/><rect class="cls-12" x="48.33" y="518.24" width="2.36" height="11.25" transform="translate(384.93 118.43) rotate(45)"/><polygon class="cls-13" points="42.55 532.26 44.7 527.01 48.04 530.35 42.55 532.26"/><rect class="cls-12" x="50" y="519.92" width="2.36" height="11.25" transform="translate(386.6 117.73) rotate(45)"/><rect class="cls-14" x="55.84" y="515.5" width="2.7" height="4.73" transform="translate(463.81 843.61) rotate(135)"/><rect class="cls-15" x="53.93" y="517.41" width="2.7" height="4.73" transform="translate(461.9 848.22) rotate(135)"/><circle class="cls-22" cx="114.96" cy="266.81" r="6.43"/><circle class="cls-23" cx="114.96" cy="247.02" r="6.43"/><text class="cls-2" transform="translate(250.29 541.96)">Antabamba</text><text class="cls-4" transform="translate(268.82 562.48)"><tspan xml:space="preserve">  1 p</tspan><tspan class="cls-5" x="28.26" y="0">r</tspan><tspan class="cls-3" x="33.46" y="0">o</tspan><tspan class="cls-6" x="41.84" y="0">y</tspan><tspan x="49.27" y="0">ec</tspan><tspan class="cls-7" x="65.2" y="0">t</tspan><tspan x="70.05" y="0">os</tspan></text><line class="cls-8" x1="282.66" y1="526.87" x2="282.67" y2="524.87"/><line class="cls-24" x1="282.7" y1="521.32" x2="282.84" y2="501.8"/><line class="cls-8" x1="282.85" y1="500.03" x2="282.86" y2="498.03"/><circle class="cls-10" cx="282.89" cy="497.37" r="1.57"/><circle class="cls-10" cx="282.64" cy="527.31" r="1.57"/><path class="cls-11" d="M257.6,558h1.3l.21-1,.16,0a4,4,0,0,0,1-.41l.14-.09.86.53.92-1-.56-.85.08-.14a3.49,3.49,0,0,0,.4-1l0-.17,1-.23V552.3l-1-.2-.05-.16a3.48,3.48,0,0,0-.41-1l-.08-.14.52-.86-1-.92-.84.56-.15-.09a3.65,3.65,0,0,0-1-.39l-.16,0-.24-1h-1.32l-.21,1-.16,0a4.18,4.18,0,0,0-1,.42l-.14.08-.84-.54-.92.95.56.84-.09.15a3.65,3.65,0,0,0-.39,1l0,.16-1,.24v1.32l1,.21,0,.16a4.18,4.18,0,0,0,.42,1l.08.14-.52.86.95.92.84-.56.15.08a3.55,3.55,0,0,0,1,.4l.16,0Zm2.59-4.93a2,2,0,1,1-2-2A2,2,0,0,1,260.19,553Z"/><path class="cls-11" d="M263.87,564.47h.92l.14-.69.12,0a2.57,2.57,0,0,0,.68-.29l.1-.06.61.37.64-.66-.39-.6.06-.1a2.63,2.63,0,0,0,.28-.7l0-.11.69-.17v-.93l-.69-.14,0-.12a2.68,2.68,0,0,0-.3-.69l-.05-.1.36-.6-.66-.65-.6.39-.1-.05a2.23,2.23,0,0,0-.7-.28l-.11,0-.17-.69h-.93l-.14.69-.12,0a2.57,2.57,0,0,0-.68.29l-.11.06-.59-.38-.64.66.39.6-.06.1a2.63,2.63,0,0,0-.28.7l0,.11-.69.17v.93l.69.14,0,.12a3.28,3.28,0,0,0,.3.69l.05.1-.36.6.66.65.6-.4.1.06a2.23,2.23,0,0,0,.7.28l.11,0Zm1.82-3.46a1.41,1.41,0,1,1-1.41-1.42A1.41,1.41,0,0,1,265.69,561Z"/><rect class="cls-12" x="256.07" y="551.1" width="2.36" height="11.25" transform="translate(469.01 -18.84) rotate(45)"/><polygon class="cls-13" points="250.29 565.12 252.44 559.87 255.78 563.21 250.29 565.12"/><rect class="cls-12" x="257.74" y="552.77" width="2.36" height="11.25" transform="translate(470.68 -19.53) rotate(45)"/><rect class="cls-14" x="263.58" y="548.36" width="2.7" height="4.73" transform="translate(841.67 752.81) rotate(135)"/><rect class="cls-15" x="261.67" y="550.27" width="2.7" height="4.73" transform="translate(839.77 757.42) rotate(135)"/><text class="cls-4" transform="translate(125.7 251.64)">x15</text><text class="cls-4" transform="translate(125.7 271.43)">x6</text><circle class="cls-22" cx="188.85" cy="317.55" r="6.43"/><circle class="cls-23" cx="188.85" cy="297.76" r="6.43"/><text class="cls-4" transform="translate(199.58 302.38)">x11</text><text class="cls-4" transform="translate(199.58 322.17)">x2</text><circle class="cls-22" cx="197.43" cy="476.5" r="6.43"/><circle class="cls-23" cx="197.43" cy="456.71" r="6.43"/><text class="cls-4" transform="translate(208.17 461.34)">x4</text><text class="cls-4" transform="translate(208.17 481.12)">x3</text><circle class="cls-22" cx="333.13" cy="387.58" r="6.43"/><circle class="cls-23" cx="333.13" cy="367.79" r="6.43"/><text class="cls-4" transform="translate(343.86 372.41)">x3</text><circle class="cls-23" cx="282.31" cy="481.12" r="6.43"/><text class="cls-4" transform="translate(293.04 485.74)">x1</text><text class="cls-4" transform="translate(343.86 392.2)">x1</text><circle class="cls-22" cx="296.41" cy="314.37" r="6.43"/><circle class="cls-23" cx="296.41" cy="294.59" r="6.43"/><text class="cls-4" transform="translate(307.15 299.21)">x3</text><text class="cls-4" transform="translate(307.15 318.99)">x1</text></svg>