<svg id="Capa_1" data-name="Capa 1" xmlns="http://www.w3.org/2000/svg" viewBox="0 0 554 932"><defs><style>.cls-1{fill:#71c2e9;stroke:#377c9c;stroke-width:3px;}.cls-1,.cls-24,.cls-25{stroke-miterlimit:1.75;}.cls-2{font-size:12px;font-family:Roboto-Light, Roboto;font-weight:300;}.cls-16,.cls-2,.cls-5{fill:#1d1d1b;}.cls-3{letter-spacing:0.01em;}.cls-4{letter-spacing:-0.01em;}.cls-5{font-size:15px;font-family:Roboto-Bold, Roboto;font-weight:700;}.cls-6{letter-spacing:-0.02em;}.cls-7{letter-spacing:-0.01em;}.cls-8{letter-spacing:-0.01em;}.cls-14,.cls-15,.cls-17,.cls-19,.cls-20,.cls-22,.cls-23,.cls-9{fill:none;}.cls-10,.cls-11,.cls-12,.cls-13,.cls-9{stroke:#262626;stroke-linecap:round;stroke-width:0.5px;}.cls-10,.cls-11,.cls-12,.cls-13,.cls-14,.cls-15,.cls-17,.cls-19,.cls-20,.cls-22,.cls-23,.cls-9{stroke-linejoin:round;}.cls-10{fill:#fab637;}.cls-11{fill:#ffe7a1;}.cls-12{fill:#4ca8de;}.cls-13{fill:#cfcece;}.cls-14,.cls-15,.cls-17,.cls-19,.cls-20,.cls-22,.cls-23{stroke:#0b0c0c;}.cls-15{stroke-dasharray:3.68 3.68;}.cls-17{stroke-dasharray:3.94 3.94;}.cls-18{letter-spacing:-0.01em;}.cls-19{stroke-dasharray:3.86 3.86;}.cls-20{stroke-dasharray:3.86 3.86;}.cls-21{letter-spacing:-0.01em;}.cls-22{stroke-dasharray:3.98 3.98;}.cls-23{stroke-dasharray:3.83 3.83;}.cls-24{fill:#afd28c;stroke:#71915a;isolation:isolate;}.cls-25{fill:#ec6062;stroke:#cc444b;}</style></defs><path class="cls-1" d="M292.57,468.41l9.51.88,5.66,18.39,13.18,3.7,6.68,11.16,11.11,6.14L344,520.22l-10,12.13,4.33,11.33-7.44-2-8,7.33,7.17,4.55-11.81,3.9,3.12,14.22-11.86-1.51-14.17,10.65-20.6-4.11,3-12.37-5.11-6.29-4.79,1.45,13-20-20.4-8.83,21-33,.53-19.33Z"/><path class="cls-1" d="M383.27,549.18l13.38.57,13.12,17.82-17.17,8.35L391,584.77l-8.09,2.49-2.11,8.59-21.49,5.76-7-6.39-6.39,8.95-7.13,1.64-.37,5.81L319.54,600l-5.1-8.18,4.26-17,4.76-1.82-5.16-15.49,20.31-1.82,7.7,11.61,6.31,2.2,5.86-3.89,10.87,1.2,5.89-13.11Z"/><path class="cls-1" d="M330.09,408.6l5.06.42,13.56,14.6,6.63,21.2,9,7L368,463.64,371.15,496l7.44,11.61L363,518.1,344,520.22l-5.32-11.54-11.11-6.14-6.68-11.16-13.7-4.61L303.8,473.7l7.79-3.18,2.65-20.29L310,437.9l10.88-2.14L317,419.5Z"/><path class="cls-1" d="M296.12,362.18l20.21,22.64,5.4,16.65,8.3,5.65L317,419.5,320.6,436,310,437.9l-6.74-5.26-7.09,6.25-8.08-.69-13.71,12.31-15.66-7.21L255.91,433,249,427.47l-29.81-1.93-6.27,1.52L204,443.29l-18.83-3.35,3.55,9.2-6.36,1.32-13.47-6.77,4-4.81-5-12.14L160,428.61l-5.43-24,4.58-8.14,11.13-2,19.31-13.75,1.78,9.85,7.17-.74,16.19,8.42,9.71-5.66L238,413.49l15,1.38-5.75,6.54,12.34,6.81,2.89-10.55-2.23-6,11.81-15.59,23.33-4.59-3.45-15Z"/><path class="cls-1" d="M220.74,524.74l17.3,7.31,20.47-2,22.36,9.47-13.06,20.09-12.59,1.48-1.28-4.24-13.05,11.35,4,7.54L235.68,580l-8.88,16.25-10.21-9L213,568.36l-13.25-5-5.93-9.78-5.66,2.58-20.32-9.91,14.87-6.81-.95-9.34,3.83-2.87,18.63-2.33,7.24,10.72Z"/><path class="cls-1" d="M266.74,316.81l1.17,15.86,12.84,25,14.63,3.11-3.42,17,3.67,13.12-23.53,5.23-11.81,15.59,2.23,6-2.89,10.55-13-6.9,6.44-6.45-15-1.38L224.46,392.6l-9.71,5.66-16.19-8.42-7.17.74-1.7-9.79-4.18,1.33-3.61-9.29,6.67-9.9,8.49,6.27,11.6-2.67,2.21-7.75,9.33-6.31,21.07,1.62,6.27-20.9Z"/><path class="cls-1" d="M306.57,434.33l7.67,15.9-3.35,5.49,1.85,11.49-5.93,6.31-14.34-5.4L282,478.34,276.46,465l-11.89-5.67L257,446.12l7.11-3.26,10.68,7.67,13.28-12.33Z"/><path class="cls-1" d="M289.35,254l6,12.41-7,7.87,1.19,5.47L269.5,304.12l4.61,5.85-19.5,20.85-7.07,2.37-6.27,20.9-21.07-1.62-9.33,6.31-1,6.92-12.77,3.5L191,364l4.74-1.58-1.29-9.44-5.2,4.45L177.2,347.11l-1.89,8.47-6.79-9.84-7.8,4.29-.49-4.93,12.92-11.6-9.65-18.33,4-25.62-2.73-11.26,27.83-2.49,7-16.21,8.17-4.7,5.84,11.88,18.62,4.7,22.12-7.26,3.85-8.07,12.34,5.15,13.07-12.47Z"/><path class="cls-1" d="M267.25,145.08l9.29,4.28L279.09,166l-8.57,29.82,5.62,9.8L267.21,216,266,227.2l3.69,13.07,13.48,10.32-12.45,10.7-12.4-5.15-3.85,8.07-22.12,7.26-18.62-4.7-5.84-11.88-8.17,4.7-6.82,16.05-11.94,2.9-14.17-50.29,15.43-19.07,7-1.65,2.62-12.39,19.63,1,9.17,6.58,6.27-17.92,12-1.12-3.53-15.84,8.8-16.84Z"/><path class="cls-1" d="M379.16,510.07l3.22,11,11.35,12.05,2.5,17.11-16.37-.73-10.51,17.33-10.87-1.2-6.64,3.93L338.66,555.7,323,549.26l7.92-7.55,7.44,2-4.33-11.33,9.78-12L363,518.1Z"/><path class="cls-1" d="M250.86,453.44l25.51,11.47,4.08,8.62-19.18,24.39-18.55,6.48-7.61,25.05-14.86-4.82-9.74,11-6.28-10.74-21.09,1.92-9.54-17.55,5-10.78.22-17.79L189.32,477l2.63-5.5,18.46,7.79,4.68-5.56,10.53,3.89,14-2.6,5.08-20.29Z"/><path class="cls-1" d="M280.55,476.25l.88,21.42-18.72,31.92-27,.81,7-26,18.55-6.48Z"/><path class="cls-1" d="M235.5,426.87l13.49.6,6.92,5.56L257,446.12l7.41,13.62-18.78-6-5.54,21-14.16,2.81-10.58-3.9-4.78,5.55-7.7-.66L192,471.46l12.69-7.27-3-10.73-6.9,2.4-4.46-3.55-5.13-12.37,18.74,3.37,9.93-17Z"/><text class="cls-2" transform="translate(296.76 309.4)">Cute<tspan class="cls-3" x="24.44" y="0">r</tspan><tspan class="cls-4" x="28.58" y="0">v</tspan><tspan x="34.27" y="0">o</tspan></text><text class="cls-5" transform="translate(315.29 329.93)"><tspan xml:space="preserve"> 2 p</tspan><tspan class="cls-6" x="24.52" y="0">r</tspan><tspan class="cls-4" x="29.73" y="0">o</tspan><tspan class="cls-7" x="38.1" y="0">y</tspan><tspan x="45.53" y="0">ec</tspan><tspan class="cls-8" x="61.46" y="0">t</tspan><tspan x="66.31" y="0">o</tspan></text><path class="cls-9" d="M304.07,325.4h1.3l.2-1,.17,0a4.18,4.18,0,0,0,1-.42l.14-.08.85.52.92-.95-.55-.84.08-.15a3.55,3.55,0,0,0,.4-1l0-.16,1-.24,0-1.32-1-.2,0-.17a4.58,4.58,0,0,0-.41-1l-.09-.14.53-.85-.95-.92-.85.55-.14-.08a3.74,3.74,0,0,0-1-.4l-.16,0-.23-1-1.33,0-.2,1-.17,0a3.9,3.9,0,0,0-1,.41l-.15.09-.84-.54-.91.94.55.85-.08.15a3.88,3.88,0,0,0-.4,1l0,.16-1,.24,0,1.32,1,.2,0,.17a4,4,0,0,0,.42,1l.08.14-.52.86.94.92.85-.56.14.09a4.1,4.1,0,0,0,1,.4l.16,0Zm2.59-4.93a2,2,0,1,1-2-2A2,2,0,0,1,306.66,320.47Z"/><path class="cls-9" d="M310.34,331.92h.91l.15-.69.11,0a2.49,2.49,0,0,0,.69-.29l.1-.06.6.37.65-.67-.39-.59.06-.11a2.94,2.94,0,0,0,.28-.69l0-.12.69-.17V328l-.69-.15,0-.11a2.49,2.49,0,0,0-.29-.69l-.06-.1.37-.6-.67-.65-.59.39-.1-.06a2.63,2.63,0,0,0-.7-.28l-.12,0-.16-.69h-.93l-.14.69-.12,0a3.07,3.07,0,0,0-.69.3l-.1.05-.59-.37-.65.66.4.6-.06.1a2.5,2.5,0,0,0-.28.7l0,.11-.69.17V329l.69.14,0,.12a2.57,2.57,0,0,0,.29.68l.06.1-.37.61.67.64.59-.39.11.06a2.57,2.57,0,0,0,.69.28l.12,0Zm1.82-3.47a1.41,1.41,0,1,1-1.41-1.41A1.41,1.41,0,0,1,312.16,328.45Z"/><rect class="cls-10" x="302.53" y="318.55" width="2.36" height="11.25" transform="translate(318.18 -119.81) rotate(45)"/><polygon class="cls-11" points="296.76 332.57 298.9 327.31 302.25 330.66 296.76 332.57"/><rect class="cls-10" x="304.21" y="320.22" width="2.36" height="11.25" transform="translate(319.85 -120.5) rotate(45)"/><rect class="cls-12" x="310.04" y="315.8" width="2.7" height="4.73" transform="translate(756.56 322.96) rotate(135)"/><rect class="cls-13" x="308.13" y="317.71" width="2.7" height="4.73" transform="translate(754.65 327.57) rotate(135)"/><line class="cls-14" x1="264.93" y1="356.99" x2="266.34" y2="355.58"/><line class="cls-15" x1="268.93" y1="352.96" x2="288.39" y2="333.38"/><line class="cls-14" x1="289.69" y1="332.08" x2="291.1" y2="330.66"/><circle class="cls-16" cx="291.65" cy="330.31" r="1.57"/><circle class="cls-16" cx="264.56" cy="357.23" r="1.57"/><text class="cls-2" transform="translate(387.46 442.44)">Celendin</text><text class="cls-5" transform="translate(405.99 462.97)"><tspan xml:space="preserve"> 1 p</tspan><tspan class="cls-6" x="24.52" y="0">r</tspan><tspan class="cls-4" x="29.73" y="0">o</tspan><tspan class="cls-7" x="38.1" y="0">y</tspan><tspan x="45.53" y="0">ec</tspan><tspan class="cls-8" x="61.46" y="0">t</tspan><tspan x="66.31" y="0">o</tspan></text><path class="cls-9" d="M394.77,458.44h1.3l.21-1,.16,0a3.86,3.86,0,0,0,1-.42l.14-.08.86.53.92-.95-.56-.85.09-.14a3.71,3.71,0,0,0,.39-1l0-.16,1-.24v-1.32l-1-.2,0-.17a4,4,0,0,0-.42-1l-.08-.14.52-.86-.95-.92-.84.56-.15-.09a3.52,3.52,0,0,0-1-.39l-.16,0-.24-1h-1.32l-.2,1-.17,0a4.18,4.18,0,0,0-1,.42l-.14.08-.84-.54-.92.95.56.84-.08.15a3.27,3.27,0,0,0-.4,1l0,.16-1,.24v1.32l1,.2.05.17a3.74,3.74,0,0,0,.41,1l.08.14-.52.86.95.92.84-.56.15.08a3.68,3.68,0,0,0,1,.4l.16,0Zm2.59-4.93a2,2,0,1,1-2-2A2,2,0,0,1,397.36,453.51Z"/><path class="cls-9" d="M401,465H402l.14-.69.12,0a2.77,2.77,0,0,0,.69-.29l.09-.06.61.37.64-.67-.39-.59.06-.1a2.63,2.63,0,0,0,.28-.7l0-.12.69-.16V461l-.69-.14,0-.12a2.49,2.49,0,0,0-.29-.69l-.06-.1.37-.6-.67-.65-.59.39-.11-.06a2.48,2.48,0,0,0-.7-.27l-.11,0-.17-.69h-.93l-.14.69-.12,0a2.57,2.57,0,0,0-.68.29l-.1.06-.59-.38-.65.66.39.6-.06.1a3,3,0,0,0-.28.7l0,.11-.69.17V462l.69.14,0,.12a2.77,2.77,0,0,0,.29.69l.05.09-.36.61.66.65.6-.4.1.06a2.63,2.63,0,0,0,.7.28l.11,0Zm1.82-3.47a1.41,1.41,0,1,1-1.41-1.41A1.42,1.42,0,0,1,402.86,461.49Z"/><rect class="cls-10" x="393.24" y="451.59" width="2.36" height="11.25" transform="translate(438.82 -144.98) rotate(45)"/><polygon class="cls-11" points="387.46 465.61 389.61 460.36 392.95 463.7 387.46 465.61"/><rect class="cls-10" x="394.91" y="453.26" width="2.36" height="11.25" transform="translate(440.49 -145.68) rotate(45)"/><rect class="cls-12" x="400.75" y="448.85" width="2.7" height="4.73" transform="translate(1005.48 485.94) rotate(135)"/><rect class="cls-13" x="398.84" y="450.75" width="2.7" height="4.73" transform="translate(1003.57 490.55) rotate(135)"/><line class="cls-14" x1="355.64" y1="490.04" x2="357.05" y2="488.62"/><line class="cls-15" x1="359.64" y1="486.01" x2="379.1" y2="466.42"/><line class="cls-14" x1="380.39" y1="465.12" x2="381.8" y2="463.7"/><circle class="cls-16" cx="382.36" cy="463.35" r="1.57"/><circle class="cls-16" cx="355.27" cy="490.27" r="1.57"/><text class="cls-2" transform="translate(365.8 382.83)">Hualg<tspan class="cls-4" x="30.86" y="0">ay</tspan><tspan x="42.81" y="0">oc</tspan></text><text class="cls-5" transform="translate(384.33 403.36)"><tspan xml:space="preserve"> 0 p</tspan><tspan class="cls-6" x="24.52" y="0">r</tspan><tspan class="cls-4" x="29.73" y="0">o</tspan><tspan class="cls-7" x="38.1" y="0">y</tspan><tspan x="45.53" y="0">ec</tspan><tspan class="cls-8" x="61.46" y="0">t</tspan><tspan x="66.31" y="0">o</tspan></text><path class="cls-9" d="M373.11,398.83h1.3l.21-1,.16,0a4,4,0,0,0,1-.42l.14-.08.86.52.92-.94-.56-.85.08-.15a3.27,3.27,0,0,0,.4-1l0-.16,1-.24v-1.32l-1-.2-.05-.17a3.55,3.55,0,0,0-.41-1l-.08-.14.52-.86-.95-.92-.84.55-.15-.08a4,4,0,0,0-1-.4l-.16,0-.24-1L373,389l-.2,1-.17,0a4.18,4.18,0,0,0-1,.42l-.14.08-.84-.54-.92.94.56.85-.09.15a3.52,3.52,0,0,0-.39,1l0,.16-1,.24v1.32l1,.2,0,.17a4.18,4.18,0,0,0,.42,1l.08.13-.52.86,1,.92.84-.55.15.08a3.88,3.88,0,0,0,1,.4l.16,0Zm2.59-4.93a2,2,0,1,1-2-2A2,2,0,0,1,375.7,393.9Z"/><path class="cls-9" d="M379.38,405.35h.92l.14-.69.12,0a2.57,2.57,0,0,0,.68-.29l.1-.06.61.37.64-.67-.39-.59.06-.11a2.57,2.57,0,0,0,.28-.69l0-.12.69-.16v-.93l-.69-.15,0-.11a2.83,2.83,0,0,0-.29-.69l-.06-.1.36-.6-.66-.65-.6.39-.1-.06a2.5,2.5,0,0,0-.7-.28l-.11,0-.17-.69h-.93l-.14.7-.12,0a2.57,2.57,0,0,0-.68.29l-.11.06-.59-.38-.64.66.39.6-.06.1a2.5,2.5,0,0,0-.28.7l0,.11-.69.17v.93l.69.14,0,.12a3,3,0,0,0,.3.68l0,.1L377,404l.66.64.6-.39.1.06a2.63,2.63,0,0,0,.7.28l.11,0Zm1.82-3.47a1.41,1.41,0,1,1-1.41-1.41A1.41,1.41,0,0,1,381.2,401.88Z"/><rect class="cls-10" x="371.58" y="391.98" width="2.36" height="11.25" transform="translate(390.33 -147.13) rotate(45)"/><polygon class="cls-11" points="365.8 406 367.95 400.74 371.29 404.09 365.8 406"/><rect class="cls-10" x="373.25" y="393.65" width="2.36" height="11.25" transform="translate(392 -147.82) rotate(45)"/><rect class="cls-12" x="379.09" y="389.23" width="2.7" height="4.73" transform="translate(926.35 399.49) rotate(135)"/><rect class="cls-13" x="377.18" y="391.14" width="2.7" height="4.73" transform="translate(924.44 404.1) rotate(135)"/><line class="cls-14" x1="303.8" y1="442.44" x2="305.18" y2="440.99"/><line class="cls-17" x1="307.89" y1="438.14" x2="355.35" y2="388.17"/><line class="cls-14" x1="356.71" y1="386.75" x2="358.08" y2="385.29"/><circle class="cls-16" cx="358.64" cy="384.94" r="1.57"/><circle class="cls-16" cx="303.8" cy="442.44" r="1.57"/><text class="cls-2" transform="translate(278.09 636.03)">Cajama<tspan class="cls-18" x="40.45" y="0">r</tspan><tspan x="44.37" y="0">ca</tspan></text><text class="cls-5" transform="translate(296.62 656.56)"><tspan xml:space="preserve"> 2 p</tspan><tspan class="cls-6" x="24.52" y="0">r</tspan><tspan class="cls-4" x="29.73" y="0">o</tspan><tspan class="cls-7" x="38.1" y="0">y</tspan><tspan x="45.53" y="0">ec</tspan><tspan class="cls-8" x="61.46" y="0">t</tspan><tspan x="66.31" y="0">os</tspan></text><path class="cls-9" d="M285.4,652h1.3l.21-1,.16,0a4,4,0,0,0,1-.42l.14-.08.86.52.92-.95-.56-.84.08-.15a3.27,3.27,0,0,0,.4-1l0-.16,1-.24v-1.32l-1-.2-.05-.17a3.74,3.74,0,0,0-.41-1l-.08-.14.52-.86-.95-.92-.84.56-.15-.08a3.68,3.68,0,0,0-1-.4l-.16,0-.24-1h-1.32l-.21,1-.16,0a3.74,3.74,0,0,0-1,.41l-.14.09-.84-.54-.92.94.56.85-.09.14a3.71,3.71,0,0,0-.39,1l0,.16-1,.24v1.32l1,.2,0,.17a4,4,0,0,0,.42,1l.08.14-.52.86.95.92.84-.56.15.09a3.52,3.52,0,0,0,1,.39l.16,0ZM288,647.1a2,2,0,1,1-2-2A2,2,0,0,1,288,647.1Z"/><path class="cls-9" d="M291.67,658.55h.92l.14-.69.12,0a3,3,0,0,0,.68-.29l.1-.06.61.37.64-.67-.39-.6.06-.1a2.5,2.5,0,0,0,.28-.7l0-.11.69-.17v-.93l-.69-.14,0-.12a2.62,2.62,0,0,0-.3-.68l0-.1.36-.61-.66-.64-.6.39-.1-.06a2.5,2.5,0,0,0-.7-.28l-.11,0-.17-.69h-.93l-.14.69-.12,0a3,3,0,0,0-.68.29l-.11.06-.59-.37-.64.66.39.59-.06.11a2.57,2.57,0,0,0-.28.69l0,.12-.69.17v.92l.69.15,0,.11a2.89,2.89,0,0,0,.3.69l.05.1-.36.6.66.65.6-.39.1.06a2.5,2.5,0,0,0,.7.28l.11,0Zm1.82-3.47a1.41,1.41,0,1,1-1.41-1.41A1.41,1.41,0,0,1,293.49,655.08Z"/><rect class="cls-10" x="283.87" y="645.18" width="2.36" height="11.25" transform="translate(543.67 -10.95) rotate(45)"/><polygon class="cls-11" points="278.09 659.2 280.24 653.94 283.58 657.28 278.09 659.2"/><rect class="cls-10" x="285.54" y="646.85" width="2.36" height="11.25" transform="translate(545.35 -11.64) rotate(45)"/><rect class="cls-12" x="291.38" y="642.43" width="2.7" height="4.73" transform="translate(955.65 893.75) rotate(135)"/><rect class="cls-13" x="289.47" y="644.34" width="2.7" height="4.73" transform="translate(953.74 898.36) rotate(135)"/><text class="cls-2" transform="translate(71.22 151.97)">San Ignacio</text><text class="cls-5" transform="translate(89.75 172.5)"><tspan xml:space="preserve"> 7 p</tspan><tspan class="cls-6" x="24.52" y="0">r</tspan><tspan class="cls-4" x="29.73" y="0">o</tspan><tspan class="cls-7" x="38.1" y="0">y</tspan><tspan x="45.53" y="0">ec</tspan><tspan class="cls-8" x="61.46" y="0">t</tspan><tspan x="66.31" y="0">os</tspan></text><path class="cls-9" d="M78.53,168h1.3l.2-1,.17,0a4.18,4.18,0,0,0,1-.42l.14-.08.86.52.92-.94-.56-.85.08-.15a3.55,3.55,0,0,0,.4-1l0-.16,1-.24v-1.32l-1-.2,0-.17a3.55,3.55,0,0,0-.41-1l-.08-.14L83,160l-1-.92-.84.56-.15-.09a4,4,0,0,0-1-.4l-.17,0-.23-1-1.32,0-.21,1-.16,0a4,4,0,0,0-1,.42l-.14.08-.84-.54-.92.95.56.84-.09.15a3.52,3.52,0,0,0-.39,1l0,.16-1,.24v1.32l1,.2,0,.17a4.18,4.18,0,0,0,.42,1l.08.14-.52.85,1,.92.84-.55.15.08a3.55,3.55,0,0,0,1,.4l.16,0ZM81.12,163a2,2,0,1,1-2-2A2,2,0,0,1,81.12,163Z"/><path class="cls-9" d="M84.8,174.49h.91l.15-.69.11,0a2.49,2.49,0,0,0,.69-.29l.1-.06.6.37.65-.67-.39-.59.06-.11a2.57,2.57,0,0,0,.28-.69l0-.12.7-.16v-.93l-.7-.15,0-.11a2.89,2.89,0,0,0-.3-.69l-.05-.1.36-.6-.66-.65-.6.39-.1-.06a3,3,0,0,0-.7-.28l-.11,0-.17-.69h-.93l-.14.69-.12,0a2.77,2.77,0,0,0-.69.29l-.1.06-.59-.38-.64.66.39.6-.06.1a2.5,2.5,0,0,0-.28.7l0,.11-.69.17v.93l.69.14,0,.12a3,3,0,0,0,.29.68l.06.1-.37.61.67.64.6-.39.1.06a2.5,2.5,0,0,0,.7.28l.11,0ZM86.62,171a1.41,1.41,0,1,1-1.41-1.41A1.41,1.41,0,0,1,86.62,171Z"/><rect class="cls-10" x="77" y="161.12" width="2.36" height="11.25" transform="translate(140.8 -6.44) rotate(45)"/><polygon class="cls-11" points="71.22 175.14 73.36 169.88 76.71 173.23 71.22 175.14"/><rect class="cls-10" x="78.67" y="162.79" width="2.36" height="11.25" transform="translate(142.48 -7.13) rotate(45)"/><rect class="cls-12" x="84.5" y="158.38" width="2.7" height="4.73" transform="translate(260.22 213.69) rotate(135)"/><rect class="cls-13" x="82.6" y="160.28" width="2.7" height="4.73" transform="translate(258.31 218.3) rotate(135)"/><line class="cls-14" x1="179.54" y1="169.97" x2="180.96" y2="171.38"/><line class="cls-19" x1="183.7" y1="174.09" x2="215.17" y2="205.33"/><line class="cls-14" x1="216.54" y1="206.68" x2="217.96" y2="208.09"/><circle class="cls-16" cx="218.44" cy="208.54" r="1.57"/><circle class="cls-16" cx="179.22" cy="169.67" r="1.57"/><text class="cls-2" transform="translate(51.46 248.82)">Jaén</text><text class="cls-5" transform="translate(69.99 269.35)"><tspan xml:space="preserve"> 7 p</tspan><tspan class="cls-6" x="24.52" y="0">r</tspan><tspan class="cls-4" x="29.73" y="0">o</tspan><tspan class="cls-7" x="38.1" y="0">y</tspan><tspan x="45.53" y="0">ec</tspan><tspan class="cls-8" x="61.46" y="0">t</tspan><tspan x="66.31" y="0">os</tspan></text><path class="cls-9" d="M58.77,264.82h1.3l.21-1,.16,0a3.74,3.74,0,0,0,1-.41l.14-.08.86.52.92-.95-.56-.84.08-.15a3.68,3.68,0,0,0,.4-1l0-.16,1-.24v-1.32l-1-.2,0-.17a3.74,3.74,0,0,0-.41-1l-.08-.14.52-.86-1-.92-.84.56-.15-.08a3.68,3.68,0,0,0-1-.4l-.16,0-.24-1H58.62l-.21,1-.16,0a3.61,3.61,0,0,0-1,.41l-.14.09-.84-.54-.92.94.56.85-.09.14a3.78,3.78,0,0,0-.39,1l0,.17-1,.23v1.33l1,.2,0,.16a3.86,3.86,0,0,0,.42,1l.08.14-.52.86,1,.92.84-.56.15.09a3.52,3.52,0,0,0,1,.39l.16,0Zm2.59-4.93a2,2,0,1,1-2-2A2,2,0,0,1,61.36,259.89Z"/><path class="cls-9" d="M65,271.34H66l.14-.69.12,0a3,3,0,0,0,.68-.29l.1-.06.6.37.65-.67-.39-.6.06-.1a2.5,2.5,0,0,0,.28-.7l0-.11.69-.17v-.93l-.69-.14,0-.12a3,3,0,0,0-.3-.68l0-.1.36-.61-.66-.64-.6.39-.1-.06a2.5,2.5,0,0,0-.7-.28l-.11,0-.17-.69h-.93l-.14.69-.12,0a3.2,3.2,0,0,0-.69.29l-.1.06-.59-.38-.64.67.39.59-.06.11a2.57,2.57,0,0,0-.28.69l0,.12-.69.16v.93l.69.15,0,.11a2.89,2.89,0,0,0,.3.69l.05.1-.36.6.66.65.6-.39.1.06a2.5,2.5,0,0,0,.7.28l.11,0Zm1.82-3.47a1.41,1.41,0,1,1-1.41-1.41A1.41,1.41,0,0,1,66.86,267.87Z"/><rect class="cls-10" x="57.24" y="257.96" width="2.36" height="11.25" transform="translate(203.5 35.9) rotate(45)"/><polygon class="cls-11" points="51.46 271.98 53.61 266.73 56.95 270.07 51.46 271.98"/><rect class="cls-10" x="58.91" y="259.64" width="2.36" height="11.25" transform="translate(205.17 35.2) rotate(45)"/><rect class="cls-12" x="64.74" y="255.22" width="2.7" height="4.73" transform="translate(294.97 392.99) rotate(135)"/><rect class="cls-13" x="62.84" y="257.13" width="2.7" height="4.73" transform="translate(293.06 397.6) rotate(135)"/><line class="cls-14" x1="159.78" y1="266.81" x2="161.2" y2="268.22"/><line class="cls-19" x1="163.94" y1="270.94" x2="195.41" y2="302.17"/><line class="cls-14" x1="196.78" y1="303.53" x2="198.2" y2="304.94"/><circle class="cls-16" cx="198.68" cy="305.39" r="1.57"/><circle class="cls-16" cx="159.47" cy="266.52" r="1.57"/><text class="cls-2" transform="translate(61.36 355.18)">Chota</text><text class="cls-5" transform="translate(79.89 375.71)"><tspan xml:space="preserve"> 2 p</tspan><tspan class="cls-6" x="24.52" y="0">r</tspan><tspan class="cls-4" x="29.73" y="0">o</tspan><tspan class="cls-7" x="38.1" y="0">y</tspan><tspan x="45.53" y="0">ec</tspan><tspan class="cls-8" x="61.46" y="0">t</tspan><tspan x="66.31" y="0">os</tspan></text><path class="cls-9" d="M68.67,371.18H70l.2-1,.17,0a4.58,4.58,0,0,0,1-.41l.14-.09.85.53.92-.95-.55-.85.08-.14a3.74,3.74,0,0,0,.4-1l0-.16,1-.23,0-1.33-1-.2,0-.17a3.55,3.55,0,0,0-.41-1l-.09-.14.53-.86-1-.92-.85.56-.14-.09a3.78,3.78,0,0,0-1-.39l-.17,0-.23-1H68.51l-.2,1-.16,0a3.86,3.86,0,0,0-1,.42l-.15.08-.84-.54-.91.95.56.84-.09.15a4,4,0,0,0-.4,1l0,.16-1,.24,0,1.32,1,.2,0,.17a4.18,4.18,0,0,0,.42,1l.08.14-.52.86.94.92.85-.56.14.08a3.74,3.74,0,0,0,1,.4l.16,0Zm2.59-4.93a2,2,0,1,1-2-2A2,2,0,0,1,71.26,366.25Z"/><path class="cls-9" d="M74.94,377.7h.91L76,377l.11,0a2.49,2.49,0,0,0,.69-.29l.1-.06.6.37.65-.67-.39-.59.06-.1a3,3,0,0,0,.28-.7l0-.12.69-.16v-.93l-.69-.14,0-.12a2.62,2.62,0,0,0-.29-.69l-.06-.1.37-.6-.66-.65-.6.39-.1-.06a2.6,2.6,0,0,0-.7-.27l-.11,0-.17-.69h-.93l-.14.69-.12,0a2.62,2.62,0,0,0-.69.29l-.1.06-.59-.38-.65.66.4.6-.06.1a2.63,2.63,0,0,0-.28.7l0,.11-.69.17v.93l.69.14,0,.12a2.77,2.77,0,0,0,.29.69l.06.1-.37.6.67.65.59-.4.11.06a2.57,2.57,0,0,0,.69.28l.12,0Zm1.82-3.47a1.41,1.41,0,1,1-1.41-1.41A1.42,1.42,0,0,1,76.76,374.23Z"/><rect class="cls-10" x="67.13" y="364.33" width="2.36" height="11.25" transform="translate(281.61 60.05) rotate(45)"/><polygon class="cls-11" points="61.36 378.35 63.5 373.1 66.85 376.44 61.36 378.35"/><rect class="cls-10" x="68.81" y="366" width="2.36" height="11.25" transform="translate(283.28 59.36) rotate(45)"/><rect class="cls-12" x="74.64" y="361.59" width="2.7" height="4.73" transform="translate(387.08 567.57) rotate(135)"/><rect class="cls-13" x="72.73" y="363.5" width="2.7" height="4.73" transform="translate(385.17 572.18) rotate(135)"/><line class="cls-14" x1="169.68" y1="373.18" x2="171.1" y2="374.59"/><line class="cls-19" x1="173.84" y1="377.3" x2="205.31" y2="408.54"/><line class="cls-14" x1="206.68" y1="409.9" x2="208.1" y2="411.3"/><circle class="cls-16" cx="208.58" cy="411.75" r="1.57"/><circle class="cls-16" cx="169.36" cy="372.88" r="1.57"/><text class="cls-2" transform="translate(81.12 452.96)">Santa Cruz</text><text class="cls-5" transform="translate(99.64 473.49)"><tspan xml:space="preserve"> 2 p</tspan><tspan class="cls-6" x="24.52" y="0">r</tspan><tspan class="cls-4" x="29.73" y="0">o</tspan><tspan class="cls-7" x="38.1" y="0">y</tspan><tspan x="45.53" y="0">ec</tspan><tspan class="cls-8" x="61.46" y="0">t</tspan><tspan x="66.31" y="0">os</tspan></text><path class="cls-9" d="M88.42,469h1.31l.2-1,.17,0a4,4,0,0,0,1-.42l.14-.08.86.52L93,467l-.56-.84.09-.15a3.52,3.52,0,0,0,.39-1l0-.16,1-.24v-1.32l-1-.2,0-.17a4.18,4.18,0,0,0-.42-1l-.08-.14.52-.85L92,460l-.84.56-.15-.08a3.55,3.55,0,0,0-1-.4l-.16,0-.24-1H88.27l-.2,1-.17,0a3.74,3.74,0,0,0-1,.41l-.14.09-.84-.54L85,461l.56.85-.08.14a3.74,3.74,0,0,0-.4,1l0,.16-1,.24v1.32l1,.2,0,.17a3.55,3.55,0,0,0,.41,1l.08.14-.52.86,1,.92.85-.56.14.09a4,4,0,0,0,1,.4l.17,0ZM91,464a2,2,0,1,1-2-2A2,2,0,0,1,91,464Z"/><path class="cls-9" d="M94.69,475.48h.92l.14-.69.12,0a2.77,2.77,0,0,0,.69-.29l.09-.06.61.37.65-.67-.4-.59.06-.11a2.5,2.5,0,0,0,.28-.7l0-.11.69-.17v-.93l-.69-.14,0-.12a2.57,2.57,0,0,0-.29-.68l-.06-.1.37-.6-.67-.65-.59.39-.11-.06a2.57,2.57,0,0,0-.69-.28l-.12,0-.17-.69h-.92l-.15.69-.11,0a2.89,2.89,0,0,0-.69.3l-.1.05-.59-.37-.65.66.39.59-.06.11a2.85,2.85,0,0,0-.28.7l0,.11-.69.17v.93l.69.14,0,.12a2.57,2.57,0,0,0,.29.68l.06.1-.37.6.67.65.59-.39.1.06a2.63,2.63,0,0,0,.7.28l.12,0ZM96.51,472a1.41,1.41,0,1,1-1.41-1.41A1.41,1.41,0,0,1,96.51,472Z"/><rect class="cls-10" x="86.89" y="462.11" width="2.36" height="11.25" transform="translate(356.53 74.72) rotate(45)"/><polygon class="cls-11" points="81.11 476.13 83.26 470.87 86.6 474.22 81.11 476.13"/><rect class="cls-10" x="88.56" y="463.78" width="2.36" height="11.25" transform="translate(358.2 74.03) rotate(45)"/><rect class="cls-12" x="94.4" y="459.36" width="2.7" height="4.73" transform="translate(489.94 720.51) rotate(135)"/><rect class="cls-13" x="92.49" y="461.27" width="2.7" height="4.73" transform="translate(488.03 725.12) rotate(135)"/><text class="cls-2" transform="translate(69.31 505.36)">San Miguel</text><text class="cls-5" transform="translate(87.83 525.89)"><tspan xml:space="preserve"> 1 p</tspan><tspan class="cls-6" x="24.52" y="0">r</tspan><tspan class="cls-4" x="29.73" y="0">o</tspan><tspan class="cls-7" x="38.1" y="0">y</tspan><tspan x="45.53" y="0">ec</tspan><tspan class="cls-8" x="61.46" y="0">t</tspan><tspan x="66.31" y="0">o</tspan></text><path class="cls-9" d="M76.61,521.36h1.31l.2-1,.17,0a4,4,0,0,0,1-.42l.14-.08.86.53.92-1-.56-.85.09-.14a3.71,3.71,0,0,0,.39-1l0-.16,1-.24v-1.32l-1-.2,0-.17a4,4,0,0,0-.42-1l-.08-.14.52-.86-1-.92-.84.56-.15-.09a3.52,3.52,0,0,0-1-.39l-.16,0-.24-1H76.46l-.2,1-.17,0a4.18,4.18,0,0,0-1,.42L75,513l-.84-.54-.92,1,.56.84-.08.15a3.68,3.68,0,0,0-.4,1l0,.16-1,.24v1.32l1,.2,0,.17a3.74,3.74,0,0,0,.41,1l.08.14-.52.86,1,.92.85-.56.14.08a3.68,3.68,0,0,0,1,.4l.17,0Zm2.59-4.93a2,2,0,1,1-2-2A2,2,0,0,1,79.2,516.43Z"/><path class="cls-9" d="M82.88,527.88h.92l.14-.69.12,0a2.77,2.77,0,0,0,.69-.29l.09-.06.61.37.65-.67-.4-.59.06-.1a2.63,2.63,0,0,0,.28-.7l0-.12.69-.16v-.93l-.69-.14,0-.12a2.62,2.62,0,0,0-.29-.69l-.06-.1.37-.6-.67-.65-.59.39-.11-.06a2.54,2.54,0,0,0-.69-.27l-.12,0L83.7,521h-.92l-.15.69-.11,0a2.49,2.49,0,0,0-.69.29l-.1.06-.59-.38-.65.66.39.6-.06.1a3,3,0,0,0-.28.7l0,.11-.69.17v.93l.69.14,0,.12a2.77,2.77,0,0,0,.29.69l.06.1-.37.6.67.65.59-.4.1.06a2.63,2.63,0,0,0,.7.28l.12,0Zm1.82-3.47A1.41,1.41,0,1,1,83.29,523,1.42,1.42,0,0,1,84.7,524.41Z"/><rect class="cls-10" x="75.08" y="514.51" width="2.36" height="11.25" transform="translate(390.13 98.42) rotate(45)"/><polygon class="cls-11" points="69.31 528.53 71.45 523.28 74.79 526.62 69.31 528.53"/><rect class="cls-10" x="76.75" y="516.18" width="2.36" height="11.25" transform="translate(391.8 97.73) rotate(45)"/><rect class="cls-12" x="82.59" y="511.77" width="2.7" height="4.73" transform="translate(506.84 818.32) rotate(135)"/><rect class="cls-13" x="80.68" y="513.68" width="2.7" height="4.73" transform="translate(504.93 822.93) rotate(135)"/><line class="cls-14" x1="135.05" y1="501.41" x2="137.05" y2="501.41"/><line class="cls-20" x1="140.91" y1="501.4" x2="185.32" y2="501.25"/><line class="cls-14" x1="187.25" y1="501.25" x2="189.25" y2="501.24"/><circle class="cls-16" cx="189.75" cy="501.24" r="1.57"/><circle class="cls-16" cx="135.05" cy="501.41" r="1.57"/><line class="cls-14" x1="143.59" y1="449.88" x2="145.59" y2="449.87"/><line class="cls-20" x1="149.46" y1="449.86" x2="193.87" y2="449.72"/><line class="cls-14" x1="195.8" y1="449.71" x2="197.8" y2="449.7"/><circle class="cls-16" cx="198.3" cy="449.7" r="1.57"/><circle class="cls-16" cx="143.59" cy="449.88" r="1.57"/><line class="cls-14" x1="300.93" y1="565.12" x2="300.94" y2="567.12"/><line class="cls-20" x1="300.95" y1="570.98" x2="301.09" y2="615.39"/><line class="cls-14" x1="301.1" y1="617.32" x2="301.11" y2="619.32"/><circle class="cls-16" cx="301.11" cy="619.82" r="1.57"/><circle class="cls-16" cx="300.93" cy="565.12" r="1.57"/><text class="cls-2" transform="translate(210.15 671.53)">San <tspan class="cls-21" x="23.04" y="0">P</tspan><tspan x="30.37" y="0">ablo</tspan></text><text class="cls-5" transform="translate(228.68 692.05)"><tspan xml:space="preserve"> 0 p</tspan><tspan class="cls-6" x="24.52" y="0">r</tspan><tspan class="cls-4" x="29.73" y="0">o</tspan><tspan class="cls-7" x="38.1" y="0">y</tspan><tspan x="45.53" y="0">ec</tspan><tspan class="cls-8" x="61.46" y="0">t</tspan><tspan x="66.31" y="0">os</tspan></text><path class="cls-9" d="M217.46,687.52h1.31l.2-1,.16,0a3.48,3.48,0,0,0,1-.41l.14-.08.86.52.92-.95-.56-.84.09-.15a3.65,3.65,0,0,0,.39-1l0-.17,1-.23v-1.32l-1-.21,0-.16a3.86,3.86,0,0,0-.42-1l-.08-.14.52-.86-1-.92-.84.56-.15-.09a3.52,3.52,0,0,0-1-.39l-.16,0-.24-1h-1.32l-.2,1-.17.05a3.74,3.74,0,0,0-1,.41l-.14.08-.84-.53-.92.94.56.85-.08.14a3.68,3.68,0,0,0-.4,1l0,.17-1,.23v1.32l1,.21,0,.16a3.61,3.61,0,0,0,.41,1l.08.14-.52.86,1,.92.84-.56.15.09a3.65,3.65,0,0,0,1,.39l.16,0Zm2.59-4.92a2,2,0,1,1-2-2A2,2,0,0,1,220.05,682.6Z"/><path class="cls-9" d="M223.73,694h.92l.14-.69.12,0a3.28,3.28,0,0,0,.69-.3l.09,0,.61.36.65-.66-.4-.6.06-.1a2.63,2.63,0,0,0,.28-.7l0-.11.69-.17v-.93l-.69-.14,0-.12a2.77,2.77,0,0,0-.29-.69l-.06-.09.37-.61-.67-.65-.59.4-.11-.06a2.5,2.5,0,0,0-.7-.28l-.11,0-.17-.69h-.93l-.14.69-.12,0a2.57,2.57,0,0,0-.68.29l-.1.06-.59-.38-.65.67.39.59-.06.1a3,3,0,0,0-.28.7l0,.12-.69.16v.93l.69.15,0,.11a2.49,2.49,0,0,0,.29.69l.06.1-.37.6.66.65.6-.39.1.06a2.6,2.6,0,0,0,.7.27l.11,0Zm1.82-3.46a1.41,1.41,0,1,1-1.41-1.41A1.41,1.41,0,0,1,225.55,690.58Z"/><rect class="cls-10" x="215.93" y="680.67" width="2.36" height="11.25" transform="translate(548.88 47.49) rotate(45)"/><polygon class="cls-11" points="210.16 694.69 212.3 689.44 215.64 692.78 210.16 694.69"/><rect class="cls-10" x="217.6" y="682.35" width="2.36" height="11.25" transform="translate(550.55 46.8) rotate(45)"/><rect class="cls-12" x="223.44" y="677.93" width="2.7" height="4.73" transform="translate(864.78 1002.39) rotate(135)"/><rect class="cls-13" x="221.53" y="679.84" width="2.7" height="4.73" transform="translate(862.87 1006.99) rotate(135)"/><line class="cls-14" x1="248.13" y1="520.92" x2="248.13" y2="522.92"/><line class="cls-22" x1="248.14" y1="526.9" x2="248.3" y2="652.32"/><line class="cls-14" x1="248.3" y1="654.31" x2="248.31" y2="656.31"/><circle class="cls-16" cx="248.31" cy="656.81" r="1.57"/><circle class="cls-16" cx="248.13" cy="520.92" r="1.57"/><text class="cls-2" transform="translate(422.23 576.14)">Cajabamba</text><text class="cls-5" transform="translate(440.76 596.67)"><tspan xml:space="preserve"> 1 p</tspan><tspan class="cls-6" x="24.52" y="0">r</tspan><tspan class="cls-4" x="29.73" y="0">o</tspan><tspan class="cls-7" x="38.1" y="0">y</tspan><tspan x="45.53" y="0">ec</tspan><tspan class="cls-8" x="61.46" y="0">t</tspan><tspan x="66.31" y="0">o</tspan></text><path class="cls-9" d="M429.54,592.14h1.3l.2-1,.17,0a3.74,3.74,0,0,0,1-.41l.14-.08.85.52.93-.95-.56-.84.08-.15a3.68,3.68,0,0,0,.4-1l0-.16,1-.24v-1.32l-1-.2,0-.17a3.74,3.74,0,0,0-.41-1l-.08-.14.52-.86-1-.92-.85.56-.14-.08a3.68,3.68,0,0,0-1-.4l-.17,0-.23-1h-1.32l-.21,1-.16,0a3.48,3.48,0,0,0-1,.41l-.14.09-.84-.54-.92.94.56.85-.09.14a3.78,3.78,0,0,0-.39,1l0,.17-1,.23,0,1.33,1,.2,0,.16a3.86,3.86,0,0,0,.42,1l.08.14-.52.86.94.92.85-.56.15.09a3.52,3.52,0,0,0,1,.39l.16,0Zm2.59-4.93a2,2,0,1,1-2-2A2,2,0,0,1,432.13,587.21Z"/><path class="cls-9" d="M435.81,598.66h.91l.15-.69.11,0a2.83,2.83,0,0,0,.69-.29l.1-.06.6.37.65-.67-.39-.6.06-.1a2.85,2.85,0,0,0,.28-.7l0-.11.69-.17v-.93l-.7-.14,0-.12a2.57,2.57,0,0,0-.29-.68l-.05-.1L439,593l-.66-.64-.6.39-.1-.06a2.63,2.63,0,0,0-.7-.28l-.11,0-.17-.69h-.93l-.14.69-.12,0a3.2,3.2,0,0,0-.69.29l-.1.06-.59-.38-.64.67.39.59-.06.11a2.57,2.57,0,0,0-.28.69l0,.12-.69.16v.93l.69.15,0,.11a2.83,2.83,0,0,0,.29.69l.06.1-.37.6.67.65.6-.39.1.06a2.85,2.85,0,0,0,.7.28l.11,0Zm1.82-3.47a1.41,1.41,0,1,1-1.41-1.41A1.41,1.41,0,0,1,437.63,595.19Z"/><rect class="cls-10" x="428" y="585.28" width="2.36" height="11.25" transform="translate(543.54 -130.41) rotate(45)"/><polygon class="cls-11" points="422.23 599.3 424.37 594.05 427.72 597.39 422.23 599.3"/><rect class="cls-10" x="429.68" y="586.96" width="2.36" height="11.25" transform="translate(545.21 -131.1) rotate(45)"/><rect class="cls-12" x="435.51" y="582.54" width="2.7" height="4.73" transform="translate(1159.36 689.59) rotate(135)"/><rect class="cls-13" x="433.6" y="584.45" width="2.7" height="4.73" transform="translate(1157.45 694.2) rotate(135)"/><line class="cls-14" x1="362.78" y1="586.9" x2="364.78" y2="586.9"/><line class="cls-20" x1="368.64" y1="586.88" x2="413.05" y2="586.74"/><line class="cls-14" x1="414.98" y1="586.73" x2="416.98" y2="586.73"/><circle class="cls-16" cx="417.48" cy="586.73" r="1.57"/><circle class="cls-16" cx="362.78" cy="586.9" r="1.57"/><text class="cls-2" transform="translate(415 520.92)">San Ma<tspan class="cls-18" x="39.86" y="0">r</tspan><tspan x="43.78" y="0">cos</tspan></text><text class="cls-5" transform="translate(433.53 541.45)"><tspan xml:space="preserve"> 2 p</tspan><tspan class="cls-6" x="24.52" y="0">r</tspan><tspan class="cls-4" x="29.73" y="0">o</tspan><tspan class="cls-7" x="38.1" y="0">y</tspan><tspan x="45.53" y="0">ec</tspan><tspan class="cls-8" x="61.46" y="0">t</tspan><tspan x="66.31" y="0">os</tspan></text><path class="cls-9" d="M422.31,536.92h1.31l.2-1,.16,0a3.86,3.86,0,0,0,1-.42l.14-.08.86.52.92-.95-.56-.84.09-.15a3.52,3.52,0,0,0,.39-1l0-.16,1-.24v-1.32l-1-.2,0-.17a4.18,4.18,0,0,0-.42-1l-.08-.14.52-.85-.95-.92-.84.55-.15-.08a3.55,3.55,0,0,0-1-.4l-.16,0-.24-1-1.32,0-.2,1-.17,0a3.74,3.74,0,0,0-1,.41l-.14.09-.84-.54-.92.94.56.85-.08.15a3.55,3.55,0,0,0-.4,1l0,.16-1,.24v1.32l1,.2,0,.17a3.55,3.55,0,0,0,.41,1l.08.14-.52.86.95.92.84-.56.15.09a4,4,0,0,0,1,.4l.17,0ZM424.9,532a2,2,0,1,1-2-2A2,2,0,0,1,424.9,532Z"/><path class="cls-9" d="M428.58,543.44h.92l.14-.69.12,0a2.77,2.77,0,0,0,.69-.29l.09-.06.61.37.65-.67-.4-.59.06-.11a2.57,2.57,0,0,0,.28-.69l0-.12.69-.17v-.92l-.69-.15,0-.11a2.49,2.49,0,0,0-.29-.69l-.06-.1.37-.6-.67-.65-.59.39-.11-.06a2.57,2.57,0,0,0-.69-.28l-.12,0-.17-.69h-.92l-.15.69-.11,0a2.89,2.89,0,0,0-.69.3l-.1.05-.59-.37-.65.66.39.6-.06.1a2.85,2.85,0,0,0-.28.7l0,.11-.69.17v.93l.69.14,0,.12a2.57,2.57,0,0,0,.29.68l.06.1-.37.61.67.64.59-.39.1.06a2.63,2.63,0,0,0,.7.28l.12,0ZM430.4,540a1.41,1.41,0,1,1-1.41-1.41A1.41,1.41,0,0,1,430.4,540Z"/><rect class="cls-10" x="420.78" y="530.07" width="2.36" height="11.25" transform="translate(502.38 -141.47) rotate(45)"/><polygon class="cls-11" points="415 544.09 417.15 538.83 420.49 542.18 415 544.09"/><rect class="cls-10" x="422.45" y="531.74" width="2.36" height="11.25" transform="translate(504.05 -142.16) rotate(45)"/><rect class="cls-12" x="428.29" y="527.32" width="2.7" height="4.73" transform="translate(1107.98 600.43) rotate(135)"/><rect class="cls-13" x="426.38" y="529.23" width="2.7" height="4.73" transform="translate(1106.07 605.04) rotate(135)"/><line class="cls-14" x1="369.09" y1="531.68" x2="371.09" y2="531.68"/><line class="cls-23" x1="374.92" y1="531.66" x2="403.63" y2="531.53"/><line class="cls-14" x1="405.54" y1="531.52" x2="407.54" y2="531.51"/><circle class="cls-16" cx="408.04" cy="531.51" r="1.57"/><circle class="cls-16" cx="369.09" cy="531.68" r="1.57"/><text class="cls-2" transform="translate(72.3 554.78)">Contumaza</text><text class="cls-5" transform="translate(90.83 575.3)"><tspan xml:space="preserve"> 0 p</tspan><tspan class="cls-6" x="24.52" y="0">r</tspan><tspan class="cls-4" x="29.73" y="0">o</tspan><tspan class="cls-7" x="38.1" y="0">y</tspan><tspan x="45.53" y="0">ec</tspan><tspan class="cls-8" x="61.46" y="0">t</tspan><tspan x="66.31" y="0">os</tspan></text><path class="cls-9" d="M79.61,570.77h1.31l.2-1,.16,0a3.48,3.48,0,0,0,1-.41l.14-.08.86.52.92-.95-.56-.85.09-.14a3.78,3.78,0,0,0,.39-1l0-.17,1-.23v-1.32l-1-.21,0-.16a3.86,3.86,0,0,0-.42-1l-.08-.14.52-.86-1-.92-.84.56-.15-.09a3.52,3.52,0,0,0-1-.39l-.16,0-.24-1H79.46l-.2,1-.17,0a4.18,4.18,0,0,0-1,.42l-.14.08-.84-.54-.92,1,.56.84-.08.15a3.68,3.68,0,0,0-.4,1l0,.16-1,.24v1.32l1,.21,0,.16a3.61,3.61,0,0,0,.41,1l.08.14-.52.86,1,.92.84-.56.15.08a3.38,3.38,0,0,0,1,.4l.16,0Zm2.59-4.93a2,2,0,1,1-2-2A2,2,0,0,1,82.2,565.84Z"/><path class="cls-9" d="M85.88,577.29h.92l.14-.69.12,0a2.77,2.77,0,0,0,.69-.29l.09,0,.61.36.64-.66-.39-.6.06-.1a2.63,2.63,0,0,0,.28-.7l0-.11.69-.17v-.93l-.69-.14,0-.12a2.77,2.77,0,0,0-.29-.69l-.06-.1.37-.6-.67-.65-.59.4-.11-.06a2.23,2.23,0,0,0-.7-.28l-.11,0-.17-.69h-.93l-.14.69-.12,0a2.57,2.57,0,0,0-.68.29l-.1.06-.59-.38-.65.67.39.59-.06.1a3,3,0,0,0-.28.7l0,.11-.69.17v.93l.69.14,0,.12a2.62,2.62,0,0,0,.29.69l.06.1-.37.6.66.65.6-.39.1,0a2.33,2.33,0,0,0,.7.28l.11,0Zm1.82-3.46a1.41,1.41,0,1,1-1.41-1.41A1.41,1.41,0,0,1,87.7,573.83Z"/><rect class="cls-10" x="78.08" y="563.92" width="2.36" height="11.25" transform="translate(425.95 110.77) rotate(45)"/><polygon class="cls-11" points="72.31 577.94 74.45 572.69 77.79 576.03 72.31 577.94"/><rect class="cls-10" x="79.75" y="565.59" width="2.36" height="11.25" transform="translate(427.62 110.08) rotate(45)"/><rect class="cls-12" x="85.59" y="561.18" width="2.7" height="4.73" transform="translate(546.9 900.55) rotate(135)"/><rect class="cls-13" x="83.68" y="563.09" width="2.7" height="4.73" transform="translate(544.99 905.16) rotate(135)"/><line class="cls-14" x1="138.05" y1="550.83" x2="140.05" y2="550.82"/><line class="cls-20" x1="143.91" y1="550.81" x2="188.32" y2="550.66"/><line class="cls-14" x1="190.25" y1="550.66" x2="192.25" y2="550.65"/><circle class="cls-16" cx="192.75" cy="550.65" r="1.57"/><circle class="cls-16" cx="138.05" cy="550.83" r="1.57"/><circle class="cls-24" cx="356.84" cy="531.85" r="6.43"/><circle class="cls-24" cx="348.95" cy="586.9" r="6.43"/><circle class="cls-25" cx="356.84" cy="547.75" r="6.43"/><circle class="cls-25" cx="300.93" cy="550.65" r="6.43"/><circle class="cls-25" cx="300.93" cy="534.36" r="6.43"/><circle class="cls-25" cx="342.52" cy="490.56" r="6.43"/><circle class="cls-25" cx="223.1" cy="458.44" r="6.43"/><circle class="cls-25" cx="213.43" cy="501.41" r="6.43"/><circle class="cls-25" cx="223.1" cy="441.44" r="6.43"/><circle class="cls-24" cx="210.24" cy="291.06" r="6.43"/><circle class="cls-25" cx="210.24" cy="306.96" r="6.43"/><circle class="cls-24" cx="191.56" cy="412.68" r="6.43"/><circle class="cls-25" cx="191.56" cy="428.58" r="6.43"/><circle class="cls-24" cx="225.49" cy="291.06" r="6.43"/><circle class="cls-25" cx="225.49" cy="306.96" r="6.43"/><circle class="cls-25" cx="225.49" cy="251.61" r="6.43"/><circle class="cls-24" cx="241.63" cy="291.06" r="6.43"/><circle class="cls-24" cx="210.24" cy="220.56" r="6.43"/><circle class="cls-24" cx="225.49" cy="220.56" r="6.43"/><circle class="cls-24" cx="241.63" cy="220.56" r="6.43"/><circle class="cls-24" cx="210.24" cy="236.09" r="6.43"/><circle class="cls-24" cx="225.49" cy="236.09" r="6.43"/><circle class="cls-24" cx="241.63" cy="236.09" r="6.43"/><circle class="cls-25" cx="241.63" cy="306.96" r="6.43"/><circle class="cls-25" cx="225.49" cy="322.86" r="6.43"/><circle class="cls-24" cx="252.13" cy="366.51" r="6.43"/><circle class="cls-25" cx="252.13" cy="382.41" r="6.43"/></svg>