<svg id="Capa_1" data-name="Capa 1" xmlns="http://www.w3.org/2000/svg" viewBox="0 0 554 932"><defs><style>.cls-1{fill:#71c2e9;stroke:#377c9c;stroke-width:3px;}.cls-1,.cls-18,.cls-19{stroke-miterlimit:1.75;}.cls-2{font-size:12px;font-family:Roboto-Light, Roboto;font-weight:300;}.cls-2,.cls-22,.cls-9{fill:#1d1d1b;}.cls-3{letter-spacing:-0.02em;}.cls-4{letter-spacing:-0.01em;}.cls-5{letter-spacing:0.02em;}.cls-6{letter-spacing:-0.01em;}.cls-7{letter-spacing:-0.01em;}.cls-8{letter-spacing:-0.04em;}.cls-9{font-size:15px;font-family:Roboto-Bold, Roboto;font-weight:700;}.cls-10{letter-spacing:-0.02em;}.cls-11{letter-spacing:-0.01em;}.cls-12{letter-spacing:-0.01em;}.cls-13,.cls-20,.cls-21,.cls-23,.cls-24,.cls-25,.cls-26,.cls-27,.cls-28{fill:none;}.cls-13,.cls-14,.cls-15,.cls-16,.cls-17{stroke:#262626;stroke-linecap:round;stroke-width:0.5px;}.cls-13,.cls-14,.cls-15,.cls-16,.cls-17,.cls-20,.cls-21,.cls-23,.cls-24,.cls-25,.cls-26,.cls-27,.cls-28{stroke-linejoin:round;}.cls-14{fill:#fab637;}.cls-15{fill:#ffe7a1;}.cls-16{fill:#4ca8de;}.cls-17{fill:#cfcece;}.cls-18{fill:#afd28c;stroke:#71915a;isolation:isolate;}.cls-19{fill:#ec6062;stroke:#cc444b;}.cls-20,.cls-21,.cls-23,.cls-24,.cls-25,.cls-26,.cls-27,.cls-28{stroke:#0b0c0c;}.cls-21{stroke-dasharray:3.7 3.7;}.cls-23{stroke-dasharray:3.82 3.82;}.cls-24{stroke-dasharray:4.06 4.06;}.cls-25{stroke-dasharray:4.09 4.09;}.cls-26{stroke-dasharray:3.81 3.81;}.cls-27{stroke-dasharray:4.23 4.23;}.cls-28{stroke-dasharray:3.66 3.66;}</style></defs><path class="cls-1" d="M266.22,393.64l30,4L310.63,419l-1.71,4.6,6.65,6.85,1.3,11.54-4.07,2.49-9.52-5.7-23.93,4-3.48,8.71-5.13,1-.58,12.93-14.4,5.24-20.3,18.78-5.21-1.9-3.59,13.6-3.54-11.89-6.88.43-2.41,5L211.05,484l-8.26-3.6,3.92-16.92,4.45-6.5,11.42-3.89-4.92-7.82,4.43-5-2.18-8.57L230,421.23l7.3-16.9Z"/><path class="cls-1" d="M265.77,466l4.85,4.37.17,8.14,11.55,4.59-3.73,12.74,4.57,8.91-4.41,8.22,5.7,15.42-3.79,5.58-21.52-12.55-3.59-.67.64,3.55-6.08-3.94-5.08,6.14-4.26-17.8-15.64,4.87L218.09,512l-2.9-5.26,1.05-17,7.75.47,2.67,11,3.5-13.52,5.3,1.82Z"/><path class="cls-1" d="M246.19,382l13.16,8.21-.09,7.36-20.44,5.24-12.46,24L214,421.1l-27.46,5.14,2.69,6.33-4.74.84L181.3,446l5.35,7.88-8.43,8.28.93,5.27L172,469.81l1.45-7.17-18.73-39.45,4.24,1.14,1.16-4.95,8,2.05-1.36-3.5,14.08-3.61,1.24-4.27,2.07,4-.75-5.14,6.54-3,43.86-8.65,2-7.51Z"/><path class="cls-1" d="M134.24,295.32l11.67,10.56,11.25-1.74,9.56,4.15,7.12-4.71L185,308.9l14.94,25.5,21.48-5.47-1,22.54L237.28,355l7.69-2.82,4.79,5.16-6.69-2.66-10.75,6.12-16-7.38-4.41,2.42L196,344.73l-15.44-2.45L179,334.71l-6.08,10.45L150,336.08,131.74,323l-8.84-13.2,3.41-14Z"/><path class="cls-1" d="M180.78,342.33l15.08,2.36,15.73,11.08,4.68-2.31,16,7.38,10.75-6.12,6.69,2.66L255,347l2.5,8.78,16.81,1.34,5.78,9.83-12.6,3.57-12.56,15.68-11-3.61-10.14,14.64-43.86,8.65-6.54,3,.87,5.07-2.19-3.91-1.24,4.27-14.08,3.61-1.43,4.55-5.2-3.1L159,424.32l-4.19-1.17-4.9,6.26,1,5-10.27-18,13-10.18,2.8-22.82,12.48-18.95,11.5,14.5,3.48-5.11.92-17.22-11.88-11.49,5.67-10.44Z"/><path class="cls-1" d="M287.42,229.19l8.29,13.5L291,278.24l8.13,18,4.2,31.21,7.6,8.45,5.88,19.85,10.7,10.52,7,19.84,5.82-1-13,29.14L315,382.37l-19.41,14.94-9.12,1.55L278,393.71l-12.57-.32-6.14,4.18L256,380.81,268.23,370l11.8-2.92-5.71-9.95L258,356l-3-9-5.21,10.4L245,352.22,237.28,355l-16.84-3.57,3.1-24.73,5.49-1.46,9.05,5.4,17.61-9.44.47-13.21,5.19-9.55-4.75-.7,8-4.94,3.8-12.66,4.56-2.52-3.89-10.75,3.79-24.48-3-5.4Z"/><path class="cls-1" d="M238.32,246.16l12.92,26.93L254.92,298l6.42.39L256.16,308l-.41,13.08-17.37,9.51-11.89-5.45-25.19,9.72-15.75-25.52-8.21-4.49-10.62,3.41-9.56-4.15-11.25,1.74-13-11.54-6.56,1.42-5.2,7.17-8.91-14.19-1.75-11.12L105.84,276l-3.36-15.07,7.52-8.84,8.65,2.53,9.7-6.41-.86,5.71,8.17,1-1.37,4.19,5.9,5.18L166.27,266l8.49-7.86,15.1,3.08,21.06-4.91,7.79,11,3.71-.85,6.86-17.77Z"/><path class="cls-1" d="M315.41,382.7l8,27.89,5,3.08-.05,25-5.31,3.14-.18,9.93,11.32,8.05,11.17.7-.26,9.17L334,475.22l-5,23.38-18.35,6-23,32.66-8.91-24.3,4.41-8.22-4.57-8.91,3.73-12.74-11.88-5.11.28-25.39,5.13-1,3.5-8.72,23.91-4,9.52,5.7,3.93-2.2-1.16-11.83-6.65-6.85,1.71-4.6-15-21.69,8.81-10.05Z"/><path class="cls-1" d="M482.21,308.23,474.35,341l5.85,3.87,7,24.13-17.23,17.72,4.72,3.48-7.45,3.6-.95,14.39-12.16,14.49-1.85,24-6.67-3.86L431,449.08l-10.18-6.36-14.42,3-21.08-9.26,3.85,12.75-16.51,1.93-.73,7.3-5.74,1.09-4.09,7.65-27.92-7.33-11.27-8,.13-10,5.31-3.14.22-26.35,11.75-27.19,19.24-4.87L365.31,369l11.25,2,13.12-4.79,9.45-14.08-4.22-10.48,5-.11,4.6-12.67,7.62-4-.36-14.5,25.59-3.21,12.47-13.37.69-14.31,36.28-15.93,6.48,6.34,2.6,21.95-12.82,11.09Z"/><path class="cls-1" d="M195.86,455.36l11.85,5-5,19.88,8.35,3.77,4.72,25.34,5.72,6.59-2.56,5.8-12.44-.42-21.12,14.55-10-5.57-5.73-10.75-3.57,1.62L159,500l0-14.78,15.29-5.08L172,469.81l7.15-2.34-.93-5.27,8.43-8.28,2.6,4.27,5.76-8.54Z"/><path class="cls-1" d="M215.46,422.56l6.71,1.27-.26,17.33-4.25,4.08,4.92,7.82L211.16,457l-3.44,5.56L196,456.81l-1.14-7.15-6,8.51L181.3,446l3.14-12.63,4.74-.84-2.91-6.09Z"/><text class="cls-2" transform="translate(191.55 188.67)">Ma<tspan class="cls-3" x="16.81" y="0">r</tspan><tspan x="20.61" y="0">añón</tspan></text><text class="cls-2" transform="translate(316.87 205.05)">Leoncio P<tspan class="cls-3" x="51.73" y="0">r</tspan><tspan x="55.54" y="0">ado</tspan></text><text class="cls-2" transform="translate(38.96 323.14)">Huac<tspan class="cls-4" x="27.69" y="0">a</tspan><tspan x="34.03" y="0">ybamba</tspan></text><text class="cls-2" transform="translate(49.3 373.33)">Huamalíes</text><text class="cls-2" transform="translate(40.04 415.33)">Dos de M<tspan class="cls-4" x="49.74" y="0">ay</tspan><tspan x="61.69" y="0">o</tspan></text><text class="cls-2" transform="translate(316.87 280.96)">Huánuco</text><text class="cls-2" transform="translate(385.7 472.14)">Pue<tspan class="cls-5" x="20.18" y="0">r</tspan><tspan class="cls-6" x="24.51" y="0">t</tspan><tspan x="28.25" y="0">o Inca</tspan></text><text class="cls-2" transform="translate(335.48 522.9)"><tspan class="cls-7">P</tspan><tspan x="7.32" y="0">achitea</tspan></text><text class="cls-2" transform="translate(231.77 554.29)">Ambo</text><text class="cls-2" transform="translate(39.5 516.76)">Lauricocha</text><text class="cls-2" transform="translate(52.27 457.41)"><tspan class="cls-8">Y</tspan><tspan x="6.76" y="0">a</tspan><tspan class="cls-6" x="13.18" y="0">r</tspan><tspan x="17.1" y="0">owilca</tspan></text><text class="cls-9" transform="translate(57.19 340.89)"><tspan xml:space="preserve"> 1 p</tspan><tspan class="cls-10" x="24.52" y="0">r</tspan><tspan class="cls-4" x="29.73" y="0">o</tspan><tspan class="cls-11" x="38.1" y="0">y</tspan><tspan x="45.53" y="0">ec</tspan><tspan class="cls-12" x="61.46" y="0">t</tspan><tspan x="66.31" y="0">os</tspan></text><path class="cls-13" d="M46,336.36h1.3l.21-1,.16,0a4,4,0,0,0,1-.42l.14-.08.86.53.92-.95-.56-.85.08-.14a3.43,3.43,0,0,0,.4-1l0-.16,1-.24v-1.32l-1-.2-.05-.17a3.55,3.55,0,0,0-.41-1l-.08-.14.52-.86-.95-.92-.84.56-.15-.09a3.65,3.65,0,0,0-1-.39l-.16,0-.24-1H45.82l-.2,1-.17,0a4.18,4.18,0,0,0-1,.42l-.14.08-.84-.54-.92.95.56.84-.09.15a3.65,3.65,0,0,0-.39,1l0,.16-1,.24v1.32l1,.2,0,.17a4.18,4.18,0,0,0,.42,1l.08.14-.52.86,1,.92.84-.56.15.08a3.68,3.68,0,0,0,1,.4l.16,0Zm2.59-4.93a2,2,0,1,1-2-2A2,2,0,0,1,48.56,331.43Z"/><path class="cls-13" d="M52.24,342.88h.92l.14-.69.12,0a2.57,2.57,0,0,0,.68-.29l.1-.06.61.37.64-.67-.39-.59.06-.1a2.63,2.63,0,0,0,.28-.7l0-.12.69-.16v-.93l-.69-.14,0-.12a3,3,0,0,0-.29-.69l-.06-.1.37-.6-.67-.65-.6.39-.1-.06a2.48,2.48,0,0,0-.7-.27l-.11,0-.17-.69h-.93l-.14.69-.12,0a2.57,2.57,0,0,0-.68.29l-.11.06-.59-.38-.64.66.39.6-.06.1a2.63,2.63,0,0,0-.28.7l0,.11-.7.17v.93l.7.14,0,.12a3.28,3.28,0,0,0,.3.69l0,.1-.36.6.66.65.6-.4.1.06a2.63,2.63,0,0,0,.7.28l.11,0Zm1.82-3.47A1.41,1.41,0,1,1,52.65,338,1.42,1.42,0,0,1,54.06,339.41Z"/><rect class="cls-14" x="44.44" y="329.51" width="2.36" height="11.25" transform="translate(250.34 65.9) rotate(45)"/><polygon class="cls-15" points="38.66 343.53 40.81 338.28 44.15 341.62 38.66 343.53"/><rect class="cls-14" x="46.11" y="331.18" width="2.36" height="11.25" transform="translate(252.01 65.21) rotate(45)"/><rect class="cls-16" x="51.95" y="326.77" width="2.7" height="4.73" transform="translate(323.71 524.18) rotate(135)"/><rect class="cls-17" x="50.04" y="328.68" width="2.7" height="4.73" transform="translate(321.8 528.78) rotate(135)"/><text class="cls-9" transform="translate(67.83 390.45)"><tspan xml:space="preserve"> 7 p</tspan><tspan class="cls-10" x="24.52" y="0">r</tspan><tspan class="cls-4" x="29.73" y="0">o</tspan><tspan class="cls-11" x="38.1" y="0">y</tspan><tspan x="45.53" y="0">ec</tspan><tspan class="cls-12" x="61.46" y="0">t</tspan><tspan x="66.31" y="0">os</tspan></text><path class="cls-13" d="M56.61,385.92h1.3l.2-1,.17,0a4.18,4.18,0,0,0,1-.42l.14-.08.86.52.92-.94-.56-.85.08-.15a3.55,3.55,0,0,0,.4-1l0-.16,1-.24v-1.32l-1-.2,0-.17a3.55,3.55,0,0,0-.41-1l-.08-.14.52-.86-1-.92-.85.55-.14-.08a4,4,0,0,0-1-.4L58,377l-.23-1-1.32,0-.21,1-.16,0a3.86,3.86,0,0,0-1,.42l-.14.08-.84-.54-.92.94.56.85-.09.15a3.52,3.52,0,0,0-.39,1l0,.16-1,.24v1.32l1,.2,0,.17a4.18,4.18,0,0,0,.42,1l.08.14-.52.85.94.92.85-.55.15.08a3.88,3.88,0,0,0,1,.4l.16,0ZM59.2,381a2,2,0,1,1-2-2A2,2,0,0,1,59.2,381Z"/><path class="cls-13" d="M62.88,392.44h.91l.15-.69.11,0a2.49,2.49,0,0,0,.69-.29l.1-.06.6.37.65-.67-.39-.59.06-.11a2.57,2.57,0,0,0,.28-.69l0-.12.69-.16v-.93l-.7-.15,0-.11a2.89,2.89,0,0,0-.3-.69l0-.1.36-.6-.66-.65-.6.39-.1-.06a3,3,0,0,0-.7-.28l-.11,0-.17-.69h-.93l-.14.69-.12,0a2.77,2.77,0,0,0-.69.29l-.1.06-.59-.38-.64.66.39.6-.06.1a2.5,2.5,0,0,0-.28.7l0,.11-.69.17v.93l.69.14,0,.12a3,3,0,0,0,.29.68l.06.1-.37.61.67.64.6-.39.1.06a2.5,2.5,0,0,0,.7.28l.11,0ZM64.7,389a1.41,1.41,0,1,1-1.41-1.41A1.41,1.41,0,0,1,64.7,389Z"/><rect class="cls-14" x="55.08" y="379.07" width="2.36" height="11.25" transform="translate(288.5 72.89) rotate(45)"/><polygon class="cls-15" points="49.3 393.09 51.44 387.83 54.79 391.18 49.3 393.09"/><rect class="cls-14" x="56.75" y="380.74" width="2.36" height="11.25" transform="translate(290.17 72.2) rotate(45)"/><rect class="cls-16" x="62.58" y="376.32" width="2.7" height="4.73" transform="translate(376.91 601.26) rotate(135)"/><rect class="cls-17" x="60.68" y="378.23" width="2.7" height="4.73" transform="translate(375.01 605.86) rotate(135)"/><text class="cls-9" transform="translate(58.57 433.84)"><tspan xml:space="preserve"> 4 p</tspan><tspan class="cls-10" x="24.52" y="0">r</tspan><tspan class="cls-4" x="29.73" y="0">o</tspan><tspan class="cls-11" x="38.1" y="0">y</tspan><tspan x="45.53" y="0">ec</tspan><tspan class="cls-12" x="61.46" y="0">t</tspan><tspan x="66.31" y="0">os</tspan></text><path class="cls-13" d="M47.34,429.31h1.31l.2-1,.17,0a4,4,0,0,0,1-.42l.14-.08.86.52.92-.95-.56-.84.09-.15a3.52,3.52,0,0,0,.39-1l0-.16,1-.24,0-1.32-1-.2,0-.17a4.18,4.18,0,0,0-.42-1l-.08-.14.52-.85-.94-.92-.85.55-.15-.08a3.55,3.55,0,0,0-1-.4l-.16,0-.24-1-1.32,0-.2,1-.17,0a3.9,3.9,0,0,0-1,.41l-.15.09-.84-.54-.92.94.56.85-.08.15a3.55,3.55,0,0,0-.4,1l0,.16-1,.24v1.32l1,.2,0,.17a3.55,3.55,0,0,0,.41,1l.08.14-.52.86,1,.92.85-.56.14.09a4,4,0,0,0,1,.4l.17,0Zm2.59-4.93a2,2,0,1,1-2-2A2,2,0,0,1,49.93,424.38Z"/><path class="cls-13" d="M53.61,435.83h.92l.14-.69.12,0a2.77,2.77,0,0,0,.69-.29l.1-.06.6.37.65-.67-.4-.59.06-.11a2.57,2.57,0,0,0,.28-.69l0-.12.69-.17v-.92l-.69-.15,0-.11a2.49,2.49,0,0,0-.29-.69l-.06-.1.37-.6-.67-.65-.59.39-.11-.06a2.57,2.57,0,0,0-.69-.28l-.12,0-.16-.69h-.93l-.15.69-.11,0a2.89,2.89,0,0,0-.69.3l-.1.05-.59-.37-.65.66.39.6-.06.1a2.48,2.48,0,0,0-.27.7l0,.11-.69.17v.93l.69.14,0,.12a2.57,2.57,0,0,0,.29.68l.06.1-.37.61.67.64.59-.39.1.06a2.63,2.63,0,0,0,.7.28l.12,0Zm1.82-3.47A1.41,1.41,0,1,1,54,431,1.41,1.41,0,0,1,55.43,432.36Z"/><rect class="cls-14" x="45.81" y="422.46" width="2.36" height="11.25" transform="translate(316.46 92.15) rotate(45)"/><polygon class="cls-15" points="40.04 436.48 42.18 431.22 45.52 434.57 40.04 436.48"/><rect class="cls-14" x="47.48" y="424.13" width="2.36" height="11.25" transform="translate(318.14 91.46) rotate(45)"/><rect class="cls-16" x="53.32" y="419.71" width="2.7" height="4.73" transform="translate(391.78 681.88) rotate(135)"/><rect class="cls-17" x="51.41" y="421.62" width="2.7" height="4.73" transform="translate(389.87 686.48) rotate(135)"/><text class="cls-9" transform="translate(71.14 475.68)"><tspan xml:space="preserve"> 3 p</tspan><tspan class="cls-10" x="24.52" y="0">r</tspan><tspan class="cls-4" x="29.73" y="0">o</tspan><tspan class="cls-11" x="38.1" y="0">y</tspan><tspan x="45.53" y="0">ec</tspan><tspan class="cls-12" x="61.46" y="0">t</tspan><tspan x="66.31" y="0">os</tspan></text><path class="cls-13" d="M59.92,471.15h1.3l.21-1,.16,0a3.61,3.61,0,0,0,1-.41l.14-.08.86.52.92-1-.56-.85.09-.14a3.65,3.65,0,0,0,.39-1l0-.17,1-.23v-1.32l-1-.21,0-.16a3.86,3.86,0,0,0-.42-1L63.9,464l.52-.86-1-.92-.84.56-.15-.09a3.65,3.65,0,0,0-1-.39l-.16,0-.24-1H59.77l-.2,1-.17,0a4.18,4.18,0,0,0-1,.42l-.14.08-.84-.53-.92.94.56.84-.09.15a3.65,3.65,0,0,0-.39,1l0,.17-1,.23v1.32l1,.21,0,.16a3.61,3.61,0,0,0,.41,1l.08.14-.52.86.95.92.84-.56.15.08a3.38,3.38,0,0,0,1,.4l.16,0Zm2.59-4.92a2,2,0,1,1-2-2A2,2,0,0,1,62.51,466.23Z"/><path class="cls-13" d="M66.19,477.67h.92l.14-.69.12,0a3,3,0,0,0,.68-.3l.1-.05.61.36.64-.66-.39-.6.06-.1a2.63,2.63,0,0,0,.28-.7l0-.11.69-.17v-.93l-.69-.14,0-.12a3.2,3.2,0,0,0-.29-.69l-.06-.09.37-.61-.67-.65-.6.4-.1-.06a2.5,2.5,0,0,0-.7-.28l-.11,0-.17-.69h-.93l-.14.69-.12,0a2.57,2.57,0,0,0-.68.29l-.11.06-.59-.38-.64.67.39.59-.06.1a2.63,2.63,0,0,0-.28.7l0,.12-.69.16v.93l.7.14,0,.12a2.89,2.89,0,0,0,.3.69l0,.1-.36.6.66.65.6-.39.1.06a2.6,2.6,0,0,0,.7.27l.11,0ZM68,474.21a1.41,1.41,0,1,1-1.41-1.41A1.41,1.41,0,0,1,68,474.21Z"/><rect class="cls-14" x="58.39" y="464.3" width="2.36" height="11.25" transform="translate(349.74 95.52) rotate(45)"/><polygon class="cls-15" points="52.61 478.32 54.76 473.07 58.1 476.41 52.61 478.32"/><rect class="cls-14" x="60.06" y="465.97" width="2.36" height="11.25" transform="translate(351.41 94.82) rotate(45)"/><rect class="cls-16" x="65.9" y="461.56" width="2.7" height="4.73" transform="translate(442.84 744.42) rotate(135)"/><rect class="cls-17" x="63.99" y="463.47" width="2.7" height="4.73" transform="translate(440.93 749.02) rotate(135)"/><text class="cls-9" transform="translate(59.1 534.21)"><tspan xml:space="preserve"> 3 p</tspan><tspan class="cls-10" x="24.52" y="0">r</tspan><tspan class="cls-4" x="29.73" y="0">o</tspan><tspan class="cls-11" x="38.1" y="0">y</tspan><tspan x="45.53" y="0">ec</tspan><tspan class="cls-12" x="61.46" y="0">t</tspan><tspan x="66.31" y="0">os</tspan></text><path class="cls-13" d="M47.88,529.68h1.31l.2-1,.16,0a3.86,3.86,0,0,0,1-.42l.14-.08.86.52.92-.95-.56-.84.09-.15a3.52,3.52,0,0,0,.39-1l0-.16,1-.24V524l-1-.2,0-.17a4.18,4.18,0,0,0-.42-1l-.08-.14.52-.85-1-.93-.84.56-.15-.08a3.55,3.55,0,0,0-1-.4l-.16,0-.24-1H47.73l-.2,1-.17,0a3.74,3.74,0,0,0-1,.41l-.14.09-.84-.54-.92.94.56.85-.08.14a3.74,3.74,0,0,0-.4,1l0,.16-1,.24v1.32l1,.2,0,.17a3.55,3.55,0,0,0,.41,1l.08.14-.52.86,1,.92.84-.56.15.09a4,4,0,0,0,1,.4l.17,0Zm2.59-4.93a2,2,0,1,1-2-2A2,2,0,0,1,50.47,524.75Z"/><path class="cls-13" d="M54.15,536.2h.92l.14-.69.12,0a2.77,2.77,0,0,0,.69-.29l.09-.06.61.37.65-.67-.4-.59.06-.11a2.5,2.5,0,0,0,.28-.7l0-.11.69-.17v-.93l-.69-.14,0-.12a2.57,2.57,0,0,0-.29-.68l-.06-.1.37-.6-.67-.65-.59.39-.11-.06a2.57,2.57,0,0,0-.69-.28l-.12,0-.17-.69h-.92l-.15.69-.11,0a2.89,2.89,0,0,0-.69.3l-.1.05-.59-.37-.65.66.39.59-.06.11a2.94,2.94,0,0,0-.28.69l0,.12-.69.17v.93l.69.14,0,.12a2.57,2.57,0,0,0,.29.68l.06.1-.37.6.67.65.59-.39.1.06a2.63,2.63,0,0,0,.7.28l.12,0ZM56,532.73a1.41,1.41,0,1,1-1.41-1.41A1.41,1.41,0,0,1,56,532.73Z"/><rect class="cls-14" x="46.35" y="522.83" width="2.36" height="11.25" transform="translate(387.59 121.17) rotate(45)"/><polygon class="cls-15" points="40.58 536.85 42.72 531.59 46.06 534.94 40.58 536.85"/><rect class="cls-14" x="48.02" y="524.5" width="2.36" height="11.25" transform="translate(389.27 120.48) rotate(45)"/><rect class="cls-16" x="53.86" y="520.08" width="2.7" height="4.73" transform="translate(463.67 852.84) rotate(135)"/><rect class="cls-17" x="51.95" y="521.99" width="2.7" height="4.73" transform="translate(461.76 857.44) rotate(135)"/><text class="cls-9" transform="translate(250.48 573.4)"><tspan xml:space="preserve"> 7 p</tspan><tspan class="cls-10" x="24.52" y="0">r</tspan><tspan class="cls-4" x="29.73" y="0">o</tspan><tspan class="cls-11" x="38.1" y="0">y</tspan><tspan x="45.53" y="0">ec</tspan><tspan class="cls-12" x="61.46" y="0">t</tspan><tspan x="66.31" y="0">os</tspan></text><path class="cls-13" d="M239.26,568.87h1.3l.2-1,.17,0a3.74,3.74,0,0,0,1-.41l.14-.08.85.52.92-1-.55-.84.08-.15a4,4,0,0,0,.4-1l0-.16,1-.24,0-1.32-1-.2,0-.17a4.18,4.18,0,0,0-.42-1l-.08-.14.53-.86-.95-.92-.85.56-.14-.08a3.74,3.74,0,0,0-1-.4l-.16,0-.24-1H239.1l-.2,1-.17,0a3.55,3.55,0,0,0-1,.41l-.15.09-.84-.54-.91.94.55.85-.08.14a4.2,4.2,0,0,0-.4,1l0,.17-1,.23,0,1.33,1,.2,0,.16a3.86,3.86,0,0,0,.42,1l.08.14-.52.86.94.92.85-.56.14.09a3.71,3.71,0,0,0,1,.39l.16,0Zm2.59-4.93a2,2,0,1,1-2-2A2,2,0,0,1,241.85,563.94Z"/><path class="cls-13" d="M245.53,575.39h.91l.15-.69.11,0a2.83,2.83,0,0,0,.69-.29l.1-.06.6.37.65-.67-.39-.6.06-.1a2.85,2.85,0,0,0,.28-.7l0-.11.69-.17v-.93l-.69-.14,0-.12a2.57,2.57,0,0,0-.29-.68l-.06-.1.37-.61-.67-.64-.59.39-.1-.06a2.63,2.63,0,0,0-.7-.28l-.12,0-.16-.69h-.93l-.14.69-.12,0a3,3,0,0,0-.69.29l-.1.06-.59-.38-.65.67.4.59-.06.11a2.57,2.57,0,0,0-.28.69l0,.12-.69.16v.93l.69.15,0,.11a2.49,2.49,0,0,0,.29.69l.06.1-.37.6.67.65.59-.39.11.06a2.57,2.57,0,0,0,.69.28l.12,0Zm1.82-3.47a1.41,1.41,0,1,1-1.41-1.41A1.41,1.41,0,0,1,247.35,571.92Z"/><rect class="cls-14" x="237.72" y="562.02" width="2.36" height="11.25" transform="translate(471.36 -2.67) rotate(45)"/><polygon class="cls-15" points="231.95 576.03 234.09 570.78 237.44 574.13 231.95 576.03"/><rect class="cls-14" x="239.39" y="563.69" width="2.36" height="11.25" transform="translate(473.03 -3.37) rotate(45)"/><rect class="cls-16" x="245.23" y="559.27" width="2.7" height="4.73" transform="translate(818.08 784.41) rotate(135)"/><rect class="cls-17" x="243.32" y="561.18" width="2.7" height="4.73" transform="translate(816.17 789.02) rotate(135)"/><text class="cls-9" transform="translate(353.33 541.6)"><tspan xml:space="preserve"> 4 p</tspan><tspan class="cls-10" x="24.52" y="0">r</tspan><tspan class="cls-4" x="29.73" y="0">o</tspan><tspan class="cls-11" x="38.1" y="0">y</tspan><tspan x="45.53" y="0">ec</tspan><tspan class="cls-12" x="61.46" y="0">t</tspan><tspan x="66.31" y="0">os</tspan></text><path class="cls-13" d="M342.11,537.07h1.3l.21-1,.16,0a4.18,4.18,0,0,0,1-.42l.14-.08.86.52.92-.94-.56-.85.08-.14a3.74,3.74,0,0,0,.4-1l0-.16,1-.24v-1.32l-1-.2-.05-.17a3.55,3.55,0,0,0-.41-1l-.08-.14.52-.86-.95-.92-.84.56-.15-.09a4,4,0,0,0-1-.4l-.16,0-.24-1-1.32,0-.21,1-.16,0a4,4,0,0,0-1,.42l-.14.08-.84-.54-.92.95.56.84-.09.15a3.52,3.52,0,0,0-.39,1l0,.16-1,.24v1.32l1,.2,0,.17a4.18,4.18,0,0,0,.42,1l.08.14-.52.85,1,.93.84-.56.15.08a3.55,3.55,0,0,0,1,.4l.16,0Zm2.59-4.93a2,2,0,1,1-2-2A2,2,0,0,1,344.7,532.14Z"/><path class="cls-13" d="M348.38,543.59h.92l.14-.69.12,0a2.57,2.57,0,0,0,.68-.29l.1-.06.6.37.65-.67-.39-.59.06-.1a2.63,2.63,0,0,0,.28-.7l0-.12.69-.16v-.93l-.69-.15,0-.11a2.89,2.89,0,0,0-.3-.69l-.05-.1.36-.6-.66-.65-.6.39-.1-.06a2.85,2.85,0,0,0-.7-.28l-.11,0-.17-.69h-.93l-.14.69-.12,0a2.77,2.77,0,0,0-.69.29l-.1.06-.59-.38L346,538l.39.6-.06.1a2.63,2.63,0,0,0-.28.7l0,.11-.69.17v.93l.69.14,0,.12a3.28,3.28,0,0,0,.3.69l0,.09-.36.61.66.65.6-.4.1.06a2.5,2.5,0,0,0,.7.28l.11,0Zm1.82-3.47a1.41,1.41,0,1,1-1.41-1.41A1.41,1.41,0,0,1,350.2,540.12Z"/><rect class="cls-14" x="340.58" y="530.22" width="2.36" height="11.25" transform="translate(479 -84.71) rotate(45)"/><polygon class="cls-15" points="334.8 544.24 336.94 538.99 340.29 542.33 334.8 544.24"/><rect class="cls-14" x="342.25" y="531.89" width="2.36" height="11.25" transform="translate(480.67 -85.41) rotate(45)"/><rect class="cls-16" x="348.08" y="527.48" width="2.7" height="4.73" transform="translate(971.18 657.41) rotate(135)"/><rect class="cls-17" x="346.18" y="529.38" width="2.7" height="4.73" transform="translate(969.27 662.01) rotate(135)"/><text class="cls-9" transform="translate(404.94 491.06)"><tspan xml:space="preserve"> 0 p</tspan><tspan class="cls-10" x="24.52" y="0">r</tspan><tspan class="cls-4" x="29.73" y="0">o</tspan><tspan class="cls-11" x="38.1" y="0">y</tspan><tspan x="45.53" y="0">ec</tspan><tspan class="cls-12" x="61.46" y="0">t</tspan><tspan x="66.31" y="0">os</tspan></text><path class="cls-13" d="M393.72,486.53H395l.2-1,.17,0a4.18,4.18,0,0,0,1-.42l.14-.08.85.52.92-.94-.55-.85.08-.15a3.55,3.55,0,0,0,.4-1l0-.16,1-.24v-1.32l-1-.2,0-.17a3.55,3.55,0,0,0-.41-1l-.09-.14.53-.86-1-.92-.85.56-.14-.09a4.2,4.2,0,0,0-1-.4l-.17,0-.23-1-1.32,0-.21,1-.16,0a3.86,3.86,0,0,0-1,.42l-.15.08-.84-.54-.91.95.56.84-.09.15a3.88,3.88,0,0,0-.4,1l0,.16-1,.24,0,1.32,1,.2,0,.17a4.18,4.18,0,0,0,.42,1l.08.14-.52.85.94.92.85-.55.15.08a3.55,3.55,0,0,0,1,.4l.16,0Zm2.59-4.93a2,2,0,1,1-2-2A2,2,0,0,1,396.31,481.6Z"/><path class="cls-13" d="M400,493.05h.91l.15-.69.11,0a2.49,2.49,0,0,0,.69-.29l.1-.06.6.37.65-.67-.39-.59.06-.1a3,3,0,0,0,.28-.7l0-.12.69-.16v-.93l-.69-.15,0-.11a2.49,2.49,0,0,0-.29-.69l-.06-.1.37-.6-.66-.65-.6.39-.1-.06a3,3,0,0,0-.7-.28l-.11,0-.17-.69h-.93l-.14.69-.12,0a2.62,2.62,0,0,0-.69.29l-.1.06-.59-.38-.65.66.4.6-.06.1a2.5,2.5,0,0,0-.28.7l0,.11-.69.17v.93l.69.14,0,.12a2.77,2.77,0,0,0,.29.69l.06.09-.37.61.67.64.59-.39.11.06a2.57,2.57,0,0,0,.69.28l.12,0Zm1.82-3.47a1.41,1.41,0,1,1-1.41-1.41A1.41,1.41,0,0,1,401.81,489.58Z"/><rect class="cls-14" x="392.18" y="479.68" width="2.36" height="11.25" transform="translate(458.38 -136.01) rotate(45)"/><polygon class="cls-15" points="386.41 493.7 388.55 488.44 391.9 491.79 386.41 493.7"/><rect class="cls-14" x="393.86" y="481.35" width="2.36" height="11.25" transform="translate(460.05 -136.7) rotate(45)"/><rect class="cls-16" x="399.69" y="476.94" width="2.7" height="4.73" transform="translate(1023.54 534.64) rotate(135)"/><rect class="cls-17" x="397.78" y="478.84" width="2.7" height="4.73" transform="translate(1021.63 539.24) rotate(135)"/><text class="cls-9" transform="translate(335.37 300.79)"><tspan xml:space="preserve"> 10 p</tspan><tspan class="cls-10" x="33.13" y="0">r</tspan><tspan class="cls-4" x="38.33" y="0">o</tspan><tspan class="cls-11" x="46.71" y="0">y</tspan><tspan x="54.14" y="0">ec</tspan><tspan class="cls-12" x="70.07" y="0">t</tspan><tspan x="74.92" y="0">os</tspan></text><path class="cls-13" d="M324.15,296.26h1.3l.2-1,.17,0a3.74,3.74,0,0,0,1-.41l.14-.08.85.52.93-.95-.56-.85.08-.14a3.68,3.68,0,0,0,.4-1l0-.17,1-.23v-1.32l-1-.21,0-.16a3.48,3.48,0,0,0-.41-1l-.09-.14.53-.86-.95-.92-.85.56-.14-.09a3.78,3.78,0,0,0-1-.39l-.17,0-.23-1H324l-.21,1-.16,0a3.86,3.86,0,0,0-1,.42l-.15.08-.84-.53-.91.94.56.84-.09.15a4,4,0,0,0-.4,1l0,.16-1,.24,0,1.32,1,.21,0,.16a4,4,0,0,0,.42,1l.08.14-.52.86.94.92.85-.56.15.08a3.27,3.27,0,0,0,1,.4l.16,0Zm2.59-4.92a2,2,0,1,1-2-2A2,2,0,0,1,326.74,291.34Z"/><path class="cls-13" d="M330.42,302.78h.91l.15-.69.11,0a2.49,2.49,0,0,0,.69-.29l.1,0,.6.36.65-.66-.39-.6.06-.1a3,3,0,0,0,.28-.7l0-.11.69-.17v-.93l-.69-.14,0-.12a2.77,2.77,0,0,0-.29-.69l0-.1.36-.6-.66-.65-.6.4-.1-.06a2.63,2.63,0,0,0-.7-.28l-.11,0-.17-.69h-.93l-.14.69-.12,0a2.77,2.77,0,0,0-.69.29l-.1.06-.59-.38-.64.67.39.59-.06.1a2.63,2.63,0,0,0-.28.7l0,.12-.69.16v.93l.69.14,0,.12a2.62,2.62,0,0,0,.29.69l.06.1-.37.6.67.65.59-.39.11.06a2.48,2.48,0,0,0,.7.27l.11,0Zm1.82-3.46a1.41,1.41,0,1,1-1.41-1.41A1.41,1.41,0,0,1,332.24,299.32Z"/><rect class="cls-14" x="322.61" y="289.41" width="2.36" height="11.25" transform="translate(303.46 -142.54) rotate(45)"/><polygon class="cls-15" points="316.84 303.43 318.98 298.18 322.33 301.52 316.84 303.43"/><rect class="cls-14" x="324.29" y="291.08" width="2.36" height="11.25" transform="translate(305.13 -143.24) rotate(45)"/><rect class="cls-16" x="330.12" y="286.67" width="2.7" height="4.73" transform="translate(770.24 259.02) rotate(135)"/><rect class="cls-17" x="328.21" y="288.58" width="2.7" height="4.73" transform="translate(768.33 263.63) rotate(135)"/><text class="cls-9" transform="translate(335.37 225.22)"><tspan xml:space="preserve"> 10 p</tspan><tspan class="cls-10" x="33.13" y="0">r</tspan><tspan class="cls-4" x="38.33" y="0">o</tspan><tspan class="cls-11" x="46.71" y="0">y</tspan><tspan x="54.14" y="0">ec</tspan><tspan class="cls-12" x="70.07" y="0">t</tspan><tspan x="74.92" y="0">os</tspan></text><path class="cls-13" d="M324.15,220.69h1.3l.2-1,.17,0a3.74,3.74,0,0,0,1-.41l.14-.09.85.53.93-.95-.56-.85.08-.14a3.81,3.81,0,0,0,.4-1l0-.17,1-.23v-1.32l-1-.21,0-.16a3.48,3.48,0,0,0-.41-1l-.09-.14.53-.86-.95-.92-.85.56-.14-.09a3.78,3.78,0,0,0-1-.39l-.17,0-.23-1H324l-.21,1-.16,0a3.86,3.86,0,0,0-1,.42l-.15.08-.84-.54-.91.95.56.84-.09.15a4,4,0,0,0-.4,1l0,.16-1,.24,0,1.32,1,.21,0,.16a4.18,4.18,0,0,0,.42,1l.08.14-.52.86.94.92.85-.56.15.08a3.55,3.55,0,0,0,1,.4l.16,0Zm2.59-4.93a2,2,0,1,1-2-2A2,2,0,0,1,326.74,215.76Z"/><path class="cls-13" d="M330.42,227.21h.91l.15-.69.11,0a2.49,2.49,0,0,0,.69-.29l.1-.06.6.37.65-.66-.39-.6.06-.1a3,3,0,0,0,.28-.7l0-.11.69-.17v-.93l-.69-.14,0-.12a2.62,2.62,0,0,0-.29-.69l0-.1.36-.6-.66-.65-.6.4-.1-.06a2.33,2.33,0,0,0-.7-.28l-.11,0-.17-.69h-.93l-.14.69-.12,0a2.77,2.77,0,0,0-.69.29l-.1.06-.59-.38-.64.66.39.6-.06.1a2.63,2.63,0,0,0-.28.7l0,.11-.69.17v.93l.69.14,0,.12a2.77,2.77,0,0,0,.29.69l.06.1-.37.6.67.65.59-.4.11.06a2.23,2.23,0,0,0,.7.28l.11,0Zm1.82-3.46a1.41,1.41,0,1,1-1.41-1.42A1.41,1.41,0,0,1,332.24,223.75Z"/><rect class="cls-14" x="322.61" y="213.84" width="2.36" height="11.25" transform="translate(250.02 -164.68) rotate(45)"/><polygon class="cls-15" points="316.84 227.86 318.98 222.61 322.33 225.95 316.84 227.86"/><rect class="cls-14" x="324.29" y="215.51" width="2.36" height="11.25" transform="translate(251.7 -165.37) rotate(45)"/><rect class="cls-16" x="330.12" y="211.1" width="2.7" height="4.73" transform="translate(716.8 130.02) rotate(135)"/><rect class="cls-17" x="328.21" y="213.01" width="2.7" height="4.73" transform="translate(714.89 134.62) rotate(135)"/><text class="cls-9" transform="translate(211.15 209.47)"><tspan xml:space="preserve"> 8 p</tspan><tspan class="cls-10" x="24.52" y="0">r</tspan><tspan class="cls-4" x="29.73" y="0">o</tspan><tspan class="cls-11" x="38.1" y="0">y</tspan><tspan x="45.53" y="0">ec</tspan><tspan class="cls-12" x="61.46" y="0">t</tspan><tspan x="66.31" y="0">os</tspan></text><path class="cls-13" d="M199.93,204.94h1.3l.21-1,.16-.05a3.61,3.61,0,0,0,1-.41l.14-.08.86.52.92-.95-.56-.84L204,202a3.65,3.65,0,0,0,.39-1l0-.16,1-.24v-1.32l-1-.2,0-.17a3.74,3.74,0,0,0-.41-1l-.08-.14.52-.86-1-.92-.84.56-.15-.08a3.68,3.68,0,0,0-1-.4l-.16,0-.24-1h-1.32l-.2,1-.17,0a3.74,3.74,0,0,0-1,.41l-.14.09-.84-.54-.92.94.56.85L197,198a3.71,3.71,0,0,0-.39,1l0,.16-1,.23v1.33l1,.2,0,.17a4,4,0,0,0,.42,1l.08.14-.52.86,1,.92.84-.56.15.09a3.65,3.65,0,0,0,1,.39l.16,0Zm2.59-4.93a2,2,0,1,1-2-2A2,2,0,0,1,202.52,200Z"/><path class="cls-13" d="M206.2,211.46h.92l.14-.69.12,0a3,3,0,0,0,.68-.29l.1-.06.61.37.64-.67-.39-.6.06-.1a2.5,2.5,0,0,0,.28-.7l0-.11.69-.17v-.93l-.69-.14,0-.12a3,3,0,0,0-.29-.68l-.06-.1.37-.61-.67-.64-.6.39-.1-.06a2.5,2.5,0,0,0-.7-.28l-.11,0-.17-.69h-.93l-.14.69-.12,0a3,3,0,0,0-.68.29l-.11.06-.59-.38-.64.67.39.59-.06.11a2.57,2.57,0,0,0-.28.69l0,.12-.7.17v.92l.7.15,0,.11a2.89,2.89,0,0,0,.3.69l.05.1-.36.6.66.65.6-.39.1.06a2.63,2.63,0,0,0,.7.28l.11,0ZM208,208a1.41,1.41,0,1,1-1.41-1.41A1.41,1.41,0,0,1,208,208Z"/><rect class="cls-14" x="198.4" y="198.09" width="2.36" height="11.25" transform="translate(202.5 -81.46) rotate(45)"/><polygon class="cls-15" points="192.62 212.1 194.77 206.85 198.11 210.19 192.62 212.1"/><rect class="cls-14" x="200.07" y="199.76" width="2.36" height="11.25" transform="translate(204.17 -82.15) rotate(45)"/><rect class="cls-16" x="205.91" y="195.34" width="2.7" height="4.73" transform="translate(493.61 190.95) rotate(135)"/><rect class="cls-17" x="204" y="197.25" width="2.7" height="4.73" transform="translate(491.7 195.56) rotate(135)"/><text class="cls-9" transform="translate(212.2 289.12)">x4</text><circle class="cls-18" cx="201.35" cy="285.09" r="6.43"/><text class="cls-9" transform="translate(212.2 305.62)">x4</text><circle class="cls-19" cx="201.35" cy="301.59" r="6.43"/><text class="cls-9" transform="translate(279.1 321.56)">x2</text><circle class="cls-18" cx="268.25" cy="317.53" r="6.43"/><text class="cls-9" transform="translate(279.1 338.05)">x8</text><circle class="cls-19" cx="268.25" cy="334.02" r="6.43"/><text class="cls-9" transform="translate(258.4 496.98)">x5</text><circle class="cls-18" cx="247.55" cy="492.95" r="6.43"/><text class="cls-9" transform="translate(258.4 513.47)">x2</text><circle class="cls-19" cx="247.55" cy="509.45" r="6.43"/><text class="cls-9" transform="translate(214.21 404.6)">x2</text><circle class="cls-18" cx="203.37" cy="400.57" r="6.43"/><text class="cls-9" transform="translate(214.21 421.09)">x2</text><circle class="cls-19" cx="203.37" cy="417.06" r="6.43"/><text class="cls-9" transform="translate(308.63 476.18)">x2</text><circle class="cls-18" cx="297.78" cy="472.15" r="6.43"/><text class="cls-9" transform="translate(308.63 492.67)">x2</text><circle class="cls-19" cx="297.78" cy="488.64" r="6.43"/><text class="cls-9" transform="translate(214.21 437.36)">x2</text><circle class="cls-18" cx="203.37" cy="433.33" r="6.43"/><text class="cls-9" transform="translate(214.21 453.85)">x1</text><circle class="cls-19" cx="203.37" cy="449.83" r="6.43"/><text class="cls-9" transform="translate(214.21 369.23)">x4</text><circle class="cls-18" cx="203.37" cy="365.21" r="6.43"/><text class="cls-9" transform="translate(214.21 385.73)">x3</text><circle class="cls-19" cx="203.37" cy="381.7" r="6.43"/><text class="cls-9" transform="translate(261.21 419.27)">x4</text><circle class="cls-18" cx="250.36" cy="415.25" r="6.43"/><text class="cls-9" transform="translate(261.21 435.77)">x6</text><circle class="cls-19" cx="250.36" cy="431.74" r="6.43"/><text class="cls-9" transform="translate(189.94 496.98)">x2</text><circle class="cls-18" cx="179.09" cy="492.95" r="6.43"/><text class="cls-9" transform="translate(189.94 513.47)">x1</text><circle class="cls-19" cx="179.09" cy="509.45" r="6.43"/><line class="cls-20" x1="192.19" y1="437.36" x2="190.68" y2="438.68"/><line class="cls-21" x1="187.9" y1="441.12" x2="161.43" y2="464.3"/><line class="cls-20" x1="160.04" y1="465.52" x2="158.53" y2="466.84"/><circle class="cls-22" cx="158.53" cy="466.84" r="1.57"/><circle class="cls-22" cx="193.14" cy="437.03" r="1.57"/><line class="cls-20" x1="312.53" y1="220.77" x2="311.69" y2="222.58"/><line class="cls-23" x1="310.09" y1="226.05" x2="275.68" y2="300.68"/><line class="cls-20" x1="274.88" y1="302.42" x2="274.04" y2="304.23"/><circle class="cls-22" cx="274.04" cy="304.23" r="1.57"/><circle class="cls-22" cx="312.53" cy="220.77" r="1.57"/><line class="cls-20" x1="187.91" y1="202.86" x2="187.93" y2="204.86"/><line class="cls-23" x1="187.97" y1="208.68" x2="188.86" y2="290.85"/><line class="cls-20" x1="188.88" y1="292.76" x2="188.9" y2="294.76"/><circle class="cls-22" cx="188.9" cy="294.76" r="1.57"/><circle class="cls-22" cx="187.91" cy="202.86" r="1.57"/><line class="cls-20" x1="234.73" y1="499.33" x2="234.73" y2="501.33"/><line class="cls-24" x1="234.72" y1="505.39" x2="234.66" y2="535.83"/><line class="cls-20" x1="234.66" y1="537.86" x2="234.66" y2="539.86"/><circle class="cls-22" cx="234.66" cy="539.86" r="1.57"/><circle class="cls-22" cx="234.56" cy="499.03" r="1.57"/><line class="cls-20" x1="331.6" y1="474.96" x2="331.59" y2="476.96"/><line class="cls-24" x1="331.59" y1="481.02" x2="331.53" y2="511.46"/><line class="cls-20" x1="331.53" y1="513.49" x2="331.52" y2="515.49"/><circle class="cls-22" cx="331.52" cy="515.49" r="1.57"/><circle class="cls-22" cx="331.42" cy="474.65" r="1.57"/><line class="cls-20" x1="314.11" y1="294.95" x2="313.58" y2="296.88"/><line class="cls-25" x1="312.52" y1="300.83" x2="283.2" y2="409.41"/><line class="cls-20" x1="282.66" y1="411.38" x2="282.14" y2="413.31"/><circle class="cls-22" cx="282.14" cy="413.31" r="1.57"/><circle class="cls-22" cx="314.11" cy="294.95" r="1.57"/><line class="cls-20" x1="189.94" y1="418.14" x2="188.01" y2="418.67"/><line class="cls-26" x1="184.33" y1="419.66" x2="149.36" y2="429.14"/><line class="cls-20" x1="147.52" y1="429.64" x2="145.59" y2="430.16"/><circle class="cls-22" cx="145.59" cy="430.16" r="1.57"/><circle class="cls-22" cx="190.77" cy="417.7" r="1.57"/><line class="cls-20" x1="191.54" y1="366.66" x2="189.7" y2="367.44"/><line class="cls-27" x1="185.8" y1="369.08" x2="156.56" y2="381.4"/><line class="cls-20" x1="154.61" y1="382.22" x2="152.77" y2="383"/><circle class="cls-22" cx="152.77" cy="383" r="1.57"/><circle class="cls-22" cx="192.16" cy="366.1" r="1.57"/><line class="cls-20" x1="149.05" y1="320.92" x2="147.05" y2="320.92"/><line class="cls-28" x1="143.4" y1="320.92" x2="123.28" y2="320.92"/><line class="cls-20" x1="121.45" y1="320.92" x2="119.45" y2="320.92"/><circle class="cls-22" cx="119.45" cy="320.92" r="1.57"/><circle class="cls-22" cx="149.35" cy="320.92" r="1.57"/><text class="cls-9" transform="translate(170.32 325.78)">x1</text><circle class="cls-19" cx="159.47" cy="321.75" r="6.43"/></svg>