<svg id="Capa_1" data-name="Capa 1" xmlns="http://www.w3.org/2000/svg" viewBox="0 0 554 932"><defs><style>.cls-1{fill:#71c2e9;stroke:#377c9c;stroke-width:3px;}.cls-1,.cls-5,.cls-6{stroke-miterlimit:1.75;}.cls-13,.cls-18,.cls-2,.cls-3{fill:none;}.cls-18,.cls-2,.cls-3{stroke:#0b0c0c;}.cls-13,.cls-14,.cls-15,.cls-16,.cls-17,.cls-18,.cls-2,.cls-3{stroke-linejoin:round;}.cls-3{stroke-dasharray:3.86 3.86;}.cls-4,.cls-7,.cls-8{fill:#1d1d1b;}.cls-5{fill:#afd28c;stroke:#71915a;isolation:isolate;}.cls-6{fill:#ec6062;stroke:#cc444b;}.cls-7{font-size:12px;font-family:Roboto-Light, Roboto;font-weight:300;}.cls-8{font-size:15px;font-family:Roboto-Bold, Roboto;font-weight:700;}.cls-9{letter-spacing:-0.02em;}.cls-10{letter-spacing:-0.01em;}.cls-11{letter-spacing:-0.01em;}.cls-12{letter-spacing:-0.01em;}.cls-13,.cls-14,.cls-15,.cls-16,.cls-17{stroke:#262626;stroke-linecap:round;stroke-width:0.5px;}.cls-14{fill:#fab637;}.cls-15{fill:#ffe7a1;}.cls-16{fill:#4ca8de;}.cls-17{fill:#cfcece;}.cls-18{stroke-dasharray:4.43 4.43;}.cls-19{letter-spacing:-0.01em;}.cls-20{letter-spacing:-0.01em;}</style></defs><path class="cls-1" d="M265.14,309.48l7.54,12.29-8.1,7.22,3.2,9,23.59,5.42,21.43,21.31,19.54-3-5.64,7.72L337,371.35l-6,6.75L333.47,442l-27.53,35.55-1.7,13.82-11.37,1,5.56,30.1L290,544.25l-11,7.07L192.63,495.9l-11.35-38.57-13.17-9.09,11.41-22.63-18.7-17.7,17.63-32.2L163.28,343.9l6.61-15.6,48.88,3.34Z"/><path class="cls-1" d="M255.07,149.47,251.54,168l-11.86-2.86-6.57,13.65,6.1,21.39-3.59,15.15-16,9-5.14,11.55,24.61,10.4-25.41,28.35-.19,8.47-24.62,2.43-16.24-14.53-36.25,7,1.22-30-12.09-25.5,8.57-4.47,9.74-22.41,29.3-21.84,14.11-19.09,28.8,14,7.66-8.64,15-.07Z"/><path class="cls-1" d="M402.66,473.08l6.23,12.48L423.38,487,411,498.62l4.76,13.15,4.62,3.22,17.79-8.68-10,16.52,10.28,5.6L430.25,532l15.05,3.88,3.79,9.39-4.69,6.14,8,9.78-4.64,15.51-53.22,28.4L386.57,627l-21.74,29.47-24.47-15.32,8.76-6.84-23-17.18,8.38,1.06-1.92-11-17.31-10.82-11,.57-8.78-22.43-16.45-23.23,11-7.07L295.27,521l-2.4-28.73,11.17-.78,1.67-11.35,6.41,6.87,19-5,2.62,11,8.34-1.6L351,500l12.7-22.48,5.49,11.91,19.29-4.25Z"/><path class="cls-1" d="M360.37,374.6l7.95,11.8-6.39,21.67,11.55,7.34L360.86,425l-9.38,21.18,17.75,3.12-9.23,11,6.34,8.9-2.62,15.1L351,500l-8.87-8.59-8.34,1.6-2.44-10.9-19.22,5-6.32-9.2L333.47,442,331,378.1l6-6.75,9.17,4.52,11.62-8.11Z"/><path class="cls-1" d="M278.29,236.47,284,254.93l-10.2,24.94L281,290.35,271,308.78l-52.27,22.86-42.89-2.93-8.69,3.88-3.52,13,14.78,30.13-17.63,32.2,18.7,17.7-11.41,22.63L147.7,432.43l6.38-7.12-7.83-17.69-16.81-15.79-9.22-1.71L120,402l-4.35-7.57.25-15.2,6.45-6.8-2.54-21.27-5.18-12-6.07,6.47-14-3.3,5.21-21L115,318.71l-3.11,11,12.28,1.7L136.43,278l37.82-6.86,14.67,14.42,24.38-2.22.43-8.68,27.35-30.08,16.69-8.48,12.29,3.06,7.11-10.64Z"/><line class="cls-2" x1="318.41" y1="338.14" x2="317" y2="339.56"/><line class="cls-3" x1="314.28" y1="342.29" x2="283.05" y2="373.77"/><line class="cls-2" x1="281.69" y1="375.14" x2="280.28" y2="376.56"/><circle class="cls-4" cx="279.83" cy="377.04" r="1.57"/><circle class="cls-4" cx="318.7" cy="337.82" r="1.57"/><line class="cls-2" x1="278.5" y1="178.32" x2="276.5" y2="178.31"/><line class="cls-3" x1="272.64" y1="178.3" x2="228.3" y2="178.2"/><line class="cls-2" x1="226.37" y1="178.2" x2="224.37" y2="178.19"/><circle class="cls-4" cx="223.72" cy="178.21" r="1.57"/><circle class="cls-4" cx="278.93" cy="178.3" r="1.57"/><line class="cls-2" x1="265.31" y1="578.7" x2="267.31" y2="578.7"/><line class="cls-3" x1="271.17" y1="578.71" x2="315.51" y2="578.81"/><line class="cls-2" x1="317.44" y1="578.81" x2="319.44" y2="578.82"/><circle class="cls-4" cx="320.09" cy="578.8" r="1.57"/><circle class="cls-4" cx="264.88" cy="578.71" r="1.57"/><circle class="cls-5" cx="271.95" cy="384.7" r="6.43"/><circle class="cls-6" cx="333.21" cy="578.8" r="6.43"/><circle class="cls-5" cx="250.62" cy="272.04" r="6.43"/><circle class="cls-6" cx="250.62" cy="288.3" r="6.43"/><text class="cls-7" transform="translate(323.2 320.31)">Ica</text><text class="cls-8" transform="translate(341.73 340.84)"><tspan xml:space="preserve"> 1 p</tspan><tspan class="cls-9" x="24.52" y="0">r</tspan><tspan class="cls-10" x="29.73" y="0">o</tspan><tspan class="cls-11" x="38.1" y="0">y</tspan><tspan x="45.53" y="0">ec</tspan><tspan class="cls-12" x="61.46" y="0">t</tspan><tspan x="66.31" y="0">o</tspan></text><path class="cls-13" d="M330.51,336.31h1.3l.21-1,.16,0a4,4,0,0,0,1-.42l.14-.08.86.52.92-.95-.56-.84.08-.15a3.27,3.27,0,0,0,.4-1l0-.16,1-.24v-1.32l-1-.2,0-.17a3.74,3.74,0,0,0-.41-1l-.08-.14.52-.86-.95-.92-.84.56-.15-.08a3.68,3.68,0,0,0-1-.4l-.16,0-.24-1h-1.32l-.21,1-.16,0a3.74,3.74,0,0,0-1,.41l-.14.09-.84-.54-.92.94.56.85-.09.14a3.71,3.71,0,0,0-.39,1l0,.16-1,.24v1.32l1,.2,0,.17a4,4,0,0,0,.42,1l.08.14-.52.86.95.92.84-.56.15.09a3.52,3.52,0,0,0,1,.39l.16,0Zm2.59-4.93a2,2,0,1,1-2-2A2,2,0,0,1,333.1,331.38Z"/><path class="cls-13" d="M336.78,342.83h.92l.14-.69.12,0a3,3,0,0,0,.68-.29l.1-.06.61.37.64-.67-.39-.6.06-.1a2.5,2.5,0,0,0,.28-.7l0-.11.69-.17v-.93l-.69-.14,0-.12a2.62,2.62,0,0,0-.3-.68l-.05-.1.36-.61-.66-.64-.6.39-.1-.06a2.5,2.5,0,0,0-.7-.28l-.11,0-.17-.69h-.93l-.14.69-.12,0a3,3,0,0,0-.68.29l-.11.06-.59-.37-.64.66.39.59-.06.11a2.57,2.57,0,0,0-.28.69l0,.12-.69.17v.92l.69.15,0,.11a2.89,2.89,0,0,0,.3.69l.05.1-.36.6.66.65.6-.39.1.06a2.5,2.5,0,0,0,.7.28l.11,0Zm1.82-3.47a1.41,1.41,0,1,1-1.41-1.41A1.41,1.41,0,0,1,338.6,339.36Z"/><rect class="cls-14" x="328.98" y="329.46" width="2.36" height="11.25" transform="translate(333.64 -135.32) rotate(45)"/><polygon class="cls-15" points="323.2 343.48 325.35 338.22 328.69 341.56 323.2 343.48"/><rect class="cls-14" x="330.65" y="331.13" width="2.36" height="11.25" transform="translate(335.31 -136.01) rotate(45)"/><rect class="cls-16" x="336.49" y="326.71" width="2.7" height="4.73" transform="translate(809.41 322.88) rotate(135)"/><rect class="cls-17" x="334.58" y="328.62" width="2.7" height="4.73" transform="translate(807.5 327.49) rotate(135)"/><line class="cls-2" x1="374.76" y1="398.81" x2="373.38" y2="400.26"/><line class="cls-18" x1="370.34" y1="403.46" x2="353.56" y2="421.1"/><line class="cls-2" x1="352.04" y1="422.7" x2="350.66" y2="424.15"/><circle class="cls-4" cx="350.21" cy="424.63" r="1.57"/><circle class="cls-4" cx="375.06" cy="398.49" r="1.57"/><text class="cls-7" transform="translate(379.56 380.98)"><tspan class="cls-19">P</tspan><tspan x="7.32" y="0">alpa</tspan></text><text class="cls-8" transform="translate(398.09 401.5)"><tspan xml:space="preserve"> 0 p</tspan><tspan class="cls-9" x="24.52" y="0">r</tspan><tspan class="cls-10" x="29.73" y="0">o</tspan><tspan class="cls-11" x="38.1" y="0">y</tspan><tspan x="45.53" y="0">ec</tspan><tspan class="cls-12" x="61.46" y="0">t</tspan><tspan x="66.31" y="0">os</tspan></text><path class="cls-13" d="M386.87,397h1.3l.2-1,.17,0a3.74,3.74,0,0,0,1-.41l.14-.08.85.52.92-1-.55-.84L391,394a3.68,3.68,0,0,0,.4-1l0-.17,1-.23,0-1.32-1-.21,0-.16a4.37,4.37,0,0,0-.41-1l-.09-.14.53-.86-.95-.92-.85.56-.14-.08a3.43,3.43,0,0,0-1-.4l-.16,0-.23-1h-1.33l-.2,1-.17.05a3.55,3.55,0,0,0-1,.41l-.15.08-.84-.53-.91.94.56.85-.09.14a4,4,0,0,0-.4,1l0,.17-1,.23,0,1.32,1,.21,0,.16a3.86,3.86,0,0,0,.42,1l.08.14-.52.86.94.92.85-.56.14.09a3.71,3.71,0,0,0,1,.39l.16,0Zm2.59-4.92a2,2,0,1,1-2-2A2,2,0,0,1,389.46,392.05Z"/><path class="cls-13" d="M393.14,403.49h.91l.15-.68.11,0a2.89,2.89,0,0,0,.69-.3l.1-.05.6.36.65-.66-.39-.6.06-.1a3,3,0,0,0,.28-.7l0-.11.69-.17v-.93l-.69-.14,0-.12a2.77,2.77,0,0,0-.29-.69l-.06-.09.37-.61-.67-.65-.59.4-.1-.06a2.63,2.63,0,0,0-.7-.28l-.12,0-.16-.69H393l-.14.69-.12,0a2.62,2.62,0,0,0-.69.29l-.1.06-.59-.38-.65.67.4.59-.06.1a2.63,2.63,0,0,0-.28.7l0,.12-.69.16v.93l.69.15,0,.11a2.49,2.49,0,0,0,.29.69l.06.1-.37.6.67.65.59-.39.11.06a2.94,2.94,0,0,0,.69.28l.12,0ZM395,400a1.41,1.41,0,1,1-1.41-1.41A1.41,1.41,0,0,1,395,400Z"/><rect class="cls-14" x="385.33" y="390.12" width="2.36" height="11.25" transform="translate(393.04 -157.4) rotate(45)"/><polygon class="cls-15" points="379.56 404.14 381.7 398.89 385.05 402.23 379.56 404.14"/><rect class="cls-14" x="387.01" y="391.8" width="2.36" height="11.25" transform="translate(394.72 -158.09) rotate(45)"/><rect class="cls-16" x="392.84" y="387.38" width="2.7" height="4.73" transform="translate(948.52 386.6) rotate(135)"/><rect class="cls-17" x="390.93" y="389.29" width="2.7" height="4.73" transform="translate(946.61 391.21) rotate(135)"/><text class="cls-7" transform="translate(157.35 562.31)">Na<tspan class="cls-20" x="14.95" y="0">z</tspan><tspan x="20.69" y="0">ca</tspan></text><text class="cls-8" transform="translate(175.88 582.84)"><tspan xml:space="preserve"> 1 p</tspan><tspan class="cls-9" x="24.52" y="0">r</tspan><tspan class="cls-10" x="29.73" y="0">o</tspan><tspan class="cls-11" x="38.1" y="0">y</tspan><tspan x="45.53" y="0">ec</tspan><tspan class="cls-12" x="61.46" y="0">t</tspan><tspan x="66.31" y="0">o</tspan></text><path class="cls-13" d="M164.66,578.31H166l.21-1,.16,0a4,4,0,0,0,1-.42l.14-.08.86.52.92-.94-.56-.85.08-.15a3.27,3.27,0,0,0,.4-1l0-.16,1-.24v-1.32l-1-.2-.05-.17a3.55,3.55,0,0,0-.41-1l-.08-.14.52-.86-.95-.92-.84.55-.15-.08a4,4,0,0,0-1-.4l-.16,0-.24-1-1.32,0-.2,1-.17,0a4.18,4.18,0,0,0-1,.42L163,570l-.84-.54-.92.94.56.85-.09.15a3.52,3.52,0,0,0-.39,1l0,.16-1,.24v1.32l1,.2,0,.17a4.18,4.18,0,0,0,.42,1l.08.13-.52.86.95.92.84-.55.15.08a4,4,0,0,0,1,.4l.16,0Zm2.59-4.93a2,2,0,1,1-2-2A2,2,0,0,1,167.25,573.38Z"/><path class="cls-13" d="M170.93,584.83h.92l.14-.69.12,0a2.57,2.57,0,0,0,.68-.29l.1-.06.61.37.64-.67-.39-.59.06-.11a2.57,2.57,0,0,0,.28-.69l0-.12.69-.16v-.93l-.69-.15,0-.11a2.83,2.83,0,0,0-.29-.69l-.06-.1.37-.6-.67-.65-.6.39-.1-.06a2.5,2.5,0,0,0-.7-.28l-.11,0-.17-.69h-.93l-.14.7-.12,0a2.57,2.57,0,0,0-.68.29l-.11.06-.59-.38-.64.66.39.6-.06.1a2.5,2.5,0,0,0-.28.7l0,.11-.7.17v.93l.7.14,0,.12a3,3,0,0,0,.3.68l0,.1-.36.61.66.64.6-.39.1.06a2.63,2.63,0,0,0,.7.28l.11,0Zm1.82-3.47a1.41,1.41,0,1,1-1.41-1.41A1.41,1.41,0,0,1,172.75,581.36Z"/><rect class="cls-14" x="163.13" y="571.46" width="2.36" height="11.25" transform="translate(456.18 52.84) rotate(45)"/><polygon class="cls-15" points="157.35 585.48 159.5 580.22 162.84 583.57 157.35 585.48"/><rect class="cls-14" x="164.8" y="573.13" width="2.36" height="11.25" transform="translate(457.86 52.15) rotate(45)"/><rect class="cls-16" x="170.64" y="568.71" width="2.7" height="4.73" transform="translate(697.41 853.28) rotate(135)"/><rect class="cls-17" x="168.73" y="570.62" width="2.7" height="4.73" transform="translate(695.5 857.89) rotate(135)"/><text class="cls-7" transform="translate(288.99 163.95)">Chincha</text><text class="cls-8" transform="translate(307.52 184.48)"><tspan xml:space="preserve"> 0 p</tspan><tspan class="cls-9" x="24.52" y="0">r</tspan><tspan class="cls-10" x="29.73" y="0">o</tspan><tspan class="cls-11" x="38.1" y="0">y</tspan><tspan x="45.53" y="0">ec</tspan><tspan class="cls-12" x="61.46" y="0">t</tspan><tspan x="66.31" y="0">os</tspan></text><path class="cls-13" d="M296.3,180h1.31l.2-1,.16,0a3.86,3.86,0,0,0,1-.42l.14-.08.86.52.92-.94-.56-.85.09-.14a3.71,3.71,0,0,0,.39-1l0-.16,1-.24V174.3l-1-.2,0-.17a4,4,0,0,0-.42-1l-.08-.14.52-.86-.95-.92-.84.56-.15-.09a3.52,3.52,0,0,0-1-.39l-.16,0-.24-1-1.32,0-.2,1-.17,0a4.18,4.18,0,0,0-1,.42l-.14.08-.84-.54-.92.95.56.84-.08.15a3.55,3.55,0,0,0-.4,1l0,.16-1,.24v1.32l1,.2,0,.17a3.74,3.74,0,0,0,.41,1l.08.14-.52.85.95.93.84-.56.15.08a3.68,3.68,0,0,0,1,.4l.17,0Zm2.59-4.93a2,2,0,1,1-2-2A2,2,0,0,1,298.89,175Z"/><path class="cls-13" d="M302.57,186.47h.92l.14-.69.12,0a2.77,2.77,0,0,0,.69-.29l.09-.06.61.37.65-.67-.4-.59.06-.1a2.63,2.63,0,0,0,.28-.7l0-.12.69-.16v-.93l-.69-.14,0-.12a2.49,2.49,0,0,0-.29-.69l-.06-.1.37-.6-.67-.65-.59.39-.11-.06a2.94,2.94,0,0,0-.69-.28l-.12,0-.17-.69h-.92l-.15.69-.12,0a2.57,2.57,0,0,0-.68.29l-.1.06-.59-.38-.65.66.39.6-.06.1a3,3,0,0,0-.28.7l0,.11-.69.17v.93l.69.14,0,.12a2.77,2.77,0,0,0,.29.69l.06.09-.37.61.67.65.59-.4.1.06a2.63,2.63,0,0,0,.7.28l.12,0Zm1.82-3.47a1.41,1.41,0,1,1-1.41-1.41A1.41,1.41,0,0,1,304.39,183Z"/><rect class="cls-14" x="294.77" y="173.1" width="2.36" height="11.25" transform="translate(213.06 -156.92) rotate(45)"/><polygon class="cls-15" points="289 187.12 291.14 181.87 294.48 185.21 289 187.12"/><rect class="cls-14" x="296.44" y="174.77" width="2.36" height="11.25" transform="translate(214.73 -157.61) rotate(45)"/><rect class="cls-16" x="302.28" y="170.36" width="2.7" height="4.73" transform="translate(640.46 80.16) rotate(135)"/><rect class="cls-17" x="300.37" y="172.26" width="2.7" height="4.73" transform="translate(638.55 84.76) rotate(135)"/><line class="cls-2" x1="305.4" y1="262.06" x2="303.4" y2="262.06"/><line class="cls-3" x1="299.55" y1="262.05" x2="255.21" y2="261.95"/><line class="cls-2" x1="253.28" y1="261.94" x2="251.28" y2="261.94"/><circle class="cls-4" cx="250.62" cy="261.96" r="1.57"/><circle class="cls-4" cx="305.84" cy="262.05" r="1.57"/><text class="cls-7" transform="translate(315.9 247.7)">Pisco</text><text class="cls-8" transform="translate(334.43 268.23)"><tspan xml:space="preserve"> 2 p</tspan><tspan class="cls-9" x="24.52" y="0">r</tspan><tspan class="cls-10" x="29.73" y="0">o</tspan><tspan class="cls-11" x="38.1" y="0">y</tspan><tspan x="45.53" y="0">ec</tspan><tspan class="cls-12" x="61.46" y="0">t</tspan><tspan x="66.31" y="0">os</tspan></text><path class="cls-13" d="M323.21,263.7h1.3l.2-1,.17-.05a3.74,3.74,0,0,0,1-.41l.14-.08.86.52.92-.95-.56-.84.08-.15a3.68,3.68,0,0,0,.4-1l0-.16,1-.24v-1.32l-1-.21,0-.16a3.74,3.74,0,0,0-.41-1l-.08-.14.52-.86-.95-.92-.85.56-.14-.08a3.68,3.68,0,0,0-1-.4l-.17,0-.23-1h-1.32l-.21,1-.16,0a3.48,3.48,0,0,0-1,.41l-.14.09-.84-.54-.92.94.56.85-.09.14a3.78,3.78,0,0,0-.39,1l0,.17-1,.23v1.32l1,.21,0,.16a3.86,3.86,0,0,0,.42,1l.08.14-.52.86.94.92.85-.56.15.09a3.52,3.52,0,0,0,1,.39l.16,0Zm2.59-4.93a2,2,0,1,1-2-2A2,2,0,0,1,325.8,258.77Z"/><path class="cls-13" d="M329.48,270.22h.91l.15-.69.11,0a2.54,2.54,0,0,0,.69-.3l.1-.05.6.36.65-.66-.39-.6.06-.1a2.5,2.5,0,0,0,.28-.7l0-.11.69-.17v-.93l-.7-.14,0-.12a3,3,0,0,0-.3-.68l-.05-.1.36-.61L332,264l-.6.39-.1-.06a2.63,2.63,0,0,0-.7-.28l-.11,0-.17-.69h-.93l-.14.69-.12,0a3.2,3.2,0,0,0-.69.29l-.1.06-.59-.38-.64.67.39.59-.06.11a2.57,2.57,0,0,0-.28.69l0,.12-.69.16v.93l.69.15,0,.11a2.83,2.83,0,0,0,.29.69l.06.1-.37.6.67.65.6-.39.1.06a2.85,2.85,0,0,0,.7.28l.11,0Zm1.82-3.47a1.41,1.41,0,1,1-1.41-1.41A1.41,1.41,0,0,1,331.3,266.75Z"/><rect class="cls-14" x="321.68" y="256.84" width="2.36" height="11.25" transform="translate(280.16 -151.42) rotate(45)"/><polygon class="cls-15" points="315.9 270.86 318.04 265.61 321.39 268.95 315.9 270.86"/><rect class="cls-14" x="323.35" y="258.52" width="2.36" height="11.25" transform="translate(281.83 -152.11) rotate(45)"/><rect class="cls-16" x="329.18" y="254.1" width="2.7" height="4.73" transform="translate(745.6 204.09) rotate(135)"/><rect class="cls-17" x="327.28" y="256.01" width="2.7" height="4.73" transform="translate(743.7 208.7) rotate(135)"/></svg>