<svg id="Capa_1" data-name="Capa 1" xmlns="http://www.w3.org/2000/svg" viewBox="0 0 554 932"><defs><style>.cls-1{font-size:15px;font-family:Roboto-Bold, Roboto;font-weight:700;}.cls-1,.cls-12,.cls-17{fill:#1d1d1b;}.cls-2{letter-spacing:-0.02em;}.cls-3{letter-spacing:-0.01em;}.cls-4{letter-spacing:-0.01em;}.cls-5{letter-spacing:-0.01em;}.cls-15,.cls-16,.cls-18,.cls-19,.cls-20,.cls-21,.cls-22,.cls-6{fill:none;}.cls-10,.cls-6,.cls-7,.cls-8,.cls-9{stroke:#262626;stroke-linecap:round;stroke-width:0.5px;}.cls-10,.cls-15,.cls-16,.cls-18,.cls-19,.cls-20,.cls-21,.cls-22,.cls-6,.cls-7,.cls-8,.cls-9{stroke-linejoin:round;}.cls-7{fill:#fab637;}.cls-8{fill:#ffe7a1;}.cls-9{fill:#4ca8de;}.cls-10{fill:#cfcece;}.cls-11{fill:#71c2e9;stroke:#377c9c;stroke-width:3px;}.cls-11,.cls-23,.cls-24{stroke-miterlimit:1.75;}.cls-12{font-size:12px;font-family:Roboto-Light, Roboto;font-weight:300;}.cls-13{letter-spacing:-0.04em;}.cls-14{letter-spacing:-0.06em;}.cls-15,.cls-16,.cls-18,.cls-19,.cls-20,.cls-21,.cls-22{stroke:#0b0c0c;}.cls-16{stroke-dasharray:3.83 3.83;}.cls-18{stroke-dasharray:4.03 4.03;}.cls-19{stroke-dasharray:3.74 3.74;}.cls-20{stroke-dasharray:4.29 4.29;}.cls-21{stroke-dasharray:3.85 3.85;}.cls-22{stroke-dasharray:3.92 3.92;}.cls-23{fill:#afd28c;stroke:#71915a;isolation:isolate;}.cls-24{fill:#ec6062;stroke:#cc444b;}</style></defs><text class="cls-1" transform="translate(42.35 397.99)"><tspan xml:space="preserve"> 1 p</tspan><tspan class="cls-2" x="24.52" y="0">r</tspan><tspan class="cls-3" x="29.73" y="0">o</tspan><tspan class="cls-4" x="38.1" y="0">y</tspan><tspan x="45.53" y="0">ec</tspan><tspan class="cls-5" x="61.46" y="0">t</tspan><tspan x="66.31" y="0">os</tspan></text><path class="cls-6" d="M31.13,393.46h1.31l.2-1,.17,0a4,4,0,0,0,1-.42l.14-.08.86.52.92-.95-.56-.84.09-.15a3.52,3.52,0,0,0,.39-1l0-.16,1-.24v-1.32l-1-.2,0-.17a4.18,4.18,0,0,0-.42-1l-.08-.14.52-.85-.94-.92-.85.55-.15-.08a3.55,3.55,0,0,0-1-.4l-.16,0-.24-1-1.32,0-.2,1-.17,0a4.58,4.58,0,0,0-1,.41l-.14.09-.84-.54-.92.94.56.85-.08.15a3.55,3.55,0,0,0-.4,1l0,.16-1,.24v1.32l1,.2,0,.17a3.55,3.55,0,0,0,.41,1l.08.14-.52.86.95.92.85-.56.14.09a4,4,0,0,0,1,.4l.17,0Zm2.59-4.93a2,2,0,1,1-2-2A2,2,0,0,1,33.72,388.53Z"/><path class="cls-6" d="M37.4,400h.92l.14-.69.12,0a2.77,2.77,0,0,0,.69-.29l.09-.06.61.37.65-.67-.4-.59.06-.11a2.57,2.57,0,0,0,.28-.69l0-.12.69-.17V396l-.69-.15,0-.11a2.49,2.49,0,0,0-.29-.69l-.06-.1.37-.6-.67-.65-.59.39L39.2,394a2.57,2.57,0,0,0-.69-.28l-.12,0-.16-.7H37.3l-.15.7-.11,0a2.89,2.89,0,0,0-.69.3l-.1.06-.59-.38-.65.66.39.6-.06.1a2.48,2.48,0,0,0-.27.7l0,.11-.69.17V397l.69.14,0,.12a2.57,2.57,0,0,0,.29.68l.06.1-.37.61.67.64.59-.39.1.06a2.63,2.63,0,0,0,.7.28l.12,0Zm1.82-3.47a1.41,1.41,0,1,1-1.41-1.41A1.41,1.41,0,0,1,39.22,396.51Z"/><rect class="cls-7" x="29.6" y="386.61" width="2.36" height="11.25" transform="translate(286.37 93.12) rotate(45)"/><polygon class="cls-8" points="23.83 400.63 25.97 395.37 29.31 398.72 23.83 400.63"/><rect class="cls-7" x="31.27" y="388.28" width="2.36" height="11.25" transform="translate(288.04 92.42) rotate(45)"/><rect class="cls-9" x="37.11" y="383.86" width="2.7" height="4.73" transform="translate(338.76 632.14) rotate(135)"/><rect class="cls-10" x="35.2" y="385.77" width="2.7" height="4.73" transform="translate(336.85 636.75) rotate(135)"/><path class="cls-11" d="M331.46,389.69l13.4,28.95,11.59,4.15-2.27,9.75-16.47-.23-10.46,9.54-4.49-2.16-12.31,4-28.07-9.51-5,7.18L282.33,461l-6.78,6.61-4.05,16.92-3.07,2.28-3.74-4.7-5,4,.61,9.68-14.49,2.94.72,3.85-12,9.32-.79,5.81-6,.39-.85,6.9-7.72-8.63L212,519.44l5.78-16.32-3.13-14.32,19.85-6.21,14.6-14,7.11-1.18-3.93-9.57,4.69-3.65.65-10.55-10.73-3.84-1.13-4.27,6.08-3.82L247.39,426l8.23-17,9.52-2.18,6.59,6.47,5.24-.88,3.62,7.08,6.74-9.16,16.45,3.49,4.86-5.78-2.38-3.35,13.45-2.06-1-5.14,5-6.43Z"/><path class="cls-11" d="M290.76,359.86l9.4,5.35-5.2,3.17-2.23,8.92,8-5.65L325.33,383l.93,6.1-7.52,8.41,1,5.14-13.45,2.06,2.38,3.35-4.87,5.79-17-3.33-6.22,9L277,412.43l-5.24.88-6.59-6.47L255.62,409l-8.23,17,4.42,5.74-23.94,11.36-7.73,7.3-2.25,8.67-20.3-13.93.23-9.24,26.13-.67,1.13-9.39,6.25,2.45L241.41,421l-5.72-3.46,11.82-2.12L258,403.16l6.06,1.37-4.95-14.93L262,381l5.26-8.53Z"/><path class="cls-11" d="M284.15,259.28l3.17-.37,3.83,9.33,3.5-2.26,9.39,5,1-9.28,11.06,17.15,11.52,3.76,1.22,13.06,10.1,2.57-3.11,4.38-13.44.29.11,7.87-20.24,12.8,1.17,13.73L283,341l2.09,7-37.84-6.77-25.61-10-10,.4-.28-7.86-7.13-.49-3.94-8.76L229,303.57l3.91-7.78-4.12-7.57,12-6.66,1.89-6.57,8.57,5.42,5.3-10.3,11.52-.25,12.2-14.49Z"/><path class="cls-11" d="M231.21,335.75l59.29,15.49,2,8.41-3.62-1.52L267.26,372.5,262,381l-2.87,8.57,4.95,14.93L258,403.16l-10.51,12.28-11.82,2.12,5.72,3.46-10.08,7.29-6.25-2.45-2.43,3.94,4,3.14L218,437.87l-7.07-3.56-11.52,1-3.3,5.26-8.74,1.58-15.74-8.76-17.23-1.23-5-6,3.65-5.49,15.81-3.29,1.6-11.86,18.16-1,7.38-8.31-13.17-22.63,8.61-2.7,3.3,5.89,20.7,4.52-2.53-7.79,3.42-5.16,9.7,2.4,1.7-12.32,7.62-8.67L230,341.57Z"/><path class="cls-11" d="M215.44,267.64l10.25,4.77,2.07-4.17,8.72,1.22-3,17.43-10.19,4.35-1.09,5.19-21.87-1.71-8.56,6.94-6.87-.53L169.33,328l-9.39,1.86,10.87,15.84-9.25,0L145.31,353l-11-15.6-2.17-11.91-9-9.81-3.62-24.94L130,301.49l2.66-2.75,4.55-.34,2.69-2,15.5-17.78,9.3,8.17,7.93-2.95,5,2.5,6.53-8.11,7.48-2.12,7.19,4.1,9.54-2.26,5.11-12.75Z"/><path class="cls-11" d="M464.29,273.57,479.84,283l-1.6,12.65,3.94,12.16,9.37,5,2.93,18.67L489.88,348l8.6,4.34-8,11.54,3.9,8.39-14.49,7.83-6.45,9.05,4.82,10.95-1.18,10.82,18.32,15.3.88,7.5,5.07,3.34-.42,9.28,6,2.69-.66,3.08-10.41,2.35-4,11.27L478,471l-3.9,14.62L466.92,482l-6-11.82-13.1-6.67-13.2,3.81-4.77-3.49-8.29,8.08L416.24,469l-7.64,3-3.19,6.63-8-2.17-14.43-12.47-5.24-.19-2.84-11.28-7.77-4.05-5.84-9.64-12.56-4.9,5.87-1.82,1.89-9.25-11.59-4.15-9.6-19.4,1-4.69-4.92-5.28-5.49.46-.55-6.73-24.6-11.35-8,5.65,2.23-8.92,5.2-3.17-6.31-3.66-11.74-19.21,21.31-5-1.17-13.73,20.24-12.8-.11-7.87,13.7-.44,2.17-5.66-9.42-1.14-.43-5.51.24-4.93,6.75-1.44,18.69,11.05,1.58,6.64L372,309l22.6-4.73,1.58-4.65,24.36.71,6.61,20.83,13,2.65-.38-25.14,6.53-11.89-.17-11.87,9.26-8.75Z"/><path class="cls-11" d="M228.75,288.33l4.11,7.46L229,303.57l-29.06,11.67,4.4,8,7.13.49.28,7.86,10-.4,9.66,4.75-1.29,5.6,5.28,8.18-7.62,8.67L226,370.7l-9.72-2.36-3.42,5.16,2.53,7.79-20.7-4.52-3.3-5.89-10.18,3.21-13.7-15.46L171.8,355l-10.28-9.27,9.29,0-10.87-15.84,9.39-1.86,15.55-26.88,6.87.53,8.56-6.94,21.87,1.71Z"/><path class="cls-11" d="M105.45,311.41l8.47,2.08,1.48,5.59,14,2.3,4.92,16,11,15.6,16.21-7.25L171.8,355l-4.56,2.13,6.12,11.67,11.07,6.93L196,396.05l-7.28,8.37L172.46,404l-3.64,13.34L153,420.66,148.92,426l-.4-7.69L129.4,398.14l1.94-18L125.9,375l-9.14,5.62-7-7.15-9.64-24.89-7.4-8.34,2.86-2.6-4.48-3.44L87.4,317l9.57-6Z"/><path class="cls-11" d="M246.49,436.36l.63,3.56,10.5,3.68L257,454.15l-4.69,3.65,3.93,9.57-7.11,1.18-14.6,14-20.61,6.55,2.21-6.52L200,458.8l6.41-5.93,11.48,6.22,2.25-8.67,7.73-7.3Z"/><text class="cls-12" transform="translate(399.57 504.47)">Satipo</text><text class="cls-12" transform="translate(325.19 237.29)">Chancham<tspan class="cls-3" x="57.23" y="0">ay</tspan><tspan x="69.18" y="0">o</tspan></text><text class="cls-12" transform="translate(66.54 236.39)">Junín</text><text class="cls-12" transform="translate(23.69 378.02)"><tspan class="cls-13">Y</tspan><tspan x="6.76" y="0">auli</tspan></text><text class="cls-12" transform="translate(192.03 220.97)"><tspan class="cls-14">T</tspan><tspan x="6.5" y="0">arma</tspan></text><text class="cls-12" transform="translate(45.33 422.77)">Jauja</text><text class="cls-12" transform="translate(280.55 485.09)">Huanc<tspan class="cls-3" x="34.28" y="0">ay</tspan><tspan x="46.24" y="0">o</tspan></text><text class="cls-12" transform="translate(90.39 498.24)">Chupaca</text><text class="cls-12" transform="translate(71.35 462.6)">Concepción</text><text class="cls-1" transform="translate(63.86 441.36)"><tspan xml:space="preserve"> 5 p</tspan><tspan class="cls-2" x="24.52" y="0">r</tspan><tspan class="cls-3" x="29.73" y="0">o</tspan><tspan class="cls-4" x="38.1" y="0">y</tspan><tspan x="45.53" y="0">ec</tspan><tspan class="cls-5" x="61.46" y="0">t</tspan><tspan x="66.31" y="0">os</tspan></text><path class="cls-6" d="M52.63,436.83h1.31l.2-1,.17,0a4,4,0,0,0,1-.42l.14-.08.86.52.92-.94-.56-.85.09-.15a3.88,3.88,0,0,0,.4-1l0-.16,1-.24,0-1.32-1-.2,0-.17a4,4,0,0,0-.42-1l-.08-.14.52-.86-.94-.92-.85.55-.15-.08a3.88,3.88,0,0,0-1-.4L54,428l-.24-1-1.32,0-.2,1-.17,0a4,4,0,0,0-1,.42l-.15.08-.84-.54-.92.94.56.85-.08.15a3.55,3.55,0,0,0-.4,1l0,.16-1,.24v1.32l1,.2,0,.17a3.74,3.74,0,0,0,.41,1l.08.14-.52.85,1,.92.85-.55.14.08a4,4,0,0,0,1,.4l.17,0Zm2.59-4.93a2,2,0,1,1-2-2A2,2,0,0,1,55.22,431.9Z"/><path class="cls-6" d="M58.9,443.35h.92l.14-.69.12,0a2.77,2.77,0,0,0,.69-.29l.1-.06.6.37.65-.67-.4-.59.06-.11a2.28,2.28,0,0,0,.28-.69l0-.12.69-.16v-.93l-.69-.15,0-.11a2.49,2.49,0,0,0-.29-.69l-.06-.1.37-.6-.67-.65-.59.39-.11-.06a2.94,2.94,0,0,0-.69-.28l-.12,0-.16-.69H58.8l-.15.7-.11,0a2.49,2.49,0,0,0-.69.29l-.1.06-.59-.38-.65.66.39.6,0,.1a2.23,2.23,0,0,0-.28.7l0,.11-.69.17v.93l.69.14,0,.12a2.57,2.57,0,0,0,.29.68l.06.1-.37.61.67.64.59-.39.1.06a2.63,2.63,0,0,0,.7.28l.12,0Zm1.83-3.47a1.42,1.42,0,1,1-1.42-1.41A1.42,1.42,0,0,1,60.73,439.88Z"/><rect class="cls-7" x="51.1" y="429.98" width="2.36" height="11.25" transform="translate(323.33 90.62) rotate(45)"/><polygon class="cls-8" points="45.33 444 47.47 438.74 50.81 442.09 45.33 444"/><rect class="cls-7" x="52.77" y="431.65" width="2.36" height="11.25" transform="translate(325 89.92) rotate(45)"/><rect class="cls-9" x="58.61" y="427.23" width="2.7" height="4.73" transform="translate(406.13 690.97) rotate(135)"/><rect class="cls-10" x="56.7" y="429.14" width="2.7" height="4.73" transform="translate(404.22 695.58) rotate(135)"/><text class="cls-1" transform="translate(89.3 480.14)"><tspan xml:space="preserve"> 2 p</tspan><tspan class="cls-2" x="24.52" y="0">r</tspan><tspan class="cls-3" x="29.73" y="0">o</tspan><tspan class="cls-4" x="38.1" y="0">y</tspan><tspan x="45.53" y="0">ec</tspan><tspan class="cls-5" x="61.46" y="0">t</tspan><tspan x="66.31" y="0">os</tspan></text><path class="cls-6" d="M78.07,475.61h1.31l.2-1,.17,0a4,4,0,0,0,1-.42l.14-.08.86.52.92-.94-.56-.85.09-.15a3.52,3.52,0,0,0,.39-1l0-.16,1-.24V470l-1-.2,0-.17a4.18,4.18,0,0,0-.42-1l-.08-.13.52-.86-.94-.92-.85.55-.15-.08a3.88,3.88,0,0,0-1-.4l-.16,0-.24-1-1.32,0-.2,1-.17,0a4,4,0,0,0-1,.42l-.15.08-.84-.54-.92.94.56.85-.08.15a3.55,3.55,0,0,0-.4,1l0,.16-1,.24v1.32l1,.2,0,.17a3.55,3.55,0,0,0,.41,1l.08.14-.52.86,1,.92.85-.55.14.08a4,4,0,0,0,1,.4l.17,0Zm2.59-4.93a2,2,0,1,1-2-2A2,2,0,0,1,80.66,470.68Z"/><path class="cls-6" d="M84.34,482.13h.92l.14-.69.12,0a2.77,2.77,0,0,0,.69-.29l.1-.06.6.37.65-.67-.4-.59.06-.11a2.57,2.57,0,0,0,.28-.69l0-.12.69-.16v-.93l-.69-.15,0-.11a2.49,2.49,0,0,0-.29-.69l-.06-.1.37-.6-.67-.65-.59.39-.11-.06a2.57,2.57,0,0,0-.69-.28l-.12,0-.16-.69h-.93l-.15.7-.11,0a2.89,2.89,0,0,0-.69.3l-.1.06-.59-.38-.65.66.39.6-.06.1a2.48,2.48,0,0,0-.27.7l0,.11-.69.17v.93l.69.14,0,.12a2.57,2.57,0,0,0,.29.68l.06.1-.37.61.67.64.59-.39.1.06a2.63,2.63,0,0,0,.7.28l.12,0Zm1.82-3.47a1.41,1.41,0,1,1-1.41-1.41A1.41,1.41,0,0,1,86.16,478.66Z"/><rect class="cls-7" x="76.54" y="468.76" width="2.36" height="11.25" transform="translate(358.2 83.99) rotate(45)"/><polygon class="cls-8" points="70.77 482.78 72.91 477.52 76.25 480.87 70.77 482.78"/><rect class="cls-7" x="78.21" y="470.43" width="2.36" height="11.25" transform="translate(359.88 83.29) rotate(45)"/><rect class="cls-9" x="84.05" y="466.01" width="2.7" height="4.73" transform="translate(476.98 739.19) rotate(135)"/><rect class="cls-10" x="82.14" y="467.92" width="2.7" height="4.73" transform="translate(475.07 743.79) rotate(135)"/><text class="cls-1" transform="translate(108.92 517.87)"><tspan xml:space="preserve"> 3 p</tspan><tspan class="cls-2" x="24.52" y="0">r</tspan><tspan class="cls-3" x="29.73" y="0">o</tspan><tspan class="cls-4" x="38.1" y="0">y</tspan><tspan x="45.53" y="0">ec</tspan><tspan class="cls-5" x="61.46" y="0">t</tspan><tspan x="66.31" y="0">os</tspan></text><path class="cls-6" d="M97.7,513.34H99l.21-1,.16,0a3.86,3.86,0,0,0,1-.42l.14-.08.86.52.92-1-.56-.84.09-.15a3.65,3.65,0,0,0,.39-1l0-.16,1-.24v-1.32l-1-.2,0-.17a4.18,4.18,0,0,0-.42-1l-.08-.14.52-.86-1-.92-.84.56-.15-.08a3.55,3.55,0,0,0-1-.4l-.16,0-.24-1H97.55l-.2,1-.17,0a3.74,3.74,0,0,0-1,.41l-.14.09-.84-.54-.92.94.56.85-.08.14a3.43,3.43,0,0,0-.4,1l0,.16-1,.23v1.33l1,.2.05.17a3.55,3.55,0,0,0,.41,1l.08.14-.52.86.95.92.84-.56.15.09a3.65,3.65,0,0,0,1,.39l.16,0Zm2.59-4.93a2,2,0,1,1-2-2A2,2,0,0,1,100.29,508.41Z"/><path class="cls-6" d="M104,519.86h.92l.14-.69.12,0a3,3,0,0,0,.68-.29l.1-.06.61.37.64-.67-.39-.6.06-.1a2.5,2.5,0,0,0,.28-.7l0-.11.69-.17v-.93l-.69-.14,0-.12a2.57,2.57,0,0,0-.29-.68l-.06-.1.37-.61-.67-.64-.59.39-.11-.06a2.5,2.5,0,0,0-.7-.28l-.11,0-.17-.69h-.93l-.14.69-.12,0a3,3,0,0,0-.68.29l-.1.06-.6-.38-.64.67.39.59-.06.11a2.94,2.94,0,0,0-.28.69l0,.12-.69.17v.92l.69.15,0,.11a2.49,2.49,0,0,0,.29.69l0,.1-.36.6.66.65.6-.39.1.06a2.63,2.63,0,0,0,.7.28l.11,0Zm1.82-3.47a1.41,1.41,0,1,1-1.41-1.41A1.41,1.41,0,0,1,105.79,516.39Z"/><rect class="cls-7" x="96.17" y="506.49" width="2.36" height="11.25" transform="translate(390.63 81.16) rotate(45)"/><polygon class="cls-8" points="90.39 520.5 92.54 515.25 95.88 518.6 90.39 520.5"/><rect class="cls-7" x="97.84" y="508.16" width="2.36" height="11.25" transform="translate(392.3 80.46) rotate(45)"/><rect class="cls-9" x="103.68" y="503.74" width="2.7" height="4.73" transform="translate(537.16 789.71) rotate(135)"/><rect class="cls-10" x="101.77" y="505.65" width="2.7" height="4.73" transform="translate(535.25 794.32) rotate(135)"/><text class="cls-1" transform="translate(300.16 504.3)"><tspan xml:space="preserve"> 10 p</tspan><tspan class="cls-2" x="33.13" y="0">r</tspan><tspan class="cls-3" x="38.33" y="0">o</tspan><tspan class="cls-4" x="46.71" y="0">y</tspan><tspan x="54.14" y="0">ec</tspan><tspan class="cls-5" x="70.07" y="0">t</tspan><tspan x="74.92" y="0">os</tspan></text><path class="cls-6" d="M288.94,499.77h1.3l.2-1,.17,0a3.74,3.74,0,0,0,1-.41l.14-.08.86.52.92-.95L293,497l.08-.14a3.81,3.81,0,0,0,.4-1l0-.17,1-.23v-1.32l-1-.21,0-.16a3.48,3.48,0,0,0-.41-1l-.08-.14.52-.86-.95-.92-.84.56-.15-.09a3.65,3.65,0,0,0-1-.39l-.17,0-.23-1h-1.32l-.21,1-.16,0a4,4,0,0,0-1,.42l-.14.08-.84-.54-.92.95.56.84-.09.15a3.65,3.65,0,0,0-.39,1l0,.16-1,.24v1.32l1,.21,0,.16a4,4,0,0,0,.42,1l.08.14-.52.86.95.92.84-.56.15.08a3.27,3.27,0,0,0,1,.4l.16,0Zm2.59-4.93a2,2,0,1,1-2-2A2,2,0,0,1,291.53,494.84Z"/><path class="cls-6" d="M295.21,506.29h.91l.15-.69.11,0a2.49,2.49,0,0,0,.69-.29l.1,0,.6.36.65-.66-.39-.6.06-.1a2.63,2.63,0,0,0,.28-.7l0-.11.7-.17v-.93l-.7-.14,0-.12a3.28,3.28,0,0,0-.3-.69l-.05-.1.36-.6-.66-.65-.6.4-.1-.06a2.33,2.33,0,0,0-.7-.28l-.11,0-.17-.69h-.93l-.14.69-.12,0a2.77,2.77,0,0,0-.69.29l-.1.06-.59-.38-.64.67.39.59-.06.1a2.63,2.63,0,0,0-.28.7l0,.11-.69.17v.93l.69.14,0,.12a3,3,0,0,0,.29.69l.06.1-.37.6.67.65.6-.39.1.05a2.23,2.23,0,0,0,.7.28l.11,0Zm1.82-3.46a1.41,1.41,0,1,1-1.41-1.41A1.41,1.41,0,0,1,297,502.83Z"/><rect class="cls-7" x="287.41" y="492.92" width="2.36" height="11.25" transform="translate(437.05 -58.04) rotate(45)"/><polygon class="cls-8" points="281.63 506.94 283.77 501.69 287.12 505.03 281.63 506.94"/><rect class="cls-7" x="289.08" y="494.59" width="2.36" height="11.25" transform="translate(438.72 -58.73) rotate(45)"/><rect class="cls-9" x="294.91" y="490.18" width="2.7" height="4.73" transform="translate(854.03 631.33) rotate(135)"/><rect class="cls-10" x="293.01" y="492.09" width="2.7" height="4.73" transform="translate(852.13 635.94) rotate(135)"/><text class="cls-1" transform="translate(418.62 523.39)"><tspan xml:space="preserve"> 10 p</tspan><tspan class="cls-2" x="33.13" y="0">r</tspan><tspan class="cls-3" x="38.33" y="0">o</tspan><tspan class="cls-4" x="46.71" y="0">y</tspan><tspan x="54.14" y="0">ec</tspan><tspan class="cls-5" x="70.07" y="0">t</tspan><tspan x="74.92" y="0">os</tspan></text><path class="cls-6" d="M407.39,518.86h1.31l.2-1,.17,0a4,4,0,0,0,1-.42l.14-.08.86.52.92-.94-.56-.85.09-.15a3.52,3.52,0,0,0,.39-1l0-.16,1-.24v-1.32l-1-.2,0-.17a4,4,0,0,0-.42-1l-.08-.14.52-.86L411,510l-.85.55-.15-.08a3.88,3.88,0,0,0-1-.4l-.16,0-.24-1-1.32,0-.2,1-.17,0a4,4,0,0,0-1,.42l-.15.08-.84-.54-.92.94.56.85-.08.15a3.55,3.55,0,0,0-.4,1l0,.16-1,.24v1.32l1,.2,0,.17a3.74,3.74,0,0,0,.41,1l.08.14-.52.85.95.92.85-.55.14.08a4,4,0,0,0,1,.4l.17,0Zm2.59-4.93a2,2,0,1,1-2-2A2,2,0,0,1,410,513.93Z"/><path class="cls-6" d="M413.66,525.38h.92l.14-.69.12,0a2.77,2.77,0,0,0,.69-.29l.1-.06.6.37.65-.67-.4-.59.06-.11a2.57,2.57,0,0,0,.28-.69l0-.12.69-.16v-.93l-.69-.15,0-.11a2.49,2.49,0,0,0-.29-.69l-.06-.1.37-.6-.67-.65-.59.39-.11-.06a2.94,2.94,0,0,0-.69-.28l-.12,0-.16-.69h-.93l-.15.69-.11,0a2.49,2.49,0,0,0-.69.29l-.1.06-.59-.38-.65.66.39.6-.06.1a2.48,2.48,0,0,0-.27.7l0,.11-.69.17v.93l.69.14,0,.12a2.57,2.57,0,0,0,.29.68l.06.1-.37.61.67.64.59-.39.1.06a2.63,2.63,0,0,0,.7.28l.12,0Zm1.82-3.47a1.41,1.41,0,1,1-1.41-1.41A1.41,1.41,0,0,1,415.48,521.91Z"/><rect class="cls-7" x="405.86" y="512.01" width="2.36" height="11.25" transform="translate(485.24 -136.21) rotate(45)"/><polygon class="cls-8" points="400.09 526.03 402.23 520.77 405.57 524.12 400.09 526.03"/><rect class="cls-7" x="407.53" y="513.68" width="2.36" height="11.25" transform="translate(486.91 -136.9) rotate(45)"/><rect class="cls-9" x="413.37" y="509.26" width="2.7" height="4.73" transform="translate(1069.75 580.16) rotate(135)"/><rect class="cls-10" x="411.46" y="511.17" width="2.7" height="4.73" transform="translate(1067.84 584.76) rotate(135)"/><text class="cls-1" transform="translate(344.8 256.43)"><tspan xml:space="preserve"> 4 p</tspan><tspan class="cls-2" x="24.52" y="0">r</tspan><tspan class="cls-3" x="29.73" y="0">o</tspan><tspan class="cls-4" x="38.1" y="0">y</tspan><tspan x="45.53" y="0">ec</tspan><tspan class="cls-5" x="61.46" y="0">t</tspan><tspan x="66.31" y="0">os</tspan></text><path class="cls-6" d="M333.58,251.9h1.3l.21-1,.16,0a3.86,3.86,0,0,0,1-.42l.14-.08.86.53.92-.95-.56-.85.09-.14a3.71,3.71,0,0,0,.39-1l0-.16,1-.24v-1.32l-1-.2,0-.17a4,4,0,0,0-.42-1l-.08-.14.52-.86-.95-.92-.84.56-.15-.09a3.65,3.65,0,0,0-1-.39l-.16,0-.24-1h-1.32l-.2,1-.17,0a4.18,4.18,0,0,0-1,.42l-.14.08-.84-.54-.92,1,.56.84-.08.15a3.27,3.27,0,0,0-.4,1l0,.16-1,.24v1.32l1,.2,0,.17a3.74,3.74,0,0,0,.41,1l.08.14-.52.86.95.92.84-.56.15.08a3.68,3.68,0,0,0,1,.4l.16,0Zm2.59-4.93a2,2,0,1,1-2-2A2,2,0,0,1,336.17,247Z"/><path class="cls-6" d="M339.85,258.42h.92l.14-.69.12,0a2.57,2.57,0,0,0,.68-.29l.1-.06.61.37.64-.67-.39-.59.06-.1a2.63,2.63,0,0,0,.28-.7l0-.12.69-.16v-.93l-.69-.14,0-.12a3,3,0,0,0-.29-.69l-.06-.1.37-.6-.67-.65-.6.39-.1-.06a2.48,2.48,0,0,0-.7-.27l-.11,0-.17-.69h-.93l-.14.69-.12,0a2.57,2.57,0,0,0-.68.29l-.1.06-.6-.38-.64.66.39.6-.06.1a2.63,2.63,0,0,0-.28.7l0,.11-.69.17v.93l.7.14,0,.12a3.28,3.28,0,0,0,.3.69l.05.09-.36.61.66.65.6-.4.1.06a2.63,2.63,0,0,0,.7.28l.11,0Zm1.82-3.47a1.41,1.41,0,1,1-1.41-1.41A1.42,1.42,0,0,1,341.67,255Z"/><rect class="cls-7" x="332.05" y="245.05" width="2.36" height="11.25" transform="translate(274.85 -162.21) rotate(45)"/><polygon class="cls-8" points="326.27 259.07 328.42 253.82 331.76 257.16 326.27 259.07"/><rect class="cls-7" x="333.72" y="246.72" width="2.36" height="11.25" transform="translate(276.53 -162.9) rotate(45)"/><rect class="cls-9" x="339.56" y="242.31" width="2.7" height="4.73" transform="translate(754.97 176.62) rotate(135)"/><rect class="cls-10" x="337.65" y="244.22" width="2.7" height="4.73" transform="translate(753.06 181.23) rotate(135)"/><text class="cls-1" transform="translate(210.56 240.21)"><tspan xml:space="preserve"> 5 p</tspan><tspan class="cls-2" x="24.52" y="0">r</tspan><tspan class="cls-3" x="29.73" y="0">o</tspan><tspan class="cls-4" x="38.1" y="0">y</tspan><tspan x="45.53" y="0">ec</tspan><tspan class="cls-5" x="61.46" y="0">t</tspan><tspan x="66.31" y="0">os</tspan></text><path class="cls-6" d="M199.34,235.68h1.3l.21-1,.16,0a3.86,3.86,0,0,0,1-.42l.14-.08.86.52.92-1-.56-.84.09-.15a3.52,3.52,0,0,0,.39-1l0-.16,1-.24V230l-1-.2,0-.17a4.18,4.18,0,0,0-.42-1l-.08-.14.52-.85-1-.93-.84.56-.15-.08a3.55,3.55,0,0,0-1-.4l-.16,0-.24-1h-1.32l-.2,1-.17,0a3.74,3.74,0,0,0-1,.41l-.14.09-.84-.54-.92.94.56.85-.08.14a3.43,3.43,0,0,0-.4,1l0,.16-1,.24v1.32l1,.2,0,.17a3.55,3.55,0,0,0,.41,1l.08.14-.52.86,1,.92.84-.56.15.09a4,4,0,0,0,1,.4l.16,0Zm2.59-4.93a2,2,0,1,1-2-2A2,2,0,0,1,201.93,230.75Z"/><path class="cls-6" d="M205.61,242.2h.92l.14-.69.12,0a2.57,2.57,0,0,0,.68-.29l.1-.06.61.37.64-.67-.39-.59.06-.11a2.5,2.5,0,0,0,.28-.7l0-.11.69-.17v-.93l-.69-.14,0-.12a3,3,0,0,0-.29-.68l-.06-.1.37-.6-.67-.65-.6.39-.1-.06a2.5,2.5,0,0,0-.7-.28l-.11,0-.17-.69h-.93l-.14.69-.12,0a3,3,0,0,0-.68.3l-.1.05-.6-.37-.64.66.39.59-.06.11a2.94,2.94,0,0,0-.28.69l0,.12-.69.17v.93l.69.14,0,.12a2.57,2.57,0,0,0,.29.68l0,.1-.36.6.66.65.6-.39.1.06a2.63,2.63,0,0,0,.7.28l.11,0Zm1.82-3.47a1.41,1.41,0,1,1-1.41-1.41A1.41,1.41,0,0,1,207.43,238.73Z"/><rect class="cls-7" x="197.81" y="228.83" width="2.36" height="11.25" transform="translate(224.06 -72.04) rotate(45)"/><polygon class="cls-8" points="192.03 242.84 194.18 237.59 197.52 240.94 192.03 242.84"/><rect class="cls-7" x="199.48" y="230.5" width="2.36" height="11.25" transform="translate(225.74 -72.73) rotate(45)"/><rect class="cls-9" x="205.32" y="226.08" width="2.7" height="4.73" transform="translate(514.34 243.85) rotate(135)"/><rect class="cls-10" x="203.41" y="227.99" width="2.7" height="4.73" transform="translate(512.43 248.46) rotate(135)"/><text class="cls-1" transform="translate(85.07 257.29)"><tspan xml:space="preserve"> 0 p</tspan><tspan class="cls-2" x="24.52" y="0">r</tspan><tspan class="cls-3" x="29.73" y="0">o</tspan><tspan class="cls-4" x="38.1" y="0">y</tspan><tspan x="45.53" y="0">ec</tspan><tspan class="cls-5" x="61.46" y="0">t</tspan><tspan x="66.31" y="0">os</tspan></text><path class="cls-6" d="M73.85,252.76h1.3l.2-1,.17,0a4.18,4.18,0,0,0,1-.42l.14-.08.86.52.92-.95-.56-.84.08-.15a3.68,3.68,0,0,0,.4-1l0-.16,1-.24v-1.32l-1-.2,0-.17a3.74,3.74,0,0,0-.41-1l-.08-.14.52-.86-.95-.92-.85.56-.14-.08a3.68,3.68,0,0,0-1-.4l-.17,0-.23-1H73.7l-.21,1-.16,0a3.48,3.48,0,0,0-1,.41l-.14.09-.84-.54-.92.94.56.85-.09.14a3.71,3.71,0,0,0-.39,1l0,.16-1,.23v1.33l1,.2,0,.17a4,4,0,0,0,.42,1L71,250l-.52.86.94.92.85-.56.15.09a3.52,3.52,0,0,0,1,.39l.16,0Zm2.59-4.93a2,2,0,1,1-2-2A2,2,0,0,1,76.44,247.83Z"/><path class="cls-6" d="M80.12,259.28H81l.15-.69.11,0a2.83,2.83,0,0,0,.69-.29l.1-.06.6.37.65-.67-.39-.6.06-.1a2.5,2.5,0,0,0,.28-.7l0-.11.69-.17v-.93l-.7-.14,0-.12a3,3,0,0,0-.3-.68l0-.1.36-.61-.66-.64-.6.39-.1-.06a2.63,2.63,0,0,0-.7-.28l-.11,0-.17-.69H80l-.14.69-.12,0a3.2,3.2,0,0,0-.69.29l-.1.06-.59-.38-.64.67.39.59-.06.11a2.57,2.57,0,0,0-.28.69l0,.12-.69.17v.92l.69.15,0,.11a2.83,2.83,0,0,0,.29.69l.06.1-.37.6.67.65.6-.39.1.06a2.5,2.5,0,0,0,.7.28l.11,0Zm1.82-3.47a1.41,1.41,0,1,1-1.41-1.41A1.41,1.41,0,0,1,81.94,255.81Z"/><rect class="cls-7" x="72.31" y="245.91" width="2.36" height="11.25" transform="translate(199.39 21.7) rotate(45)"/><polygon class="cls-8" points="66.54 259.93 68.68 254.67 72.03 258.01 66.54 259.93"/><rect class="cls-7" x="73.99" y="247.58" width="2.36" height="11.25" transform="translate(201.06 21.01) rotate(45)"/><rect class="cls-9" x="79.82" y="243.16" width="2.7" height="4.73" transform="translate(312.18 361.74) rotate(135)"/><rect class="cls-10" x="77.92" y="245.07" width="2.7" height="4.73" transform="translate(310.28 366.35) rotate(135)"/><line class="cls-15" x1="175.52" y1="252.91" x2="175.51" y2="254.91"/><line class="cls-16" x1="175.5" y1="258.74" x2="175.34" y2="295.08"/><line class="cls-15" x1="175.33" y1="297" x2="175.32" y2="299"/><circle class="cls-17" cx="175.32" cy="299" r="1.57"/><circle class="cls-17" cx="175.52" cy="252.52" r="1.57"/><line class="cls-15" x1="196.08" y1="249.68" x2="196.07" y2="251.68"/><line class="cls-18" x1="196.06" y1="255.71" x2="195.89" y2="318.14"/><line class="cls-15" x1="195.88" y1="320.15" x2="195.88" y2="322.15"/><circle class="cls-17" cx="195.88" cy="322.15" r="1.57"/><circle class="cls-17" cx="196.08" cy="249.68" r="1.57"/><line class="cls-15" x1="145.63" y1="383.59" x2="143.63" y2="383.59"/><line class="cls-19" x1="139.89" y1="383.59" x2="126.78" y2="383.59"/><line class="cls-15" x1="124.91" y1="383.59" x2="122.91" y2="383.59"/><circle class="cls-17" cx="122.91" cy="383.59" r="1.57"/><circle class="cls-17" cx="145.95" cy="383.89" r="1.57"/><line class="cls-15" x1="320.64" y1="263.05" x2="319.18" y2="264.41"/><line class="cls-20" x1="316.03" y1="267.33" x2="298.74" y2="283.37"/><line class="cls-15" x1="297.17" y1="284.83" x2="295.71" y2="286.19"/><circle class="cls-17" cx="295.71" cy="286.19" r="1.57"/><circle class="cls-17" cx="321.08" cy="263.03" r="1.57"/><line class="cls-15" x1="187.94" y1="427.58" x2="186.08" y2="428.32"/><line class="cls-21" x1="182.51" y1="429.75" x2="155.72" y2="440.43"/><line class="cls-15" x1="153.93" y1="441.14" x2="152.07" y2="441.89"/><circle class="cls-17" cx="152.07" cy="441.89" r="1.57"/><circle class="cls-17" cx="189.36" cy="426.9" r="1.57"/><line class="cls-15" x1="217.83" y1="478.97" x2="216.66" y2="480.59"/><line class="cls-21" x1="214.43" y1="483.72" x2="197.65" y2="507.19"/><line class="cls-15" x1="196.53" y1="508.76" x2="195.37" y2="510.38"/><circle class="cls-17" cx="195.37" cy="510.38" r="1.57"/><circle class="cls-17" cx="218.66" cy="477.63" r="1.57"/><line class="cls-15" x1="286.7" y1="430.05" x2="286.75" y2="432.05"/><line class="cls-21" x1="286.85" y1="435.89" x2="287.58" y2="464.73"/><line class="cls-15" x1="287.63" y1="466.65" x2="287.68" y2="468.65"/><circle class="cls-17" cx="287.68" cy="468.65" r="1.57"/><circle class="cls-17" cx="286.56" cy="428.48" r="1.57"/><line class="cls-15" x1="402.17" y1="451.71" x2="402.23" y2="453.71"/><line class="cls-21" x1="402.32" y1="457.55" x2="403.06" y2="486.39"/><line class="cls-15" x1="403.11" y1="488.31" x2="403.16" y2="490.31"/><circle class="cls-17" cx="403.16" cy="490.31" r="1.57"/><circle class="cls-17" cx="402.03" cy="450.14" r="1.57"/><line class="cls-15" x1="271.22" y1="402.04" x2="269.62" y2="403.24"/><line class="cls-22" x1="266.49" y1="405.6" x2="180.32" y2="470.57"/><line class="cls-15" x1="178.75" y1="471.75" x2="177.16" y2="472.96"/><circle class="cls-17" cx="177.16" cy="472.96" r="1.57"/><circle class="cls-17" cx="271.22" cy="402.04" r="1.57"/><text class="cls-1" transform="translate(274.85 297.45)">x1</text><circle class="cls-23" cx="264" cy="293.42" r="6.43"/><text class="cls-1" transform="translate(274.85 313.95)">x3</text><circle class="cls-24" cx="264" cy="309.92" r="6.43"/><text class="cls-1" transform="translate(192.86 339.81)">x3</text><circle class="cls-23" cx="182.01" cy="335.78" r="6.43"/><text class="cls-1" transform="translate(192.86 356.31)">x2</text><circle class="cls-24" cx="182.01" cy="352.28" r="6.43"/><text class="cls-1" transform="translate(237.45 454.87)">x1</text><circle class="cls-23" cx="226.6" cy="450.84" r="6.43"/><text class="cls-1" transform="translate(237.45 471.36)">x2</text><circle class="cls-24" cx="226.6" cy="467.34" r="6.43"/><text class="cls-1" transform="translate(309.74 416.45)">x6</text><circle class="cls-23" cx="298.89" cy="412.42" r="6.43"/><text class="cls-1" transform="translate(309.74 432.94)">x4</text><circle class="cls-24" cx="298.89" cy="428.91" r="6.43"/><text class="cls-1" transform="translate(291.63 383.59)">x1</text><circle class="cls-23" cx="280.78" cy="379.56" r="6.43"/><text class="cls-1" transform="translate(291.63 400.08)">x1</text><circle class="cls-24" cx="280.78" cy="396.06" r="6.43"/><text class="cls-1" transform="translate(213.05 404.17)">x2</text><circle class="cls-23" cx="202.2" cy="400.14" r="6.43"/><text class="cls-1" transform="translate(213.05 420.67)">x3</text><circle class="cls-24" cx="202.2" cy="416.64" r="6.43"/><text class="cls-1" transform="translate(415.68 422.69)">x7</text><circle class="cls-23" cx="404.83" cy="418.66" r="6.43"/><text class="cls-1" transform="translate(415.68 439.18)">x3</text><circle class="cls-24" cx="404.83" cy="435.15" r="6.43"/><text class="cls-1" transform="translate(168.58 387.62)">x1</text><circle class="cls-23" cx="157.73" cy="383.59" r="6.43"/></svg>