<svg id="Capa_1" data-name="Capa 1" xmlns="http://www.w3.org/2000/svg" viewBox="0 0 554 932"><defs><style>.cls-1{fill:#71c2e9;stroke:#377c9c;stroke-width:3px;}.cls-1,.cls-24,.cls-25{stroke-miterlimit:1.75;}.cls-2{font-size:12px;font-family:Roboto-Light, Roboto;font-weight:300;}.cls-10,.cls-2,.cls-4{fill:#1d1d1b;}.cls-3{letter-spacing:-0.01em;}.cls-4{font-size:15px;font-family:Roboto-Bold, Roboto;font-weight:700;}.cls-5{letter-spacing:-0.02em;}.cls-6{letter-spacing:-0.01em;}.cls-7{letter-spacing:-0.01em;}.cls-11,.cls-16,.cls-20,.cls-21,.cls-23,.cls-8,.cls-9{fill:none;}.cls-16,.cls-20,.cls-21,.cls-23,.cls-8,.cls-9{stroke:#0b0c0c;}.cls-11,.cls-12,.cls-13,.cls-14,.cls-15,.cls-16,.cls-20,.cls-21,.cls-23,.cls-8,.cls-9{stroke-linejoin:round;}.cls-9{stroke-dasharray:3.86 3.86;}.cls-11,.cls-12,.cls-13,.cls-14,.cls-15{stroke:#262626;stroke-linecap:round;stroke-width:0.5px;}.cls-12{fill:#fab637;}.cls-13{fill:#ffe7a1;}.cls-14{fill:#4ca8de;}.cls-15{fill:#cfcece;}.cls-16{stroke-dasharray:4.06 4.06;}.cls-17{letter-spacing:-0.01em;}.cls-18{letter-spacing:-0.01em;}.cls-19{letter-spacing:-0.02em;}.cls-20{stroke-dasharray:4.19 4.19;}.cls-21{stroke-dasharray:4.07 4.07;}.cls-22{letter-spacing:-0.01em;}.cls-23{stroke-dasharray:3.76 3.76;}.cls-24{fill:#afd28c;stroke:#71915a;isolation:isolate;}.cls-25{fill:#ec6062;stroke:#cc444b;}</style></defs><path class="cls-1" d="M227,167.92Zm0,0,2.11,5.5,4.86,2,11.77,15.74,5.44,2.9,13.48,2.73,5.91,4,4.47.2,6.44,8.64,3.43.74-.72,8.45L279.57,226l6.28,2.42,1.09,5.12,2.75,1.89-1.07,3.06,2.38,4.46,4.31.28,4,3.69,8.47,3.95,2,1.89-1.46,3.31,2,3.78L322,265.52l1,3.44,3.36.49,9.48,7.39,17.46-1.39,1,9.63,4,1.7,3.95,7.31,6.16,3.29,5.18,6.07.36,2.5,4,2.59-3.05,5.82-7,4.53,2.77,13.77-7.79,6.41-2.23,6,2.66,2.28-6,6.05L354.92,352l-4.84.53,1.4,2.81-1.75,2.4-6.62-.9L341,363l-7.57-1.59-3.92,2.23-3.08,8.83-5.29,2.11-6-3.8-8.62-9.87.34-4.87-1.54-2.65,3.88-3.43L308,349l-4.53,4.52-12.07,6.73-6.39-.12-6.25-3.86-.45-2.58-7.65-6.16L268,335.93l-4.17-7.68-3.6-1.42-5-6.38-7.26-1.06-9.55-10.21-.69-3.18-1.39.42-.78-4.93L230,296.71l.68-2.58-9.81-3.23-3.2-11.57,2.68-15.13,2.84-3.82-1.92-4.94,2.12-1.19-.26-7.22-9.67-4.59L211.67,237l-4.21-2.88-2.29-6.83L197,228.84l-7.26-4L180.19,223l-1.73-7.43,10.67-13.45,1.36.66,9.31-34.35,4.72,3.13,6.09-.93-2.21-1.56.42-4.13-2.38-4.47.44-7.65,4.08,3.69-.59,1.38,11.21,4.5,1.8,3.76Z"/><path class="cls-1" d="M149.63,319.49l1.73,3.46,1.47-.93,2.43,9.77,3.26,1.92,1.33,4.18,2.26.75.45,7.11,3.32,4.26-.87,3.58,8.58,5.81-1.3,8.41,2.17.86.48,4.75,5.6,2.77.79,4.11,3.35,1.53-.5,4.56,10.62,1.72,5,5.28-4.56.25-8.09,7.84,1.59,2.75-2.38,1.33-1.1,4.8,1.89,4.92-1.1,2.8,2,1.48-.42,1.63,8.42.68-4.63,12,1.47,4-3.08,7.27L187,446.64l-.44,2.93-5.31,3.33-2.42.19-3.08-2.67-1.3.17.74,2.12-4.52,0-5-3.09L158.43,453l-5.51-1.12-3.87-2.18.16-1.75-4.62-5.48L143,445.19l-2.76.61-14.6-.41.06-3-4-5.14-.22-5.49-3.81-.6,1.73-2.81,2.86-.34-.29-2.77-1.63.06,1.88-2.41L120,419.52l1-1.83,4-3.41,3.09,3.05,3.41-1.6.81-5.19,2.7-1.71-1.61-5.91,5.27.46-1.07-2.72L142,394l-.39-4.24,1.79,3.59,13-1.93,8.7,4.55,5.7-.87v-3.44l1.64,1.47,4.64-1.63,3,1.09-.32-1.86-9.29-5.08L165,380.4l-2.44,1-1.7-2.41-3.57-.53.22-4.09-2.32-1.76-1.25-6.37-3.73-2.08L148,359.73l2.17-6.29,3.7-3-.37-4.3-4-1.6,1-1.22-2.11-1.18-4.93-10.31,2-7.49,2.75-1,.52-4.68Z"/><path class="cls-1" d="M180.23,223.08l9.52,1.79,7.26,4,8.16-1.52,2.29,6.83,4.21,2.88,1.77,5.41,9.67,4.59.26,7.22-2.12,1.19,1.92,4.94-2.84,3.82-2.68,15.13,3.2,11.57,9.81,3.23-.68,2.58,5.51,4.78.78,4.93,1.39-.42.69,3.18,9.55,10.21,7.26,1.06,5,6.38,3.6,1.42,4.17,7.68,2.71,11.56,7.65,6.16.45,2.58,6.25,3.86,6.39.12,12.07-6.73L308,349l1.21.85-3.85,3.32,1.54,5.95-2.55,5.16-10.15,11.13-3.16.7-8.87,8L279.3,391l-3.95-2.84-3.65-.05-5.82,4.27-.26,2.84L262,397.92l-5.73.95-12.11,6-3.54,4.89-17.55,9.05-5.77-1.12-6.3,6.76-13.92,5.57-3.29.15,2.35-8.4-8.52-.73-2.35-10.29,1.16-5.23,2.32-1-1.29-3.5,7.85-7.45,4.51-.42-2-3.38-3.61-2-10-1.44.5-4.56-3.35-1.53-.79-4.11-5.6-2.77-.48-4.75-2.17-.86,1.3-8.41L165,353.59l.87-3.58-3.32-4.26-.45-7.11-2.26-.75-1.33-4.18-3.26-1.92L152.83,322l-1.47.93-.76-3.55-1.85-.62,4.88-2.75-1.44-3.38,3-2.45-3-2.88-.46-6.22-3.69-6,.53-1.76-2.14-.08,1-2.8-2.21-2.12,1.95-2,.12-7.86,2.39-6.08-12.36-17.6,26.74-21,14.44-18.17Z"/><path class="cls-1" d="M379.43,272.68l3.11-1.31,2.84,3.34,9.48,1.85,2.67,6.42,13.28,4,4.12,5.37,4.59-1.53,6.15,2.86,9.43-.65.81,1.93,10,5.86,9.8.61,3.29,2.78,5.49-1.19,2.81,1.56-12.82,20.3,5.13,2.38,2.28-.66,3.63,2.59L474,325l3.36,1.19,18.34,21.08-1,6.83-3.81,2.23.08-2.27L489,353l2.11-1-3-.38-.73-1.72-.63,1.59-1.93-.58.2,3-2.38,1.65-1-3.38-2.52.56.64-1.95-2.26.82-1-1.6,1.57-1.62-.44-3.36-1.8-1.3-1,2-2.08-2.41-3-.2-.12,1.71-2.74-.1-1.11,2.09-.14-2.62-2.34-.81-1.13,4.09.4-2-3.14,1,.26-3.44-1.48-.12-2.06,4.36L452,344.59l-4.66,3.2,1.45.67-2.57,1.16,1,1.56-5,5.66-3.08-2.09L439,357l-2.37.73-.58-1.73-1.51,1.47-.69-1.2-1.3,1.95-1.78-1.49-2.51,2.3-.42-2.44-1.14,1.52-2.55-1.22-.31,3-2.41-1.12.59,2.42-2-2-2.44.09-2.34,2.66,1.16-2.22-3.56-.1-.27,1.26-1.32-1.05.7,2.61-2.36-1.2L406,364.77l-1.67-.88.94-2.47-1.73,1.95-.35-1.73-.19,1.63-2.67.49-2.39-2.32-.92,2-1-1.17-4.34,2.41-2.25-.61,1.19,1.19-1.83-.45-1.55,4.31-2.57.07-.67,2-2-1.22-4.51,6-.83-1.2-2.83,2.8-3.45.14,0,1.45-1.52.29.18-1.44-2.63.55.17,1.75-2.35-.56-.77,3.82-2.17.17-.51,1.9-2.13-1.08,1,1.34-1.67,1.92-2.14-1-.05,1.48-4.74,1.87-.66,3.14h-5.8l-.66,2-4.28.77-.28,2.25L334.6,397l-10.1-6.49L317,388.89l7.31-9.86-1.49-5.14,5.13-3.44,1.12-6.4,4.36-2.63,8,1.38,1.71-6,6.75.82,1.62-2.32-1.4-2.81,4.84-.53,2.28,1.39,6-6.05L360.54,345l2.23-6,7.73-6.22L367.74,319l7.09-4.65,3.11-5.66L373.88,306l-.36-2.5-5.18-6.07-6.16-3.29-3.95-7.31-4-1.7-1-9.63,7.54-2.68,10.1-.13,3.6-2.16Z"/><path class="cls-1" d="M306.91,361.23l8.64,9.92,5.56,3.44,1.68-.7,1.49,5.14L317,388.89l7.53,1.65,13.25,7.52-1.8,1.48,1.49,5.74-5.36,10.64,1.11,4.1-1.91,3.91.79,2.4-1.44.23L327,433.87l-5.39,4-1.89,7.48-2.81,2.12-.45,5.76,7.73,14-1.66,5.67-2.88.68-2.15,3.59-6.83.24-2.09,2.66-7.91,2.26-9.49,8.55-2.78,5.37.09,6.49L286.26,506l4.54,6,1.14,4.58-3.21,2.31-3.7-.8-2.24,2.73L278,519.09l2.26,6.07-1.77,3.54-3.72-1-1.56-3.62-7.73-4.91-8.09-.56-7.31-2.72-4.73-7.23-5,1.07-.41,3,1.43.9L240,516.19l-3.82.95-6.24-1.55-2.55-3.23,1.58-4.14-1.34-2.12,4.27-7.59-5-7-.61-6.48-3-2.64-1-8.59,4.09-6.63,1.58-9.86,9.66-10.46.15-4.16-4.67-1.81.79,4.08-1.42.75-2.31-3,1.07-1.89-5-3-7.62,7.44L210.8,449l-7.38,1.5-4-1L192,451.7l-2.27-6.44,3.2-7.47-1.47-4,2.28-3.63,9.34-1.87,7.87-3.85,6.3-6.76,5.77,1.12,17.55-9.05,3.54-4.89,12.11-6,5.73-.95,3.64-2.68.26-2.84,5.82-4.27,3.65.05L279.3,391l2.9-6.92,8.87-8,3.67-1.16,9.64-10.67.6-3.15Z"/><path class="cls-1" d="M230.26,440.77l2.49,5.07,1.17-.95-1-3.85,4.66,1.35.08,4.45L228,457.35l-1.58,9.86-4.09,6.63,1,8.59,3,2.64.61,6.48,5,7-4.27,7.59,1.34,2.12-1.58,4.14,2.55,3.23,6.91,1.54,4.5-2.79-.83-4.69,5.53-.43,2.08,4.78-6.29,9.32-1.56,6.48,3.73,4.55.27,4.93,3,3.05-2.89,1.77-3.18,6.75-14,7.86-5.33-6.26-2.78-1L213,553l-5,9.35-6-1.15-5.11,2.48-3.86,8.72,4.93,6.37-8.32-.38-2.49-2-3.77.82-1.59,3.47-4.51,1.37,1.14,1.87-2.1,4.89-7,4.32-1.84-4.32.67-9.6,1.37-1.76L167.18,572l3.27-1.25.69-2.68L169,559.66l5.83-2.27.84-4.7-1.6-2.86-7.34,1.77,1-2.43L160.85,539l1.2-7.55-7.4-10.31.13-4.64,11-12.65.14-4.15-2.39-3.51,2.25-2.59-2.26-4.24,11.35-.84,7.79,3.92,2.24-2.72,2.33,1.2,5.68-3,.53-12.78L190.9,464l2.93-3.64.5-4.23L192,451.7l7.43-2.2,4,1,7.38-1.5,7.83-3.69,7.62-7.44Z"/><path class="cls-1" d="M139.24,259.21l6.1,5.69-.5,1.55,4.8,5.94-2.39,6.08-.12,7.86-1.95,2,2.21,2.12-1,2.8,2.14.08-.53,1.76,3.69,6,.46,6.22,3,2.88-3,2.45,1.44,3.38-5,2.63-.24,4.27-3,1.32-1.73,4.64.23,5,4.47,8.28,2.08,1.13-1,1.22,4,1.49.57,3.45-5,5.93.64,1.86-1.65,2.5,2.23,4.44,3.73,2.08,1.25,6.37,2.32,1.76-.22,4.09,3.57.53,1.7,2.41,2.44-1,5.49,5.25,9.29,5.08.32,1.86-3-1.09-4.64,1.63-1.64-1.47v3.44l-5.7.87-8.7-4.55-13,1.93-1.79-3.59L142,394l-4.44,6.66,1.07,2.72-5.27-.46,1.61,5.91-2.7,1.71-.81,5.19-3.41,1.6L125,414.28l-4,3.41-1,1.83,2.17,3.41-1.88,2.41,1.63-.06.29,2.77-2.86.34-1.73,2.81-5.51-4.32-11.25-1.78L99.27,423l-5.73.47-1.89-2-3.57,1.38-3.66-2,.66-2-3.59-5.13-2,2.11-5.61-3,.74-6.2-3-4.58L74,399.48l-6.84-4.14L67,392.23l3.61-4.46-2.22-6.85.52-4.36,6.38-6.22.93-6.11,3.62-2.08,1.13-3.24L80,349.65l2.6-15.78-1.29-4.68L76.38,324l2-4-.23-4.65L72.87,311l-3.06-6.19L69,285.48l-1.61-4L132,259l5.32-4.22,1.68,1.09Z"/><path class="cls-1" d="M227,167.92l-3.63-1.73-1.8-3.76-11.44-4.71.82-1.17-3.21-3,0-7.27-1.24.52-3.31-4.38-3.43-1L192,127.62l-4.35.63.17-4.46,5,.21,6,3,2.3-1.31,2.83.78,7.21-6.63,11.28,6.26,4.38,4.54,2.41-.18,2.13-2.43,1.45.68,3,7.75,2.43-.71,1.13,2.39,2.83-1.25-.32,1.5,4.75,4.79,5.61,1.65.06,3.08,1.6-.62,1.19,6.05L257,155l-1.91,2.82,3.27,1.18-.22,2,1.81-.83-.09,2.57,2.16-.36-1.3,3.33-2.76,0,2.27,1.1.6,4.5,11.08,3.85,2.24-2.62.64,4.79,2.69-.55v2.53l2.84-.4,2.85,6,4.51,1.49,1.6-3.24.69,2.51,6.06.76,3.87,8-1.92.89,5.25,3.27-.07,4.7,1.8.28L301,210.88l3.83,1.59,1.51,2.85,2.63-.76,3.59,2.81,1.24-2.71,3.29,1.37.73-2.89,1.9,3.23,2.11-.28-.16,3.2,2.33,1.34,0,10.31,2,.7-3.28,5.11-2.2.55.15,2,2.72,3.16-.28,2,3-.48.33,2.39L328,244l1.58,2.35,2.2-.9,2.28,4.27-.61,1.93,8.57-3.85,1.67,2.32,2.08-2.06,1.44,3.42,3.35-5.21,5.6,3.83,4.84.6,1.06-1.25,2,4.07,6.12-1.67.6-1.52,4.3.07,1.08,2.08.24-3.48,5.26-3.89,2.11,1.85,4.77.51-.68-3.59,2.74,0,2.83-6.61,1.83.76,3.63-3.51.52,4.72,4.1-1.45,7,2.67,1,5.63,1.14-.66-.84-3.39,2-.21,3.37,4,.09,3.27,6.67-4,.23,1.32,1.81-1.14,3.22,2.3,3-5.37,3.63-.54L439,243.4l-1.23-3.92,1-1.29,3.43,2.54,3.57-1.7,1.95,3.68L456.8,246l-.47,2.82,2.76-.38.36,4.61,3.64-.65-2.29-2.28,1.22-.46,3.46,3,2.25-.86,2.21,3.76,3.63-1.91,3.33.69-3,3.37,6.06-.76,1.55,5.35,2.77-.66,1.67,3.62,2.75-2.93,1.36,6-22.77,36.29L464.45,303,459,304.17l-3.29-2.78-9.8-.61-10-5.86L435.1,293l-9.43.65-6.15-2.86-4.59,1.53-4.12-5.37-13.28-4-2.44-6.29-9.71-2-2.84-3.34L379,272.63l-4.49-2.15-3.8,2.19-9.9.1-6.09,2.49-18.91,1.58-9.48-7.39-3.36-.49-1-3.44-11.73-5.69-2-3.78,1.46-3.31-2-1.89-8.47-3.95-4-3.69-4.47-.47-2.22-4.27,1.07-3.06-2.75-1.89-1.09-5.12L279.57,226l4.63-7.25.72-8.45-3.43-.74-6.44-8.64-4.47-.2-5.91-4L251.19,194l-5.44-2.9L234,175.37l-4.86-2Z"/><text class="cls-2" transform="translate(312.49 151.96)">Putum<tspan class="cls-3" x="35.06" y="0">ay</tspan><tspan x="47.02" y="0">o</tspan></text><text class="cls-4" transform="translate(331.01 172.49)"><tspan xml:space="preserve"> 0 p</tspan><tspan class="cls-5" x="24.52" y="0">r</tspan><tspan class="cls-3" x="29.73" y="0">o</tspan><tspan class="cls-6" x="38.1" y="0">y</tspan><tspan x="45.53" y="0">ec</tspan><tspan class="cls-7" x="61.46" y="0">t</tspan><tspan x="66.31" y="0">os</tspan></text><line class="cls-8" x1="307.92" y1="148.63" x2="306.51" y2="150.05"/><line class="cls-9" x1="303.8" y1="152.78" x2="272.56" y2="184.26"/><line class="cls-8" x1="271.2" y1="185.62" x2="269.79" y2="187.04"/><circle class="cls-10" cx="269.35" cy="187.52" r="1.57"/><circle class="cls-10" cx="308.22" cy="148.31" r="1.57"/><path class="cls-11" d="M319.79,168h1.31l.2-1,.17,0a4,4,0,0,0,1-.42l.14-.08.86.52.92-1-.56-.84.09-.15a3.52,3.52,0,0,0,.39-1l0-.16,1-.24v-1.32l-1-.2,0-.17a4.18,4.18,0,0,0-.42-1l-.08-.14.52-.85-1-.93-.84.56-.15-.08a3.55,3.55,0,0,0-1-.4l-.16,0-.24-1h-1.32l-.2,1-.17,0a3.74,3.74,0,0,0-1,.41l-.14.09-.84-.54-.92.94.56.85-.08.14a3.74,3.74,0,0,0-.4,1l0,.16-1,.24v1.32l1,.2,0,.17a3.55,3.55,0,0,0,.41,1l.08.14-.52.86,1,.92.85-.56.14.09a4,4,0,0,0,1,.4l.17,0Zm2.59-4.93a2,2,0,1,1-2-2A2,2,0,0,1,322.38,163Z"/><path class="cls-11" d="M326.06,174.48H327l.14-.69.12,0a2.77,2.77,0,0,0,.69-.29l.09-.06.61.37.65-.67-.4-.59.06-.11a2.5,2.5,0,0,0,.28-.7l0-.11.69-.17v-.93l-.69-.14,0-.12a2.57,2.57,0,0,0-.29-.68l-.06-.1.37-.6-.67-.65-.59.39-.11-.06a2.57,2.57,0,0,0-.69-.28l-.12,0-.17-.69H326l-.15.69-.11,0a2.54,2.54,0,0,0-.69.3l-.1.05-.59-.37-.65.66.39.59-.06.11a2.94,2.94,0,0,0-.28.69l0,.12-.69.17v.93l.69.14,0,.12a2.57,2.57,0,0,0,.29.68l.06.1-.37.6.67.65.59-.39.1.06a2.63,2.63,0,0,0,.7.28l.12,0Zm1.82-3.47a1.41,1.41,0,1,1-1.41-1.41A1.41,1.41,0,0,1,327.88,171Z"/><rect class="cls-12" x="318.26" y="161.11" width="2.36" height="11.25" transform="translate(211.46 -177.05) rotate(45)"/><polygon class="cls-13" points="312.49 175.13 314.63 169.87 317.97 173.22 312.49 175.13"/><rect class="cls-12" x="319.93" y="162.78" width="2.36" height="11.25" transform="translate(213.13 -177.74) rotate(45)"/><rect class="cls-14" x="325.77" y="158.36" width="2.7" height="4.73" transform="translate(672.08 43.07) rotate(135)"/><rect class="cls-15" x="323.86" y="160.27" width="2.7" height="4.73" transform="translate(670.17 47.68) rotate(135)"/><text class="cls-2" transform="translate(73.22 149.44)">M<tspan class="cls-3" x="10.38" y="0">a</tspan><tspan x="16.72" y="0">ynas</tspan></text><text class="cls-4" transform="translate(91.75 169.97)"><tspan xml:space="preserve"> 0 p</tspan><tspan class="cls-5" x="24.52" y="0">r</tspan><tspan class="cls-3" x="29.73" y="0">o</tspan><tspan class="cls-6" x="38.1" y="0">y</tspan><tspan x="45.53" y="0">ec</tspan><tspan class="cls-7" x="61.46" y="0">t</tspan><tspan x="66.31" y="0">os</tspan></text><line class="cls-8" x1="180.56" y1="169.96" x2="181.98" y2="171.37"/><line class="cls-9" x1="184.72" y1="174.09" x2="216.19" y2="205.32"/><line class="cls-8" x1="217.56" y1="206.68" x2="218.98" y2="208.09"/><circle class="cls-10" cx="219.46" cy="208.53" r="1.57"/><circle class="cls-10" cx="180.24" cy="169.66" r="1.57"/><line class="cls-8" x1="127.81" y1="235.65" x2="129.23" y2="237.06"/><line class="cls-9" x1="131.97" y1="239.78" x2="163.44" y2="271.01"/><line class="cls-8" x1="164.81" y1="272.37" x2="166.23" y2="273.78"/><circle class="cls-10" cx="166.71" cy="274.23" r="1.57"/><circle class="cls-10" cx="127.5" cy="235.36" r="1.57"/><line class="cls-8" x1="79.25" y1="431.35" x2="79.23" y2="429.35"/><line class="cls-16" x1="79.21" y1="425.28" x2="79.07" y2="402.95"/><line class="cls-8" x1="79.05" y1="400.91" x2="79.04" y2="398.91"/><circle class="cls-10" cx="79.02" cy="398.26" r="1.57"/><circle class="cls-10" cx="79.26" cy="431.78" r="1.57"/><line class="cls-8" x1="391.07" y1="345" x2="391.09" y2="347"/><line class="cls-9" x1="391.12" y1="350.86" x2="391.45" y2="395.2"/><line class="cls-8" x1="391.47" y1="397.13" x2="391.48" y2="399.13"/><circle class="cls-10" cx="391.51" cy="399.78" r="1.57"/><circle class="cls-10" cx="391.05" cy="344.57" r="1.57"/><path class="cls-11" d="M80.53,165.44h1.3l.2-1,.17,0a4.18,4.18,0,0,0,1-.42l.14-.08.85.52.92-.95-.55-.84.08-.15a3.55,3.55,0,0,0,.4-1l0-.16,1-.24,0-1.32-1-.2,0-.17a4.58,4.58,0,0,0-.41-1l-.09-.14.53-.85-1-.92-.85.55-.14-.08a3.74,3.74,0,0,0-1-.4l-.16,0-.23-1-1.33,0-.2,1-.17,0a3.9,3.9,0,0,0-1,.41l-.15.09-.84-.54-.91.94.56.85-.09.15a3.88,3.88,0,0,0-.4,1l0,.16-1,.24,0,1.32,1,.2,0,.17a4,4,0,0,0,.42,1l.08.14-.52.86.94.92.85-.56.14.09a4.1,4.1,0,0,0,1,.4l.16,0Zm2.59-4.93a2,2,0,1,1-2-2A2,2,0,0,1,83.12,160.51Z"/><path class="cls-11" d="M86.8,172h.91l.15-.69.11,0a2.49,2.49,0,0,0,.69-.29l.1-.06.6.37.65-.67-.39-.59.06-.11a2.94,2.94,0,0,0,.28-.69l0-.12.69-.17V168l-.69-.15,0-.11a2.49,2.49,0,0,0-.29-.69l-.06-.1.37-.6-.67-.65-.59.39-.1-.06a2.63,2.63,0,0,0-.7-.28l-.12,0-.16-.69h-.93l-.14.69-.12,0a3.07,3.07,0,0,0-.69.3l-.1,0-.59-.37-.65.66.4.6-.06.1a2.5,2.5,0,0,0-.28.7l0,.11-.69.17V169l.69.14,0,.12a2.57,2.57,0,0,0,.29.68l.06.1-.37.61.67.64.59-.39.11.06a2.57,2.57,0,0,0,.69.28l.12,0Zm1.82-3.47a1.41,1.41,0,1,1-1.41-1.41A1.41,1.41,0,0,1,88.62,168.49Z"/><rect class="cls-12" x="78.99" y="158.59" width="2.36" height="11.25" transform="translate(139.6 -8.6) rotate(45)"/><polygon class="cls-13" points="73.22 172.61 75.36 167.35 78.71 170.7 73.22 172.61"/><rect class="cls-12" x="80.67" y="160.26" width="2.36" height="11.25" transform="translate(141.27 -9.29) rotate(45)"/><rect class="cls-14" x="86.5" y="155.84" width="2.7" height="4.73" transform="translate(261.84 207.96) rotate(135)"/><rect class="cls-15" x="84.59" y="157.75" width="2.7" height="4.73" transform="translate(259.93 212.57) rotate(135)"/><text class="cls-2" transform="translate(54.69 204.03)">Lo<tspan class="cls-17" x="13.04" y="0">r</tspan><tspan x="16.97" y="0">e</tspan><tspan class="cls-18" x="23.17" y="0">t</tspan><tspan x="26.91" y="0">o</tspan></text><text class="cls-4" transform="translate(73.22 224.55)"><tspan xml:space="preserve"> 1 p</tspan><tspan class="cls-5" x="24.52" y="0">r</tspan><tspan class="cls-3" x="29.73" y="0">o</tspan><tspan class="cls-6" x="38.1" y="0">y</tspan><tspan x="45.53" y="0">ec</tspan><tspan class="cls-7" x="61.46" y="0">t</tspan><tspan x="66.31" y="0">o</tspan></text><path class="cls-11" d="M62,220h1.3l.2-1,.17,0a3.74,3.74,0,0,0,1-.41l.14-.08.85.52.92-.95-.55-.85.08-.14a3.68,3.68,0,0,0,.4-1l0-.17,1-.23,0-1.32-1-.21,0-.16a3.48,3.48,0,0,0-.41-1l-.09-.14.53-.86-1-.92-.85.56-.14-.09a3.78,3.78,0,0,0-1-.39l-.17,0-.23-1H61.84l-.2,1-.16,0a3.86,3.86,0,0,0-1,.42l-.15.08-.84-.54-.91,1,.56.84-.09.15a4,4,0,0,0-.4,1l0,.16-1,.24,0,1.32,1,.21,0,.16a4,4,0,0,0,.42,1l.08.14-.52.86.94.92.85-.56.15.08a3.27,3.27,0,0,0,1,.4l.16,0Zm2.59-4.93a2,2,0,1,1-2-2A2,2,0,0,1,64.59,215.09Z"/><path class="cls-11" d="M68.27,226.54h.91l.15-.69.11,0a2.49,2.49,0,0,0,.69-.29l.1-.05.6.36.65-.66-.39-.6.06-.1a3,3,0,0,0,.28-.7l0-.11.69-.17v-.93l-.69-.14,0-.12a2.77,2.77,0,0,0-.29-.69l-.06-.1.37-.6-.66-.65-.6.4-.1-.06a2.33,2.33,0,0,0-.7-.28l-.11,0-.17-.69h-.93l-.14.69-.12,0a2.62,2.62,0,0,0-.69.29l-.1.06-.59-.38-.65.67.4.59-.06.1a2.63,2.63,0,0,0-.28.7l0,.12-.69.16v.93l.69.14,0,.12a2.62,2.62,0,0,0,.29.69l.06.1-.37.6.67.65.59-.39.11,0a2.28,2.28,0,0,0,.69.28l.12,0Zm1.82-3.46a1.41,1.41,0,1,1-1.41-1.41A1.41,1.41,0,0,1,70.09,223.08Z"/><rect class="cls-12" x="60.46" y="213.17" width="2.36" height="11.25" transform="translate(172.77 20.49) rotate(45)"/><polygon class="cls-13" points="54.69 227.19 56.83 221.94 60.18 225.28 54.69 227.19"/><rect class="cls-12" x="62.14" y="214.84" width="2.36" height="11.25" transform="translate(174.44 19.8) rotate(45)"/><rect class="cls-14" x="67.97" y="210.43" width="2.7" height="4.73" transform="translate(268.81 314.24) rotate(135)"/><rect class="cls-15" x="66.06" y="212.34" width="2.7" height="4.73" transform="translate(266.9 318.85) rotate(135)"/><text class="cls-2" transform="translate(41.93 445.19)">Datem del<tspan x="0" y="14.4">Ma</tspan><tspan class="cls-19" x="16.81" y="14.4">r</tspan><tspan x="20.61" y="14.4">añón</tspan></text><text class="cls-4" transform="translate(60.46 479.51)"><tspan xml:space="preserve"> 3 p</tspan><tspan class="cls-5" x="24.52" y="0">r</tspan><tspan class="cls-3" x="29.73" y="0">o</tspan><tspan class="cls-6" x="38.1" y="0">y</tspan><tspan x="45.53" y="0">ec</tspan><tspan class="cls-7" x="61.46" y="0">t</tspan><tspan x="66.31" y="0">os</tspan></text><path class="cls-11" d="M49.24,475h1.3l.2-1,.17,0a4.18,4.18,0,0,0,1-.42l.14-.08.86.52.92-1-.56-.84.08-.15a3.55,3.55,0,0,0,.4-1l0-.16,1-.24v-1.32l-1-.2,0-.17a3.74,3.74,0,0,0-.41-1l-.08-.14.52-.85-1-.92-.85.55-.14-.08a3.68,3.68,0,0,0-1-.4l-.17,0-.23-1-1.32,0-.21,1-.16,0a3.48,3.48,0,0,0-1,.41l-.14.09-.84-.54-.92.94.56.85-.09.15a3.52,3.52,0,0,0-.39,1l0,.16-1,.24v1.32l1,.2,0,.17a4,4,0,0,0,.42,1l.08.14-.52.86.94.92.85-.56.15.09a3.88,3.88,0,0,0,1,.4l.16,0Zm2.59-4.93a2,2,0,1,1-2-2A2,2,0,0,1,51.83,470.05Z"/><path class="cls-11" d="M55.51,481.5h.91l.15-.69.11,0a2.49,2.49,0,0,0,.69-.29l.1-.06.6.37.65-.67-.39-.59.06-.11a2.57,2.57,0,0,0,.28-.69l0-.12.69-.17v-.92l-.7-.15,0-.11a2.89,2.89,0,0,0-.3-.69l0-.1.36-.6-.66-.65-.6.39-.1-.06a2.63,2.63,0,0,0-.7-.28l-.11,0-.17-.69H55.4l-.14.69-.12,0a3.28,3.28,0,0,0-.69.3l-.1.05-.59-.37-.64.66.39.6-.06.1a2.5,2.5,0,0,0-.28.7l0,.11-.69.17v.93l.69.14,0,.12a3,3,0,0,0,.29.68l.06.1-.37.61.67.64.6-.39.1.06a2.5,2.5,0,0,0,.7.28l.11,0ZM57.33,478a1.41,1.41,0,1,1-1.41-1.41A1.41,1.41,0,0,1,57.33,478Z"/><rect class="cls-12" x="47.71" y="468.13" width="2.36" height="11.25" transform="translate(349.31 104.19) rotate(45)"/><polygon class="cls-13" points="41.93 482.15 44.07 476.89 47.42 480.24 41.93 482.15"/><rect class="cls-12" x="49.38" y="469.8" width="2.36" height="11.25" transform="translate(350.98 103.5) rotate(45)"/><rect class="cls-14" x="55.21" y="465.38" width="2.7" height="4.73" transform="translate(427.31 758.5) rotate(135)"/><rect class="cls-15" x="53.31" y="467.29" width="2.7" height="4.73" transform="translate(425.4 763.11) rotate(135)"/><line class="cls-8" x1="199.78" y1="592.89" x2="199.77" y2="590.89"/><line class="cls-20" x1="199.75" y1="586.7" x2="199.59" y2="555.23"/><line class="cls-8" x1="199.58" y1="553.14" x2="199.57" y2="551.14"/><circle class="cls-10" cx="199.55" cy="550.48" r="1.57"/><circle class="cls-10" cx="199.79" cy="593.33" r="1.57"/><text class="cls-2" transform="translate(180.49 607.02)">Uc<tspan class="cls-3" x="14.07" y="0">ay</tspan><tspan x="26.02" y="0">ali</tspan></text><text class="cls-4" transform="translate(199.02 626.87)"><tspan xml:space="preserve"> 0 p</tspan><tspan class="cls-5" x="24.52" y="0">r</tspan><tspan class="cls-3" x="29.73" y="0">o</tspan><tspan class="cls-6" x="38.1" y="0">y</tspan><tspan x="45.53" y="0">ec</tspan><tspan class="cls-7" x="61.46" y="0">t</tspan><tspan x="66.31" y="0">os</tspan></text><path class="cls-11" d="M187.8,622.34h1.3l.21-1,.16,0a4,4,0,0,0,1-.42l.14-.08.86.52.92-1-.56-.84.08-.15a3.27,3.27,0,0,0,.4-1l0-.16,1-.24v-1.32l-1-.2,0-.17a3.74,3.74,0,0,0-.41-1l-.08-.14.52-.85-1-.92-.84.55-.15-.08a3.68,3.68,0,0,0-1-.4l-.16,0-.24-1-1.32,0-.21,1-.16,0a4.58,4.58,0,0,0-1,.41l-.14.09-.84-.54-.92.94.56.85-.09.15a3.52,3.52,0,0,0-.39,1l0,.16-1,.24v1.32l1,.2,0,.17a4,4,0,0,0,.42,1l.08.14-.52.86.95.92.84-.56.15.09a3.88,3.88,0,0,0,1,.4l.16,0Zm2.59-4.93a2,2,0,1,1-2-2A2,2,0,0,1,190.39,617.41Z"/><path class="cls-11" d="M194.07,628.86H195l.14-.69.12,0a2.57,2.57,0,0,0,.68-.29l.1-.06.61.37.64-.67-.39-.59.06-.11a2.57,2.57,0,0,0,.28-.69l0-.12.69-.17v-.92l-.69-.15,0-.11a2.54,2.54,0,0,0-.3-.69l0-.1.36-.6-.66-.65-.6.39-.1-.06a2.5,2.5,0,0,0-.7-.28l-.11,0-.17-.7H194l-.14.7-.12,0a3,3,0,0,0-.68.3l-.11.06-.59-.38-.64.66.39.6-.06.1a2.5,2.5,0,0,0-.28.7l0,.11L191,625v.93l.69.14,0,.12a3,3,0,0,0,.3.68l.05.1-.36.61.66.64.6-.39.1.06a2.5,2.5,0,0,0,.7.28l.11,0Zm1.82-3.47a1.41,1.41,0,1,1-1.41-1.41A1.41,1.41,0,0,1,195.89,625.39Z"/><rect class="cls-12" x="186.27" y="615.49" width="2.36" height="11.25" transform="translate(494.1 49.37) rotate(45)"/><polygon class="cls-13" points="180.49 629.51 182.64 624.25 185.98 627.6 180.49 629.51"/><rect class="cls-12" x="187.94" y="617.16" width="2.36" height="11.25" transform="translate(495.77 48.68) rotate(45)"/><rect class="cls-14" x="193.78" y="612.74" width="2.7" height="4.73" transform="translate(768.05 912.08) rotate(135)"/><rect class="cls-15" x="191.87" y="614.65" width="2.7" height="4.73" transform="translate(766.14 916.69) rotate(135)"/><line class="cls-8" x1="78.67" y1="570.41" x2="79.92" y2="568.84"/><line class="cls-21" x1="82.45" y1="565.67" x2="177.59" y2="446.49"/><line class="cls-8" x1="178.86" y1="444.9" x2="180.1" y2="443.33"/><circle class="cls-10" cx="180.08" cy="442.68" r="1.57"/><circle class="cls-10" cx="78.69" cy="570.84" r="1.57"/><text class="cls-2" transform="translate(59.38 584.54)">Al<tspan class="cls-18" x="10.18" y="0">t</tspan><tspan x="13.92" y="0">o Ama</tspan><tspan class="cls-22" x="48.12" y="0">z</tspan><tspan x="53.86" y="0">onas</tspan></text><text class="cls-4" transform="translate(77.91 604.38)"><tspan xml:space="preserve"> 0 p</tspan><tspan class="cls-5" x="24.52" y="0">r</tspan><tspan class="cls-3" x="29.73" y="0">o</tspan><tspan class="cls-6" x="38.1" y="0">y</tspan><tspan x="45.53" y="0">ec</tspan><tspan class="cls-7" x="61.46" y="0">t</tspan><tspan x="66.31" y="0">os</tspan></text><path class="cls-11" d="M66.69,599.85H68l.2-1,.16,0a3.48,3.48,0,0,0,1-.41l.14-.08.86.52.92-1-.56-.84.09-.15a3.65,3.65,0,0,0,.39-1l0-.16,1-.24v-1.32l-1-.21,0-.16a4,4,0,0,0-.42-1l-.08-.14.52-.86-1-.92-.84.56-.15-.08a3.27,3.27,0,0,0-1-.4l-.16,0-.24-1H66.54l-.2,1-.17,0a3.74,3.74,0,0,0-1,.41l-.14.08-.84-.53-.92.94.56.85-.08.14a3.68,3.68,0,0,0-.4,1l0,.17-1,.23v1.32l1,.21,0,.16a3.48,3.48,0,0,0,.41,1l.08.14-.52.86,1,.92.84-.56.15.09a3.65,3.65,0,0,0,1,.39l.17,0Zm2.59-4.92a2,2,0,1,1-2-2A2,2,0,0,1,69.28,594.93Z"/><path class="cls-11" d="M73,606.37h.92l.14-.68.12,0a3.28,3.28,0,0,0,.69-.3l.09-.05.61.36.65-.66-.4-.6.06-.1a2.5,2.5,0,0,0,.28-.7l0-.11.69-.17v-.93l-.69-.14,0-.12a2.77,2.77,0,0,0-.29-.69l-.06-.09.37-.61-.67-.65-.59.4-.11-.06a2.57,2.57,0,0,0-.69-.28l-.12,0-.17-.69h-.93l-.14.69-.12,0a2.57,2.57,0,0,0-.68.29l-.1.06-.59-.38-.65.67.39.59-.06.1a3,3,0,0,0-.28.7l0,.12-.69.16v.93l.69.15,0,.11a2.49,2.49,0,0,0,.29.69l.06.1-.37.6.67.65.59-.39.1.06a3,3,0,0,0,.7.28l.12,0Zm1.82-3.46a1.41,1.41,0,1,1-1.41-1.41A1.41,1.41,0,0,1,74.78,602.91Z"/><rect class="cls-12" x="65.16" y="593" width="2.36" height="11.25" transform="translate(442.73 128.42) rotate(45)"/><polygon class="cls-13" points="59.38 607.02 61.53 601.77 64.87 605.11 59.38 607.02"/><rect class="cls-12" x="66.83" y="594.68" width="2.36" height="11.25" transform="translate(444.4 127.73) rotate(45)"/><rect class="cls-14" x="72.67" y="590.26" width="2.7" height="4.73" transform="translate(545.4 959.34) rotate(135)"/><rect class="cls-15" x="70.76" y="592.17" width="2.7" height="4.73" transform="translate(543.5 963.94) rotate(135)"/><text class="cls-2" transform="translate(361.55 418.08)">Mariscal Ramón Castilla</text><text class="cls-4" transform="translate(380.08 438.61)"><tspan xml:space="preserve"> 0 p</tspan><tspan class="cls-5" x="24.52" y="0">r</tspan><tspan class="cls-3" x="29.73" y="0">o</tspan><tspan class="cls-6" x="38.1" y="0">y</tspan><tspan x="45.53" y="0">ec</tspan><tspan class="cls-7" x="61.46" y="0">t</tspan><tspan x="66.31" y="0">os</tspan></text><path class="cls-11" d="M368.85,434.08h1.31l.2-1,.17,0a4,4,0,0,0,1-.42l.14-.08.86.53.92-.95-.56-.85.09-.14a4.1,4.1,0,0,0,.4-1l0-.16,1-.24,0-1.32-1-.2,0-.17a4,4,0,0,0-.42-1l-.08-.14.52-.86-.94-.92-.85.56-.15-.09a3.52,3.52,0,0,0-1-.39l-.16,0-.24-1H368.7l-.2,1-.17,0a4,4,0,0,0-1,.42l-.15.08-.84-.54-.92.95.56.84-.08.15a3.55,3.55,0,0,0-.4,1l0,.16-1,.24v1.32l1,.2,0,.17a3.74,3.74,0,0,0,.41,1l.08.14-.52.86,1,.92.85-.56.14.08a3.68,3.68,0,0,0,1,.4l.17,0Zm2.59-4.93a2,2,0,1,1-2-2A2,2,0,0,1,371.44,429.15Z"/><path class="cls-11" d="M375.12,440.6H376l.14-.69.12,0a2.77,2.77,0,0,0,.69-.29l.1-.06.6.37.65-.67-.4-.59.06-.1a2.33,2.33,0,0,0,.28-.7l0-.12.69-.16v-.93l-.69-.14,0-.12a2.49,2.49,0,0,0-.29-.69l-.06-.1.37-.6-.67-.65-.59.39-.11-.06a2.54,2.54,0,0,0-.69-.27l-.12,0-.16-.69H375l-.15.69-.11,0a2.49,2.49,0,0,0-.69.29l-.1.06-.59-.38-.65.66.39.6-.05.1a2.33,2.33,0,0,0-.28.7l0,.11-.69.17v.93l.69.14,0,.12a2.77,2.77,0,0,0,.29.69l.06.09-.37.61.67.65.59-.4.1.06a2.63,2.63,0,0,0,.7.28l.12,0Zm1.83-3.47a1.42,1.42,0,1,1-1.42-1.41A1.43,1.43,0,0,1,377,437.13Z"/><rect class="cls-12" x="367.32" y="427.23" width="2.36" height="11.25" transform="translate(414.01 -133.79) rotate(45)"/><polygon class="cls-13" points="361.55 441.25 363.69 436 367.03 439.34 361.55 441.25"/><rect class="cls-12" x="368.99" y="428.9" width="2.36" height="11.25" transform="translate(415.68 -134.48) rotate(45)"/><rect class="cls-14" x="374.83" y="424.49" width="2.7" height="4.73" transform="translate(944.01 462.68) rotate(135)"/><rect class="cls-15" x="372.92" y="426.39" width="2.7" height="4.73" transform="translate(942.1 467.29) rotate(135)"/><line class="cls-8" x1="303.85" y1="467.05" x2="304.93" y2="468.72"/><line class="cls-23" x1="306.98" y1="471.88" x2="330.48" y2="508.14"/><line class="cls-8" x1="331.5" y1="509.72" x2="332.58" y2="511.4"/><circle class="cls-10" cx="332.61" cy="512.06" r="1.57"/><circle class="cls-10" cx="303.85" cy="467.05" r="1.57"/><text class="cls-2" transform="translate(338.68 516.54)">Requena</text><text class="cls-4" transform="translate(357.21 537.06)"><tspan xml:space="preserve"> 0 p</tspan><tspan class="cls-5" x="24.52" y="0">r</tspan><tspan class="cls-3" x="29.73" y="0">o</tspan><tspan class="cls-6" x="38.1" y="0">y</tspan><tspan x="45.53" y="0">ec</tspan><tspan class="cls-7" x="61.46" y="0">t</tspan><tspan x="66.31" y="0">os</tspan></text><path class="cls-11" d="M346,532.53h1.31l.2-1,.16,0a3.48,3.48,0,0,0,1-.41l.14-.08.86.52.92-.95-.56-.84.09-.15a3.65,3.65,0,0,0,.39-1l0-.16,1-.24v-1.32l-1-.21,0-.16a4,4,0,0,0-.42-1l-.08-.14.52-.86-.95-.92-.84.56-.15-.08a3.27,3.27,0,0,0-1-.4l-.16,0-.24-1h-1.32l-.2,1-.17.05a3.74,3.74,0,0,0-1,.41l-.14.08-.84-.53-.92.94.56.85-.08.14a3.68,3.68,0,0,0-.4,1l0,.17-1,.23v1.32l1,.21,0,.16a3.48,3.48,0,0,0,.41,1l.08.14-.52.86.95.92.84-.56.15.09a3.65,3.65,0,0,0,1,.39l.17,0Zm2.59-4.92a2,2,0,1,1-2-2A2,2,0,0,1,348.58,527.61Z"/><path class="cls-11" d="M352.26,539.05h.92l.14-.68.12,0a3.28,3.28,0,0,0,.69-.3l.09,0,.61.36.65-.66-.4-.6.06-.1a2.5,2.5,0,0,0,.28-.7l0-.11.69-.17v-.93l-.69-.14,0-.12a2.77,2.77,0,0,0-.29-.69l-.06-.09.37-.61-.67-.65-.59.4-.11-.06a2.57,2.57,0,0,0-.69-.28l-.12,0-.17-.69h-.92l-.15.69-.11,0a2.49,2.49,0,0,0-.69.29l-.1.06-.59-.38-.65.67.39.59-.06.1a3,3,0,0,0-.28.7l0,.12-.69.16v.93l.69.15,0,.11a2.49,2.49,0,0,0,.29.69l.06.1-.37.6.67.65.59-.39.1.06a3,3,0,0,0,.7.28l.12,0Zm1.82-3.46a1.41,1.41,0,1,1-1.41-1.41A1.41,1.41,0,0,1,354.08,535.59Z"/><rect class="cls-12" x="344.46" y="525.68" width="2.36" height="11.25" transform="translate(476.93 -88.79) rotate(45)"/><polygon class="cls-13" points="338.69 539.7 340.83 534.45 344.17 537.79 338.69 539.7"/><rect class="cls-12" x="346.13" y="527.36" width="2.36" height="11.25" transform="translate(478.6 -89.48) rotate(45)"/><rect class="cls-14" x="351.97" y="522.94" width="2.7" height="4.73" transform="translate(974.6 646.92) rotate(135)"/><rect class="cls-15" x="350.06" y="524.85" width="2.7" height="4.73" transform="translate(972.69 651.53) rotate(135)"/><circle class="cls-24" cx="80.84" cy="385.03" r="6.43"/><circle class="cls-24" cx="97.05" cy="385.03" r="6.43"/><circle class="cls-25" cx="113.26" cy="385.03" r="6.43"/><circle class="cls-24" cx="180.08" cy="282.23" r="6.43"/></svg>