<svg id="Capa_1" data-name="Capa 1" xmlns="http://www.w3.org/2000/svg" viewBox="0 0 554 932"><defs><style>.cls-1{fill:#71c2e9;stroke:#377c9c;stroke-width:3px;}.cls-1,.cls-18{stroke-miterlimit:1.75;}.cls-13,.cls-2,.cls-3,.cls-5{fill:none;}.cls-2,.cls-3,.cls-5{stroke:#0b0c0c;}.cls-13,.cls-14,.cls-15,.cls-16,.cls-17,.cls-2,.cls-3,.cls-5{stroke-linejoin:round;}.cls-3{stroke-dasharray:3.86 3.86;}.cls-4,.cls-6,.cls-8{fill:#1d1d1b;}.cls-5{stroke-dasharray:4.2 4.2;}.cls-6{font-size:12px;font-family:Roboto-Light, Roboto;font-weight:300;}.cls-7{letter-spacing:-0.06em;}.cls-8{font-size:15px;font-family:Roboto-Bold, Roboto;font-weight:700;}.cls-9{letter-spacing:-0.02em;}.cls-10{letter-spacing:-0.01em;}.cls-11{letter-spacing:-0.01em;}.cls-12{letter-spacing:-0.01em;}.cls-13,.cls-14,.cls-15,.cls-16,.cls-17{stroke:#262626;stroke-linecap:round;stroke-width:0.5px;}.cls-14{fill:#fab637;}.cls-15{fill:#ffe7a1;}.cls-16{fill:#4ca8de;}.cls-17{fill:#cfcece;}.cls-18{fill:#afd28c;stroke:#71915a;isolation:isolate;}</style></defs><path class="cls-1" d="M135.4,296.58l10.63,4,2.82-2.28,4.53,4.38,19.25-1.74,5.11,1.33-.89,3,6.89,1.67.94,3.07,4-2.41,2.55,3.17,6.57-.57,1.1,3.94,7.68-.92,4.16,3,2.05-2L229,321.51l7.7-1.84-.9,4,6.5,1.23,4.5,6.16,30.05-3.27,6.42,8.05L295.93,339l11.47,17,35.75,16.76,10.7,1.69,3.16-3.76,6.94-1,16.32,11.51,5.48-.57,8,4.24L404,382.26l12.31,5.05,3.46-2.64L431,385l32.87,60.91-9.06,13.35,2.94,4.86-1.64,3.42L448.31,472l-3.17,10.4-3.66,1.26.26,13.23-80.18,35.19-77.22-23.34,4.93-20.31,11.05-18.18L321.61,455l-5.47-3.44-1.2-5.14L300,440.32l.16-8.88-13-20L275,405.3l-4.2,1.23-7.25-8.4-3.58,0-.56-3.67-13.7-.35-8.33-3.4-3.74-5.08-9.68-.18-3.09-5-2.4.82-3.37-10-7.62-2.8L202.89,370l-12.35-8.1.11-3.25L181,351.14l-1.36-7.81-13.34-1.68-3.77-5.74-7.35-1,.28-7-3.06,2.26-3.25-3.64L138.39,324l-2.84,5.45-5.28-1.74-7.34,3.9-12.3-1.19-1.39-4.62-5-1.3-4.58,3.26-1.53-5.63,3.31-11.49-2.07-1.3,8.87-5.56L102,301.45l-1-5.33,5.33,4.1,6.12-3Z"/><path class="cls-1" d="M138.66,324.13l10.45,2.32,3.25,3.64,3.06-2.26L155,334.7l7.54,1.21,3.77,5.74,13.34,1.68,1.36,7.81,9.69,7.55-.11,3.25,12.35,8.1,4.63-1.59,7.62,2.8,3.37,10,2.4-.82,3.09,5,9.68.18,3.74,5.08,8.33,3.4,13.7.35.56,3.67,3.58,0,7.25,8.4,4.2-1.23L285,410l8.28,7.77,6.94,13.63-.16,8.88,14.92,6.08,1.2,5.14,5.67,4-21.49,14.64L295.77,481,291,484.45l-8.19,26.19,2.88-.16.12,6.25-16.51-4-8-6.25-13.54,1.62-5.89-3.92-8.4,0,1.23,3.46-9.23,6.81-6.05,10.35-9.77-5.19-4.33-16.94,1.2-9.06-11.17-.43-9-8.4-5.88,1.37-14-19-8.85.07-11.13,8.91-23.69-11.59,2.3-3-2.59-7.59-10-8.41,1.89-6.19,8.61-4,3.15-7.11-16.38-9.38,1.15-15.77L93,399.89l1-5-8.34-4.1.89-11.27-6-2.92,2.05-4.38-5.94-7.8L89,352l1.57-15.83L96,327.07l5,1,3.2-3.62,5,1.3,1.39,4.62,12.3,1.19,7.34-3.9,5.28,1.74Z"/><path class="cls-1" d="M262.75,202.29l0,89.37,9.44-6.77,8.6,10.74L294,298.89l15.4-2.95,23.07-12.28,16.79.79,3.27,4.62L369,285.61l62.16,99.88-11.4-.82-3.46,2.64L404,382.26l-10.29,2.61-8-4.24-5.48.57L364,369.69l-6.94,1-3.16,3.76-13.91-2.77-6.38-5.37-11.08-1.75L307.4,356l-11.47-17-12.64-3.11-6.48-8.07-30,3.29-4.5-6.16-6.5-1.23,1.15-4L229,321.51l-16.25-7.25-2.05,2-4.16-3-7.68.92-1.1-3.94-6.57.57-2.55-3.17-4,2.41-.94-3.07-6.89-1.67.89-3-5.11-1.33-19.25,1.74-4.53-4.38-2.92,2.26-12-5.44-3,3.41-1.47-2.66-23.18,4.38-4-4.4-.09-4.24,5.18-2,7.54,3.21,4.47-2.39,18.7,2.47,13-3.9,35.53-2.39,8.46-10,1.44-7,3.81-.84.08-14.37,5.76-10.83,14.36-5.45,6.78-9.1-1-5.54,8.05-.05.89-7.51,8-1.11L259,197.14,257.19,186l5.52-10Z"/><line class="cls-2" x1="389.1" y1="489.8" x2="390.53" y2="491.2"/><line class="cls-3" x1="393.27" y1="493.91" x2="424.87" y2="525.02"/><line class="cls-2" x1="426.24" y1="526.37" x2="427.66" y2="527.78"/><circle class="cls-4" cx="428.15" cy="528.22" r="1.57"/><circle class="cls-4" cx="388.78" cy="489.5" r="1.57"/><line class="cls-2" x1="194.48" y1="482.44" x2="193.07" y2="483.87"/><line class="cls-5" x1="190.12" y1="486.85" x2="144.33" y2="533.14"/><line class="cls-2" x1="142.85" y1="534.64" x2="141.45" y2="536.06"/><circle class="cls-4" cx="141" cy="536.54" r="1.57"/><circle class="cls-4" cx="194.77" cy="482.12" r="1.57"/><line class="cls-2" x1="294.74" y1="234.17" x2="294.75" y2="236.17"/><line class="cls-5" x1="294.77" y1="240.37" x2="295.13" y2="305.48"/><line class="cls-2" x1="295.14" y1="307.58" x2="295.15" y2="309.58"/><circle class="cls-4" cx="295.18" cy="310.24" r="1.57"/><circle class="cls-4" cx="294.72" cy="233.74" r="1.57"/><text class="cls-6" transform="translate(299.96 237.45)"><tspan class="cls-7">T</tspan><tspan x="6.5" y="0">ahumanu</tspan></text><text class="cls-8" transform="translate(318.49 257.98)"><tspan xml:space="preserve"> 0 p</tspan><tspan class="cls-9" x="24.52" y="0">r</tspan><tspan class="cls-10" x="29.73" y="0">o</tspan><tspan class="cls-11" x="38.1" y="0">y</tspan><tspan x="45.53" y="0">ec</tspan><tspan class="cls-12" x="61.46" y="0">t</tspan><tspan x="66.31" y="0">os</tspan></text><path class="cls-13" d="M307.27,253.45h1.3l.2-1,.17-.05a3.74,3.74,0,0,0,1-.41l.13-.08.86.52.92-.95-.55-.84.08-.15a4,4,0,0,0,.4-1l0-.16,1-.24,0-1.32-1-.2,0-.17a4.18,4.18,0,0,0-.42-1l-.08-.14.53-.86-.95-.92-.85.56-.14-.08a3.74,3.74,0,0,0-1-.4l-.16,0-.24-1h-1.32l-.2,1-.17,0a3.55,3.55,0,0,0-1,.41l-.15.09-.84-.54-.91.94.55.85-.08.14a4.2,4.2,0,0,0-.4,1l0,.17-1,.23,0,1.33,1,.2,0,.16a3.86,3.86,0,0,0,.42,1l.08.14-.52.86.94.92.85-.56.14.09a3.71,3.71,0,0,0,1,.39l.16,0Zm2.59-4.93a2,2,0,1,1-2-2A2,2,0,0,1,309.86,248.52Z"/><path class="cls-13" d="M313.54,260h.91l.14-.69.12,0a3,3,0,0,0,.69-.29l.1-.06.6.37.65-.67-.39-.6.06-.1a2.48,2.48,0,0,0,.27-.7l0-.11.69-.17V256l-.69-.14,0-.12a2.57,2.57,0,0,0-.29-.68l-.06-.1.37-.61-.67-.64-.59.39-.1-.06a2.63,2.63,0,0,0-.7-.28l-.12,0-.16-.69h-.93l-.14.69-.12,0a3,3,0,0,0-.69.29l-.1.06-.59-.38-.65.67.4.59-.06.11a2.57,2.57,0,0,0-.28.69l0,.12-.69.16V257l.69.15,0,.11a2.49,2.49,0,0,0,.29.69l.06.1-.37.6.67.65.59-.39.11.06a2.94,2.94,0,0,0,.69.28l.12,0Zm1.82-3.47a1.41,1.41,0,1,1-1.41-1.41A1.41,1.41,0,0,1,315.36,256.5Z"/><rect class="cls-14" x="305.73" y="246.59" width="2.36" height="11.25" transform="translate(268.24 -143.15) rotate(45)"/><polygon class="cls-15" points="299.96 260.61 302.1 255.36 305.45 258.7 299.96 260.61"/><rect class="cls-14" x="307.4" y="248.27" width="2.36" height="11.25" transform="translate(269.91 -143.84) rotate(45)"/><rect class="cls-16" x="313.24" y="243.85" width="2.7" height="4.73" transform="translate(711.14 197.87) rotate(135)"/><rect class="cls-17" x="311.33" y="245.76" width="2.7" height="4.73" transform="translate(709.23 202.47) rotate(135)"/><text class="cls-6" transform="translate(101.43 540.31)">Manu</text><text class="cls-8" transform="translate(123.96 560.84)">1 p<tspan class="cls-9" x="20.79" y="0">r</tspan><tspan class="cls-10" x="25.99" y="0">o</tspan><tspan class="cls-11" x="34.37" y="0">y</tspan><tspan x="41.8" y="0">ec</tspan><tspan class="cls-12" x="57.73" y="0">t</tspan><tspan x="62.58" y="0">o</tspan></text><path class="cls-13" d="M108.74,556.31H110l.2-1,.17,0a4.18,4.18,0,0,0,1-.42l.14-.08.85.52.92-.94-.55-.85.08-.15a3.88,3.88,0,0,0,.4-1l0-.16,1-.24,0-1.32-1-.2,0-.17a4.18,4.18,0,0,0-.42-1l-.08-.13.53-.86-.95-.92-.85.55-.14-.08a4.1,4.1,0,0,0-1-.4l-.16,0-.24-1-1.32,0-.2,1-.17,0a4,4,0,0,0-1,.42l-.15.08-.84-.54-.91.94.55.85-.08.15a3.88,3.88,0,0,0-.4,1l0,.16-1,.24,0,1.32,1,.2,0,.17a4.18,4.18,0,0,0,.42,1l.08.13-.52.86.94.92.85-.55.14.08a4.1,4.1,0,0,0,1,.4l.16,0Zm2.59-4.93a2,2,0,1,1-2-2A2,2,0,0,1,111.33,551.38Z"/><path class="cls-13" d="M115,562.83h.91l.14-.69.12,0a2.49,2.49,0,0,0,.69-.29l.1-.06.6.37.65-.67-.39-.59.06-.11a2.54,2.54,0,0,0,.27-.69l0-.12.69-.16v-.93l-.69-.15,0-.11a2.49,2.49,0,0,0-.29-.69l-.06-.1.37-.6-.67-.65-.59.39-.1-.06a2.63,2.63,0,0,0-.7-.28l-.12,0-.16-.69h-.93l-.14.7-.12,0a2.62,2.62,0,0,0-.69.29l-.1.06-.59-.38-.65.66.4.6-.06.1a2.5,2.5,0,0,0-.28.7l0,.11-.69.17v.93l.69.14,0,.12a2.57,2.57,0,0,0,.29.68l.06.1-.37.61.67.64.59-.39.11.06a2.57,2.57,0,0,0,.69.28l.12,0Zm1.82-3.47a1.41,1.41,0,1,1-1.41-1.41A1.41,1.41,0,0,1,116.83,559.36Z"/><rect class="cls-14" x="107.2" y="549.46" width="2.36" height="11.25" transform="translate(424.25 85.94) rotate(45)"/><polygon class="cls-15" points="101.43 563.48 103.57 558.22 106.92 561.57 101.43 563.48"/><rect class="cls-14" x="108.87" y="551.13" width="2.36" height="11.25" transform="translate(425.92 85.25) rotate(45)"/><rect class="cls-16" x="114.71" y="546.71" width="2.7" height="4.73" transform="translate(586.39 855.27) rotate(135)"/><rect class="cls-17" x="112.8" y="548.62" width="2.7" height="4.73" transform="translate(584.48 859.88) rotate(135)"/><text class="cls-6" transform="translate(408.47 544.99)"><tspan class="cls-7">T</tspan><tspan x="6.5" y="0">ambopata</tspan></text><text class="cls-8" transform="translate(426.99 565.52)"><tspan xml:space="preserve"> 1 p</tspan><tspan class="cls-9" x="24.52" y="0">r</tspan><tspan class="cls-10" x="29.73" y="0">o</tspan><tspan class="cls-11" x="38.1" y="0">y</tspan><tspan x="45.53" y="0">ec</tspan><tspan class="cls-12" x="61.46" y="0">t</tspan><tspan x="66.31" y="0">o</tspan></text><path class="cls-13" d="M415.77,561h1.31l.2-1,.16,0a3.86,3.86,0,0,0,1-.42l.14-.08.86.52.92-.94-.56-.85.09-.15a3.52,3.52,0,0,0,.39-1l0-.16,1-.24v-1.32l-1-.2,0-.17a4.18,4.18,0,0,0-.42-1l-.08-.14.52-.85-.95-.92-.84.55-.15-.08a3.88,3.88,0,0,0-1-.4l-.16,0-.24-1-1.32,0-.2,1-.17,0a4.18,4.18,0,0,0-1,.42l-.14.08-.84-.54-.92.94.56.85-.08.15a3.55,3.55,0,0,0-.4,1l0,.16-1,.24v1.32l1,.2.05.17a3.55,3.55,0,0,0,.41,1l.08.14-.52.86.95.92.84-.55.15.08a4,4,0,0,0,1,.4l.17,0Zm2.59-4.93a2,2,0,1,1-2-2A2,2,0,0,1,418.36,556.06Z"/><path class="cls-13" d="M422,567.51H423l.14-.69.12,0a2.77,2.77,0,0,0,.69-.29l.09-.06.61.37.65-.67-.4-.59.06-.11a2.57,2.57,0,0,0,.28-.69l0-.12.69-.16v-.93l-.69-.15,0-.11a2.49,2.49,0,0,0-.29-.69l-.06-.1.37-.6-.67-.65-.59.39-.11-.06a2.57,2.57,0,0,0-.69-.28l-.12,0-.17-.69h-.93l-.14.7-.12,0a3,3,0,0,0-.68.3l-.1.06-.59-.38-.65.66.39.6-.06.1a2.85,2.85,0,0,0-.28.7l0,.11-.69.17v.93l.69.14,0,.12a2.57,2.57,0,0,0,.29.68l.06.1-.37.61.66.64.6-.39.1.06a2.63,2.63,0,0,0,.7.28l.11,0Zm1.82-3.47a1.41,1.41,0,1,1-1.41-1.41A1.41,1.41,0,0,1,423.86,564Z"/><rect class="cls-14" x="414.24" y="554.14" width="2.36" height="11.25" transform="translate(517.49 -129.8) rotate(45)"/><polygon class="cls-15" points="408.46 568.16 410.61 562.9 413.95 566.25 408.46 568.16"/><rect class="cls-14" x="415.91" y="555.81" width="2.36" height="11.25" transform="translate(519.16 -130.49) rotate(45)"/><rect class="cls-16" x="421.75" y="551.39" width="2.7" height="4.73" transform="translate(1113.84 646.15) rotate(135)"/><rect class="cls-17" x="419.84" y="553.3" width="2.7" height="4.73" transform="translate(1111.93 650.76) rotate(135)"/><circle class="cls-18" cx="199.63" cy="471.26" r="6.43"/><circle class="cls-18" cx="380.78" cy="478.29" r="6.43"/></svg>