<svg id="Capa_1" data-name="Capa 1" xmlns="http://www.w3.org/2000/svg" viewBox="0 0 554 932"><defs><style>.cls-1{fill:#71c2e9;stroke:#377c9c;stroke-width:3px;}.cls-1,.cls-18,.cls-19{stroke-miterlimit:1.75;}.cls-11,.cls-2,.cls-3{fill:none;}.cls-2,.cls-3{stroke:#0b0c0c;}.cls-11,.cls-12,.cls-13,.cls-14,.cls-15,.cls-2,.cls-3{stroke-linejoin:round;}.cls-3{stroke-dasharray:3.8 3.8;}.cls-4,.cls-5,.cls-6{fill:#1d1d1b;}.cls-5{font-size:12px;font-family:Roboto-Light, Roboto;font-weight:300;}.cls-6{font-size:15px;font-family:Roboto-Bold, Roboto;font-weight:700;}.cls-7{letter-spacing:-0.02em;}.cls-8{letter-spacing:-0.01em;}.cls-9{letter-spacing:-0.01em;}.cls-10{letter-spacing:-0.01em;}.cls-11,.cls-12,.cls-13,.cls-14,.cls-15{stroke:#262626;stroke-linecap:round;stroke-width:0.5px;}.cls-12{fill:#fab637;}.cls-13{fill:#ffe7a1;}.cls-14{fill:#4ca8de;}.cls-15{fill:#cfcece;}.cls-16{letter-spacing:-0.01em;}.cls-17{letter-spacing:-0.02em;}.cls-18{fill:#afd28c;stroke:#71915a;isolation:isolate;}.cls-19{fill:#ec6062;stroke:#cc444b;}</style></defs><path class="cls-1" d="M394,224.78l34.85,20.7L434,266.1l21.18,11.41,10.67-7.5,12.81,7.86,1.61,19.93-25.77,22.07-7.07,30.31-8.24,4.51-7.36-7.22-20,10.95.93-25.1,17-11.54L406.6,309l-47.34,18.84-6.62,28.42,5.93,5.4-1.5,31.69-11.58,2.6-17.33,29.25-35.09,7.24L276,467l2.72,15.5-38.95,40.13-7.58,24.92L201,534.1l-13.92-30-19.18-13.81L132,487.64l-9.6,6.12-2.25-15.66L99.62,454.27l2.74-10.74L87.25,439.9l37.56-42-4.41-15.23-18-5.58-2-10.66,62.09-21.13,28.2-39.63,63.75.91,12.86-11.45,4.21-23.33,16.46-9.68-6.71-7,12.83-7.2,57.17,2.72Z"/><path class="cls-1" d="M263.21,95.64l19.52,12.79,22.1-12.68L326,94.36l15.11,15.14,18.27-.37,10.38,30.56,21,18.21-5.73,36-10,10.15,15.58,8.74,3.3,12-42.83,25.81L294,247.87l-12.83,7.2,6.71,7-16.46,9.68-4.21,23.33-12.86,11.45-63.75-.91L161.28,346l-36.7,14-11-3.45-3.37,8.92L81.7,360.4l10.06-11.27-5.54-27.88,5.24-20.49,15.24-5.71L118.19,304l10.36-7.07,12.78-71.71,53-2.36,9.42,12,15.53-7.34-8.39-44,28.69-6.91,9.88-13.25-13.94-35.29,10.6-13.59,14.2-.33-6.68-16.24Z"/><path class="cls-1" d="M87.89,440.23l14.47,3.3-2.74,10.74,20.57,23.83,2.25,15.66,9.6-6.12,36.45,2.95,18.56,13.49,13.92,30,31.26,13.47L231,558.5l-21.89-2.24-24.26,10.22L169.24,595l-57-34.85-8.75,3.78,11-19.15-6-40.35-8.53-27.06L73.7,449Z"/><line class="cls-2" x1="165.46" y1="575.32" x2="167.46" y2="575.32"/><line class="cls-3" x1="171.26" y1="575.32" x2="214.98" y2="575.32"/><line class="cls-2" x1="216.88" y1="575.32" x2="218.88" y2="575.32"/><circle class="cls-4" cx="218.88" cy="575.14" r="1.57"/><ellipse class="cls-4" cx="165.46" cy="575.32" rx="1.57" ry="1.39"/><text class="cls-5" transform="translate(226.34 578.32)">Ilo</text><text class="cls-6" transform="translate(244.86 598.85)"><tspan xml:space="preserve"> 0 p</tspan><tspan class="cls-7" x="24.52" y="0">r</tspan><tspan class="cls-8" x="29.73" y="0">o</tspan><tspan class="cls-9" x="38.1" y="0">y</tspan><tspan x="45.53" y="0">ec</tspan><tspan class="cls-10" x="61.46" y="0">t</tspan><tspan x="66.31" y="0">os</tspan></text><path class="cls-11" d="M233.64,594.32H235l.2-1,.17,0a4,4,0,0,0,1-.42l.14-.08.86.52.92-.94-.56-.85.09-.14a3.71,3.71,0,0,0,.39-1l0-.16,1-.24v-1.32l-1-.2,0-.17a4,4,0,0,0-.42-1l-.08-.14.52-.86-.94-.92-.85.56-.15-.09a3.52,3.52,0,0,0-1-.39l-.16,0-.24-1-1.32,0-.2,1-.17,0a4.18,4.18,0,0,0-1,.42L232,586l-.84-.54-.92.95.56.84-.08.15a3.55,3.55,0,0,0-.4,1l0,.16-1,.24v1.32l1,.2,0,.17a3.74,3.74,0,0,0,.41,1l.08.14-.52.85.95.93.85-.56.14.08a3.68,3.68,0,0,0,1,.4l.17,0Zm2.59-4.93a2,2,0,1,1-2-2A2,2,0,0,1,236.23,589.39Z"/><path class="cls-11" d="M239.91,600.84h.92l.14-.69.12,0a2.77,2.77,0,0,0,.69-.29l.09-.06.61.37.65-.67-.4-.59.06-.1a2.63,2.63,0,0,0,.28-.7l0-.12.69-.16v-.93l-.69-.14,0-.12a2.49,2.49,0,0,0-.29-.69l-.06-.1.37-.6-.67-.65-.59.39-.11-.06a2.54,2.54,0,0,0-.69-.27l-.12,0-.17-.69h-.92l-.15.69-.11,0a2.49,2.49,0,0,0-.69.29l-.1.06-.59-.38-.65.66.39.6-.06.1a2.6,2.6,0,0,0-.27.7l0,.11-.69.17v.93l.69.14,0,.12a2.77,2.77,0,0,0,.29.69l.06.09-.37.61.67.65.59-.4.1.06a2.63,2.63,0,0,0,.7.28l.12,0Zm1.82-3.47a1.41,1.41,0,1,1-1.41-1.41A1.42,1.42,0,0,1,241.73,597.37Z"/><rect class="cls-12" x="232.11" y="587.47" width="2.36" height="11.25" transform="translate(487.71 8.75) rotate(45)"/><polygon class="cls-13" points="226.34 601.49 228.48 596.24 231.82 599.58 226.34 601.49"/><rect class="cls-12" x="233.78" y="589.14" width="2.36" height="11.25" transform="translate(489.38 8.06) rotate(45)"/><rect class="cls-14" x="239.62" y="584.73" width="2.7" height="4.73" transform="translate(826.49 831.84) rotate(135)"/><rect class="cls-15" x="237.71" y="586.63" width="2.7" height="4.73" transform="translate(824.59 836.44) rotate(135)"/><line class="cls-2" x1="269.63" y1="449.54" x2="271.63" y2="449.54"/><line class="cls-3" x1="275.43" y1="449.54" x2="319.15" y2="449.54"/><line class="cls-2" x1="321.05" y1="449.54" x2="323.05" y2="449.54"/><circle class="cls-4" cx="323.05" cy="449.36" r="1.57"/><ellipse class="cls-4" cx="269.63" cy="449.54" rx="1.57" ry="1.57"/><text class="cls-5" transform="translate(330.51 452.55)">Mariscal Nie<tspan class="cls-16" x="65.24" y="0">t</tspan><tspan x="68.98" y="0">o</tspan></text><text class="cls-6" transform="translate(349.04 473.08)"><tspan xml:space="preserve"> 0 p</tspan><tspan class="cls-7" x="24.52" y="0">r</tspan><tspan class="cls-8" x="29.73" y="0">o</tspan><tspan class="cls-9" x="38.1" y="0">y</tspan><tspan x="45.53" y="0">ec</tspan><tspan class="cls-10" x="61.46" y="0">t</tspan><tspan x="66.31" y="0">os</tspan></text><path class="cls-11" d="M337.81,468.55h1.31l.2-1,.17-.05a3.55,3.55,0,0,0,1-.41l.14-.08.86.52.92-.95-.56-.84.09-.15a3.65,3.65,0,0,0,.39-1l0-.16,1-.24V462.9l-1-.2,0-.17a4.18,4.18,0,0,0-.42-1l-.08-.14.52-.86-.94-.92-.85.56-.15-.08a3.55,3.55,0,0,0-1-.4l-.16,0-.24-1h-1.32l-.2,1-.17,0a3.55,3.55,0,0,0-1,.41l-.15.09-.84-.54-.92.94.56.85-.08.14a3.81,3.81,0,0,0-.4,1l0,.17-1,.23v1.33l1,.2,0,.17a3.55,3.55,0,0,0,.41,1l.08.14-.52.86.95.92.85-.56.14.09a3.65,3.65,0,0,0,1,.39l.17,0Zm2.59-4.93a2,2,0,1,1-2-2A2,2,0,0,1,340.4,463.62Z"/><path class="cls-11" d="M344.08,475.07H345l.14-.69.12,0a3.2,3.2,0,0,0,.69-.29L346,474l.61.37.65-.67-.4-.6.06-.1a2.5,2.5,0,0,0,.28-.7l0-.11L348,472v-.93l-.69-.14,0-.12a2.57,2.57,0,0,0-.29-.68l-.06-.1.37-.61-.67-.64-.59.39-.11-.06a2.57,2.57,0,0,0-.69-.28l-.12,0-.16-.69H344l-.15.69-.11,0a2.83,2.83,0,0,0-.69.29l-.1.06-.59-.38-.65.67.39.59-.06.11a2.54,2.54,0,0,0-.27.69l0,.12-.69.16v.93l.69.15,0,.11a2.49,2.49,0,0,0,.29.69l.06.1-.37.6.67.65L343,474l.1.06a2.63,2.63,0,0,0,.7.28l.12,0Zm1.82-3.47a1.41,1.41,0,1,1-1.41-1.41A1.41,1.41,0,0,1,345.9,471.6Z"/><rect class="cls-12" x="336.28" y="461.7" width="2.36" height="11.25" transform="translate(429.29 -101.75) rotate(45)"/><polygon class="cls-13" points="330.51 475.71 332.65 470.46 335.99 473.81 330.51 475.71"/><rect class="cls-12" x="337.95" y="463.37" width="2.36" height="11.25" transform="translate(430.96 -102.44) rotate(45)"/><rect class="cls-14" x="343.79" y="458.95" width="2.7" height="4.73" transform="translate(915.39 543.47) rotate(135)"/><rect class="cls-15" x="341.88" y="460.86" width="2.7" height="4.73" transform="translate(913.48 548.07) rotate(135)"/><line class="cls-2" x1="154.56" y1="184.82" x2="154.56" y2="186.82"/><line class="cls-3" x1="154.56" y1="190.62" x2="154.56" y2="234.33"/><line class="cls-2" x1="154.56" y1="236.23" x2="154.56" y2="238.23"/><circle class="cls-4" cx="154.74" cy="238.23" r="1.57"/><ellipse class="cls-4" cx="154.56" cy="184.82" rx="1.55" ry="1.57"/><text class="cls-5" transform="translate(80.95 153.7)">Gene<tspan class="cls-17" x="27.19" y="0">r</tspan><tspan x="31" y="0">al Sánchez Cer</tspan><tspan class="cls-16" x="108.91" y="0">r</tspan><tspan x="112.83" y="0">o</tspan></text><text class="cls-6" transform="translate(99.48 174.23)"><tspan xml:space="preserve"> 3 p</tspan><tspan class="cls-7" x="24.52" y="0">r</tspan><tspan class="cls-8" x="29.73" y="0">o</tspan><tspan class="cls-9" x="38.1" y="0">y</tspan><tspan x="45.53" y="0">ec</tspan><tspan class="cls-10" x="61.46" y="0">t</tspan><tspan x="66.31" y="0">os</tspan></text><path class="cls-11" d="M88.26,169.7h1.3l.21-1,.16,0a4,4,0,0,0,1-.42l.14-.08.86.52.92-.95-.56-.84.09-.15a3.65,3.65,0,0,0,.39-1l0-.16,1-.24v-1.32l-1-.2,0-.17a4.18,4.18,0,0,0-.42-1l-.08-.14.52-.86-1-.92-.84.56-.15-.08a3.68,3.68,0,0,0-1-.4l-.16,0-.24-1H88.11l-.2,1-.17,0a3.74,3.74,0,0,0-1,.41l-.14.09-.84-.54-.92.94.56.85-.09.14a3.71,3.71,0,0,0-.39,1l0,.16-1,.23v1.33l1,.2,0,.17a3.55,3.55,0,0,0,.41,1l.08.14-.52.86.95.92.84-.56.15.09a3.65,3.65,0,0,0,1,.39l.16,0Zm2.59-4.93a2,2,0,1,1-2-2A2,2,0,0,1,90.85,164.77Z"/><path class="cls-11" d="M94.53,176.22h.92l.14-.69.12,0a3,3,0,0,0,.68-.29l.1-.06.61.37.64-.67-.39-.6.06-.1a2.5,2.5,0,0,0,.28-.7l0-.11.69-.17v-.93l-.69-.14,0-.12a3,3,0,0,0-.29-.68l-.06-.1.37-.61L97,170l-.6.39-.1-.06a2.5,2.5,0,0,0-.7-.28l-.11,0-.17-.69h-.93l-.14.69-.12,0a3,3,0,0,0-.68.29l-.11.06-.59-.38-.64.67.39.59-.06.11a2.57,2.57,0,0,0-.28.69l0,.12-.69.17v.92l.7.15,0,.11a2.89,2.89,0,0,0,.3.69l0,.1-.36.6.66.65.6-.39.1.06a2.63,2.63,0,0,0,.7.28l.11,0Zm1.82-3.47a1.41,1.41,0,1,1-1.41-1.41A1.41,1.41,0,0,1,96.35,172.75Z"/><rect class="cls-12" x="86.73" y="162.85" width="2.36" height="11.25" transform="translate(144.87 -12.82) rotate(45)"/><polygon class="cls-13" points="80.95 176.86 83.1 171.61 86.44 174.96 80.95 176.86"/><rect class="cls-12" x="88.4" y="164.52" width="2.36" height="11.25" transform="translate(146.55 -13.51) rotate(45)"/><rect class="cls-14" x="94.24" y="160.1" width="2.7" height="4.73" transform="translate(278.06 209.76) rotate(135)"/><rect class="cls-15" x="92.33" y="162.01" width="2.7" height="4.73" transform="translate(276.15 214.37) rotate(135)"/><circle class="cls-18" cx="156.09" cy="251.12" r="6.43"/><circle class="cls-19" cx="172.3" cy="251.12" r="6.43"/><circle class="cls-19" cx="188.52" cy="251.12" r="6.43"/></svg>