<svg id="Capa_1" data-name="Capa 1" xmlns="http://www.w3.org/2000/svg" viewBox="0 0 554 932"><defs><style>.cls-1{fill:#71c2e9;stroke:#377c9c;stroke-width:3px;}.cls-1,.cls-26,.cls-27{stroke-miterlimit:1.75;}.cls-2{font-size:12px;font-family:Roboto-Light, Roboto;font-weight:300;}.cls-17,.cls-2,.cls-5{fill:#1d1d1b;}.cls-3{letter-spacing:-0.06em;}.cls-4{letter-spacing:-0.02em;}.cls-5{font-size:15px;font-family:Roboto-Bold, Roboto;font-weight:700;}.cls-6{letter-spacing:-0.02em;}.cls-7{letter-spacing:-0.01em;}.cls-8{letter-spacing:-0.01em;}.cls-9{letter-spacing:-0.01em;}.cls-10,.cls-15,.cls-16,.cls-18,.cls-19,.cls-21,.cls-24,.cls-25{fill:none;}.cls-10,.cls-11,.cls-12,.cls-13,.cls-14{stroke:#262626;stroke-linecap:round;stroke-width:0.5px;}.cls-10,.cls-11,.cls-12,.cls-13,.cls-14,.cls-15,.cls-16,.cls-18,.cls-19,.cls-21,.cls-24,.cls-25{stroke-linejoin:round;}.cls-11{fill:#fab637;}.cls-12{fill:#ffe7a1;}.cls-13{fill:#4ca8de;}.cls-14{fill:#cfcece;}.cls-15,.cls-16,.cls-18,.cls-19,.cls-21,.cls-24,.cls-25{stroke:#0b0c0c;}.cls-16{stroke-dasharray:3.86 3.86;}.cls-18{stroke-dasharray:3.84 3.84;}.cls-19{stroke-dasharray:3.88 3.88;}.cls-20{letter-spacing:-0.02em;}.cls-21{stroke-dasharray:4.01 4.01;}.cls-22{letter-spacing:-0.01em;}.cls-23{letter-spacing:-0.01em;}.cls-24{stroke-dasharray:3.82 3.82;}.cls-25{stroke-dasharray:3.82 3.82;}.cls-26{fill:#afd28c;stroke:#71915a;isolation:isolate;}.cls-27{fill:#ec6062;stroke:#cc444b;}</style></defs><path class="cls-1" d="M286.38,295.42l37,7.92,7.27,13.24,13.59-4,5.29,4.22-3.15,7.35-12.67,5,3.48,5.73-6.85,4.72,3.85,6.95-4.1,16.09-15.85,12.77-9.89.06,6.71,8.83-11.77,2.84L287.3,400l-1.88,16.31,50.69,59.53,5.46-.87-7.13,43.21-29.06-18.16-50.69-16.75-3.23-19.73-16.7-.93.16-9.09L197.67,448l-22.41-11.33,2.46-6-11-12.29,15.29-.77,16,10,26.82-49.73,7.83,1.07L257,343.37l18.46-2.86,13-3.19-30.84-21.21Z"/><path class="cls-1" d="M326.78,246.06l30.94,19.44,16.64,3.39,10.39,14,30.5-10.41,14.49,14.59,13.15,2.51.39,17.65,17.86,37.58-1.48,10.08-9.72,6.76-6.58,33.06L424,385l-4.76,8-9.58-1-10.22-14-17.92-4.24-4-7.36-18.62,15L336,375.42l.85-11.3-7.81-8.76,5-6.15-3.7-9.64,6.67-4-2.85-7.21,12.22-4.24,3.15-7.35-5.29-4.22-13.59,4-7.27-13.24-12.21-1.55-7.46-16.58-6-14.25,13.55-8.42,8.86-15.9Z"/><path class="cls-1" d="M464.1,344.56l19.33,24.27,10-.3-2.89,14.78-8.47,2-19,23.73,18.37,59.54-22,2.44,4.87,11.77-4.88,31.07,11.71,22.24-15.33,13.7-14.4-9.92-18.53,4.41-6.5-14.46,2.67-11.16-10.84,8.82L398.47,526l3.65-17.44-9-6,4-5.62-8.26-5.66-5.18,3.45L380,488.44l19.79-28.25,8.35,10.29,6-1.79,1-8.23-22.38-9,21.86-16-13.1-21.83,3.61-2.15-2.69-13.84,5.56-5,4.17,9.39L424,385l19.36,9.77L450,361.49l9.8-7.08Z"/><path class="cls-1" d="M337.43,364.79l-1.26,10.77,22.21,5.82,19.2-15,3.94,7.34L399.44,378l16.09,4V394.1l-4,8.22-4.33-9.85-5.76,14.27,13.16,28.69-21.86,16,22.38,9-1,8.23-6,1.79-8.35-10.29L380,488.44l-2.63-17.92-8-9.08-8.57,6.24-2.64,12-22.05-3.82L285.4,416.71,287.3,400l12-12.93,11.77-2.84-6.71-8.83,14.94-2.83,12.37-14.31Z"/><path class="cls-1" d="M179.15,350.07l5.31,5.45,17.13,1.85.75,5-4.63,3.48.3,61.81-16-10-14.81-.28,10.48,13.34-5.81,14.12-35.84-31,4.5-24.53,13.91.14,5.47-8.62-27.08-39.26,43.67-8.05,6.55,6Z"/><path class="cls-1" d="M263.54,209.55l6.94,6.63-.41,15.91,25.18-.67L270.7,260.68l-.6,14.4L280.84,282l19.07-10.89,8.66,2,6.15,24.68L281,314.69l-3.16,7.45,10.55,15.18-34.69,8.53L232.66,379l-7.83-1.07L198,427.67l-.3-61.81,4.39-7.46-19.3-3.73-3.65-4.6,3.94-10.51-6.55-6,21.63-4.23-16-23.39,8.7-4.82-5.57-12.94,12.46-11.55,3.92-13L193,260.13l1.79-8.69-12.56-3.8,5-12.81-4.95-8.35,36.27,0,20.27,9.72Z"/><path class="cls-1" d="M166.52,213.57l9.47,3.68.09,7.53,11.15,10.05-4.7,13.4,12.21,3.21L193,260.13l8.76,3.52-3.91,13L185.34,288.2l5.57,12.94-8.7,4.82,16,23.39-65.3,12.28-21.21-24.18,9.7-20.08-5.52-16.48,9.41-15.19L125,244.46l29.75-28.68,8.6-5.67Z"/><path class="cls-1" d="M197.67,448l37.25,5.54-.16,9.09,16.7.93,3.23,19.73,50.69,16.75,36.12,21.08-12.77,14.44-13,.14-25,11.16L238,622.33l-28.24-13.19L154.31,570l-10.39-18.19,0-16.54,11.86-17.67,23.32,9.84,12.43-8.55,5.43-31.32-10.17-25.18-14.85-17.54,3.35-8.16Z"/><text class="cls-2" transform="translate(93.26 156.87)"><tspan class="cls-3">T</tspan><tspan x="6.5" y="0">ala</tspan><tspan class="cls-4" x="22.05" y="0">r</tspan><tspan x="25.85" y="0">a</tspan></text><text class="cls-5" transform="translate(111.79 177.39)"><tspan xml:space="preserve"> 0 p</tspan><tspan class="cls-6" x="24.52" y="0">r</tspan><tspan class="cls-7" x="29.73" y="0">o</tspan><tspan class="cls-8" x="38.1" y="0">y</tspan><tspan x="45.53" y="0">ec</tspan><tspan class="cls-9" x="61.46" y="0">t</tspan><tspan x="66.31" y="0">os</tspan></text><path class="cls-10" d="M100.56,172.86h1.31l.2-1,.17,0a3.55,3.55,0,0,0,1-.41l.14-.08.86.52.92-1-.56-.85.09-.14a3.65,3.65,0,0,0,.39-1l0-.17,1-.23,0-1.32-1-.21,0-.16a3.86,3.86,0,0,0-.42-1l-.08-.14.52-.86-.94-.92-.85.56-.15-.09a3.52,3.52,0,0,0-1-.39l-.16,0-.24-1h-1.32l-.2,1-.17,0a4,4,0,0,0-1,.42l-.15.08-.84-.53-.92.94.56.84-.08.15a3.68,3.68,0,0,0-.4,1l0,.17-1,.23v1.32l1,.21,0,.16a3.61,3.61,0,0,0,.41,1l.08.14-.52.86,1,.92.85-.56.14.08a3.38,3.38,0,0,0,1,.4l.17,0Zm2.59-4.92a2,2,0,1,1-2-2A2,2,0,0,1,103.15,167.94Z"/><path class="cls-10" d="M106.83,179.38h.92l.14-.69.12,0a3.28,3.28,0,0,0,.69-.3l.1-.05.6.36.65-.66-.4-.6.06-.1a2.63,2.63,0,0,0,.28-.7l0-.11.69-.17v-.93l-.69-.14,0-.12a2.77,2.77,0,0,0-.29-.69l-.06-.09.37-.61-.67-.65-.59.4-.11-.06a2.57,2.57,0,0,0-.69-.28l-.12,0-.16-.69h-.93l-.15.69-.11,0a2.49,2.49,0,0,0-.69.29l-.1.06-.59-.38-.65.67.39.59-.06.1a2.6,2.6,0,0,0-.27.7l0,.12-.69.16v.93l.69.14,0,.12a2.49,2.49,0,0,0,.29.69l.06.1-.37.6.67.65.59-.39.1.06a2.6,2.6,0,0,0,.7.27l.12,0Zm1.82-3.46a1.41,1.41,0,1,1-1.41-1.41A1.41,1.41,0,0,1,108.65,175.92Z"/><rect class="cls-11" x="99.03" y="166.01" width="2.36" height="11.25" transform="translate(150.72 -20.59) rotate(45)"/><polygon class="cls-12" points="93.26 180.03 95.4 174.78 98.74 178.12 93.26 180.03"/><rect class="cls-11" x="100.7" y="167.68" width="2.36" height="11.25" transform="translate(152.39 -21.28) rotate(45)"/><rect class="cls-13" x="106.54" y="163.27" width="2.7" height="4.73" transform="translate(301.3 206.47) rotate(135)"/><rect class="cls-14" x="104.63" y="165.18" width="2.7" height="4.73" transform="translate(299.39 211.07) rotate(135)"/><line class="cls-15" x1="137.79" y1="188.13" x2="137.8" y2="190.13"/><line class="cls-16" x1="137.81" y1="193.99" x2="137.98" y2="238.33"/><line class="cls-15" x1="137.99" y1="240.26" x2="138" y2="242.26"/><circle class="cls-17" cx="138.02" cy="242.91" r="1.57"/><circle class="cls-17" cx="137.77" cy="187.7" r="1.57"/><line class="cls-15" x1="153.5" y1="359.89" x2="151.5" y2="359.9"/><line class="cls-18" x1="147.66" y1="359.91" x2="95.8" y2="360.08"/><line class="cls-15" x1="93.88" y1="360.09" x2="91.88" y2="360.1"/><circle class="cls-17" cx="91.23" cy="360.12" r="1.57"/><circle class="cls-17" cx="153.93" cy="359.87" r="1.57"/><line class="cls-15" x1="207.46" y1="443.05" x2="205.46" y2="443.05"/><line class="cls-19" x1="201.58" y1="443.06" x2="110.51" y2="443.24"/><line class="cls-15" x1="108.57" y1="443.25" x2="106.57" y2="443.25"/><circle class="cls-17" cx="105.92" cy="443.28" r="1.57"/><circle class="cls-17" cx="207.89" cy="443.03" r="1.57"/><text class="cls-2" transform="translate(221.06 158.84)">Sullana</text><text class="cls-5" transform="translate(239.58 179.37)"><tspan xml:space="preserve"> 2 p</tspan><tspan class="cls-6" x="24.52" y="0">r</tspan><tspan class="cls-7" x="29.73" y="0">o</tspan><tspan class="cls-8" x="38.1" y="0">y</tspan><tspan x="45.53" y="0">ec</tspan><tspan class="cls-9" x="61.46" y="0">t</tspan><tspan x="66.31" y="0">os</tspan></text><path class="cls-10" d="M228.36,174.84h1.31l.2-1,.16,0a3.86,3.86,0,0,0,1-.42l.14-.08.86.52.92-.94-.56-.85.09-.15a3.52,3.52,0,0,0,.39-1l0-.16,1-.24v-1.32l-1-.2,0-.17a4,4,0,0,0-.42-1l-.08-.14.52-.86-1-.92-.84.56-.15-.09a3.88,3.88,0,0,0-1-.4l-.16,0-.24-1-1.32,0-.2,1-.17,0a4.18,4.18,0,0,0-1,.42l-.14.08-.84-.54-.92,1,.56.84-.08.15a3.55,3.55,0,0,0-.4,1l0,.16-1,.24v1.32l1,.2,0,.17a3.74,3.74,0,0,0,.41,1l.08.14L225,173l.95.92.84-.55.15.08a3.68,3.68,0,0,0,1,.4l.17,0Zm2.59-4.93a2,2,0,1,1-2-2A2,2,0,0,1,231,169.91Z"/><path class="cls-10" d="M234.63,181.36h.92l.14-.69.12,0a2.77,2.77,0,0,0,.69-.29l.09-.06.61.37.65-.67-.4-.59.06-.11a2.57,2.57,0,0,0,.28-.69l0-.12.69-.16v-.93l-.69-.15,0-.11a2.49,2.49,0,0,0-.29-.69l-.06-.1.37-.6-.67-.65-.59.39-.11-.06a2.94,2.94,0,0,0-.69-.28l-.12,0-.17-.69h-.92l-.15.69-.11,0a2.49,2.49,0,0,0-.69.29l-.1.06-.59-.38-.65.66.39.6-.06.1a2.85,2.85,0,0,0-.28.7l0,.11-.69.17v.93l.69.14,0,.12a2.57,2.57,0,0,0,.29.68l.06.1-.37.61.67.64.59-.39.1.06a2.63,2.63,0,0,0,.7.28l.12,0Zm1.82-3.47a1.41,1.41,0,1,1-1.41-1.41A1.41,1.41,0,0,1,236.45,177.89Z"/><rect class="cls-11" x="226.83" y="167.99" width="2.36" height="11.25" transform="translate(189.55 -110.38) rotate(45)"/><polygon class="cls-12" points="221.06 182.01 223.2 176.75 226.54 180.1 221.06 182.01"/><rect class="cls-11" x="228.5" y="169.66" width="2.36" height="11.25" transform="translate(191.22 -111.07) rotate(45)"/><rect class="cls-13" x="234.34" y="165.25" width="2.7" height="4.73" transform="translate(520.86 119.47) rotate(135)"/><rect class="cls-14" x="232.43" y="167.15" width="2.7" height="4.73" transform="translate(518.95 124.08) rotate(135)"/><line class="cls-15" x1="265.59" y1="190.11" x2="265.6" y2="192.11"/><line class="cls-16" x1="265.61" y1="195.96" x2="265.78" y2="240.31"/><line class="cls-15" x1="265.79" y1="242.23" x2="265.79" y2="244.23"/><circle class="cls-17" cx="265.82" cy="244.89" r="1.57"/><circle class="cls-17" cx="265.57" cy="189.68" r="1.57"/><text class="cls-2" transform="translate(342.39 225.9)"><tspan class="cls-20">A</tspan><tspan class="cls-7" x="7.2" y="0">y</tspan><tspan x="12.81" y="0">abaca</tspan></text><text class="cls-5" transform="translate(360.92 246.42)"><tspan xml:space="preserve"> 6 p</tspan><tspan class="cls-6" x="24.52" y="0">r</tspan><tspan class="cls-7" x="29.73" y="0">o</tspan><tspan class="cls-8" x="38.1" y="0">y</tspan><tspan x="45.53" y="0">ec</tspan><tspan class="cls-9" x="61.46" y="0">t</tspan><tspan x="66.31" y="0">os</tspan></text><path class="cls-10" d="M349.7,241.89H351l.2-1,.17,0a4.12,4.12,0,0,0,1-.41l.14-.09.85.53.93-1-.56-.85.08-.14a3.81,3.81,0,0,0,.4-1l0-.17,1-.23v-1.33l-1-.2,0-.16a3.48,3.48,0,0,0-.41-1l-.08-.14.52-.86-.95-.92-.85.56-.14-.09a3.65,3.65,0,0,0-1-.39l-.17,0-.23-1h-1.32l-.21,1-.16,0a3.86,3.86,0,0,0-1,.42l-.14.08-.84-.54-.92.95.56.84-.09.15a3.65,3.65,0,0,0-.39,1l0,.16-1,.24,0,1.32,1,.21,0,.16a4.18,4.18,0,0,0,.42,1l.08.14-.52.86.94.92.85-.56.15.08a3.55,3.55,0,0,0,1,.4l.16,0Zm2.59-4.93a2,2,0,1,1-2-2A2,2,0,0,1,352.29,237Z"/><path class="cls-10" d="M356,248.41h.91l.15-.69.11,0a2.49,2.49,0,0,0,.69-.29l.1-.06.6.37.65-.66-.39-.6.06-.1a3,3,0,0,0,.28-.7l0-.11.69-.17v-.93l-.7-.14,0-.12a2.62,2.62,0,0,0-.29-.69l-.05-.1.36-.6-.66-.65-.6.39-.1-.05a2.33,2.33,0,0,0-.7-.28l-.11,0-.17-.69h-.93l-.14.69-.12,0a2.77,2.77,0,0,0-.69.29l-.1.06-.59-.38-.64.66.39.6-.06.1a2.63,2.63,0,0,0-.28.7l0,.11-.69.17v.93l.69.14,0,.12a3.2,3.2,0,0,0,.29.69l.06.1-.37.6.67.65.6-.4.1.06a2.23,2.23,0,0,0,.7.28l.11,0Zm1.82-3.46a1.41,1.41,0,1,1-1.41-1.42A1.41,1.41,0,0,1,357.79,245Z"/><rect class="cls-11" x="348.16" y="235.04" width="2.36" height="11.25" transform="translate(272.5 -176.54) rotate(45)"/><polygon class="cls-12" points="342.39 249.06 344.53 243.81 347.88 247.15 342.39 249.06"/><rect class="cls-11" x="349.84" y="236.71" width="2.36" height="11.25" transform="translate(274.17 -177.23) rotate(45)"/><rect class="cls-13" x="355.67" y="232.3" width="2.7" height="4.73" transform="translate(775.41 148.14) rotate(135)"/><rect class="cls-14" x="353.76" y="234.21" width="2.7" height="4.73" transform="translate(773.5 152.75) rotate(135)"/><line class="cls-15" x1="386.92" y1="257.16" x2="386.93" y2="259.16"/><line class="cls-16" x1="386.95" y1="263.02" x2="387.12" y2="307.36"/><line class="cls-15" x1="387.12" y1="309.29" x2="387.13" y2="311.29"/><circle class="cls-17" cx="387.15" cy="311.94" r="1.57"/><circle class="cls-17" cx="386.91" cy="256.73" r="1.57"/><text class="cls-2" transform="translate(389.98 595.58)">Huancabamba</text><text class="cls-5" transform="translate(408.5 616.1)"><tspan xml:space="preserve"> 2 p</tspan><tspan class="cls-6" x="24.52" y="0">r</tspan><tspan class="cls-7" x="29.73" y="0">o</tspan><tspan class="cls-8" x="38.1" y="0">y</tspan><tspan x="45.53" y="0">ec</tspan><tspan class="cls-9" x="61.46" y="0">t</tspan><tspan x="66.31" y="0">os</tspan></text><path class="cls-10" d="M397.28,611.58h1.31l.2-1,.16-.05a3.48,3.48,0,0,0,1-.41l.14-.08.86.52.92-1-.56-.84.09-.15a3.65,3.65,0,0,0,.39-1l0-.16,1-.24v-1.32l-1-.21,0-.16a4,4,0,0,0-.42-1l-.08-.14.52-.86-.95-.92-.84.56-.15-.08a3.27,3.27,0,0,0-1-.4l-.16,0-.24-1h-1.32l-.2,1-.17,0a3.74,3.74,0,0,0-1,.41l-.14.08-.84-.53-.92.94.56.85-.08.14a3.68,3.68,0,0,0-.4,1l0,.17-1,.23v1.32l1,.21,0,.16a3.48,3.48,0,0,0,.41,1l.08.14-.52.86.95.92.84-.56.15.09a3.65,3.65,0,0,0,1,.39l.17,0Zm2.59-4.93a2,2,0,1,1-2-2A2,2,0,0,1,399.87,606.65Z"/><path class="cls-10" d="M403.55,618.1h.92l.14-.69.12,0a3.28,3.28,0,0,0,.69-.3l.09-.05.61.36.65-.66-.4-.6.06-.1a2.5,2.5,0,0,0,.28-.7l0-.11.69-.17v-.93l-.69-.14,0-.12a2.77,2.77,0,0,0-.29-.69l-.06-.09.37-.61-.67-.64-.59.39-.11-.06a2.57,2.57,0,0,0-.69-.28l-.12,0-.17-.69h-.92l-.15.69-.11,0a2.49,2.49,0,0,0-.69.29l-.1.06-.59-.38-.65.67.39.59-.06.1a3,3,0,0,0-.28.7l0,.12-.69.16v.93l.69.15,0,.11a2.49,2.49,0,0,0,.29.69l.06.1-.37.6.67.65.59-.39.1.06a3,3,0,0,0,.7.28l.12,0Zm1.82-3.47a1.41,1.41,0,1,1-1.41-1.41A1.41,1.41,0,0,1,405.37,614.63Z"/><rect class="cls-11" x="395.75" y="604.72" width="2.36" height="11.25" transform="translate(547.84 -101.91) rotate(45)"/><polygon class="cls-12" points="389.98 618.74 392.12 613.49 395.46 616.83 389.98 618.74"/><rect class="cls-11" x="397.42" y="606.4" width="2.36" height="11.25" transform="translate(549.51 -102.6) rotate(45)"/><rect class="cls-13" x="403.26" y="601.98" width="2.7" height="4.73" transform="translate(1118.04 745.58) rotate(135)"/><rect class="cls-14" x="401.35" y="603.89" width="2.7" height="4.73" transform="translate(1116.14 750.19) rotate(135)"/><line class="cls-15" x1="434.51" y1="509.64" x2="434.51" y2="511.64"/><line class="cls-21" x1="434.53" y1="515.65" x2="434.7" y2="577.74"/><line class="cls-15" x1="434.71" y1="579.75" x2="434.71" y2="581.75"/><circle class="cls-17" cx="434.74" cy="582.4" r="1.57"/><circle class="cls-17" cx="434.49" cy="509.21" r="1.57"/><text class="cls-2" transform="translate(314.35 550.09)">Mor<tspan class="cls-22" x="21.14" y="0">r</tspan><tspan x="25.06" y="0">opón</tspan></text><text class="cls-5" transform="translate(332.88 570.61)"><tspan xml:space="preserve"> 1 p</tspan><tspan class="cls-6" x="24.52" y="0">r</tspan><tspan class="cls-7" x="29.73" y="0">o</tspan><tspan class="cls-8" x="38.1" y="0">y</tspan><tspan x="45.53" y="0">ec</tspan><tspan class="cls-9" x="61.46" y="0">t</tspan><tspan x="66.31" y="0">o</tspan></text><path class="cls-10" d="M321.66,566.08H323l.2-1,.17,0a3.74,3.74,0,0,0,1-.41l.14-.09.85.53.92-1-.55-.85.08-.14a4.2,4.2,0,0,0,.4-1l0-.17,1-.23,0-1.32-1-.21,0-.16a3.86,3.86,0,0,0-.42-1l-.08-.14.53-.86-1-.92-.85.56-.14-.09a3.71,3.71,0,0,0-1-.39l-.16,0-.24-1H321.5l-.2,1-.17,0a4,4,0,0,0-1,.42l-.15.08-.84-.54-.91.95.55.84-.08.15a4,4,0,0,0-.4,1l0,.16-1,.24,0,1.32,1,.21,0,.16a4.18,4.18,0,0,0,.42,1l.08.14-.52.86.94.92.85-.56.14.08a3.74,3.74,0,0,0,1,.4l.16,0Zm2.59-4.93a2,2,0,1,1-2-2A2,2,0,0,1,324.25,561.15Z"/><path class="cls-10" d="M327.93,572.6h.91l.14-.69.12,0a2.62,2.62,0,0,0,.69-.29l.1-.06.6.37.65-.66-.39-.6.06-.1a2.6,2.6,0,0,0,.27-.7l0-.11.69-.17v-.93l-.69-.14,0-.12a2.77,2.77,0,0,0-.29-.69l-.06-.1.37-.6-.67-.65-.59.4-.1-.06a2.33,2.33,0,0,0-.7-.28l-.12,0-.16-.69h-.93l-.14.69-.12,0a2.62,2.62,0,0,0-.69.29l-.1.06-.59-.38-.65.66.4.6-.06.1a2.63,2.63,0,0,0-.28.7l0,.11-.69.17v.93l.69.14,0,.12a2.62,2.62,0,0,0,.29.69l.06.1-.37.6.67.65.59-.4.11.06a2.28,2.28,0,0,0,.69.28l.12,0Zm1.82-3.46a1.41,1.41,0,1,1-1.41-1.41A1.41,1.41,0,0,1,329.75,569.14Z"/><rect class="cls-11" x="320.12" y="559.23" width="2.36" height="11.25" transform="translate(493.52 -61.75) rotate(45)"/><polygon class="cls-12" points="314.35 573.25 316.49 568 319.84 571.34 314.35 573.25"/><rect class="cls-11" x="321.79" y="560.9" width="2.36" height="11.25" transform="translate(495.19 -62.45) rotate(45)"/><rect class="cls-13" x="327.63" y="556.49" width="2.7" height="4.73" transform="translate(956.77 721.4) rotate(135)"/><rect class="cls-14" x="325.72" y="558.4" width="2.7" height="4.73" transform="translate(954.87 726) rotate(135)"/><text class="cls-2" transform="translate(60.55 363.97)"><tspan class="cls-23">P</tspan><tspan x="7.32" y="0">aita</tspan></text><text class="cls-5" transform="translate(79.08 384.5)"><tspan xml:space="preserve"> 0 p</tspan><tspan class="cls-6" x="24.52" y="0">r</tspan><tspan class="cls-7" x="29.73" y="0">o</tspan><tspan class="cls-8" x="38.1" y="0">y</tspan><tspan x="45.53" y="0">ec</tspan><tspan class="cls-9" x="61.46" y="0">t</tspan><tspan x="66.31" y="0">os</tspan></text><path class="cls-10" d="M67.86,380h1.3l.2-1,.17,0a4,4,0,0,0,1-.42l.14-.08.86.52.92-.94-.55-.85L72,377a3.88,3.88,0,0,0,.4-1l0-.16,1-.24,0-1.32-1-.2,0-.17a4,4,0,0,0-.42-1l-.08-.14.52-.86-.94-.92-.85.55-.14-.08a4.1,4.1,0,0,0-1-.4l-.16,0-.24-1-1.32,0-.2,1-.17,0a4,4,0,0,0-1,.42l-.15.08-.84-.54-.91.94.55.85-.08.15a3.88,3.88,0,0,0-.4,1l0,.16-1,.24,0,1.32,1,.2,0,.17a4.18,4.18,0,0,0,.42,1l.08.14-.53.85,1,.92.85-.55.14.08a4.1,4.1,0,0,0,1,.4l.16,0ZM70.45,375a2,2,0,1,1-2-2A2,2,0,0,1,70.45,375Z"/><path class="cls-10" d="M74.13,386.49H75l.14-.69.12,0a2.62,2.62,0,0,0,.69-.29l.1-.06.6.37.65-.67-.39-.59.06-.11a2.54,2.54,0,0,0,.27-.69l0-.12.69-.16v-.93l-.69-.15,0-.11a2.49,2.49,0,0,0-.29-.69l-.06-.1.37-.6-.67-.65-.59.39-.1-.06a3,3,0,0,0-.7-.28l-.12,0-.16-.69H74l-.14.69-.12,0a2.49,2.49,0,0,0-.69.29l-.1.06-.59-.38-.65.66.4.6-.06.1a2.5,2.5,0,0,0-.28.7l0,.11-.69.17v.93l.69.14,0,.12a2.57,2.57,0,0,0,.29.68l.06.1-.37.61.67.64.59-.39.11.06a2.57,2.57,0,0,0,.69.28l.12,0ZM76,383a1.41,1.41,0,1,1-1.41-1.41A1.41,1.41,0,0,1,76,383Z"/><rect class="cls-11" x="66.32" y="373.12" width="2.36" height="11.25" transform="translate(287.58 63.2) rotate(45)"/><polygon class="cls-12" points="60.55 387.14 62.69 381.88 66.04 385.23 60.55 387.14"/><rect class="cls-11" x="67.99" y="374.79" width="2.36" height="11.25" transform="translate(289.26 62.51) rotate(45)"/><rect class="cls-13" x="73.83" y="370.37" width="2.7" height="4.73" transform="translate(391.91 583.15) rotate(135)"/><rect class="cls-14" x="71.92" y="372.28" width="2.7" height="4.73" transform="translate(390 587.75) rotate(135)"/><text class="cls-2" transform="translate(73.37 446.49)">Piu<tspan class="cls-4" x="16.67" y="0">r</tspan><tspan x="20.47" y="0">a</tspan></text><text class="cls-5" transform="translate(91.9 467.01)"><tspan xml:space="preserve"> 1 p</tspan><tspan class="cls-6" x="24.52" y="0">r</tspan><tspan class="cls-7" x="29.73" y="0">o</tspan><tspan class="cls-8" x="38.1" y="0">y</tspan><tspan x="45.53" y="0">ec</tspan><tspan class="cls-9" x="61.46" y="0">t</tspan><tspan x="66.31" y="0">o</tspan></text><path class="cls-10" d="M80.68,462.48H82l.21-1,.16,0a3.61,3.61,0,0,0,1-.41l.14-.08.86.52.92-.95-.56-.85.08-.14a3.38,3.38,0,0,0,.4-1l0-.17,1-.23v-1.32l-1-.21,0-.16a3.48,3.48,0,0,0-.41-1l-.08-.14.52-.86-1-.92-.84.56-.15-.09a3.65,3.65,0,0,0-1-.39l-.16,0-.24-1H80.53l-.2,1-.17,0a4.18,4.18,0,0,0-1,.42l-.14.08-.84-.53-.92.94.56.84-.09.15a3.65,3.65,0,0,0-.39,1l0,.16-1,.24v1.32l1,.21,0,.16a4,4,0,0,0,.42,1l.08.14-.52.86,1,.92.84-.56.15.08a3.27,3.27,0,0,0,1,.4l.16,0Zm2.59-4.92a2,2,0,1,1-2-2A2,2,0,0,1,83.27,457.56Z"/><path class="cls-10" d="M87,469h.92l.14-.69.12,0a2.57,2.57,0,0,0,.68-.29l.1-.05.61.36.64-.66-.39-.6.06-.1a2.63,2.63,0,0,0,.28-.7l0-.11.69-.17V465l-.69-.14,0-.12a3.2,3.2,0,0,0-.29-.69l-.06-.1.37-.6-.67-.65-.6.4-.1-.06a2.5,2.5,0,0,0-.7-.28l-.11,0-.17-.69h-.93l-.14.69-.12,0a2.57,2.57,0,0,0-.68.29l-.11.06-.59-.38-.64.67L85,464l-.06.1a2.63,2.63,0,0,0-.28.7l0,.12-.7.16V466l.7.14,0,.12a3.07,3.07,0,0,0,.3.69l0,.1-.36.6.66.65.6-.39.1.06a2.6,2.6,0,0,0,.7.27l.11,0Zm1.82-3.46a1.41,1.41,0,1,1-1.41-1.41A1.41,1.41,0,0,1,88.77,465.54Z"/><rect class="cls-11" x="79.15" y="455.63" width="2.36" height="11.25" transform="translate(349.69 78.3) rotate(45)"/><polygon class="cls-12" points="73.37 469.65 75.52 464.4 78.86 467.74 73.37 469.65"/><rect class="cls-11" x="80.82" y="457.3" width="2.36" height="11.25" transform="translate(351.36 77.6) rotate(45)"/><rect class="cls-13" x="86.66" y="452.89" width="2.7" height="4.73" transform="translate(472.15 714.94) rotate(135)"/><rect class="cls-14" x="84.75" y="454.8" width="2.7" height="4.73" transform="translate(470.24 719.54) rotate(135)"/><line class="cls-15" x1="203.25" y1="580.02" x2="202" y2="581.58"/><line class="cls-24" x1="199.61" y1="584.57" x2="181.7" y2="606.98"/><line class="cls-15" x1="180.5" y1="608.47" x2="179.25" y2="610.03"/><circle class="cls-17" cx="178.6" cy="610.06" r="1.57"/><circle class="cls-17" cx="203.68" cy="580.01" r="1.57"/><text class="cls-2" transform="translate(129.03 613.27)">Sechu<tspan class="cls-4" x="32.67" y="0">r</tspan><tspan x="36.47" y="0">a</tspan></text><text class="cls-5" transform="translate(147.56 633.79)"><tspan xml:space="preserve"> 1 p</tspan><tspan class="cls-6" x="24.52" y="0">r</tspan><tspan class="cls-7" x="29.73" y="0">o</tspan><tspan class="cls-8" x="38.1" y="0">y</tspan><tspan x="45.53" y="0">ec</tspan><tspan class="cls-9" x="61.46" y="0">t</tspan><tspan x="66.31" y="0">o</tspan></text><path class="cls-10" d="M136.34,629.26h1.3l.21-1,.16,0a3.61,3.61,0,0,0,1-.41l.14-.08.86.52.92-.95-.56-.84.08-.15a3.38,3.38,0,0,0,.4-1l0-.16,1-.24v-1.32l-1-.21-.05-.16a3.61,3.61,0,0,0-.41-1l-.08-.14.52-.86-1-.92-.84.56-.15-.08a3.38,3.38,0,0,0-1-.4l-.16,0-.24-1h-1.32l-.21,1-.16.05a3.74,3.74,0,0,0-1,.41l-.14.08-.84-.53-.92.94.56.85-.09.14a3.65,3.65,0,0,0-.39,1l0,.17-1,.23v1.32l1,.21,0,.16a3.86,3.86,0,0,0,.42,1l.08.14-.52.86,1,.92.84-.56.15.09a3.52,3.52,0,0,0,1,.39l.16,0Zm2.59-4.92a2,2,0,1,1-2-2A2,2,0,0,1,138.93,624.34Z"/><path class="cls-10" d="M142.61,635.78h.92l.14-.68.12,0a3,3,0,0,0,.68-.3l.1,0,.61.36.64-.66-.39-.6.06-.1a2.5,2.5,0,0,0,.28-.7l0-.11.69-.17v-.93l-.69-.14,0-.12a2.83,2.83,0,0,0-.3-.69l-.05-.09.36-.61-.66-.65-.6.4-.1-.06a2.5,2.5,0,0,0-.7-.28l-.11,0-.17-.69h-.93l-.14.69-.12,0a2.57,2.57,0,0,0-.68.29l-.11.06-.59-.38-.64.67.39.59-.06.1a2.63,2.63,0,0,0-.28.7l0,.12-.69.16v.93l.69.15,0,.11a2.89,2.89,0,0,0,.3.69l0,.1-.36.6.66.65.6-.39.1.06a2.85,2.85,0,0,0,.7.28l.11,0Zm1.82-3.46a1.41,1.41,0,1,1-1.41-1.41A1.41,1.41,0,0,1,144.43,632.32Z"/><rect class="cls-11" x="134.81" y="622.41" width="2.36" height="11.25" transform="translate(483.92 87.79) rotate(45)"/><polygon class="cls-12" points="129.03 636.43 131.18 631.18 134.52 634.52 129.03 636.43"/><rect class="cls-11" x="136.48" y="624.09" width="2.36" height="11.25" transform="translate(485.59 87.1) rotate(45)"/><rect class="cls-13" x="142.32" y="619.67" width="2.7" height="4.73" transform="translate(685.1 960.29) rotate(135)"/><rect class="cls-14" x="140.41" y="621.58" width="2.7" height="4.73" transform="translate(683.19 964.9) rotate(135)"/><line class="cls-15" x1="358.88" y1="457.36" x2="358.89" y2="459.36"/><line class="cls-25" x1="358.9" y1="463.18" x2="359.08" y2="529.95"/><line class="cls-15" x1="359.08" y1="531.86" x2="359.09" y2="533.86"/><circle class="cls-17" cx="359.11" cy="534.52" r="1.57"/><circle class="cls-17" cx="358.87" cy="456.58" r="1.57"/><circle class="cls-26" cx="371.43" cy="325.32" r="6.43"/><circle class="cls-26" cx="387.64" cy="325.32" r="6.43"/><circle class="cls-26" cx="434.61" cy="480.23" r="6.43"/><circle class="cls-26" cx="358.85" cy="446.49" r="6.43"/><circle class="cls-26" cx="210.11" cy="572.6" r="6.43"/><circle class="cls-26" cx="434.61" cy="496.44" r="6.43"/><circle class="cls-26" cx="403.85" cy="325.32" r="6.43"/><circle class="cls-27" cx="371.43" cy="341.49" r="6.43"/><circle class="cls-27" cx="387.64" cy="341.49" r="6.43"/><circle class="cls-27" cx="237.52" cy="255.15" r="6.43"/><circle class="cls-27" cx="253.73" cy="255.15" r="6.43"/><circle class="cls-27" cx="219.19" cy="441.45" r="6.43"/><circle class="cls-27" cx="403.85" cy="341.49" r="6.43"/></svg>