<svg id="Capa_1" data-name="Capa 1" xmlns="http://www.w3.org/2000/svg" viewBox="0 0 554 932"><defs><style>.cls-1{fill:#71c2e9;stroke:#377c9c;stroke-width:3px;}.cls-1,.cls-39,.cls-40{stroke-miterlimit:1.75;}.cls-2{font-size:12px;font-family:Roboto-Light, Roboto;font-weight:300;}.cls-17,.cls-2,.cls-4{fill:#1d1d1b;}.cls-3{letter-spacing:-0.01em;}.cls-4{font-size:15px;font-family:Roboto-Bold, Roboto;font-weight:700;}.cls-5{letter-spacing:-0.02em;}.cls-6{letter-spacing:-0.01em;}.cls-7{letter-spacing:-0.01em;}.cls-8{letter-spacing:-0.01em;}.cls-15,.cls-16,.cls-18,.cls-19,.cls-21,.cls-25,.cls-26,.cls-27,.cls-28,.cls-29,.cls-30,.cls-31,.cls-33,.cls-34,.cls-35,.cls-36,.cls-37,.cls-38,.cls-9{fill:none;}.cls-10,.cls-11,.cls-12,.cls-13,.cls-9{stroke:#262626;stroke-linecap:round;stroke-width:0.5px;}.cls-10,.cls-11,.cls-12,.cls-13,.cls-15,.cls-16,.cls-18,.cls-19,.cls-21,.cls-25,.cls-26,.cls-27,.cls-28,.cls-29,.cls-30,.cls-31,.cls-33,.cls-34,.cls-35,.cls-36,.cls-37,.cls-38,.cls-9{stroke-linejoin:round;}.cls-10{fill:#fab637;}.cls-11{fill:#ffe7a1;}.cls-12{fill:#4ca8de;}.cls-13{fill:#cfcece;}.cls-14{letter-spacing:-0.01em;}.cls-15,.cls-16,.cls-18,.cls-19,.cls-21,.cls-25,.cls-26,.cls-27,.cls-28,.cls-29,.cls-30,.cls-31,.cls-33,.cls-34,.cls-35,.cls-36,.cls-37,.cls-38{stroke:#0b0c0c;}.cls-16{stroke-dasharray:3.86 3.86;}.cls-18{stroke-dasharray:3.74 3.74;}.cls-19{stroke-dasharray:3.8 3.8;}.cls-20{letter-spacing:-0.02em;}.cls-21{stroke-dasharray:4.26 4.26;}.cls-22{letter-spacing:-0.01em;}.cls-23{letter-spacing:-0.01em;}.cls-24{letter-spacing:-0.02em;}.cls-25{stroke-dasharray:3.68 3.68;}.cls-26{stroke-dasharray:3.53 3.53;}.cls-27{stroke-dasharray:3.71 3.71;}.cls-28{stroke-dasharray:3.97 3.97;}.cls-29{stroke-dasharray:3.97 3.97;}.cls-30{stroke-dasharray:3.93 3.93;}.cls-31{stroke-dasharray:3.89 3.89;}.cls-32{letter-spacing:-0.02em;}.cls-33{stroke-dasharray:3.86 3.86;}.cls-34{stroke-dasharray:3.99 3.99;}.cls-35{stroke-dasharray:4.08 4.08;}.cls-36{stroke-dasharray:4.5 4.5;}.cls-37{stroke-dasharray:4.17 4.17;}.cls-38{stroke-dasharray:3.97 3.97;}.cls-39{fill:#afd28c;stroke:#71915a;isolation:isolate;}.cls-40{fill:#ec6062;stroke:#cc444b;}</style></defs><path class="cls-1" d="M304,379.45l10.73,4.19,4.62,9.05-4,5,2.56,15.73,6.92,11.51-6,3.92-31.14-1.29-5.18,11.77L269.14,421l-6.32,10.3-9.7,1.29-9.24,16.59-13-5.79-15,2.58-4-6.39,3.05-5.22-11.62-2.54L216,420.12l-5.15-12.47,7.4.62,4.78-7.62-2.77-1.6,12-12.23,12.21,3.5,5.43-8.51,8.4,1.11,6.45,11.74,10.06-12.13Z"/><path class="cls-1" d="M270.33,425.39l11.27,8.9,9.81,26.29-29-1.39-7.46-4.35-17.8,12.09-1.23-12.21-20-8.78,15-2.58,13.29,5.78,8.93-16.58,9.7-1.29,5.57-10Z"/><path class="cls-1" d="M352.46,319.84,375,335.51l-2.33,20.73-8.25,14.3-11.6-5.38.32-12.83-9,3.12-4.95-6.64,5.14-10.75-1.78-9,6.42-4-1.79-4.75Z"/><path class="cls-1" d="M305.7,332.81l4,1.13-.63,7.65,16.15,13.28-2,12.46-5.26.79-1.6,6.39-30-10.92L283,354.86l6.06-14,9-8Z"/><path class="cls-1" d="M375,434l20.44,40.24,1,19.36-17,5.63L381,523.28l-9.26,4.89-6.27-3.46L338.78,556l2.79-19-11.05-4.83-4.17-12.1-7.14,4.85-4.06-4.47-5.07,5.61L294,523.51,284.41,541l-11.85-.63-4.88-9.6-3.23,3.53L257,530.79l3.81-18.07,15.5,6.75,9.15-16L303.65,501l8.57,4.45,4-5.25,6.27,5.21,11.21-4.36-2.3-28.26.69-5.09,7.14-1.17L337,454.7l14.43.72-.64-5.42L362,443.41l-1-8.58,9.46,8-1.12-5.58Z"/><path class="cls-1" d="M283.6,337l6,3.42-6.74,10.36,3.25,12.39,29.26,9.1-.69,11.33L304.12,378l-29.3,4.5-10.06,12.13-5.42-10.83-9.43-2-5-8.78,13.64-14.17,1.35,3.49,5.73-7.7,4.18,2.74,4.15-6.77-1.65-9.8Z"/><path class="cls-1" d="M343.89,308.15l6.39,9.49-1.43,7.5-6.37,3.9-.32,17.17L325.32,356.3l-16.26-14.71,1.07-22.38Z"/><path class="cls-1" d="M169.41,355.31l18.22,10.5,13.26.54-.44,9.82,8.93,7.24L204.6,388l6,5.67,9.88-8,5,7.41-7.1,15.26-7.4-.62,5.44,10.91-7.54,12-21.54,5.06-12.73,12.64-22-25.93-5.92-24.21,3.85-4.63-8.39-8.63,11.12-19.66Z"/><path class="cls-1" d="M242.16,227.77l14.19,19.4,2.25,10.25-5,12.55-24.9,4.31-6.31,10-13.85-12.63-16-1.8-1.67-9.28,20.32-10.11,2.49-8.75,14.81-5.53.75-6.69Z"/><path class="cls-1" d="M378.17,335.26l24.4,13,6.33,12-2,15.32-3.87,5.67-12.77-16.1-13.85,21-3.11,25.33-14.39,11.31,3,20.6L350.83,450l.64,5.42L334.77,454l-6.63-3.81,2.55-14.77-12.77-21.72-2.63-16.07,4-5L314,379l3-9.71,6.24-1.95,2.07-11L337.21,348l6.86,7.42,9-3.12-.32,12.83,11.6,5.38Z"/><path class="cls-1" d="M201.24,431.76,215,434.33l-3.05,5.22,4.63,7.58,19.36,7.59,1.23,12.21,17.8-12.09,25.3,6.48-12.76,22.52L245.35,480l3.12,7.07,6.8,1.51,1.86,14.29,6.54,1.3L257,530.79l-8.41,0,.42,13.3-7.66,11,4.29,14.81L235,569.28l-7.34,6.91-20-31.44.59-5.73-7-4.59L194,511.84l-13-14.36,1.45-10.25-9-14.51,1.87-27,12-10.05,9,.93Z"/><path class="cls-1" d="M254,270.68l21.39,17.24-4.24,15.83,5.32,4.42-6.3,14.62-26.34,14-2.13,22.81L235,357.83l-8.7,6.87-23.06-3.11-4.89-10.84,9-.81-7.15-6,.23-6.28,18.48-17.28.07-9.17-9.18-12.09.81-21.24,6.07-1.27,5.78,7.6,6.22-10Z"/><path class="cls-1" d="M322.83,277.27l16.23,20.57.77,13.62-23.64,3.75-10.81,7.88L280,322l-1.8-13.35,30.61.81-12.41-11,1.44-3.89Z"/><path class="cls-1" d="M328,522.06l2.49,10.13L341.57,537l-5.13,29.79-15.84.7-16.12,16.43v8.81l-20.13,2.69-10.52,8.06,4.39-12.06-4.29-10,2.55-9-7.07,4-4-4.91,6.88-11.52-22.6,7.67,9.24-19.46,13.86-8,11.79.68L294,523.51l16.11,2.57,5.07-5.61,3.85,4.45Z"/><path class="cls-1" d="M265.13,175.13l4.4,4.54-2.8,4.5,12.47,13.41-2.09,9.55-20.79,8.2-6.4,8.63-20.69,5.49-.75,6.69-14.81,5.53-2.49,8.75-21,10.78,3.13,9.29L184,276l-10.47-5.83,6-8.39-3.52-7.4,9.31-12.23,5.93-25.87,15.77-14L220.35,198l5.67-21,17.39,2.5Z"/><path class="cls-1" d="M313.22,249.79l4.34.59,2.82,16.54,5.17,1.8,2.26,8.56L309,284.57l-11.2,10-1.44,3.89,12.41,11-23,2.32L271.74,306l2.92-22.88,15.64-8.95-.62-14.53,19.38-13.09Z"/><path class="cls-1" d="M324.82,426l5.87,9.42-2.55,14.77,8.86,4.31,2.21,11.8-7.33,2.2,1.93,32.36-11.36,4.56-6.27-5.21-4,5.25L303.65,501l-18.17,2.47-9.15,16L262,514.24l1.52-10.89-6.36-.5-1.86-14.29-6.8-1.51L246,478.92l21.5,4.92,12.42-23.51,11.51.25-9-21.28,5-11.68,27.71,2.45Z"/><path class="cls-1" d="M173.68,270.25l7.47,5.63L198.36,270l15.84,4.84-6.69,11.59,5,18.59,6.52,6.32-.11,9-18.48,17.28L200.2,344l7.15,6-9,.81,5.73,11.17-3,4.85-13.5-1-18.52-10.59-15.82,9.89-8.83,14.26-6.64-6.1-3.2,2.69-6.91-9.21L133,363l-.7-9.61L122,352.22l1.3,8.36-8.8-9.23,6.33-1,1.62-7.46-11-7.64,1.31-9-5.78-4.65,10.72-6.84,6-26.24,30.78-15.93Z"/><path class="cls-1" d="M281.16,204.47l8.3,6.94,8.29,21.89,11.31,13.27-19,12.69.27,14.93-16.7,11.62-20-15.84,5-12.55-2.25-10.25-15-20.31Z"/><path class="cls-1" d="M276.62,308.24l4.55,4.35-1.51,8.94,5.65,3,24.77-4.38-.39,13.75-11.4-1.12-7.42,7.68-8.25-3.91-9.53,3.33-3.33,17.47-4.18-2.74-3.24,7.17-3.84-3-12.17,10.82L250.15,380l-3.73,9.81-14.15-3L225.39,393l-5-7.41L211,393.69l-5.36-3.91,3.73-6.37-8.95-7.32L203,362.23l23.34,2.47,8.7-6.87,7.77,1.09,1.07-22.13,23.56-11.5Z"/><text class="cls-2" transform="translate(97.63 133.96)"><tspan class="cls-3">P</tspan><tspan x="7.32" y="0">allasca</tspan></text><text class="cls-4" transform="translate(116.16 154.49)"><tspan xml:space="preserve"> 0 p</tspan><tspan class="cls-5" x="24.52" y="0">r</tspan><tspan class="cls-6" x="29.73" y="0">o</tspan><tspan class="cls-7" x="38.1" y="0">y</tspan><tspan x="45.53" y="0">ec</tspan><tspan class="cls-8" x="61.46" y="0">t</tspan><tspan x="66.31" y="0">os</tspan></text><text class="cls-4" transform="translate(233.01 252.21)">x1</text><path class="cls-9" d="M104.94,150h1.3l.2-1,.17,0a4,4,0,0,0,1-.42l.14-.08.86.53.92-.95-.55-.85L109,147a4.1,4.1,0,0,0,.4-1l0-.16,1-.24,0-1.32-1-.2,0-.17a4,4,0,0,0-.42-1l-.08-.14.52-.86-.94-.92-.85.56-.14-.09a3.71,3.71,0,0,0-1-.39l-.16,0-.24-1h-1.32l-.2,1-.17,0a4,4,0,0,0-1,.42l-.15.08-.84-.54-.91,1,.55.84L102,143a4,4,0,0,0-.4,1l0,.16-1,.24,0,1.32,1,.2,0,.17a4.18,4.18,0,0,0,.42,1l.08.14-.53.86,1,.92.85-.56.14.08a3.74,3.74,0,0,0,1,.4l.16,0Zm2.59-4.93a2,2,0,1,1-2-2A2,2,0,0,1,107.53,145Z"/><path class="cls-9" d="M111.21,156.48h.91l.14-.69.12,0a2.62,2.62,0,0,0,.69-.29l.1-.06.6.37.65-.67-.39-.59.06-.1a2.6,2.6,0,0,0,.27-.7l0-.12.69-.16v-.93l-.69-.14,0-.12a2.62,2.62,0,0,0-.29-.69l-.06-.1.37-.6-.67-.65-.59.39-.1-.06a2.6,2.6,0,0,0-.7-.27l-.12,0-.16-.69h-.93l-.14.69-.12,0a2.49,2.49,0,0,0-.69.29l-.1.06-.59-.38-.65.66.4.6-.06.1a2.63,2.63,0,0,0-.28.7l0,.11-.69.17v.93l.69.14,0,.12a2.77,2.77,0,0,0,.29.69l.06.1-.37.6.67.65.59-.4.11.06a2.57,2.57,0,0,0,.69.28l.12,0ZM113,153a1.41,1.41,0,1,1-1.41-1.41A1.42,1.42,0,0,1,113,153Z"/><rect class="cls-10" x="103.4" y="143.11" width="2.36" height="11.25" transform="translate(135.8 -30.39) rotate(45)"/><polygon class="cls-11" points="97.63 157.13 99.77 151.88 103.12 155.22 97.63 157.13"/><rect class="cls-10" x="105.07" y="144.78" width="2.36" height="11.25" transform="translate(137.48 -31.08) rotate(45)"/><rect class="cls-12" x="110.91" y="140.37" width="2.7" height="4.73" transform="translate(292.57 164.28) rotate(135)"/><rect class="cls-13" x="109" y="142.28" width="2.7" height="4.73" transform="translate(290.66 168.88) rotate(135)"/><text class="cls-2" transform="translate(264.92 125.93)">Sihuas</text><text class="cls-4" transform="translate(283.45 146.46)"><tspan xml:space="preserve"> 4 p</tspan><tspan class="cls-5" x="24.52" y="0">r</tspan><tspan class="cls-6" x="29.73" y="0">o</tspan><tspan class="cls-7" x="38.1" y="0">y</tspan><tspan x="45.53" y="0">ec</tspan><tspan class="cls-8" x="61.46" y="0">t</tspan><tspan x="66.31" y="0">os</tspan></text><path class="cls-9" d="M272.22,141.93h1.31l.2-1,.17,0a4,4,0,0,0,1-.42l.14-.08.86.52.92-1-.56-.84.09-.15a3.88,3.88,0,0,0,.4-1l0-.16,1-.24,0-1.32-1-.2,0-.17a4.18,4.18,0,0,0-.42-1l-.08-.14.52-.85-.94-.93-.85.56-.15-.08a3.55,3.55,0,0,0-1-.4l-.16,0-.24-1h-1.32l-.2,1-.17,0a3.55,3.55,0,0,0-1,.41l-.15.09-.84-.54-.92.94.56.85-.08.14a3.74,3.74,0,0,0-.4,1l0,.16-1,.24v1.32l1,.2,0,.17a3.55,3.55,0,0,0,.41,1l.08.14-.52.86.95.92.85-.56.14.09a4,4,0,0,0,1,.4l.17,0Zm2.59-4.93a2,2,0,1,1-2-2A2,2,0,0,1,274.81,137Z"/><path class="cls-9" d="M278.49,148.45h.92l.14-.69.12,0a2.77,2.77,0,0,0,.69-.29l.1-.06.6.37.65-.67-.4-.59.06-.11a2.23,2.23,0,0,0,.28-.7l0-.11.69-.17v-.93l-.69-.14,0-.12a2.57,2.57,0,0,0-.29-.68l-.06-.1.37-.6-.67-.65-.59.39-.11-.06a2.57,2.57,0,0,0-.69-.28l-.12,0-.16-.69h-.93l-.15.69-.11,0a2.89,2.89,0,0,0-.69.3l-.1.05-.59-.37-.65.66.39.59-.05.11a2.28,2.28,0,0,0-.28.69l0,.12-.69.17v.93l.69.14,0,.12a2.57,2.57,0,0,0,.29.68l.06.1-.37.6.67.65.59-.39.1.06a2.63,2.63,0,0,0,.7.28l.12,0Zm1.83-3.47a1.42,1.42,0,1,1-1.42-1.41A1.42,1.42,0,0,1,280.32,145Z"/><rect class="cls-10" x="270.69" y="135.08" width="2.36" height="11.25" transform="translate(179.12 -151.03) rotate(45)"/><polygon class="cls-11" points="264.92 149.09 267.06 143.84 270.4 147.19 264.92 149.09"/><rect class="cls-10" x="272.36" y="136.75" width="2.36" height="11.25" transform="translate(180.79 -151.73) rotate(45)"/><rect class="cls-12" x="278.2" y="132.33" width="2.7" height="4.73" transform="translate(572.47 32.27) rotate(135)"/><rect class="cls-13" x="276.29" y="134.24" width="2.7" height="4.73" transform="translate(570.56 36.88) rotate(135)"/><text class="cls-2" transform="translate(80.78 189.11)">Co<tspan class="cls-14" x="14.51" y="0">r</tspan><tspan x="18.43" y="0">ongo</tspan></text><text class="cls-4" transform="translate(99.31 209.64)"><tspan xml:space="preserve"> 3 p</tspan><tspan class="cls-5" x="24.52" y="0">r</tspan><tspan class="cls-6" x="29.73" y="0">o</tspan><tspan class="cls-7" x="38.1" y="0">y</tspan><tspan x="45.53" y="0">ec</tspan><tspan class="cls-8" x="61.46" y="0">t</tspan><tspan x="66.31" y="0">o</tspan></text><path class="cls-9" d="M88.09,205.11h1.3l.21-1,.16,0a4.18,4.18,0,0,0,1-.42l.14-.08.86.52.92-1-.56-.84.08-.15a3.55,3.55,0,0,0,.4-1l0-.16,1-.24v-1.32l-1-.2,0-.17a3.74,3.74,0,0,0-.41-1l-.08-.14.52-.85-1-.93-.84.56-.15-.08a3.68,3.68,0,0,0-1-.4l-.16,0-.24-1H87.94l-.21,1-.16,0a3.61,3.61,0,0,0-1,.41l-.14.09-.84-.54-.92.94.56.85-.09.14a3.71,3.71,0,0,0-.39,1l0,.16-1,.24v1.32l1,.2,0,.17a4,4,0,0,0,.42,1l.08.14-.52.86.95.92.84-.56.15.09a3.88,3.88,0,0,0,1,.4l.16,0Zm2.59-4.93a2,2,0,1,1-2-2A2,2,0,0,1,90.68,200.18Z"/><path class="cls-9" d="M94.36,211.63h.92l.14-.69.12,0a2.57,2.57,0,0,0,.68-.29l.1-.06.6.37.65-.67-.39-.59.06-.11a2.5,2.5,0,0,0,.28-.7l0-.11.69-.17v-.93l-.69-.14,0-.12a3,3,0,0,0-.3-.68l0-.1.36-.6-.66-.65-.6.39-.1-.06a2.5,2.5,0,0,0-.7-.28l-.11,0-.17-.69h-.93l-.14.69-.12,0a2.83,2.83,0,0,0-.69.3l-.1.05-.59-.37-.64.66.39.59-.06.11a2.57,2.57,0,0,0-.28.69l0,.12-.69.17v.93l.69.14,0,.12a3,3,0,0,0,.3.68l0,.1-.36.6.66.65.6-.39.1.06a2.5,2.5,0,0,0,.7.28l.11,0Zm1.82-3.47a1.41,1.41,0,1,1-1.41-1.41A1.41,1.41,0,0,1,96.18,208.16Z"/><rect class="cls-10" x="86.56" y="198.26" width="2.36" height="11.25" transform="translate(169.86 -2.33) rotate(45)"/><polygon class="cls-11" points="80.78 212.28 82.92 207.02 86.27 210.37 80.78 212.28"/><rect class="cls-10" x="88.23" y="199.93" width="2.36" height="11.25" transform="translate(171.54 -3.02) rotate(45)"/><rect class="cls-12" x="94.06" y="195.51" width="2.7" height="4.73" transform="translate(302.8 270.33) rotate(135)"/><rect class="cls-13" x="92.16" y="197.42" width="2.7" height="4.73" transform="translate(300.89 274.94) rotate(135)"/><line class="cls-15" x1="205.95" y1="151.96" x2="207.37" y2="153.37"/><line class="cls-16" x1="210.11" y1="156.08" x2="241.58" y2="187.32"/><line class="cls-15" x1="242.95" y1="188.68" x2="244.37" y2="190.08"/><circle class="cls-17" cx="244.85" cy="190.53" r="1.57"/><circle class="cls-17" cx="205.63" cy="151.66" r="1.57"/><line class="cls-15" x1="179.68" y1="206.92" x2="181.33" y2="208.05"/><line class="cls-16" x1="184.5" y1="210.24" x2="221" y2="235.41"/><line class="cls-15" x1="222.59" y1="236.51" x2="224.24" y2="237.64"/><circle class="cls-17" cx="224.79" cy="238" r="1.57"/><circle class="cls-17" cx="179.31" cy="206.68" r="1.57"/><line class="cls-15" x1="274.17" y1="214.44" x2="274.16" y2="212.44"/><line class="cls-18" x1="274.15" y1="208.7" x2="273.97" y2="158.26"/><line class="cls-15" x1="273.97" y1="156.39" x2="273.96" y2="154.39"/><circle class="cls-17" cx="273.93" cy="153.74" r="1.57"/><circle class="cls-17" cx="274.18" cy="214.87" r="1.57"/><text class="cls-2" transform="translate(293.48 180.17)"><tspan class="cls-7">P</tspan><tspan x="7.31" y="0">omabamba</tspan></text><text class="cls-4" transform="translate(312.01 200.69)"><tspan xml:space="preserve"> 7 p</tspan><tspan class="cls-5" x="24.52" y="0">r</tspan><tspan class="cls-6" x="29.73" y="0">o</tspan><tspan class="cls-7" x="38.1" y="0">y</tspan><tspan x="45.53" y="0">ec</tspan><tspan class="cls-8" x="61.46" y="0">t</tspan><tspan x="66.31" y="0">os</tspan></text><path class="cls-9" d="M300.79,196.16h1.3l.2-1,.17,0a3.74,3.74,0,0,0,1-.41l.14-.08.86.52.92-.95-.56-.85.08-.14a3.68,3.68,0,0,0,.4-1l0-.17,1-.23v-1.32l-1-.21,0-.16a3.48,3.48,0,0,0-.41-1l-.08-.14.52-.86-1-.92-.85.56-.14-.09a3.65,3.65,0,0,0-1-.39l-.17,0-.23-1h-1.32l-.21,1-.16,0a3.86,3.86,0,0,0-1,.42l-.14.08-.84-.53-.92.94.56.84-.09.15a3.65,3.65,0,0,0-.39,1l0,.16-1,.24V192l1,.21,0,.16a4,4,0,0,0,.42,1l.08.14-.52.86.94.92.85-.56.15.08a3.27,3.27,0,0,0,1,.4l.16,0Zm2.59-4.92a2,2,0,1,1-2-2A2,2,0,0,1,303.38,191.24Z"/><path class="cls-9" d="M307.06,202.68H308l.15-.69.11,0a2.49,2.49,0,0,0,.69-.29l.1,0,.6.36.65-.66-.39-.6.06-.1a2.63,2.63,0,0,0,.28-.7l0-.11.69-.17v-.93l-.7-.14,0-.12a2.77,2.77,0,0,0-.29-.69l-.05-.1.36-.6-.66-.65-.6.4-.1-.06a2.63,2.63,0,0,0-.7-.28l-.11,0-.17-.69H307l-.14.69-.12,0a2.77,2.77,0,0,0-.69.29l-.1.06-.59-.38-.64.67.39.59-.06.1a2.63,2.63,0,0,0-.28.7l0,.12-.69.16v.93l.69.14,0,.12a3,3,0,0,0,.29.69l.06.1-.37.6.67.65.6-.39.1.06a2.48,2.48,0,0,0,.7.27l.11,0Zm1.82-3.46a1.41,1.41,0,1,1-1.41-1.41A1.41,1.41,0,0,1,308.88,199.22Z"/><rect class="cls-10" x="299.25" y="189.31" width="2.36" height="11.25" transform="translate(225.84 -155.35) rotate(45)"/><polygon class="cls-11" points="293.48 203.33 295.62 198.08 298.97 201.42 293.48 203.33"/><rect class="cls-10" x="300.93" y="190.98" width="2.36" height="11.25" transform="translate(227.51 -156.04) rotate(45)"/><rect class="cls-12" x="306.76" y="186.57" width="2.7" height="4.73" transform="translate(659.58 104.66) rotate(135)"/><rect class="cls-13" x="304.86" y="188.48" width="2.7" height="4.73" transform="translate(657.67 109.27) rotate(135)"/><line class="cls-15" x1="302.35" y1="256.04" x2="302.34" y2="254.04"/><line class="cls-19" x1="302.32" y1="250.24" x2="302.16" y2="214.18"/><line class="cls-15" x1="302.15" y1="212.29" x2="302.14" y2="210.29"/><circle class="cls-17" cx="302.12" cy="209.63" r="1.57"/><circle class="cls-17" cx="302.36" cy="256.2" r="1.57"/><text class="cls-2" transform="translate(333.11 232.32)">Mariscal <tspan class="cls-20" x="47.83" y="0">L</tspan><tspan x="53.89" y="0">uzuriaga</tspan></text><text class="cls-4" transform="translate(351.64 252.84)"><tspan xml:space="preserve"> 2 p</tspan><tspan class="cls-5" x="24.52" y="0">r</tspan><tspan class="cls-6" x="29.73" y="0">o</tspan><tspan class="cls-7" x="38.1" y="0">y</tspan><tspan x="45.53" y="0">ec</tspan><tspan class="cls-8" x="61.46" y="0">t</tspan><tspan x="66.31" y="0">os</tspan></text><path class="cls-9" d="M340.42,248.31h1.3l.21-1,.16,0a3.48,3.48,0,0,0,1-.41l.14-.08.86.52.92-.95-.56-.84.09-.15a3.65,3.65,0,0,0,.39-1l0-.16,1-.24v-1.32l-1-.21,0-.16a4,4,0,0,0-.42-1l-.08-.14.52-.86-.95-.92-.84.56-.15-.08a3.27,3.27,0,0,0-1-.4l-.16,0-.24-1h-1.32l-.2,1-.17.05a3.74,3.74,0,0,0-1,.41l-.14.08-.84-.53-.92.94.56.85-.08.14a3.38,3.38,0,0,0-.4,1l0,.17-1,.23v1.32l1,.21.05.16a3.48,3.48,0,0,0,.41,1l.08.14-.52.86,1,.92.84-.56.15.09a3.65,3.65,0,0,0,1,.39l.16,0Zm2.59-4.92a2,2,0,1,1-2-2A2,2,0,0,1,343,243.39Z"/><path class="cls-9" d="M346.69,254.83h.92l.14-.68.12,0a3,3,0,0,0,.68-.3l.1,0,.61.36.64-.66-.39-.6.06-.1a2.5,2.5,0,0,0,.28-.7l0-.11.69-.17v-.93l-.69-.14,0-.12a2.77,2.77,0,0,0-.29-.69l-.06-.09.37-.61-.67-.65-.59.4-.11-.06a2.5,2.5,0,0,0-.7-.28l-.11,0-.17-.69h-.93l-.14.69-.12,0a2.57,2.57,0,0,0-.68.29l-.1.06-.6-.38-.64.67.39.59-.06.1a3,3,0,0,0-.28.7l0,.12-.69.16v.93l.69.15,0,.11a2.49,2.49,0,0,0,.29.69l0,.1-.36.6.66.65.6-.39.1.06a3,3,0,0,0,.7.28l.11,0Zm1.82-3.46A1.41,1.41,0,1,1,347.1,250,1.41,1.41,0,0,1,348.51,251.37Z"/><rect class="cls-10" x="338.89" y="241.46" width="2.36" height="11.25" transform="translate(274.32 -168.1) rotate(45)"/><polygon class="cls-11" points="333.11 255.48 335.26 250.23 338.6 253.57 333.11 255.48"/><rect class="cls-10" x="340.56" y="243.14" width="2.36" height="11.25" transform="translate(275.99 -168.79) rotate(45)"/><rect class="cls-12" x="346.4" y="238.72" width="2.7" height="4.73" transform="translate(764.11 165.66) rotate(135)"/><rect class="cls-13" x="344.49" y="240.63" width="2.7" height="4.73" transform="translate(762.2 170.27) rotate(135)"/><line class="cls-15" x1="325.78" y1="286.21" x2="326.9" y2="284.55"/><line class="cls-21" x1="329.31" y1="281.03" x2="342.53" y2="261.66"/><line class="cls-15" x1="343.73" y1="259.9" x2="344.86" y2="258.25"/><circle class="cls-17" cx="345.04" cy="258.25" r="1.57"/><circle class="cls-17" cx="325.54" cy="286.57" r="1.57"/><text class="cls-2" transform="translate(365.87 274.23)">Carlos <tspan class="cls-22" x="36.66" y="0">F</tspan><tspan x="43.29" y="0">ermin Fit</tspan><tspan class="cls-23" x="89.65" y="0">z</tspan><tspan x="95.4" y="0">car</tspan><tspan class="cls-24" x="112.04" y="0">r</tspan><tspan x="115.85" y="0">ald</tspan></text><text class="cls-4" transform="translate(384.4 294.75)"><tspan xml:space="preserve"> 1 p</tspan><tspan class="cls-5" x="24.52" y="0">r</tspan><tspan class="cls-6" x="29.73" y="0">o</tspan><tspan class="cls-7" x="38.1" y="0">y</tspan><tspan x="45.53" y="0">ec</tspan><tspan class="cls-8" x="61.46" y="0">t</tspan><tspan x="66.31" y="0">o</tspan></text><path class="cls-9" d="M373.18,290.23h1.3l.21-1,.16-.05a3.61,3.61,0,0,0,1-.41l.14-.08.86.52.92-1-.56-.84.08-.15a3.38,3.38,0,0,0,.4-1l0-.16,1-.24v-1.32l-1-.21-.05-.16a3.61,3.61,0,0,0-.41-1l-.08-.14.52-.86-.95-.92-.84.56-.15-.08a3.38,3.38,0,0,0-1-.4l-.16,0-.24-1H373l-.21,1-.16.05a3.61,3.61,0,0,0-1,.41l-.14.08-.84-.53-.92.94.56.85-.09.14a3.78,3.78,0,0,0-.39,1l0,.17-1,.23V286l1,.21,0,.16a3.86,3.86,0,0,0,.42,1l.08.14-.52.86.95.92.84-.56.15.09a3.52,3.52,0,0,0,1,.39l.16,0Zm2.59-4.93a2,2,0,1,1-2-2A2,2,0,0,1,375.77,285.3Z"/><path class="cls-9" d="M379.45,296.75h.92l.14-.69.12,0a2.62,2.62,0,0,0,.68-.3l.1-.05.6.36.65-.66-.39-.6.06-.1a2.5,2.5,0,0,0,.28-.7l0-.11.69-.17v-.93l-.69-.14,0-.12a2.83,2.83,0,0,0-.3-.69l-.05-.09.36-.61-.66-.64-.6.39-.1-.06a2.5,2.5,0,0,0-.7-.28l-.11,0-.17-.69h-.93l-.14.69-.12,0a2.57,2.57,0,0,0-.68.29l-.11.06-.59-.38-.64.67.39.59-.06.1a2.77,2.77,0,0,0-.28.7l0,.12-.69.16v.93l.69.15,0,.11a2.89,2.89,0,0,0,.3.69l.05.1-.36.6.66.65.6-.39.1.06a2.85,2.85,0,0,0,.7.28l.11,0Zm1.82-3.47a1.41,1.41,0,1,1-1.41-1.41A1.41,1.41,0,0,1,381.27,293.28Z"/><rect class="cls-10" x="371.65" y="283.37" width="2.36" height="11.25" transform="translate(313.55 -178.98) rotate(45)"/><polygon class="cls-11" points="365.87 297.39 368.02 292.14 371.36 295.48 365.87 297.39"/><rect class="cls-10" x="373.32" y="285.05" width="2.36" height="11.25" transform="translate(315.22 -179.68) rotate(45)"/><rect class="cls-12" x="379.16" y="280.63" width="2.7" height="4.73" transform="translate(849.67 214.05) rotate(135)"/><rect class="cls-13" x="377.25" y="282.54" width="2.7" height="4.73" transform="translate(847.76 218.65) rotate(135)"/><line class="cls-15" x1="334.04" y1="321.82" x2="335.45" y2="320.4"/><line class="cls-25" x1="338.05" y1="317.79" x2="357.5" y2="298.21"/><line class="cls-15" x1="358.8" y1="296.9" x2="360.21" y2="295.48"/><circle class="cls-17" cx="360.77" cy="295.13" r="1.57"/><circle class="cls-17" cx="333.68" cy="322.05" r="1.57"/><text class="cls-2" transform="translate(393.24 314.12)">An<tspan class="cls-14" x="14.09" y="0">t</tspan><tspan x="17.82" y="0">onio R</tspan><tspan class="cls-6" x="51.08" y="0">a</tspan><tspan x="57.42" y="0">ymondi</tspan></text><text class="cls-4" transform="translate(411.77 334.65)"><tspan xml:space="preserve"> 1 p</tspan><tspan class="cls-5" x="24.52" y="0">r</tspan><tspan class="cls-6" x="29.73" y="0">o</tspan><tspan class="cls-7" x="38.1" y="0">y</tspan><tspan x="45.53" y="0">ec</tspan><tspan class="cls-8" x="61.46" y="0">t</tspan><tspan x="66.31" y="0">o</tspan></text><path class="cls-9" d="M400.55,330.12h1.3l.21-1,.16,0a4,4,0,0,0,1-.42l.14-.08.86.52.92-.95-.56-.84.08-.15a3.27,3.27,0,0,0,.4-1l0-.16,1-.24v-1.32l-1-.2-.05-.17a3.74,3.74,0,0,0-.41-1l-.08-.14.52-.85-.95-.92-.84.55-.15-.08a3.68,3.68,0,0,0-1-.4l-.16,0-.24-1-1.32,0-.21,1-.16,0a3.61,3.61,0,0,0-1,.41l-.14.09-.84-.54-.92.94.56.85-.09.15a3.52,3.52,0,0,0-.39,1l0,.16-1,.24v1.32l1,.2,0,.17a4,4,0,0,0,.42,1l.08.14-.52.86.95.92.84-.56.15.09a3.88,3.88,0,0,0,1,.4l.16,0Zm2.59-4.93a2,2,0,1,1-2-2A2,2,0,0,1,403.14,325.19Z"/><path class="cls-9" d="M406.82,336.64h.92l.14-.69.12,0a2.57,2.57,0,0,0,.68-.29l.1-.06.6.37.65-.67-.39-.59.06-.11a2.57,2.57,0,0,0,.28-.69l0-.12.69-.17v-.92l-.69-.15,0-.11a2.54,2.54,0,0,0-.3-.69l-.05-.1.36-.6-.66-.65-.6.39-.1-.06a2.5,2.5,0,0,0-.7-.28l-.11,0-.17-.69h-.93l-.14.69-.12,0a3,3,0,0,0-.68.3l-.11,0-.59-.37-.64.66.39.6-.06.1a2.5,2.5,0,0,0-.28.7l0,.11-.69.17v.93l.69.14,0,.12a3,3,0,0,0,.3.68l0,.1-.36.61.66.64.6-.39.1.06a2.5,2.5,0,0,0,.7.28l.11,0Zm1.82-3.47a1.41,1.41,0,1,1-1.41-1.41A1.41,1.41,0,0,1,408.64,333.17Z"/><rect class="cls-10" x="399.02" y="323.27" width="2.36" height="11.25" transform="translate(349.78 -186.65) rotate(45)"/><polygon class="cls-11" points="393.24 337.29 395.39 332.03 398.73 335.38 393.24 337.29"/><rect class="cls-10" x="400.69" y="324.94" width="2.36" height="11.25" transform="translate(351.45 -187.35) rotate(45)"/><rect class="cls-12" x="406.53" y="320.52" width="2.7" height="4.73" transform="translate(924.6 262.79) rotate(135)"/><rect class="cls-13" x="404.62" y="322.43" width="2.7" height="4.73" transform="translate(922.69 267.4) rotate(135)"/><text class="cls-2" transform="translate(391.9 396.68)">Carhuaz</text><text class="cls-4" transform="translate(410.43 417.21)"><tspan xml:space="preserve"> 8 p</tspan><tspan class="cls-5" x="24.52" y="0">r</tspan><tspan class="cls-6" x="29.73" y="0">o</tspan><tspan class="cls-7" x="38.1" y="0">y</tspan><tspan x="45.53" y="0">ec</tspan><tspan class="cls-8" x="61.46" y="0">t</tspan><tspan x="66.31" y="0">os</tspan></text><path class="cls-9" d="M399.21,412.68h1.3l.2-1,.17,0a4.18,4.18,0,0,0,1-.42l.14-.08.85.52.92-.94-.55-.85.08-.14a4.1,4.1,0,0,0,.4-1l0-.16,1-.24,0-1.32-1-.2,0-.17a4,4,0,0,0-.42-1l-.08-.14.53-.86-.95-.92-.85.56-.14-.09a3.71,3.71,0,0,0-1-.39l-.16,0-.23-1-1.33,0-.2,1-.17,0a4,4,0,0,0-1,.42l-.15.08-.84-.54-.91.95.55.84-.08.15a3.88,3.88,0,0,0-.4,1l0,.16-1,.24,0,1.32,1,.2,0,.17a4.18,4.18,0,0,0,.42,1l.08.14-.52.85.94.93.85-.56.14.08a3.74,3.74,0,0,0,1,.4l.16,0Zm2.59-4.93a2,2,0,1,1-2-2A2,2,0,0,1,401.8,407.75Z"/><path class="cls-9" d="M405.48,419.2h.91l.15-.69.11,0a2.49,2.49,0,0,0,.69-.29l.1-.06.6.37.65-.67-.39-.59.06-.1a3,3,0,0,0,.28-.7l0-.12.69-.16v-.93l-.69-.14,0-.12a2.49,2.49,0,0,0-.29-.69l-.06-.1.37-.6-.67-.65-.59.39-.1-.06a3,3,0,0,0-.7-.28l-.12,0-.16-.69h-.93l-.14.69-.12,0a2.62,2.62,0,0,0-.69.29l-.1.06-.59-.38-.65.66.4.6-.06.1a2.63,2.63,0,0,0-.28.7l0,.11-.69.17v.93l.69.14,0,.12a2.77,2.77,0,0,0,.29.69l.06.09-.37.61.67.65.59-.4.11.06a2.57,2.57,0,0,0,.69.28l.12,0Zm1.82-3.47a1.41,1.41,0,1,1-1.41-1.41A1.41,1.41,0,0,1,407.3,415.73Z"/><rect class="cls-10" x="397.67" y="405.83" width="2.36" height="11.25" transform="translate(407.76 -161.52) rotate(45)"/><polygon class="cls-11" points="391.9 419.85 394.04 414.6 397.39 417.94 391.9 419.85"/><rect class="cls-10" x="399.35" y="407.5" width="2.36" height="11.25" transform="translate(409.44 -162.21) rotate(45)"/><rect class="cls-12" x="405.18" y="403.09" width="2.7" height="4.73" transform="translate(980.69 404.69) rotate(135)"/><rect class="cls-13" x="403.27" y="404.99" width="2.7" height="4.73" transform="translate(978.78 409.29) rotate(135)"/><text class="cls-2" transform="translate(413.09 357.21)">Asunción</text><text class="cls-4" transform="translate(431.62 377.74)"><tspan xml:space="preserve"> 0 p</tspan><tspan class="cls-5" x="24.52" y="0">r</tspan><tspan class="cls-6" x="29.73" y="0">o</tspan><tspan class="cls-7" x="38.1" y="0">y</tspan><tspan x="45.53" y="0">ec</tspan><tspan class="cls-8" x="61.46" y="0">t</tspan><tspan x="66.31" y="0">os</tspan></text><path class="cls-9" d="M420.39,373.21h1.31l.2-1,.17,0a4.31,4.31,0,0,0,1-.41l.14-.09.86.53.92-1-.56-.85.09-.14a4.1,4.1,0,0,0,.4-1l0-.16,1-.23,0-1.33-1-.2,0-.17a4,4,0,0,0-.42-1l-.08-.14.52-.86-.94-.92-.85.56-.15-.09a3.52,3.52,0,0,0-1-.39l-.16,0-.24-1h-1.32l-.2,1-.17,0a4,4,0,0,0-1,.42l-.15.08-.84-.54-.91.95.55.84-.08.15a3.68,3.68,0,0,0-.4,1l0,.16-1,.24V369l1,.2,0,.17a3.74,3.74,0,0,0,.41,1l.09.14-.53.86.95.92.85-.56.14.08a3.81,3.81,0,0,0,1,.4l.17,0Zm2.59-4.93a2,2,0,1,1-2-2A2,2,0,0,1,423,368.28Z"/><path class="cls-9" d="M426.66,379.73h.92l.14-.69.12,0a2.77,2.77,0,0,0,.69-.29l.1-.06.6.37.65-.67-.4-.59.06-.1a2.33,2.33,0,0,0,.28-.7l0-.12.69-.16v-.93l-.69-.14,0-.12a2.62,2.62,0,0,0-.29-.69l-.06-.1.37-.6-.67-.65-.59.39-.1-.06a2.74,2.74,0,0,0-.7-.27l-.12,0-.16-.69h-.93l-.15.69-.11,0a2.49,2.49,0,0,0-.69.29l-.1.06-.59-.38-.65.66.4.6-.06.1a2.33,2.33,0,0,0-.28.7l0,.11-.69.17v.93l.69.14,0,.12a2.77,2.77,0,0,0,.29.69l.06.1-.37.6.67.65.59-.4.1.06a2.63,2.63,0,0,0,.7.28l.12,0Zm1.83-3.46a1.42,1.42,0,1,1-1.42-1.42A1.42,1.42,0,0,1,428.49,376.27Z"/><rect class="cls-10" x="418.86" y="366.36" width="2.36" height="11.25" transform="translate(386.06 -188.06) rotate(45)"/><polygon class="cls-11" points="413.09 380.38 415.23 375.13 418.57 378.47 413.09 380.38"/><rect class="cls-10" x="420.53" y="368.03" width="2.36" height="11.25" transform="translate(387.73 -188.76) rotate(45)"/><rect class="cls-12" x="426.37" y="363.62" width="2.7" height="4.73" transform="translate(988.95 322.33) rotate(135)"/><rect class="cls-13" x="424.46" y="365.53" width="2.7" height="4.73" transform="translate(987.04 326.93) rotate(135)"/><text class="cls-2" transform="translate(386.53 448.65)">Huari</text><text class="cls-4" transform="translate(405.06 469.17)"><tspan xml:space="preserve"> 0 p</tspan><tspan class="cls-5" x="24.52" y="0">r</tspan><tspan class="cls-6" x="29.73" y="0">o</tspan><tspan class="cls-7" x="38.1" y="0">y</tspan><tspan x="45.53" y="0">ec</tspan><tspan class="cls-8" x="61.46" y="0">t</tspan><tspan x="66.31" y="0">os</tspan></text><path class="cls-9" d="M393.84,464.64h1.3l.2-1,.17,0a3.74,3.74,0,0,0,1-.41l.14-.08.86.52.92-.95-.56-.84.08-.15a3.68,3.68,0,0,0,.4-1l0-.16,1-.24V459l-1-.21,0-.16a3.61,3.61,0,0,0-.41-1l-.08-.14.52-.86-.95-.92-.84.56-.15-.08a3.38,3.38,0,0,0-1-.4l-.17,0-.23-1h-1.32l-.21,1-.16.05a3.61,3.61,0,0,0-1,.41l-.14.08-.84-.53-.92.94.56.85-.09.14a3.65,3.65,0,0,0-.39,1l0,.17-1,.23v1.32l1,.21,0,.16a3.86,3.86,0,0,0,.42,1l.08.14-.52.86.95.92.84-.56.15.09a3.52,3.52,0,0,0,1,.39l.16,0Zm2.59-4.92a2,2,0,1,1-2-2A2,2,0,0,1,396.43,459.72Z"/><path class="cls-9" d="M400.11,471.16H401l.15-.68.11,0a2.89,2.89,0,0,0,.69-.3l.1,0,.6.36.65-.66-.39-.6.06-.1a2.5,2.5,0,0,0,.28-.7l0-.11.7-.17v-.93l-.7-.14,0-.12a3.28,3.28,0,0,0-.3-.69l0-.09.36-.61-.66-.65-.6.4-.1-.06a2.63,2.63,0,0,0-.7-.28l-.11,0-.17-.69H400l-.14.69-.12,0a2.77,2.77,0,0,0-.69.29l-.1.06-.59-.38-.64.67.39.59-.06.1a2.63,2.63,0,0,0-.28.7l0,.12-.69.16v.93l.69.15,0,.11a2.83,2.83,0,0,0,.29.69l.06.1-.37.6.67.65.6-.39.1.06a2.85,2.85,0,0,0,.7.28l.11,0Zm1.82-3.46a1.41,1.41,0,1,1-1.41-1.41A1.41,1.41,0,0,1,401.93,467.7Z"/><rect class="cls-10" x="392.31" y="457.79" width="2.36" height="11.25" transform="translate(442.94 -142.51) rotate(45)"/><polygon class="cls-11" points="386.53 471.81 388.68 466.56 392.02 469.9 386.53 471.81"/><rect class="cls-10" x="393.98" y="459.47" width="2.36" height="11.25" transform="translate(444.61 -143.2) rotate(45)"/><rect class="cls-12" x="399.81" y="455.05" width="2.7" height="4.73" transform="translate(1008.27 497.19) rotate(135)"/><rect class="cls-13" x="397.91" y="456.96" width="2.7" height="4.73" transform="translate(1006.36 501.8) rotate(135)"/><line class="cls-15" x1="366.8" y1="335.74" x2="368.21" y2="334.33"/><line class="cls-26" x1="370.72" y1="331.84" x2="384.49" y2="318.12"/><line class="cls-15" x1="385.74" y1="316.88" x2="387.16" y2="315.46"/><circle class="cls-17" cx="387.45" cy="315.29" r="1.57"/><circle class="cls-17" cx="366.66" cy="335.93" r="1.57"/><line class="cls-15" x1="352.23" y1="409.94" x2="353.54" y2="411.45"/><line class="cls-27" x1="355.96" y1="414.26" x2="378.95" y2="440.94"/><line class="cls-15" x1="380.16" y1="442.34" x2="381.46" y2="443.86"/><circle class="cls-17" cx="382.49" cy="445.04" r="1.57"/><circle class="cls-17" cx="352.23" cy="409.94" r="1.57"/><line class="cls-15" x1="309.64" y1="376.14" x2="311.57" y2="376.64"/><line class="cls-28" x1="315.42" y1="377.62" x2="382.67" y2="394.84"/><line class="cls-15" x1="384.59" y1="395.33" x2="386.53" y2="395.83"/><circle class="cls-17" cx="386.53" cy="395.83" r="1.57"/><circle class="cls-17" cx="309.64" cy="376.14" r="1.57"/><line class="cls-15" x1="318.5" y1="361.5" x2="320.5" y2="361.5"/><line class="cls-29" x1="324.47" y1="361.5" x2="409.79" y2="361.5"/><line class="cls-15" x1="411.77" y1="361.5" x2="413.77" y2="361.5"/><circle class="cls-17" cx="413.77" cy="361.5" r="1.57"/><circle class="cls-17" cx="318.5" cy="361.5" r="1.57"/><text class="cls-2" transform="translate(365.09 564.56)">Bolognesi</text><text class="cls-4" transform="translate(383.62 585.08)"><tspan xml:space="preserve"> 3 p</tspan><tspan class="cls-5" x="24.52" y="0">r</tspan><tspan class="cls-6" x="29.73" y="0">o</tspan><tspan class="cls-7" x="38.1" y="0">y</tspan><tspan x="45.53" y="0">ec</tspan><tspan class="cls-8" x="61.46" y="0">t</tspan><tspan x="66.31" y="0">os</tspan></text><path class="cls-9" d="M372.4,580.55h1.3l.2-1,.17,0a3.74,3.74,0,0,0,1-.41l.14-.08.85.52.92-.95-.55-.85.08-.14a3.68,3.68,0,0,0,.4-1l0-.17,1-.23,0-1.32-1-.21,0-.16a4.19,4.19,0,0,0-.41-1l-.09-.14.53-.86-.95-.92-.85.56-.14-.09a3.71,3.71,0,0,0-1-.39l-.16,0-.23-1h-1.33l-.2,1-.17,0a4,4,0,0,0-1,.42l-.15.08-.84-.53-.91.94.56.84-.09.15a4,4,0,0,0-.4,1l0,.17-1,.23,0,1.32,1,.21,0,.16a4,4,0,0,0,.42,1l.08.14-.52.86.94.92.85-.56.14.08a3.43,3.43,0,0,0,1,.4l.16,0Zm2.59-4.92a2,2,0,1,1-2-2A2,2,0,0,1,375,575.63Z"/><path class="cls-9" d="M378.67,587.07h.91l.15-.69.11,0a2.49,2.49,0,0,0,.69-.29l.1,0,.6.36.65-.66-.39-.6.06-.1a3,3,0,0,0,.28-.7l0-.11.69-.17v-.93l-.69-.14,0-.12a2.77,2.77,0,0,0-.29-.69l-.06-.1.37-.6-.67-.65-.59.4-.1-.06a2.63,2.63,0,0,0-.7-.28l-.12,0-.16-.69h-.93l-.14.69-.12,0a2.62,2.62,0,0,0-.69.29l-.1.06-.59-.38-.65.67.4.59-.06.1a2.63,2.63,0,0,0-.28.7l0,.12-.69.16v.93l.69.14,0,.12a2.62,2.62,0,0,0,.29.69l.06.1-.37.6.67.65.59-.39.11.06a2.54,2.54,0,0,0,.69.27l.12,0Zm1.82-3.46a1.41,1.41,0,1,1-1.41-1.41A1.41,1.41,0,0,1,380.49,583.61Z"/><rect class="cls-10" x="370.86" y="573.7" width="2.36" height="11.25" transform="translate(518.62 -93.39) rotate(45)"/><polygon class="cls-11" points="365.09 587.72 367.23 582.47 370.58 585.81 365.09 587.72"/><rect class="cls-10" x="372.54" y="575.37" width="2.36" height="11.25" transform="translate(520.29 -94.09) rotate(45)"/><rect class="cls-12" x="378.37" y="570.96" width="2.7" height="4.73" transform="translate(1053.63 710.22) rotate(135)"/><rect class="cls-13" x="376.46" y="572.87" width="2.7" height="4.73" transform="translate(1051.72 714.83) rotate(135)"/><line class="cls-15" x1="343.14" y1="535.53" x2="344.34" y2="537.13"/><line class="cls-30" x1="346.69" y1="540.28" x2="359.63" y2="557.59"/><line class="cls-15" x1="360.81" y1="559.16" x2="362.01" y2="560.76"/><circle class="cls-17" cx="362.1" cy="560.89" r="1.57"/><circle class="cls-17" cx="343.14" cy="535.53" r="1.57"/><text class="cls-2" transform="translate(386.34 517.21)">Recu<tspan class="cls-6" x="26.59" y="0">a</tspan><tspan x="32.93" y="0">y</tspan></text><text class="cls-4" transform="translate(404.87 537.74)"><tspan xml:space="preserve"> 6 p</tspan><tspan class="cls-5" x="24.52" y="0">r</tspan><tspan class="cls-6" x="29.73" y="0">o</tspan><tspan class="cls-7" x="38.1" y="0">y</tspan><tspan x="45.53" y="0">ec</tspan><tspan class="cls-8" x="61.46" y="0">t</tspan><tspan x="66.31" y="0">os</tspan></text><path class="cls-9" d="M393.64,533.21H395l.2-1,.17,0a4,4,0,0,0,1-.42l.14-.08.86.52.92-.94-.56-.85.09-.14a4.1,4.1,0,0,0,.4-1l0-.16,1-.24,0-1.32-1-.2,0-.17a4,4,0,0,0-.42-1l-.08-.14.52-.86-.94-.92-.85.56-.15-.09a3.88,3.88,0,0,0-1-.4l-.16,0-.24-1-1.32,0-.2,1-.17,0a4,4,0,0,0-1,.42l-.15.08-.84-.54-.91.95.55.84-.08.15a3.55,3.55,0,0,0-.4,1l0,.16-1,.24,0,1.32,1,.2,0,.17a3.74,3.74,0,0,0,.41,1l.09.14-.53.85.95.93.85-.56.14.08a3.81,3.81,0,0,0,1,.4l.17,0Zm2.59-4.93a2,2,0,1,1-2-2A2,2,0,0,1,396.23,528.28Z"/><path class="cls-9" d="M399.91,539.73h.92L401,539l.12,0a2.77,2.77,0,0,0,.69-.29l.1-.06.6.37.65-.67-.4-.59.06-.1a2.33,2.33,0,0,0,.28-.7l0-.12.69-.16v-.93l-.69-.15,0-.11a2.49,2.49,0,0,0-.29-.69l-.06-.1.37-.6-.67-.65-.59.39-.1-.06a3.2,3.2,0,0,0-.7-.28l-.12,0-.16-.69h-.93l-.15.69-.11,0a2.49,2.49,0,0,0-.69.29l-.1.06-.59-.38-.65.66.4.6-.06.1a2.33,2.33,0,0,0-.28.7l0,.11-.69.17v.93l.69.14,0,.12a2.77,2.77,0,0,0,.29.69l.06.09-.37.61.67.65.59-.4.1.06a2.63,2.63,0,0,0,.7.28l.12,0Zm1.83-3.47a1.42,1.42,0,1,1-1.42-1.41A1.42,1.42,0,0,1,401.74,536.26Z"/><rect class="cls-10" x="392.11" y="526.36" width="2.36" height="11.25" transform="translate(491.36 -122.29) rotate(45)"/><polygon class="cls-11" points="386.34 540.38 388.48 535.13 391.82 538.47 386.34 540.38"/><rect class="cls-10" x="393.78" y="528.03" width="2.36" height="11.25" transform="translate(493.03 -122.98) rotate(45)"/><rect class="cls-12" x="399.62" y="523.62" width="2.7" height="4.73" transform="translate(1056.42 614.38) rotate(135)"/><rect class="cls-13" x="397.71" y="525.52" width="2.7" height="4.73" transform="translate(1054.51 618.98) rotate(135)"/><line class="cls-15" x1="320.39" y1="477.74" x2="322.13" y2="478.73"/><line class="cls-31" x1="325.51" y1="480.65" x2="377.84" y2="510.47"/><line class="cls-15" x1="379.53" y1="511.43" x2="381.27" y2="512.42"/><circle class="cls-17" cx="382.3" cy="513.6" r="1.57"/><circle class="cls-17" cx="320.39" cy="477.74" r="1.57"/><text class="cls-2" transform="translate(32.14 300.18)">Santa</text><text class="cls-4" transform="translate(50.67 320.7)"><tspan xml:space="preserve"> 0 p</tspan><tspan class="cls-5" x="24.52" y="0">r</tspan><tspan class="cls-6" x="29.73" y="0">o</tspan><tspan class="cls-7" x="38.1" y="0">y</tspan><tspan x="45.53" y="0">ec</tspan><tspan class="cls-8" x="61.46" y="0">t</tspan><tspan x="66.31" y="0">os</tspan></text><path class="cls-9" d="M39.45,316.17h1.31l.2-1,.16,0a4.19,4.19,0,0,0,1-.41l.14-.09.86.53.92-.95-.56-.85.09-.14a3.71,3.71,0,0,0,.39-1l0-.16,1-.23v-1.33l-1-.2,0-.17a4,4,0,0,0-.42-1l-.08-.14.52-.86-1-.92-.84.56-.15-.09a3.52,3.52,0,0,0-1-.39l-.16,0-.24-1H39.3l-.2,1-.17,0a4.18,4.18,0,0,0-1,.42l-.14.08-.84-.54-.92.95.56.84-.08.15a3.68,3.68,0,0,0-.4,1l0,.16-1,.24V312l1,.2,0,.17a3.74,3.74,0,0,0,.41,1l.08.14-.52.86,1,.92.84-.56.15.08a3.68,3.68,0,0,0,1,.4l.16,0ZM42,311.24a2,2,0,1,1-2-2A2,2,0,0,1,42,311.24Z"/><path class="cls-9" d="M45.72,322.69h.92l.14-.69.12,0a2.77,2.77,0,0,0,.69-.29l.09-.06.61.37.64-.67-.39-.59.06-.1a2.63,2.63,0,0,0,.28-.7l0-.12.69-.16v-.93l-.69-.14,0-.12a2.62,2.62,0,0,0-.29-.69l-.06-.1.37-.6-.67-.65-.59.39-.11-.06a2.48,2.48,0,0,0-.7-.27l-.11,0-.17-.69h-.93l-.14.69-.12,0a2.57,2.57,0,0,0-.68.29l-.1.06-.59-.38-.65.66.39.6-.06.1a3,3,0,0,0-.28.7l0,.11-.69.17v.93l.69.14,0,.12a2.77,2.77,0,0,0,.29.69l.06.1-.37.6L44,322l.6-.4.1.06a2.63,2.63,0,0,0,.7.28l.11,0Zm1.82-3.47a1.41,1.41,0,1,1-1.41-1.41A1.42,1.42,0,0,1,47.54,319.22Z"/><rect class="cls-10" x="37.92" y="309.32" width="2.36" height="11.25" transform="translate(234.15 64.6) rotate(45)"/><polygon class="cls-11" points="32.14 323.34 34.29 318.09 37.63 321.43 32.14 323.34"/><rect class="cls-10" x="39.59" y="310.99" width="2.36" height="11.25" transform="translate(235.82 63.9) rotate(45)"/><rect class="cls-12" x="45.43" y="306.58" width="2.7" height="4.73" transform="translate(298.31 494.32) rotate(135)"/><rect class="cls-13" x="43.52" y="308.49" width="2.7" height="4.73" transform="translate(296.4 498.93) rotate(135)"/><text class="cls-2" transform="translate(33.52 241.2)">Hu<tspan class="cls-6" x="15.08" y="0">a</tspan><tspan x="21.42" y="0">ylas</tspan></text><text class="cls-4" transform="translate(52.05 261.72)"><tspan xml:space="preserve"> 6 p</tspan><tspan class="cls-5" x="24.52" y="0">r</tspan><tspan class="cls-6" x="29.73" y="0">o</tspan><tspan class="cls-7" x="38.1" y="0">y</tspan><tspan x="45.53" y="0">ec</tspan><tspan class="cls-8" x="61.46" y="0">t</tspan><tspan x="66.31" y="0">os</tspan></text><path class="cls-9" d="M40.82,257.19h1.31l.2-1,.17,0a3.55,3.55,0,0,0,1-.41l.14-.08.86.52.92-.95-.56-.85.09-.14a4.2,4.2,0,0,0,.4-1l0-.17,1-.23,0-1.32-1-.21,0-.16a3.86,3.86,0,0,0-.42-1l-.08-.14.52-.86-.94-.92-.85.56-.14-.09a3.71,3.71,0,0,0-1-.39l-.16,0-.24-1H40.67l-.2,1-.17,0a4,4,0,0,0-1,.42l-.15.08-.84-.54-.91.95.55.84-.08.15a3.68,3.68,0,0,0-.4,1l0,.16-1,.24,0,1.32,1,.21,0,.16a3.61,3.61,0,0,0,.41,1l.09.14-.53.86.95.92.85-.56.14.08a3.81,3.81,0,0,0,1,.4l.17,0Zm2.59-4.93a2,2,0,1,1-2-2A2,2,0,0,1,43.41,252.26Z"/><path class="cls-9" d="M47.09,263.71H48l.14-.69.12,0a2.62,2.62,0,0,0,.69-.29l.1-.05.6.36.65-.66-.39-.6,0-.1a2.33,2.33,0,0,0,.28-.7l0-.11.69-.17v-.93l-.69-.14,0-.12a2.77,2.77,0,0,0-.29-.69l-.06-.1.37-.6-.67-.65-.59.4-.1-.06a2.33,2.33,0,0,0-.7-.28l-.12,0-.16-.69H47l-.15.69-.11,0a2.49,2.49,0,0,0-.69.29l-.1.06-.59-.38-.65.67.4.59-.06.1a2.33,2.33,0,0,0-.28.7l0,.11-.69.17v.93l.69.14,0,.12a2.62,2.62,0,0,0,.29.69l.06.1-.37.6.67.65.59-.39.11,0a2.18,2.18,0,0,0,.69.28l.12,0Zm1.83-3.46a1.42,1.42,0,1,1-1.41-1.41A1.41,1.41,0,0,1,48.92,260.25Z"/><rect class="cls-10" x="39.29" y="250.34" width="2.36" height="11.25" transform="translate(192.85 46.35) rotate(45)"/><polygon class="cls-11" points="33.52 264.36 35.66 259.11 39.01 262.45 33.52 264.36"/><rect class="cls-10" x="40.96" y="252.01" width="2.36" height="11.25" transform="translate(194.52 45.66) rotate(45)"/><rect class="cls-12" x="46.8" y="247.6" width="2.7" height="4.73" transform="translate(258.95 392.67) rotate(135)"/><rect class="cls-13" x="44.89" y="249.51" width="2.7" height="4.73" transform="translate(257.04 397.27) rotate(135)"/><text class="cls-2" transform="translate(32.14 374.4)"><tspan class="cls-32">Y</tspan><tspan x="6.96" y="0">ung</tspan><tspan class="cls-6" x="26.79" y="0">a</tspan><tspan x="33.13" y="0">y</tspan></text><text class="cls-4" transform="translate(50.67 394.93)"><tspan xml:space="preserve"> 1 p</tspan><tspan class="cls-5" x="24.52" y="0">r</tspan><tspan class="cls-6" x="29.73" y="0">o</tspan><tspan class="cls-7" x="38.1" y="0">y</tspan><tspan x="45.53" y="0">ec</tspan><tspan class="cls-8" x="61.46" y="0">t</tspan><tspan x="66.31" y="0">o</tspan></text><path class="cls-9" d="M39.45,390.4h1.31l.2-1,.16,0a3.86,3.86,0,0,0,1-.42l.14-.08.86.52.92-.94-.56-.85.09-.15a3.52,3.52,0,0,0,.39-1l0-.16,1-.24v-1.32l-1-.2,0-.17a4.18,4.18,0,0,0-.42-1l-.08-.13.52-.86-1-.92-.84.55L42,382a3.88,3.88,0,0,0-1-.4l-.16,0-.24-1-1.32,0-.2,1-.17,0a4.18,4.18,0,0,0-1,.42l-.14.08-.84-.54-.92.94.56.85-.08.15a3.55,3.55,0,0,0-.4,1l0,.16-1,.24v1.32l1,.2,0,.17a3.55,3.55,0,0,0,.41,1l.08.14-.52.86,1,.92.84-.55.15.08a4,4,0,0,0,1,.4l.16,0ZM42,385.47a2,2,0,1,1-2-2A2,2,0,0,1,42,385.47Z"/><path class="cls-9" d="M45.72,396.92h.92l.14-.69.12,0a2.77,2.77,0,0,0,.69-.29l.09-.06.61.37.64-.67-.39-.59.06-.11a2.57,2.57,0,0,0,.28-.69l0-.12.69-.16V393l-.69-.15,0-.11a2.49,2.49,0,0,0-.29-.69l-.06-.1.37-.6-.67-.65-.59.39-.11-.06a2.5,2.5,0,0,0-.7-.28l-.11,0-.17-.69h-.93l-.14.7-.12,0a3,3,0,0,0-.68.3l-.1.06-.59-.38-.65.66.39.6-.06.1a2.85,2.85,0,0,0-.28.7l0,.11-.69.17V394l.69.14,0,.12a2.57,2.57,0,0,0,.29.68l.06.1-.37.61.66.64.6-.39.1.06a2.63,2.63,0,0,0,.7.28l.11,0Zm1.82-3.47A1.41,1.41,0,1,1,46.13,392,1.41,1.41,0,0,1,47.54,393.45Z"/><rect class="cls-10" x="37.92" y="383.55" width="2.36" height="11.25" transform="translate(286.64 86.34) rotate(45)"/><polygon class="cls-11" points="32.14 397.57 34.29 392.31 37.63 395.66 32.14 397.57"/><rect class="cls-10" x="39.59" y="385.22" width="2.36" height="11.25" transform="translate(288.31 85.64) rotate(45)"/><rect class="cls-12" x="45.43" y="380.8" width="2.7" height="4.73" transform="translate(350.79 621.03) rotate(135)"/><rect class="cls-13" x="43.52" y="382.71" width="2.7" height="4.73" transform="translate(348.89 625.64) rotate(135)"/><line class="cls-15" x1="83.79" y1="297.94" x2="85.79" y2="297.97"/><line class="cls-33" x1="89.65" y1="298.02" x2="126.33" y2="298.51"/><line class="cls-15" x1="128.26" y1="298.54" x2="130.26" y2="298.56"/><circle class="cls-17" cx="130.46" cy="298.89" r="1.57"/><circle class="cls-17" cx="83.36" cy="297.95" r="1.57"/><text class="cls-2" transform="translate(62.25 447.32)">Casma</text><text class="cls-4" transform="translate(80.78 467.85)"><tspan xml:space="preserve"> 0 p</tspan><tspan class="cls-5" x="24.52" y="0">r</tspan><tspan class="cls-6" x="29.73" y="0">o</tspan><tspan class="cls-7" x="38.1" y="0">y</tspan><tspan x="45.53" y="0">ec</tspan><tspan class="cls-8" x="61.46" y="0">t</tspan><tspan x="66.31" y="0">os</tspan></text><path class="cls-9" d="M69.56,463.32h1.3l.21-1,.16,0a4,4,0,0,0,1-.42l.14-.08.86.53.92-.95-.56-.85.08-.14a3.43,3.43,0,0,0,.4-1l0-.16,1-.24v-1.32l-1-.2,0-.17a3.55,3.55,0,0,0-.41-1l-.08-.14.52-.86-1-.92-.84.56-.15-.09a3.65,3.65,0,0,0-1-.39l-.16,0-.24-1H69.41l-.21,1-.16,0a4.18,4.18,0,0,0-1,.42l-.14.08-.84-.54-.92,1,.56.84-.09.15a3.52,3.52,0,0,0-.39,1l0,.16-1,.24v1.32l1,.2,0,.17a4.18,4.18,0,0,0,.42,1l.08.14-.52.86,1,.92.84-.56.15.08a3.55,3.55,0,0,0,1,.4l.16,0Zm2.59-4.93a2,2,0,1,1-2-2A2,2,0,0,1,72.15,458.39Z"/><path class="cls-9" d="M75.83,469.84h.92l.14-.69.12,0a2.57,2.57,0,0,0,.68-.29l.1-.06.61.37.64-.67-.39-.59.06-.1a2.63,2.63,0,0,0,.28-.7l0-.12.69-.16v-.93l-.69-.14,0-.12a2.68,2.68,0,0,0-.3-.69l-.05-.1.36-.6-.66-.65-.6.39-.1-.06a2.48,2.48,0,0,0-.7-.27l-.11,0-.17-.69h-.93l-.14.69-.12,0a2.57,2.57,0,0,0-.68.29l-.11.06-.59-.38-.64.66.39.6-.06.1a2.63,2.63,0,0,0-.28.7l0,.11-.69.17v.93l.69.14,0,.12a3.28,3.28,0,0,0,.3.69l0,.09-.36.61.66.65.6-.4.1.06a2.5,2.5,0,0,0,.7.28l.11,0Zm1.82-3.47A1.41,1.41,0,1,1,76.24,465,1.42,1.42,0,0,1,77.65,466.37Z"/><rect class="cls-10" x="68.03" y="456.47" width="2.36" height="11.25" transform="translate(347.02 86.41) rotate(45)"/><polygon class="cls-11" points="62.25 470.49 64.4 465.24 67.74 468.58 62.25 470.49"/><rect class="cls-10" x="69.7" y="458.14" width="2.36" height="11.25" transform="translate(348.69 85.71) rotate(45)"/><rect class="cls-12" x="75.54" y="453.73" width="2.7" height="4.73" transform="translate(453.76 724.23) rotate(135)"/><rect class="cls-13" x="73.63" y="455.64" width="2.7" height="4.73" transform="translate(451.85 728.84) rotate(135)"/><line class="cls-15" x1="135.03" y1="450.42" x2="136.44" y2="449"/><line class="cls-16" x1="139.15" y1="446.26" x2="170.39" y2="414.79"/><line class="cls-15" x1="171.74" y1="413.42" x2="173.15" y2="412"/><circle class="cls-17" cx="173.6" cy="411.52" r="1.57"/><circle class="cls-17" cx="134.73" cy="450.74" r="1.57"/><text class="cls-2" transform="translate(55.91 507.87)">Hua<tspan class="cls-24" x="21.51" y="0">r</tspan><tspan x="25.31" y="0">az</tspan></text><text class="cls-4" transform="translate(74.44 528.39)"><tspan xml:space="preserve"> 8 p</tspan><tspan class="cls-5" x="24.52" y="0">r</tspan><tspan class="cls-6" x="29.73" y="0">o</tspan><tspan class="cls-7" x="38.1" y="0">y</tspan><tspan x="45.53" y="0">ec</tspan><tspan class="cls-8" x="61.46" y="0">t</tspan><tspan x="66.31" y="0">os</tspan></text><path class="cls-9" d="M63.22,523.86h1.31l.2-1,.16,0a3.48,3.48,0,0,0,1-.41l.14-.08.86.52.92-1-.56-.85.09-.14a3.65,3.65,0,0,0,.39-1l0-.17,1-.23v-1.32l-1-.21,0-.16a3.86,3.86,0,0,0-.42-1l-.08-.14.52-.86-1-.92-.84.56-.15-.09a3.52,3.52,0,0,0-1-.39l-.16,0-.24-1H63.07l-.2,1-.17,0a4.18,4.18,0,0,0-1,.42l-.14.08-.84-.53-.92.94.56.84-.08.15a3.68,3.68,0,0,0-.4,1l0,.16-1,.24v1.32l1,.21,0,.16a3.61,3.61,0,0,0,.41,1l.08.14-.52.86,1,.92.84-.56.15.08a3.38,3.38,0,0,0,1,.4l.17,0Zm2.59-4.92a2,2,0,1,1-2-2A2,2,0,0,1,65.81,518.94Z"/><path class="cls-9" d="M69.49,530.38h.92l.14-.69.12,0a2.77,2.77,0,0,0,.69-.29l.09,0,.61.36.65-.66-.4-.6.06-.1a2.63,2.63,0,0,0,.28-.7l0-.11.69-.17v-.93l-.69-.14,0-.12a2.77,2.77,0,0,0-.29-.69l-.06-.1.37-.6-.67-.65-.59.4-.11-.06a2.28,2.28,0,0,0-.69-.28l-.12,0-.17-.69h-.93l-.14.69-.12,0a2.57,2.57,0,0,0-.68.29l-.1.06-.59-.38-.65.67.39.59-.06.1a3,3,0,0,0-.28.7l0,.12-.69.16v.93l.69.14,0,.12a2.62,2.62,0,0,0,.29.69l.06.1-.37.6.66.65.6-.39.1,0a2.33,2.33,0,0,0,.7.28l.11,0Zm1.82-3.46a1.41,1.41,0,1,1-1.41-1.41A1.41,1.41,0,0,1,71.31,526.92Z"/><rect class="cls-10" x="61.69" y="517.01" width="2.36" height="11.25" transform="translate(387.97 108.62) rotate(45)"/><polygon class="cls-11" points="55.91 531.03 58.06 525.78 61.4 529.12 55.91 531.03"/><rect class="cls-10" x="63.36" y="518.68" width="2.36" height="11.25" transform="translate(389.65 107.93) rotate(45)"/><rect class="cls-12" x="69.2" y="514.27" width="2.7" height="4.73" transform="translate(485.75 832.06) rotate(135)"/><rect class="cls-13" x="67.29" y="516.18" width="2.7" height="4.73" transform="translate(483.84 836.67) rotate(135)"/><line class="cls-15" x1="162.48" y1="523.27" x2="163.81" y2="521.77"/><line class="cls-34" x1="166.46" y1="518.8" x2="239.41" y2="436.97"/><line class="cls-15" x1="240.74" y1="435.48" x2="242.07" y2="433.98"/><circle class="cls-17" cx="242.07" cy="433.98" r="1.57"/><circle class="cls-17" cx="162.18" cy="523.58" r="1.57"/><text class="cls-2" transform="translate(74.19 551.5)">Aija</text><text class="cls-4" transform="translate(92.72 572.02)"><tspan xml:space="preserve"> 0 p</tspan><tspan class="cls-5" x="24.52" y="0">r</tspan><tspan class="cls-6" x="29.73" y="0">o</tspan><tspan class="cls-7" x="38.1" y="0">y</tspan><tspan x="45.53" y="0">ec</tspan><tspan class="cls-8" x="61.46" y="0">t</tspan><tspan x="66.31" y="0">os</tspan></text><path class="cls-9" d="M81.5,567.49h1.3l.2-1,.17,0a3.74,3.74,0,0,0,1-.41l.14-.08.86.52.92-1-.56-.84.08-.15a3.68,3.68,0,0,0,.4-1l0-.16,1-.24v-1.32l-1-.21,0-.16a3.61,3.61,0,0,0-.41-1l-.08-.14.52-.86-1-.92-.85.56-.14-.08a3.38,3.38,0,0,0-1-.4l-.17,0-.23-1H81.35l-.21,1-.16,0a3.48,3.48,0,0,0-1,.41l-.14.08-.84-.53-.92.94.56.85-.09.14a3.65,3.65,0,0,0-.39,1l0,.17-1,.23v1.32l1,.21,0,.16a3.86,3.86,0,0,0,.42,1l.08.14-.52.86.94.92L80,566l.15.09a3.52,3.52,0,0,0,1,.39l.16,0Zm2.59-4.92a2,2,0,1,1-2-2A2,2,0,0,1,84.09,562.57Z"/><path class="cls-9" d="M87.77,574h.91l.15-.68.11,0a2.89,2.89,0,0,0,.69-.3l.1,0,.6.36.65-.66-.39-.6.06-.1a2.5,2.5,0,0,0,.28-.7l0-.11.7-.17V570l-.7-.14,0-.12a3.28,3.28,0,0,0-.3-.69l-.05-.09.36-.61-.66-.65-.6.4-.1-.06a2.63,2.63,0,0,0-.7-.28l-.11,0-.17-.69h-.93l-.14.69-.12,0a2.77,2.77,0,0,0-.69.29l-.1.06-.59-.38-.64.67.39.59-.06.1a2.63,2.63,0,0,0-.28.7l0,.12-.69.16v.93l.69.15,0,.11a2.83,2.83,0,0,0,.29.69l.06.1-.37.6.67.65.6-.39.1.06a2.85,2.85,0,0,0,.7.28l.11,0Zm1.82-3.46a1.41,1.41,0,1,1-1.41-1.41A1.41,1.41,0,0,1,89.59,570.55Z"/><rect class="cls-10" x="79.97" y="560.64" width="2.36" height="11.25" transform="translate(424.18 108.48) rotate(45)"/><polygon class="cls-11" points="74.19 574.66 76.33 569.41 79.68 572.75 74.19 574.66"/><rect class="cls-10" x="81.64" y="562.32" width="2.36" height="11.25" transform="translate(425.85 107.78) rotate(45)"/><rect class="cls-12" x="87.47" y="557.9" width="2.7" height="4.73" transform="translate(547.8 893.62) rotate(135)"/><rect class="cls-13" x="85.57" y="559.81" width="2.7" height="4.73" transform="translate(545.89 898.23) rotate(135)"/><line class="cls-15" x1="183.49" y1="563.83" x2="184.8" y2="562.32"/><line class="cls-35" x1="187.48" y1="559.24" x2="277.29" y2="456.02"/><line class="cls-15" x1="278.63" y1="454.48" x2="279.94" y2="452.97"/><circle class="cls-17" cx="280.28" cy="452.31" r="1.57"/><circle class="cls-17" cx="183.19" cy="564.15" r="1.57"/><text class="cls-2" transform="translate(139 605.88)">Huarm<tspan class="cls-7" x="36.18" y="0">e</tspan><tspan x="42.3" y="0">y</tspan></text><text class="cls-4" transform="translate(157.53 626.41)"><tspan xml:space="preserve"> 0 p</tspan><tspan class="cls-5" x="24.52" y="0">r</tspan><tspan class="cls-6" x="29.73" y="0">o</tspan><tspan class="cls-7" x="38.1" y="0">y</tspan><tspan x="45.53" y="0">ec</tspan><tspan class="cls-8" x="61.46" y="0">t</tspan><tspan x="66.31" y="0">os</tspan></text><path class="cls-9" d="M146.31,621.88h1.3l.2-1,.17,0a3.74,3.74,0,0,0,1-.41l.14-.08.85.52.92-1-.55-.84.08-.15a3.68,3.68,0,0,0,.4-1l0-.16,1-.24,0-1.32-1-.2,0-.17a4.58,4.58,0,0,0-.41-1l-.09-.14.53-.86-.95-.92-.85.56-.14-.08a3.74,3.74,0,0,0-1-.4l-.16,0-.23-1h-1.33l-.2,1-.17,0a3.55,3.55,0,0,0-1,.41l-.15.09-.84-.54-.91.94.55.85-.08.14a4.2,4.2,0,0,0-.4,1l0,.17-1,.23,0,1.33,1,.2,0,.17a4,4,0,0,0,.42,1l.08.14L143,620l.94.92.85-.56.14.09a3.71,3.71,0,0,0,1,.39l.16,0ZM148.9,617a2,2,0,1,1-2-2A2,2,0,0,1,148.9,617Z"/><path class="cls-9" d="M152.58,628.4h.91l.15-.69.11,0a2.83,2.83,0,0,0,.69-.29l.1-.06.6.37.65-.67-.39-.6.06-.1a2.85,2.85,0,0,0,.28-.7l0-.11.69-.17v-.93l-.69-.14,0-.12a2.57,2.57,0,0,0-.29-.68l-.06-.1.37-.61-.67-.64-.59.39-.1-.06a2.63,2.63,0,0,0-.7-.28l-.12,0-.16-.69h-.93l-.14.69-.12,0a3,3,0,0,0-.69.29l-.1.06-.59-.38-.65.67.4.59-.06.11a2.57,2.57,0,0,0-.28.69l0,.12-.69.16v.93l.69.15,0,.11a2.49,2.49,0,0,0,.29.69l.06.1-.37.6.67.65.59-.39.11.06a2.57,2.57,0,0,0,.69.28l.12,0Zm1.82-3.47a1.41,1.41,0,1,1-1.41-1.41A1.41,1.41,0,0,1,154.4,624.93Z"/><rect class="cls-10" x="144.77" y="615.03" width="2.36" height="11.25" transform="translate(481.61 78.58) rotate(45)"/><polygon class="cls-11" points="139 629.04 141.14 623.79 144.49 627.13 139 629.04"/><rect class="cls-10" x="146.45" y="616.7" width="2.36" height="11.25" transform="translate(483.29 77.89) rotate(45)"/><rect class="cls-12" x="152.28" y="612.28" width="2.7" height="4.73" transform="translate(696.88 940.63) rotate(135)"/><rect class="cls-13" x="150.37" y="614.19" width="2.7" height="4.73" transform="translate(694.98 945.24) rotate(135)"/><line class="cls-15" x1="201.08" y1="602.65" x2="202.49" y2="601.23"/><line class="cls-16" x1="205.2" y1="598.49" x2="236.44" y2="567.02"/><line class="cls-15" x1="237.79" y1="565.65" x2="239.2" y2="564.23"/><circle class="cls-17" cx="239.65" cy="563.75" r="1.57"/><circle class="cls-17" cx="200.78" cy="602.96" r="1.57"/><text class="cls-2" transform="translate(274.19 631)">Oc<tspan class="cls-14" x="14.3" y="0">r</tspan><tspan x="18.22" y="0">os</tspan></text><text class="cls-4" transform="translate(292.72 651.52)"><tspan xml:space="preserve"> 4 p</tspan><tspan class="cls-5" x="24.52" y="0">r</tspan><tspan class="cls-6" x="29.73" y="0">o</tspan><tspan class="cls-7" x="38.1" y="0">y</tspan><tspan x="45.53" y="0">ec</tspan><tspan class="cls-8" x="61.46" y="0">t</tspan><tspan x="66.31" y="0">os</tspan></text><path class="cls-9" d="M281.5,647h1.3l.21-1,.16,0a3.61,3.61,0,0,0,1-.41l.14-.09.86.53.92-1-.56-.85.08-.14a3.81,3.81,0,0,0,.4-1l0-.17,1-.23v-1.32l-1-.21,0-.16a3.48,3.48,0,0,0-.41-1l-.08-.14L286,639l-.95-.92-.84.56-.15-.09a3.65,3.65,0,0,0-1-.39l-.16,0-.24-1h-1.32l-.21,1-.16,0a4,4,0,0,0-1,.42l-.14.08-.84-.54-.92,1,.56.84-.09.15a3.65,3.65,0,0,0-.39,1l0,.16-1,.24v1.32l1,.21,0,.16a4.18,4.18,0,0,0,.42,1l.08.14-.52.86.95.92.84-.56.15.08a3.55,3.55,0,0,0,1,.4l.16,0Zm2.59-4.93a2,2,0,1,1-2-2A2,2,0,0,1,284.09,642.06Z"/><path class="cls-9" d="M287.77,653.51h.92l.14-.69.12,0a2.57,2.57,0,0,0,.68-.29l.1-.06.6.37.65-.66-.39-.6.06-.1a2.63,2.63,0,0,0,.28-.7l0-.11.69-.17v-.93l-.69-.14,0-.12a3.28,3.28,0,0,0-.3-.69l-.05-.1.36-.6-.66-.65-.6.4-.1-.06a2.23,2.23,0,0,0-.7-.28l-.11,0-.17-.69h-.93l-.14.69-.12,0a2.57,2.57,0,0,0-.68.29l-.11.06-.59-.38-.64.66.39.6-.06.1a2.63,2.63,0,0,0-.28.7l0,.11-.69.17v.93l.69.14,0,.12a3.07,3.07,0,0,0,.3.69l.05.1-.36.6.66.65.6-.4.1.06a2.23,2.23,0,0,0,.7.28l.11,0Zm1.82-3.46a1.41,1.41,0,1,1-1.41-1.41A1.41,1.41,0,0,1,289.59,650.05Z"/><rect class="cls-10" x="279.97" y="640.14" width="2.36" height="11.25" transform="translate(538.97 -9.66) rotate(45)"/><polygon class="cls-11" points="274.19 654.16 276.34 648.91 279.68 652.25 274.19 654.16"/><rect class="cls-10" x="281.64" y="641.81" width="2.36" height="11.25" transform="translate(540.64 -10.35) rotate(45)"/><rect class="cls-12" x="287.47" y="637.4" width="2.7" height="4.73" transform="translate(945.43 887.91) rotate(135)"/><rect class="cls-13" x="285.57" y="639.31" width="2.7" height="4.73" transform="translate(943.53 892.52) rotate(135)"/><line class="cls-15" x1="295.31" y1="614.12" x2="295.29" y2="612.12"/><line class="cls-36" x1="295.26" y1="607.62" x2="295.14" y2="591.86"/><line class="cls-15" x1="295.12" y1="589.61" x2="295.1" y2="587.61"/><circle class="cls-17" cx="295.08" cy="586.95" r="1.57"/><circle class="cls-17" cx="295.33" cy="614.55" r="1.57"/><line class="cls-15" x1="141.48" y1="257.18" x2="143.28" y2="258.05"/><line class="cls-37" x1="147.04" y1="259.87" x2="220.27" y2="295.36"/><line class="cls-15" x1="222.14" y1="296.27" x2="223.94" y2="297.14"/><circle class="cls-17" cx="224.37" cy="297.68" r="1.57"/><circle class="cls-17" cx="141.05" cy="257.19" r="1.57"/><line class="cls-15" x1="84.64" y1="372.74" x2="86.64" y2="372.77"/><line class="cls-38" x1="90.61" y1="372.82" x2="199.88" y2="374.33"/><line class="cls-15" x1="201.86" y1="374.36" x2="203.86" y2="374.39"/><circle class="cls-17" cx="204.47" cy="374.7" r="1.57"/><circle class="cls-17" cx="84.64" cy="372.74" r="1.57"/><circle class="cls-39" cx="222.16" cy="248.18" r="6.43"/><text class="cls-4" transform="translate(273.55 233.97)">x3</text><circle class="cls-39" cx="262.71" cy="229.94" r="6.43"/><text class="cls-4" transform="translate(272.3 366.75)">x1</text><circle class="cls-39" cx="261.45" cy="362.72" r="6.43"/><text class="cls-4" transform="translate(278.73 381.11)">x7</text><circle class="cls-40" cx="267.88" cy="377.08" r="6.43"/><text class="cls-4" transform="translate(246.06 298.53)">x3</text><circle class="cls-39" cx="235.21" cy="294.5" r="6.43"/><text class="cls-4" transform="translate(246.06 314.43)">x3</text><circle class="cls-40" cx="235.21" cy="310.4" r="6.43"/><text class="cls-4" transform="translate(273.56 249.42)">x1</text><circle class="cls-40" cx="262.71" cy="245.39" r="6.43"/><text class="cls-4" transform="translate(233.01 268.71)">x2</text><circle class="cls-40" cx="222.16" cy="264.68" r="6.43"/><text class="cls-4" transform="translate(305.2 268.71)">x1</text><circle class="cls-39" cx="294.35" cy="264.68" r="6.43"/><text class="cls-4" transform="translate(362.45 349.22)">x1</text><circle class="cls-39" cx="351.6" cy="345.19" r="6.43"/><text class="cls-4" transform="translate(226.1 378.43)">x1</text><circle class="cls-39" cx="215.25" cy="374.4" r="6.43"/><text class="cls-4" transform="translate(305.2 283.06)">x6</text><circle class="cls-40" cx="294.35" cy="279.03" r="6.43"/><text class="cls-4" transform="translate(318.72 299.46)">x1</text><circle class="cls-39" cx="307.87" cy="295.43" r="6.43"/><text class="cls-4" transform="translate(318.72 313.81)">x1</text><circle class="cls-40" cx="307.87" cy="309.78" r="6.43"/><text class="cls-4" transform="translate(329.93 338.69)">x1</text><circle class="cls-40" cx="319.08" cy="334.66" r="6.43"/><text class="cls-4" transform="translate(250 408.31)">x1</text><circle class="cls-39" cx="239.15" cy="404.28" r="6.43"/><text class="cls-4" transform="translate(250 422.66)">x7</text><circle class="cls-40" cx="239.15" cy="418.63" r="6.43"/><text class="cls-4" transform="translate(295.55 565.99)">x2</text><circle class="cls-39" cx="284.71" cy="561.96" r="6.43"/><text class="cls-4" transform="translate(295.55 580.34)">x2</text><circle class="cls-40" cx="284.71" cy="576.31" r="6.43"/><text class="cls-4" transform="translate(346.45 516.33)">x1</text><circle class="cls-39" cx="335.6" cy="512.3" r="6.43"/><text class="cls-4" transform="translate(346.45 530.68)">x2</text><circle class="cls-40" cx="335.6" cy="526.65" r="6.43"/><text class="cls-4" transform="translate(300.05 476.17)">x1</text><circle class="cls-39" cx="289.2" cy="472.14" r="6.43"/><text class="cls-4" transform="translate(300.05 490.52)">x5</text><circle class="cls-40" cx="289.2" cy="486.49" r="6.43"/></svg>