<svg id="Capa_1" data-name="Capa 1" xmlns="http://www.w3.org/2000/svg" viewBox="0 0 554 932"><defs><style>.cls-1{font-size:12px;font-family:Roboto-Light, Roboto;font-weight:300;}.cls-1,.cls-17,.cls-3{fill:#1d1d1b;}.cls-2{letter-spacing:-0.01em;}.cls-3{font-size:15px;font-family:Roboto-Bold, Roboto;font-weight:700;}.cls-4{letter-spacing:-0.02em;}.cls-5{letter-spacing:-0.01em;}.cls-6{letter-spacing:-0.01em;}.cls-15,.cls-16,.cls-18,.cls-19,.cls-20,.cls-21,.cls-22,.cls-7{fill:none;}.cls-10,.cls-11,.cls-7,.cls-8,.cls-9{stroke:#262626;stroke-linecap:round;stroke-width:0.5px;}.cls-10,.cls-11,.cls-15,.cls-16,.cls-18,.cls-19,.cls-20,.cls-21,.cls-22,.cls-7,.cls-8,.cls-9{stroke-linejoin:round;}.cls-8{fill:#fab637;}.cls-9{fill:#ffe7a1;}.cls-10{fill:#4ca8de;}.cls-11{fill:#cfcece;}.cls-12{letter-spacing:-0.02em;}.cls-13{letter-spacing:-0.01em;}.cls-14{fill:#71c2e9;stroke:#377c9c;stroke-width:3px;fill-rule:evenodd;}.cls-14,.cls-23,.cls-24{stroke-miterlimit:1.75;}.cls-15,.cls-16,.cls-18,.cls-19,.cls-20,.cls-21,.cls-22{stroke:#0b0c0c;}.cls-16{stroke-dasharray:3.86 3.86;}.cls-18{stroke-dasharray:3.84 3.84;}.cls-19{stroke-dasharray:4.08 4.08;}.cls-20{stroke-dasharray:3.78 3.78;}.cls-21{stroke-dasharray:3.92 3.92;}.cls-22{stroke-dasharray:3.97 3.97;}.cls-23{fill:#afd28c;stroke:#71915a;isolation:isolate;}.cls-24{fill:#ec6062;stroke:#cc444b;}</style></defs><text class="cls-1" transform="translate(94.21 427.51)">Condesu<tspan class="cls-2" x="46.64" y="0">y</tspan><tspan x="52.25" y="0">os</tspan></text><text class="cls-3" transform="translate(112.74 448.04)"><tspan xml:space="preserve"> 2 p</tspan><tspan class="cls-4" x="24.52" y="0">r</tspan><tspan class="cls-2" x="29.73" y="0">o</tspan><tspan class="cls-5" x="38.1" y="0">y</tspan><tspan x="45.53" y="0">ec</tspan><tspan class="cls-6" x="61.46" y="0">t</tspan><tspan x="66.31" y="0">os</tspan></text><path class="cls-7" d="M101.52,443.51h1.3l.21-1,.16,0a4,4,0,0,0,1-.42l.14-.08.86.52.92-.94-.56-.85.08-.15a3.27,3.27,0,0,0,.4-1l0-.16,1-.24v-1.32l-1-.2-.05-.17a3.55,3.55,0,0,0-.41-1l-.08-.14.52-.86-1-.92-.84.55-.15-.08a4,4,0,0,0-1-.4l-.16,0-.24-1-1.32,0-.21,1-.16,0a4.18,4.18,0,0,0-1,.42l-.14.08-.84-.54-.92,1,.56.84-.09.15a3.52,3.52,0,0,0-.39,1l0,.16-1,.24v1.32l1,.2,0,.17a4.18,4.18,0,0,0,.42,1l.08.14-.52.85,1,.92L100,442l.15.08a3.55,3.55,0,0,0,1,.4l.16,0Zm2.59-4.93a2,2,0,1,1-2-2A2,2,0,0,1,104.11,438.58Z"/><path class="cls-7" d="M107.79,450h.92l.14-.69.12,0a2.57,2.57,0,0,0,.68-.29l.1-.06.61.37.64-.67-.39-.59.06-.11a2.57,2.57,0,0,0,.28-.69l0-.12.69-.16v-.93l-.69-.15,0-.11a2.54,2.54,0,0,0-.3-.69l0-.1.36-.6-.66-.65-.6.39-.1-.06a2.85,2.85,0,0,0-.7-.28l-.11,0-.17-.69h-.93l-.14.69-.12,0a2.57,2.57,0,0,0-.68.29l-.11.06-.59-.38-.64.66.39.6-.06.1a2.5,2.5,0,0,0-.28.7l0,.11-.69.17v.93l.69.14,0,.12a3,3,0,0,0,.3.68l0,.1-.36.61.66.64.6-.39.1.06a2.5,2.5,0,0,0,.7.28l.11,0Zm1.82-3.47a1.41,1.41,0,1,1-1.41-1.41A1.41,1.41,0,0,1,109.61,446.56Z"/><rect class="cls-8" x="99.99" y="436.66" width="2.36" height="11.25" transform="translate(342.37 58) rotate(45)"/><polygon class="cls-9" points="94.21 450.68 96.36 445.42 99.7 448.77 94.21 450.68"/><rect class="cls-8" x="101.66" y="438.33" width="2.36" height="11.25" transform="translate(344.05 57.31) rotate(45)"/><rect class="cls-10" x="107.5" y="433.91" width="2.7" height="4.73" transform="translate(494.31 667.81) rotate(135)"/><rect class="cls-11" x="105.59" y="435.82" width="2.7" height="4.73" transform="translate(492.4 672.42) rotate(135)"/><text class="cls-1" transform="translate(56.48 242.56)">Ca<tspan class="cls-12" x="14.22" y="0">r</tspan><tspan class="cls-2" x="18.02" y="0">a</tspan><tspan class="cls-5" x="24.36" y="0">v</tspan><tspan x="30.06" y="0">eli</tspan></text><text class="cls-3" transform="translate(75 263.08)"><tspan xml:space="preserve"> 0 p</tspan><tspan class="cls-4" x="24.52" y="0">r</tspan><tspan class="cls-2" x="29.73" y="0">o</tspan><tspan class="cls-5" x="38.1" y="0">y</tspan><tspan x="45.53" y="0">ec</tspan><tspan class="cls-6" x="61.46" y="0">t</tspan><tspan x="66.31" y="0">os</tspan></text><path class="cls-7" d="M63.78,258.55h1.31l.2-1,.17,0a3.55,3.55,0,0,0,1-.41l.14-.09.86.53.92-.95-.56-.85.09-.14a3.78,3.78,0,0,0,.39-1l0-.17,1-.23v-1.32l-1-.21,0-.16a3.86,3.86,0,0,0-.42-1l-.08-.14.52-.86-1-.92-.84.56-.15-.09a3.52,3.52,0,0,0-1-.39l-.16,0-.24-1H63.63l-.2,1-.17,0a4.18,4.18,0,0,0-1,.42l-.14.08-.84-.54-.92.95.56.84-.08.15a3.68,3.68,0,0,0-.4,1l0,.16-1,.24v1.32l1,.21,0,.16a3.74,3.74,0,0,0,.41,1l.08.14-.52.86.95.92.85-.56.14.08a3.68,3.68,0,0,0,1,.4l.17,0Zm2.59-4.93a2,2,0,1,1-2-2A2,2,0,0,1,66.37,253.62Z"/><path class="cls-7" d="M70.05,265.07H71l.14-.69.12,0a2.77,2.77,0,0,0,.69-.29L72,264l.61.37.65-.66-.4-.6.06-.1a2.63,2.63,0,0,0,.28-.7l0-.11.69-.17v-.93l-.69-.14,0-.12a2.62,2.62,0,0,0-.29-.69l-.06-.1.37-.6-.67-.65-.59.4-.11-.06a2.28,2.28,0,0,0-.69-.28l-.12,0-.17-.69H70l-.15.69-.11,0a2.49,2.49,0,0,0-.69.29l-.1.06-.59-.38-.65.66.39.6-.06.1a3,3,0,0,0-.28.7l0,.11-.69.17v.93l.69.14,0,.12a2.62,2.62,0,0,0,.29.69l.06.1-.37.6.67.65L69,264l.1.06a2.33,2.33,0,0,0,.7.28l.12,0Zm1.82-3.46a1.41,1.41,0,1,1-1.41-1.42A1.41,1.41,0,0,1,71.87,261.61Z"/><rect class="cls-8" x="62.25" y="251.7" width="2.36" height="11.25" transform="translate(200.54 30.52) rotate(45)"/><polygon class="cls-9" points="56.48 265.72 58.62 260.47 61.96 263.81 56.48 265.72"/><rect class="cls-8" x="63.92" y="253.37" width="2.36" height="11.25" transform="translate(202.21 29.82) rotate(45)"/><rect class="cls-10" x="69.76" y="248.96" width="2.7" height="4.73" transform="translate(299.1 378.75) rotate(135)"/><rect class="cls-11" x="67.85" y="250.87" width="2.7" height="4.73" transform="translate(297.19 383.36) rotate(135)"/><text class="cls-1" transform="translate(168.25 229.05)">La Unión</text><text class="cls-3" transform="translate(186.78 249.58)"><tspan xml:space="preserve"> 1 p</tspan><tspan class="cls-4" x="24.52" y="0">r</tspan><tspan class="cls-2" x="29.73" y="0">o</tspan><tspan class="cls-5" x="38.1" y="0">y</tspan><tspan x="45.53" y="0">ec</tspan><tspan class="cls-6" x="61.46" y="0">t</tspan><tspan x="66.31" y="0">o</tspan></text><path class="cls-7" d="M175.56,245.05h1.3l.2-1,.17,0a4.18,4.18,0,0,0,1-.42l.14-.08.85.52.92-.94-.55-.85.08-.15a3.55,3.55,0,0,0,.4-1l0-.16,1-.24V239.4l-1-.2,0-.17a3.55,3.55,0,0,0-.41-1l-.09-.14.53-.86-.95-.92-.85.56-.14-.09a4.2,4.2,0,0,0-1-.4l-.17,0-.23-1-1.32,0-.21,1-.16,0a3.86,3.86,0,0,0-1,.42l-.15.08-.84-.54-.91.95.56.84-.09.15a3.88,3.88,0,0,0-.4,1l0,.16-1,.24,0,1.32,1,.2,0,.17a4.18,4.18,0,0,0,.42,1l.08.14-.52.85.94.92.85-.55.15.08a3.55,3.55,0,0,0,1,.4l.16,0Zm2.59-4.93a2,2,0,1,1-2-2A2,2,0,0,1,178.15,240.12Z"/><path class="cls-7" d="M181.83,251.57h.91l.15-.69.11,0a2.49,2.49,0,0,0,.69-.29l.1-.06.6.37.65-.67-.39-.59.06-.1a3,3,0,0,0,.28-.7l0-.12.69-.16v-.93l-.69-.15,0-.11a2.49,2.49,0,0,0-.29-.69l-.06-.1.37-.6-.66-.65-.6.39-.1-.06a3,3,0,0,0-.7-.28l-.11,0-.17-.69h-.93l-.14.69-.12,0a2.77,2.77,0,0,0-.69.29l-.1.06-.59-.38-.64.66.39.6-.06.1a2.5,2.5,0,0,0-.28.7l0,.11-.69.17v.93l.69.14,0,.12a2.77,2.77,0,0,0,.29.69l.06.09-.37.61.67.65.59-.4.11.06a2.5,2.5,0,0,0,.7.28l.11,0Zm1.82-3.47a1.41,1.41,0,1,1-1.41-1.41A1.41,1.41,0,0,1,183.65,248.1Z"/><rect class="cls-8" x="174.02" y="238.2" width="2.36" height="11.25" transform="translate(223.73 -52.48) rotate(45)"/><polygon class="cls-9" points="168.25 252.22 170.39 246.97 173.74 250.31 168.25 252.22"/><rect class="cls-8" x="175.7" y="239.87" width="2.36" height="11.25" transform="translate(225.4 -53.17) rotate(45)"/><rect class="cls-10" x="181.53" y="235.46" width="2.7" height="4.73" transform="translate(480.36 276.67) rotate(135)"/><rect class="cls-11" x="179.62" y="237.36" width="2.7" height="4.73" transform="translate(478.45 281.27) rotate(135)"/><text class="cls-1" transform="translate(394.97 203.96)">C<tspan class="cls-2" x="7.79" y="0">a</tspan><tspan x="14.13" y="0">ylloma</tspan></text><text class="cls-3" transform="translate(413.5 224.49)"><tspan xml:space="preserve"> 0 p</tspan><tspan class="cls-4" x="24.52" y="0">r</tspan><tspan class="cls-2" x="29.73" y="0">o</tspan><tspan class="cls-5" x="38.1" y="0">y</tspan><tspan x="45.53" y="0">ec</tspan><tspan class="cls-6" x="61.46" y="0">t</tspan><tspan x="66.31" y="0">os</tspan></text><path class="cls-7" d="M402.28,220h1.3l.2-1,.17,0a4.18,4.18,0,0,0,1-.42l.14-.08.86.52.92-1-.56-.84.08-.15a3.55,3.55,0,0,0,.4-1l0-.16,1-.24v-1.32l-1-.2,0-.17a3.74,3.74,0,0,0-.41-1l-.08-.14.52-.85-.95-.93-.84.56-.15-.08a3.68,3.68,0,0,0-1-.4l-.17,0-.23-1h-1.32l-.21,1-.16,0a3.61,3.61,0,0,0-1,.41l-.14.09-.84-.54-.92.94.56.85-.09.14a3.71,3.71,0,0,0-.39,1l0,.16-1,.24v1.32l1,.2,0,.17a4,4,0,0,0,.42,1l.08.14-.52.86.94.92.85-.56.15.09a3.88,3.88,0,0,0,1,.4l.16,0Zm2.59-4.93a2,2,0,1,1-2-2A2,2,0,0,1,404.87,215Z"/><path class="cls-7" d="M408.55,226.48h.91l.15-.69.11,0a2.49,2.49,0,0,0,.69-.29l.1-.06.6.37.65-.67-.39-.59.06-.11a2.5,2.5,0,0,0,.28-.7l0-.11.7-.17v-.93l-.7-.14,0-.12a3,3,0,0,0-.3-.68l0-.1.36-.6-.66-.65-.6.39-.1-.06a2.63,2.63,0,0,0-.7-.28l-.11,0-.17-.69h-.93l-.14.69-.12,0a2.83,2.83,0,0,0-.69.3l-.1.05-.59-.37-.64.66.39.59-.06.11a2.57,2.57,0,0,0-.28.69l0,.12-.69.17v.93l.69.14,0,.12a3,3,0,0,0,.29.68l.06.1-.37.6.67.65.6-.39.1.06a2.5,2.5,0,0,0,.7.28l.11,0Zm1.82-3.47A1.41,1.41,0,1,1,409,221.6,1.41,1.41,0,0,1,410.37,223Z"/><rect class="cls-8" x="400.75" y="213.11" width="2.36" height="11.25" transform="translate(272.39 -220.14) rotate(45)"/><polygon class="cls-9" points="394.97 227.13 397.12 221.87 400.46 225.22 394.97 227.13"/><rect class="cls-8" x="402.42" y="214.78" width="2.36" height="11.25" transform="translate(274.06 -220.83) rotate(45)"/><rect class="cls-10" x="408.25" y="210.36" width="2.7" height="4.73" transform="translate(849.66 73.52) rotate(135)"/><rect class="cls-11" x="406.35" y="212.27" width="2.7" height="4.73" transform="translate(847.75 78.12) rotate(135)"/><text class="cls-1" transform="translate(446.28 466.61)">A<tspan class="cls-13" x="7.49" y="0">r</tspan><tspan x="11.42" y="0">equipa</tspan></text><text class="cls-3" transform="translate(464.81 487.13)"><tspan xml:space="preserve"> 0 p</tspan><tspan class="cls-4" x="24.52" y="0">r</tspan><tspan class="cls-2" x="29.73" y="0">o</tspan><tspan class="cls-5" x="38.1" y="0">y</tspan><tspan x="45.53" y="0">ec</tspan><tspan class="cls-6" x="61.46" y="0">t</tspan><tspan x="66.31" y="0">os</tspan></text><path class="cls-7" d="M453.59,482.6h1.3l.2-1,.17,0a3.74,3.74,0,0,0,1-.41l.14-.08.85.52.92-.95-.55-.85.08-.14a3.68,3.68,0,0,0,.4-1l0-.17,1-.23,0-1.32-1-.21,0-.16a4.19,4.19,0,0,0-.41-1l-.09-.14.53-.86-.95-.92-.85.56-.14-.09a3.71,3.71,0,0,0-1-.39l-.16,0-.23-1h-1.33l-.2,1-.17,0a4,4,0,0,0-1,.42l-.15.08-.84-.53-.91.94.55.84-.08.15a4,4,0,0,0-.4,1l0,.17-1,.23,0,1.32,1,.21,0,.16a4,4,0,0,0,.42,1l.08.14-.52.86.94.92.85-.56.14.08a3.43,3.43,0,0,0,1,.4l.16,0Zm2.59-4.92a2,2,0,1,1-2-2A2,2,0,0,1,456.18,477.68Z"/><path class="cls-7" d="M459.86,489.12h.91l.15-.69.11,0a2.89,2.89,0,0,0,.69-.3l.1-.05.6.36.65-.66-.39-.6.06-.1a3,3,0,0,0,.28-.7l0-.11.69-.17v-.93L463,485l0-.12a2.77,2.77,0,0,0-.29-.69l-.06-.1.37-.6-.67-.65-.59.4-.1-.06a2.63,2.63,0,0,0-.7-.28l-.12,0-.16-.69h-.93l-.14.69-.12,0a2.62,2.62,0,0,0-.69.29l-.1.06-.59-.38-.65.67.4.59-.06.1a2.63,2.63,0,0,0-.28.7l0,.12-.69.16v.93l.69.14,0,.12a2.62,2.62,0,0,0,.29.69l.06.1-.37.6.67.65.59-.39.11.06a2.54,2.54,0,0,0,.69.27l.12,0Zm1.82-3.46a1.41,1.41,0,1,1-1.41-1.41A1.41,1.41,0,0,1,461.68,485.66Z"/><rect class="cls-8" x="452.05" y="475.75" width="2.36" height="11.25" transform="translate(473.13 -179.49) rotate(45)"/><polygon class="cls-9" points="446.28 489.77 448.42 484.52 451.77 487.86 446.28 489.77"/><rect class="cls-8" x="453.73" y="477.42" width="2.36" height="11.25" transform="translate(474.81 -180.19) rotate(45)"/><rect class="cls-10" x="459.56" y="473.01" width="2.7" height="4.73" transform="translate(1122.96 485.6) rotate(135)"/><rect class="cls-11" x="457.65" y="474.92" width="2.7" height="4.73" transform="translate(1121.06 490.21) rotate(135)"/><text class="cls-1" transform="translate(375.87 541.42)">Isl<tspan class="cls-2" x="11.96" y="0">a</tspan><tspan x="18.3" y="0">y</tspan></text><text class="cls-3" transform="translate(394.4 561.95)"><tspan xml:space="preserve"> 0 p</tspan><tspan class="cls-4" x="24.52" y="0">r</tspan><tspan class="cls-2" x="29.73" y="0">o</tspan><tspan class="cls-5" x="38.1" y="0">y</tspan><tspan x="45.53" y="0">ec</tspan><tspan class="cls-6" x="61.46" y="0">t</tspan><tspan x="66.31" y="0">os</tspan></text><path class="cls-7" d="M383.18,557.42h1.3l.21-1,.16-.05a3.48,3.48,0,0,0,1-.41l.14-.08.86.52.92-.95-.56-.84.09-.15a3.65,3.65,0,0,0,.39-1l0-.16,1-.24v-1.32l-1-.2,0-.17a4.18,4.18,0,0,0-.42-1l-.08-.14.52-.86-.95-.92-.84.56-.15-.08a3.55,3.55,0,0,0-1-.4l-.16,0-.24-1H383l-.2,1-.17,0a3.74,3.74,0,0,0-1,.41l-.14.09-.84-.54-.92.94.56.85-.08.14a3.49,3.49,0,0,0-.4,1l0,.17-1,.23v1.33l1,.2.05.17a3.55,3.55,0,0,0,.41,1l.08.14-.52.86.95.92.84-.56.15.09a3.65,3.65,0,0,0,1,.39l.16,0Zm2.59-4.93a2,2,0,1,1-2-2A2,2,0,0,1,385.77,552.49Z"/><path class="cls-7" d="M389.45,563.94h.92l.14-.69.12,0a3,3,0,0,0,.68-.29l.1-.06.61.37.64-.67-.39-.6.06-.1a2.5,2.5,0,0,0,.28-.7l0-.11.69-.17V560l-.69-.14,0-.12a2.57,2.57,0,0,0-.29-.68l-.06-.1.37-.61-.67-.64-.59.39-.11-.06a2.5,2.5,0,0,0-.7-.28l-.11,0-.17-.69h-.93l-.14.69-.12,0a3,3,0,0,0-.68.29l-.1.06-.6-.38-.64.67.39.59-.06.11a2.94,2.94,0,0,0-.28.69l0,.12-.69.16V561l.69.15,0,.11a2.49,2.49,0,0,0,.29.69l.05.1-.36.6.66.65.6-.39.1.06a2.63,2.63,0,0,0,.7.28l.11,0Zm1.82-3.47a1.41,1.41,0,1,1-1.41-1.41A1.41,1.41,0,0,1,391.27,560.47Z"/><rect class="cls-8" x="381.65" y="550.57" width="2.36" height="11.25" transform="translate(505.41 -107.8) rotate(45)"/><polygon class="cls-9" points="375.87 564.58 378.02 559.33 381.36 562.67 375.87 564.58"/><rect class="cls-8" x="383.32" y="552.24" width="2.36" height="11.25" transform="translate(507.09 -108.49) rotate(45)"/><rect class="cls-10" x="389.16" y="547.82" width="2.7" height="4.73" transform="translate(1055.68 663.1) rotate(135)"/><rect class="cls-11" x="387.25" y="549.73" width="2.7" height="4.73" transform="translate(1053.77 667.7) rotate(135)"/><text class="cls-1" transform="translate(300.07 158.14)">Castilla</text><text class="cls-3" transform="translate(318.6 178.67)"><tspan xml:space="preserve"> 0 p</tspan><tspan class="cls-4" x="24.52" y="0">r</tspan><tspan class="cls-2" x="29.73" y="0">o</tspan><tspan class="cls-5" x="38.1" y="0">y</tspan><tspan x="45.53" y="0">ec</tspan><tspan class="cls-6" x="61.46" y="0">t</tspan><tspan x="66.31" y="0">os</tspan></text><path class="cls-7" d="M307.38,174.14h1.3l.21-1,.16,0a4,4,0,0,0,1-.42l.14-.08.86.52.92-.95-.56-.84.08-.15a3.27,3.27,0,0,0,.4-1l0-.16,1-.24v-1.32l-1-.2,0-.17a3.74,3.74,0,0,0-.41-1l-.08-.14.52-.85-.95-.93-.84.56-.15-.08a3.68,3.68,0,0,0-1-.4l-.16,0-.24-1h-1.32l-.2,1-.17,0a3.74,3.74,0,0,0-1,.41l-.14.09-.84-.54-.92.94.56.85-.09.14a3.71,3.71,0,0,0-.39,1l0,.16-1,.24v1.32l1,.2,0,.17a4,4,0,0,0,.42,1l.08.14-.52.86.95.92.84-.56.15.09a3.88,3.88,0,0,0,1,.4l.16,0Zm2.59-4.93a2,2,0,1,1-2-2A2,2,0,0,1,310,169.21Z"/><path class="cls-7" d="M313.65,180.66h.92l.14-.69.12,0a2.57,2.57,0,0,0,.68-.29l.1-.06.61.37.64-.67-.39-.59.06-.11a2.5,2.5,0,0,0,.28-.7l0-.11.69-.17v-.93l-.69-.14,0-.12a3,3,0,0,0-.29-.68l-.06-.1.37-.6-.67-.65-.6.39-.1-.06a2.5,2.5,0,0,0-.7-.28l-.11,0-.17-.69h-.93l-.14.69-.12,0a2.62,2.62,0,0,0-.68.3l-.11.05-.59-.37-.64.66.39.59-.06.11a2.57,2.57,0,0,0-.28.69l0,.12-.7.17v.93l.7.14,0,.12a3,3,0,0,0,.3.68l.05.1-.36.6.66.65.6-.39.1.06a2.63,2.63,0,0,0,.7.28l.11,0Zm1.82-3.47a1.41,1.41,0,1,1-1.41-1.41A1.41,1.41,0,0,1,315.47,177.19Z"/><rect class="cls-8" x="305.85" y="167.29" width="2.36" height="11.25" transform="translate(212.19 -166.46) rotate(45)"/><polygon class="cls-9" points="300.07 181.31 302.22 176.05 305.56 179.4 300.07 181.31"/><rect class="cls-8" x="307.52" y="168.96" width="2.36" height="11.25" transform="translate(213.87 -167.15) rotate(45)"/><rect class="cls-10" x="313.36" y="164.54" width="2.7" height="4.73" transform="translate(655.26 62.4) rotate(135)"/><rect class="cls-11" x="311.45" y="166.45" width="2.7" height="4.73" transform="translate(653.35 67.01) rotate(135)"/><text class="cls-1" transform="translate(232.23 521.44)">Camana</text><text class="cls-3" transform="translate(250.75 541.97)"><tspan xml:space="preserve"> 2 p</tspan><tspan class="cls-4" x="24.52" y="0">r</tspan><tspan class="cls-2" x="29.73" y="0">o</tspan><tspan class="cls-5" x="38.1" y="0">y</tspan><tspan x="45.53" y="0">ec</tspan><tspan class="cls-6" x="61.46" y="0">t</tspan><tspan x="66.31" y="0">os</tspan></text><path class="cls-7" d="M239.53,537.44h1.31l.2-1,.17,0a4,4,0,0,0,1-.42l.14-.08.86.52.92-.94-.56-.85.09-.14a3.71,3.71,0,0,0,.39-1l0-.16,1-.24v-1.32l-1-.2,0-.17a4,4,0,0,0-.42-1l-.08-.14.52-.86-.94-.92-.85.56-.15-.09a3.88,3.88,0,0,0-1-.4l-.16,0-.24-1-1.32,0-.2,1-.17,0a4.18,4.18,0,0,0-1,.42l-.14.08-.84-.54-.92.95.56.84-.08.15a3.55,3.55,0,0,0-.4,1l0,.16-1,.24v1.32l1,.2,0,.17a3.74,3.74,0,0,0,.41,1l.08.14-.52.85,1,.93.85-.56.14.08a3.68,3.68,0,0,0,1,.4l.17,0Zm2.59-4.93a2,2,0,1,1-2-2A2,2,0,0,1,242.12,532.51Z"/><path class="cls-7" d="M245.8,544h.92l.14-.69.12,0a2.77,2.77,0,0,0,.69-.29l.09-.06.61.37.65-.67-.4-.59.06-.1a2.63,2.63,0,0,0,.28-.7l0-.12.69-.16V540l-.69-.15,0-.11a2.49,2.49,0,0,0-.29-.69l-.06-.1.37-.6-.67-.65-.59.39-.11-.06a2.94,2.94,0,0,0-.69-.28l-.12,0-.17-.69h-.92l-.15.69-.11,0a2.49,2.49,0,0,0-.69.29l-.1.06-.59-.38-.65.66.39.6-.06.1a2.6,2.6,0,0,0-.27.7l0,.11-.69.17V541l.69.14,0,.12a2.77,2.77,0,0,0,.29.69l.06.09-.37.61.67.65.59-.4.1.06a2.63,2.63,0,0,0,.7.28l.12,0Zm1.82-3.47a1.41,1.41,0,1,1-1.41-1.41A1.41,1.41,0,0,1,247.62,540.49Z"/><rect class="cls-8" x="238" y="530.59" width="2.36" height="11.25" transform="translate(449.22 -12.07) rotate(45)"/><polygon class="cls-9" points="232.23 544.61 234.37 539.36 237.71 542.7 232.23 544.61"/><rect class="cls-8" x="239.67" y="532.26" width="2.36" height="11.25" transform="translate(450.89 -12.77) rotate(45)"/><rect class="cls-10" x="245.51" y="527.85" width="2.7" height="4.73" transform="translate(796.33 730.57) rotate(135)"/><rect class="cls-11" x="243.6" y="529.75" width="2.7" height="4.73" transform="translate(794.42 735.18) rotate(135)"/><path class="cls-14" d="M487,377.65l4.09,13.65-5.5.26-4,5.11,5.32,13.54-3.34,4.89-11.46,3,3.22,16.9-6,2.81-3.62-4.61-20.35.9-4.56,26.47-4.2,3.75-4.53-3.4L418.4,465.8l-4.65-8.08-8-.78-1.94,2.51-11.93-.51-12,8.88-.13-7.58-4.1-4-9.05,13-13.08-2.13-7.69-9.65L337,453l21.49-44.12-1.73-3.42,3.56,2,6.53-7.3,9.16,2.08,8.35-10.39,12.46-7.76.34-5.31,5.61,5.71,7.62.26,5.06-6.37L432,378l10,2.87,7.57,7.44,6.07-4.43,7.92,2.19Zm-30.83,43.63-6.06,1.62,0,2.82L461,428.27l-.91-6.91Z"/><path class="cls-14" d="M238,372.77l5.93,4.07.72,10.93,6-3.3,23.64,6.4L283,417.92l16.38,14.54,3.93,1.48,4.56-6.73,3.83,1.33L316,423l-2,12.72-10.84,6.07,4.05,3.74,11.57-1.72.39,4.51,13.67.77,10.62-9.86,2-5.64-8.77,18.57,16.27,12.56-2.68,4-6.49,1.42L343,473l8,4.19-3.85,5.07-11-5.11-2.26-7.06-14.38-11-28.89-5.65-20.41-13.57-13.43-1.93-16.67-10.41-8.67.56,10.07-13.33-4.75-29.07Z"/><path class="cls-14" d="M80.35,294.05l35.21,5.77,1.42,7.65-2.86,5,11.13,6.32-2.12,3.56,2.9,8.81,14.07.61,1.67-5.89,8.88-2.65,2.93,5.63-4.37,6.23L150.39,347l20.44-20.6.73-11.39,9.27,1.54,9.44,10.34,25.49-8.56,5.27,4.54,12.91-.07,6.66,12.59-6.13,32,3.46,6.11-1.17,12.13,4.46,21.8.27,7.35-4.72,7.95-5.34,5.27-1.15-5.85-7.21-3.91-25.92-8.57-8.39,1.2-2.88-4.84-30.26-16.55-3.83-8.61-23.44-12.09-12.16-1-8-11.48L68.39,341.07l-3.57-5.13-19.39-8.49,11-15,4.06-11.18,17.44-9.86Z"/><path class="cls-14" d="M372.1,268.18l3.16,8.52L368.13,288l3.66,4.66-2.22,3.18,7,3.15-8.76,17.84-1,23.71-11.7,3.89-10.66,7.94L337.54,365l-3.89,1,3.19,7.33-1.5,4.29,7.4,4-4.15,17.57-10.83,3.32.14,13.75-7.28,2.78-.69,4.8-2.35,1.85-1.79-2.7-4.12,5.52-3.83-1.33-3.55,3.46-6-19.1-3.79-3.06-2.68-17.21,3.24-7.54,1.75,3.76,9.45,1.14-3.34-5.81,1.54-3.83,8.83-4.75-12.24-19.68h-4.83l-5-11.93,6.06-4.44,11.51-.61,4.47-6.45-1.19-7.6,8.18-.77.34-10.38,7.59-5.92-.75-12.6,11.11-8.2,1.27-10.14,10.85-6.79,5.23,1-.31,6.66,5.9-1.41,1.84-6.75,2.74.91,5.22-5Z"/><path class="cls-14" d="M380,263.61l.95,5.39,11.86,5.88-2.09,7.28-8.7,3.71,1.55,3.31,16.79,1.29,6.17,5.93,4.41-8.77,6.15,1.87,2.88-2.16-2-8.73,6,.44,13.4,14.62,5.6-5.93,6.1-1.27,6.66,7.39-4.35,5,2.57,4-4.36,3.91,5.38,11.58-2.48,7.16,9.28,3.51,4.85-5.52,4.7,5.19-1.49,11.4,8.79,7.22,2.54,8.4-4.45,6.43L481.84,374l5,3.5-23.21,8.6-7.92-2.19-6.07,4.43L442,380.91,432,378l-16.56.31-5.06,6.37-7.62-.26-5.61-5.71-.34,5.31-12.46,7.76L376,402.21l-9.16-2.08-6.53,7.3-3.56-2,1.73,3.42-13,27.36-9.32,10.7L325,449.62l-5.92-1.33-.32-4.45-11.48,1.76-4.14-3.78L314,435.75l6.58-16.6,7.34-2.86-.14-13.75,10.33-2.61,4.25-11-2.35-2.5,2.75-4.82-7.4-4,1.5-4.29-3.19-7.33,3.89-1,6.9-12.64,10.66-7.94,11.7-3.89,1-23.71L376.56,299l-7-3.15,2.22-3.18L368.13,288l7.13-11.32-4-12.54,3.94-.31,2.11-4.68Z"/><path class="cls-14" d="M368.24,243.6l5.41,5.09-3.1,4.52,3.65,6,3.14,0L376,263l-12.69,5.29L361.49,275l-5.9,1.41.31-6.66-5.23-1-10.85,6.79-1.27,10.14-11.11,8.2.75,12.6-7.59,5.92-.34,10.38-8.18.77,1.19,7.6-4.47,6.45-11.51.61-6.06,4.44,5,11.93h4.83l12.24,19.68L304.46,379l-1.54,3.83,3.34,5.81-9.45-1.14-1.75-3.76-3.24,7.54,2.68,17.21,3.79,3.06,6,19.1L301,433.4,283,418l-8.68-27.17-23.64-6.4L249,387.05l-5.38-.66,2.52-2.84L244,376.84l-8.1-4.7-1.4-4.7,6-32.91,8.32,6.24,4.05-.69L263,332.8l2.52-10.07,10.83,0,8.21-16,14.28-.5L311,302l4.63-9.43-4.13-6,21.15-12.66,3.08-11.65,15.32-4.29,1.52,5.32,8.83,6.16,2.23-6.08L362,248.6Z"/><path class="cls-14" d="M379.89,467.7l12.3-8.9,11.6.65,1.94-2.51,8,.78,4.65,8.08,6.49-3.71,1.46,19.56-4.29,3.62,6.24.3,2.13,6.81,6.92,2.14.39,8.58L419.42,520,387,509.87l-23.18-17.34-9.3-.69-.74-4.79-7-4.26,4.15-5.61-8.07-4.28,9.59-7.1,14.12,3.44,9.05-13,4.1,4Z"/><path class="cls-14" d="M290.53,244.19l.11,3.18,9.36-.84,4.21,4.7,12.63-5.61.44,13.28,6.55,4.19,9.53.72,1.14,7.41-23,15.28,4.13,6L311,302l-12.2,4.22-14.28.5-8.29,16.09-10.75,0-3.35,11-13.38,7-9.84-7.35L231.53,320l.6-8,11.77,1.17,6.31-12.49,9.38-5.73,4.08-15.61-5.13-8.91,3-8.59,7.61-5.94,9.12,0,5.51-11.23Z"/><line class="cls-15" x1="217.46" y1="261.21" x2="218.88" y2="262.62"/><line class="cls-16" x1="221.61" y1="265.33" x2="253.09" y2="296.57"/><line class="cls-15" x1="254.46" y1="297.92" x2="255.88" y2="299.33"/><circle class="cls-17" cx="256.36" cy="299.78" r="1.57"/><circle class="cls-17" cx="217.14" cy="260.91" r="1.57"/><line class="cls-15" x1="95.56" y1="272.66" x2="95.56" y2="274.66"/><line class="cls-16" x1="95.58" y1="278.52" x2="95.75" y2="322.86"/><line class="cls-15" x1="95.76" y1="324.79" x2="95.76" y2="326.79"/><circle class="cls-17" cx="95.79" cy="327.45" r="1.57"/><circle class="cls-17" cx="95.54" cy="272.23" r="1.57"/><line class="cls-15" x1="425.28" y1="236.51" x2="425.28" y2="238.51"/><line class="cls-18" x1="425.29" y1="242.35" x2="425.47" y2="309.59"/><line class="cls-15" x1="425.48" y1="311.51" x2="425.48" y2="313.51"/><circle class="cls-17" cx="425.51" cy="314.17" r="1.57"/><circle class="cls-17" cx="425.26" cy="236.08" r="1.57"/><line class="cls-15" x1="348.98" y1="190.56" x2="348.99" y2="192.56"/><line class="cls-19" x1="348.99" y1="196.64" x2="349.18" y2="292.49"/><line class="cls-15" x1="349.18" y1="294.53" x2="349.19" y2="296.53"/><circle class="cls-17" cx="349.21" cy="297.19" r="1.57"/><circle class="cls-17" cx="348.97" cy="190.13" r="1.57"/><line class="cls-15" x1="390.21" y1="487.35" x2="390.22" y2="489.35"/><line class="cls-20" x1="390.24" y1="493.13" x2="390.4" y2="521.46"/><line class="cls-15" x1="390.41" y1="523.35" x2="390.42" y2="525.35"/><circle class="cls-17" cx="390.44" cy="526.01" r="1.57"/><circle class="cls-17" cx="390.19" cy="486.92" r="1.57"/><line class="cls-15" x1="435.65" y1="424.75" x2="437.07" y2="426.16"/><line class="cls-20" x1="439.76" y1="428.81" x2="459.91" y2="448.74"/><line class="cls-15" x1="461.25" y1="450.07" x2="462.67" y2="451.47"/><circle class="cls-17" cx="463.15" cy="451.92" r="1.57"/><circle class="cls-17" cx="435.33" cy="424.45" r="1.57"/><line class="cls-15" x1="289.02" y1="441.62" x2="288.13" y2="443.41"/><line class="cls-21" x1="286.37" y1="446.91" x2="259.13" y2="501.3"/><line class="cls-15" x1="258.25" y1="503.05" x2="257.36" y2="504.84"/><circle class="cls-17" cx="256.91" cy="505.32" r="1.57"/><circle class="cls-17" cx="289.32" cy="441.3" r="1.57"/><line class="cls-15" x1="248.51" y1="359.65" x2="246.98" y2="360.94"/><line class="cls-22" x1="243.94" y1="363.49" x2="172.51" y2="423.5"/><line class="cls-15" x1="170.99" y1="424.78" x2="169.46" y2="426.07"/><circle class="cls-17" cx="169.1" cy="426.62" r="1.57"/><circle class="cls-17" cx="248.74" cy="359.29" r="1.57"/><circle class="cls-23" cx="264.71" cy="359.29" r="6.43"/><circle class="cls-24" cx="281.32" cy="359.29" r="6.43"/><circle class="cls-23" cx="271.14" cy="305.99" r="6.43"/><circle class="cls-24" cx="284.8" cy="429.88" r="6.43"/><circle class="cls-23" cx="268.27" cy="429.88" r="6.43"/></svg>