<svg id="Capa_1" data-name="Capa 1" xmlns="http://www.w3.org/2000/svg" viewBox="0 0 554 932"><defs><style>.cls-1{font-size:15px;font-family:Roboto-Bold, Roboto;font-weight:700;}.cls-1,.cls-12,.cls-17,.cls-19,.cls-24{fill:#1d1d1b;}.cls-2{letter-spacing:-0.02em;}.cls-3{letter-spacing:-0.01em;}.cls-4{letter-spacing:-0.01em;}.cls-5{letter-spacing:-0.01em;}.cls-22,.cls-23,.cls-25,.cls-26,.cls-27,.cls-6{fill:none;}.cls-10,.cls-6,.cls-7,.cls-8,.cls-9{stroke:#262626;stroke-linecap:round;stroke-width:0.5px;}.cls-10,.cls-22,.cls-23,.cls-25,.cls-26,.cls-27,.cls-6,.cls-7,.cls-8,.cls-9{stroke-linejoin:round;}.cls-7{fill:#fab637;}.cls-8{fill:#ffe7a1;}.cls-9{fill:#4ca8de;}.cls-10{fill:#cfcece;}.cls-11{fill:#71c2e9;stroke:#377c9c;stroke-width:3px;}.cls-11,.cls-28,.cls-29{stroke-miterlimit:1.75;}.cls-12,.cls-17,.cls-19{font-size:12.72px;font-family:Roboto-Regular, Roboto;}.cls-13{letter-spacing:-0.01em;}.cls-14{letter-spacing:-0.01em;}.cls-15{letter-spacing:-0.02em;}.cls-16{letter-spacing:0em;}.cls-17{letter-spacing:-0.02em;}.cls-18{letter-spacing:0em;}.cls-19,.cls-20{letter-spacing:-0.01em;}.cls-21{letter-spacing:-0.02em;}.cls-22,.cls-23,.cls-25,.cls-26,.cls-27{stroke:#0b0c0c;}.cls-23{stroke-dasharray:3.86 3.86;}.cls-25{stroke-dasharray:4.19 4.19;}.cls-26{stroke-dasharray:4.12 4.12;}.cls-27{stroke-dasharray:4.05 4.05;}.cls-28{fill:#afd28c;stroke:#71915a;isolation:isolate;}.cls-29{fill:#ec6062;stroke:#cc444b;}</style></defs><text class="cls-1" transform="translate(114.15 171.76)"><tspan xml:space="preserve"> 12 p</tspan><tspan class="cls-2" x="33.13" y="0">r</tspan><tspan class="cls-3" x="38.33" y="0">o</tspan><tspan class="cls-4" x="46.71" y="0">y</tspan><tspan x="54.14" y="0">ec</tspan><tspan class="cls-5" x="70.07" y="0">t</tspan><tspan x="74.92" y="0">os</tspan></text><path class="cls-6" d="M102.93,167.24h1.3l.2-1,.17,0a3.74,3.74,0,0,0,1-.41l.14-.08.85.52.93-1-.56-.84.08-.15a3.68,3.68,0,0,0,.4-1l0-.16,1-.24v-1.32l-1-.21,0-.16a3.61,3.61,0,0,0-.41-1l-.08-.14.52-.86-1-.92-.85.56-.14-.08a3.49,3.49,0,0,0-1-.4l-.17,0-.23-1h-1.32l-.21,1-.16,0a3.48,3.48,0,0,0-1,.41l-.14.08-.84-.53-.92.94.56.85-.09.14a4,4,0,0,0-.4,1l0,.17-1,.23,0,1.32,1,.21,0,.16a3.86,3.86,0,0,0,.42,1l.08.14-.52.86.94.92.85-.56.15.09a3.52,3.52,0,0,0,1,.39l.16,0Zm2.59-4.93a2,2,0,1,1-2-2A2,2,0,0,1,105.52,162.31Z"/><path class="cls-6" d="M109.2,173.76h.91l.15-.69.11,0a2.89,2.89,0,0,0,.69-.3l.1-.05.6.36.65-.66-.39-.6.06-.1a2.85,2.85,0,0,0,.28-.7l0-.11.69-.17v-.93l-.69-.14,0-.12a2.77,2.77,0,0,0-.29-.69l0-.09.36-.61-.66-.65-.6.4-.1-.06a2.63,2.63,0,0,0-.7-.28l-.11,0-.17-.69h-.93l-.14.69-.12,0a2.77,2.77,0,0,0-.69.29l-.1.06-.59-.38-.64.67.39.59-.06.1a2.63,2.63,0,0,0-.28.7l0,.12-.69.16v.93l.69.15,0,.11a2.49,2.49,0,0,0,.29.69l.06.1-.37.6.67.65.59-.39.11.06a2.85,2.85,0,0,0,.7.28l.11,0Zm1.82-3.47a1.41,1.41,0,1,1-1.41-1.41A1.41,1.41,0,0,1,111,170.29Z"/><rect class="cls-7" x="101.39" y="160.38" width="2.36" height="11.25" transform="translate(147.43 -23.91) rotate(45)"/><polygon class="cls-8" points="95.62 174.4 97.76 169.15 101.11 172.49 95.62 174.4"/><rect class="cls-7" x="103.07" y="162.06" width="2.36" height="11.25" transform="translate(149.1 -24.6) rotate(45)"/><rect class="cls-9" x="108.9" y="157.64" width="2.7" height="4.73" transform="translate(301.35 195.19) rotate(135)"/><rect class="cls-10" x="106.99" y="159.55" width="2.7" height="4.73" transform="translate(299.44 199.79) rotate(135)"/><text class="cls-1" transform="translate(374.88 219.64)"><tspan xml:space="preserve"> 17 p</tspan><tspan class="cls-2" x="33.13" y="0">r</tspan><tspan class="cls-3" x="38.33" y="0">o</tspan><tspan class="cls-4" x="46.71" y="0">y</tspan><tspan x="54.14" y="0">ec</tspan><tspan class="cls-5" x="70.07" y="0">t</tspan><tspan x="74.92" y="0">os</tspan></text><path class="cls-6" d="M363.66,215.11H365l.21-1,.16,0a3.61,3.61,0,0,0,1-.41l.14-.09.86.53.92-1-.56-.85.08-.14a3.49,3.49,0,0,0,.4-1l0-.17,1-.23v-1.33l-1-.2-.05-.16a3.48,3.48,0,0,0-.41-1l-.08-.14.52-.86-1-.92-.84.56-.15-.09a3.65,3.65,0,0,0-1-.39l-.16,0-.24-1h-1.32l-.21,1-.16,0a4,4,0,0,0-1,.42l-.14.08-.84-.54-.92.95.56.84-.09.15a3.65,3.65,0,0,0-.39,1l0,.16-1,.24v1.32l1,.21,0,.16a4.18,4.18,0,0,0,.42,1l.08.14-.52.86.95.92.84-.56.15.08a3.55,3.55,0,0,0,1,.4l.16,0Zm2.59-4.93a2,2,0,1,1-2-2A2,2,0,0,1,366.25,210.18Z"/><path class="cls-6" d="M369.93,221.63h.92l.14-.69.12,0a2.57,2.57,0,0,0,.68-.29l.1-.06.6.37.65-.66-.39-.6.06-.1a2.63,2.63,0,0,0,.28-.7l0-.11.69-.17v-.93l-.69-.14,0-.12a2.68,2.68,0,0,0-.3-.69l0-.1.36-.6-.66-.65-.6.39-.1-.05a2.23,2.23,0,0,0-.7-.28l-.11,0-.17-.69h-.93l-.14.69-.12,0a2.57,2.57,0,0,0-.68.29l-.11.06-.59-.38-.64.66.39.6-.06.1a2.63,2.63,0,0,0-.28.7l0,.11-.69.17v.93l.69.14,0,.12a3.28,3.28,0,0,0,.3.69l.05.1-.36.6.66.65.6-.4.1.06a2.23,2.23,0,0,0,.7.28l.11,0Zm1.82-3.46a1.41,1.41,0,1,1-1.41-1.42A1.41,1.41,0,0,1,371.75,218.17Z"/><rect class="cls-7" x="362.13" y="208.26" width="2.36" height="11.25" transform="translate(257.65 -194.25) rotate(45)"/><polygon class="cls-8" points="356.35 222.28 358.5 217.03 361.84 220.37 356.35 222.28"/><rect class="cls-7" x="363.8" y="209.93" width="2.36" height="11.25" transform="translate(259.32 -194.95) rotate(45)"/><rect class="cls-9" x="369.64" y="205.52" width="2.7" height="4.73" transform="translate(780.31 92.55) rotate(135)"/><rect class="cls-10" x="367.73" y="207.43" width="2.7" height="4.73" transform="translate(778.4 97.16) rotate(135)"/><text class="cls-1" transform="translate(404.23 365.69)"><tspan xml:space="preserve"> 5 p</tspan><tspan class="cls-2" x="24.52" y="0">r</tspan><tspan class="cls-3" x="29.73" y="0">o</tspan><tspan class="cls-4" x="38.1" y="0">y</tspan><tspan x="45.53" y="0">ec</tspan><tspan class="cls-5" x="61.46" y="0">t</tspan><tspan x="66.31" y="0">os</tspan></text><path class="cls-6" d="M393,361.16h1.3l.2-1,.17,0a3.74,3.74,0,0,0,1-.41l.14-.08.86.52.92-.95-.56-.85.08-.14a3.68,3.68,0,0,0,.4-1l0-.17,1-.23v-1.32l-1-.21,0-.16a3.48,3.48,0,0,0-.41-1L397,354l.52-.86-.95-.92-.85.56-.14-.09a3.65,3.65,0,0,0-1-.39l-.17,0-.23-1h-1.32l-.21,1-.16,0a3.86,3.86,0,0,0-1,.42l-.14.08-.84-.53-.92.94.56.84-.09.15a3.65,3.65,0,0,0-.39,1l0,.16-1,.24V357l1,.21,0,.16a4,4,0,0,0,.42,1l.08.14-.52.86.94.92.85-.56.15.08a3.27,3.27,0,0,0,1,.4l.16,0Zm2.59-4.92a2,2,0,1,1-2-2A2,2,0,0,1,395.6,356.24Z"/><path class="cls-6" d="M399.28,367.68h.91l.15-.69.11,0a2.49,2.49,0,0,0,.69-.29l.1-.05.6.36.65-.66-.39-.6.06-.1a3,3,0,0,0,.28-.7l0-.11.69-.17v-.93l-.7-.14,0-.12a2.77,2.77,0,0,0-.29-.69l-.05-.1.36-.6-.66-.65-.6.4-.1-.06a2.33,2.33,0,0,0-.7-.28l-.11,0-.17-.69h-.93l-.14.69-.12,0a2.77,2.77,0,0,0-.69.29l-.1.06-.59-.38-.64.67.39.59-.06.1a2.63,2.63,0,0,0-.28.7l0,.12-.69.16v.93l.69.14,0,.12a3,3,0,0,0,.29.69l.06.1-.37.6.67.65.6-.39.1.06a2.48,2.48,0,0,0,.7.27l.11,0Zm1.82-3.46a1.41,1.41,0,1,1-1.41-1.41A1.41,1.41,0,0,1,401.1,364.22Z"/><rect class="cls-7" x="391.47" y="354.31" width="2.36" height="11.25" transform="translate(369.52 -172.23) rotate(45)"/><polygon class="cls-8" points="385.7 368.33 387.84 363.08 391.19 366.42 385.7 368.33"/><rect class="cls-7" x="393.15" y="355.98" width="2.36" height="11.25" transform="translate(371.19 -172.92) rotate(45)"/><rect class="cls-9" x="398.98" y="351.57" width="2.7" height="4.73" transform="translate(933.68 321.12) rotate(135)"/><rect class="cls-10" x="397.07" y="353.48" width="2.7" height="4.73" transform="translate(931.77 325.73) rotate(135)"/><text class="cls-1" transform="translate(388.24 423.59)"><tspan xml:space="preserve"> 16 p</tspan><tspan class="cls-2" x="33.13" y="0">r</tspan><tspan class="cls-3" x="38.33" y="0">o</tspan><tspan class="cls-4" x="46.71" y="0">y</tspan><tspan x="54.14" y="0">ec</tspan><tspan class="cls-5" x="70.07" y="0">t</tspan><tspan x="74.92" y="0">os</tspan></text><path class="cls-6" d="M377,419.06h1.3l.2-1,.17,0a3.74,3.74,0,0,0,1-.41l.14-.08.85.52.93-.95-.56-.85.08-.14a3.68,3.68,0,0,0,.4-1l0-.17,1-.23v-1.32l-1-.21,0-.16a3.48,3.48,0,0,0-.41-1l-.09-.14.53-.86-.95-.92-.85.56-.14-.09a3.78,3.78,0,0,0-1-.39l-.17,0-.23-1h-1.32l-.21,1-.16,0a3.86,3.86,0,0,0-1,.42l-.15.08-.84-.53-.91.94.56.84-.09.15a4,4,0,0,0-.4,1l0,.17-1,.23,0,1.32,1,.21,0,.16a4,4,0,0,0,.42,1l.08.14-.52.86.94.92.85-.56.15.08a3.27,3.27,0,0,0,1,.4l.16,0Zm2.59-4.92a2,2,0,1,1-2-2A2,2,0,0,1,379.61,414.14Z"/><path class="cls-6" d="M383.29,425.58h.91l.15-.69.11,0a2.89,2.89,0,0,0,.69-.3l.1-.05.6.36.65-.66-.39-.6.06-.1a3,3,0,0,0,.28-.7l0-.11.69-.17v-.93l-.69-.14,0-.12a2.77,2.77,0,0,0-.29-.69l-.06-.09.37-.61-.66-.65-.6.4-.1-.06a2.63,2.63,0,0,0-.7-.28l-.11,0-.17-.69h-.93l-.14.69-.12,0a2.77,2.77,0,0,0-.69.29l-.1.06-.59-.38-.64.67.39.59-.06.1a2.63,2.63,0,0,0-.28.7l0,.12-.69.16v.93l.69.14,0,.12a2.49,2.49,0,0,0,.29.69l.06.1-.37.6.67.65.59-.39.11.06a2.48,2.48,0,0,0,.7.27l.11,0Zm1.82-3.46a1.41,1.41,0,1,1-1.41-1.41A1.41,1.41,0,0,1,385.11,422.12Z"/><rect class="cls-7" x="375.48" y="412.21" width="2.36" height="11.25" transform="translate(405.78 -143.96) rotate(45)"/><polygon class="cls-8" points="369.71 426.23 371.85 420.98 375.2 424.32 369.71 426.23"/><rect class="cls-7" x="377.16" y="413.88" width="2.36" height="11.25" transform="translate(407.45 -144.65) rotate(45)"/><rect class="cls-9" x="382.99" y="409.47" width="2.7" height="4.73" transform="translate(947.32 431.27) rotate(135)"/><rect class="cls-10" x="381.08" y="411.38" width="2.7" height="4.73" transform="translate(945.41 435.88) rotate(135)"/><text class="cls-1" transform="translate(395.52 468.39)"><tspan xml:space="preserve"> 4 p</tspan><tspan class="cls-2" x="24.52" y="0">r</tspan><tspan class="cls-3" x="29.73" y="0">o</tspan><tspan class="cls-4" x="38.1" y="0">y</tspan><tspan x="45.53" y="0">ec</tspan><tspan class="cls-5" x="61.46" y="0">t</tspan><tspan x="66.31" y="0">os</tspan></text><path class="cls-6" d="M384.3,463.86h1.31l.2-1,.16,0a3.48,3.48,0,0,0,1-.41l.14-.09.86.53.92-.95-.56-.85.09-.14a3.78,3.78,0,0,0,.39-1l0-.17,1-.23v-1.32l-1-.21,0-.16a3.86,3.86,0,0,0-.42-1l-.08-.14.52-.86-.95-.92-.84.56-.15-.09a3.52,3.52,0,0,0-1-.39l-.16,0-.24-1h-1.32l-.2,1-.17,0a4.18,4.18,0,0,0-1,.42l-.14.08-.84-.54-.92.95.56.84-.08.15a3.68,3.68,0,0,0-.4,1l0,.16-1,.24v1.32l1,.21,0,.16a3.74,3.74,0,0,0,.41,1l.08.14L381,462l.95.92.84-.56.15.08a3.68,3.68,0,0,0,1,.4l.17,0Zm2.59-4.93a2,2,0,1,1-2-2A2,2,0,0,1,386.89,458.93Z"/><path class="cls-6" d="M390.57,470.38h.92l.14-.69.12,0a2.77,2.77,0,0,0,.69-.29l.09-.06.61.37.65-.66-.4-.6.06-.1a2.63,2.63,0,0,0,.28-.7l0-.11.69-.17v-.93l-.69-.14,0-.12a2.62,2.62,0,0,0-.29-.69l-.06-.1.37-.6-.67-.65-.59.39-.11-.05a2.28,2.28,0,0,0-.69-.28l-.12,0-.17-.69h-.92l-.15.69-.11,0a2.49,2.49,0,0,0-.69.29l-.1.06-.59-.38-.65.66.39.6-.06.1a3,3,0,0,0-.28.7l0,.11-.69.17v.93l.69.14,0,.12a2.77,2.77,0,0,0,.29.69l.06.1-.37.6.67.65.59-.4.1.06a2.33,2.33,0,0,0,.7.28l.12,0Zm1.82-3.46A1.41,1.41,0,1,1,391,465.5,1.41,1.41,0,0,1,392.39,466.92Z"/><rect class="cls-7" x="382.77" y="457.01" width="2.36" height="11.25" transform="translate(439.59 -135.99) rotate(45)"/><polygon class="cls-8" points="377 471.03 379.14 465.78 382.48 469.12 377 471.03"/><rect class="cls-7" x="384.44" y="458.68" width="2.36" height="11.25" transform="translate(441.26 -136.68) rotate(45)"/><rect class="cls-9" x="390.28" y="454.27" width="2.7" height="4.73" transform="translate(991.44 502.6) rotate(135)"/><rect class="cls-10" x="388.37" y="456.18" width="2.7" height="4.73" transform="translate(989.53 507.21) rotate(135)"/><text class="cls-1" transform="translate(435 602.67)"><tspan xml:space="preserve"> 0 p</tspan><tspan class="cls-2" x="24.52" y="0">r</tspan><tspan class="cls-3" x="29.73" y="0">o</tspan><tspan class="cls-4" x="38.1" y="0">y</tspan><tspan x="45.53" y="0">ec</tspan><tspan class="cls-5" x="61.46" y="0">t</tspan><tspan x="66.31" y="0">os</tspan></text><path class="cls-6" d="M423.78,598.14h1.31l.2-1,.16,0a3.86,3.86,0,0,0,1-.42l.14-.08.86.52.92-.95-.56-.84.09-.15a3.52,3.52,0,0,0,.39-1l0-.16,1-.24v-1.32l-1-.2,0-.17a4.18,4.18,0,0,0-.42-1l-.08-.14.52-.85-.95-.93-.84.56-.15-.08a3.55,3.55,0,0,0-1-.4l-.16,0-.24-1h-1.32l-.2,1-.17,0a3.74,3.74,0,0,0-1,.41l-.14.09-.84-.54-.92.94.56.85-.08.14a3.74,3.74,0,0,0-.4,1l0,.16-1,.24v1.32l1,.2,0,.17a3.55,3.55,0,0,0,.41,1l.08.14-.52.86.95.92.84-.56.15.09a3.65,3.65,0,0,0,1,.39l.17,0Zm2.59-4.93a2,2,0,1,1-2-2A2,2,0,0,1,426.37,593.21Z"/><path class="cls-6" d="M430.05,604.66H431l.14-.69.12,0a2.77,2.77,0,0,0,.69-.29l.09-.06.61.37.65-.67-.4-.59.06-.11a2.5,2.5,0,0,0,.28-.7l0-.11.69-.17v-.93l-.69-.14,0-.12a2.57,2.57,0,0,0-.29-.68l-.06-.1.37-.61-.67-.64-.59.39-.11-.06a2.57,2.57,0,0,0-.69-.28l-.12,0-.17-.69H430l-.15.69-.11,0a2.54,2.54,0,0,0-.69.3l-.1,0-.59-.37-.65.66.39.59-.06.11a2.94,2.94,0,0,0-.28.69l0,.12-.69.17v.92l.69.15,0,.11a2.49,2.49,0,0,0,.29.69l.06.1-.37.6.67.65.59-.39.1.06a2.63,2.63,0,0,0,.7.28l.12,0Zm1.82-3.47a1.41,1.41,0,1,1-1.41-1.41A1.41,1.41,0,0,1,431.87,601.19Z"/><rect class="cls-7" x="422.25" y="591.29" width="2.36" height="11.25" transform="translate(546.1 -124.58) rotate(45)"/><polygon class="cls-8" points="416.48 605.3 418.62 600.05 421.96 603.4 416.48 605.3"/><rect class="cls-7" x="423.92" y="592.96" width="2.36" height="11.25" transform="translate(547.77 -125.27) rotate(45)"/><rect class="cls-9" x="429.76" y="588.54" width="2.7" height="4.73" transform="translate(1153.78 703.9) rotate(135)"/><rect class="cls-10" x="427.85" y="590.45" width="2.7" height="4.73" transform="translate(1151.87 708.51) rotate(135)"/><text class="cls-1" transform="translate(100.82 240.18)"><tspan xml:space="preserve"> 21 p</tspan><tspan class="cls-2" x="33.13" y="0">r</tspan><tspan class="cls-3" x="38.33" y="0">o</tspan><tspan class="cls-4" x="46.71" y="0">y</tspan><tspan x="54.14" y="0">ec</tspan><tspan class="cls-5" x="70.07" y="0">t</tspan><tspan x="74.92" y="0">os</tspan></text><path class="cls-6" d="M89.6,235.65h1.31l.2-1,.16,0a3.48,3.48,0,0,0,1-.41l.14-.08.86.52.92-.95-.56-.84.09-.15a3.65,3.65,0,0,0,.39-1l0-.17,1-.23V230l-1-.21,0-.16a4,4,0,0,0-.42-1l-.08-.14.52-.86-.95-.92-.84.56-.15-.08a3.27,3.27,0,0,0-1-.4l-.16,0-.24-1H89.45l-.2,1-.17.05a3.74,3.74,0,0,0-1,.41l-.14.08-.84-.53-.92.94.56.85-.08.14a3.68,3.68,0,0,0-.4,1l0,.17-1,.23v1.32l1,.21,0,.16a3.48,3.48,0,0,0,.41,1l.08.14-.52.86,1,.92.84-.56.15.09a3.65,3.65,0,0,0,1,.39l.16,0Zm2.59-4.92a2,2,0,1,1-2-2A2,2,0,0,1,92.19,230.73Z"/><path class="cls-6" d="M95.87,242.17h.92l.14-.68.12,0a3.28,3.28,0,0,0,.69-.3l.09,0,.61.36.65-.66-.4-.6.06-.1a2.63,2.63,0,0,0,.28-.7l0-.11.69-.17v-.93l-.69-.14,0-.12a2.77,2.77,0,0,0-.29-.69l-.06-.09.37-.61-.67-.65-.59.4-.11-.06A2.57,2.57,0,0,0,97,236l-.12,0-.17-.69h-.93l-.14.69-.12,0a2.57,2.57,0,0,0-.68.29l-.1.06-.59-.38-.65.67.39.59-.06.1a3,3,0,0,0-.28.7l0,.12-.69.16v.93l.69.15,0,.11a2.49,2.49,0,0,0,.29.69l.06.1-.37.6.66.65.6-.39.1.06a3,3,0,0,0,.7.28l.11,0Zm1.82-3.46a1.41,1.41,0,1,1-1.41-1.41A1.41,1.41,0,0,1,97.69,238.71Z"/><rect class="cls-7" x="88.07" y="228.8" width="2.36" height="11.25" transform="translate(191.91 5.55) rotate(45)"/><polygon class="cls-8" points="82.3 242.82 84.44 237.57 87.78 240.91 82.3 242.82"/><rect class="cls-7" x="89.74" y="230.48" width="2.36" height="11.25" transform="translate(193.58 4.86) rotate(45)"/><rect class="cls-9" x="95.58" y="226.06" width="2.7" height="4.73" transform="translate(326.98 321.41) rotate(135)"/><rect class="cls-10" x="93.67" y="227.97" width="2.7" height="4.73" transform="translate(325.08 326.01) rotate(135)"/><text class="cls-1" transform="translate(65.53 306.19)"><tspan xml:space="preserve"> 4 p</tspan><tspan class="cls-2" x="24.52" y="0">r</tspan><tspan class="cls-3" x="29.73" y="0">o</tspan><tspan class="cls-4" x="38.1" y="0">y</tspan><tspan x="45.53" y="0">ec</tspan><tspan class="cls-5" x="61.46" y="0">t</tspan><tspan x="66.31" y="0">os</tspan></text><path class="cls-6" d="M54.31,301.66h1.3l.21-1,.16-.05a3.61,3.61,0,0,0,1-.41l.14-.08.86.52.92-1-.56-.84.09-.15a3.65,3.65,0,0,0,.39-1l0-.16,1-.24V296l-1-.2,0-.17a4.18,4.18,0,0,0-.42-1l-.08-.14.52-.86-1-.92-.84.56-.15-.08a3.68,3.68,0,0,0-1-.4l-.16,0-.24-1H54.16l-.2,1-.17,0a3.74,3.74,0,0,0-1,.41l-.14.09-.84-.54-.92.94.56.85-.09.14a3.71,3.71,0,0,0-.39,1l0,.16-1,.23v1.33l1,.2,0,.17a3.55,3.55,0,0,0,.41,1l.08.14-.52.86,1,.92.84-.56.15.09a3.65,3.65,0,0,0,1,.39l.16,0Zm2.59-4.93a2,2,0,1,1-2-2A2,2,0,0,1,56.9,296.73Z"/><path class="cls-6" d="M60.58,308.18h.92l.14-.69.12,0a3,3,0,0,0,.68-.29l.1-.06.61.37.64-.67-.39-.6.06-.1a2.5,2.5,0,0,0,.28-.7l0-.11.69-.17v-.93l-.69-.14,0-.12a3,3,0,0,0-.29-.68l-.06-.1.37-.61-.67-.64-.6.39-.1-.06a2.5,2.5,0,0,0-.7-.28l-.11,0-.17-.69h-.93l-.14.69-.12,0a3,3,0,0,0-.68.29l-.11.06-.59-.38-.64.67.39.59-.06.11a2.57,2.57,0,0,0-.28.69l0,.12-.69.16v.93l.7.15,0,.11a2.89,2.89,0,0,0,.3.69l.05.1-.36.6.66.65.6-.39.1.06a2.63,2.63,0,0,0,.7.28l.11,0Zm1.82-3.47A1.41,1.41,0,1,1,61,303.3,1.41,1.41,0,0,1,62.4,304.71Z"/><rect class="cls-7" x="52.78" y="294.81" width="2.36" height="11.25" transform="translate(228.24 49.84) rotate(45)"/><polygon class="cls-8" points="47 308.82 49.15 303.57 52.49 306.92 47 308.82"/><rect class="cls-7" x="54.45" y="296.48" width="2.36" height="11.25" transform="translate(229.91 49.15) rotate(45)"/><rect class="cls-9" x="60.29" y="292.06" width="2.7" height="4.73" transform="translate(313.41 459.03) rotate(135)"/><rect class="cls-10" x="58.38" y="293.97" width="2.7" height="4.73" transform="translate(311.5 463.64) rotate(135)"/><text class="cls-1" transform="translate(57.71 365.35)"><tspan xml:space="preserve"> 12 p</tspan><tspan class="cls-2" x="33.13" y="0">r</tspan><tspan class="cls-3" x="38.33" y="0">o</tspan><tspan class="cls-4" x="46.71" y="0">y</tspan><tspan x="54.14" y="0">ec</tspan><tspan class="cls-5" x="70.07" y="0">t</tspan><tspan x="74.92" y="0">os</tspan></text><path class="cls-6" d="M46.48,360.82h1.31l.2-1,.17,0a3.55,3.55,0,0,0,1-.41l.14-.08.86.52.92-.95-.56-.84.09-.15a4,4,0,0,0,.4-1l0-.17,1-.23,0-1.32L51,355l0-.16a3.86,3.86,0,0,0-.42-1l-.08-.14.52-.86-.94-.92-.85.56-.15-.09a3.52,3.52,0,0,0-1-.39l-.16,0-.24-1H46.33l-.2,1L46,352a3.55,3.55,0,0,0-1,.41l-.15.08L44,352l-.92.94.56.85-.08.14a3.68,3.68,0,0,0-.4,1l0,.17-1,.23v1.32l1,.21,0,.16a3.61,3.61,0,0,0,.41,1l.08.14-.52.86,1,.92.85-.56.14.09a3.65,3.65,0,0,0,1,.39l.17,0Zm2.59-4.92a2,2,0,1,1-2-2A2,2,0,0,1,49.07,355.9Z"/><path class="cls-6" d="M52.75,367.34h.92l.14-.69.12,0a3.28,3.28,0,0,0,.69-.3l.1-.05.6.36L56,366l-.4-.6.06-.1a2.33,2.33,0,0,0,.28-.7l0-.11.69-.17v-.93l-.69-.14,0-.12a2.77,2.77,0,0,0-.29-.69l-.06-.09.37-.61-.67-.65-.59.4-.11-.06a2.57,2.57,0,0,0-.69-.28l-.12,0-.16-.69h-.93l-.15.69-.11,0a2.49,2.49,0,0,0-.69.29l-.1.06-.59-.38-.65.67.39.59,0,.1a2.33,2.33,0,0,0-.28.7l0,.12-.69.16v.93l.69.15,0,.11a2.49,2.49,0,0,0,.29.69l.06.1-.37.6.67.65.59-.39.1.06a2.6,2.6,0,0,0,.7.27l.12,0Zm1.83-3.46a1.42,1.42,0,1,1-1.42-1.41A1.42,1.42,0,0,1,54.58,363.88Z"/><rect class="cls-7" x="44.95" y="353.97" width="2.36" height="11.25" transform="translate(267.79 72.7) rotate(45)"/><polygon class="cls-8" points="39.18 367.99 41.32 362.74 44.66 366.08 39.18 367.99"/><rect class="cls-7" x="46.62" y="355.65" width="2.36" height="11.25" transform="translate(269.46 72.01) rotate(45)"/><rect class="cls-9" x="52.46" y="351.23" width="2.7" height="4.73" transform="translate(341.89 565.57) rotate(135)"/><rect class="cls-10" x="50.55" y="353.14" width="2.7" height="4.73" transform="translate(339.98 570.18) rotate(135)"/><text class="cls-1" transform="translate(56.86 412.43)"><tspan xml:space="preserve"> 6 p</tspan><tspan class="cls-2" x="24.52" y="0">r</tspan><tspan class="cls-3" x="29.73" y="0">o</tspan><tspan class="cls-4" x="38.1" y="0">y</tspan><tspan x="45.53" y="0">ec</tspan><tspan class="cls-5" x="61.46" y="0">t</tspan><tspan x="66.31" y="0">os</tspan></text><path class="cls-6" d="M45.64,407.9h1.3l.2-1,.17-.05a3.74,3.74,0,0,0,1-.41l.14-.08.85.52.92-.95-.55-.84.08-.15a3.68,3.68,0,0,0,.4-1l0-.16,1-.24,0-1.32-1-.2,0-.17a4.12,4.12,0,0,0-.41-1l-.09-.14.53-.86-1-.92-.85.56-.14-.08a3.81,3.81,0,0,0-1-.4L47,399l-.23-1H45.48l-.2,1-.16,0a3.48,3.48,0,0,0-1,.41l-.15.09-.84-.54-.91.94.56.85-.09.14a4.1,4.1,0,0,0-.4,1l0,.16-1,.23,0,1.33,1,.2,0,.17a4,4,0,0,0,.42,1l.08.14-.52.86.94.92.85-.56.14.09a3.71,3.71,0,0,0,1,.39l.16,0ZM48.23,403a2,2,0,1,1-2-2A2,2,0,0,1,48.23,403Z"/><path class="cls-6" d="M51.91,414.42h.91l.15-.69.11,0a2.83,2.83,0,0,0,.69-.29l.1-.06.6.37.65-.67-.39-.6.06-.1a2.85,2.85,0,0,0,.28-.7l0-.11.69-.17v-.93l-.69-.14,0-.12a2.57,2.57,0,0,0-.29-.68l-.06-.1.37-.61-.67-.64-.59.39-.1-.06a2.63,2.63,0,0,0-.7-.28l-.11,0-.17-.69H51.8l-.14.69-.12,0a3,3,0,0,0-.69.29l-.1.06-.59-.38-.65.67.4.59-.06.11a2.57,2.57,0,0,0-.28.69l0,.12-.69.16v.93l.69.15,0,.11a2.49,2.49,0,0,0,.29.69l.06.1-.37.6.67.65.59-.39.11.06a2.57,2.57,0,0,0,.69.28l.12,0ZM53.73,411a1.41,1.41,0,1,1-1.41-1.41A1.41,1.41,0,0,1,53.73,411Z"/><rect class="cls-7" x="44.1" y="401.05" width="2.36" height="11.25" transform="translate(300.82 87.09) rotate(45)"/><polygon class="cls-8" points="38.33 415.06 40.47 409.81 43.82 413.15 38.33 415.06"/><rect class="cls-7" x="45.78" y="402.72" width="2.36" height="11.25" transform="translate(302.49 86.4) rotate(45)"/><rect class="cls-9" x="51.61" y="398.3" width="2.7" height="4.73" transform="translate(373.72 646.53) rotate(135)"/><rect class="cls-10" x="49.7" y="400.21" width="2.7" height="4.73" transform="translate(371.82 651.14) rotate(135)"/><text class="cls-1" transform="translate(74.1 587)"><tspan xml:space="preserve"> 6 p</tspan><tspan class="cls-2" x="24.52" y="0">r</tspan><tspan class="cls-3" x="29.73" y="0">o</tspan><tspan class="cls-4" x="38.1" y="0">y</tspan><tspan x="45.53" y="0">ec</tspan><tspan class="cls-5" x="61.46" y="0">t</tspan><tspan x="66.31" y="0">os</tspan></text><path class="cls-6" d="M62.88,582.47h1.3l.2-1,.17,0a4.58,4.58,0,0,0,1-.41l.14-.09.86.53.92-1-.56-.85.08-.14a3.74,3.74,0,0,0,.4-1l0-.16,1-.23v-1.33l-1-.2,0-.17a3.55,3.55,0,0,0-.41-1l-.08-.14.52-.86-.95-.92-.84.56-.15-.09a3.65,3.65,0,0,0-1-.39l-.17,0-.23-1H62.73l-.21,1-.16,0a3.86,3.86,0,0,0-1,.42l-.14.08-.84-.54-.92.95.56.84-.09.15a3.65,3.65,0,0,0-.39,1l0,.16-1,.24v1.32l1,.2,0,.17a4.18,4.18,0,0,0,.42,1l.08.14-.52.86.94.92.85-.56.15.08a3.55,3.55,0,0,0,1,.4l.16,0Zm2.59-4.93a2,2,0,1,1-2-2A2,2,0,0,1,65.47,577.54Z"/><path class="cls-6" d="M69.15,589h.91l.15-.69.11,0A2.49,2.49,0,0,0,71,588l.1-.06.6.37.65-.67L72,587l.06-.1a2.63,2.63,0,0,0,.28-.7l0-.12L73,586V585l-.7-.14,0-.12a3.07,3.07,0,0,0-.3-.69l0-.1.36-.6-.66-.65-.6.39-.1-.05a2.33,2.33,0,0,0-.7-.28l-.11,0-.17-.69H69l-.14.69-.12,0a2.77,2.77,0,0,0-.69.29l-.1.06-.59-.38-.64.66.39.6-.06.1a2.63,2.63,0,0,0-.28.7l0,.11-.69.17V586l.69.14,0,.12a3.2,3.2,0,0,0,.29.69l.06.1-.37.6.67.65.6-.4.1.06a2.5,2.5,0,0,0,.7.28l.11,0ZM71,585.53a1.41,1.41,0,1,1-1.41-1.42A1.41,1.41,0,0,1,71,585.53Z"/><rect class="cls-7" x="61.35" y="575.62" width="2.36" height="11.25" transform="translate(429.32 126.03) rotate(45)"/><polygon class="cls-8" points="55.57 589.64 57.72 584.39 61.06 587.73 55.57 589.64"/><rect class="cls-7" x="63.02" y="577.29" width="2.36" height="11.25" transform="translate(430.99 125.34) rotate(45)"/><rect class="cls-9" x="68.85" y="572.88" width="2.7" height="4.73" transform="translate(526.6 932.36) rotate(135)"/><rect class="cls-10" x="66.95" y="574.79" width="2.7" height="4.73" transform="translate(524.69 936.97) rotate(135)"/><path class="cls-11" d="M263.8,275.45,282.43,314l11.81-2.48-2.86,5.92,8.07,1.45-5.27,10.92,1.6,9.62-17.32,4L275,335.6l-6.9-.06-1.86-4.22-2.85,5.5,3.9,11.11-7.81.06-6.51-4.85L248,330.54l-6.71,2.28-3.55-3.77-8.18,6.21L224,332.63l-12.87,4.53-12.67-8.73.74-6-12.41-1.11-3.87-6.16,5.91-1.63,9.55-11.82,23.28-2.1-2-11.82,4.14-7.26,13.34,6.56,0-9.44L249.19,284Z"/><path class="cls-11" d="M176.67,322.84l4.26,2.56,18.28-3-.74,6,12.67,8.73L224,332.63l5.58,2.63,8.18-6.21,3.55,3.77,6.71-2.28,6,14.26,12.59,3.28.75,19.41-11.75-6.55-21.3,0-18.95-6.3-10.29,3.95-14.32-7.88-20.1,3-15.82-14.82.58-9.41,5.27-5.3,13-4Z"/><path class="cls-11" d="M193.69,369.2l10.2,1.86,13.84,11.63,8.37-5-.94-3,5,3.62,2.09-4,8.13,3.36L259.16,396l1.21,15.71-13.87,14.5-16,.23-8.3,5.08-30.49-4,.24-6.08-7.36-3-10.77,7.11L171.1,381,190,375.17Z"/><path class="cls-11" d="M228,168.18l3.58,7.29,3.94-.94,9.62,10.4,12.35,4.25,3.67-6.63,7.6-3,5.28,2.93,2.56-5.42L277.92,191,289,198.74l4.16,16.66,3.1-.18-7.55,23.83-13.67,5.68L274.46,256l-9.82,4.76-4.95-3.06-5.32,2.61,5.86,14.58-11,9.15-13-7-1.43-8.35-4.11-.88L230,257.17l5-2.42.79-9.25-8-5.5,3.31-15-8.3-5-3-15.19-12.77-.4-9.25-10,2.72-11.25,6.38,3.22,7.14-5.65,5,4.5,4-4.26-.34-11.05Z"/><path class="cls-11" d="M306.53,231.27l3.75-2.05,18.9,29.35,7.69,5.39-.82,4.3,4.48.19L336,275.3l7.06,2.1-1.79,8.71,5.39,1.66L346,293.3l4.65,1.9,1.33,10.07,9,13.18L378,332.65l-2.52,7.43-15.34-5.34-17.74-.5-12.17-12.18-20.34-9.34-3.31-12.84-9.42,10.21,2.27,8.78-8.09-1.45,2.86-5.92-11.1,3.22-19.39-39.46-5.46,2.86,1.62-7.56-5.54-10.26,5.32-2.61,4.95,3.06,9.82-4.76.61-11.26,13.67-5.68,7.55-23.83,4,11.07Z"/><path class="cls-11" d="M265.18,413.42l-1.94,10.94,5.72-1.88,5.14,8,12.13,4.29,3.68,3.3.17,9.58,6.83-1.36,5.67,5.83,12.27.45,4.71,6.23,5.59-.35,10.56,18-20.9,16.15-17.5,2.41L297,505.43,287.13,521l11.47,17.68L300.19,553l-5.27,6.35L274.18,563l-10.69,9.46-19.13.47,4.34,10.46L240,595l2.12,10.28-7.79-.35-3.81-11.18,2.68-4.51-14.08-8,3.62-6.27-1.8-9.69-30-7.19L179.72,560l-6.42-5.35,12.45-6,2.88-10-5.17-6.22,3-4L184,522.4l-9.72-2.51,5.31-2.31L173,514l6.45-10.7L168,508.9l-5.63-5.68-.17-5.69,7.71-6.69-9.35-.95-5.05-8.39-8.15,8.14-12.81,2.7L129,473.59l6-7.13-11.46-2,6.06-13.69,8.15-6.18-7.74-6.67L138.06,419l17.56,4.23,4.67-4.86,11.52,3,2.89,4.49,9.85-7.31,7.36,3-.24,6.08,30.49,4,8.3-5.08,16-.23,12.14-13Z"/><path class="cls-11" d="M336.27,476.93l2.4,18.48-8.86,8.5,3.64,11.51,8.52,5.43,15.93-21.27,10.59,6.93,17.3-7.9,5.72,2.38,1.56-5.49,7.23.85.09-4.51L423.6,503.1l2.65,6.82-11.09-.18-11,12.85-6.21-4-7.6,2.26-2.5,7.24-7.6,3.39-7.89-3.08-1.17,10.09-10.32,3.59-.3,4.51-10.05,3.65L345,546.72,334,549l1.09,21.14,12.67,18.53-32.32,10.83L303.5,586.45l-11.79-1.92-.86,14.38-26,26-1.39-15.1L269,602l-3.71-7.13L254.1,598.2,252,605.65l-9.86-.38L240,595l8.7-11.65-4.34-10.46,19.13-.47L278.16,561l17.31-2.05,5.5-7.71-2.37-12.56L287.13,521,297,505.43l.33-10.35,17.5-2.41L326,481.15Zm-25.35,99-3.88.93,3.32,7.22,5.35,1.78,5.88-5.81Z"/><path class="cls-11" d="M400.7,520.81,408.27,538l-5.13,21.11-11.87,7.24-8,15.8-14.89-1.47,1,13.18-20.22-2.05L335.1,570.17,334,549.05l11-2.33,5.56,3.53,10.05-3.65.3-4.51,10.32-3.59.05-9.44,9,2.43,7.6-3.39,2.5-7.24Z"/><path class="cls-11" d="M307.87,379l29.65,62.45.2,8.88-7.37,14.08-15.5-11.83-6.44,1.56-11.5-7.84-6.91,1.3-.09-9.52-8.35-2.36-6.1-11.52.35-2.89,9.77,3.94,2.94-21.56,8.42-5.56,3-15.79Z"/><path class="cls-11" d="M190,350.9l15.19,7.72,10.2-4,18.95,6.3,21.3,0,17.67,8.4,18.76,31.88L288.44,404l-2.86,21.3-10.1-3.46,5,12.29L269,422.48l-5.83,1.73,2.51-9.6-7-1.33.52-17.25L240.42,377.6l-8.13-3.36-2.09,4-5-3.62.94,3-8.37,5-13.84-11.63-10.48-1.88-3.44,6-17.23,4.18-2.1-25.62Z"/><path class="cls-11" d="M268,335.43l6.95.17,3.51,7.79,17.32-4L301,361.28l16.63,13.05-17.61,8-.85,10.8-7.08,8.05-18.61-31.71-6.09-2,1.88-9.13-5.89-21.55,2.85-5.5Z"/><text class="cls-12" transform="translate(93.98 150.01)">Huanta</text><text class="cls-12" transform="translate(355.3 198.77)">La Mar</text><text class="cls-12" transform="translate(83.66 219.19)">Huamanga</text><text class="cls-12" transform="translate(46.26 286.37)">Cangallo</text><text class="cls-12" transform="translate(385.53 346.54)">Vilcashuaman</text><text class="cls-12" transform="translate(369.21 402.99)">Suc<tspan class="cls-13" x="21.22" y="0">r</tspan><tspan x="25.4" y="0">e</tspan></text><text class="cls-12" transform="translate(39 344.48)">Vic<tspan class="cls-14" x="17.84" y="0">t</tspan><tspan x="21.87" y="0">or </tspan><tspan class="cls-15" x="36.58" y="0">F</tspan><tspan class="cls-16" x="43.39" y="0">aja</tspan><tspan class="cls-13" x="60.27" y="0">r</tspan><tspan x="64.46" y="0">do</tspan></text><text class="cls-12" transform="translate(39.3 391.17)">Huanca Sancos</text><text class="cls-17" transform="translate(54.52 566.91)">L<tspan class="cls-18" x="6.57" y="0">ucanas</tspan></text><text class="cls-19" transform="translate(375.94 447.08)">P<tspan class="cls-16" x="7.96" y="0">arinacochas</tspan></text><text class="cls-12" transform="translate(418.93 566.37)"><tspan class="cls-20">P<tspan class="cls-16" x="7.96" y="0">áucar del</tspan></tspan><tspan x="0" y="15.26">Sa</tspan><tspan class="cls-21" x="14.46" y="15.26">r</tspan><tspan class="cls-16" x="18.52" y="15.26">a Sa</tspan><tspan class="cls-21" x="43.05" y="15.26">r</tspan><tspan x="47.11" y="15.26">a</tspan></text><line class="cls-22" x1="211.83" y1="166.19" x2="213.05" y2="167.77"/><line class="cls-23" x1="215.4" y1="170.83" x2="242.39" y2="206.01"/><line class="cls-22" x1="243.57" y1="207.54" x2="244.78" y2="209.13"/><circle class="cls-24" cx="245.2" cy="209.64" r="1.57"/><circle class="cls-24" cx="211.56" cy="165.85" r="1.57"/><line class="cls-22" x1="302.48" y1="239.87" x2="304.25" y2="238.95"/><line class="cls-23" x1="307.67" y1="237.17" x2="347.01" y2="216.71"/><line class="cls-22" x1="348.72" y1="215.82" x2="350.5" y2="214.9"/><circle class="cls-24" cx="351.07" cy="214.58" r="1.57"/><circle class="cls-24" cx="302.1" cy="240.09" r="1.57"/><line class="cls-22" x1="152.89" y1="303.17" x2="154.31" y2="304.58"/><line class="cls-23" x1="157.05" y1="307.3" x2="188.52" y2="338.54"/><line class="cls-22" x1="189.89" y1="339.89" x2="191.3" y2="341.3"/><circle class="cls-24" cx="191.79" cy="341.75" r="1.57"/><circle class="cls-24" cx="152.57" cy="302.88" r="1.57"/><line class="cls-22" x1="291.58" y1="358.66" x2="293.58" y2="358.7"/><line class="cls-25" x1="297.77" y1="358.77" x2="371.01" y2="360.16"/><line class="cls-22" x1="373.11" y1="360.2" x2="375.11" y2="360.23"/><circle class="cls-24" cx="375.11" cy="360.23" r="1.57"/><circle class="cls-24" cx="291.15" cy="358.66" r="1.57"/><line class="cls-22" x1="312.76" y1="418.72" x2="314.76" y2="418.74"/><line class="cls-26" x1="318.88" y1="418.77" x2="358.01" y2="419.11"/><line class="cls-22" x1="360.07" y1="419.13" x2="362.07" y2="419.15"/><circle class="cls-24" cx="362.56" cy="419.06" r="1.57"/><circle class="cls-24" cx="312.33" cy="418.72" r="1.57"/><line class="cls-22" x1="373.37" y1="564.86" x2="374.91" y2="566.14"/><line class="cls-26" x1="378.08" y1="568.77" x2="408.2" y2="593.76"/><line class="cls-22" x1="409.78" y1="595.07" x2="411.32" y2="596.35"/><circle class="cls-24" cx="411.75" cy="596.59" r="1.57"/><circle class="cls-24" cx="373.03" cy="564.59" r="1.57"/><line class="cls-22" x1="150.62" y1="406.97" x2="152.62" y2="406.95"/><line class="cls-23" x1="156.47" y1="406.91" x2="200.81" y2="406.42"/><line class="cls-22" x1="202.74" y1="406.4" x2="204.74" y2="406.38"/><circle class="cls-24" cx="205.39" cy="406.35" r="1.57"/><circle class="cls-24" cx="150.18" cy="406.99" r="1.57"/><line class="cls-22" x1="147.55" y1="361.21" x2="149.55" y2="361.33"/><line class="cls-23" x1="153.4" y1="361.54" x2="197.67" y2="364.04"/><line class="cls-22" x1="199.59" y1="364.15" x2="201.59" y2="364.26"/><circle class="cls-24" cx="202.25" cy="364.27" r="1.57"/><circle class="cls-24" cx="147.12" cy="361.2" r="1.57"/><line class="cls-22" x1="162.75" y1="581.56" x2="164.44" y2="580.49"/><line class="cls-23" x1="167.69" y1="578.41" x2="205.03" y2="554.5"/><line class="cls-22" x1="206.66" y1="553.47" x2="208.34" y2="552.39"/><circle class="cls-24" cx="208.88" cy="552.01" r="1.57"/><circle class="cls-24" cx="162.4" cy="581.81" r="1.57"/><line class="cls-22" x1="190.93" y1="249.41" x2="192.22" y2="250.93"/><line class="cls-27" x1="194.84" y1="254.03" x2="224.94" y2="289.57"/><line class="cls-22" x1="226.25" y1="291.12" x2="227.54" y2="292.64"/><circle class="cls-24" cx="227.54" cy="292.64" r="1.57"/><circle class="cls-24" cx="190.55" cy="249.2" r="1.57"/><line class="cls-22" x1="312.42" y1="525.61" x2="313.86" y2="524.22"/><line class="cls-25" x1="316.88" y1="521.32" x2="369.65" y2="470.5"/><line class="cls-22" x1="371.16" y1="469.05" x2="372.6" y2="467.66"/><circle class="cls-24" cx="372.6" cy="467.66" r="1.57"/><circle class="cls-24" cx="312.12" cy="525.91" r="1.57"/><text class="cls-1" transform="translate(255.74 228.05)">x5</text><circle class="cls-28" cx="244.89" cy="224.02" r="6.43"/><text class="cls-1" transform="translate(255.74 244.54)">x7</text><circle class="cls-29" cx="244.89" cy="240.51" r="6.43"/><text class="cls-1" transform="translate(246.39 303.32)">x15</text><circle class="cls-28" cx="235.55" cy="299.3" r="6.43"/><text class="cls-1" transform="translate(246.39 319.82)">x6</text><circle class="cls-29" cx="235.55" cy="315.79" r="6.43"/><text class="cls-1" transform="translate(215.61 348.87)">x4</text><circle class="cls-28" cx="204.76" cy="344.85" r="6.43"/><text class="cls-1" transform="translate(224.4 402.77)">x4</text><circle class="cls-28" cx="213.55" cy="398.74" r="6.43"/><circle class="cls-29" cx="213.55" cy="415.24" r="6.43"/><text class="cls-1" transform="translate(224.55 418.93)">x2</text><text class="cls-1" transform="translate(299.78 266.81)">x7</text><circle class="cls-28" cx="288.94" cy="262.78" r="6.43"/><text class="cls-1" transform="translate(299.78 283.3)">x10</text><circle class="cls-29" cx="288.94" cy="279.27" r="6.43"/><text class="cls-1" transform="translate(228.54 523.27)">x3</text><circle class="cls-28" cx="217.69" cy="519.24" r="6.43"/><circle class="cls-29" cx="217.69" cy="535.74" r="6.43"/><text class="cls-1" transform="translate(228.69 539.43)">x3</text><text class="cls-1" transform="translate(319.1 527.29)">x2</text><circle class="cls-28" cx="308.26" cy="523.27" r="6.43"/><circle class="cls-29" cx="308.26" cy="539.76" r="6.43"/><text class="cls-1" transform="translate(319.26 543.46)">x2</text><text class="cls-1" transform="translate(308.01 422.57)">x10</text><circle class="cls-28" cx="297.16" cy="418.54" r="6.43"/><circle class="cls-29" cx="297.16" cy="435.03" r="6.43"/><text class="cls-1" transform="translate(308.16 438.73)">x6</text><text class="cls-1" transform="translate(266.89 384.57)">x6</text><circle class="cls-28" cx="256.05" cy="380.54" r="6.43"/><circle class="cls-29" cx="256.05" cy="397.03" r="6.43"/><text class="cls-1" transform="translate(267.05 400.73)">x6</text><text class="cls-1" transform="translate(301.7 353.93)">x1</text><circle class="cls-28" cx="290.85" cy="349.9" r="6.43"/><circle class="cls-29" cx="290.85" cy="366.39" r="6.43"/><text class="cls-1" transform="translate(301.86 370.09)">x4</text></svg>