<svg id="Capa_1" data-name="Capa 1" xmlns="http://www.w3.org/2000/svg" viewBox="0 0 554 932"><defs><style>.cls-1{fill:#71c2e9;stroke:#377c9c;stroke-width:3px;}.cls-1,.cls-27,.cls-28{stroke-miterlimit:1.75;}.cls-2{font-size:12px;font-family:Roboto-Light, Roboto;font-weight:300;}.cls-15,.cls-2,.cls-3{fill:#1d1d1b;}.cls-3{font-size:15px;font-family:Roboto-Bold, Roboto;font-weight:700;}.cls-4{letter-spacing:-0.02em;}.cls-5{letter-spacing:-0.01em;}.cls-6{letter-spacing:-0.01em;}.cls-7{letter-spacing:-0.01em;}.cls-13,.cls-14,.cls-16,.cls-17,.cls-18,.cls-19,.cls-22,.cls-23,.cls-24,.cls-25,.cls-8{fill:none;}.cls-10,.cls-11,.cls-12,.cls-8,.cls-9{stroke:#262626;stroke-linecap:round;stroke-width:0.5px;}.cls-10,.cls-11,.cls-12,.cls-13,.cls-14,.cls-16,.cls-17,.cls-18,.cls-19,.cls-22,.cls-23,.cls-24,.cls-25,.cls-8,.cls-9{stroke-linejoin:round;}.cls-9{fill:#fab637;}.cls-10{fill:#ffe7a1;}.cls-11{fill:#4ca8de;}.cls-12{fill:#cfcece;}.cls-13,.cls-14,.cls-16,.cls-17,.cls-18,.cls-19,.cls-22,.cls-23,.cls-24,.cls-25{stroke:#0b0c0c;}.cls-14{stroke-dasharray:3.61 3.61;}.cls-16{stroke-dasharray:4.02 4.02;}.cls-17{stroke-dasharray:4.07 4.07;}.cls-18{stroke-dasharray:3.79 3.79;}.cls-19{stroke-dasharray:4.13 4.13;}.cls-20{letter-spacing:-0.01em;}.cls-21{letter-spacing:0.02em;}.cls-22{stroke-dasharray:4.14 4.14;}.cls-23{stroke-dasharray:3.34 3.34;}.cls-24{stroke-dasharray:3.95 3.95;}.cls-25{stroke-dasharray:4 4;}.cls-26{letter-spacing:-0.01em;}.cls-27{fill:#afd28c;stroke:#71915a;isolation:isolate;}.cls-28{fill:#ec6062;stroke:#cc444b;}</style></defs><path class="cls-1" d="M276.47,399.76l3.67-.41-.27,3.54,5.38,3.4,8.89,1.18L291,420.25l-9.35-3.18-19.77,6.25-8.1-4.65.57-7.21,6.24,1.08,11.52-12.29Z"/><path class="cls-1" d="M299.91,430.24l5.59,5.42-1,6.9,7.41.39,2.81,8.12,6.3.82,8.29,9.48,5.88,9.7L332,477.25l-3.14,1-7-6.13-5.44,8-10.63-4.37-3.17-15.62-9-9.21.22-7.47-3.06-1.88,5-12.71Z"/><path class="cls-1" d="M233.21,384.08l14.46,3,.94,4.5L259,394.9l6.54,6.22,6.67-.72-6.9,9.28-10.92,1.78-.66,7,3.63,3.71-10.8,8.4-3.7-3.57-5.73,3-10.19-5.6-2.06-5.91-19.32-4.94-20.16-12.74,24.78-13,2.2,4.44L222.71,389l7.33,2.21-1.18-6.66Z"/><path class="cls-1" d="M266.4,296l7.88,7.11,2.84,8.32-2.52,3.25,6.87,1.8,2,4.23-2.41,1.78,4.9,4.83-1.88,3.8,7.9,11.32-9.74,11.46,5.33,10.51-1.89,3.09,4.72,16.67L302.78,396l-3,2.79,3.26,2.87.7,10.76L300.88,415l-6.47-7.5-9.16-1.21-5.38-3.4.27-3.54-5.72-.74.68-5.25-7.39-7.5-2.21-11.37-8.77-3-6-10.44,2.45-8-6.39-8-9.64-3.32-5.58-10.84-.14-12.22,4.63-5.53L231,308.89l20.34,2.86,5.44-4.06,1.44-8.16Z"/><path class="cls-1" d="M327.1,476.37l2.18,1.95,7.59-3.58L335,480l2.82,6.33,5.54,2.25-.57,5.43,4.72.39-.63,5.59h9.72l-1.11,5.21,5.48,5.79L374.78,516l12.71-6.15-2.89,9.48,2.56,9-3.1-1.07-12.79,8.55-7.22-3.88-3.61,3.79L349.93,537l-3.43-5.11-8.84-1.42-1.24,2.26-13-9.47-11.7-.66,4.34-9.79,6.67-4.45.07-16.1,3.84-1.1-9-13.28,4.26-5.74ZM353,511.65l5.86,7.39,6.77,2.37.18-4.19Z"/><path class="cls-1" d="M380.56,435l8.77,5.78,10.43-1.29-1.9,4.46,5.38,2.58,2.66,6.35L400,465.72l3.64,5.63,4.45.28-3.52,7-7.35,3.51.75,11-3.62,8-8.3,4.3L385.9,511l-11.12,5-15.67-6.19-3.35-10.41-9.05.6,1-5.2-4.8-.56.46-5.58-5.54-2.25L335,480l2.73-4.33-11.37-15.77,12.41-8.81,3.76,2.71,6.1-1.67,3.3-8.7,5.51-1.07,2-4.36,4.49,1,2.19-5.12,6.76,1.93,2.54-3.92Z"/><path class="cls-1" d="M267.81,456.15l11.42,4.43L283.06,475l-1.57,5.25,3.51,4.35,13.74-.14,2,9.27,7.47-1.12-2.25-16.72,15.66,5.35,5.09,10-3.84,1.1-.07,16.1-6.67,4.45-4.56,12.3-11.69,7.93,1.88,3.73-5.28,4.91-10.85,1-1.49,8.91-3.38,0-3.93-6.44,3.29-4.94-8.83-5.39-4.06,7L269.36,556l-2.43,6.56-9.47-6.65-1.64-5.73-19.06,6.35-10.66-.92-8.57-9.41,2.8-15.31-4.64-6.07,7-7.89,21.46-8.86,1.12-6.12,18.31-15.87-2.1-3.82,4.33-5Z"/><path class="cls-1" d="M313.72,522.38l9.74.89,13,9.47,1.24-2.26,9.07,1.51,3.2,5,10.51-1.36,3.83-3.77,7,3.86,7.27,11.86,4.51-1.65,4.23,2.75-3.23,26.37,4.68,24.41-2.55,3.75,3.94,5.95-6.29,3.74-7.5,13.15L364.94,623l2.67-7.71-5.79-12.46,4.69-4.2-2.76-4.27,4.68-5.42-7.19-8-6.55,1.4-6,6.38L334.26,573l-6.49-.47,2.18,9.39-3.1,2.33-6.62-2-4.74,9.44-6.64-6.39-18.42-1.6-1.31-3.34,9.36-4,2.25-7.84-13-6.57-3.4-16.47,4.67-5.15,7.4,1.42,5.28-4.91-1.88-3.73Z"/><path class="cls-1" d="M162.92,153.72l4.53,6.24-3.65,2.73,4.56-.48.14,3.12,3.68-1.34,7.71,5.22,12.23-4.77,2.31,5.45,16.24,5.92,19-13,8-2.88,6.61,3,.11,5.81-5,5.43-1.72,17.35-9.26,7.1-3.9,9.27,6.1,5.83-2.25,4.79,6.62,3.21L234,234l9.13,4.49L242,244l19.6,3.46-1.26,17.28,18,10.39-3.48,7.67-9.43,4.38-1.13,8.31-6.05,4.07-3,9.66L247,312.65l-16.33-3,5.42,3.46-4.63,5.53.87,14.22,4.85,8.84,9.64,3.32,6.39,8-3,9-3-.54-.88,4.89-6.51-4.27-3.72,6.34-7.92,1.4-16.57-10.25-6.85,2.66,5.5,12.61.57,12.79-16.53,9.94-5.85-.6-4.48,4.78-1.32-4.05-9.72-.58-4.6-3.82-19.35,7.41-5.26-3.35-3.48,3.66-1.35-4-11.21-4.92-13.78-18.07-4.46-14.88-4.59-1.42,1.52-7.41-6-1.78,3.83-5.82-3.81-.17L101,339l-6.54-4.58-16.08-25-3.54,1.65L70,307.06l-9.65-23.54L50.9,277l-1.22-10.72,4.89-3.35,4,3,11.32-3.18,11,5.6,5.1,10,6.67,2.9L95.35,269l11.74-4.49,3.19-9.31,9.7-4.64-5.16-2.47.35-7.86-10.4-16.06L95,219.46l.62-10.55L92,198.76l13.18-13.21,4.12-.21-2.94-8.4L121,160.64l31.58-3.27,9.88-8.1Z"/><path class="cls-1" d="M282.17,417.15l13.64,11.7-5,12.71,3.06,1.88-.22,7.47,9,9.21,6.21,24.71-2.16,9.28-7.51-2.1,2.21-.82-2.68-6.78-13.74.14-3.51-4.35,1.57-5.25-3.83-14.37-13.29-5.14-8.54-16.63-11.33-7.46,7.51-8.16Z"/><path class="cls-1" d="M317.61,316.75l9.37,4.9,10.77,16.75,6.45-1.5,9.88,9.19,12.24.48L365,356.5,369.37,374l7.94,5.14-9.94,13.19,1.06,11.53-5.26,5.6-8.58-6.88-11.83-2.14-6.7,8.36-8-7.37-2.73,1.68L327,415l-3.81,2.66-2.6-4.17-6.25.34-3.49,8.41-7.7-7.6-.16-13-3.26-2.87,3-2.92-12.33-11.7-2.94-8.35.11-11.41-5.33-10.51L292,342.46l-10.92-20,11.24-1.33,8.31,6.26,5.86-6.46Z"/><path class="cls-1" d="M403.84,357.9l7.32,4.52,18.35-1,5.62,6.07,17.3,3.36.79,5.09L449.37,379l8.72,5-5.68,1.9L452,392.1l-5.79-.72-2.33,8.4,2.16.9-9.69,9.37-.53,5.22L422.4,424.6l-5.88.19L414.25,433l4.1,7.63-1.16,4.5-6.58-3.24-6.81,1.49-6.45-5.58-3.07,4.07-4.95-1.07-13.9-8.9-2.4,3.87-6.9-1.88L363.94,439l-4.49-1-2,4.36-5.46,1-3.4,8.78-6.05,1.64-3.76-2.71-12.28,7.95L321,451.89l-6.3-.82L311.9,443l-7.37-.35-.09-8.76L291.64,426l-1.83-4.71,4.33-13.78,6.59,7.53,3-2.56,7.16,9.84,3.49-8.41,6.25-.34,2.6,4.17L327,415l-1.64-11.89,2.73-1.68,8,7.37,6.7-8.36,11.83,2.14,8.58,6.88,5.26-5.6-2.08-8.23,4.88-11,6.08-5.45,5.64,1.18,4.13-11,10.1-7.46-1.34-3.78Z"/><path class="cls-1" d="M213.68,360.83l14.46,9.07,7.92-1.4,3.72-6.34,6.51,4.27.88-4.89,3.82-.36,5.74,10.3,8.77,3,2.21,11.37,7.33,7.38,0,4.69-9.57,3.19L259,394.9l-10.37-3.34-.33-4.17-13.9-1.71-2.9-3.35-2.62,2.22,1.34,6.61L222.71,389l-10.56,3.17-1.93-17.25-5.51-12.55Z"/><text class="cls-2" transform="translate(389.75 315.41)">Quispicanchi</text><text class="cls-3" transform="translate(408.28 335.94)"><tspan xml:space="preserve"> 1 p</tspan><tspan class="cls-4" x="24.52" y="0">r</tspan><tspan class="cls-5" x="29.73" y="0">o</tspan><tspan class="cls-6" x="38.1" y="0">y</tspan><tspan x="45.53" y="0">ec</tspan><tspan class="cls-7" x="61.46" y="0">t</tspan><tspan x="66.31" y="0">o</tspan></text><path class="cls-8" d="M397.06,331.41h1.3l.2-1,.17,0a4,4,0,0,0,1-.42l.14-.08.86.52.92-.94-.56-.85.09-.15a3.88,3.88,0,0,0,.4-1l0-.16,1-.24,0-1.32-1-.2,0-.17a4,4,0,0,0-.42-1l-.08-.14.52-.86-.94-.92-.85.55-.14-.08a4.1,4.1,0,0,0-1-.4l-.16,0-.24-1-1.32,0-.2,1-.17,0a4,4,0,0,0-1,.42l-.15.08-.84-.54-.91.95.55.84-.08.15a3.55,3.55,0,0,0-.4,1l0,.16-1,.24,0,1.32,1,.2,0,.17a4.58,4.58,0,0,0,.41,1l.09.14-.53.85.95.92.85-.55.14.08a4.1,4.1,0,0,0,1,.4l.16,0Zm2.58-4.93a2,2,0,1,1-2-2A2,2,0,0,1,399.64,326.48Z"/><path class="cls-8" d="M403.32,337.93h.92l.14-.69.12,0a2.62,2.62,0,0,0,.69-.29l.1-.06.6.37.65-.67-.39-.59.05-.11a2.28,2.28,0,0,0,.28-.69l0-.12.69-.16V334l-.69-.15,0-.11a2.49,2.49,0,0,0-.29-.69l-.06-.1.37-.6-.67-.65-.59.39-.1-.06a3,3,0,0,0-.7-.28l-.12,0-.16-.69h-.93l-.15.69-.11,0a2.49,2.49,0,0,0-.69.29l-.1.06-.59-.38-.65.66.4.6-.06.1a2.23,2.23,0,0,0-.28.7l0,.11-.69.17V335l.69.14,0,.12a2.57,2.57,0,0,0,.29.68l.06.1-.37.61.67.64.59-.39.11.06a2.57,2.57,0,0,0,.69.28l.12,0Zm1.83-3.47a1.42,1.42,0,1,1-1.41-1.41A1.41,1.41,0,0,1,405.15,334.46Z"/><rect class="cls-9" x="395.52" y="324.56" width="2.36" height="11.25" transform="translate(349.67 -183.8) rotate(45)"/><polygon class="cls-10" points="389.75 338.58 391.89 333.32 395.24 336.67 389.75 338.58"/><rect class="cls-9" x="397.19" y="326.23" width="2.36" height="11.25" transform="translate(351.34 -184.5) rotate(45)"/><rect class="cls-11" x="403.03" y="321.81" width="2.7" height="4.73" transform="translate(919.55 267.47) rotate(135)"/><rect class="cls-12" x="401.12" y="323.72" width="2.7" height="4.73" transform="translate(917.64 272.08) rotate(135)"/><text class="cls-2" transform="translate(412.15 464.61)">Canchis</text><text class="cls-3" transform="translate(430.68 485.14)"><tspan xml:space="preserve"> 6 p</tspan><tspan class="cls-4" x="24.52" y="0">r</tspan><tspan class="cls-5" x="29.73" y="0">o</tspan><tspan class="cls-6" x="38.1" y="0">y</tspan><tspan x="45.53" y="0">ec</tspan><tspan class="cls-7" x="61.46" y="0">t</tspan><tspan x="66.31" y="0">os</tspan></text><path class="cls-8" d="M419.45,480.61h1.31l.2-1,.17,0a4,4,0,0,0,1-.42l.14-.08.86.52.92-.94-.56-.85.09-.15a3.88,3.88,0,0,0,.4-1l0-.16,1-.24,0-1.32-1-.2,0-.17a4,4,0,0,0-.42-1l-.08-.14.52-.86-.94-.92-.85.55-.14-.08a4.1,4.1,0,0,0-1-.4l-.16,0-.24-1-1.32,0-.2,1-.17,0a4,4,0,0,0-1,.42l-.15.08-.84-.54-.91.94.55.85-.08.15a3.55,3.55,0,0,0-.4,1l0,.16-1,.24,0,1.32,1,.2,0,.17a3.74,3.74,0,0,0,.41,1l.09.14-.53.85.95.92.85-.55.14.08a4.2,4.2,0,0,0,1,.4l.17,0Zm2.59-4.93a2,2,0,1,1-2-2A2,2,0,0,1,422,475.68Z"/><path class="cls-8" d="M425.72,487.13h.92l.14-.69.12,0a2.62,2.62,0,0,0,.69-.29l.1-.06.6.37.65-.67-.39-.59.05-.11a2.28,2.28,0,0,0,.28-.69l0-.12.69-.16v-.93l-.69-.15,0-.11a2.49,2.49,0,0,0-.29-.69l-.06-.1.37-.6-.67-.65-.59.39-.1-.06a3,3,0,0,0-.7-.28l-.12,0-.16-.69h-.93l-.15.7-.11,0a2.49,2.49,0,0,0-.69.29l-.1.06-.59-.38-.65.66.4.6-.06.1a2.23,2.23,0,0,0-.28.7l0,.11-.69.17v.93l.69.14,0,.12a2.57,2.57,0,0,0,.29.68l.06.1-.37.61.67.64.59-.39.11.06a2.44,2.44,0,0,0,.69.28l.12,0Zm1.83-3.47a1.42,1.42,0,1,1-1.41-1.41A1.41,1.41,0,0,1,427.55,483.66Z"/><rect class="cls-9" x="417.92" y="473.76" width="2.36" height="11.25" transform="translate(461.73 -155.94) rotate(45)"/><polygon class="cls-10" points="412.15 487.78 414.29 482.52 417.63 485.87 412.15 487.78"/><rect class="cls-9" x="419.59" y="475.43" width="2.36" height="11.25" transform="translate(463.4 -156.64) rotate(45)"/><rect class="cls-11" x="425.43" y="471.01" width="2.7" height="4.73" transform="translate(1063.29 506.33) rotate(135)"/><rect class="cls-12" x="423.52" y="472.92" width="2.7" height="4.73" transform="translate(1061.38 510.94) rotate(135)"/><line class="cls-13" x1="408.38" y1="380.46" x2="408.37" y2="378.46"/><line class="cls-14" x1="408.35" y1="374.86" x2="408.2" y2="347.79"/><line class="cls-13" x1="408.19" y1="345.99" x2="408.18" y2="343.99"/><circle class="cls-15" cx="408.15" cy="343.33" r="1.57"/><circle class="cls-15" cx="408.4" cy="380.9" r="1.57"/><text class="cls-2" transform="translate(190.11 621.43)">Chumbivilcas</text><text class="cls-3" transform="translate(208.64 641.96)"><tspan xml:space="preserve"> 3 p</tspan><tspan class="cls-4" x="24.52" y="0">r</tspan><tspan class="cls-5" x="29.73" y="0">o</tspan><tspan class="cls-6" x="38.1" y="0">y</tspan><tspan x="45.53" y="0">ec</tspan><tspan class="cls-7" x="61.46" y="0">t</tspan><tspan x="66.31" y="0">os</tspan></text><path class="cls-8" d="M197.42,637.43h1.3l.2-1,.17,0a4.18,4.18,0,0,0,1-.42l.14-.08.86.52.92-.94-.56-.85.08-.15a3.55,3.55,0,0,0,.4-1l0-.16,1-.24v-1.32l-1-.2,0-.17a3.74,3.74,0,0,0-.41-1l-.08-.14.52-.85-.95-.92-.85.55L200,629a3.68,3.68,0,0,0-1-.4l-.17,0-.23-1-1.32,0-.21,1-.16,0a3.86,3.86,0,0,0-1,.42l-.14.08-.84-.54-.92.94.56.85-.09.15a3.52,3.52,0,0,0-.39,1l0,.16-1,.24v1.32l1,.2,0,.17a4,4,0,0,0,.42,1l.08.14-.52.86.94.92.85-.55.15.08a3.88,3.88,0,0,0,1,.4l.16,0ZM200,632.5a2,2,0,1,1-2-2A2,2,0,0,1,200,632.5Z"/><path class="cls-8" d="M203.69,644h.91l.15-.69.11,0a2.49,2.49,0,0,0,.69-.29l.1-.06.6.37.65-.67-.39-.59.06-.11a2.57,2.57,0,0,0,.28-.69l0-.12.69-.16V640l-.7-.15,0-.11a2.89,2.89,0,0,0-.3-.69l0-.1.36-.6-.66-.65-.6.39-.1-.06a2.63,2.63,0,0,0-.7-.28l-.11,0-.17-.69h-.93l-.14.7-.12,0a3.28,3.28,0,0,0-.69.3l-.1.06-.59-.38-.64.66.39.6-.06.1a2.5,2.5,0,0,0-.28.7l0,.11-.69.17V641l.69.14,0,.12a3,3,0,0,0,.29.68l.06.1-.37.61.67.64.6-.39.1.06a2.5,2.5,0,0,0,.7.28l.11,0Zm1.82-3.47a1.41,1.41,0,1,1-1.41-1.41A1.41,1.41,0,0,1,205.51,640.48Z"/><rect class="cls-9" x="195.88" y="630.58" width="2.36" height="11.25" transform="translate(507.58 46.99) rotate(45)"/><polygon class="cls-10" points="190.11 644.6 192.25 639.34 195.6 642.69 190.11 644.6"/><rect class="cls-9" x="197.56" y="632.25" width="2.36" height="11.25" transform="translate(509.25 46.3) rotate(45)"/><rect class="cls-11" x="203.39" y="627.83" width="2.7" height="4.73" transform="translate(795.14 931.04) rotate(135)"/><rect class="cls-12" x="201.49" y="629.74" width="2.7" height="4.73" transform="translate(793.23 935.65) rotate(135)"/><line class="cls-13" x1="245.27" y1="608.58" x2="245.26" y2="606.58"/><line class="cls-16" x1="245.25" y1="602.55" x2="245.08" y2="548.25"/><line class="cls-13" x1="245.07" y1="546.24" x2="245.06" y2="544.24"/><circle class="cls-15" cx="245.04" cy="543.59" r="1.57"/><circle class="cls-15" cx="245.29" cy="609.01" r="1.57"/><text class="cls-2" transform="translate(257.82 697.64)">Acom<tspan class="cls-5" x="31.03" y="0">ay</tspan><tspan x="42.98" y="0">o</tspan></text><text class="cls-3" transform="translate(276.35 718.16)"><tspan xml:space="preserve"> 0 p</tspan><tspan class="cls-4" x="24.52" y="0">r</tspan><tspan class="cls-5" x="29.73" y="0">o</tspan><tspan class="cls-6" x="38.1" y="0">y</tspan><tspan x="45.53" y="0">ec</tspan><tspan class="cls-7" x="61.46" y="0">t</tspan><tspan x="66.31" y="0">os</tspan></text><path class="cls-8" d="M265.13,713.63h1.3l.21-1,.16,0a3.48,3.48,0,0,0,1-.41l.14-.08.86.52.92-.95-.56-.84.09-.15a3.65,3.65,0,0,0,.39-1l0-.17,1-.23V708l-1-.21,0-.16a3.86,3.86,0,0,0-.42-1l-.08-.14.52-.86-.95-.92-.84.56-.15-.09a3.65,3.65,0,0,0-1-.39l-.16,0-.24-1H265l-.2,1-.17.05a3.74,3.74,0,0,0-1,.41l-.14.08-.84-.53-.92.94.56.85-.08.14a3.38,3.38,0,0,0-.4,1l0,.17-1,.23v1.32l1,.21.05.16a3.61,3.61,0,0,0,.41,1l.08.14-.52.86.95.92.84-.56.15.09a3.65,3.65,0,0,0,1,.39l.16,0Zm2.59-4.92a2,2,0,1,1-2-2A2,2,0,0,1,267.72,708.71Z"/><path class="cls-8" d="M271.4,720.15h.92l.14-.69.12,0a3,3,0,0,0,.68-.3l.1,0,.61.36.64-.66-.39-.6.06-.1a2.63,2.63,0,0,0,.28-.7l0-.11.69-.17v-.93l-.69-.14,0-.12a3.2,3.2,0,0,0-.29-.69l-.06-.09.37-.61-.67-.65-.6.4-.1-.06a2.5,2.5,0,0,0-.7-.28l-.11,0-.17-.69h-.93l-.14.69-.12,0a2.57,2.57,0,0,0-.68.29l-.1.06-.6-.38-.64.67.39.59-.06.1a2.63,2.63,0,0,0-.28.7l0,.12-.69.16v.93l.7.15,0,.11a2.49,2.49,0,0,0,.29.69l.05.1-.36.6.66.65.6-.39.1.06a2.6,2.6,0,0,0,.7.27l.11,0Zm1.82-3.46a1.41,1.41,0,1,1-1.41-1.41A1.41,1.41,0,0,1,273.22,716.69Z"/><rect class="cls-9" x="263.6" y="706.78" width="2.36" height="11.25" transform="translate(581.3 21.43) rotate(45)"/><polygon class="cls-10" points="257.82 720.8 259.97 715.55 263.31 718.89 257.82 720.8"/><rect class="cls-9" x="265.27" y="708.46" width="2.36" height="11.25" transform="translate(582.97 20.74) rotate(45)"/><rect class="cls-11" x="271.11" y="704.04" width="2.7" height="4.73" transform="translate(964.61 1013.25) rotate(135)"/><rect class="cls-12" x="269.2" y="705.95" width="2.7" height="4.73" transform="translate(962.71 1017.86) rotate(135)"/><line class="cls-13" x1="314.48" y1="693.28" x2="314.48" y2="691.28"/><line class="cls-17" x1="314.48" y1="687.21" x2="314.28" y2="477.61"/><line class="cls-13" x1="314.28" y1="475.57" x2="314.28" y2="473.57"/><circle class="cls-15" cx="314.25" cy="472.91" r="1.57"/><circle class="cls-15" cx="314.5" cy="693.71" r="1.57"/><text class="cls-2" transform="translate(253.95 173.69)">La Con<tspan class="cls-6" x="36.77" y="0">v</tspan><tspan x="42.47" y="0">ención</tspan></text><text class="cls-3" transform="translate(272.48 194.22)"><tspan xml:space="preserve"> 4 p</tspan><tspan class="cls-4" x="24.52" y="0">r</tspan><tspan class="cls-5" x="29.73" y="0">o</tspan><tspan class="cls-6" x="38.1" y="0">y</tspan><tspan x="45.53" y="0">ec</tspan><tspan class="cls-7" x="61.46" y="0">t</tspan><tspan x="66.31" y="0">os</tspan></text><path class="cls-8" d="M261.25,189.69h1.31l.2-1,.17,0a4,4,0,0,0,1-.42l.14-.08.86.52.92-.94-.56-.85.09-.15a3.88,3.88,0,0,0,.4-1l0-.16,1-.24,0-1.32-1-.2,0-.17a4,4,0,0,0-.42-1l-.08-.14.52-.86-.94-.92-.85.56-.14-.09a4.1,4.1,0,0,0-1-.4l-.16,0-.24-1-1.32,0-.2,1-.17,0a4,4,0,0,0-1,.42l-.15.08-.84-.54-.91.95.55.84-.08.15a3.55,3.55,0,0,0-.4,1l0,.16-1,.24,0,1.32,1,.2,0,.17a3.74,3.74,0,0,0,.41,1l.09.14-.53.85.95.92.85-.55.14.08a3.81,3.81,0,0,0,1,.4l.17,0Zm2.59-4.93a2,2,0,1,1-2-2A2,2,0,0,1,263.84,184.76Z"/><path class="cls-8" d="M267.52,196.21h.92l.14-.69.12,0a2.62,2.62,0,0,0,.69-.29l.1-.06.6.37.65-.67-.39-.59,0-.11a2.28,2.28,0,0,0,.28-.69l0-.12.69-.16v-.93l-.69-.15,0-.11a2.49,2.49,0,0,0-.29-.69l-.06-.1.37-.6-.67-.65-.59.39-.1-.06a3,3,0,0,0-.7-.28l-.12,0-.16-.69h-.93l-.15.69-.11,0a2.49,2.49,0,0,0-.69.29l-.1.06-.59-.38-.65.66.4.6-.06.1a2.23,2.23,0,0,0-.28.7l0,.11-.69.17v.93l.69.14,0,.12a2.57,2.57,0,0,0,.29.68l.06.1-.37.61.67.64.59-.39.11.06a2.44,2.44,0,0,0,.69.28l.12,0Zm1.83-3.47a1.42,1.42,0,1,1-1.41-1.41A1.41,1.41,0,0,1,269.35,192.74Z"/><rect class="cls-9" x="259.72" y="182.84" width="2.36" height="11.25" transform="translate(209.68 -129.29) rotate(45)"/><polygon class="cls-10" points="253.95 196.86 256.09 191.6 259.44 194.95 253.95 196.86"/><rect class="cls-9" x="261.39" y="184.51" width="2.36" height="11.25" transform="translate(211.35 -129.98) rotate(45)"/><rect class="cls-11" x="267.23" y="180.1" width="2.7" height="4.73" transform="translate(587.51 121.56) rotate(135)"/><rect class="cls-12" x="265.32" y="182" width="2.7" height="4.73" transform="translate(585.6 126.17) rotate(135)"/><line class="cls-13" x1="223.61" y1="244.15" x2="224.85" y2="242.58"/><line class="cls-18" x1="227.19" y1="239.6" x2="254.17" y2="205.36"/><line class="cls-13" x1="255.35" y1="203.87" x2="256.58" y2="202.3"/><circle class="cls-15" cx="256.77" cy="202.3" r="1.57"/><circle class="cls-15" cx="223.38" cy="244.52" r="1.57"/><text class="cls-2" transform="translate(326.83 213.38)">Calca</text><text class="cls-3" transform="translate(345.36 233.9)"><tspan xml:space="preserve"> 4 p</tspan><tspan class="cls-4" x="24.52" y="0">r</tspan><tspan class="cls-5" x="29.73" y="0">o</tspan><tspan class="cls-6" x="38.1" y="0">y</tspan><tspan x="45.53" y="0">ec</tspan><tspan class="cls-7" x="61.46" y="0">t</tspan><tspan x="66.31" y="0">os</tspan></text><path class="cls-8" d="M334.14,229.37h1.3l.21-1,.16,0a3.74,3.74,0,0,0,1-.41l.14-.08.86.52.92-.95-.56-.84.08-.15a3.68,3.68,0,0,0,.4-1l0-.17,1-.23v-1.32l-1-.21-.05-.16a3.61,3.61,0,0,0-.41-1l-.08-.14.52-.86-.95-.92-.84.56-.15-.09a3.65,3.65,0,0,0-1-.39l-.16,0-.24-1H334l-.21,1-.16.05a3.61,3.61,0,0,0-1,.41l-.14.08-.84-.53-.92.94.56.85-.09.14a3.65,3.65,0,0,0-.39,1l0,.17-1,.23v1.32l1,.21,0,.16a3.86,3.86,0,0,0,.42,1l.08.14-.52.86.95.92.84-.56.15.09a3.52,3.52,0,0,0,1,.39l.16,0Zm2.59-4.92a2,2,0,1,1-2-2A2,2,0,0,1,336.73,224.45Z"/><path class="cls-8" d="M340.41,235.89h.92l.14-.69.12,0a3,3,0,0,0,.68-.3l.1,0,.6.36.65-.66-.39-.6.06-.1a2.63,2.63,0,0,0,.28-.7l0-.11.69-.17v-.93l-.69-.14,0-.12a3.28,3.28,0,0,0-.3-.69l-.05-.09.36-.61-.66-.65-.6.4-.1-.06a2.5,2.5,0,0,0-.7-.28l-.11,0-.17-.69h-.93l-.14.69-.12,0a2.77,2.77,0,0,0-.69.29l-.1.06-.59-.38-.64.67.39.59-.06.1a2.63,2.63,0,0,0-.28.7l0,.12-.69.16v.93l.69.15,0,.11a2.89,2.89,0,0,0,.3.69l.05.1-.36.6.66.65.6-.39.1.06a2.85,2.85,0,0,0,.7.28l.11,0Zm1.82-3.46a1.41,1.41,0,1,1-1.41-1.41A1.41,1.41,0,0,1,342.23,232.43Z"/><rect class="cls-9" x="332.61" y="222.52" width="2.36" height="11.25" transform="translate(259.09 -169.2) rotate(45)"/><polygon class="cls-10" points="326.83 236.54 328.98 231.29 332.32 234.63 326.83 236.54"/><rect class="cls-9" x="334.28" y="224.2" width="2.36" height="11.25" transform="translate(260.76 -169.89) rotate(45)"/><rect class="cls-11" x="340.11" y="219.78" width="2.7" height="4.73" transform="translate(740 137.77) rotate(135)"/><rect class="cls-12" x="338.21" y="221.69" width="2.7" height="4.73" transform="translate(738.09 142.38) rotate(135)"/><line class="cls-13" x1="275.76" y1="304.56" x2="277.07" y2="303.05"/><line class="cls-19" x1="279.76" y1="299.91" x2="326.82" y2="245.07"/><line class="cls-13" x1="328.17" y1="243.5" x2="329.47" y2="241.98"/><circle class="cls-15" cx="329.65" cy="241.98" r="1.57"/><circle class="cls-15" cx="275.53" cy="304.93" r="1.57"/><text class="cls-2" transform="translate(346.31 268.73)"><tspan class="cls-20">P</tspan><tspan x="7.32" y="0">auca</tspan><tspan class="cls-21" x="32.95" y="0">r</tspan><tspan x="37.28" y="0">tambo</tspan></text><text class="cls-3" transform="translate(364.84 289.26)"><tspan xml:space="preserve"> 0 p</tspan><tspan class="cls-4" x="24.52" y="0">r</tspan><tspan class="cls-5" x="29.73" y="0">o</tspan><tspan class="cls-6" x="38.1" y="0">y</tspan><tspan x="45.53" y="0">ec</tspan><tspan class="cls-7" x="61.46" y="0">t</tspan><tspan x="66.31" y="0">os</tspan></text><path class="cls-8" d="M353.62,284.73h1.3l.21-1,.16,0a4,4,0,0,0,1-.42l.14-.08.86.52.92-1-.56-.84.08-.15a3.27,3.27,0,0,0,.4-1l0-.16,1-.24v-1.32l-1-.2-.05-.17a3.74,3.74,0,0,0-.41-1l-.08-.14.52-.85-.95-.93-.84.56-.15-.08a3.68,3.68,0,0,0-1-.4l-.16,0-.24-1h-1.32l-.21,1-.16,0a3.74,3.74,0,0,0-1,.41l-.14.09-.84-.54-.92.94.56.85-.09.14a3.71,3.71,0,0,0-.39,1l0,.16-1,.24v1.32l1,.2,0,.17a4,4,0,0,0,.42,1l.08.14-.52.86.95.92.84-.56.15.09a3.88,3.88,0,0,0,1,.4l.16,0Zm2.59-4.93a2,2,0,1,1-2-2A2,2,0,0,1,356.21,279.8Z"/><path class="cls-8" d="M359.89,291.25h.92l.14-.69.12,0a2.57,2.57,0,0,0,.68-.29l.1-.06.61.37.64-.67-.39-.59.06-.11a2.5,2.5,0,0,0,.28-.7l0-.11.69-.17v-.93l-.69-.14,0-.12a2.62,2.62,0,0,0-.3-.68l-.05-.1.36-.61-.66-.64-.6.39-.1-.06a2.5,2.5,0,0,0-.7-.28l-.11,0-.17-.69h-.93l-.14.69-.12,0a2.62,2.62,0,0,0-.68.3l-.11.05-.59-.37-.64.66.39.59-.06.11a2.57,2.57,0,0,0-.28.69l0,.12-.69.17v.93l.69.14,0,.12a3,3,0,0,0,.3.68l.05.1-.36.6.66.65.6-.39.1.06a2.5,2.5,0,0,0,.7.28l.11,0Zm1.82-3.47a1.41,1.41,0,1,1-1.41-1.41A1.41,1.41,0,0,1,361.71,287.78Z"/><rect class="cls-9" x="352.09" y="277.88" width="2.36" height="11.25" transform="translate(303.94 -166.76) rotate(45)"/><polygon class="cls-10" points="346.31 291.89 348.46 286.64 351.8 289.99 346.31 291.89"/><rect class="cls-9" x="353.76" y="279.55" width="2.36" height="11.25" transform="translate(305.61 -167.46) rotate(45)"/><rect class="cls-11" x="359.6" y="275.13" width="2.7" height="4.73" transform="translate(812.39 218.49) rotate(135)"/><rect class="cls-12" x="357.69" y="277.04" width="2.7" height="4.73" transform="translate(810.48 223.1) rotate(135)"/><line class="cls-13" x1="315.97" y1="339.19" x2="317.21" y2="337.62"/><line class="cls-18" x1="319.56" y1="334.64" x2="346.54" y2="300.4"/><line class="cls-13" x1="347.71" y1="298.91" x2="348.95" y2="297.34"/><circle class="cls-15" cx="349.13" cy="297.34" r="1.57"/><circle class="cls-15" cx="315.74" cy="339.55" r="1.57"/><text class="cls-2" transform="translate(60.42 415.03)">Anta</text><text class="cls-3" transform="translate(82.16 436.66)">5 p<tspan class="cls-4" x="20.79" y="0">r</tspan><tspan class="cls-5" x="25.99" y="0">o</tspan><tspan class="cls-6" x="34.37" y="0">y</tspan><tspan x="41.8" y="0">ec</tspan><tspan class="cls-7" x="57.73" y="0">t</tspan><tspan x="62.58" y="0">os</tspan></text><path class="cls-8" d="M66.77,428.53h1.3l.21-1,.16,0a3.61,3.61,0,0,0,1-.41l.14-.08.86.52.92-1-.56-.85.08-.14a3.49,3.49,0,0,0,.4-1l0-.17,1-.23v-1.32l-1-.21-.05-.16a3.48,3.48,0,0,0-.41-1l-.08-.14.52-.86-1-.92-.84.56-.15-.09a3.65,3.65,0,0,0-1-.39l-.16,0-.24-1H66.62l-.21,1-.16,0a4.18,4.18,0,0,0-1,.42l-.14.08-.84-.54-.92.95.56.84-.09.15a3.65,3.65,0,0,0-.39,1l0,.16-1,.24v1.32l1,.21,0,.16a4,4,0,0,0,.42,1l.08.14-.52.86,1,.92.84-.56.15.08a3.55,3.55,0,0,0,1,.4l.16,0Zm2.59-4.93a2,2,0,1,1-2-2A2,2,0,0,1,69.36,423.6Z"/><path class="cls-8" d="M73,435.05H74l.14-.69.12,0a2.57,2.57,0,0,0,.68-.29L75,434l.61.36.64-.66-.39-.6.06-.1a2.63,2.63,0,0,0,.28-.7l0-.11.69-.17v-.93l-.69-.14,0-.12a2.83,2.83,0,0,0-.3-.69l0-.1.36-.6-.66-.65-.6.4-.1-.06a2.23,2.23,0,0,0-.7-.28l-.11,0-.17-.69h-.93l-.14.69-.12,0a2.57,2.57,0,0,0-.68.29l-.11.06-.59-.38-.64.67.39.59-.06.1a2.63,2.63,0,0,0-.28.7l0,.11-.69.17v.93l.69.14,0,.12a3.07,3.07,0,0,0,.3.69l0,.1-.36.6.66.65L72,434l.1.05a2.23,2.23,0,0,0,.7.28l.11,0Zm1.82-3.46a1.41,1.41,0,1,1-1.41-1.41A1.41,1.41,0,0,1,74.86,431.59Z"/><rect class="cls-9" x="65.24" y="421.68" width="2.36" height="11.25" transform="translate(321.6 78.19) rotate(45)"/><polygon class="cls-10" points="59.46 435.7 61.61 430.45 64.95 433.79 59.46 435.7"/><rect class="cls-9" x="66.91" y="423.35" width="2.36" height="11.25" transform="translate(323.28 77.5) rotate(45)"/><rect class="cls-11" x="72.75" y="418.94" width="2.7" height="4.73" transform="translate(424.39 666.82) rotate(135)"/><rect class="cls-12" x="70.84" y="420.85" width="2.7" height="4.73" transform="translate(422.49 671.42) rotate(135)"/><line class="cls-13" x1="91.05" y1="411.99" x2="93.05" y2="411.98"/><line class="cls-22" x1="97.19" y1="411.96" x2="202.76" y2="411.59"/><line class="cls-13" x1="204.83" y1="411.58" x2="206.83" y2="411.57"/><circle class="cls-15" cx="207.49" cy="411.55" r="1.57"/><circle class="cls-15" cx="90.62" cy="412" r="1.57"/><line class="cls-13" x1="379.06" y1="528.41" x2="381.06" y2="528.37"/><line class="cls-23" x1="384.4" y1="528.31" x2="396.09" y2="528.07"/><line class="cls-13" x1="397.76" y1="528.04" x2="399.76" y2="528"/><circle class="cls-15" cx="400.42" cy="527.97" r="1.57"/><circle class="cls-15" cx="378.62" cy="528.43" r="1.57"/><line class="cls-13" x1="374.8" y1="558.42" x2="376.8" y2="558.38"/><line class="cls-23" x1="380.14" y1="558.31" x2="391.83" y2="558.08"/><line class="cls-13" x1="393.5" y1="558.05" x2="395.5" y2="558.01"/><circle class="cls-15" cx="396.16" cy="557.98" r="1.57"/><circle class="cls-15" cx="374.36" cy="558.44" r="1.57"/><line class="cls-13" x1="388.38" y1="482.46" x2="390.38" y2="482.42"/><line class="cls-23" x1="393.72" y1="482.36" x2="405.41" y2="482.12"/><line class="cls-13" x1="407.08" y1="482.09" x2="409.08" y2="482.05"/><circle class="cls-15" cx="409.74" cy="482.02" r="1.57"/><circle class="cls-15" cx="387.95" cy="482.48" r="1.57"/><line class="cls-13" x1="89.23" y1="367.47" x2="91.23" y2="367.46"/><line class="cls-24" x1="95.18" y1="367.45" x2="211.62" y2="367.07"/><line class="cls-13" x1="213.6" y1="367.06" x2="215.6" y2="367.05"/><circle class="cls-15" cx="216.26" cy="367.03" r="1.57"/><circle class="cls-15" cx="88.8" cy="367.48" r="1.57"/><text class="cls-2" transform="translate(25.77 370.78)">Urubamba</text><text class="cls-3" transform="translate(44.29 391.24)"><tspan xml:space="preserve"> 2 p</tspan><tspan class="cls-4" x="24.52" y="0">r</tspan><tspan class="cls-5" x="29.73" y="0">o</tspan><tspan class="cls-6" x="38.1" y="0">y</tspan><tspan x="45.53" y="0">ec</tspan><tspan class="cls-7" x="61.46" y="0">t</tspan><tspan x="66.31" y="0">os</tspan></text><path class="cls-8" d="M33.07,386.77h1.31l.2-1,.16,0a3.48,3.48,0,0,0,1-.41l.14-.08.86.52.92-.95-.56-.84.09-.15a3.65,3.65,0,0,0,.39-1l0-.16,1-.24v-1.32l-1-.21,0-.16a4,4,0,0,0-.42-1l-.08-.14.52-.86-1-.92-.84.56-.15-.08a3.27,3.27,0,0,0-1-.4l-.16,0-.24-1H32.92l-.2,1-.17,0a3.74,3.74,0,0,0-1,.41l-.14.08-.84-.53-.92.94.56.85-.08.14a3.68,3.68,0,0,0-.4,1l0,.17-1,.23v1.32l1,.21,0,.16a3.48,3.48,0,0,0,.41,1l.08.14-.52.86,1,.92.84-.56.15.09a3.65,3.65,0,0,0,1,.39l.17,0Zm2.59-4.92a2,2,0,1,1-2-2A2,2,0,0,1,35.66,381.85Z"/><path class="cls-8" d="M39.34,393.29h.92l.14-.68.12,0a3.28,3.28,0,0,0,.69-.3l.09,0,.61.36.65-.66-.4-.6.06-.1a2.5,2.5,0,0,0,.28-.7l0-.11.69-.17v-.93l-.69-.14,0-.12a2.77,2.77,0,0,0-.29-.69l-.06-.09.37-.61-.67-.65-.59.4-.11-.06a2.57,2.57,0,0,0-.69-.28l-.12,0-.17-.69h-.93l-.14.69-.12,0a2.57,2.57,0,0,0-.68.29l-.1.06-.59-.38-.65.67.39.59-.06.1a3,3,0,0,0-.28.7l0,.12-.69.16v.93l.69.15,0,.11a2.49,2.49,0,0,0,.29.69l.06.1L37,392l.66.65.6-.39.1.06a3,3,0,0,0,.7.28l.11,0Zm1.82-3.46a1.41,1.41,0,1,1-1.41-1.41A1.41,1.41,0,0,1,41.16,389.83Z"/><rect class="cls-9" x="31.54" y="379.92" width="2.36" height="11.25" transform="translate(282.21 89.79) rotate(45)"/><polygon class="cls-10" points="25.77 393.94 27.91 388.69 31.25 392.03 25.77 393.94"/><rect class="cls-9" x="33.21" y="381.6" width="2.36" height="11.25" transform="translate(283.88 89.09) rotate(45)"/><rect class="cls-11" x="39.05" y="377.18" width="2.7" height="4.73" transform="translate(337.34 619.36) rotate(135)"/><rect class="cls-12" x="37.14" y="379.09" width="2.7" height="4.73" transform="translate(335.43 623.97) rotate(135)"/><text class="cls-2" transform="translate(47.9 508.21)">Cusco</text><text class="cls-3" transform="translate(66.43 528.74)"><tspan xml:space="preserve"> 2 p</tspan><tspan class="cls-4" x="24.52" y="0">r</tspan><tspan class="cls-5" x="29.73" y="0">o</tspan><tspan class="cls-6" x="38.1" y="0">y</tspan><tspan x="45.53" y="0">ec</tspan><tspan class="cls-7" x="61.46" y="0">t</tspan><tspan x="66.31" y="0">os</tspan></text><path class="cls-8" d="M55.21,524.21h1.3l.2-1,.17,0a4.18,4.18,0,0,0,1-.42l.14-.08.85.52.93-.94-.56-.85.08-.14a3.74,3.74,0,0,0,.4-1l0-.16,1-.24v-1.32l-1-.2,0-.17a3.55,3.55,0,0,0-.41-1l-.08-.14.52-.86-1-.92-.85.56-.14-.09a4.2,4.2,0,0,0-1-.4l-.17,0-.23-1-1.32,0-.21,1-.16,0a3.86,3.86,0,0,0-1,.42l-.15.08-.84-.54-.91.95.56.84-.09.15a3.88,3.88,0,0,0-.4,1l0,.16-1,.24,0,1.32,1,.2,0,.17a4.18,4.18,0,0,0,.42,1l.08.14-.52.85.94.92.85-.55.15.08a3.55,3.55,0,0,0,1,.4l.16,0Zm2.59-4.93a2,2,0,1,1-2-2A2,2,0,0,1,57.8,519.28Z"/><path class="cls-8" d="M61.48,530.73h.91l.15-.69.11,0a2.49,2.49,0,0,0,.69-.29l.1-.06.6.37.65-.67-.39-.59.06-.1a3,3,0,0,0,.28-.7l0-.12.69-.16v-.93l-.69-.15,0-.11a2.49,2.49,0,0,0-.29-.69l0-.1.36-.6-.66-.65-.6.39-.1-.06a3,3,0,0,0-.7-.28l-.11,0-.17-.69h-.93l-.14.69-.12,0a2.77,2.77,0,0,0-.69.29l-.1.06-.59-.38-.64.66.39.6-.06.1a2.5,2.5,0,0,0-.28.7l0,.11-.69.17v.93l.69.14,0,.12a2.77,2.77,0,0,0,.29.69l.06.09-.37.61.67.65.59-.4.11.06a2.5,2.5,0,0,0,.7.28l.11,0Zm1.82-3.47a1.41,1.41,0,1,1-1.41-1.41A1.41,1.41,0,0,1,63.3,527.26Z"/><rect class="cls-9" x="53.67" y="517.36" width="2.36" height="11.25" transform="translate(385.87 114.39) rotate(45)"/><polygon class="cls-10" points="47.9 531.38 50.04 526.13 53.39 529.47 47.9 531.38"/><rect class="cls-9" x="55.35" y="519.03" width="2.36" height="11.25" transform="translate(387.54 113.7) rotate(45)"/><rect class="cls-11" x="61.18" y="514.62" width="2.7" height="4.73" transform="translate(472.31 838.32) rotate(135)"/><rect class="cls-12" x="59.27" y="516.52" width="2.7" height="4.73" transform="translate(470.4 842.93) rotate(135)"/><line class="cls-13" x1="155.41" y1="523.87" x2="156.82" y2="522.46"/><line class="cls-25" x1="159.65" y1="519.62" x2="259.89" y2="418.83"/><line class="cls-13" x1="261.3" y1="417.41" x2="262.71" y2="415.99"/><circle class="cls-15" cx="263.16" cy="415.51" r="1.57"/><circle class="cls-15" cx="155.12" cy="524.19" r="1.57"/><text class="cls-2" transform="translate(101.77 555.6)"><tspan class="cls-20">P</tspan><tspan x="7.32" y="0">aru</tspan><tspan class="cls-26" x="24.38" y="0">r</tspan><tspan x="28.3" y="0">o</tspan></text><text class="cls-3" transform="translate(120.3 576.13)"><tspan xml:space="preserve"> 2 p</tspan><tspan class="cls-4" x="24.52" y="0">r</tspan><tspan class="cls-5" x="29.73" y="0">o</tspan><tspan class="cls-6" x="38.1" y="0">y</tspan><tspan x="45.53" y="0">ec</tspan><tspan class="cls-7" x="61.46" y="0">t</tspan><tspan x="66.31" y="0">os</tspan></text><path class="cls-8" d="M109.08,571.6h1.31l.2-1,.16,0a3.86,3.86,0,0,0,1-.42l.14-.08.86.53.92-1-.56-.85.09-.14a3.71,3.71,0,0,0,.39-1l0-.16,1-.23V566l-1-.2,0-.17a4,4,0,0,0-.42-1l-.08-.14.52-.86-1-.92-.84.56-.15-.09a3.52,3.52,0,0,0-1-.39l-.16,0-.24-1h-1.32l-.2,1-.17,0a4.18,4.18,0,0,0-1,.42l-.14.08-.84-.54-.92,1,.56.84-.08.15a3.68,3.68,0,0,0-.4,1l0,.16-1,.24v1.32l1,.2,0,.17a3.74,3.74,0,0,0,.41,1l.08.14-.52.86,1,.92.84-.56.15.08a3.68,3.68,0,0,0,1,.4l.16,0Zm2.59-4.93a2,2,0,1,1-2-2A2,2,0,0,1,111.67,566.67Z"/><path class="cls-8" d="M115.35,578.12h.92l.14-.69.12,0a2.77,2.77,0,0,0,.69-.29l.09-.06.61.37.64-.67-.39-.59.06-.1a2.63,2.63,0,0,0,.28-.7l0-.12.69-.16v-.93l-.69-.14,0-.12a2.62,2.62,0,0,0-.29-.69l-.06-.1.37-.6-.67-.65-.59.39-.11-.06a2.48,2.48,0,0,0-.7-.27l-.11,0-.17-.69h-.93l-.14.69-.12,0a2.57,2.57,0,0,0-.68.29l-.1.06-.59-.38-.65.66.39.6-.06.1a3,3,0,0,0-.28.7l0,.11-.69.17v.93l.69.14,0,.12a2.77,2.77,0,0,0,.29.69l.06.1-.37.6.66.65.6-.4.1.06a2.63,2.63,0,0,0,.7.28l.11,0Zm1.82-3.47a1.41,1.41,0,1,1-1.41-1.41A1.42,1.42,0,0,1,117.17,574.65Z"/><rect class="cls-9" x="107.55" y="564.75" width="2.36" height="11.25" transform="translate(435.16 90.17) rotate(45)"/><polygon class="cls-10" points="101.77 578.77 103.92 573.52 107.26 576.86 101.77 578.77"/><rect class="cls-9" x="109.22" y="566.42" width="2.36" height="11.25" transform="translate(436.83 89.48) rotate(45)"/><rect class="cls-11" x="115.06" y="562.01" width="2.7" height="4.73" transform="translate(597.79 881.13) rotate(135)"/><rect class="cls-12" x="113.15" y="563.92" width="2.7" height="4.73" transform="translate(595.88 885.74) rotate(135)"/><text class="cls-2" transform="translate(400.7 564.3)">Espinar</text><text class="cls-3" transform="translate(419.23 584.82)"><tspan xml:space="preserve"> 0 p</tspan><tspan class="cls-4" x="24.52" y="0">r</tspan><tspan class="cls-5" x="29.73" y="0">o</tspan><tspan class="cls-6" x="38.1" y="0">y</tspan><tspan x="45.53" y="0">ec</tspan><tspan class="cls-7" x="61.46" y="0">t</tspan><tspan x="66.31" y="0">os</tspan></text><path class="cls-8" d="M408,580.3h1.31l.2-1,.17-.05a3.55,3.55,0,0,0,1-.41l.14-.08.86.52.92-.95-.56-.84.09-.15a3.65,3.65,0,0,0,.39-1l0-.16,1-.24v-1.32l-1-.21,0-.16a4,4,0,0,0-.42-1l-.08-.14.52-.86-.95-.92-.84.56-.15-.08a3.27,3.27,0,0,0-1-.4l-.16,0-.24-1h-1.32l-.2,1-.17.05a3.74,3.74,0,0,0-1,.41l-.14.08-.84-.53-.92.94.56.85-.08.14a3.81,3.81,0,0,0-.4,1l0,.17-1,.23v1.32l1,.21,0,.16a3.48,3.48,0,0,0,.41,1l.08.14-.52.86.95.92.85-.56.14.09a3.65,3.65,0,0,0,1,.39l.17,0Zm2.59-4.93a2,2,0,1,1-2-2A2,2,0,0,1,410.59,575.37Z"/><path class="cls-8" d="M414.27,586.82h.92l.14-.69.12,0a2.83,2.83,0,0,0,.69-.3l.09,0,.61.36.65-.66-.4-.6.06-.1a2.5,2.5,0,0,0,.28-.7l0-.11.69-.17v-.93l-.69-.14,0-.12a2.77,2.77,0,0,0-.29-.69l-.06-.09.37-.61-.67-.64-.59.39-.11-.06a2.57,2.57,0,0,0-.69-.28l-.12,0-.17-.69h-.92l-.15.69-.11,0a2.49,2.49,0,0,0-.69.29l-.1.06-.59-.38-.65.67.39.59-.06.11a2.94,2.94,0,0,0-.28.69l0,.12-.69.16v.93l.69.15,0,.11a2.49,2.49,0,0,0,.29.69l.06.1-.37.6.67.65.59-.39.1.06a3,3,0,0,0,.7.28l.12,0Zm1.82-3.47a1.41,1.41,0,1,1-1.41-1.41A1.41,1.41,0,0,1,416.09,583.35Z"/><rect class="cls-9" x="406.47" y="573.44" width="2.36" height="11.25" transform="translate(528.86 -118.65) rotate(45)"/><polygon class="cls-10" points="400.69 587.46 402.84 582.21 406.18 585.55 400.69 587.46"/><rect class="cls-9" x="408.14" y="575.12" width="2.36" height="11.25" transform="translate(530.53 -119.34) rotate(45)"/><rect class="cls-11" x="413.98" y="570.7" width="2.7" height="4.73" transform="translate(1114.23 684.6) rotate(135)"/><rect class="cls-12" x="412.07" y="572.61" width="2.7" height="4.73" transform="translate(1112.32 689.21) rotate(135)"/><text class="cls-2" transform="translate(406.06 514.01)">Canas</text><text class="cls-3" transform="translate(424.59 534.53)"><tspan xml:space="preserve"> 2 p</tspan><tspan class="cls-4" x="24.52" y="0">r</tspan><tspan class="cls-5" x="29.73" y="0">o</tspan><tspan class="cls-6" x="38.1" y="0">y</tspan><tspan x="45.53" y="0">ec</tspan><tspan class="cls-7" x="61.46" y="0">t</tspan><tspan x="66.31" y="0">os</tspan></text><path class="cls-8" d="M413.37,530h1.3l.21-1,.16,0a3.61,3.61,0,0,0,1-.41l.14-.08.86.52.92-1-.56-.84.08-.15a3.38,3.38,0,0,0,.4-1l0-.16,1-.24v-1.32l-1-.21-.05-.16a3.61,3.61,0,0,0-.41-1l-.08-.14.52-.86-.95-.92-.84.56-.15-.08a3.68,3.68,0,0,0-1-.4l-.16,0-.24-1h-1.32l-.2,1-.17.05a3.74,3.74,0,0,0-1,.41l-.14.08-.84-.53-.92.94.56.85-.09.14a3.78,3.78,0,0,0-.39,1l0,.17-1,.23v1.32l1,.21,0,.16a3.86,3.86,0,0,0,.42,1l.08.14-.52.86.95.92.84-.56.15.09a3.65,3.65,0,0,0,1,.39l.16,0Zm2.59-4.93a2,2,0,1,1-2-2A2,2,0,0,1,416,525.08Z"/><path class="cls-8" d="M419.64,536.53h.92l.14-.69.12,0a2.62,2.62,0,0,0,.68-.3l.1,0,.61.36.64-.66-.39-.6.06-.1a2.5,2.5,0,0,0,.28-.7l0-.11.69-.17v-.93l-.69-.14,0-.12a3,3,0,0,0-.29-.68l-.06-.1.37-.61-.67-.64-.6.39-.1-.06a2.5,2.5,0,0,0-.7-.28l-.11,0-.17-.69h-.93l-.14.69-.12,0a2.57,2.57,0,0,0-.68.29l-.11.06-.59-.38-.64.67.39.59-.06.11a2.57,2.57,0,0,0-.28.69l0,.12-.7.16v.93l.7.15,0,.11a2.89,2.89,0,0,0,.3.69l.05.1-.36.6.66.65.6-.39.1.06a3,3,0,0,0,.7.28l.11,0Zm1.82-3.47a1.41,1.41,0,1,1-1.41-1.41A1.41,1.41,0,0,1,421.46,533.06Z"/><rect class="cls-9" x="411.84" y="523.15" width="2.36" height="11.25" transform="translate(494.87 -137.17) rotate(45)"/><polygon class="cls-10" points="406.06 537.17 408.21 531.92 411.55 535.26 406.06 537.17"/><rect class="cls-9" x="413.51" y="524.83" width="2.36" height="11.25" transform="translate(496.55 -137.87) rotate(45)"/><rect class="cls-11" x="419.35" y="520.41" width="2.7" height="4.73" transform="translate(1087.83 594.96) rotate(135)"/><rect class="cls-12" x="417.44" y="522.32" width="2.7" height="4.73" transform="translate(1085.92 599.56) rotate(135)"/><line class="cls-13" x1="166.24" y1="559.19" x2="167.65" y2="557.77"/><line class="cls-25" x1="170.47" y1="554.93" x2="270.72" y2="454.14"/><line class="cls-13" x1="272.13" y1="452.72" x2="273.54" y2="451.31"/><circle class="cls-15" cx="273.98" cy="450.82" r="1.57"/><circle class="cls-15" cx="165.94" cy="559.51" r="1.57"/><text class="cls-3" transform="translate(228.53 404.57)">x3</text><circle class="cls-27" cx="217.68" cy="400.54" r="6.43"/><text class="cls-3" transform="translate(228.53 421.18)">x2</text><circle class="cls-28" cx="217.68" cy="417.15" r="6.43"/><circle class="cls-28" cx="244.24" cy="376.48" r="6.43"/><circle class="cls-28" cx="288.44" cy="412.29" r="6.43"/><text class="cls-3" transform="translate(263.35 335.88)">x4</text><circle class="cls-28" cx="252.5" cy="331.86" r="6.43"/><circle class="cls-27" cx="273.65" cy="412.29" r="6.43"/><circle class="cls-28" cx="283.1" cy="440.98" r="6.43"/><circle class="cls-27" cx="268.01" cy="440.43" r="6.43"/><text class="cls-3" transform="translate(337.82 510.09)">x1</text><circle class="cls-27" cx="326.97" cy="506.06" r="6.43"/><text class="cls-3" transform="translate(337.82 526.55)">x1</text><circle class="cls-28" cx="326.97" cy="522.52" r="6.43"/><text class="cls-3" transform="translate(366.9 484.48)">x4</text><circle class="cls-28" cx="356.05" cy="480.45" r="6.43"/><text class="cls-3" transform="translate(250.67 534.48)">x3</text><circle class="cls-27" cx="239.82" cy="530.45" r="6.43"/><text class="cls-3" transform="translate(366.9 468.23)">x2</text><circle class="cls-27" cx="356.05" cy="464.2" r="6.43"/><circle class="cls-27" cx="398.61" cy="395.78" r="6.43"/><circle class="cls-27" cx="211.14" cy="257.33" r="6.43"/><circle class="cls-27" cx="226.33" cy="257.33" r="6.43"/><circle class="cls-27" cx="211.14" cy="273.54" r="6.43"/><circle class="cls-27" cx="226.33" cy="273.54" r="6.43"/><circle class="cls-27" cx="227.68" cy="376.48" r="6.43"/></svg>