<svg id="Capa_1" data-name="Capa 1" xmlns="http://www.w3.org/2000/svg" viewBox="0 0 554 932"><defs><style>.cls-1{fill:#71c2e9;stroke:#377c9c;stroke-width:3px;}.cls-1,.cls-21,.cls-22{stroke-miterlimit:1.75;}.cls-2{font-size:12px;font-family:Roboto-Light, Roboto;font-weight:300;}.cls-19,.cls-2,.cls-9{fill:#1d1d1b;}.cls-3{letter-spacing:-0.06em;}.cls-4{letter-spacing:-0.01em;}.cls-5{letter-spacing:-0.01em;}.cls-6{letter-spacing:-0.01em;}.cls-7{letter-spacing:-0.02em;}.cls-8{letter-spacing:-0.01em;}.cls-9{font-size:15px;font-family:Roboto-Bold, Roboto;font-weight:700;}.cls-10{letter-spacing:-0.02em;}.cls-11{letter-spacing:-0.01em;}.cls-12,.cls-17,.cls-18,.cls-20{fill:none;}.cls-12,.cls-13,.cls-14,.cls-15,.cls-16{stroke:#262626;stroke-linecap:round;stroke-width:0.5px;}.cls-12,.cls-13,.cls-14,.cls-15,.cls-16,.cls-17,.cls-18,.cls-20{stroke-linejoin:round;}.cls-13{fill:#fab637;}.cls-14{fill:#ffe7a1;}.cls-15{fill:#4ca8de;}.cls-16{fill:#cfcece;}.cls-17,.cls-18,.cls-20{stroke:#0b0c0c;}.cls-18{stroke-dasharray:3.7 3.7;}.cls-20{stroke-dasharray:3.66 3.66;}.cls-21{fill:#ec6062;stroke:#cc444b;}.cls-22{fill:#afd28c;stroke:#71915a;isolation:isolate;}</style></defs><path class="cls-1" d="M234.69,276.27l4.64,5.39,9.89-3.45,11,5.77,6.62,16,11.71,7.34,12.62-.35,17.52-12.63,17,11.06-3.39,6.49,4,11.55-16.82,1.89-3.23,30.27,18,9.74-6.44,6.73-9.19-.32-6.7,11.58-12.71-2.05-.64,7.37,9.72,1.2L285.31,401l-1,28L271,425,261,411.44l-1.1-32.72-15.61,3.19-5.64,8.81L221.48,372l-16.2,10.69-8.14-23.25-12-7-12,3.83-12.68-14.8,4.78-5.92-4.37-8.86,9.24-3.4,10.85,12.13,1.2-9.7,8.47-.55L191.7,317l16.81-13.12-1-5.42,20.38-4.12-.9-13.57Z"/><path class="cls-1" d="M326.88,318.06l34.2,36.73,33.19,8.46.51,10.64-24.41,14.45-15.46-12.46-7.49,2.6-9.21-13.41L327.7,375.83l5-8.26L328.9,362l-9.29,3.18-13.41-9.58,3.33-30.49,12.36,1.12Z"/><path class="cls-1" d="M185.62,352.55l11.69,7.07,8,23.05L221.48,372l17.18,18.74,5.64-8.81,15.61-3.19,1,32.51,9.21,9.73-33.41,15.51.75,9.4L223.71,471l-10.43-1.36-4.16,9.89L187,482.25l-9.31,10.59,3.52-17.51-7-14.91-6.5,9.71-11.36-2.76-16.85,9.28L117,467.16l4.7-10.53,14.55-8.25,3.27-13.83L134,415l6-12.45,10.82,2.61,4.85-14.36-6.29-12.07,4.4-10.54,15.39-7,2-6.28Z"/><path class="cls-1" d="M342.82,275.08l9.33,2.5,8.1,14,18.05.57,4.18,21.46,11.72,7-4.73,21,11.23,7.63L399.44,363l-38.36-8.21-36-37.57.61-11.53,8.3.21,2.47-7.6,8.6-2.55-7-19.17Z"/><path class="cls-1" d="M270.21,421.24l9.8,7.9,17.66-7.76,22,6.4.08,20.68,8.36.64,8.44,9.83-15.95,3.55-7.71-7.23-18.31,5.63L286,475.06l.45,6.71,19.06,15,5.26,11L314,532.18l-5.86,47.32,4.9,16.71-12.34,2.34-6.64-4.69-6.61,6.86-22.3-6.45-7.86,11.31-9.51-18.12-10.6,7.4-17.62-5.71,5-7.22-17.83,2.75-18.63-18.81-21.95-5.23-3.66-6.59,7.7-6.75-5.54-12.76,12.66-15.07L173,500.14,187,482.29l22-2.67,4.39-10,10.33,1.4,13.78-25.16-.75-9.4Z"/><path class="cls-1" d="M348.09,205.34l21.79,8.75,20.74,25.62-8.24,3.15.48,15.61L377,264.68l-6.86-6.55-10.09,8-9-4.55-3.83,15.89-9.14-.87,7.13,18.22L336,298.72l-.08,5.86-13,.92L308.7,294.33,291.18,307l-12.62.35L266.85,300l-6.62-16-16.59-5.53,5.71-23.8,9.53-9.29L252,217.7l7-10.09L298.43,221l17.32-5.59,5.15,3.46L332,206.38Z"/><path class="cls-1" d="M330.37,364.6l-2.84,11.46,10.39-10.66,9.13,13.28,7.41-2.57,15.18,12.32,24.56-14.7,9.16,32.89L383,399.1l-5.79,10.15,2.82,16.54-32.56,2.94-13.36,16.53-12.74,3.31-1.48-20.87-21.87-6.55-13.52,4.39L283.25,413l3.29-14,11.83-9-9.62-1.2,2.13-9,9.85,4.21,7.87-12Z"/><text class="cls-2" transform="translate(278.99 156.38)"><tspan class="cls-3">T</tspan><tspan class="cls-4" x="6.5" y="0">ay</tspan><tspan x="18.46" y="0">acaja</tspan></text><text class="cls-2" transform="translate(108.65 244.91)">Huanc<tspan class="cls-4" x="34.28" y="0">a</tspan><tspan class="cls-5" x="40.62" y="0">v</tspan><tspan x="46.32" y="0">elica</tspan></text><text class="cls-2" transform="translate(417.95 277.07)">Chu<tspan class="cls-6" x="20.97" y="0">r</tspan><tspan x="24.9" y="0">campa</tspan></text><text class="cls-2" transform="translate(418.92 357.36)">Acobamba</text><text class="cls-2" transform="translate(363.24 467.15)">Anga<tspan class="cls-7" x="27.17" y="0">r</tspan><tspan x="30.97" y="0">a</tspan><tspan class="cls-7" x="37.4" y="0">r</tspan><tspan x="41.2" y="0">aes</tspan></text><text class="cls-2" transform="translate(34.24 376.38)">Cast<tspan class="cls-8" x="24.15" y="0">r</tspan><tspan class="cls-4" x="28.07" y="0">o</tspan><tspan x="34.71" y="0">vir</tspan><tspan class="cls-6" x="47.2" y="0">r</tspan><tspan class="cls-5" x="51.13" y="0">e</tspan><tspan x="57.25" y="0">yna</tspan></text><text class="cls-2" transform="translate(359.76 540.32)">Hu<tspan class="cls-4" x="15.08" y="0">a</tspan><tspan x="21.42" y="0">yta</tspan><tspan class="cls-7" x="37.41" y="0">r</tspan><tspan x="41.21" y="0">a</tspan></text><text class="cls-9" transform="translate(127.16 262.93)"><tspan xml:space="preserve"> 12 p</tspan><tspan class="cls-10" x="33.13" y="0">r</tspan><tspan class="cls-4" x="38.33" y="0">o</tspan><tspan class="cls-5" x="46.71" y="0">y</tspan><tspan x="54.14" y="0">ec</tspan><tspan class="cls-11" x="70.07" y="0">t</tspan><tspan x="74.92" y="0">os</tspan></text><path class="cls-12" d="M115.93,258.4h1.31l.2-1,.17,0a3.55,3.55,0,0,0,1-.41l.14-.08.86.52.92-1-.56-.84.09-.15a4,4,0,0,0,.4-1l0-.17,1-.23,0-1.32-1-.21,0-.16a4,4,0,0,0-.42-1l-.08-.14.52-.86-.94-.92-.85.56-.15-.08a3.27,3.27,0,0,0-1-.4l-.16,0-.24-1h-1.32l-.2,1-.17.05a3.55,3.55,0,0,0-1,.41l-.15.08-.84-.53-.92.94.56.85-.08.14a3.68,3.68,0,0,0-.4,1l0,.17-1,.23v1.32l1,.21,0,.16a3.48,3.48,0,0,0,.41,1l.09.14-.53.86,1,.92.85-.56.14.09a3.78,3.78,0,0,0,1,.39l.17,0Zm2.59-4.92a2,2,0,1,1-2-2A2,2,0,0,1,118.52,253.48Z"/><path class="cls-12" d="M122.2,264.92h.92l.14-.69.12,0a3.28,3.28,0,0,0,.69-.3l.1-.05.6.36.65-.66-.4-.6.06-.1a2.33,2.33,0,0,0,.28-.7l0-.11.69-.17V261l-.69-.14,0-.12a2.77,2.77,0,0,0-.29-.69l-.06-.09.37-.61-.67-.65-.59.4L124,259a2.77,2.77,0,0,0-.7-.28l-.12,0L123,258h-.93l-.15.69-.11,0a2.49,2.49,0,0,0-.69.29l-.1.06-.59-.38-.65.67.39.59,0,.1a2.33,2.33,0,0,0-.28.7l0,.12-.69.16V262l.69.15,0,.11a2.49,2.49,0,0,0,.29.69l.06.1-.37.6.67.65.59-.39.1.06a3,3,0,0,0,.7.28l.12,0Zm1.83-3.46a1.42,1.42,0,1,1-1.42-1.41A1.42,1.42,0,0,1,124,261.46Z"/><rect class="cls-13" x="114.4" y="251.55" width="2.36" height="11.25" transform="translate(215.71 -6.4) rotate(45)"/><polygon class="cls-14" points="108.63 265.57 110.77 260.32 114.11 263.66 108.63 265.57"/><rect class="cls-13" x="116.07" y="253.23" width="2.36" height="11.25" transform="translate(217.38 -7.1) rotate(45)"/><rect class="cls-15" x="121.91" y="248.81" width="2.7" height="4.73" transform="translate(388.02 341.62) rotate(135)"/><rect class="cls-16" x="120" y="250.72" width="2.7" height="4.73" transform="translate(386.12 346.23) rotate(135)"/><text class="cls-9" transform="translate(53.54 394.44)"><tspan xml:space="preserve"> 4 p</tspan><tspan class="cls-10" x="24.52" y="0">r</tspan><tspan class="cls-4" x="29.73" y="0">o</tspan><tspan class="cls-5" x="38.1" y="0">y</tspan><tspan x="45.53" y="0">ec</tspan><tspan class="cls-11" x="61.46" y="0">t</tspan><tspan x="66.31" y="0">os</tspan></text><path class="cls-12" d="M42.32,389.91h1.3l.2-1,.17,0a3.74,3.74,0,0,0,1-.41l.14-.09.85.53.92-.95-.55-.85.08-.14a3.81,3.81,0,0,0,.4-1l0-.17,1-.23,0-1.32-1-.21,0-.16a4.19,4.19,0,0,0-.41-1l-.09-.14.53-.86-1-.92-.85.56-.14-.09a3.71,3.71,0,0,0-1-.39l-.16,0-.23-1H42.16l-.2,1-.17,0a4,4,0,0,0-1,.42l-.15.08-.84-.54-.91.95.56.84-.09.15a4,4,0,0,0-.4,1l0,.16-1,.24,0,1.32,1,.21,0,.16a4.18,4.18,0,0,0,.42,1l.08.14-.52.86.94.92.85-.56.14.08a3.74,3.74,0,0,0,1,.4l.16,0ZM44.91,385a2,2,0,1,1-2-2A2,2,0,0,1,44.91,385Z"/><path class="cls-12" d="M48.59,396.43h.91l.15-.69.11,0a2.49,2.49,0,0,0,.69-.29l.1-.06.6.37.65-.66-.39-.6.06-.1a3,3,0,0,0,.28-.7l0-.11.69-.17v-.93l-.69-.14,0-.12a2.77,2.77,0,0,0-.29-.69l-.06-.1.37-.6-.67-.65-.59.4-.1-.06a2.33,2.33,0,0,0-.7-.28l-.12,0-.16-.69h-.93l-.14.69-.12,0a2.62,2.62,0,0,0-.69.29l-.1.06-.59-.38-.65.66.4.6-.06.1a2.63,2.63,0,0,0-.28.7l0,.11-.69.17v.93l.69.14,0,.12a2.62,2.62,0,0,0,.29.69l.06.1-.37.6.67.65.59-.4.11.06a2.28,2.28,0,0,0,.69.28l.12,0ZM50.41,393A1.41,1.41,0,1,1,49,391.56,1.41,1.41,0,0,1,50.41,393Z"/><rect class="cls-13" x="40.78" y="383.06" width="2.36" height="11.25" transform="translate(287.13 84.17) rotate(45)"/><polygon class="cls-14" points="35.01 397.08 37.15 391.83 40.5 395.17 35.01 397.08"/><rect class="cls-13" x="42.46" y="384.73" width="2.36" height="11.25" transform="translate(288.81 83.48) rotate(45)"/><rect class="cls-15" x="48.29" y="380.32" width="2.7" height="4.73" transform="translate(355.34 618.18) rotate(135)"/><rect class="cls-16" x="46.38" y="382.23" width="2.7" height="4.73" transform="translate(353.43 622.79) rotate(135)"/><text class="cls-9" transform="translate(297.82 177.87)"><tspan xml:space="preserve"> 16 p</tspan><tspan class="cls-10" x="33.13" y="0">r</tspan><tspan class="cls-4" x="38.33" y="0">o</tspan><tspan class="cls-5" x="46.71" y="0">y</tspan><tspan x="54.14" y="0">ec</tspan><tspan class="cls-11" x="70.07" y="0">t</tspan><tspan x="74.92" y="0">os</tspan></text><path class="cls-12" d="M286.6,173.34h1.3l.2-1,.17,0a4.18,4.18,0,0,0,1-.42l.14-.08.86.52.92-.94-.56-.85.08-.14a3.74,3.74,0,0,0,.4-1l0-.16,1-.24v-1.32l-1-.2,0-.17a3.55,3.55,0,0,0-.41-1l-.08-.14.52-.86-1-.92-.85.56-.14-.09a4,4,0,0,0-1-.4l-.17,0-.23-1-1.32,0-.21,1-.16,0a3.86,3.86,0,0,0-1,.42L285,165l-.84-.54-.92,1,.56.84-.09.15a3.52,3.52,0,0,0-.39,1l0,.16-1,.24v1.32l1,.2,0,.17a4.18,4.18,0,0,0,.42,1l.08.14-.52.85.94.93.85-.56.15.08a3.55,3.55,0,0,0,1,.4l.16,0Zm2.59-4.93a2,2,0,1,1-2-2A2,2,0,0,1,289.19,168.41Z"/><path class="cls-12" d="M292.87,179.86h.91l.15-.69.11,0a2.49,2.49,0,0,0,.69-.29l.1-.06.6.37.65-.67-.39-.59.06-.1a2.63,2.63,0,0,0,.28-.7l0-.12.7-.16v-.93l-.7-.15,0-.11a2.89,2.89,0,0,0-.3-.69l-.05-.1.36-.6-.66-.65-.6.39-.1-.06a3,3,0,0,0-.7-.28l-.11,0-.17-.69h-.93l-.14.69-.12,0a2.77,2.77,0,0,0-.69.29l-.1.06-.59-.38-.64.66.39.6-.06.1a2.63,2.63,0,0,0-.28.7l0,.11-.69.17v.93l.69.14,0,.12a3.2,3.2,0,0,0,.29.69l.06.09-.37.61.67.65.6-.4.1.06a2.5,2.5,0,0,0,.7.28l.11,0Zm1.82-3.47a1.41,1.41,0,1,1-1.41-1.41A1.41,1.41,0,0,1,294.69,176.39Z"/><rect class="cls-13" x="285.07" y="166.49" width="2.36" height="11.25" transform="translate(205.54 -152) rotate(45)"/><polygon class="cls-14" points="279.29 180.51 281.43 175.25 284.78 178.6 279.29 180.51"/><rect class="cls-13" x="286.74" y="168.16" width="2.36" height="11.25" transform="translate(207.22 -152.69) rotate(45)"/><rect class="cls-15" x="292.57" y="163.75" width="2.7" height="4.73" transform="translate(619.22 75.73) rotate(135)"/><rect class="cls-16" x="290.67" y="165.65" width="2.7" height="4.73" transform="translate(617.31 80.34) rotate(135)"/><text class="cls-9" transform="translate(437.25 297.22)"><tspan xml:space="preserve"> 2 p</tspan><tspan class="cls-10" x="24.52" y="0">r</tspan><tspan class="cls-4" x="29.73" y="0">o</tspan><tspan class="cls-5" x="38.1" y="0">y</tspan><tspan x="45.53" y="0">ec</tspan><tspan class="cls-11" x="61.46" y="0">t</tspan><tspan x="66.31" y="0">os</tspan></text><path class="cls-12" d="M426,292.69h1.3l.2-1,.17,0a4.18,4.18,0,0,0,1-.42l.14-.08.85.52.92-.95-.55-.84.08-.15a3.68,3.68,0,0,0,.4-1l0-.16,1-.24,0-1.32-1-.2,0-.17a4.12,4.12,0,0,0-.41-1l-.09-.14.53-.86-.95-.92-.85.56-.14-.08a3.81,3.81,0,0,0-1-.4l-.17,0-.23-1h-1.33l-.2,1-.16,0a3.48,3.48,0,0,0-1,.41l-.15.09-.84-.54-.91.94.56.85-.09.14a4.1,4.1,0,0,0-.4,1l0,.16-1,.23,0,1.33,1,.2,0,.17a4,4,0,0,0,.42,1l.08.14-.52.86.94.92.85-.56.14.09a3.71,3.71,0,0,0,1,.39l.16,0Zm2.59-4.93a2,2,0,1,1-2-2A2,2,0,0,1,428.62,287.76Z"/><path class="cls-12" d="M432.3,299.21h.91l.15-.69.11,0a2.83,2.83,0,0,0,.69-.29l.1-.06.6.37.65-.67-.39-.6.06-.1a2.85,2.85,0,0,0,.28-.7l0-.11.69-.17v-.93l-.69-.14,0-.12a2.57,2.57,0,0,0-.29-.68l-.06-.1.37-.61-.67-.64-.59.39-.1-.06a2.63,2.63,0,0,0-.7-.28l-.11,0-.17-.69h-.93l-.14.69-.12,0a3,3,0,0,0-.69.29l-.1.06-.59-.38-.65.67.4.59-.06.11a2.57,2.57,0,0,0-.28.69l0,.12-.69.17v.92l.69.15,0,.11a2.49,2.49,0,0,0,.29.69l.06.1-.37.6.67.65.59-.39.11.06a2.57,2.57,0,0,0,.69.28l.12,0Zm1.82-3.47a1.41,1.41,0,1,1-1.41-1.41A1.41,1.41,0,0,1,434.12,295.74Z"/><rect class="cls-13" x="424.49" y="285.84" width="2.36" height="11.25" transform="translate(330.77 -215.63) rotate(45)"/><polygon class="cls-14" points="418.72 299.85 420.86 294.6 424.21 297.94 418.72 299.85"/><rect class="cls-13" x="426.17" y="287.51" width="2.36" height="11.25" transform="translate(332.44 -216.32) rotate(45)"/><rect class="cls-15" x="432" y="283.09" width="2.7" height="4.73" transform="translate(941.63 180.88) rotate(135)"/><rect class="cls-16" x="430.09" y="285" width="2.7" height="4.73" transform="translate(939.72 185.49) rotate(135)"/><text class="cls-9" transform="translate(436.6 376.38)"><tspan xml:space="preserve"> 3 p</tspan><tspan class="cls-10" x="24.52" y="0">r</tspan><tspan class="cls-4" x="29.73" y="0">o</tspan><tspan class="cls-5" x="38.1" y="0">y</tspan><tspan x="45.53" y="0">ec</tspan><tspan class="cls-11" x="61.46" y="0">t</tspan><tspan x="66.31" y="0">os</tspan></text><path class="cls-12" d="M425.38,371.86h1.31l.2-1,.16-.05a3.48,3.48,0,0,0,1-.41l.14-.08.86.52.92-.95-.56-.84.09-.15a3.65,3.65,0,0,0,.39-1l0-.16,1-.24v-1.32l-1-.21,0-.16a4.18,4.18,0,0,0-.42-1l-.08-.14.52-.86-.95-.92-.84.56-.15-.08a3.55,3.55,0,0,0-1-.4l-.16,0-.24-1h-1.32l-.2,1-.17,0a3.74,3.74,0,0,0-1,.41l-.14.09-.84-.54-.92.94.56.85-.08.14a3.81,3.81,0,0,0-.4,1l0,.17-1,.23v1.32l1,.21,0,.16a3.48,3.48,0,0,0,.41,1l.08.14-.52.86.95.92.84-.56.15.09a3.65,3.65,0,0,0,1,.39l.17,0Zm2.59-4.93a2,2,0,1,1-2-2A2,2,0,0,1,428,366.93Z"/><path class="cls-12" d="M431.65,378.38h.92l.14-.69.12,0a2.83,2.83,0,0,0,.69-.3l.09-.05.61.36.65-.66-.4-.6.06-.1a2.5,2.5,0,0,0,.28-.7l0-.11.69-.17v-.93l-.69-.14,0-.12a2.57,2.57,0,0,0-.29-.68l-.06-.1.37-.61-.67-.64-.59.39-.11-.06a2.57,2.57,0,0,0-.69-.28l-.12,0-.17-.69h-.92l-.15.69-.12,0a2.57,2.57,0,0,0-.68.29l-.1.06-.59-.38-.65.67.39.59-.06.11a2.94,2.94,0,0,0-.28.69l0,.12-.69.16v.93l.69.15,0,.11a2.49,2.49,0,0,0,.29.69l.06.1-.37.6.67.65.59-.39.1.06a3,3,0,0,0,.7.28l.12,0Zm1.82-3.47a1.41,1.41,0,1,1-1.41-1.41A1.41,1.41,0,0,1,433.47,374.91Z"/><rect class="cls-13" x="423.85" y="365" width="2.36" height="11.25" transform="translate(386.56 -191.99) rotate(45)"/><polygon class="cls-14" points="418.07 379.02 420.22 373.77 423.56 377.11 418.07 379.02"/><rect class="cls-13" x="425.52" y="366.68" width="2.36" height="11.25" transform="translate(388.24 -192.68) rotate(45)"/><rect class="cls-15" x="431.36" y="362.26" width="2.7" height="4.73" transform="translate(996.51 316.48) rotate(135)"/><rect class="cls-16" x="429.45" y="364.17" width="2.7" height="4.73" transform="translate(994.6 321.09) rotate(135)"/><text class="cls-9" transform="translate(377.47 559.05)"><tspan xml:space="preserve"> 0 p</tspan><tspan class="cls-10" x="24.52" y="0">r</tspan><tspan class="cls-4" x="29.73" y="0">o</tspan><tspan class="cls-5" x="38.1" y="0">y</tspan><tspan x="45.53" y="0">ec</tspan><tspan class="cls-11" x="61.46" y="0">t</tspan><tspan x="66.31" y="0">os</tspan></text><path class="cls-12" d="M366.25,554.52h1.31l.2-1,.17,0a4,4,0,0,0,1-.42L369,553l.86.52.92-.95-.56-.84.09-.15a3.52,3.52,0,0,0,.39-1l0-.16,1-.24v-1.32l-1-.2,0-.17a4.18,4.18,0,0,0-.42-1l-.08-.14.52-.85-.94-.92-.85.55-.15-.08a3.55,3.55,0,0,0-1-.4l-.16,0-.24-1H366.1l-.2,1-.17,0a3.74,3.74,0,0,0-1,.41l-.14.09-.84-.54-.92.94.56.85-.08.14a3.74,3.74,0,0,0-.4,1l0,.16-1,.24v1.32l1,.2,0,.17a3.55,3.55,0,0,0,.41,1l.08.14-.52.86.95.92.85-.56.14.09a4,4,0,0,0,1,.4l.17,0Zm2.59-4.93a2,2,0,1,1-2-2A2,2,0,0,1,368.84,549.59Z"/><path class="cls-12" d="M372.52,561h.92l.14-.69.12,0a2.77,2.77,0,0,0,.69-.29l.09-.06.61.37.65-.67-.4-.59.06-.11a2.57,2.57,0,0,0,.28-.69l0-.12.69-.17v-.93l-.69-.14,0-.12a2.57,2.57,0,0,0-.29-.68l-.06-.1.37-.6-.67-.65-.59.39-.11-.06a2.57,2.57,0,0,0-.69-.28l-.12,0-.16-.69h-.93l-.15.69-.11,0a2.89,2.89,0,0,0-.69.3l-.1,0-.59-.37-.65.66.39.59-.06.11a2.48,2.48,0,0,0-.27.7l0,.11-.69.17v.93l.69.14,0,.12a2.57,2.57,0,0,0,.29.68l.06.1-.37.61.67.64.59-.39.1.06a2.63,2.63,0,0,0,.7.28l.12,0Zm1.82-3.47a1.41,1.41,0,1,1-1.41-1.41A1.41,1.41,0,0,1,374.34,557.57Z"/><rect class="cls-13" x="364.72" y="547.67" width="2.36" height="11.25" transform="translate(498.41 -96.68) rotate(45)"/><polygon class="cls-14" points="358.95 561.69 361.09 556.43 364.43 559.78 358.95 561.69"/><rect class="cls-13" x="366.39" y="549.34" width="2.36" height="11.25" transform="translate(500.08 -97.37) rotate(45)"/><rect class="cls-15" x="372.23" y="544.92" width="2.7" height="4.73" transform="translate(1024.73 670.12) rotate(135)"/><rect class="cls-16" x="370.32" y="546.83" width="2.7" height="4.73" transform="translate(1022.82 674.73) rotate(135)"/><text class="cls-9" transform="translate(381.95 485.99)"><tspan xml:space="preserve"> 12 p</tspan><tspan class="cls-10" x="33.13" y="0">r</tspan><tspan class="cls-4" x="38.33" y="0">o</tspan><tspan class="cls-5" x="46.71" y="0">y</tspan><tspan x="54.14" y="0">ec</tspan><tspan class="cls-11" x="70.07" y="0">t</tspan><tspan x="74.92" y="0">os</tspan></text><path class="cls-12" d="M370.73,481.46H372l.2-1,.17,0a3.55,3.55,0,0,0,1-.41l.14-.08.86.52.92-1-.55-.84.08-.15a4,4,0,0,0,.4-1l0-.17,1-.23,0-1.32-1-.21,0-.16a4,4,0,0,0-.42-1l-.08-.14.53-.86-1-.92-.85.56-.14-.08a3.43,3.43,0,0,0-1-.4l-.16,0-.24-1h-1.32l-.2,1-.17,0a3.55,3.55,0,0,0-1,.41l-.15.08-.84-.53-.91.94.55.85-.08.14a4,4,0,0,0-.4,1l0,.17-1,.23,0,1.32,1,.21,0,.16a3.86,3.86,0,0,0,.42,1l.08.14-.53.86.95.92.85-.56.14.09a3.71,3.71,0,0,0,1,.39l.16,0Zm2.59-4.92a2,2,0,1,1-2-2A2,2,0,0,1,373.32,476.54Z"/><path class="cls-12" d="M377,488h.91l.14-.68.12,0a3.07,3.07,0,0,0,.69-.3l.1-.05.6.36.65-.66-.39-.6.06-.1a2.6,2.6,0,0,0,.27-.7l0-.11.69-.17V484l-.69-.14,0-.12a2.77,2.77,0,0,0-.29-.69l-.06-.09.37-.61-.67-.65-.59.4-.1-.06a2.63,2.63,0,0,0-.7-.28l-.12,0-.16-.69h-.93l-.14.69-.12,0a2.49,2.49,0,0,0-.69.29l-.1.06-.59-.38-.65.67.4.59-.06.1a2.63,2.63,0,0,0-.28.7l0,.12-.69.16V485l.69.15,0,.11a2.49,2.49,0,0,0,.29.69l.06.1-.37.6.67.65.59-.39.11.06a2.94,2.94,0,0,0,.69.28l.12,0Zm1.82-3.46a1.41,1.41,0,1,1-1.41-1.41A1.41,1.41,0,0,1,378.82,484.52Z"/><rect class="cls-13" x="369.19" y="474.61" width="2.36" height="11.25" transform="translate(448.06 -121.24) rotate(45)"/><polygon class="cls-14" points="363.42 488.63 365.56 483.38 368.91 486.72 363.42 488.63"/><rect class="cls-13" x="370.86" y="476.29" width="2.36" height="11.25" transform="translate(449.73 -121.93) rotate(45)"/><rect class="cls-15" x="376.7" y="471.87" width="2.7" height="4.73" transform="translate(980.71 542.25) rotate(135)"/><rect class="cls-16" x="374.79" y="473.78" width="2.7" height="4.73" transform="translate(978.8 546.85) rotate(135)"/><line class="cls-17" x1="243.91" y1="295.28" x2="242.59" y2="293.77"/><line class="cls-18" x1="240.15" y1="290.99" x2="216.97" y2="264.52"/><line class="cls-17" x1="215.75" y1="263.13" x2="214.43" y2="261.62"/><circle class="cls-19" cx="214.43" cy="261.62" r="1.57"/><circle class="cls-19" cx="244.24" cy="296.23" r="1.57"/><line class="cls-17" x1="290.1" y1="235.26" x2="290.09" y2="233.26"/><line class="cls-18" x1="290.07" y1="229.56" x2="289.92" y2="194.37"/><line class="cls-17" x1="289.91" y1="192.52" x2="289.9" y2="190.52"/><circle class="cls-19" cx="289.9" cy="190.52" r="1.57"/><circle class="cls-19" cx="289.72" cy="236.2" r="1.57"/><line class="cls-17" x1="169.34" y1="427.12" x2="168.02" y2="425.61"/><line class="cls-18" x1="165.58" y1="422.83" x2="142.4" y2="396.36"/><line class="cls-17" x1="141.18" y1="394.97" x2="139.86" y2="393.46"/><circle class="cls-19" cx="139.86" cy="393.46" r="1.57"/><circle class="cls-19" cx="169.67" cy="428.07" r="1.57"/><line class="cls-17" x1="380.34" y1="320.37" x2="381.93" y2="319.17"/><line class="cls-18" x1="384.89" y1="316.94" x2="413.01" y2="295.8"/><line class="cls-17" x1="414.49" y1="294.68" x2="416.09" y2="293.48"/><circle class="cls-19" cx="416.09" cy="293.48" r="1.57"/><circle class="cls-19" cx="379.36" cy="320.63" r="1.57"/><line class="cls-17" x1="356.96" y1="460.38" x2="355.76" y2="458.79"/><line class="cls-18" x1="353.53" y1="455.83" x2="332.38" y2="427.71"/><line class="cls-17" x1="331.27" y1="426.23" x2="330.07" y2="424.63"/><circle class="cls-19" cx="330.07" cy="424.63" r="1.57"/><circle class="cls-19" cx="357.22" cy="461.36" r="1.57"/><line class="cls-17" x1="353.11" y1="535.19" x2="351.11" y2="535.21"/><line class="cls-18" x1="347.4" y1="535.26" x2="312.22" y2="535.69"/><line class="cls-17" x1="310.37" y1="535.72" x2="308.37" y2="535.74"/><circle class="cls-19" cx="308.37" cy="535.74" r="1.57"/><circle class="cls-19" cx="354.05" cy="535.55" r="1.57"/><line class="cls-17" x1="413.27" y1="370.36" x2="411.27" y2="370.36"/><line class="cls-20" x1="407.61" y1="370.36" x2="387.5" y2="370.36"/><line class="cls-17" x1="385.67" y1="370.36" x2="383.67" y2="370.36"/><circle class="cls-19" cx="383.67" cy="370.36" r="1.57"/><circle class="cls-19" cx="413.56" cy="370.36" r="1.57"/><text class="cls-9" transform="translate(195.36 434.16)">x4</text><circle class="cls-21" cx="184.52" cy="430.13" r="6.43"/><text class="cls-9" transform="translate(361.92 353.26)">x2</text><circle class="cls-22" cx="351.07" cy="349.24" r="6.43"/><text class="cls-9" transform="translate(361.92 369.76)">x1</text><circle class="cls-21" cx="351.07" cy="365.73" r="6.43"/><text class="cls-9" transform="translate(263.09 311.33)">x6</text><circle class="cls-22" cx="252.24" cy="307.31" r="6.43"/><text class="cls-9" transform="translate(263.09 327.83)">x6</text><circle class="cls-21" cx="252.24" cy="323.8" r="6.43"/><text class="cls-9" transform="translate(300.75 255.24)">x12</text><circle class="cls-22" cx="289.9" cy="251.21" r="6.43"/><text class="cls-9" transform="translate(300.75 271.73)">x4</text><circle class="cls-21" cx="289.9" cy="267.7" r="6.43"/><text class="cls-9" transform="translate(361.27 310.87)">x1</text><circle class="cls-22" cx="350.42" cy="306.84" r="6.43"/><text class="cls-9" transform="translate(361.27 327.36)">x1</text><circle class="cls-21" cx="350.42" cy="323.33" r="6.43"/><text class="cls-9" transform="translate(340.27 400.2)">x9</text><circle class="cls-22" cx="329.42" cy="396.17" r="6.43"/><text class="cls-9" transform="translate(340.27 416.7)">x3</text><circle class="cls-21" cx="329.42" cy="412.67" r="6.43"/></svg>