<svg id="Capa_1" data-name="Capa 1" xmlns="http://www.w3.org/2000/svg" viewBox="0 0 554 932"><defs><style>.cls-1{font-size:12px;font-family:Roboto-Light, Roboto;font-weight:300;}.cls-1,.cls-16,.cls-2{fill:#1d1d1b;}.cls-2{font-size:15px;font-family:Roboto-Bold, Roboto;font-weight:700;}.cls-3{letter-spacing:-0.02em;}.cls-4{letter-spacing:-0.01em;}.cls-5{letter-spacing:-0.01em;}.cls-6{letter-spacing:-0.01em;}.cls-14,.cls-15,.cls-17,.cls-19,.cls-22,.cls-23,.cls-24,.cls-25,.cls-26,.cls-7{fill:none;}.cls-10,.cls-11,.cls-7,.cls-8,.cls-9{stroke:#262626;stroke-linecap:round;stroke-width:0.5px;}.cls-10,.cls-11,.cls-14,.cls-15,.cls-17,.cls-19,.cls-22,.cls-23,.cls-24,.cls-25,.cls-26,.cls-7,.cls-8,.cls-9{stroke-linejoin:round;}.cls-8{fill:#fab637;}.cls-9{fill:#ffe7a1;}.cls-10{fill:#4ca8de;}.cls-11{fill:#cfcece;}.cls-12{fill:#71c2e9;stroke:#377c9c;stroke-miterlimit:1.75;stroke-width:3px;}.cls-13{letter-spacing:-0.04em;}.cls-14,.cls-15,.cls-17,.cls-19,.cls-22,.cls-23,.cls-24,.cls-25,.cls-26{stroke:#0b0c0c;}.cls-15{stroke-dasharray:3.86 3.86;}.cls-17{stroke-dasharray:4.07 4.07;}.cls-18{letter-spacing:-0.01em;}.cls-19{stroke-dasharray:3.9 3.9;}.cls-20{letter-spacing:-0.02em;}.cls-21{letter-spacing:-0.01em;}.cls-22{stroke-dasharray:3.83 3.83;}.cls-23{stroke-dasharray:4 4;}.cls-24{stroke-dasharray:4.25 4.25;}.cls-25{stroke-dasharray:4.3 4.3;}.cls-26{stroke-dasharray:3.88 3.88;}</style></defs><text class="cls-1" transform="translate(70.05 167.48)">Chepén</text><text class="cls-2" transform="translate(88.58 188.01)"><tspan xml:space="preserve"> 0 p</tspan><tspan class="cls-3" x="24.52" y="0">r</tspan><tspan class="cls-4" x="29.73" y="0">o</tspan><tspan class="cls-5" x="38.1" y="0">y</tspan><tspan x="45.53" y="0">ec</tspan><tspan class="cls-6" x="61.46" y="0">t</tspan><tspan x="66.31" y="0">os</tspan></text><path class="cls-7" d="M77.36,183.48h1.3l.2-1,.17,0a4.18,4.18,0,0,0,1-.42l.14-.08.85.52.92-.94-.55-.85.08-.14a4.1,4.1,0,0,0,.4-1l0-.16,1-.24,0-1.32-1-.2,0-.17a4,4,0,0,0-.42-1l-.08-.14.53-.86-1-.92-.85.56-.14-.09a4.1,4.1,0,0,0-1-.4l-.16,0-.24-1-1.32,0-.2,1-.17,0a4,4,0,0,0-1,.42l-.15.08-.84-.54-.91.95.55.84-.08.15a3.88,3.88,0,0,0-.4,1l0,.16L73,178l0,1.32,1,.2,0,.17a4.18,4.18,0,0,0,.42,1l.08.14-.52.85.94.92.85-.55.14.08a3.74,3.74,0,0,0,1,.4l.16,0ZM80,178.55a2,2,0,1,1-2-2A2,2,0,0,1,80,178.55Z"/><path class="cls-7" d="M83.63,190h.91l.15-.69.11,0a2.49,2.49,0,0,0,.69-.29l.1-.06.6.37.65-.67-.39-.59.06-.1a3,3,0,0,0,.28-.7l0-.12.69-.16V186l-.69-.15,0-.11a2.49,2.49,0,0,0-.29-.69l-.06-.1.37-.6-.67-.65-.59.39-.1-.06a3,3,0,0,0-.7-.28l-.12,0-.16-.69h-.93l-.14.69-.12,0a2.62,2.62,0,0,0-.69.29l-.1.06-.59-.38-.65.66.4.6-.06.1a2.63,2.63,0,0,0-.28.7l0,.11-.69.17V187l.69.14,0,.12a2.77,2.77,0,0,0,.29.69l.06.09-.37.61.67.65.59-.4.11.06a2.57,2.57,0,0,0,.69.28l.12,0Zm1.82-3.47A1.41,1.41,0,1,1,84,185.12,1.41,1.41,0,0,1,85.45,186.53Z"/><rect class="cls-8" x="75.82" y="176.63" width="2.36" height="11.25" transform="translate(151.43 -1.07) rotate(45)"/><polygon class="cls-9" points="70.05 190.65 72.19 185.4 75.54 188.74 70.05 190.65"/><rect class="cls-8" x="77.49" y="178.3" width="2.36" height="11.25" transform="translate(153.1 -1.76) rotate(45)"/><rect class="cls-10" x="83.33" y="173.89" width="2.7" height="4.73" transform="translate(269.19 241) rotate(135)"/><rect class="cls-11" x="81.42" y="175.79" width="2.7" height="4.73" transform="translate(267.28 245.61) rotate(135)"/><path class="cls-12" d="M194.31,311.49l1.31,4.34,17.84-3.05,5.51,7.46-3.42,11.44,3.91,3.16,20.25,1,11.52-10.63,13.36,1.89-5,4.94-2.32,16.75L240,347.84l5.23,3.52L233.37,361l-9.63-2.61L213.3,372.67l-7.22-14.23-12.45-12.67-4.45-6.93-18.33,9.27,4.78-12.88,9.38-4.41-5.11-6.33Z"/><path class="cls-12" d="M192.27,373.14l4.51.33-1,12.39,8.05,0-.71,6.76,6.54,3-5.19,22.06,5.94-.21.33,5.26,6.62,2.24L197,430.44l-1.4,5-9.13-2.75,5.1,14.53-14.06,12.88-13-24.23L130.3,403.4,143.21,394l3,6.85,10,1,8.34-14.44,12.36-.88,3.48-7.77Z"/><path class="cls-12" d="M138.49,316.46l13.93,6.83,3.67,19.37,7.27,9.23,25.82-13.05,4.45,6.93-15.45,3.82-2.8,11.11,3.68,8.12,11.2,3.54-13.2,14.07-12.43.93-8.34,14.44-10-1-3-6.85L130.3,403.4l-14.76-11.17-24-32.51,4.69-3.22-3.18-8.25,14.8-11.8,7.28,2.93,2.21-10,5.21-1.25,9.53-16.95Z"/><path class="cls-12" d="M351.32,246.11,358,267.75l16.12,14.95-6.08,5.39,2.5,26.25,16.49,14.16-2.67,10.74,8.26,4-6.49,1.82-2.61,8.57-23.63-12-8.23-23.15L341.06,309l-3.69-21.79-11.62-12.33-11.49-25.59,2.3-3.59,21.88,2.12,9.56-5.39Z"/><path class="cls-12" d="M93.81,243.39l19.49,11.84,2.63,18.5,8.14,7.79-3.61,2.62,1,9.56-13.68,7.14-17.57-14-5.25,3.93-4.9-2-2.32,6.34-6.55-.29L57.33,278.29,85.1,246.82Z"/><path class="cls-12" d="M252.67,402.07l17.93,11.1L265.11,427l3.7,12.17-10.67,11.18-6.43-.47-1.8,8.2-6.9,4.44-2.44-6.23L225,450.4l3.41-8.74-13.17-10,2.26-8.25-6.72-.76-.08-4.3,7.33,0,4.83-5.53,9.72,3.67,3.78-9.47Z"/><path class="cls-12" d="M246.57,347.41l13,2,1.94,6.31,10.92,5.15,3.42,25.64-10.12,2.71-9.32,11-20.09,6.82-3.78,9.47-9.72-3.67-5,5.56-13.38-.8,5.19-22.06-6.54-3,.71-6.76-8.05,0,.93-12.5-17.66-4.54-3.68-8.12,2.8-11.11L193,344.84l13.05,13.6,7.22,14.23,10.44-14.24,9.63,2.61,11.89-9.79L240,347.84Z"/><path class="cls-12" d="M90.41,286.3l21.38,19,7.55-.85,7.82,6.42,6.85-2-11.46,19.32-5.21,1.25-2.21,10-7.28-2.93-14.8,11.8L74.67,321.59l-3.51-26.76,6.55.29L80,288.78l4.82,2Z"/><path class="cls-12" d="M361,341.8l20.53,12.08,6.26-2.92,3.06,4.86,5.54-1.12-9.73,13.61,12.56,6.89,4.88,13.23,5.15,1.27-4.6,12.78,5.15,10.95,11.65-.33,9.86-7.73,18.45,2.05,13.09,3.64,6,9.85,8.48,3.89,4.25,21.94-3.92,11.54L470,463.89l-14.14.21L438.3,476.69l-11.9-1.94-8.16,9.55-12.3-6.94L391.79,446.6l-12.46-7.53,2.49-5.92-12.15-13.1,2.15-36Z"/><path class="cls-12" d="M351.39,324.25l8.95,13L367,359.45l4.84,24.62-2.75,17-10.95-3.92-13.82,7.61-5.22-4.92-12.47,3.8-6.18-4.5-1.71,6.39-9.18-16.09-15.31,7.67L276,386.3l-1.24-20.17,7.31.53-.95-5,7.3-1.69,6.57-9.17,7.14,6.55,18-3.33,7.55-7.38-1.41-4,8.28-2.55,1.69-9.06Z"/><path class="cls-12" d="M277.73,385.88l16.5,11.2,15.31-7.67,9.18,16.09,1.71-6.39,6.18,4.5,12.47-3.8,5.22,4.92,13.82-7.61,11,4.74-1.1,9.4-10.75,3.5-27.17-1.55-5.51,20.36-13,4.16-15.33,13.6-5.77,25.16-9.05,11.88,2.49,10L278.61,503l-8.29-15.84L274.64,475l-12.32,2.26-4.88-3.67.12-8.44-5.05,1.25-3.45-5.87,2.65-10.57,6.43.47,10.57-10.83L265.11,427l5.48-13.7-17.92-11.27,15.62-14.6Z"/><path class="cls-12" d="M215.75,426.09l-.54,5.6,13.17,10L225,450.44l15.55,5.89,2.16,6.17,6.34-4.07,3.44,7.93,5.05-1.25-.12,8.44,4.88,3.67L274.64,475l-4.32,12.19L278.61,503l-18.13,3.1-29.92,15.49-5.84,25.52-6.05,4.3-20-30,3.62-9.51-3.6-17.76-26.53-25.22,5.27-2.28,2.7-10.7,10.09-5.17,2.09-9-5.87-9,9.13,2.75,1.4-5Z"/><text class="cls-1" transform="translate(86.26 480.26)"><tspan class="cls-13">T</tspan><tspan x="6.73" y="0">rujillo</tspan></text><line class="cls-14" x1="94.17" y1="197.52" x2="94.17" y2="199.52"/><line class="cls-15" x1="94.15" y1="203.37" x2="93.95" y2="247.71"/><line class="cls-14" x1="93.94" y1="249.64" x2="93.93" y2="251.64"/><circle class="cls-16" cx="93.95" cy="252.3" r="1.57"/><circle class="cls-16" cx="94.16" cy="197.08" r="1.57"/><line class="cls-14" x1="260.69" y1="209.95" x2="260.69" y2="211.95"/><line class="cls-17" x1="260.68" y1="216.01" x2="260.57" y2="368.45"/><line class="cls-14" x1="260.57" y1="370.49" x2="260.57" y2="372.49"/><circle class="cls-16" cx="260.59" cy="373.14" r="1.57"/><circle class="cls-16" cx="260.68" cy="209.51" r="1.57"/><text class="cls-1" transform="translate(113.68 228.06)"><tspan class="cls-18">P</tspan><tspan x="7.32" y="0">acasm</tspan><tspan class="cls-4" x="43.07" y="0">ay</tspan><tspan x="55.03" y="0">o</tspan></text><text class="cls-2" transform="translate(132.21 248.59)"><tspan xml:space="preserve"> 0 p</tspan><tspan class="cls-3" x="24.52" y="0">r</tspan><tspan class="cls-4" x="29.73" y="0">o</tspan><tspan class="cls-5" x="38.1" y="0">y</tspan><tspan x="45.53" y="0">ec</tspan><tspan class="cls-6" x="61.46" y="0">t</tspan><tspan x="66.31" y="0">os</tspan></text><path class="cls-7" d="M121,244.06h1.3l.21-1,.16-.05a3.61,3.61,0,0,0,1-.41l.14-.08.86.52.92-.95-.56-.84.08-.15a3.38,3.38,0,0,0,.4-1l0-.16,1-.24v-1.32l-1-.21-.05-.16a3.74,3.74,0,0,0-.41-1l-.08-.14.52-.86-.95-.92-.84.56-.15-.08a3.68,3.68,0,0,0-1-.4l-.16,0-.24-1h-1.32l-.2,1-.17,0a3.74,3.74,0,0,0-1,.41l-.14.09-.84-.54-.92.94.56.85-.09.14a3.78,3.78,0,0,0-.39,1l0,.17-1,.23v1.32l1,.21,0,.16a3.86,3.86,0,0,0,.42,1l.08.14-.52.86,1,.92.84-.56.15.09a3.52,3.52,0,0,0,1,.39l.16,0Zm2.59-4.93a2,2,0,1,1-2-2A2,2,0,0,1,123.58,239.13Z"/><path class="cls-7" d="M127.26,250.58h.92l.14-.69.12,0a2.62,2.62,0,0,0,.68-.3l.1-.05.61.36.64-.66-.39-.6.06-.1a2.5,2.5,0,0,0,.28-.7l0-.11.69-.17v-.93l-.69-.14,0-.12a3,3,0,0,0-.29-.68l-.06-.1.37-.61-.67-.64-.6.39-.1-.06a2.5,2.5,0,0,0-.7-.28l-.11,0-.17-.69h-.93l-.14.69-.12,0a2.57,2.57,0,0,0-.68.29l-.11.06-.59-.38-.64.67.39.59-.06.11a2.57,2.57,0,0,0-.28.69l0,.12-.7.16v.93l.7.15,0,.11a2.89,2.89,0,0,0,.3.69l0,.1-.36.6.66.65.6-.39.1.06a3,3,0,0,0,.7.28l.11,0Zm1.82-3.47a1.41,1.41,0,1,1-1.41-1.41A1.41,1.41,0,0,1,129.08,247.11Z"/><rect class="cls-8" x="119.46" y="237.2" width="2.36" height="11.25" transform="translate(207.04 -14.18) rotate(45)"/><polygon class="cls-9" points="113.68 251.22 115.83 245.97 119.17 249.31 113.68 251.22"/><rect class="cls-8" x="121.13" y="238.88" width="2.36" height="11.25" transform="translate(208.71 -14.87) rotate(45)"/><rect class="cls-10" x="126.97" y="234.46" width="2.7" height="4.73" transform="translate(386.51 313.55) rotate(135)"/><rect class="cls-11" x="125.06" y="236.37" width="2.7" height="4.73" transform="translate(384.6 318.16) rotate(135)"/><text class="cls-1" transform="translate(299.17 481.27)">Santiago de Chuco</text><text class="cls-2" transform="translate(317.7 501.79)"><tspan xml:space="preserve"> 2 p</tspan><tspan class="cls-3" x="24.52" y="0">r</tspan><tspan class="cls-4" x="29.73" y="0">o</tspan><tspan class="cls-5" x="38.1" y="0">y</tspan><tspan x="45.53" y="0">ec</tspan><tspan class="cls-6" x="61.46" y="0">t</tspan><tspan x="66.31" y="0">os</tspan></text><path class="cls-7" d="M306.48,497.26h1.3l.2-1,.17,0a4.12,4.12,0,0,0,1-.41l.14-.09.86.53.92-.95-.56-.85.08-.14a3.81,3.81,0,0,0,.4-1l0-.17,1-.23v-1.33l-1-.2,0-.16a3.48,3.48,0,0,0-.41-1l-.08-.14.52-.86-1-.92-.84.56-.15-.09a3.65,3.65,0,0,0-1-.39l-.17,0-.23-1h-1.32l-.21,1-.16,0a4,4,0,0,0-1,.42l-.14.08-.84-.54-.92,1,.56.84-.09.15a3.65,3.65,0,0,0-.39,1l0,.16-1,.24v1.32l1,.2,0,.17a4.18,4.18,0,0,0,.42,1l.08.14-.52.86,1,.92.84-.56.15.08a3.55,3.55,0,0,0,1,.4l.16,0Zm2.59-4.93a2,2,0,1,1-2-2A2,2,0,0,1,309.07,492.33Z"/><path class="cls-7" d="M312.75,503.78h.92l.14-.69.11,0a2.49,2.49,0,0,0,.69-.29l.1-.06.6.37.65-.67-.39-.59.06-.1a2.63,2.63,0,0,0,.28-.7l0-.11.69-.17v-.93l-.69-.14,0-.12a3.07,3.07,0,0,0-.3-.69l-.05-.1.36-.6-.66-.65-.6.39-.1,0a2.33,2.33,0,0,0-.7-.28l-.11,0-.17-.69h-.93l-.14.69-.12,0a2.77,2.77,0,0,0-.69.29l-.1.06-.59-.38-.64.66.39.6-.06.1a2.63,2.63,0,0,0-.28.7l0,.11-.69.17v.93l.69.14,0,.12a3.2,3.2,0,0,0,.29.69l.06.1-.36.6.66.65.6-.4.1.06a2.23,2.23,0,0,0,.7.28l.11,0Zm1.82-3.46a1.41,1.41,0,1,1-1.41-1.42A1.41,1.41,0,0,1,314.57,500.32Z"/><rect class="cls-8" x="304.95" y="490.41" width="2.36" height="11.25" transform="translate(440.41 -71.18) rotate(45)"/><polygon class="cls-9" points="299.17 504.43 301.31 499.18 304.66 502.52 299.17 504.43"/><rect class="cls-8" x="306.62" y="492.08" width="2.36" height="11.25" transform="translate(442.09 -71.87) rotate(45)"/><rect class="cls-10" x="312.45" y="487.67" width="2.7" height="4.73" transform="translate(882.2 614.64) rotate(135)"/><rect class="cls-11" x="310.55" y="489.58" width="2.7" height="4.73" transform="translate(880.29 619.25) rotate(135)"/><text class="cls-1" transform="translate(300.54 547.18)">Julcán</text><text class="cls-2" transform="translate(319.07 567.71)"><tspan xml:space="preserve"> 1 p</tspan><tspan class="cls-3" x="24.52" y="0">r</tspan><tspan class="cls-4" x="29.73" y="0">o</tspan><tspan class="cls-5" x="38.1" y="0">y</tspan><tspan x="45.53" y="0">ec</tspan><tspan class="cls-6" x="61.46" y="0">t</tspan><tspan x="66.31" y="0">o</tspan></text><path class="cls-7" d="M307.85,563.18h1.3l.21-1,.16-.05a3.48,3.48,0,0,0,1-.41l.14-.08.86.52.92-.95-.56-.84.09-.15a3.65,3.65,0,0,0,.39-1l0-.16,1-.24v-1.32l-1-.2,0-.17a4.18,4.18,0,0,0-.42-1l-.08-.14.52-.86-1-.92-.84.56-.15-.08a3.55,3.55,0,0,0-1-.4l-.16,0-.24-1H307.7l-.2,1-.17,0a3.74,3.74,0,0,0-1,.41l-.14.09-.84-.54-.92.94.56.85-.08.14a3.49,3.49,0,0,0-.4,1l0,.17-1,.23V559l1,.2.05.17a3.55,3.55,0,0,0,.41,1l.08.14-.52.86,1,.92.84-.56.15.09a3.65,3.65,0,0,0,1,.39l.16,0Zm2.59-4.93a2,2,0,1,1-2-2A2,2,0,0,1,310.44,558.25Z"/><path class="cls-7" d="M314.12,569.7H315l.14-.69.12,0a3,3,0,0,0,.68-.29l.1-.06.61.37.64-.67-.39-.6.06-.1a2.5,2.5,0,0,0,.28-.7l0-.11.69-.17v-.93l-.69-.14,0-.12a2.57,2.57,0,0,0-.29-.68l-.06-.1.37-.61-.67-.64-.59.39-.11-.06a2.5,2.5,0,0,0-.7-.28l-.11,0-.17-.69H314l-.14.69-.12,0a3,3,0,0,0-.68.29l-.1.06-.6-.38-.64.67.39.59-.06.11a2.94,2.94,0,0,0-.28.69l0,.12-.69.16v.93l.69.15,0,.11a2.49,2.49,0,0,0,.29.69l.05.1-.36.6.66.65.6-.39.1.06a2.63,2.63,0,0,0,.7.28l.11,0Zm1.82-3.47a1.41,1.41,0,1,1-1.41-1.41A1.41,1.41,0,0,1,315.94,566.23Z"/><rect class="cls-8" x="306.32" y="556.33" width="2.36" height="11.25" transform="translate(487.42 -52.84) rotate(45)"/><polygon class="cls-9" points="300.54 570.34 302.69 565.09 306.03 568.43 300.54 570.34"/><rect class="cls-8" x="307.99" y="558" width="2.36" height="11.25" transform="translate(489.1 -53.54) rotate(45)"/><rect class="cls-10" x="313.83" y="553.58" width="2.7" height="4.73" transform="translate(931.15 726.2) rotate(135)"/><rect class="cls-11" x="311.92" y="555.49" width="2.7" height="4.73" transform="translate(929.24 730.8) rotate(135)"/><line class="cls-14" x1="122.44" y1="254.39" x2="121.45" y2="256.13"/><line class="cls-19" x1="119.52" y1="259.52" x2="97.28" y2="298.47"/><line class="cls-14" x1="96.32" y1="300.17" x2="95.33" y2="301.9"/><circle class="cls-16" cx="94.88" cy="302.38" r="1.57"/><circle class="cls-16" cx="122.74" cy="254.07" r="1.57"/><text class="cls-1" transform="translate(152.32 276.29)">G<tspan class="cls-20" x="8.2" y="0">r</tspan><tspan x="12.01" y="0">an Chismú</tspan></text><text class="cls-2" transform="translate(170.85 296.82)"><tspan xml:space="preserve"> 0 p</tspan><tspan class="cls-3" x="24.52" y="0">r</tspan><tspan class="cls-4" x="29.73" y="0">o</tspan><tspan class="cls-5" x="38.1" y="0">y</tspan><tspan x="45.53" y="0">ec</tspan><tspan class="cls-6" x="61.46" y="0">t</tspan><tspan x="66.31" y="0">os</tspan></text><path class="cls-7" d="M159.63,292.29h1.31l.2-1,.16-.05a3.48,3.48,0,0,0,1-.41l.14-.08.86.52.92-1-.56-.84.09-.15a3.65,3.65,0,0,0,.39-1l0-.16,1-.24v-1.32l-1-.21,0-.16a4,4,0,0,0-.42-1l-.08-.14.52-.86-.95-.92-.84.56-.15-.08a3.27,3.27,0,0,0-1-.4l-.16,0-.24-1h-1.32l-.2,1-.17.05a3.74,3.74,0,0,0-1,.41L158,284l-.84-.53-.92.94.56.85-.08.14a3.68,3.68,0,0,0-.4,1l0,.17-1,.23v1.32l1,.21,0,.16a3.48,3.48,0,0,0,.41,1l.08.14-.52.86.95.92.84-.56.15.09a3.65,3.65,0,0,0,1,.39l.17,0Zm2.59-4.93a2,2,0,1,1-2-2A2,2,0,0,1,162.22,287.36Z"/><path class="cls-7" d="M165.9,298.81h.92l.14-.69.12,0a3.28,3.28,0,0,0,.69-.3l.09-.05.61.36.65-.66-.4-.6.06-.1a2.5,2.5,0,0,0,.28-.7l0-.11.69-.17v-.93l-.69-.14,0-.12a2.77,2.77,0,0,0-.29-.69l-.06-.09.37-.61-.67-.64-.59.39-.11-.06a2.57,2.57,0,0,0-.69-.28l-.12,0-.17-.69h-.92l-.15.69-.11,0a2.49,2.49,0,0,0-.69.29l-.1.06-.59-.38-.65.67.39.59-.06.1a3,3,0,0,0-.28.7l0,.12-.69.16v.93l.69.15,0,.11a2.49,2.49,0,0,0,.29.69l.06.1-.37.6.67.65.59-.39.1.06a3,3,0,0,0,.7.28l.12,0Zm1.82-3.47a1.41,1.41,0,1,1-1.41-1.41A1.41,1.41,0,0,1,167.72,295.34Z"/><rect class="cls-8" x="158.1" y="285.43" width="2.36" height="11.25" transform="translate(252.46 -27.38) rotate(45)"/><polygon class="cls-9" points="152.32 299.45 154.47 294.2 157.81 297.54 152.32 299.45"/><rect class="cls-8" x="159.77" y="287.11" width="2.36" height="11.25" transform="translate(254.13 -28.07) rotate(45)"/><rect class="cls-10" x="165.61" y="282.69" width="2.7" height="4.73" transform="translate(486.58 368.56) rotate(135)"/><rect class="cls-11" x="163.7" y="284.6" width="2.7" height="4.73" transform="translate(484.67 373.17) rotate(135)"/><text class="cls-1" transform="translate(222.1 175.64)">Otu<tspan class="cls-21" x="18.57" y="0">z</tspan><tspan x="24.31" y="0">co</tspan></text><text class="cls-2" transform="translate(244.63 196.16)">3 p<tspan class="cls-3" x="20.79" y="0">r</tspan><tspan class="cls-4" x="25.99" y="0">o</tspan><tspan class="cls-5" x="34.37" y="0">y</tspan><tspan x="41.8" y="0">ec</tspan><tspan class="cls-6" x="57.73" y="0">t</tspan><tspan x="62.58" y="0">os</tspan></text><path class="cls-7" d="M229.41,191.63h1.3l.21-1,.16,0a3.48,3.48,0,0,0,1-.41l.14-.08.86.52.92-.95-.56-.84.09-.15a3.65,3.65,0,0,0,.39-1l0-.17,1-.23V186l-1-.21,0-.16a3.86,3.86,0,0,0-.42-1l-.08-.14.52-.86-.95-.92-.84.56-.15-.09a3.65,3.65,0,0,0-1-.39l-.16,0-.24-1h-1.32l-.2,1-.17,0a3.74,3.74,0,0,0-1,.41l-.14.08-.84-.53-.92.94.56.85-.08.14a3.38,3.38,0,0,0-.4,1l0,.17-1,.23v1.32l1,.21.05.16a3.61,3.61,0,0,0,.41,1l.08.14-.52.86.95.92.84-.56.15.08a3.38,3.38,0,0,0,1,.4l.16,0Zm2.59-4.92a2,2,0,1,1-2-2A2,2,0,0,1,232,186.71Z"/><path class="cls-7" d="M235.68,198.15h.92l.14-.69.12,0a3,3,0,0,0,.68-.3l.1,0,.61.36.64-.66-.39-.6.06-.1a2.63,2.63,0,0,0,.28-.7l0-.11.69-.17v-.93l-.69-.14,0-.12a3.2,3.2,0,0,0-.29-.69l-.06-.09.37-.61-.67-.65-.6.4-.1-.06a2.5,2.5,0,0,0-.7-.28l-.11,0-.17-.69h-.93l-.14.69-.12,0a2.57,2.57,0,0,0-.68.29l-.1.06-.6-.38-.64.67.39.59-.06.1a2.63,2.63,0,0,0-.28.7l0,.12-.69.16v.93l.7.14,0,.12a2.49,2.49,0,0,0,.29.69l0,.1-.36.6.66.65.6-.39.1.06a2.6,2.6,0,0,0,.7.27l.11,0Zm1.82-3.46a1.41,1.41,0,1,1-1.41-1.41A1.41,1.41,0,0,1,237.5,194.69Z"/><rect class="cls-8" x="227.88" y="184.78" width="2.36" height="11.25" transform="translate(201.73 -106.2) rotate(45)"/><polygon class="cls-9" points="222.1 198.8 224.25 193.55 227.59 196.89 222.1 198.8"/><rect class="cls-8" x="229.55" y="186.46" width="2.36" height="11.25" transform="translate(203.4 -106.89) rotate(45)"/><rect class="cls-10" x="235.39" y="182.04" width="2.7" height="4.73" transform="translate(534.53 147.4) rotate(135)"/><rect class="cls-11" x="233.48" y="183.95" width="2.7" height="4.73" transform="translate(532.62 152.01) rotate(135)"/><line class="cls-14" x1="169.2" y1="304.83" x2="170.5" y2="306.34"/><line class="cls-22" x1="173" y1="309.24" x2="186.75" y2="325.18"/><line class="cls-14" x1="188" y1="326.63" x2="189.31" y2="328.15"/><circle class="cls-16" cx="189.16" cy="328.79" r="1.57"/><circle class="cls-16" cx="169.3" cy="304.4" r="1.57"/><text class="cls-1" transform="translate(378.86 199.17)">Boli<tspan class="cls-4" x="19.45" y="0">v</tspan><tspan x="25.14" y="0">ar</tspan></text><text class="cls-2" transform="translate(401.58 219.7)">2 p<tspan class="cls-3" x="20.79" y="0">r</tspan><tspan class="cls-4" x="25.99" y="0">o</tspan><tspan class="cls-5" x="34.37" y="0">y</tspan><tspan x="41.8" y="0">ec</tspan><tspan class="cls-6" x="57.73" y="0">t</tspan><tspan x="62.58" y="0">os</tspan></text><path class="cls-7" d="M386.17,215.17h1.3l.2-1,.17,0a4.18,4.18,0,0,0,1-.42l.14-.08.85.52.92-.95-.55-.84.08-.15a3.55,3.55,0,0,0,.4-1l0-.16,1-.24,0-1.32-1-.2,0-.17a4.12,4.12,0,0,0-.41-1l-.09-.14.53-.85-.95-.92-.85.55-.14-.08a3.81,3.81,0,0,0-1-.4l-.17,0-.23-1-1.33,0-.2,1-.16,0a4.19,4.19,0,0,0-1,.41l-.15.09-.84-.54-.91.94.56.85-.09.15a3.88,3.88,0,0,0-.4,1l0,.16-1,.24,0,1.32,1,.2,0,.17a4,4,0,0,0,.42,1l.08.14-.52.86.94.92.85-.56.14.09a4.1,4.1,0,0,0,1,.4l.16,0Zm2.59-4.93a2,2,0,1,1-2-2A2,2,0,0,1,388.76,210.24Z"/><path class="cls-7" d="M392.44,221.69h.91l.15-.69.11,0a2.49,2.49,0,0,0,.69-.29l.1-.06.6.37.65-.67-.39-.59.06-.11a2.94,2.94,0,0,0,.28-.69l0-.12.69-.17v-.92l-.69-.15,0-.11a2.49,2.49,0,0,0-.29-.69l-.06-.1.37-.6-.67-.65-.59.39-.1-.06a2.63,2.63,0,0,0-.7-.28l-.11,0-.17-.7h-.93l-.14.7-.12,0a3.07,3.07,0,0,0-.69.3l-.1.06-.59-.38-.65.66.4.6-.06.1a2.5,2.5,0,0,0-.28.7l0,.11-.69.17v.93l.69.14,0,.12a2.57,2.57,0,0,0,.29.68l.06.1-.37.61.67.64.59-.39.11.06a2.57,2.57,0,0,0,.69.28l.12,0Zm1.82-3.47a1.41,1.41,0,1,1-1.41-1.41A1.41,1.41,0,0,1,394.26,218.22Z"/><rect class="cls-8" x="384.63" y="208.32" width="2.36" height="11.25" transform="translate(264.28 -210.15) rotate(45)"/><polygon class="cls-9" points="378.86 222.34 381 217.08 384.35 220.43 378.86 222.34"/><rect class="cls-8" x="386.31" y="209.99" width="2.36" height="11.25" transform="translate(265.95 -210.84) rotate(45)"/><rect class="cls-10" x="392.14" y="205.57" width="2.7" height="4.73" transform="translate(818.77 76.73) rotate(135)"/><rect class="cls-11" x="390.23" y="207.48" width="2.7" height="4.73" transform="translate(816.86 81.34) rotate(135)"/><line class="cls-14" x1="372.98" y1="219.4" x2="371.56" y2="220.82"/><line class="cls-15" x1="368.83" y1="223.54" x2="337.41" y2="254.82"/><line class="cls-14" x1="336.04" y1="256.18" x2="334.62" y2="257.59"/><circle class="cls-16" cx="334.17" cy="258.07" r="1.57"/><circle class="cls-16" cx="373.28" cy="219.09" r="1.57"/><text class="cls-1" transform="translate(395.69 293.43)">Sánchez Carrión</text><text class="cls-2" transform="translate(414.22 313.96)"><tspan xml:space="preserve"> 1 p</tspan><tspan class="cls-3" x="24.52" y="0">r</tspan><tspan class="cls-4" x="29.73" y="0">o</tspan><tspan class="cls-5" x="38.1" y="0">y</tspan><tspan x="45.53" y="0">ec</tspan><tspan class="cls-6" x="61.46" y="0">t</tspan><tspan x="66.31" y="0">o</tspan></text><path class="cls-7" d="M403,309.43h1.3l.2-1,.17,0a4.18,4.18,0,0,0,1-.42l.14-.08.85.52.93-.95-.56-.84.08-.15a3.55,3.55,0,0,0,.4-1l0-.16,1-.24v-1.32l-1-.2,0-.17a3.74,3.74,0,0,0-.41-1l-.08-.14.52-.85-.95-.93-.85.56-.14-.08a3.81,3.81,0,0,0-1-.4l-.17,0-.23-1h-1.32l-.21,1-.16,0a3.48,3.48,0,0,0-1,.41l-.14.09-.84-.54-.92.94.56.85-.09.14a4.1,4.1,0,0,0-.4,1l0,.16-1,.24,0,1.32,1,.2,0,.17a4,4,0,0,0,.42,1l.08.14-.52.86.94.92.85-.56.15.09a3.88,3.88,0,0,0,1,.4l.16,0Zm2.59-4.93a2,2,0,1,1-2-2A2,2,0,0,1,405.59,304.5Z"/><path class="cls-7" d="M409.27,316h.91l.15-.69.11,0a2.49,2.49,0,0,0,.69-.29l.1-.06.6.37.65-.67-.39-.59.06-.11a2.94,2.94,0,0,0,.28-.69l0-.12.69-.17V312l-.69-.14,0-.12a2.57,2.57,0,0,0-.29-.68l-.05-.1.36-.6-.66-.65-.6.39-.1-.06a2.63,2.63,0,0,0-.7-.28l-.11,0-.17-.69h-.93l-.14.69-.12,0a3.28,3.28,0,0,0-.69.3l-.1,0-.59-.37-.64.66.39.59-.06.11a2.5,2.5,0,0,0-.28.7l0,.11-.69.17V313l.69.14,0,.12a2.57,2.57,0,0,0,.29.68l.06.1-.37.6.67.65.6-.39.1.06a2.5,2.5,0,0,0,.7.28l.11,0Zm1.82-3.47a1.41,1.41,0,1,1-1.41-1.41A1.41,1.41,0,0,1,411.09,312.48Z"/><rect class="cls-8" x="401.46" y="302.58" width="2.36" height="11.25" transform="translate(335.86 -194.44) rotate(45)"/><polygon class="cls-9" points="395.69 316.6 397.83 311.34 401.18 314.69 395.69 316.6"/><rect class="cls-8" x="403.14" y="304.25" width="2.36" height="11.25" transform="translate(337.54 -195.14) rotate(45)"/><rect class="cls-10" x="408.97" y="299.83" width="2.7" height="4.73" transform="translate(914.15 225.74) rotate(135)"/><rect class="cls-11" x="407.06" y="301.74" width="2.7" height="4.73" transform="translate(912.24 230.35) rotate(135)"/><line class="cls-14" x1="389.81" y1="313.66" x2="388.39" y2="315.08"/><line class="cls-15" x1="385.66" y1="317.8" x2="354.24" y2="349.08"/><line class="cls-14" x1="352.87" y1="350.44" x2="351.45" y2="351.85"/><circle class="cls-16" cx="351" cy="352.33" r="1.57"/><circle class="cls-16" cx="390.11" cy="313.35" r="1.57"/><text class="cls-1" transform="translate(411.98 530.92)"><tspan class="cls-18">P</tspan><tspan x="7.32" y="0">ataz</tspan></text><text class="cls-2" transform="translate(430.51 551.44)"><tspan xml:space="preserve"> 0 p</tspan><tspan class="cls-3" x="24.52" y="0">r</tspan><tspan class="cls-4" x="29.73" y="0">o</tspan><tspan class="cls-5" x="38.1" y="0">y</tspan><tspan x="45.53" y="0">ec</tspan><tspan class="cls-6" x="61.46" y="0">t</tspan><tspan x="66.31" y="0">os</tspan></text><path class="cls-7" d="M419.29,546.91h1.3l.2-1,.17-.05a3.74,3.74,0,0,0,1-.41l.14-.08.85.52.92-.95-.55-.84.08-.15a3.68,3.68,0,0,0,.4-1l0-.16,1-.24,0-1.32-1-.21,0-.16a4.37,4.37,0,0,0-.41-1l-.09-.14.53-.86-1-.92-.85.56-.14-.08a3.43,3.43,0,0,0-1-.4l-.16,0-.23-1h-1.33l-.2,1-.17.05a3.55,3.55,0,0,0-1,.41l-.15.08-.84-.53-.91.94.55.85-.08.14a4,4,0,0,0-.4,1l0,.17-1,.23,0,1.32,1,.21,0,.16a3.86,3.86,0,0,0,.42,1l.08.14-.52.86.94.92.85-.56.14.09a3.71,3.71,0,0,0,1,.39l.16,0Zm2.59-4.92a2,2,0,1,1-2-2A2,2,0,0,1,421.88,542Z"/><path class="cls-7" d="M425.56,553.44h.91l.15-.69.11,0a2.89,2.89,0,0,0,.69-.3l.1,0,.6.36.65-.66-.39-.6.06-.1a2.85,2.85,0,0,0,.28-.7l0-.11.69-.17v-.93l-.69-.14,0-.12a2.77,2.77,0,0,0-.29-.69l-.06-.09.37-.61-.67-.65-.59.4-.1-.06a2.63,2.63,0,0,0-.7-.28l-.12,0-.16-.69h-.93l-.14.69-.12,0a2.62,2.62,0,0,0-.69.29l-.1.06-.59-.38-.65.67.4.59-.06.1a2.63,2.63,0,0,0-.28.7l0,.12-.69.16v.93l.69.15,0,.11a2.49,2.49,0,0,0,.29.69l.06.1-.37.6.67.65.59-.39.11.06a2.94,2.94,0,0,0,.69.28l.12,0Zm1.82-3.47a1.41,1.41,0,1,1-1.41-1.41A1.41,1.41,0,0,1,427.38,550Z"/><rect class="cls-8" x="417.75" y="540.06" width="2.36" height="11.25" transform="translate(508.56 -136.4) rotate(45)"/><polygon class="cls-9" points="411.98 554.08 414.12 548.83 417.47 552.17 411.98 554.08"/><rect class="cls-8" x="419.43" y="541.74" width="2.36" height="11.25" transform="translate(510.24 -137.1) rotate(45)"/><rect class="cls-10" x="425.26" y="537.32" width="2.7" height="4.73" transform="translate(1109.89 619.64) rotate(135)"/><rect class="cls-11" x="423.35" y="539.23" width="2.7" height="4.73" transform="translate(1107.98 624.25) rotate(135)"/><line class="cls-14" x1="426.83" y1="466.81" x2="426.83" y2="468.81"/><line class="cls-23" x1="426.82" y1="472.8" x2="426.72" y2="510.76"/><line class="cls-14" x1="426.72" y1="512.76" x2="426.71" y2="514.76"/><circle class="cls-16" cx="426.73" cy="515.42" r="1.57"/><circle class="cls-16" cx="426.82" cy="466.37" r="1.57"/><text class="cls-1" transform="translate(50.41 414.17)">Ascope</text><text class="cls-2" transform="translate(68.94 434.7)"><tspan xml:space="preserve"> 2 p</tspan><tspan class="cls-3" x="24.52" y="0">r</tspan><tspan class="cls-4" x="29.73" y="0">o</tspan><tspan class="cls-5" x="38.1" y="0">y</tspan><tspan x="45.53" y="0">ec</tspan><tspan class="cls-6" x="61.46" y="0">t</tspan><tspan x="66.31" y="0">os</tspan></text><path class="cls-7" d="M57.72,430.17H59l.21-1,.16,0a4,4,0,0,0,1-.42l.14-.08.86.52.92-.94-.56-.85.08-.15a3.27,3.27,0,0,0,.4-1l0-.16,1-.24v-1.32l-1-.2-.05-.17a3.55,3.55,0,0,0-.41-1L61.7,423l.52-.86-.95-.92-.84.55-.15-.08a4,4,0,0,0-1-.4l-.16,0-.24-1-1.32,0-.21,1-.16,0a4.18,4.18,0,0,0-1,.42l-.14.08-.84-.54-.92.95.56.84-.09.15a3.52,3.52,0,0,0-.39,1l0,.16-1,.24V426l1,.2,0,.17a4.18,4.18,0,0,0,.42,1l.08.14-.52.85,1,.92.84-.55.15.08a3.55,3.55,0,0,0,1,.4l.16,0Zm2.59-4.93a2,2,0,1,1-2-2A2,2,0,0,1,60.31,425.24Z"/><path class="cls-7" d="M64,436.69h.92l.14-.69.12,0a2.57,2.57,0,0,0,.68-.29l.1-.06.61.37.64-.67-.39-.59.06-.11a2.57,2.57,0,0,0,.28-.69l0-.12.69-.16v-.93l-.69-.15,0-.11a2.54,2.54,0,0,0-.3-.69l0-.1.36-.6-.66-.65-.6.39-.1-.06a2.85,2.85,0,0,0-.7-.28l-.11,0-.17-.69h-.93l-.14.69-.12,0a2.57,2.57,0,0,0-.68.29l-.11.06-.59-.38-.64.66.39.6-.06.1a2.5,2.5,0,0,0-.28.7l0,.11-.69.17v.93l.69.14,0,.12a3,3,0,0,0,.3.68l0,.1-.36.61.66.64.6-.39.1.06a2.5,2.5,0,0,0,.7.28l.11,0Zm1.82-3.47a1.41,1.41,0,1,1-1.41-1.41A1.41,1.41,0,0,1,65.81,433.22Z"/><rect class="cls-8" x="56.19" y="423.32" width="2.36" height="11.25" transform="translate(320.11 85.07) rotate(45)"/><polygon class="cls-9" points="50.41 437.34 52.56 432.08 55.9 435.43 50.41 437.34"/><rect class="cls-8" x="57.86" y="424.99" width="2.36" height="11.25" transform="translate(321.78 84.38) rotate(45)"/><rect class="cls-10" x="63.7" y="420.58" width="2.7" height="4.73" transform="translate(410.1 676.01) rotate(135)"/><rect class="cls-11" x="61.79" y="422.48" width="2.7" height="4.73" transform="translate(408.19 680.62) rotate(135)"/><text class="cls-2" transform="translate(103.3 498.67)"><tspan xml:space="preserve"> 1 p</tspan><tspan class="cls-3" x="24.52" y="0">r</tspan><tspan class="cls-4" x="29.73" y="0">o</tspan><tspan class="cls-5" x="38.1" y="0">y</tspan><tspan x="45.53" y="0">ec</tspan><tspan class="cls-6" x="61.46" y="0">t</tspan><tspan x="66.31" y="0">o</tspan></text><path class="cls-7" d="M92.08,494.14h1.3l.2-1,.17,0a3.74,3.74,0,0,0,1-.41l.14-.08.86.52.92-.95-.56-.85.08-.14a3.68,3.68,0,0,0,.4-1l0-.17,1-.23V488.5l-1-.21,0-.16a3.48,3.48,0,0,0-.41-1l-.08-.14.52-.86-1-.92-.85.56-.14-.09a3.65,3.65,0,0,0-1-.39l-.17,0-.23-1H91.93l-.21,1-.16,0a3.86,3.86,0,0,0-1,.42l-.14.08-.84-.53-.92.94.56.84-.09.15a3.65,3.65,0,0,0-.39,1l0,.17-1,.23v1.32l1,.21,0,.16a4,4,0,0,0,.42,1l.08.14-.52.86.94.92.85-.56.15.08a3.27,3.27,0,0,0,1,.4l.16,0Zm2.59-4.92a2,2,0,1,1-2-2A2,2,0,0,1,94.67,489.22Z"/><path class="cls-7" d="M98.35,500.66h.91l.15-.69.11,0a2.89,2.89,0,0,0,.69-.3l.1,0,.6.36.65-.66-.39-.6.06-.1a2.63,2.63,0,0,0,.28-.7l0-.11.69-.17v-.93l-.7-.14,0-.12a3.28,3.28,0,0,0-.3-.69l0-.1.36-.6-.66-.65-.6.4-.1-.06a2.63,2.63,0,0,0-.7-.28l-.11,0-.17-.69h-.93l-.14.69-.12,0a2.77,2.77,0,0,0-.69.29l-.1.06-.59-.38-.64.67.39.59-.06.1a2.63,2.63,0,0,0-.28.7l0,.12-.69.16v.93l.69.14,0,.12a3,3,0,0,0,.29.69l.06.1-.37.6.67.65.6-.39.1.06a2.48,2.48,0,0,0,.7.27l.11,0Zm1.82-3.46a1.41,1.41,0,1,1-1.41-1.41A1.41,1.41,0,0,1,100.17,497.2Z"/><rect class="cls-8" x="90.55" y="487.29" width="2.36" height="11.25" transform="translate(375.41 79.51) rotate(45)"/><polygon class="cls-9" points="84.77 501.31 86.91 496.06 90.26 499.4 84.77 501.31"/><rect class="cls-8" x="92.22" y="488.96" width="2.36" height="11.25" transform="translate(377.08 78.82) rotate(45)"/><rect class="cls-10" x="98.05" y="484.55" width="2.7" height="4.73" transform="translate(513.99 760.93) rotate(135)"/><rect class="cls-11" x="96.15" y="486.46" width="2.7" height="4.73" transform="translate(512.08 765.53) rotate(135)"/><text class="cls-1" transform="translate(204.91 585.7)">Virú</text><text class="cls-2" transform="translate(225.66 604.11)"><tspan xml:space="preserve"> 0 p</tspan><tspan class="cls-3" x="24.52" y="0">r</tspan><tspan class="cls-4" x="29.73" y="0">o</tspan><tspan class="cls-5" x="38.1" y="0">y</tspan><tspan x="45.53" y="0">ec</tspan><tspan class="cls-6" x="61.46" y="0">t</tspan><tspan x="66.31" y="0">os</tspan></text><path class="cls-7" d="M210.72,599.58H212l.21-1,.16,0a3.61,3.61,0,0,0,1-.41l.14-.08.86.52.92-1-.56-.84.08-.15a3.38,3.38,0,0,0,.4-1l0-.16,1-.24v-1.32l-1-.21-.05-.16a3.61,3.61,0,0,0-.41-1l-.08-.14.52-.86-.95-.92-.84.56-.15-.08a3.38,3.38,0,0,0-1-.4l-.16,0-.24-1h-1.32l-.2,1-.17,0a3.74,3.74,0,0,0-1,.41l-.14.08-.84-.53-.92.94.56.85-.09.14a3.65,3.65,0,0,0-.39,1l0,.17-1,.23v1.32l1,.21,0,.16a3.86,3.86,0,0,0,.42,1l.08.14-.52.86,1,.92.84-.56.15.09a3.52,3.52,0,0,0,1,.39l.16,0Zm2.59-4.92a2,2,0,1,1-2-2A2,2,0,0,1,213.31,594.66Z"/><path class="cls-7" d="M217,606.1h.92l.14-.68.12,0a3,3,0,0,0,.68-.3l.1-.05.61.36.64-.66-.39-.6.06-.1a2.5,2.5,0,0,0,.28-.7l0-.11.69-.17v-.93l-.69-.14,0-.12a3.2,3.2,0,0,0-.29-.69l-.06-.09.37-.61-.67-.65-.6.4-.1-.06a2.5,2.5,0,0,0-.7-.28l-.11,0-.17-.69h-.93l-.14.69-.12,0a2.57,2.57,0,0,0-.68.29l-.11.06-.59-.38-.64.67.39.59-.06.1a2.63,2.63,0,0,0-.28.7l0,.12-.7.16v.93l.7.15,0,.11a2.89,2.89,0,0,0,.3.69l0,.1-.36.6.66.65.6-.39.1.06a3,3,0,0,0,.7.28l.11,0Zm1.82-3.46a1.41,1.41,0,1,1-1.41-1.41A1.41,1.41,0,0,1,218.81,602.64Z"/><rect class="cls-8" x="209.19" y="592.73" width="2.36" height="11.25" transform="translate(484.72 26.5) rotate(45)"/><polygon class="cls-9" points="203.41 606.75 205.56 601.5 208.9 604.84 203.41 606.75"/><rect class="cls-8" x="210.86" y="594.41" width="2.36" height="11.25" transform="translate(486.39 25.81) rotate(45)"/><rect class="cls-10" x="216.7" y="589.99" width="2.7" height="4.73" transform="translate(791.08 857.03) rotate(135)"/><rect class="cls-11" x="214.79" y="591.9" width="2.7" height="4.73" transform="translate(789.18 861.64) rotate(135)"/><line class="cls-14" x1="134.42" y1="371.35" x2="133" y2="372.76"/><line class="cls-15" x1="130.27" y1="375.48" x2="98.84" y2="406.77"/><line class="cls-14" x1="97.48" y1="408.13" x2="96.06" y2="409.54"/><circle class="cls-16" cx="95.61" cy="410.02" r="1.57"/><circle class="cls-16" cx="134.72" cy="371.04" r="1.57"/><line class="cls-14" x1="174.39" y1="440.96" x2="172.8" y2="442.17"/><line class="cls-24" x1="169.41" y1="444.74" x2="130.47" y2="474.27"/><line class="cls-14" x1="128.77" y1="475.55" x2="127.18" y2="476.76"/><circle class="cls-16" cx="126.73" cy="477.24" r="1.57"/><circle class="cls-16" cx="174.69" cy="440.65" r="1.57"/><line class="cls-14" x1="217.43" y1="515.85" x2="217.43" y2="517.85"/><line class="cls-15" x1="217.42" y1="521.71" x2="217.32" y2="566.05"/><line class="cls-14" x1="217.31" y1="567.98" x2="217.31" y2="569.98"/><circle class="cls-16" cx="217.33" cy="570.63" r="1.57"/><circle class="cls-16" cx="217.42" cy="515.42" r="1.57"/><line class="cls-14" x1="277.06" y1="424.06" x2="278.39" y2="425.56"/><line class="cls-25" x1="281.24" y1="428.77" x2="308.3" y2="459.32"/><line class="cls-14" x1="309.73" y1="460.92" x2="311.06" y2="462.42"/><circle class="cls-16" cx="311.53" cy="462.87" r="1.57"/><circle class="cls-16" cx="276.74" cy="423.76" r="1.57"/><line class="cls-14" x1="245.22" y1="435.86" x2="246.08" y2="437.67"/><line class="cls-26" x1="247.76" y1="441.17" x2="293.93" y2="537.41"/><line class="cls-14" x1="294.77" y1="539.16" x2="295.63" y2="540.96"/><circle class="cls-16" cx="295.63" cy="540.96" r="1.57"/><circle class="cls-16" cx="245.22" cy="435.86" r="1.57"/></svg>