<svg id="Capa_1" data-name="Capa 1" xmlns="http://www.w3.org/2000/svg" viewBox="0 0 554 932"><defs><style>.cls-1{fill:#71c2e9;stroke:#377c9c;stroke-width:3px;}.cls-1,.cls-19,.cls-20{stroke-miterlimit:1.75;}.cls-2{font-size:12px;font-family:Roboto-Light, Roboto;font-weight:300;}.cls-15,.cls-2,.cls-5{fill:#1d1d1b;}.cls-3{letter-spacing:-0.01em;}.cls-4{letter-spacing:-0.01em;}.cls-5{font-size:15px;font-family:Roboto-Bold, Roboto;font-weight:700;}.cls-6{letter-spacing:-0.02em;}.cls-7{letter-spacing:-0.01em;}.cls-13,.cls-14,.cls-8{fill:none;}.cls-10,.cls-11,.cls-12,.cls-8,.cls-9{stroke:#262626;stroke-linecap:round;stroke-width:0.5px;}.cls-10,.cls-11,.cls-12,.cls-13,.cls-14,.cls-8,.cls-9{stroke-linejoin:round;}.cls-9{fill:#fab637;}.cls-10{fill:#ffe7a1;}.cls-11{fill:#4ca8de;}.cls-12{fill:#cfcece;}.cls-13,.cls-14{stroke:#0b0c0c;}.cls-14{stroke-dasharray:3.86 3.86;}.cls-16{letter-spacing:-0.01em;}.cls-17{letter-spacing:-0.01em;}.cls-18{letter-spacing:-0.01em;}.cls-19{fill:#afd28c;stroke:#71915a;isolation:isolate;}.cls-20{fill:#ec6062;stroke:#cc444b;}</style></defs><path class="cls-1" d="M362.71,392.77l.83,17.22,12.38-3.94,8.42,20.33-6.65,8.06,16.64,10.3,16.55-1.18L421,454.81l11.37-4.15L437.8,470l-47.3,30.81,3.57,24.75-6,6.09L354.67,512l-13.19,6-45.43,51.49,1.1-14.12L236,493.85l-2.62-13.15,12.09-22.76,15.68-1.46,12.27-10.88,38.94,5.57-.07-12.37,8.81-5-13.06-15.19-3.89-24.65,46.22,9.23Z"/><path class="cls-1" d="M380.39,271l8.1,15.9,4.64-14.3L411.91,290l5.22-7.64,6.9,3.35-1.42,12.91-13.23,1.1-9.52,13.45,6,19.1-25.79,19.82-17.39,1.6L353.81,369l8.9,23.76-11,10.43-28.59-1.29-14.75,6.67L308.28,419l12.86,14.52-8.81,5.25.07,12.37-9.65,3.3-7.5-3.36-35.16-10,2.73-40.95,9.34-5.37-4.1-10.15,37.62,5.12,30.75-13.84-3.6-11.06L349,356.35l18.92-36.8-7.39-8.24,6.16-14.08-3.44-18.1,6.14-8.48Z"/><path class="cls-1" d="M248,150l12.51,38,21.92,7.62-5.24,8.07,12.31,7.91-5,24.46L298,238.09l15-12.18-3.69,15.41,9,19.95,25.58-6.07,19.88,13.68,2.94,28.35-6.16,14.08,7.39,8.24L349,356.35l-16.15,8.51,2.69,11.71-29.84,13.19-37.62-5.12,4.1,10.15-9.34,5.37-1.53,40.61,12.17,4.83-12.27,10.88-15.68,1.46L233.42,480.7l-10.86-18.29L175,427.28,63.06,369l72.75-104.16,34.47-15.4,18-.19,16.88-18.67-11.67-13.66,1.93-14.67,8.48-4.54,2.05-30.09,23,4.49,3.64-16.59Z"/><text class="cls-2" transform="translate(344.83 206.95)">Lamb<tspan class="cls-3" x="30.04" y="0">a</tspan><tspan class="cls-4" x="36.38" y="0">y</tspan><tspan x="42" y="0">eque</tspan></text><text class="cls-5" transform="translate(367.55 227.48)">3 p<tspan class="cls-6" x="20.79" y="0">r</tspan><tspan class="cls-3" x="25.99" y="0">o</tspan><tspan class="cls-4" x="34.37" y="0">y</tspan><tspan x="41.8" y="0">ec</tspan><tspan class="cls-7" x="57.73" y="0">t</tspan><tspan x="62.58" y="0">os</tspan></text><path class="cls-8" d="M352.14,222.94h1.3l.21-1,.16,0a3.61,3.61,0,0,0,1-.41l.14-.08.86.52.92-.95-.56-.84.08-.15a3.38,3.38,0,0,0,.4-1l0-.17,1-.23V217.3l-1-.21-.05-.16a3.61,3.61,0,0,0-.41-1l-.08-.14.52-.86-.95-.92-.84.56-.15-.08a3.38,3.38,0,0,0-1-.4l-.16,0-.24-1H352l-.2,1-.17,0a3.74,3.74,0,0,0-1,.41l-.14.08-.84-.53-.92.94.56.85-.09.14a3.65,3.65,0,0,0-.39,1l0,.17-1,.23v1.32l1,.21,0,.16a3.86,3.86,0,0,0,.42,1l.08.14-.52.86.95.92.84-.56.15.09a3.52,3.52,0,0,0,1,.39l.16,0Zm2.59-4.92a2,2,0,1,1-2-2A2,2,0,0,1,354.73,218Z"/><path class="cls-8" d="M358.41,229.46h.92l.14-.68.12,0a3,3,0,0,0,.68-.3l.1,0,.61.36.64-.66-.39-.6.06-.1a2.63,2.63,0,0,0,.28-.7l0-.11.69-.17v-.93l-.69-.14,0-.12a3.2,3.2,0,0,0-.29-.69l-.06-.09.36-.61-.66-.65-.6.4-.1-.06a2.5,2.5,0,0,0-.7-.28l-.11,0-.17-.69h-.93l-.14.69-.12,0a2.57,2.57,0,0,0-.68.29l-.11.06-.59-.38-.64.67.39.59-.06.1a2.63,2.63,0,0,0-.28.7l0,.12-.69.16v.93l.69.15,0,.11a2.89,2.89,0,0,0,.3.69l.05.1-.36.6.66.65.6-.39.1.06a3,3,0,0,0,.7.28l.11,0Zm1.82-3.46a1.41,1.41,0,1,1-1.41-1.41A1.41,1.41,0,0,1,360.23,226Z"/><rect class="cls-9" x="350.61" y="216.09" width="2.36" height="11.25" transform="translate(259.81 -183.81) rotate(45)"/><polygon class="cls-10" points="344.83 230.11 346.98 224.86 350.32 228.2 344.83 230.11"/><rect class="cls-9" x="352.28" y="217.77" width="2.36" height="11.25" transform="translate(261.49 -184.51) rotate(45)"/><rect class="cls-11" x="358.12" y="213.35" width="2.7" height="4.73" transform="translate(766.18 114.07) rotate(135)"/><rect class="cls-12" x="356.21" y="215.26" width="2.7" height="4.73" transform="translate(764.27 118.67) rotate(135)"/><line class="cls-13" x1="338.95" y1="227.18" x2="337.54" y2="228.59"/><line class="cls-14" x1="334.8" y1="231.31" x2="303.38" y2="262.59"/><line class="cls-13" x1="302.01" y1="263.96" x2="300.6" y2="265.37"/><circle class="cls-15" cx="300.15" cy="265.85" r="1.57"/><circle class="cls-15" cx="339.25" cy="226.86" r="1.57"/><text class="cls-2" transform="translate(397.28 384.42)"><tspan class="cls-16">F</tspan><tspan x="6.63" y="0">er</tspan><tspan class="cls-17" x="16.86" y="0">r</tspan><tspan x="20.79" y="0">eña</tspan><tspan class="cls-18" x="40.01" y="0">f</tspan><tspan x="43.84" y="0">e</tspan></text><text class="cls-5" transform="translate(415.81 404.94)"><tspan xml:space="preserve"> 0 p</tspan><tspan class="cls-6" x="24.52" y="0">r</tspan><tspan class="cls-3" x="29.73" y="0">o</tspan><tspan class="cls-4" x="38.1" y="0">y</tspan><tspan x="45.53" y="0">ec</tspan><tspan class="cls-7" x="61.46" y="0">t</tspan><tspan x="66.31" y="0">os</tspan></text><path class="cls-8" d="M404.59,400.41h1.3l.2-1,.17,0a3.74,3.74,0,0,0,1-.41l.14-.08.85.52.92-.95-.55-.85.08-.14a3.68,3.68,0,0,0,.4-1l0-.17,1-.23v-1.32l-1-.21,0-.16a3.48,3.48,0,0,0-.41-1l-.09-.14.53-.86-.95-.92-.85.56-.14-.09a3.78,3.78,0,0,0-1-.39l-.17,0-.23-1h-1.32l-.21,1-.16,0a3.86,3.86,0,0,0-1,.42l-.15.08-.84-.53-.91.94.56.84-.09.15a4,4,0,0,0-.4,1l0,.16-1,.24,0,1.32,1,.21,0,.16a4,4,0,0,0,.42,1l.08.14-.52.86.94.92.85-.56.15.08a3.27,3.27,0,0,0,1,.4l.16,0Zm2.59-4.92a2,2,0,1,1-2-2A2,2,0,0,1,407.18,395.49Z"/><path class="cls-8" d="M410.86,406.93h.91l.15-.69.11,0a2.49,2.49,0,0,0,.69-.29l.1-.05.6.36.65-.66-.39-.6.06-.1a3,3,0,0,0,.28-.7l0-.11.69-.17V403l-.69-.14,0-.12a2.77,2.77,0,0,0-.29-.69l-.06-.1.37-.6-.66-.65-.6.4-.1-.06a2.63,2.63,0,0,0-.7-.28l-.11,0-.17-.69h-.93l-.14.69-.12,0a2.62,2.62,0,0,0-.69.29l-.1.06-.59-.38-.65.67.4.59-.06.1a2.63,2.63,0,0,0-.28.7l0,.12-.69.16V404l.69.14,0,.12a2.62,2.62,0,0,0,.29.69l.06.1-.37.6.67.65.59-.39.11.06a2.54,2.54,0,0,0,.69.27l.12,0Zm1.82-3.46a1.41,1.41,0,1,1-1.41-1.41A1.41,1.41,0,0,1,412.68,403.47Z"/><rect class="cls-9" x="403.05" y="393.56" width="2.36" height="11.25" transform="translate(400.67 -168.92) rotate(45)"/><polygon class="cls-10" points="397.28 407.58 399.42 402.33 402.77 405.67 397.28 407.58"/><rect class="cls-9" x="404.73" y="395.23" width="2.36" height="11.25" transform="translate(402.34 -169.61) rotate(45)"/><rect class="cls-11" x="410.56" y="390.82" width="2.7" height="4.73" transform="translate(981.2 379.94) rotate(135)"/><rect class="cls-12" x="408.65" y="392.73" width="2.7" height="4.73" transform="translate(979.29 384.55) rotate(135)"/><line class="cls-13" x1="389.73" y1="391.76" x2="387.73" y2="391.75"/><line class="cls-14" x1="383.87" y1="391.74" x2="339.53" y2="391.64"/><line class="cls-13" x1="337.6" y1="391.64" x2="335.6" y2="391.63"/><circle class="cls-15" cx="334.95" cy="391.65" r="1.57"/><circle class="cls-15" cx="390.16" cy="391.74" r="1.57"/><text class="cls-2" transform="translate(353.61 565.75)">Chicl<tspan class="cls-3" x="25.94" y="0">ay</tspan><tspan x="37.89" y="0">o</tspan></text><text class="cls-5" transform="translate(372.14 586.28)"><tspan xml:space="preserve"> 3 p</tspan><tspan class="cls-6" x="24.52" y="0">r</tspan><tspan class="cls-3" x="29.73" y="0">o</tspan><tspan class="cls-4" x="38.1" y="0">y</tspan><tspan x="45.53" y="0">ec</tspan><tspan class="cls-7" x="61.46" y="0">t</tspan><tspan x="66.31" y="0">os</tspan></text><path class="cls-8" d="M360.92,581.75h1.3l.21-1,.16,0a4.18,4.18,0,0,0,1-.42l.14-.08.86.52.92-1-.56-.84.08-.15a3.55,3.55,0,0,0,.4-1l0-.16,1-.24V576.1l-1-.2,0-.17a3.74,3.74,0,0,0-.41-1l-.08-.14.52-.85-.95-.92-.84.55-.15-.08a3.68,3.68,0,0,0-1-.4l-.16,0-.24-1-1.32,0-.21,1-.16,0a3.61,3.61,0,0,0-1,.41l-.14.09-.84-.54-.92.94.56.85-.09.15a3.52,3.52,0,0,0-.39,1l0,.16-1,.24v1.32l1,.2,0,.17a4,4,0,0,0,.42,1l.08.14-.52.86,1,.92.84-.56.15.09a3.88,3.88,0,0,0,1,.4l.16,0Zm2.59-4.93a2,2,0,1,1-2-2A2,2,0,0,1,363.51,576.82Z"/><path class="cls-8" d="M367.19,588.27h.92l.14-.69.12,0a2.57,2.57,0,0,0,.68-.29l.1-.06.6.37.65-.67-.39-.59.06-.11a2.57,2.57,0,0,0,.28-.69l0-.12.69-.17v-.92l-.69-.15,0-.11a2.89,2.89,0,0,0-.3-.69l-.05-.1.36-.6-.66-.65-.6.39-.1-.06a2.5,2.5,0,0,0-.7-.28l-.11,0-.17-.69h-.93l-.14.69-.12,0a3.28,3.28,0,0,0-.69.3l-.1,0-.59-.37-.64.66.39.6-.06.1a2.5,2.5,0,0,0-.28.7l0,.11-.69.17v.93l.69.14,0,.12a2.62,2.62,0,0,0,.3.68l0,.1-.36.61.66.64.6-.39.1.06a2.5,2.5,0,0,0,.7.28l.11,0ZM369,584.8a1.41,1.41,0,1,1-1.41-1.41A1.41,1.41,0,0,1,369,584.8Z"/><rect class="cls-9" x="359.39" y="574.9" width="2.36" height="11.25" transform="translate(516.1 -84.93) rotate(45)"/><polygon class="cls-10" points="353.61 588.92 355.75 583.66 359.1 587.01 353.61 588.92"/><rect class="cls-9" x="361.06" y="576.57" width="2.36" height="11.25" transform="translate(517.77 -85.62) rotate(45)"/><rect class="cls-11" x="366.89" y="572.15" width="2.7" height="4.73" transform="translate(1034.88 720.38) rotate(135)"/><rect class="cls-12" x="364.99" y="574.06" width="2.7" height="4.73" transform="translate(1032.97 724.98) rotate(135)"/><line class="cls-13" x1="375.53" y1="550.09" x2="374.12" y2="548.68"/><line class="cls-14" x1="371.4" y1="545.94" x2="340.12" y2="514.52"/><line class="cls-13" x1="338.76" y1="513.15" x2="337.34" y2="511.73"/><circle class="cls-15" cx="336.87" cy="511.28" r="1.57"/><circle class="cls-15" cx="375.85" cy="550.39" r="1.57"/><circle class="cls-19" cx="279.41" cy="282.12" r="6.43"/><circle class="cls-19" cx="296.01" cy="282.12" r="6.43"/><circle class="cls-19" cx="312.82" cy="282.12" r="6.43"/><circle class="cls-19" cx="318.9" cy="497" r="6.43"/><circle class="cls-19" cx="335.5" cy="497" r="6.43"/><circle class="cls-20" cx="352.73" cy="497" r="6.43"/></svg>