<svg id="Capa_1" data-name="Capa 1" xmlns="http://www.w3.org/2000/svg" viewBox="0 0 554 932"><defs><style>.cls-1{fill:#71c2e9;stroke:#377c9c;stroke-width:3px;}.cls-1,.cls-10,.cls-11,.cls-12,.cls-8,.cls-9{stroke-linecap:round;}.cls-1,.cls-10,.cls-11,.cls-12,.cls-13,.cls-14,.cls-8,.cls-9{stroke-linejoin:round;}.cls-2{font-size:12px;font-family:Roboto-Light, Roboto;font-weight:300;}.cls-15,.cls-2,.cls-3{fill:#1d1d1b;}.cls-3{font-size:15px;font-family:Roboto-Bold, Roboto;font-weight:700;}.cls-4{letter-spacing:-0.02em;}.cls-5{letter-spacing:-0.01em;}.cls-6{letter-spacing:-0.01em;}.cls-7{letter-spacing:-0.01em;}.cls-13,.cls-14,.cls-8{fill:none;}.cls-10,.cls-11,.cls-12,.cls-8,.cls-9{stroke:#262626;stroke-width:0.5px;}.cls-9{fill:#fab637;}.cls-10{fill:#ffe7a1;}.cls-11{fill:#4ca8de;}.cls-12{fill:#cfcece;}.cls-13,.cls-14{stroke:#0b0c0c;}.cls-14{stroke-dasharray:3.86 3.86;}.cls-16{letter-spacing:-0.02em;}.cls-17{letter-spacing:-0.01em;}.cls-18{letter-spacing:-0.04em;}.cls-19{fill:#afd28c;stroke:#71915a;isolation:isolate;}.cls-19,.cls-20{stroke-miterlimit:1.75;}.cls-20{fill:#ec6062;stroke:#cc444b;}</style></defs><path class="cls-1" d="M227.66,485.11l0,0h0Z"/><path class="cls-1" d="M75.36,151.85l13.43,3.37,3.29-3.6,5.2,6.9-14.16,11-9.56,19,23.2-7-7,11.75,4.12,5,7.23-4.13-2.61,9.13,4.38,10.2L98.2,225.66l10.91-8.06,25.28-3.29-14.78,15.27,2.21,17-13,2.54-11.2-11.5-16.85,4.17L51.23,198l7.48-7.06,10.91.59-4.38-15.11Z"/><path class="cls-1" d="M207.92,144.46l6.22,15.59,4.05-1.84,6.48,8.92L220,168.87l1,8.49-5.5,1.63-3.39,25.92-11.4,6.78-17.24-1-10.86-7.18-19.29,5.82L137.8,197.59l8.38-8.54,16-.65,2.63-14,27-29,6.39,3.53Z"/><path class="cls-1" d="M262.16,311l21.58,4.33,8.45,24.8L273,333.34l-12.21,27.53L234.4,371.36l-10.32,9.33-15.82-4.3-4.88,4.42-15.83-2.5-.44-14.21,5.26-8.26L214.93,342l-5.24-8.35,19.5-6.58,12.29,1.44,4.25-13.32Z"/><path class="cls-1" d="M264.28,464.51l10.92,20.7,15.23-14.67,6.68,3.16,5.18,14.84-8.61,16.3,7.07-.69,5.62,9.39,5.72.54-7,22.9,7.79,3.48L324,556.25l6-10,18.82-.36,3.6-5.24,9,7.29-2.69,7.48L351,556l.73,11.09,5,.26,2.43,7.33-1.79,11.34-29.79,24.18-7.6,17.5-6.37,3.42-39.42-46.54-4.74-29L250.53,538.8,245,520,226.1,500.63l6.26-7-.6-10.31,14.53-6.48,8.89,2,3.07-11.24Z"/><path class="cls-1" d="M261.89,262.53l12,11.71-4.47,4.57,9.93,34.57-19.6-3.5-3.7,5.75-10.36-.4-4.25,13.32-12.29-1.44-19.46,6.55,5.42,6.83-2.42,5.39-10,2L192,358.1l-11.57-6-9.17,8,2,4.91-5.18,7.09-6.69-.61-17.29-29.67L131.65,331.4l9.37-9.86,3.27-17.8,22.19,14.72,17-21.26L179,288.8l1.51-14.22,9,7,12.32-9.11,18.66,4.06,9.6-10.95,5,4.84Z"/><path class="cls-1" d="M276.27,334.48l16.47,5.72,12.09,15,11-6.77,6.07,5.6-1.27,23.67,12.86,10.71,10.59,13.87-.13,9.17,9.48,7.42-12.67,18.26.5,15.73-28.87,14.76-8-6.78-7.27,12.85-6.68-3.16L275.51,485.3l-11.86-21.48-8.21,14.89-11.91-2.36,9.72-18.93L238,435.72l6.88-4.24-7.79-11.81,11.81-5.15-3.37-7.38-9.14-7.45L220,410.94l-14.2,2.41,3.73-15.07-7.56-.78L207.77,387l8.7.45,17.93-16.12L260.63,361l4.78-18.1Z"/><path class="cls-1" d="M137.48,197.25l15.55,12,19.6-5.76L191.45,212,186,218l-18.87,4.39-4.44,6,5.12,8.33-6.34,16,9.07,9,9.49.51,18.67-24.42L210.32,235,233.6,249.6l7.39-8.76,17.46-5.65,1.8,27.4L235.1,270.4l-5-4.84-9.6,10.95-18.66-4.06-12.32,9.11-9-7L179,288.8l4.61,8-3,7.09-8.81,3.73-5.3,10.86-22.19-14.72-3.4,18.08-9.46,9.49-42.18-23,.19-12.94,7.25-1.24,1.43-5.78-11-26.26.65-10.7-7-9.65,16.85-4.17,11.2,11.5,13-2.54-2.21-17,14.63-14.26-6-5.43Z"/><path class="cls-1" d="M224.67,167.13,236,176.29l4,17.92,7.67,9.29-2.44,5,6,17,7.22,9.68L241,240.84l-7.39,8.76L210.32,235l-11.59,2.84-18.67,24.42-9.59-.57-9-8.93,6.34-16-3.45-12.14L186,218l7.55-9,7.15,2.69,11.4-6.78L215.52,179l5.5-1.63-1-8.49Z"/><path class="cls-1" d="M356.61,417.23l24.62,4.7,8.5,7.33,3.77-3.69L404.38,429l-2.29,3.87,9.77,8.42-7.06,9.21,19.56,27.44-2.91,7.67,4.94,17-6.92,12.23L423.92,529l-4.09,5.06,10.8,10.78L414.15,557l-3.78,8.92,3.56,7.92-9,9.27-6.3,2.8-8.73-3.49-5.79,6.72L380,584.22l-21.47-4.48L351,556l7.83-.64,2.9-6.67-8.66-8.05-4.17,5.19-18.82.36-6,10-11.16-15.79L305.09,537l7-22.9-5.72-.54-5.62-9.39-7.07.69,8.61-16.3-5.18-14.84,7.18-12.79,8.09,6.72,28.87-14.76-.5-15.73Z"/><text class="cls-2" transform="translate(198.87 110.11)">Cajatambo</text><text class="cls-3" transform="translate(221.58 130.64)">0 p<tspan class="cls-4" x="20.79" y="0">r</tspan><tspan class="cls-5" x="25.99" y="0">o</tspan><tspan class="cls-6" x="34.37" y="0">y</tspan><tspan x="41.8" y="0">ec</tspan><tspan class="cls-7" x="57.73" y="0">t</tspan><tspan x="62.58" y="0">o</tspan></text><path class="cls-8" d="M206.17,126.11h1.31l.2-1,.17,0a4,4,0,0,0,1-.42l.14-.08.86.53.92-1-.56-.85.09-.14a4.1,4.1,0,0,0,.4-1l0-.16,1-.24,0-1.32-1-.2,0-.17a4,4,0,0,0-.42-1l-.08-.14.52-.86-.94-.92-.85.56-.14-.09a3.71,3.71,0,0,0-1-.39l-.16,0-.24-1H206l-.2,1-.17,0a4,4,0,0,0-1,.42l-.15.08-.84-.54-.91,1,.55.84-.08.15a3.55,3.55,0,0,0-.4,1l0,.16-1,.24,0,1.32,1,.2,0,.17a3.74,3.74,0,0,0,.41,1l.09.14-.53.85.95.93.85-.56.14.08a3.81,3.81,0,0,0,1,.4l.17,0Zm2.59-4.93a2,2,0,1,1-2-2A2,2,0,0,1,208.76,121.18Z"/><path class="cls-8" d="M212.44,132.63h.92l.14-.69.12,0a2.62,2.62,0,0,0,.69-.29l.1-.06.6.37.65-.67-.39-.59,0-.1a2.33,2.33,0,0,0,.28-.7l0-.12.69-.16v-.93l-.69-.14,0-.12a2.49,2.49,0,0,0-.29-.69l-.06-.1.37-.6-.67-.65-.59.39-.1-.06a2.6,2.6,0,0,0-.7-.27l-.12,0-.16-.69h-.93l-.15.69-.11,0a2.49,2.49,0,0,0-.69.29l-.1.06-.59-.38-.65.66.4.6-.06.1a2.33,2.33,0,0,0-.28.7l0,.11-.69.17v.93l.69.14,0,.12a2.77,2.77,0,0,0,.29.69l.06.09-.37.61.67.65.59-.4.11.06a2.44,2.44,0,0,0,.69.28l.12,0Zm1.83-3.47a1.42,1.42,0,1,1-1.41-1.41A1.42,1.42,0,0,1,214.27,129.16Z"/><rect class="cls-9" x="204.64" y="119.26" width="2.36" height="11.25" transform="translate(148.59 -108.96) rotate(45)"/><polygon class="cls-10" points="198.87 133.28 201.01 128.03 204.35 131.37 198.87 133.28"/><rect class="cls-9" x="206.31" y="120.93" width="2.36" height="11.25" transform="translate(150.26 -109.65) rotate(45)"/><rect class="cls-11" x="212.15" y="116.52" width="2.7" height="4.73" transform="translate(448.53 51.98) rotate(135)"/><rect class="cls-12" x="210.24" y="118.42" width="2.7" height="4.73" transform="translate(446.62 56.58) rotate(135)"/><line class="cls-13" x1="191.13" y1="106.16" x2="191.13" y2="108.16"/><line class="cls-14" x1="191.12" y1="112.02" x2="191.02" y2="156.36"/><line class="cls-13" x1="191.01" y1="158.29" x2="191.01" y2="160.29"/><circle class="cls-15" cx="191.03" cy="160.95" r="1.57"/><circle class="cls-15" cx="191.12" cy="105.73" r="1.57"/><text class="cls-2" transform="translate(290.84 199.27)">O<tspan class="cls-5" x="8.12" y="0">y</tspan><tspan x="13.73" y="0">ón</tspan></text><text class="cls-3" transform="translate(313.56 219.8)">1 p<tspan class="cls-4" x="20.79" y="0">r</tspan><tspan class="cls-5" x="25.99" y="0">o</tspan><tspan class="cls-6" x="34.37" y="0">y</tspan><tspan x="41.8" y="0">ec</tspan><tspan class="cls-7" x="57.73" y="0">t</tspan><tspan x="62.58" y="0">o</tspan></text><path class="cls-8" d="M298.15,215.27h1.3l.21-1,.16,0a3.74,3.74,0,0,0,1-.41l.14-.08.86.52.92-1-.56-.84.08-.15a3.68,3.68,0,0,0,.4-1l0-.16,1-.24v-1.32l-1-.21,0-.16a3.61,3.61,0,0,0-.41-1l-.08-.14.52-.86-.95-.92-.84.56-.15-.08a3.38,3.38,0,0,0-1-.4l-.16,0-.24-1H298l-.21,1-.16,0a3.61,3.61,0,0,0-1,.41l-.14.08-.84-.53-.92.94.56.85-.09.14a3.65,3.65,0,0,0-.39,1l0,.17-1,.23v1.32l1,.21,0,.16a3.86,3.86,0,0,0,.42,1l.08.14-.52.86.95.92.84-.56.15.09a3.52,3.52,0,0,0,1,.39l.16,0Zm2.59-4.93a2,2,0,1,1-2-2A2,2,0,0,1,300.74,210.34Z"/><path class="cls-8" d="M304.42,221.79h.92l.14-.69.12,0a3,3,0,0,0,.68-.3l.1-.05.6.36.65-.66-.39-.6.06-.1a2.5,2.5,0,0,0,.28-.7l0-.11.69-.17v-.93l-.69-.14,0-.12a3.28,3.28,0,0,0-.3-.69l0-.09.36-.61-.66-.64-.6.39-.1-.06a2.5,2.5,0,0,0-.7-.28l-.11,0-.17-.69h-.93l-.14.69-.12,0a2.77,2.77,0,0,0-.69.29l-.1.06-.59-.38-.64.67.39.59-.06.1a2.63,2.63,0,0,0-.28.7l0,.12-.69.16v.93l.69.15,0,.11a2.54,2.54,0,0,0,.3.69l.05.1-.36.6.66.65.6-.39.1.06a2.85,2.85,0,0,0,.7.28l.11,0Zm1.82-3.47a1.41,1.41,0,1,1-1.41-1.41A1.41,1.41,0,0,1,306.24,218.32Z"/><rect class="cls-9" x="296.62" y="208.41" width="2.36" height="11.25" transform="translate(238.57 -147.88) rotate(45)"/><polygon class="cls-10" points="290.84 222.43 292.99 217.18 296.33 220.52 290.84 222.43"/><rect class="cls-9" x="298.29" y="210.09" width="2.36" height="11.25" transform="translate(240.24 -148.58) rotate(45)"/><rect class="cls-11" x="304.12" y="205.67" width="2.7" height="4.73" transform="translate(668.58 139.14) rotate(135)"/><rect class="cls-12" x="302.22" y="207.58" width="2.7" height="4.73" transform="translate(666.67 143.74) rotate(135)"/><line class="cls-13" x1="285.63" y1="195.5" x2="283.63" y2="195.5"/><line class="cls-14" x1="279.77" y1="195.51" x2="235.43" y2="195.64"/><line class="cls-13" x1="233.5" y1="195.65" x2="231.5" y2="195.65"/><circle class="cls-15" cx="230.84" cy="195.68" r="1.57"/><circle class="cls-15" cx="286.06" cy="195.48" r="1.57"/><text class="cls-2" transform="translate(50.84 114.12)">Bar<tspan class="cls-16" x="17.82" y="0">r</tspan><tspan x="21.62" y="0">anca</tspan></text><text class="cls-3" transform="translate(73.56 134.64)">2 p<tspan class="cls-4" x="20.79" y="0">r</tspan><tspan class="cls-5" x="25.99" y="0">o</tspan><tspan class="cls-6" x="34.37" y="0">y</tspan><tspan x="41.8" y="0">ec</tspan><tspan class="cls-7" x="57.73" y="0">t</tspan><tspan x="62.58" y="0">o</tspan></text><path class="cls-8" d="M58.15,130.11h1.3l.21-1,.16,0a4.18,4.18,0,0,0,1-.42l.14-.08.86.53.92-1-.56-.85.08-.14a3.74,3.74,0,0,0,.4-1l0-.16,1-.24v-1.32l-1-.2,0-.17a3.55,3.55,0,0,0-.41-1l-.08-.14.52-.86-.95-.92-.84.56-.15-.09a3.65,3.65,0,0,0-1-.39l-.16,0-.24-1H58l-.21,1-.16,0a4,4,0,0,0-1,.42l-.14.08-.84-.54-.92,1,.56.84-.09.15a3.65,3.65,0,0,0-.39,1l0,.16-1,.24v1.32l1,.2,0,.17a4.18,4.18,0,0,0,.42,1l.08.14-.52.86,1,.92.84-.56.15.08a3.55,3.55,0,0,0,1,.4l.16,0Zm2.59-4.93a2,2,0,1,1-2-2A2,2,0,0,1,60.74,125.18Z"/><path class="cls-8" d="M64.42,136.63h.92l.14-.69.12,0a2.57,2.57,0,0,0,.68-.29l.1-.06.6.37.65-.67-.39-.59.06-.1a2.63,2.63,0,0,0,.28-.7l0-.12.69-.16v-.93l-.69-.14,0-.12a3.07,3.07,0,0,0-.3-.69l0-.1.36-.6-.66-.65-.6.39-.1-.06a2.48,2.48,0,0,0-.7-.27l-.11,0-.17-.69h-.93l-.14.69-.12,0a2.77,2.77,0,0,0-.69.29l-.1.06-.59-.38-.64.66.39.6-.06.1a2.63,2.63,0,0,0-.28.7l0,.11-.69.17v.93l.69.14,0,.12a2.83,2.83,0,0,0,.3.69l0,.1-.36.6.66.65.6-.4.1.06a2.5,2.5,0,0,0,.7.28l.11,0Zm1.82-3.47a1.41,1.41,0,1,1-1.41-1.41A1.42,1.42,0,0,1,66.24,133.16Z"/><rect class="cls-9" x="56.62" y="123.26" width="2.36" height="11.25" transform="translate(108.06 -3.12) rotate(45)"/><polygon class="cls-10" points="50.84 137.28 52.98 132.03 56.33 135.37 50.84 137.28"/><rect class="cls-9" x="58.29" y="124.93" width="2.36" height="11.25" transform="translate(109.74 -3.81) rotate(45)"/><rect class="cls-11" x="64.12" y="120.52" width="2.7" height="4.73" transform="translate(198.66 163.47) rotate(135)"/><rect class="cls-12" x="62.22" y="122.43" width="2.7" height="4.73" transform="translate(196.75 168.08) rotate(135)"/><line class="cls-13" x1="61.28" y1="143.99" x2="61.29" y2="145.99"/><line class="cls-14" x1="61.3" y1="149.85" x2="61.43" y2="194.19"/><line class="cls-13" x1="61.43" y1="196.12" x2="61.44" y2="198.12"/><circle class="cls-15" cx="61.46" cy="198.77" r="1.57"/><circle class="cls-15" cx="61.27" cy="143.56" r="1.57"/><text class="cls-2" transform="translate(34.74 341.89)">Huau<tspan class="cls-16" x="28.1" y="0">r</tspan><tspan x="31.9" y="0">a</tspan></text><text class="cls-3" transform="translate(57.46 362.42)">0 p<tspan class="cls-4" x="20.79" y="0">r</tspan><tspan class="cls-5" x="25.99" y="0">o</tspan><tspan class="cls-6" x="34.37" y="0">y</tspan><tspan x="41.8" y="0">ec</tspan><tspan class="cls-7" x="57.73" y="0">t</tspan><tspan x="62.58" y="0">o</tspan></text><path class="cls-8" d="M42.05,357.89h1.3l.2-1,.17-.05a3.74,3.74,0,0,0,1-.41l.14-.08.85.52.92-.95-.55-.84.08-.15a4,4,0,0,0,.4-1l0-.16,1-.24,0-1.32-1-.2,0-.17a4.18,4.18,0,0,0-.42-1l-.08-.14.53-.86L45.6,349l-.85.56-.14-.08a3.74,3.74,0,0,0-1-.4l-.16,0-.24-1H41.89l-.2,1-.17,0a3.55,3.55,0,0,0-1,.41l-.15.09-.84-.54-.91.94.55.85-.08.14a4.1,4.1,0,0,0-.4,1l0,.16-1,.23,0,1.33,1,.2,0,.17a4,4,0,0,0,.42,1l.08.14-.52.86.94.92.85-.56.14.09a3.71,3.71,0,0,0,1,.39l.16,0ZM44.64,353a2,2,0,1,1-2-2A2,2,0,0,1,44.64,353Z"/><path class="cls-8" d="M48.32,364.41h.91l.15-.69.11,0a2.83,2.83,0,0,0,.69-.29l.1-.06.6.37.65-.67-.39-.6.06-.1a2.85,2.85,0,0,0,.28-.7l0-.11.69-.17v-.93l-.69-.14,0-.12a2.57,2.57,0,0,0-.29-.68l-.06-.1.37-.61-.67-.64-.59.39-.1-.06a2.63,2.63,0,0,0-.7-.28l-.12,0-.16-.69h-.93l-.14.69-.12,0a3,3,0,0,0-.69.29l-.1.06-.59-.38-.65.67.4.59-.06.11a2.57,2.57,0,0,0-.28.69l0,.12-.69.17v.92l.69.15,0,.11a2.49,2.49,0,0,0,.29.69l.06.1-.37.6.67.65.59-.39.11.06a2.57,2.57,0,0,0,.69.28l.12,0Zm1.82-3.47a1.41,1.41,0,1,1-1.41-1.41A1.41,1.41,0,0,1,50.14,360.94Z"/><rect class="cls-9" x="40.51" y="351.04" width="2.36" height="11.25" transform="translate(264.41 74.98) rotate(45)"/><polygon class="cls-10" points="34.74 365.05 36.88 359.8 40.23 363.14 34.74 365.05"/><rect class="cls-9" x="42.18" y="352.71" width="2.36" height="11.25" transform="translate(266.08 74.29) rotate(45)"/><rect class="cls-11" x="48.02" y="348.29" width="2.7" height="4.73" transform="translate(332.23 563.7) rotate(135)"/><rect class="cls-12" x="46.11" y="350.2" width="2.7" height="4.73" transform="translate(330.32 568.3) rotate(135)"/><line class="cls-13" x1="83.53" y1="335.14" x2="84.94" y2="333.72"/><line class="cls-14" x1="87.66" y1="330.99" x2="118.92" y2="299.54"/><line class="cls-13" x1="120.28" y1="298.18" x2="121.69" y2="296.76"/><circle class="cls-15" cx="122.14" cy="296.28" r="1.57"/><circle class="cls-15" cx="83.24" cy="335.46" r="1.57"/><text class="cls-2" transform="translate(308.75 277.89)">Hua<tspan class="cls-16" x="21.51" y="0">r</tspan><tspan x="25.31" y="0">al</tspan></text><text class="cls-3" transform="translate(327.28 298.42)"><tspan xml:space="preserve"> 1 p</tspan><tspan class="cls-4" x="24.52" y="0">r</tspan><tspan class="cls-5" x="29.73" y="0">o</tspan><tspan class="cls-6" x="38.1" y="0">y</tspan><tspan x="45.53" y="0">ec</tspan><tspan class="cls-7" x="61.46" y="0">t</tspan><tspan x="66.31" y="0">o</tspan></text><path class="cls-8" d="M316.06,293.89h1.3l.2-1,.17,0a4.18,4.18,0,0,0,1-.42l.14-.08.85.52.92-.94-.55-.85.08-.15a3.55,3.55,0,0,0,.4-1l0-.16,1-.24v-1.32l-1-.2,0-.17a3.74,3.74,0,0,0-.41-1l-.09-.13.53-.86-.95-.92-.85.55-.14-.08a4.2,4.2,0,0,0-1-.4l-.17,0-.23-1-1.32,0-.21,1-.16,0a3.86,3.86,0,0,0-1,.42l-.15.08-.84-.54-.91.94.56.85-.09.15a3.88,3.88,0,0,0-.4,1l0,.16-1,.24,0,1.32,1,.2,0,.17a4,4,0,0,0,.42,1l.08.14-.52.86.94.92.85-.55.15.08a3.88,3.88,0,0,0,1,.4l.16,0Zm2.59-4.93a2,2,0,1,1-2-2A2,2,0,0,1,318.65,289Z"/><path class="cls-8" d="M322.33,300.41h.91l.15-.69.11,0a2.49,2.49,0,0,0,.69-.29l.1-.06.6.37.65-.67-.39-.59.06-.11a2.94,2.94,0,0,0,.28-.69l0-.12.69-.16v-.93l-.69-.15,0-.11a2.49,2.49,0,0,0-.29-.69l-.06-.1.37-.6-.66-.65-.6.39-.1-.06a2.63,2.63,0,0,0-.7-.28l-.11,0-.17-.69h-.93l-.14.7-.12,0a3.28,3.28,0,0,0-.69.3l-.1.06-.59-.38-.64.66.39.6-.06.1a2.5,2.5,0,0,0-.28.7l0,.11-.69.17v.93l.69.14,0,.12a2.57,2.57,0,0,0,.29.68l.06.1-.37.61.67.64.59-.39.11.06a2.5,2.5,0,0,0,.7.28l.11,0Zm1.82-3.47a1.41,1.41,0,1,1-1.41-1.41A1.41,1.41,0,0,1,324.15,296.94Z"/><rect class="cls-9" x="314.52" y="287.04" width="2.36" height="11.25" transform="translate(299.41 -137.52) rotate(45)"/><polygon class="cls-10" points="308.75 301.06 310.89 295.8 314.24 299.15 308.75 301.06"/><rect class="cls-9" x="316.2" y="288.71" width="2.36" height="11.25" transform="translate(301.08 -138.21) rotate(45)"/><rect class="cls-11" x="322.03" y="284.29" width="2.7" height="4.73" transform="translate(754.75 260.69) rotate(135)"/><rect class="cls-12" x="320.12" y="286.2" width="2.7" height="4.73" transform="translate(752.84 265.3) rotate(135)"/><line class="cls-13" x1="301.2" y1="285.23" x2="299.2" y2="285.23"/><line class="cls-14" x1="295.34" y1="285.22" x2="251" y2="285.12"/><line class="cls-13" x1="249.07" y1="285.11" x2="247.07" y2="285.11"/><circle class="cls-15" cx="246.42" cy="285.13" r="1.57"/><circle class="cls-15" cx="301.63" cy="285.22" r="1.57"/><text class="cls-2" transform="translate(324.05 322.9)">Canta</text><text class="cls-3" transform="translate(342.58 343.42)"><tspan xml:space="preserve"> 0 p</tspan><tspan class="cls-4" x="24.52" y="0">r</tspan><tspan class="cls-5" x="29.73" y="0">o</tspan><tspan class="cls-6" x="38.1" y="0">y</tspan><tspan x="45.53" y="0">ec</tspan><tspan class="cls-7" x="61.46" y="0">t</tspan><tspan x="66.31" y="0">os</tspan></text><path class="cls-8" d="M331.36,338.89h1.3l.21-1,.16,0a3.61,3.61,0,0,0,1-.41l.14-.09.86.53.92-.95-.56-.85.09-.14a3.78,3.78,0,0,0,.39-1l0-.17,1-.23v-1.32l-1-.21-.05-.16a3.48,3.48,0,0,0-.41-1l-.08-.14.52-.86-.95-.92-.84.56-.15-.09a3.65,3.65,0,0,0-1-.39l-.16,0-.24-1h-1.32l-.2,1-.17,0a4.18,4.18,0,0,0-1,.42l-.14.08-.84-.54-.92,1,.56.84-.09.15a3.65,3.65,0,0,0-.39,1l0,.16-1,.24v1.32l1,.21.05.16a3.74,3.74,0,0,0,.41,1l.08.14L328,337l1,.92.84-.56.15.08a3.68,3.68,0,0,0,1,.4l.16,0ZM334,334a2,2,0,1,1-2-2A2,2,0,0,1,334,334Z"/><path class="cls-8" d="M337.63,345.41h.92l.14-.69.12,0a2.57,2.57,0,0,0,.68-.29l.1-.06.61.37.64-.66-.39-.6.06-.1a2.63,2.63,0,0,0,.28-.7l0-.11.69-.17v-.93l-.69-.14,0-.12a3,3,0,0,0-.29-.69l-.06-.1.37-.6-.67-.65-.6.4-.1-.06a2.23,2.23,0,0,0-.7-.28l-.11,0-.17-.69h-.93l-.14.69-.12,0a2.57,2.57,0,0,0-.68.29l-.11.06-.59-.38-.64.66.39.6-.06.1a2.63,2.63,0,0,0-.28.7l0,.11-.69.17v.93l.7.14,0,.12a3.07,3.07,0,0,0,.3.69l0,.1-.36.6.66.65.6-.4.1.06a2.33,2.33,0,0,0,.7.28l.11,0Zm1.82-3.46a1.41,1.41,0,1,1-1.41-1.41A1.41,1.41,0,0,1,339.45,342Z"/><rect class="cls-9" x="329.83" y="332.04" width="2.36" height="11.25" transform="translate(335.72 -135.16) rotate(45)"/><polygon class="cls-10" points="324.05 346.06 326.2 340.81 329.54 344.15 324.05 346.06"/><rect class="cls-9" x="331.5" y="333.71" width="2.36" height="11.25" transform="translate(337.39 -135.85) rotate(45)"/><rect class="cls-11" x="337.34" y="329.3" width="2.7" height="4.73" transform="translate(812.69 326.7) rotate(135)"/><rect class="cls-12" x="335.43" y="331.21" width="2.7" height="4.73" transform="translate(810.78 331.3) rotate(135)"/><line class="cls-13" x1="316.5" y1="330.24" x2="314.5" y2="330.23"/><line class="cls-14" x1="310.65" y1="330.22" x2="266.3" y2="330.12"/><line class="cls-13" x1="264.38" y1="330.12" x2="262.38" y2="330.11"/><circle class="cls-15" cx="261.72" cy="330.13" r="1.57"/><circle class="cls-15" cx="316.93" cy="330.22" r="1.57"/><text class="cls-2" transform="translate(54.85 470.84)">Lima</text><text class="cls-3" transform="translate(73.38 491.37)"><tspan xml:space="preserve"> 1 p</tspan><tspan class="cls-4" x="24.52" y="0">r</tspan><tspan class="cls-5" x="29.73" y="0">o</tspan><tspan class="cls-6" x="38.1" y="0">y</tspan><tspan x="45.53" y="0">ec</tspan><tspan class="cls-7" x="61.46" y="0">t</tspan><tspan x="66.31" y="0">o</tspan></text><path class="cls-8" d="M62.15,486.84h1.31l.2-1,.17,0a4,4,0,0,0,1-.42l.14-.08.86.52.92-.95-.56-.84.09-.15a3.52,3.52,0,0,0,.39-1l0-.16,1-.24v-1.32l-1-.2,0-.17a4.18,4.18,0,0,0-.42-1l-.08-.14.52-.85-.94-.92-.85.55-.15-.08a3.55,3.55,0,0,0-1-.4l-.16,0-.24-1L62,477l-.2,1-.17,0a3.55,3.55,0,0,0-1,.41l-.15.09-.84-.54-.92.94.56.85-.08.14a3.74,3.74,0,0,0-.4,1l0,.16-1,.24v1.32l1,.2,0,.17a3.55,3.55,0,0,0,.41,1l.08.14-.52.86,1,.92.85-.56.14.09a4,4,0,0,0,1,.4l.17,0Zm2.59-4.93a2,2,0,1,1-2-2A2,2,0,0,1,64.74,481.91Z"/><path class="cls-8" d="M68.42,493.36h.92l.14-.69.12,0a2.77,2.77,0,0,0,.69-.29l.1-.06.6.37.65-.67-.4-.59.06-.11a2.57,2.57,0,0,0,.28-.69l0-.12.69-.17v-.92l-.69-.15,0-.12a2.57,2.57,0,0,0-.29-.68l-.06-.1.37-.6-.67-.65-.59.39-.11-.06a2.57,2.57,0,0,0-.69-.28l-.12,0-.16-.69h-.93l-.15.69-.11,0a2.89,2.89,0,0,0-.69.3l-.1.05-.59-.37-.65.66.39.59-.06.11a2.48,2.48,0,0,0-.27.7l0,.11-.69.17v.93l.69.14,0,.12a2.57,2.57,0,0,0,.29.68l.06.1-.37.61.67.64.59-.39.1.06a2.63,2.63,0,0,0,.7.28l.12,0Zm1.82-3.47a1.41,1.41,0,1,1-1.41-1.41A1.41,1.41,0,0,1,70.24,489.89Z"/><rect class="cls-9" x="60.62" y="479.99" width="2.36" height="11.25" transform="translate(361.48 98.53) rotate(45)"/><polygon class="cls-10" points="54.85 494.01 56.99 488.75 60.33 492.1 54.85 494.01"/><rect class="cls-9" x="62.29" y="481.66" width="2.36" height="11.25" transform="translate(363.15 97.84) rotate(45)"/><rect class="cls-11" x="68.13" y="477.24" width="2.7" height="4.73" transform="translate(457.74 769.61) rotate(135)"/><rect class="cls-12" x="66.22" y="479.15" width="2.7" height="4.73" transform="translate(455.83 774.22) rotate(135)"/><text class="cls-2" transform="translate(365.8 382.47)">Hua<tspan class="cls-17" x="21.51" y="0">r</tspan><tspan x="25.43" y="0">ochirí</tspan></text><text class="cls-3" transform="translate(384.33 403)"><tspan xml:space="preserve"> 4 p</tspan><tspan class="cls-4" x="24.52" y="0">r</tspan><tspan class="cls-5" x="29.73" y="0">o</tspan><tspan class="cls-6" x="38.1" y="0">y</tspan><tspan x="45.53" y="0">ec</tspan><tspan class="cls-7" x="61.46" y="0">t</tspan><tspan x="66.31" y="0">os</tspan></text><path class="cls-8" d="M373.11,398.47h1.3l.21-1,.16,0a3.86,3.86,0,0,0,1-.42l.14-.08.86.52.92-1-.56-.84.09-.15a3.52,3.52,0,0,0,.39-1l0-.16,1-.24v-1.32l-1-.2,0-.17a4.18,4.18,0,0,0-.42-1l-.08-.14.52-.85-.95-.93-.84.56-.15-.08a3.68,3.68,0,0,0-1-.4l-.16,0-.24-1H373l-.2,1-.17,0a3.74,3.74,0,0,0-1,.41l-.14.09-.84-.54-.92.94.56.85-.08.14a3.43,3.43,0,0,0-.4,1l0,.16-1,.24v1.32l1,.2.05.17a3.55,3.55,0,0,0,.41,1l.08.14-.52.86,1,.92.84-.56.15.09a3.65,3.65,0,0,0,1,.39l.16,0Zm2.59-4.93a2,2,0,1,1-2-2A2,2,0,0,1,375.7,393.54Z"/><path class="cls-8" d="M379.38,405h.92l.14-.69.12,0a2.57,2.57,0,0,0,.68-.29l.1-.06.61.37.64-.67-.39-.59.06-.11a2.5,2.5,0,0,0,.28-.7l0-.11.69-.17V401l-.69-.14,0-.12a3,3,0,0,0-.29-.68l-.06-.1.37-.61-.67-.64-.6.39-.1-.06a2.5,2.5,0,0,0-.7-.28l-.11,0-.17-.69h-.93l-.14.69-.12,0a2.62,2.62,0,0,0-.68.3l-.1.05-.6-.37-.64.66.39.59-.06.11a2.94,2.94,0,0,0-.28.69l0,.12-.69.17V402l.7.15,0,.11a2.49,2.49,0,0,0,.29.69l0,.1-.36.6.66.65.6-.39.1.06a2.63,2.63,0,0,0,.7.28l.11,0Zm1.82-3.47a1.41,1.41,0,1,1-1.41-1.41A1.41,1.41,0,0,1,381.2,401.52Z"/><rect class="cls-9" x="371.58" y="391.62" width="2.36" height="11.25" transform="translate(390.07 -147.23) rotate(45)"/><polygon class="cls-10" points="365.8 405.63 367.95 400.38 371.29 403.73 365.8 405.63"/><rect class="cls-9" x="373.25" y="393.29" width="2.36" height="11.25" transform="translate(391.74 -147.92) rotate(45)"/><rect class="cls-11" x="379.09" y="388.87" width="2.7" height="4.73" transform="translate(926.09 398.87) rotate(135)"/><rect class="cls-12" x="377.18" y="390.78" width="2.7" height="4.73" transform="translate(924.18 403.48) rotate(135)"/><line class="cls-13" x1="358.25" y1="389.81" x2="356.25" y2="389.81"/><line class="cls-14" x1="352.4" y1="389.8" x2="308.06" y2="389.7"/><line class="cls-13" x1="306.13" y1="389.69" x2="304.13" y2="389.69"/><circle class="cls-15" cx="303.47" cy="389.71" r="1.57"/><circle class="cls-15" cx="358.69" cy="389.8" r="1.57"/><text class="cls-2" transform="translate(437.68 480.31)"><tspan class="cls-18">Y</tspan><tspan x="6.76" y="0">au</tspan><tspan class="cls-5" x="19.78" y="0">y</tspan><tspan x="25.39" y="0">os</tspan></text><text class="cls-3" transform="translate(456.21 500.84)"><tspan xml:space="preserve"> 0 p</tspan><tspan class="cls-4" x="24.52" y="0">r</tspan><tspan class="cls-5" x="29.73" y="0">o</tspan><tspan class="cls-6" x="38.1" y="0">y</tspan><tspan x="45.53" y="0">ec</tspan><tspan class="cls-7" x="61.46" y="0">t</tspan><tspan x="66.31" y="0">os</tspan></text><path class="cls-8" d="M445,496.31h1.3l.2-1,.17-.05a3.74,3.74,0,0,0,1-.41l.14-.08.85.52.92-.95-.55-.84.08-.15a4,4,0,0,0,.4-1l0-.16,1-.24,0-1.32-1-.21,0-.16a4.18,4.18,0,0,0-.42-1l-.08-.14.53-.86-.95-.92-.85.56-.14-.08a3.74,3.74,0,0,0-1-.4l-.16,0-.24-1h-1.32l-.2,1-.17.05a3.55,3.55,0,0,0-1,.41l-.15.09-.84-.54-.91.94.55.85-.08.14a4.2,4.2,0,0,0-.4,1l0,.17-1,.23,0,1.32,1,.21,0,.16a3.86,3.86,0,0,0,.42,1l.08.14-.52.86.94.92.85-.56.14.09a3.71,3.71,0,0,0,1,.39l.16,0Zm2.59-4.93a2,2,0,1,1-2-2A2,2,0,0,1,447.58,491.38Z"/><path class="cls-8" d="M451.26,502.83h.91l.14-.69.12,0a2.54,2.54,0,0,0,.69-.3l.1-.05.6.36.65-.66-.39-.6.06-.1a2.48,2.48,0,0,0,.27-.7l0-.11.69-.17v-.93l-.69-.14,0-.12a2.57,2.57,0,0,0-.29-.68l-.06-.1.37-.61-.67-.64-.59.39-.1-.06a2.63,2.63,0,0,0-.7-.28l-.12,0-.16-.69h-.93l-.14.69-.12,0a2.62,2.62,0,0,0-.69.29l-.1.06-.59-.38-.65.67.4.59-.06.11a2.57,2.57,0,0,0-.28.69l0,.12-.69.16v.93l.69.15,0,.11a2.49,2.49,0,0,0,.29.69l.06.1-.37.6.67.65.59-.39.11.06a2.94,2.94,0,0,0,.69.28l.12,0Zm1.82-3.47a1.41,1.41,0,1,1-1.41-1.41A1.41,1.41,0,0,1,453.08,499.36Z"/><rect class="cls-9" x="443.45" y="489.45" width="2.36" height="11.25" transform="translate(480.3 -169.4) rotate(45)"/><polygon class="cls-10" points="437.68 503.47 439.82 498.22 443.17 501.56 437.68 503.47"/><rect class="cls-9" x="445.12" y="491.13" width="2.36" height="11.25" transform="translate(481.98 -170.09) rotate(45)"/><rect class="cls-11" x="450.96" y="486.71" width="2.7" height="4.73" transform="translate(1117.97 515.07) rotate(135)"/><rect class="cls-12" x="449.05" y="488.62" width="2.7" height="4.73" transform="translate(1116.06 519.68) rotate(135)"/><line class="cls-13" x1="430.13" y1="487.65" x2="428.13" y2="487.64"/><line class="cls-14" x1="424.27" y1="487.64" x2="379.93" y2="487.54"/><line class="cls-13" x1="378" y1="487.53" x2="376" y2="487.53"/><circle class="cls-15" cx="375.34" cy="487.55" r="1.57"/><circle class="cls-15" cx="430.56" cy="487.64" r="1.57"/><text class="cls-2" transform="translate(109.52 544.78)">Cañete</text><text class="cls-3" transform="translate(128.05 565.3)"><tspan xml:space="preserve"> 0 p</tspan><tspan class="cls-4" x="24.52" y="0">r</tspan><tspan class="cls-5" x="29.73" y="0">o</tspan><tspan class="cls-6" x="38.1" y="0">y</tspan><tspan x="45.53" y="0">ec</tspan><tspan class="cls-7" x="61.46" y="0">t</tspan><tspan x="66.31" y="0">os</tspan></text><path class="cls-8" d="M116.83,560.77h1.3l.2-1,.17,0a3.74,3.74,0,0,0,1-.41l.14-.08.85.52.92-.95-.55-.84.08-.15a3.68,3.68,0,0,0,.4-1l0-.16,1-.24,0-1.32-1-.21,0-.16a4,4,0,0,0-.41-1l-.09-.14.53-.86-1-.92-.85.56-.14-.08a3.49,3.49,0,0,0-1-.4l-.17,0-.23-1h-1.33l-.2,1-.17.05a3.55,3.55,0,0,0-1,.41l-.15.08-.84-.53-.91.94.56.85-.09.14a4,4,0,0,0-.4,1l0,.17-1,.23,0,1.32,1,.21,0,.16a3.86,3.86,0,0,0,.42,1l.08.14-.52.86.94.92.85-.56.14.09a3.71,3.71,0,0,0,1,.39l.16,0Zm2.59-4.92a2,2,0,1,1-2-2A2,2,0,0,1,119.42,555.85Z"/><path class="cls-8" d="M123.1,567.29H124l.15-.68.11,0a2.89,2.89,0,0,0,.69-.3l.1,0,.6.36.65-.66-.39-.6.06-.1a2.85,2.85,0,0,0,.28-.7l0-.11.69-.17v-.93l-.69-.14,0-.12a2.77,2.77,0,0,0-.29-.69l-.06-.09.37-.61-.67-.65-.59.4-.1-.06a2.63,2.63,0,0,0-.7-.28l-.11,0-.17-.69H123l-.14.69-.12,0a2.62,2.62,0,0,0-.69.29l-.1.06-.59-.38-.65.67.4.59-.06.1a2.63,2.63,0,0,0-.28.7l0,.12-.69.16v.93l.69.15,0,.11a2.49,2.49,0,0,0,.29.69l.06.1-.37.6.67.65.59-.39.11.06a2.94,2.94,0,0,0,.69.28l.12,0Zm1.82-3.46a1.41,1.41,0,1,1-1.41-1.41A1.41,1.41,0,0,1,124.92,563.83Z"/><rect class="cls-9" x="115.29" y="553.92" width="2.36" height="11.25" transform="translate(429.78 81.53) rotate(45)"/><polygon class="cls-10" points="109.52 567.94 111.66 562.69 115.01 566.03 109.52 567.94"/><rect class="cls-9" x="116.97" y="555.6" width="2.36" height="11.25" transform="translate(431.45 80.83) rotate(45)"/><rect class="cls-11" x="122.8" y="551.18" width="2.7" height="4.73" transform="translate(603.35 857.17) rotate(135)"/><rect class="cls-12" x="120.89" y="553.09" width="2.7" height="4.73" transform="translate(601.45 861.78) rotate(135)"/><line class="cls-13" x1="220.4" y1="560.72" x2="221.81" y2="559.31"/><line class="cls-14" x1="224.55" y1="556.59" x2="255.97" y2="525.31"/><line class="cls-13" x1="257.34" y1="523.95" x2="258.75" y2="522.53"/><circle class="cls-15" cx="259.2" cy="522.06" r="1.57"/><circle class="cls-15" cx="220.1" cy="561.04" r="1.57"/><circle class="cls-19" cx="73.27" cy="208.33" r="6.43"/><circle class="cls-19" cx="89.88" cy="208.33" r="6.43"/><circle class="cls-19" cx="229.27" cy="210.34" r="6.43"/><path class="cls-1" d="M171.77,389l7.48,13.27-1,8.23-5.45-2,8.44,17.85-5.65,5.3L166,430.62l6.2-16.23-9-23.61Z"/><path class="cls-1" d="M229.41,485.42h0Zm-46.24-136,9.84,6.38-5,6.12.45,14.51L204.65,379l5-4.5,15.92,4.42-21.29,12.68-.18,5.79,6.81-.56-4,15.21,14.68-2.3,16.71-11.48,13,12.77L239,418.65l8,11.94-7,4.44,15.57,22.51-8.64,13.26-.4,9.48-12.86,3.35-4.67,19.84-3.5-4,4.51-16.79-12.6-15.07-29.72-15.42,1.29-11.4-13.29-9.15,5.64-5.22-8.4-17.64,5.42,1.7.11-12.18-5.26-9.21-10,1.61-1.64-9.8,5-4.2-4.71-7.26,6.8.61,5.29-7.22-2.06-5Z"/><line class="cls-13" x1="165.05" y1="486.87" x2="166.47" y2="485.46"/><line class="cls-14" x1="169.2" y1="482.74" x2="200.63" y2="451.46"/><line class="cls-13" x1="201.99" y1="450.1" x2="203.41" y2="448.69"/><circle class="cls-15" cx="203.86" cy="448.21" r="1.57"/><circle class="cls-15" cx="164.76" cy="487.19" r="1.57"/><circle class="cls-19" cx="205.44" cy="436.07" r="6.43"/><circle class="cls-19" cx="301.9" cy="404.48" r="6.43"/><circle class="cls-20" cx="301.9" cy="421.67" r="6.43"/><circle class="cls-19" cx="285.38" cy="404.48" r="6.43"/><circle class="cls-19" cx="232.72" cy="285.08" r="6.43"/><circle class="cls-19" cx="285.38" cy="421.67" r="6.43"/></svg>