<svg id="Capa_1" data-name="Capa 1" xmlns="http://www.w3.org/2000/svg" viewBox="0 0 554 932"><defs><style>.cls-1{fill:#71c2e9;stroke:#377c9c;stroke-width:3px;}.cls-1,.cls-18{stroke-miterlimit:1.75;}.cls-13,.cls-2,.cls-3,.cls-5{fill:none;}.cls-2,.cls-3,.cls-5{stroke:#0b0c0c;}.cls-13,.cls-14,.cls-15,.cls-16,.cls-17,.cls-2,.cls-3,.cls-5{stroke-linejoin:round;}.cls-3{stroke-dasharray:4.2 4.2;}.cls-4,.cls-6,.cls-8{fill:#1d1d1b;}.cls-5{stroke-dasharray:4.2 4.2;}.cls-6{font-size:12px;font-family:Roboto-Light, Roboto;font-weight:300;}.cls-7{letter-spacing:-0.01em;}.cls-8{font-size:15px;font-family:Roboto-Bold, Roboto;font-weight:700;}.cls-9{letter-spacing:-0.02em;}.cls-10{letter-spacing:-0.01em;}.cls-11{letter-spacing:-0.01em;}.cls-12{letter-spacing:-0.01em;}.cls-13,.cls-14,.cls-15,.cls-16,.cls-17{stroke:#262626;stroke-linecap:round;stroke-width:0.5px;}.cls-14{fill:#fab637;}.cls-15{fill:#ffe7a1;}.cls-16{fill:#4ca8de;}.cls-17{fill:#cfcece;}.cls-18{fill:#ec6062;stroke:#cc444b;}</style></defs><path class="cls-1" d="M208.08,345.2l-3.35,23.88,25.9-10.45,8,12.93L236.37,395l22.34,4.55-.9,5.57,6.11,1.6-1.71,9.3-7.67-1.92L251,427.93l-14.61,4.77-9-5.11-9.31,2.65-7.9,10-6.46-3.06-9.88,3.67-9.72-11.37L162.94,453l-26-8.18,8.82,40.11-13.33-3.82-4.56-8.29-26.1,1-13.94-12-.44-24.64L72.48,406l5.9-14.48,16.71,17.36,12.79-8.05,15.49-3.33,4.62-6.15,6.84,1.91,9-10.45L130,375.31l2.74-13.05,6-7.47,7.13,4.62-.76-4.15,4.42.83,24.3,14.65,7.54-1.74,1.42,5.62,12.09-12.19.85-9.78Z"/><path class="cls-1" d="M127.4,341.2l16.5,41.54-9.07,10.52L128,391.35l-4.62,6.15-15.49,3.33-9.41,16.09L67,391.1,62.82,373l24.76-17.06,14.58.5,3-6.8-3.5-4.5Z"/><path class="cls-1" d="M401.24,202.39l16.35,4.85,1,15.89L432,226.36l6.69,44.87,7,8.44L444.39,298,453,312.45l8.58,0,2,8.55,11.93,3.55-3.68,38.16L484,374.58l7.14,30.23-4-5.11-11.53-1L455.7,418.57l-5.55-1.2-.47,10.86-15.84,3.68-.73,8.87-13.75,4.42L382.29,431l-13.83-21.4-1.1,11.6L355.59,415l-4.35,2.81-4.77-11.62-8.81-4.4-15.2,18-14.34.32-6.47,12.75L291.35,426l-2.86,8.37-7.92,1.92,2.59-17-10.86-1.53-3.19,5-8.31-5.39L263.94,407l-6.13-1.89,1.49-5.3L236.37,395l1.53-25.53-9.43-4.67-23.74,4.32,4.49-32,22-7.75,5.44-26.58L249,297.88,250.11,286l20.14,6.5,4.57-8.94,6.73-1.27.86-8.56,18.39-1.28-3.7-15.88L322,267.32l16.9-3.48,11.93,7.46,17-7.32,7.82,4.52,2.17-28.1,14.25-17,1.12-16.87Z"/><line class="cls-2" x1="204.97" y1="419.13" x2="204.98" y2="421.13"/><line class="cls-3" x1="205" y1="425.33" x2="205.36" y2="490.44"/><line class="cls-2" x1="205.37" y1="492.54" x2="205.38" y2="494.54"/><circle class="cls-4" cx="205.41" cy="495.19" r="1.57"/><circle class="cls-4" cx="204.95" cy="418.69" r="1.57"/><line class="cls-2" x1="370.45" y1="389.12" x2="370.46" y2="391.12"/><line class="cls-3" x1="370.48" y1="395.32" x2="370.84" y2="460.43"/><line class="cls-2" x1="370.85" y1="462.53" x2="370.86" y2="464.53"/><circle class="cls-4" cx="370.89" cy="465.18" r="1.57"/><circle class="cls-4" cx="370.43" cy="388.68" r="1.57"/><line class="cls-2" x1="111.27" y1="290.85" x2="111.27" y2="292.85"/><line class="cls-5" x1="111.28" y1="297.05" x2="111.44" y2="362.16"/><line class="cls-2" x1="111.45" y1="364.26" x2="111.46" y2="366.26"/><circle class="cls-4" cx="111.48" cy="366.92" r="1.57"/><circle class="cls-4" cx="111.25" cy="290.42" r="1.57"/><text class="cls-6" transform="translate(164.64 501.95)"><tspan class="cls-7">P</tspan><tspan x="7.32" y="0">asco</tspan></text><text class="cls-8" transform="translate(187.17 522.47)">1 p<tspan class="cls-9" x="20.79" y="0">r</tspan><tspan class="cls-10" x="25.99" y="0">o</tspan><tspan class="cls-11" x="34.37" y="0">y</tspan><tspan x="41.8" y="0">ec</tspan><tspan class="cls-12" x="57.73" y="0">t</tspan><tspan x="62.58" y="0">o</tspan></text><path class="cls-13" d="M172,517.94h1.3l.2-1,.17,0a3.55,3.55,0,0,0,1-.41l.14-.08.86.52.92-1-.55-.85L176,515a4,4,0,0,0,.4-1l0-.17,1-.23,0-1.32-1-.21,0-.16a3.86,3.86,0,0,0-.42-1l-.08-.14.52-.86-.94-.92-.85.56-.14-.09a3.71,3.71,0,0,0-1-.39l-.16,0-.24-1h-1.32l-.2,1-.17,0a4,4,0,0,0-1,.42l-.15.08-.84-.53-.91.94.55.84L169,511a4,4,0,0,0-.4,1l0,.17-1,.23,0,1.32,1,.21,0,.16a4,4,0,0,0,.42,1l.08.14-.53.86.95.92.85-.56.14.08a3.43,3.43,0,0,0,1,.4l.16,0Zm2.59-4.92a2,2,0,1,1-2-2A2,2,0,0,1,174.54,513Z"/><path class="cls-13" d="M178.22,524.46h.91l.14-.69.12,0a3.07,3.07,0,0,0,.69-.3l.1-.05.6.36.65-.66-.39-.6.06-.1a2.6,2.6,0,0,0,.27-.7l0-.11.69-.17v-.93l-.69-.14,0-.12a2.77,2.77,0,0,0-.29-.69l-.06-.09.37-.61-.67-.65-.59.4-.1-.06a2.63,2.63,0,0,0-.7-.28l-.12,0-.16-.69h-.93l-.14.69-.12,0a2.49,2.49,0,0,0-.69.29l-.1.06-.59-.38-.65.67.4.59-.06.1a2.63,2.63,0,0,0-.28.7l0,.12-.69.16v.93l.69.14,0,.12a2.62,2.62,0,0,0,.29.69l.06.1-.37.6.67.65.59-.39.11.06a2.54,2.54,0,0,0,.69.27l.12,0ZM180,521a1.41,1.41,0,1,1-1.41-1.41A1.41,1.41,0,0,1,180,521Z"/><rect class="cls-14" x="170.41" y="511.09" width="2.36" height="11.25" transform="translate(415.63 30.01) rotate(45)"/><polygon class="cls-15" points="164.64 525.11 166.78 519.86 170.13 523.2 164.64 525.11"/><rect class="cls-14" x="172.08" y="512.76" width="2.36" height="11.25" transform="translate(417.31 29.31) rotate(45)"/><rect class="cls-16" x="177.92" y="508.35" width="2.7" height="4.73" transform="translate(667.16 745.08) rotate(135)"/><rect class="cls-17" x="176.01" y="510.26" width="2.7" height="4.73" transform="translate(665.25 749.69) rotate(135)"/><text class="cls-6" transform="translate(69.34 260.66)">Daniel Alcides Carrión</text><text class="cls-8" transform="translate(91.87 281.19)">1 p<tspan class="cls-9" x="20.79" y="0">r</tspan><tspan class="cls-10" x="25.99" y="0">o</tspan><tspan class="cls-11" x="34.37" y="0">y</tspan><tspan x="41.8" y="0">ec</tspan><tspan class="cls-12" x="57.73" y="0">t</tspan><tspan x="62.58" y="0">o</tspan></text><path class="cls-13" d="M76.65,276.66H78l.2-1,.17,0a4.18,4.18,0,0,0,1-.42l.14-.08.85.52.92-.94-.55-.85.08-.14a3.74,3.74,0,0,0,.4-1l0-.16,1-.24,0-1.32-1-.2,0-.17a3.9,3.9,0,0,0-.41-1l-.09-.14.53-.86-1-.92-.85.56-.14-.09a4.2,4.2,0,0,0-1-.4l-.17,0-.23-1-1.33,0-.2,1-.16,0a3.86,3.86,0,0,0-1,.42l-.15.08-.84-.54-.91.95.56.84-.09.15a3.88,3.88,0,0,0-.4,1l0,.16-1,.24,0,1.32,1,.2,0,.17a4.18,4.18,0,0,0,.42,1l.08.14-.52.85.94.93.85-.56.14.08a3.74,3.74,0,0,0,1,.4l.16,0Zm2.59-4.93a2,2,0,1,1-2-2A2,2,0,0,1,79.24,271.73Z"/><path class="cls-13" d="M82.68,278.52h.91l.39,4,.11,0a2.49,2.49,0,0,0,.69-.29l.1-.06.6.37.65-.67-.39-.59.06-.1a3,3,0,0,0,.28-.7l0-.12.69-.16v-.93l-.69-.15,0-.11a2.49,2.49,0,0,0-.29-.69l-.06-.1.37-.6-.67-.65-.59.39-.1-.06A3,3,0,0,0,84,277l-.11,0-.17-.69h-.93l-.14.69-.12,0a2.62,2.62,0,0,0-.69.29l-.1.06-.59-.38-.65.66.4.6-.06.1a2.63,2.63,0,0,0-.28.7l0,.11-.69.17v.93l.69.14,0,.12a2.77,2.77,0,0,0,.29.69l.06.09-.37.61.67.65.59-.4.11.06a2.57,2.57,0,0,0,.69.28l.12,0Zm2.06,1.19a1.41,1.41,0,1,1-1.41-1.41A1.41,1.41,0,0,1,84.74,279.71Z"/><rect class="cls-14" x="75.11" y="269.81" width="2.36" height="11.25" transform="translate(217.11 26.72) rotate(45)"/><polygon class="cls-15" points="69.1 279.17 71.48 278.57 74.83 281.92 69.1 279.17"/><rect class="cls-14" x="76.79" y="271.48" width="2.36" height="11.25" transform="translate(218.78 26.03) rotate(45)"/><rect class="cls-16" x="82.62" y="267.07" width="2.7" height="4.73" transform="translate(333.86 400.57) rotate(135)"/><rect class="cls-17" x="80.71" y="268.97" width="2.7" height="4.73" transform="translate(331.96 405.18) rotate(135)"/><text class="cls-6" transform="translate(330.87 483.61)">Oxapampa</text><text class="cls-8" transform="translate(349.4 504.14)"><tspan xml:space="preserve"> 0 p</tspan><tspan class="cls-9" x="24.52" y="0">r</tspan><tspan class="cls-10" x="29.73" y="0">o</tspan><tspan class="cls-11" x="38.1" y="0">y</tspan><tspan x="45.53" y="0">ec</tspan><tspan class="cls-12" x="61.46" y="0">t</tspan><tspan x="66.31" y="0">os</tspan></text><path class="cls-13" d="M338.18,499.61h1.3l.21-1,.16,0a4.18,4.18,0,0,0,1-.42l.14-.08.86.52.92-.95-.56-.84.08-.15a3.55,3.55,0,0,0,.4-1l0-.16,1-.24V494l-1-.2-.05-.17a3.74,3.74,0,0,0-.41-1l-.08-.14.52-.86-.95-.92-.84.56-.15-.08a3.68,3.68,0,0,0-1-.4l-.16,0-.24-1H338l-.21,1-.16,0a3.61,3.61,0,0,0-1,.41l-.14.09-.84-.54-.92.94.56.85-.09.14a3.71,3.71,0,0,0-.39,1l0,.16-1,.24v1.32l1,.2,0,.17a4,4,0,0,0,.42,1l.08.14-.52.86.95.92.84-.56.15.09a3.52,3.52,0,0,0,1,.39l.16,0Zm2.59-4.93a2,2,0,1,1-2-2A2,2,0,0,1,340.77,494.68Z"/><path class="cls-13" d="M344.45,506.13h.92l.14-.69.12,0a3,3,0,0,0,.68-.29l.1-.06.6.37.65-.67-.39-.6.06-.1a2.5,2.5,0,0,0,.28-.7l0-.11.69-.17v-.93l-.69-.14,0-.12a3,3,0,0,0-.3-.68l-.05-.1.36-.61-.66-.64-.6.39-.1-.06a2.5,2.5,0,0,0-.7-.28l-.11,0-.17-.69h-.93l-.14.69-.12,0a3.2,3.2,0,0,0-.69.29l-.1.06-.59-.37-.64.66.39.59-.06.11a2.57,2.57,0,0,0-.28.69l0,.12-.69.17v.92l.69.15,0,.11a2.89,2.89,0,0,0,.3.69l.05.1-.36.6.66.65.6-.39.1.06a2.5,2.5,0,0,0,.7.28l.11,0Zm1.82-3.47a1.41,1.41,0,1,1-1.41-1.41A1.41,1.41,0,0,1,346.27,502.66Z"/><rect class="cls-14" x="336.65" y="492.76" width="2.36" height="11.25" transform="translate(451.36 -92.91) rotate(45)"/><polygon class="cls-15" points="330.87 506.77 333.01 501.52 336.36 504.87 330.87 506.77"/><rect class="cls-14" x="338.32" y="494.43" width="2.36" height="11.25" transform="translate(453.03 -93.6) rotate(45)"/><rect class="cls-16" x="344.15" y="490.01" width="2.7" height="4.73" transform="translate(937.98 596.23) rotate(135)"/><rect class="cls-17" x="342.25" y="491.92" width="2.7" height="4.73" transform="translate(936.07 600.84) rotate(135)"/><circle class="cls-18" cx="111.48" cy="376.94" r="6.43"/><circle class="cls-18" cx="204.73" cy="408.62" r="6.43"/></svg>