<svg id="Capa_1" data-name="Capa 1" xmlns="http://www.w3.org/2000/svg" viewBox="0 0 554 932"><defs><style>.cls-1{fill:#71c2e9;stroke:#377c9c;stroke-width:3px;}.cls-1,.cls-17,.cls-18{stroke-miterlimit:1.75;}.cls-2{font-size:12px;font-family:Roboto-Light, Roboto;font-weight:300;}.cls-2,.cls-21,.cls-8{fill:#1d1d1b;}.cls-3{letter-spacing:-0.02em;}.cls-4{letter-spacing:-0.01em;}.cls-5{letter-spacing:0.01em;}.cls-6{letter-spacing:-0.01em;}.cls-7{letter-spacing:-0.02em;}.cls-8{font-size:15px;font-family:Roboto-Bold, Roboto;font-weight:700;}.cls-9{letter-spacing:-0.02em;}.cls-10{letter-spacing:-0.01em;}.cls-11{letter-spacing:-0.01em;}.cls-12,.cls-19,.cls-20,.cls-22,.cls-23,.cls-24,.cls-25,.cls-26,.cls-27,.cls-28{fill:none;}.cls-12,.cls-13,.cls-14,.cls-15,.cls-16{stroke:#262626;stroke-linecap:round;stroke-width:0.5px;}.cls-12,.cls-13,.cls-14,.cls-15,.cls-16,.cls-19,.cls-20,.cls-22,.cls-23,.cls-24,.cls-25,.cls-26,.cls-27,.cls-28{stroke-linejoin:round;}.cls-13{fill:#fab637;}.cls-14{fill:#ffe7a1;}.cls-15{fill:#4ca8de;}.cls-16{fill:#cfcece;}.cls-17{fill:#afd28c;stroke:#71915a;isolation:isolate;}.cls-18{fill:#ec6062;stroke:#cc444b;}.cls-19,.cls-20,.cls-22,.cls-23,.cls-24,.cls-25,.cls-26,.cls-27,.cls-28{stroke:#0b0c0c;}.cls-20{stroke-dasharray:3.86 3.86;}.cls-22{stroke-dasharray:3.85 3.85;}.cls-23{stroke-dasharray:3.96 3.96;}.cls-24{stroke-dasharray:3.94 3.94;}.cls-25{stroke-dasharray:3.63 3.63;}.cls-26{stroke-dasharray:4.07 4.07;}.cls-27{stroke-dasharray:3.9 3.9;}.cls-28{stroke-dasharray:3.73 3.73;}</style></defs><path class="cls-1" d="M294.37,493.8l1.58,4.89,7.19.3-7.17.11Zm-1-2.52,2.45,1.9.75.73-5.1.14Zm-15.21.18-.9-.66,1-1.15Zm16.31-16.56,1,2-.72,3.45ZM292,463.15l1.59,1.56-2.82,2Zm-21.34-16.88,15,20.64-4.85-.81,6.85,5.56-8.9-1.77-3.95-9.55-10.21-7.93,3.25,1.42-.14,6.9-5.9,4.29.29,4.17-5.4-1.72-2.61,4.16L254,477l5.37,5.83-3.05,3.67,14.25,3.64,3.63,5.72,1.63-2.56,7.18,2.15.08-4.27-7.76-4.22,5.2-8.25,4.59,5.75.65,9.13,6.87.94,10.53,8.93-10.74,10.34,3.9,3.27L292,526.24l-11.6,9.53.83,12.57-6,1.8-5,12.5-7.88,3.4-7.07,10.73-7.3,2.79-9-4.85L236.7,566l-13.45-6.82-2.76-7.08-6.61-3.66,4.23-4.37,2-16.52-3.71.28L211.6,521l-4.41-13-7.77.16L193,501.71l5.35-.73,8.14-9.31L210,473.25l11.91,0L234.8,459.4l6.4,6.13,2.59-3.75,4.59.58,8.44-10.44,5.66-.63,7.87-7.9Zm-35.75,22.8-.16,8.22,6.9-2.57-.93-4.28-4.41,1.62Z"/><path class="cls-1" d="M237.09,307.92l5.2,5.48L261,314.86l8.51,5.63.88,6.88-6.56,1.8-7.17,7.8,2.81,2.86L270,337.91l4.87,5.23.63,20.58-7.18,8.7-3.07-2.59-5.82,3.5,2.51,18.11,10.43,9.16-2.74,7.14,2.33,3.34-5.86-5.8-2.85,3-3.82-7.62-.2,6.89L255,406.3,253,400.83l-8.58,4.43,6.29,5.15L271,412l-12.63,8L261,432.51l-3.6,2.12L252.07,429l-5,3.46-3.31-5.4-4.13,2,.54-6.6-5.76.14-2.92-11.31-5.06-4.12-9.57-.23,1.29-15.28L204,379.5l3.65-7.82-1-8.2,7.37-14.07-5.66-10.11,10.19,0-3.08-4.43,4.59-8.44.33-13.68,5.26-2.37,1.49-5.37,4.42,3,2.39-4.67Z"/><path class="cls-1" d="M211.71,169.87l86.82,26.24,2,7.7-5.82,10.71-6.29.57,4.72,1.85-6.64,25-3.71,1.37,14,18-7,13.17-8.34,5.5L275,301.85l7.89,2.37.23,4.17,6.35,4.2.71,8.41,7.13,3.58-3.52,7.63-10-8-12.36-.9-10.18-8.39-18.92-1.51-8.43-10L229,307.64l-9-15.08L213.24,295l-4.32-2.1-8.19,4.89L192.17,289l-5.69,1.71-3.83-4.45-4.58.35-3-5.58-15.19-2.49.31-10.31,4.29-6.11L156.42,251l2.94-2,2.95,3.35,7-1.53,6.77,3.33,1.19-4.63-4.22-7.85,2.34-8.45,6-.2,13.77-9.6.55-5.36,10-9.65-2.22-.92,2.4-8.65,6,.75.45-6.37,5.75-.45-8.91-6.71,4.45-5.79-.6-8.47-3.24.18Z"/><path class="cls-1" d="M307.54,523.9l9.14,4,12.08-3.24,1.47,6.38,9.35,2.15,4.23,5.32,2.67-4.4,4,.24-.36,4.22,7.16,3.58.58,7.6L359.3,546l8.08,3.16,1.35,4.33-6.41,7.83,11.78,18.38L354,587.92,352.13,596l-24,25.8,2.3,6.09L308.59,639.7,304,630.54l7.88-4-3.59-26.35,6.27-10-3.57-8.76,5.19-1.79,3-22.8-7.46-4.71-2.12,3.29L297.28,553l-3-5.43,3.66-7.39,7.29-3.35Z"/><path class="cls-1" d="M303.64,498.69l17.79,4.3,3.4,7.37L321.31,517l2.43-3.94-2.74-4-5.47,14.79-8.07.07-2.24,12.94-7.29,3.35-3.66,7.27,3,5.55,20.45.33,1.49,5.22-3.09,21-5.19,1.79,3.57,8.76-6.27,10,3.59,26.35-7.88,4,4.64,9.16-9.07,13-10.38.93-6.6-6.83-7.23.88L253.4,634.23l-.23-8-12.06-13.89,6-5.53.46-9.26,10.95-9.39-3.48-15.09,15.07-10.45L275.28,550l5.93-1.68-.88-12.45L292,526.24l4.35-9.21-3.9-3.27,5.47-3.09.48-5.15,10.87-4.64,10.95,4.93Z"/><path class="cls-1" d="M318.24,361.68l7.61,9.56,6.9-6.18L332,383.51l9.63,17.22,10,5.66,8.13,11.72-6.49.15-13.46-11.48-17.87,12.11-8.34-2.11-2.73,6.93L291.67,415l-5.79,2.87,6.95,6-6-3.1-3.5,4.25-3.9-5.3-.4,3.79-2.13-3.23-7.63,2.82,5.31,5.11-4.13-.75,2.42,3,3.1-4.24,6.21,2.5-9.56,2.93-3.57-2.48-2.4,3.3-.88-2.66L269,446.66l-7.71,3.42-6.2-11.39-6.78,2,1.55-6.69-2.78-1.59,3.28-3.5,4.73,5.2,5.73-1.29-3.5-11.07,14.47-10.48-.55-13.85,6.05-10.84,5.89-3.83,6,5,2.14-5,10.49-.53L302.9,378l8.12,1.89,3.46-18Z"/><path class="cls-1" d="M201.78,380l14.52,7.77.51,19,9.64.36,5.06,4.12,2.92,11.31,5.76-.14-.54,6.6-2.48,2.57-11-7.3L224.26,429l2.74,4.78-8.44,1.85,9.75,16.21-12.63,13-12.5-.84L197,467.65l-2,5.83-3.06-2.19L178.63,480l-12.72-1.64-11,8.13-5.79-8.75,4.89-6.63L152,462.51l-10.19-8.65-1.41-8,2.94-4.76L138,434.9l3.8-8.1,6.46-3.85-4.06-6.12,2.64-3.86-3.6-15.17,18.4-9.64,8.4,3.31,6.23,11.2,11.11-.87,7.5,8.74,4-5.63-4.36-7.2.92-10.56,4.81-9.1Z"/><path class="cls-1" d="M175.45,281.35l2.62,5.28,9.8,4.35,4.3-2,8.56,8.77,8.19-4.89,4.32,2.1,6.74-2.44,7.27,13.35-7.08,7.21-.2,13.34-4.59,8.44,3.08,4.43-10.19,0,5.62,10.28-7.33,13.9-2.31,16.22-4.07-1.65-4.81,9.1-.92,10.56,4.36,7.2-4.11,5.65-7.35-8.76-11.11.87L170,391.47l-8.4-3.31-18.4,9.64,2.15-37-4.4-2.93-4.64,1.69-7.5-12.31,17.57-9.21-3.84-7.6,4.27-6.73-2.73-7.49,9-5.27,3.24-7.38-.72-11.46,7.52-3.51,3.62-7.21Z"/><path class="cls-1" d="M340.83,407.7l12.8,9.91L343.56,431.3l2.25,10-5.69-2.72-4.75,11.69-6.93-3.55,1.62-2.92,3.13,3.34-3-4.56-6.58.79.11,3.16-10.4-15.7-13-1.93-.7-7.78-3.23-1.3,3.39-1.57,11.08,5.47,2.73-6.93,8.34,2.11,5.35-6.25Z"/><path class="cls-1" d="M345.07,308.79l3.09,14.33,8.29,1.4,4.18,4.61-4.81,3.58.48,6.74-8.27.22-4.25,11.77,3.87,6.37-1.74,2.37-7.25.73-12.81,10.33-5.72-9.54-4-1L311,379.85,302.9,378l-1.11,4.22-10.49.53-2.14,5-8-4.57-5.45,5.41-3.38,12-4.7-1.26-5.73-7.9-2.51-18.11,5.82-3.5,3.07,2.59L277,357.74l-2.89-17.13-4.59-2.84-10.14,2L256.69,337l2.42-3.47,11.09-5.86.59-5.09,13,1.65,5.82,7,6.39,1.73,1.73,9.83,5,6.16,17-8.6,13.69,4.17,5.94-16-.77-10L342,308.32Z"/><path class="cls-1" d="M230.68,427l6.49,4.67,5.63-5,2.88,1.33,4.21,6-1.55,6.69,6.78-2,7.36,12.6-5.66.63-8.44,10.44-4.59-.58-2.54,3.75-6.45-6.13-12.89,13.89-11.91,0-3.51,18.42L198.35,501,184,502.3l-9.4,5.39-13.77-7.22-.23-5.62-6.13-5.3,5.95-8.28,11.41-3.45,6.81,2.13L192,471.27l2.86,2.26,2.14-5.88,7.19-3.95,10.39,1.85,13.52-13.28-3.41-10.52-6.26-5.56,4.24-3.5,4.34,1.09L224.26,429l1.93-4.66Z"/><path class="cls-1" d="M389,157.81l2,4.31-3.22,10.21,3.78,12.79L385.66,210,383,217.36l-2.48-.35-1.35,9.5-6.08,2.28,1.07,3.27-5.9-.85L365.87,236l10.73,8.55-2.29,3.11,8.9,3.09-7.54,9.32.42,9.46,10.23,8.11,6.6,11.38-2.65,2.05,3.28,6.57-18.17,2.05-3.5,9,3.47,6.9-13.12,12.93-14.07-5.42-.92-11.18-4.69-4.12-6.88,35.51-9.73.84-8-3.61-15.24,8.32-9-16.67,3.52-7.63L290.17,321l-.71-8.41-6.35-4.2-.23-4.17L275,302l6.47-22,8.34-5.5,7-13.22-14-17.85,3.71-1.48,6.64-25-4.72-1.85,6.19-.49.5-5.06,2.86.1,2.56-5.83-2-7.7Z"/><path class="cls-1" d="M395.12,544l-12,6.45V530.73Zm-14.39-13.21-.72,1.27-1-2.12Zm-4.47-5.16,2.16,4.33-2.82,4.48-2.7.7,1.85-4.06L370,535.52l-5.28-1.64,6.37,8.26L371,550.5l-2.39,1.84L360.16,546l-2.27,3.68-.58-7.6-7.16-3.58.36-4.22Z"/><text class="cls-2" transform="translate(79.61 171.66)">Ca<tspan class="cls-3" x="14.22" y="0">r</tspan><tspan x="18.02" y="0">ab</tspan><tspan class="cls-4" x="31.1" y="0">ay</tspan><tspan x="43.05" y="0">a</tspan></text><text class="cls-2" transform="translate(39.07 260.17)">Melgar</text><text class="cls-2" transform="translate(29.99 349.96)"><tspan class="cls-5">A</tspan><tspan x="7.56" y="0">zánga</tspan><tspan class="cls-6" x="39.5" y="0">r</tspan><tspan x="43.42" y="0">o</tspan></text><text class="cls-2" transform="translate(385.14 328.03)">San An<tspan class="cls-6" x="37.13" y="0">t</tspan><tspan x="40.87" y="0">onio de putina</tspan></text><text class="cls-2" transform="translate(367.44 386.64)">Huancané</text><text class="cls-2" transform="translate(369.16 440.83)">Moho</text><text class="cls-2" transform="translate(33.77 442.08)">Lampa</text><text class="cls-2" transform="translate(101.78 556.33)">Puno</text><text class="cls-2" transform="translate(31.76 502.19)">San Román</text><text class="cls-2" transform="translate(127.24 626.45)">El Collao</text><text class="cls-2" transform="translate(374.43 599.82)">Chucui<tspan class="cls-6" x="36.43" y="0">t</tspan><tspan x="40.17" y="0">o</tspan></text><text class="cls-2" transform="translate(360.97 480.79)"><tspan class="cls-7">Y</tspan><tspan x="6.96" y="0">ungu</tspan><tspan class="cls-4" x="33.39" y="0">y</tspan><tspan x="39" y="0">o</tspan></text><text class="cls-2" transform="translate(394.13 231.85)">Sandia</text><text class="cls-8" transform="translate(97.75 192.65)"><tspan xml:space="preserve"> 2 p</tspan><tspan class="cls-9" x="24.52" y="0">r</tspan><tspan class="cls-4" x="29.73" y="0">o</tspan><tspan class="cls-10" x="38.1" y="0">y</tspan><tspan x="45.53" y="0">ec</tspan><tspan class="cls-11" x="61.46" y="0">t</tspan><tspan x="66.31" y="0">os</tspan></text><path class="cls-12" d="M86.52,188.12h1.31l.2-1,.17,0a4,4,0,0,0,1-.42l.14-.08.86.52.92-1-.56-.84.09-.15a3.88,3.88,0,0,0,.4-1l0-.16,1-.24,0-1.32-1-.2,0-.17a4.18,4.18,0,0,0-.42-1L90.5,181l.52-.85-.94-.92-.85.55-.15-.08a3.55,3.55,0,0,0-1-.4l-.16,0-.24-1-1.32,0-.2,1-.17,0a4.31,4.31,0,0,0-1,.41l-.15.09-.84-.54-.91.94.55.85-.08.15a3.55,3.55,0,0,0-.4,1l0,.16-1,.24,0,1.32,1,.2,0,.17a3.55,3.55,0,0,0,.41,1l.09.14-.53.86,1,.92.85-.56.14.09a4.2,4.2,0,0,0,1,.4l.17,0Zm2.59-4.93a2,2,0,1,1-2-2A2,2,0,0,1,89.11,183.19Z"/><path class="cls-12" d="M92.79,194.64h.92l.14-.69.12,0a2.77,2.77,0,0,0,.69-.29l.1-.06.6.37.65-.67-.4-.59.06-.11a2.28,2.28,0,0,0,.28-.69l0-.12.69-.17v-.92l-.69-.15,0-.11a2.49,2.49,0,0,0-.29-.69l-.06-.1L96,189l-.67-.65-.59.39-.1-.06a2.63,2.63,0,0,0-.7-.28l-.12,0-.16-.7h-.93l-.15.7-.11,0a2.89,2.89,0,0,0-.69.3l-.1.06-.59-.38-.65.66.4.6-.06.1a2.23,2.23,0,0,0-.28.7l0,.11-.69.17v.93l.69.14,0,.12a2.57,2.57,0,0,0,.29.68l.06.1-.37.61.67.64.59-.39.1.06a2.63,2.63,0,0,0,.7.28l.12,0Zm1.83-3.47a1.42,1.42,0,1,1-1.42-1.41A1.42,1.42,0,0,1,94.62,191.17Z"/><rect class="cls-13" x="84.99" y="181.27" width="2.36" height="11.25" transform="translate(157.39 -6.19) rotate(45)"/><polygon class="cls-14" points="79.22 195.29 81.36 190.03 84.7 193.38 79.22 195.29"/><rect class="cls-13" x="86.66" y="182.94" width="2.36" height="11.25" transform="translate(159.06 -6.89) rotate(45)"/><rect class="cls-15" x="92.5" y="178.52" width="2.7" height="4.73" transform="translate(288.12 242.43) rotate(135)"/><rect class="cls-16" x="90.59" y="180.43" width="2.7" height="4.73" transform="translate(286.21 247.04) rotate(135)"/><text class="cls-8" transform="translate(55.85 279.81)"><tspan xml:space="preserve"> 3 p</tspan><tspan class="cls-9" x="24.52" y="0">r</tspan><tspan class="cls-4" x="29.73" y="0">o</tspan><tspan class="cls-10" x="38.1" y="0">y</tspan><tspan x="45.53" y="0">ec</tspan><tspan class="cls-11" x="61.46" y="0">t</tspan><tspan x="66.31" y="0">os</tspan></text><path class="cls-12" d="M44.63,275.28h1.3l.2-1,.17,0a4.18,4.18,0,0,0,1-.42l.14-.08.86.52.92-.95-.56-.84.08-.15a3.55,3.55,0,0,0,.4-1l0-.16,1-.24v-1.32l-1-.2,0-.17a3.74,3.74,0,0,0-.41-1l-.08-.14.52-.85-1-.93-.85.56-.14-.08a3.68,3.68,0,0,0-1-.4l-.17,0-.23-1H44.48l-.21,1-.16,0a3.48,3.48,0,0,0-1,.41L43,267l-.84-.54-.92.94.56.85-.09.14a3.71,3.71,0,0,0-.39,1l0,.16-1,.24v1.32l1,.2,0,.17a4,4,0,0,0,.42,1l.08.14-.52.86.94.92.85-.56.15.09a3.52,3.52,0,0,0,1,.39l.16,0Zm2.59-4.93a2,2,0,1,1-2-2A2,2,0,0,1,47.22,270.35Z"/><path class="cls-12" d="M50.9,281.8h.91l.15-.69.11,0a2.49,2.49,0,0,0,.69-.29l.1-.06.6.37.65-.67-.39-.59.06-.11a2.5,2.5,0,0,0,.28-.7l0-.11.7-.17v-.93l-.7-.14,0-.12a3,3,0,0,0-.3-.68l0-.1.36-.61-.66-.64-.6.39-.1-.06a2.63,2.63,0,0,0-.7-.28l-.11,0-.17-.69h-.93l-.14.69-.12,0a2.83,2.83,0,0,0-.69.3l-.1.05-.59-.37-.64.66.39.59-.06.11a2.57,2.57,0,0,0-.28.69l0,.12-.69.17v.92l.69.15,0,.11a2.83,2.83,0,0,0,.29.69l.06.1-.37.6.67.65.6-.39.1.06a2.5,2.5,0,0,0,.7.28l.11,0Zm1.82-3.47a1.41,1.41,0,1,1-1.41-1.41A1.41,1.41,0,0,1,52.72,278.33Z"/><rect class="cls-13" x="43.1" y="268.43" width="2.36" height="11.25" transform="translate(206.75 48.96) rotate(45)"/><polygon class="cls-14" points="37.32 282.44 39.47 277.19 42.81 280.54 37.32 282.44"/><rect class="cls-13" x="44.77" y="270.1" width="2.36" height="11.25" transform="translate(208.42 48.27) rotate(45)"/><rect class="cls-15" x="50.6" y="265.68" width="2.7" height="4.73" transform="translate(278.23 420.85) rotate(135)"/><rect class="cls-16" x="48.7" y="267.59" width="2.7" height="4.73" transform="translate(276.32 425.46) rotate(135)"/><text class="cls-8" transform="translate(45.77 370.77)"><tspan xml:space="preserve"> 10 p</tspan><tspan class="cls-9" x="33.13" y="0">r</tspan><tspan class="cls-4" x="38.33" y="0">o</tspan><tspan class="cls-10" x="46.71" y="0">y</tspan><tspan x="54.14" y="0">ec</tspan><tspan class="cls-11" x="70.07" y="0">t</tspan><tspan x="74.92" y="0">os</tspan></text><path class="cls-12" d="M34.55,366.24h1.3l.21-1,.16-.05a3.48,3.48,0,0,0,1-.41l.14-.08.86.52.92-.95-.56-.84.09-.15a3.65,3.65,0,0,0,.39-1l0-.16,1-.24v-1.32l-1-.21,0-.16a4.18,4.18,0,0,0-.42-1l-.08-.14.52-.86-.95-.92-.84.56-.15-.08a3.55,3.55,0,0,0-1-.4l-.16,0-.24-1H34.4l-.2,1-.17,0a3.74,3.74,0,0,0-1,.41l-.14.09-.84-.54-.92.94.56.85-.08.14a3.49,3.49,0,0,0-.4,1l0,.17-1,.23V362l1,.21.05.16a3.48,3.48,0,0,0,.41,1l.08.14-.52.86,1,.92.84-.56.15.09a3.65,3.65,0,0,0,1,.39l.16,0Zm2.59-4.93a2,2,0,1,1-2-2A2,2,0,0,1,37.14,361.31Z"/><path class="cls-12" d="M40.82,372.76h.92l.14-.69.12,0a2.62,2.62,0,0,0,.68-.3l.1-.05.61.36.64-.66-.39-.6.06-.1A2.5,2.5,0,0,0,44,370l0-.11.69-.17v-.93l-.69-.14,0-.12a2.57,2.57,0,0,0-.29-.68l-.06-.1.37-.61-.67-.64-.59.39-.11-.06a2.5,2.5,0,0,0-.7-.28l-.11,0-.17-.69h-.93l-.14.69-.12,0a2.57,2.57,0,0,0-.68.29l-.1.06-.6-.38-.64.67.39.59-.06.11a2.94,2.94,0,0,0-.28.69l0,.12-.69.16v.93l.69.15,0,.11a2.49,2.49,0,0,0,.29.69l.05.1-.36.6.66.65.6-.39.1.06a3,3,0,0,0,.7.28l.11,0Zm1.82-3.47a1.41,1.41,0,1,1-1.41-1.41A1.41,1.41,0,0,1,42.64,369.29Z"/><rect class="cls-13" x="33.02" y="359.38" width="2.36" height="11.25" transform="translate(268.12 82.73) rotate(45)"/><polygon class="cls-14" points="27.24 373.4 29.39 368.15 32.73 371.49 27.24 373.4"/><rect class="cls-13" x="34.69" y="361.06" width="2.36" height="11.25" transform="translate(269.79 82.03) rotate(45)"/><rect class="cls-15" x="40.53" y="356.64" width="2.7" height="4.73" transform="translate(325.34 583.25) rotate(135)"/><rect class="cls-16" x="38.62" y="358.55" width="2.7" height="4.73" transform="translate(323.43 587.86) rotate(135)"/><text class="cls-8" transform="translate(48.18 462.64)"><tspan xml:space="preserve"> 5 p</tspan><tspan class="cls-9" x="24.52" y="0">r</tspan><tspan class="cls-4" x="29.73" y="0">o</tspan><tspan class="cls-10" x="38.1" y="0">y</tspan><tspan x="45.53" y="0">ec</tspan><tspan class="cls-11" x="61.46" y="0">t</tspan><tspan x="66.31" y="0">os</tspan></text><path class="cls-12" d="M37,458.11h1.3l.2-1,.17,0a3.55,3.55,0,0,0,1-.41l.14-.08.86.52.92-.95-.55-.84.08-.15a4,4,0,0,0,.4-1l0-.17,1-.23,0-1.32-1-.21,0-.16a4,4,0,0,0-.42-1l-.08-.14.52-.86-.94-.92-.85.56-.14-.08a3.43,3.43,0,0,0-1-.4l-.16,0-.24-1H36.8l-.2,1-.17.05a3.55,3.55,0,0,0-1,.41l-.15.08-.84-.53-.91.94.55.85-.08.14a4,4,0,0,0-.4,1l0,.17-1,.23,0,1.32,1,.21,0,.16a3.86,3.86,0,0,0,.42,1l.08.14-.53.86,1,.92.85-.56.14.09a3.71,3.71,0,0,0,1,.39l.16,0Zm2.59-4.92a2,2,0,1,1-2-2A2,2,0,0,1,39.55,453.19Z"/><path class="cls-12" d="M43.23,464.63h.91l.14-.68.12,0a3.07,3.07,0,0,0,.69-.3l.1-.05.6.36.65-.66-.39-.6.06-.1a2.6,2.6,0,0,0,.27-.7l0-.11.69-.17v-.93l-.69-.14,0-.12a2.77,2.77,0,0,0-.29-.69l-.06-.09.37-.61-.67-.65-.59.4-.1-.06a2.63,2.63,0,0,0-.7-.28l-.12,0-.16-.69h-.93l-.14.69-.12,0a2.49,2.49,0,0,0-.69.29l-.1.06-.59-.38-.65.67.4.59-.06.1a2.63,2.63,0,0,0-.28.7l0,.12-.69.16v.93l.69.15,0,.11a2.49,2.49,0,0,0,.29.69l.06.1-.37.6.67.65.59-.39.11.06a2.94,2.94,0,0,0,.69.28l.12,0Zm1.82-3.46a1.41,1.41,0,1,1-1.41-1.41A1.41,1.41,0,0,1,45.05,461.17Z"/><rect class="cls-13" x="35.42" y="451.26" width="2.36" height="11.25" transform="translate(333.79 107.94) rotate(45)"/><polygon class="cls-14" points="29.65 465.28 31.79 460.03 35.14 463.37 29.65 465.28"/><rect class="cls-13" x="37.09" y="452.94" width="2.36" height="11.25" transform="translate(335.46 107.24) rotate(45)"/><rect class="cls-15" x="42.93" y="448.52" width="2.7" height="4.73" transform="translate(394.41 738.4) rotate(135)"/><rect class="cls-16" x="41.02" y="450.43" width="2.7" height="4.73" transform="translate(392.51 743) rotate(135)"/><text class="cls-8" transform="translate(49.43 522.19)"><tspan xml:space="preserve"> 7 p</tspan><tspan class="cls-9" x="24.52" y="0">r</tspan><tspan class="cls-4" x="29.73" y="0">o</tspan><tspan class="cls-10" x="38.1" y="0">y</tspan><tspan x="45.53" y="0">ec</tspan><tspan class="cls-11" x="61.46" y="0">t</tspan><tspan x="66.31" y="0">os</tspan></text><path class="cls-12" d="M38.21,517.66h1.31l.2-1,.17,0a3.55,3.55,0,0,0,1-.41l.14-.08.86.52.92-.95-.56-.84.09-.15a3.65,3.65,0,0,0,.39-1l0-.16,1-.24V512l-1-.21,0-.16a4,4,0,0,0-.42-1l-.08-.14.52-.86-1-.92-.84.56-.15-.08a3.27,3.27,0,0,0-1-.4l-.16,0-.24-1H38.06l-.2,1-.17.05a3.74,3.74,0,0,0-1,.41l-.14.08-.84-.53-.92.94.56.85-.08.14a3.68,3.68,0,0,0-.4,1l0,.17-1,.23v1.32l1,.21,0,.16a3.48,3.48,0,0,0,.41,1l.08.14-.52.86.95.92.85-.56.14.09a3.65,3.65,0,0,0,1,.39l.17,0Zm2.59-4.92a2,2,0,1,1-2-2A2,2,0,0,1,40.8,512.74Z"/><path class="cls-12" d="M44.48,524.18h.92l.14-.68.12,0a3.28,3.28,0,0,0,.69-.3l.09,0,.61.36.65-.66-.4-.6.06-.1a2.5,2.5,0,0,0,.28-.7l0-.11.69-.17v-.93l-.69-.14,0-.12a2.77,2.77,0,0,0-.29-.69l-.06-.09.37-.61-.67-.65-.59.4-.11-.06a2.57,2.57,0,0,0-.69-.28l-.12,0-.17-.69h-.92l-.15.69-.11,0a2.49,2.49,0,0,0-.69.29l-.1.06-.59-.38-.65.67.39.59-.06.1a3,3,0,0,0-.28.7l0,.12-.69.16v.93l.69.15,0,.11a2.49,2.49,0,0,0,.29.69l.06.1-.37.6.67.65.59-.39.1.06a3,3,0,0,0,.7.28l.12,0Zm1.82-3.46a1.41,1.41,0,1,1-1.41-1.41A1.41,1.41,0,0,1,46.3,520.72Z"/><rect class="cls-13" x="36.68" y="510.81" width="2.36" height="11.25" transform="translate(376.27 124.49) rotate(45)"/><polygon class="cls-14" points="30.91 524.83 33.05 519.58 36.39 522.92 30.91 524.83"/><rect class="cls-13" x="38.35" y="512.49" width="2.36" height="11.25" transform="translate(377.94 123.8) rotate(45)"/><rect class="cls-15" x="44.19" y="508.07" width="2.7" height="4.73" transform="translate(438.67 839.17) rotate(135)"/><rect class="cls-16" x="42.28" y="509.98" width="2.7" height="4.73" transform="translate(436.76 843.77) rotate(135)"/><text class="cls-8" transform="translate(120.31 574.98)"><tspan xml:space="preserve"> 8 p</tspan><tspan class="cls-9" x="24.52" y="0">r</tspan><tspan class="cls-4" x="29.73" y="0">o</tspan><tspan class="cls-10" x="38.1" y="0">y</tspan><tspan x="45.53" y="0">ec</tspan><tspan class="cls-11" x="61.46" y="0">t</tspan><tspan x="66.31" y="0">os</tspan></text><path class="cls-12" d="M109.09,570.45h1.3l.21-1,.16,0a4,4,0,0,0,1-.42l.14-.08.86.52.92-.94-.56-.85.08-.15a3.27,3.27,0,0,0,.4-1l0-.16,1-.24V564.8l-1-.2,0-.17a3.55,3.55,0,0,0-.41-1l-.08-.14.52-.86-1-.92-.84.56-.15-.09a4,4,0,0,0-1-.4l-.16,0-.24-1-1.32,0-.21,1-.16,0a4.18,4.18,0,0,0-1,.42l-.14.08-.84-.54-.92.95.56.84-.09.15a3.52,3.52,0,0,0-.39,1l0,.16-1,.24v1.32l1,.2,0,.17a4.18,4.18,0,0,0,.42,1l.08.14-.52.85.95.92.84-.55.15.08a3.55,3.55,0,0,0,1,.4l.16,0Zm2.59-4.93a2,2,0,1,1-2-2A2,2,0,0,1,111.68,565.52Z"/><path class="cls-12" d="M115.36,577h.92l.14-.69.12,0a2.57,2.57,0,0,0,.68-.29l.1-.06.61.37.64-.67-.39-.59.06-.1a2.63,2.63,0,0,0,.28-.7l0-.12.69-.16V573l-.69-.15,0-.11a2.54,2.54,0,0,0-.3-.69l0-.1.36-.6-.66-.65-.6.39-.1-.06a2.85,2.85,0,0,0-.7-.28l-.11,0-.17-.69h-.93l-.14.69-.12,0a2.57,2.57,0,0,0-.68.29l-.11.06-.59-.38-.64.66.39.6-.06.1a2.5,2.5,0,0,0-.28.7l0,.11-.69.17V574l.69.14,0,.12a3.28,3.28,0,0,0,.3.69l0,.09-.36.61.66.64.6-.39.1.06a2.5,2.5,0,0,0,.7.28l.11,0Zm1.82-3.47a1.41,1.41,0,1,1-1.41-1.41A1.41,1.41,0,0,1,117.18,573.5Z"/><rect class="cls-13" x="107.56" y="563.6" width="2.36" height="11.25" transform="translate(434.35 89.83) rotate(45)"/><polygon class="cls-14" points="101.78 577.62 103.93 572.36 107.27 575.71 101.78 577.62"/><rect class="cls-13" x="109.23" y="565.27" width="2.36" height="11.25" transform="translate(436.02 89.14) rotate(45)"/><rect class="cls-15" x="115.07" y="560.86" width="2.7" height="4.73" transform="translate(596.99 879.16) rotate(135)"/><rect class="cls-16" x="113.16" y="562.76" width="2.7" height="4.73" transform="translate(595.08 883.77) rotate(135)"/><text class="cls-8" transform="translate(145.77 645.58)"><tspan xml:space="preserve"> 8 p</tspan><tspan class="cls-9" x="24.52" y="0">r</tspan><tspan class="cls-4" x="29.73" y="0">o</tspan><tspan class="cls-10" x="38.1" y="0">y</tspan><tspan x="45.53" y="0">ec</tspan><tspan class="cls-11" x="61.46" y="0">t</tspan><tspan x="66.31" y="0">os</tspan></text><path class="cls-12" d="M134.55,641.05h1.3l.21-1,.16,0a4.18,4.18,0,0,0,1-.42l.14-.08.86.52.92-.95-.56-.84.08-.15a3.55,3.55,0,0,0,.4-1l0-.16,1-.24V635.4l-1-.2,0-.17a3.74,3.74,0,0,0-.41-1l-.08-.14.52-.85-1-.93-.84.56-.15-.08a3.68,3.68,0,0,0-1-.4l-.16,0-.24-1H134.4l-.21,1-.16,0a3.61,3.61,0,0,0-1,.41l-.14.09-.84-.54-.92.94.56.85-.09.14a3.71,3.71,0,0,0-.39,1l0,.16-1,.24v1.32l1,.2,0,.17a4,4,0,0,0,.42,1l.08.14-.52.86.95.92.84-.56.15.09a3.88,3.88,0,0,0,1,.4l.16,0Zm2.59-4.93a2,2,0,1,1-2-2A2,2,0,0,1,137.14,636.12Z"/><path class="cls-12" d="M140.82,647.57h.92l.14-.69.12,0a2.57,2.57,0,0,0,.68-.29l.1-.06.6.37.65-.67-.39-.59.06-.11a2.5,2.5,0,0,0,.28-.7l0-.11.69-.17v-.93l-.69-.14,0-.12a3,3,0,0,0-.3-.68l0-.1.36-.6-.66-.65-.6.39-.1-.06a2.5,2.5,0,0,0-.7-.28l-.11,0-.17-.69h-.93l-.14.69-.12,0a2.83,2.83,0,0,0-.69.3l-.1.05-.59-.37-.64.66.39.59-.06.11a2.57,2.57,0,0,0-.28.69l0,.12-.69.17v.93l.69.14,0,.12a3,3,0,0,0,.3.68l.05.1-.36.6.66.65.6-.39.1.06a2.5,2.5,0,0,0,.7.28l.11,0Zm1.82-3.47a1.41,1.41,0,1,1-1.41-1.41A1.41,1.41,0,0,1,142.64,644.1Z"/><rect class="cls-13" x="133.02" y="634.2" width="2.36" height="11.25" transform="translate(491.73 92.51) rotate(45)"/><polygon class="cls-14" points="127.24 648.22 129.39 642.96 132.73 646.31 127.24 648.22"/><rect class="cls-13" x="134.69" y="635.87" width="2.36" height="11.25" transform="translate(493.4 91.81) rotate(45)"/><rect class="cls-15" x="140.52" y="631.45" width="2.7" height="4.73" transform="translate(690.37 981.67) rotate(135)"/><rect class="cls-16" x="138.62" y="633.36" width="2.7" height="4.73" transform="translate(688.46 986.28) rotate(135)"/><text class="cls-8" transform="translate(390 618.93)"><tspan xml:space="preserve"> 5 p</tspan><tspan class="cls-9" x="24.52" y="0">r</tspan><tspan class="cls-4" x="29.73" y="0">o</tspan><tspan class="cls-10" x="38.1" y="0">y</tspan><tspan x="45.53" y="0">ec</tspan><tspan class="cls-11" x="61.46" y="0">t</tspan><tspan x="66.31" y="0">os</tspan></text><path class="cls-12" d="M378.77,614.4h1.31l.2-1,.17,0a4,4,0,0,0,1-.42l.14-.08.86.52.92-.94-.56-.85.09-.15a3.52,3.52,0,0,0,.39-1l0-.16,1-.24v-1.32l-1-.2,0-.17a4.18,4.18,0,0,0-.42-1l-.08-.14.52-.85-.94-.92-.85.55-.15-.08a3.55,3.55,0,0,0-1-.4l-.16,0-.24-1-1.32,0-.2,1-.17,0a4.58,4.58,0,0,0-1,.41l-.14.09-.84-.54-.92.94.56.85-.08.15a3.55,3.55,0,0,0-.4,1l0,.16-1,.24v1.32l1,.2,0,.17a3.55,3.55,0,0,0,.41,1l.08.14-.52.86.95.92.85-.55.14.08a4,4,0,0,0,1,.4l.17,0Zm2.59-4.93a2,2,0,1,1-2-2A2,2,0,0,1,381.36,609.47Z"/><path class="cls-12" d="M385,620.92H386l.14-.69.12,0a2.77,2.77,0,0,0,.69-.29l.09-.06.61.37.65-.67-.4-.59.06-.11a2.57,2.57,0,0,0,.28-.69l0-.12.69-.17V617l-.69-.15,0-.11a2.49,2.49,0,0,0-.29-.69l-.06-.1.37-.6-.67-.65L387,615l-.11-.06a2.57,2.57,0,0,0-.69-.28l-.12,0-.17-.7h-.92l-.15.7-.11,0a2.89,2.89,0,0,0-.69.3l-.1.06-.59-.38-.65.66.39.6-.06.1a2.48,2.48,0,0,0-.27.7l0,.11L382,617V618l.69.14,0,.12a2.57,2.57,0,0,0,.29.68l.06.1-.37.61.67.64.59-.39.1.06a2.63,2.63,0,0,0,.7.28l.12,0Zm1.82-3.47a1.41,1.41,0,1,1-1.41-1.41A1.41,1.41,0,0,1,386.86,617.45Z"/><rect class="cls-13" x="377.24" y="607.55" width="2.36" height="11.25" transform="translate(544.42 -87.99) rotate(45)"/><polygon class="cls-14" points="371.47 621.57 373.61 616.31 376.95 619.66 371.47 621.57"/><rect class="cls-13" x="378.91" y="609.22" width="2.36" height="11.25" transform="translate(546.09 -88.68) rotate(45)"/><rect class="cls-15" x="384.75" y="604.8" width="2.7" height="4.73" transform="translate(1088.44 763.49) rotate(135)"/><rect class="cls-16" x="382.84" y="606.71" width="2.7" height="4.73" transform="translate(1086.54 768.1) rotate(135)"/><text class="cls-8" transform="translate(379.5 499.49)"><tspan xml:space="preserve"> 5 p</tspan><tspan class="cls-9" x="24.52" y="0">r</tspan><tspan class="cls-4" x="29.73" y="0">o</tspan><tspan class="cls-10" x="38.1" y="0">y</tspan><tspan x="45.53" y="0">ec</tspan><tspan class="cls-11" x="61.46" y="0">t</tspan><tspan x="66.31" y="0">os</tspan></text><path class="cls-12" d="M368.28,495h1.3l.2-1,.17,0a4.18,4.18,0,0,0,1-.42l.14-.08.86.52.92-.95-.56-.84.08-.15a3.68,3.68,0,0,0,.4-1l0-.16,1-.24v-1.32l-1-.2,0-.17a3.74,3.74,0,0,0-.41-1l-.08-.14.52-.86-.95-.92-.84.56-.15-.08a3.68,3.68,0,0,0-1-.4l-.17,0-.23-1h-1.32l-.21,1-.16,0a3.61,3.61,0,0,0-1,.41l-.14.09-.84-.54-.92.94.56.85-.09.14a3.71,3.71,0,0,0-.39,1l0,.16-1,.23v1.33l1,.2,0,.17a4,4,0,0,0,.42,1l.08.14-.52.86.95.92.84-.56.15.09a3.52,3.52,0,0,0,1,.39l.16,0Zm2.59-4.93a2,2,0,1,1-2-2A2,2,0,0,1,370.87,490Z"/><path class="cls-12" d="M374.55,501.48h.91l.15-.69.11,0a2.83,2.83,0,0,0,.69-.29l.1-.06.6.37.65-.67-.39-.6.06-.1a2.5,2.5,0,0,0,.28-.7l0-.11.7-.17v-.93l-.7-.14,0-.12a3,3,0,0,0-.3-.68l0-.1.36-.61-.66-.64-.6.39-.1-.06a2.63,2.63,0,0,0-.7-.28l-.11,0-.17-.69h-.93l-.14.69-.12,0a3.2,3.2,0,0,0-.69.29l-.1.06-.59-.38-.64.67.39.59-.06.11a2.57,2.57,0,0,0-.28.69l0,.12-.69.17v.92l.69.15,0,.11a2.83,2.83,0,0,0,.29.69l.06.1-.37.6.67.65.6-.39.1.06a2.5,2.5,0,0,0,.7.28l.11,0Zm1.82-3.47A1.41,1.41,0,1,1,375,496.6,1.41,1.41,0,0,1,376.37,498Z"/><rect class="cls-13" x="366.75" y="488.11" width="2.36" height="11.25" transform="translate(456.88 -115.55) rotate(45)"/><polygon class="cls-14" points="360.97 502.13 363.12 496.87 366.46 500.21 360.97 502.13"/><rect class="cls-13" x="368.42" y="489.78" width="2.36" height="11.25" transform="translate(458.56 -116.25) rotate(45)"/><rect class="cls-15" x="374.25" y="485.36" width="2.7" height="4.73" transform="translate(986.07 567.01) rotate(135)"/><rect class="cls-16" x="372.35" y="487.27" width="2.7" height="4.73" transform="translate(984.16 571.62) rotate(135)"/><text class="cls-8" transform="translate(387.69 458.75)"><tspan xml:space="preserve"> 2 p</tspan><tspan class="cls-9" x="24.52" y="0">r</tspan><tspan class="cls-4" x="29.73" y="0">o</tspan><tspan class="cls-10" x="38.1" y="0">y</tspan><tspan x="45.53" y="0">ec</tspan><tspan class="cls-11" x="61.46" y="0">t</tspan><tspan x="66.31" y="0">os</tspan></text><path class="cls-12" d="M376.47,454.22h1.3l.2-1,.17,0a3.55,3.55,0,0,0,1-.41l.14-.08.86.52.92-1-.55-.84.08-.15a4,4,0,0,0,.4-1l0-.17,1-.23,0-1.32-1-.21,0-.16a4,4,0,0,0-.42-1l-.08-.14.52-.86-.94-.92-.85.56-.14-.08a3.43,3.43,0,0,0-1-.4l-.16,0-.24-1h-1.32l-.2,1-.17.05a3.55,3.55,0,0,0-1,.41l-.15.08-.84-.53-.91.94.55.85-.08.14a3.68,3.68,0,0,0-.4,1l0,.17-1,.23,0,1.32,1,.21,0,.16a4.19,4.19,0,0,0,.41,1l.09.14-.53.86.95.92.85-.56.14.09a3.71,3.71,0,0,0,1,.39l.16,0Zm2.58-4.92a2,2,0,1,1-2-2A2,2,0,0,1,379.05,449.3Z"/><path class="cls-12" d="M382.73,460.74h.92l.14-.68.12,0a3.07,3.07,0,0,0,.69-.3l.1-.05.6.36.65-.66-.39-.6.06-.1a2.6,2.6,0,0,0,.27-.7l0-.11.69-.17v-.93l-.69-.14,0-.12a2.77,2.77,0,0,0-.29-.69l-.06-.09.37-.61-.67-.65-.59.4-.1-.06a2.63,2.63,0,0,0-.7-.28l-.12,0-.16-.69h-.93l-.15.69-.11,0a2.49,2.49,0,0,0-.69.29l-.1.06-.59-.38-.65.67.4.59-.06.1a2.63,2.63,0,0,0-.28.7l0,.12-.69.16v.93l.69.15,0,.11a2.49,2.49,0,0,0,.29.69l.06.1-.37.6.67.65.59-.39.11.06a2.94,2.94,0,0,0,.69.28l.12,0Zm1.83-3.46a1.41,1.41,0,1,1-1.41-1.41A1.41,1.41,0,0,1,384.56,457.28Z"/><rect class="cls-13" x="374.93" y="447.37" width="2.36" height="11.25" transform="translate(430.48 -133.27) rotate(45)"/><polygon class="cls-14" points="369.16 461.39 371.3 456.14 374.64 459.48 369.16 461.39"/><rect class="cls-13" x="376.6" y="449.05" width="2.36" height="11.25" transform="translate(432.15 -133.97) rotate(45)"/><rect class="cls-15" x="382.44" y="444.63" width="2.7" height="4.73" transform="translate(971.24 491.69) rotate(135)"/><rect class="cls-16" x="380.53" y="446.54" width="2.7" height="4.73" transform="translate(969.33 496.29) rotate(135)"/><text class="cls-8" transform="translate(387.05 406.53)"><tspan xml:space="preserve"> 2 p</tspan><tspan class="cls-9" x="24.52" y="0">r</tspan><tspan class="cls-4" x="29.73" y="0">o</tspan><tspan class="cls-10" x="38.1" y="0">y</tspan><tspan x="45.53" y="0">ec</tspan><tspan class="cls-11" x="61.46" y="0">t</tspan><tspan x="66.31" y="0">os</tspan></text><path class="cls-12" d="M375.83,402h1.3l.21-1,.16,0a3.74,3.74,0,0,0,1-.41l.14-.08.86.52.92-.95-.56-.84.08-.15a3.68,3.68,0,0,0,.4-1l0-.17,1-.23v-1.32l-1-.21,0-.16a3.61,3.61,0,0,0-.41-1l-.08-.14.52-.86-.95-.92-.84.56-.15-.08a3.38,3.38,0,0,0-1-.4l-.16,0-.24-1h-1.32l-.21,1-.16.05a3.61,3.61,0,0,0-1,.41l-.14.08-.84-.53-.92.94.56.85-.09.14a3.65,3.65,0,0,0-.39,1l0,.17-1,.23v1.32l1,.21,0,.16a3.86,3.86,0,0,0,.42,1l.08.14-.52.86.95.92.84-.56.15.09a3.52,3.52,0,0,0,1,.39l.16,0Zm2.59-4.92a2,2,0,1,1-2-2A2,2,0,0,1,378.42,397.08Z"/><path class="cls-12" d="M382.1,408.52H383l.14-.69.12,0a3,3,0,0,0,.68-.3l.1-.05.6.36.65-.66-.39-.6.06-.1a2.63,2.63,0,0,0,.28-.7l0-.11.69-.17v-.93l-.69-.14,0-.12a3.28,3.28,0,0,0-.3-.69l-.05-.09.36-.61-.66-.65-.6.4-.1-.06a2.5,2.5,0,0,0-.7-.28l-.11,0-.17-.69H382l-.14.69-.12,0a2.77,2.77,0,0,0-.69.29l-.1.06-.59-.38-.64.67.39.59-.06.1a2.63,2.63,0,0,0-.28.7l0,.12-.69.16v.93l.69.15,0,.11a2.54,2.54,0,0,0,.3.69l.05.1-.36.6.66.65.6-.39.1.06a2.85,2.85,0,0,0,.7.28l.11,0Zm1.82-3.46a1.41,1.41,0,1,1-1.41-1.41A1.41,1.41,0,0,1,383.92,405.06Z"/><rect class="cls-13" x="374.3" y="395.15" width="2.36" height="11.25" transform="translate(393.37 -148.12) rotate(45)"/><polygon class="cls-14" points="368.52 409.17 370.67 403.92 374.01 407.26 368.52 409.17"/><rect class="cls-13" x="375.97" y="396.83" width="2.36" height="11.25" transform="translate(395.04 -148.81) rotate(45)"/><rect class="cls-15" x="381.8" y="392.41" width="2.7" height="4.73" transform="translate(933.23 402.99) rotate(135)"/><rect class="cls-16" x="379.9" y="394.32" width="2.7" height="4.73" transform="translate(931.32 407.6) rotate(135)"/><text class="cls-8" transform="translate(402.5 348.59)"><tspan xml:space="preserve"> 0 p</tspan><tspan class="cls-9" x="24.52" y="0">r</tspan><tspan class="cls-4" x="29.73" y="0">o</tspan><tspan class="cls-10" x="38.1" y="0">y</tspan><tspan x="45.53" y="0">ec</tspan><tspan class="cls-11" x="61.46" y="0">t</tspan><tspan x="66.31" y="0">os</tspan></text><path class="cls-12" d="M391.28,344.06h1.3l.2-1,.17,0a4,4,0,0,0,1-.42l.14-.08.86.52.92-.94-.55-.85.08-.14a4.1,4.1,0,0,0,.4-1l0-.16,1-.24,0-1.32-1-.2,0-.17a4,4,0,0,0-.42-1l-.08-.14.52-.86-.94-.92-.85.56-.14-.09a4.1,4.1,0,0,0-1-.4l-.16,0-.24-1-1.32,0-.2,1-.17,0a4,4,0,0,0-1,.42l-.15.08-.84-.54-.91.95.55.84-.08.15a3.88,3.88,0,0,0-.4,1l0,.16-1,.24,0,1.32,1,.2,0,.17a4.18,4.18,0,0,0,.42,1l.08.14-.53.85.95.93.85-.56.14.08a3.74,3.74,0,0,0,1,.4l.16,0Zm2.59-4.93a2,2,0,1,1-2-2A2,2,0,0,1,393.87,339.13Z"/><path class="cls-12" d="M397.55,350.58h.91l.14-.69.12,0a2.62,2.62,0,0,0,.69-.29l.1-.06.6.37.65-.67-.39-.59.06-.1a2.6,2.6,0,0,0,.27-.7l0-.12.69-.16v-.93l-.69-.14,0-.12a2.49,2.49,0,0,0-.29-.69l-.06-.1.37-.6-.67-.65-.59.39-.1-.06a3,3,0,0,0-.7-.28l-.12,0-.16-.69h-.93l-.14.69-.12,0a2.49,2.49,0,0,0-.69.29l-.1.06-.59-.38-.65.66.4.6-.06.1a2.63,2.63,0,0,0-.28.7l0,.11-.69.17v.93l.69.14,0,.12a2.77,2.77,0,0,0,.29.69l.06.09-.37.61.67.65.59-.4.11.06a2.57,2.57,0,0,0,.69.28l.12,0Zm1.82-3.47A1.41,1.41,0,1,1,398,345.7,1.41,1.41,0,0,1,399.37,347.11Z"/><rect class="cls-13" x="389.74" y="337.21" width="2.36" height="11.25" transform="translate(356.92 -176.01) rotate(45)"/><polygon class="cls-14" points="383.97 351.23 386.11 345.98 389.46 349.32 383.97 351.23"/><rect class="cls-13" x="391.41" y="338.88" width="2.36" height="11.25" transform="translate(358.59 -176.7) rotate(45)"/><rect class="cls-15" x="397.25" y="334.47" width="2.7" height="4.73" transform="translate(918.63 293.15) rotate(135)"/><rect class="cls-16" x="395.34" y="336.37" width="2.7" height="4.73" transform="translate(916.72 297.76) rotate(135)"/><text class="cls-8" transform="translate(412.84 252.07)"><tspan xml:space="preserve"> 7 p</tspan><tspan class="cls-9" x="24.52" y="0">r</tspan><tspan class="cls-4" x="29.73" y="0">o</tspan><tspan class="cls-10" x="38.1" y="0">y</tspan><tspan x="45.53" y="0">ec</tspan><tspan class="cls-11" x="61.46" y="0">t</tspan><tspan x="66.31" y="0">os</tspan></text><path class="cls-12" d="M401.62,247.55h1.3l.2-1,.17,0a3.74,3.74,0,0,0,1-.41l.14-.08.85.52.93-1-.56-.84.08-.15a3.68,3.68,0,0,0,.4-1l0-.16,1-.24V241.9l-1-.21,0-.16a3.61,3.61,0,0,0-.41-1l-.08-.14.52-.86-.95-.92-.85.56-.14-.08a3.49,3.49,0,0,0-1-.4l-.17,0-.23-1h-1.32l-.21,1-.16,0a3.48,3.48,0,0,0-1,.41l-.14.08-.84-.53-.92.94.56.85-.09.14a4,4,0,0,0-.4,1l0,.17-1,.23,0,1.32,1,.21,0,.16a3.86,3.86,0,0,0,.42,1l.08.14-.52.86.94.92.85-.56.15.09a3.52,3.52,0,0,0,1,.39l.16,0Zm2.59-4.93a2,2,0,1,1-2-2A2,2,0,0,1,404.21,242.62Z"/><path class="cls-12" d="M407.89,254.07h.91l.15-.69.11,0a2.89,2.89,0,0,0,.69-.3l.1-.05.6.36.65-.66-.39-.6.06-.1a2.85,2.85,0,0,0,.28-.7l0-.11.69-.17v-.93l-.69-.14,0-.12a2.77,2.77,0,0,0-.29-.69l-.05-.09.36-.61-.66-.64-.6.39-.1-.06a2.63,2.63,0,0,0-.7-.28l-.11,0-.17-.69h-.93l-.14.69-.12,0a2.77,2.77,0,0,0-.69.29l-.1.06-.59-.38-.64.67.39.59-.06.1a2.63,2.63,0,0,0-.28.7l0,.12-.69.16v.93l.69.15,0,.11a2.49,2.49,0,0,0,.29.69l.06.1-.37.6.67.65.6-.39.1.06a2.85,2.85,0,0,0,.7.28l.11,0Zm1.82-3.47a1.41,1.41,0,1,1-1.41-1.41A1.41,1.41,0,0,1,409.71,250.6Z"/><rect class="cls-13" x="400.08" y="240.69" width="2.36" height="11.25" transform="translate(291.7 -211.59) rotate(45)"/><polygon class="cls-14" points="394.31 254.71 396.45 249.46 399.8 252.8 394.31 254.71"/><rect class="cls-13" x="401.76" y="242.37" width="2.36" height="11.25" transform="translate(293.37 -212.29) rotate(45)"/><rect class="cls-15" x="407.59" y="237.95" width="2.7" height="4.73" transform="translate(868.04 121.08) rotate(135)"/><rect class="cls-16" x="405.68" y="239.86" width="2.7" height="4.73" transform="translate(866.13 125.68) rotate(135)"/><text class="cls-8" transform="translate(241 351.48)">x3</text><circle class="cls-17" cx="230.15" cy="347.45" r="6.43"/><text class="cls-8" transform="translate(241 367.97)">x7</text><circle class="cls-18" cx="230.15" cy="363.95" r="6.43"/><text class="cls-8" transform="translate(177.68 337.84)">x2</text><circle class="cls-17" cx="166.83" cy="333.81" r="6.43"/><text class="cls-8" transform="translate(177.68 354.34)">x1</text><circle class="cls-18" cx="166.83" cy="350.31" r="6.43"/><text class="cls-8" transform="translate(341.88 561.3)">x4</text><circle class="cls-17" cx="331.03" cy="557.28" r="6.43"/><text class="cls-8" transform="translate(341.88 577.8)">x1</text><circle class="cls-18" cx="331.03" cy="573.77" r="6.43"/><text class="cls-8" transform="translate(243.37 246.82)">x2</text><circle class="cls-17" cx="232.52" cy="242.8" r="6.43"/><text class="cls-8" transform="translate(309.54 403.16)">x2</text><circle class="cls-17" cx="298.7" cy="399.13" r="6.43"/><text class="cls-8" transform="translate(280 600.64)">x3</text><circle class="cls-17" cx="269.15" cy="596.61" r="6.43"/><text class="cls-8" transform="translate(280 617.13)">x5</text><circle class="cls-18" cx="269.15" cy="613.11" r="6.43"/><text class="cls-8" transform="translate(185.32 430.95)">x3</text><circle class="cls-17" cx="174.47" cy="426.92" r="6.43"/><text class="cls-8" transform="translate(185.32 447.45)">x2</text><circle class="cls-18" cx="174.47" cy="443.42" r="6.43"/><text class="cls-8" transform="translate(320.47 430.95)">x1</text><circle class="cls-17" cx="309.62" cy="426.92" r="6.43"/><text class="cls-8" transform="translate(320.47 447.45)">x1</text><circle class="cls-18" cx="309.62" cy="443.42" r="6.43"/><text class="cls-8" transform="translate(184.67 479.26)">x5</text><circle class="cls-17" cx="173.82" cy="475.23" r="6.43"/><text class="cls-8" transform="translate(184.67 495.75)">x2</text><circle class="cls-18" cx="173.82" cy="491.72" r="6.43"/><text class="cls-8" transform="translate(320.47 270.65)">x1</text><circle class="cls-17" cx="309.62" cy="266.62" r="6.43"/><text class="cls-8" transform="translate(320.47 287.14)">x6</text><circle class="cls-18" cx="309.62" cy="283.11" r="6.43"/><text class="cls-8" transform="translate(377.8 521.44)">x3</text><circle class="cls-17" cx="366.95" cy="517.41" r="6.43"/><text class="cls-8" transform="translate(377.8 537.93)">x2</text><circle class="cls-18" cx="366.95" cy="533.9" r="6.43"/><line class="cls-19" x1="187.4" y1="190.52" x2="188.62" y2="192.11"/><line class="cls-20" x1="190.96" y1="195.17" x2="217.96" y2="230.35"/><line class="cls-19" x1="219.13" y1="231.88" x2="220.35" y2="233.46"/><circle class="cls-21" cx="220.77" cy="233.97" r="1.57"/><circle class="cls-21" cx="187.12" cy="190.19" r="1.57"/><line class="cls-19" x1="151.77" y1="277.37" x2="152.99" y2="278.95"/><line class="cls-20" x1="155.34" y1="282.01" x2="182.33" y2="317.19"/><line class="cls-19" x1="183.5" y1="318.72" x2="184.72" y2="320.31"/><circle class="cls-21" cx="185.14" cy="320.81" r="1.57"/><circle class="cls-21" cx="151.5" cy="277.03" r="1.57"/><line class="cls-19" x1="390.85" y1="245.86" x2="389.21" y2="247"/><line class="cls-20" x1="386.04" y1="249.2" x2="349.6" y2="274.45"/><line class="cls-19" x1="348.01" y1="275.55" x2="346.37" y2="276.69"/><circle class="cls-21" cx="345.84" cy="277.08" r="1.57"/><circle class="cls-21" cx="391.2" cy="245.6" r="1.57"/><line class="cls-19" x1="141.08" y1="365.5" x2="143.08" y2="365.53"/><line class="cls-22" x1="146.93" y1="365.58" x2="214.35" y2="366.55"/><line class="cls-19" x1="216.28" y1="366.58" x2="218.28" y2="366.61"/><circle class="cls-21" cx="219.41" cy="366.51" r="1.57"/><circle class="cls-21" cx="140.64" cy="365.51" r="1.57"/><line class="cls-19" x1="144.1" y1="460.48" x2="145.6" y2="459.16"/><line class="cls-23" x1="148.57" y1="456.54" x2="158.98" y2="447.36"/><line class="cls-19" x1="160.46" y1="446.05" x2="161.96" y2="444.73"/><circle class="cls-21" cx="162.51" cy="444.4" r="1.57"/><circle class="cls-21" cx="143.79" cy="460.79" r="1.57"/><line class="cls-19" x1="333.11" y1="398.71" x2="335.11" y2="398.74"/><line class="cls-24" x1="339.04" y1="398.78" x2="360.7" y2="399.04"/><line class="cls-19" x1="362.67" y1="399.07" x2="364.67" y2="399.09"/><circle class="cls-21" cx="364.67" cy="399.08" r="1.57"/><circle class="cls-21" cx="332.67" cy="398.72" r="1.57"/><line class="cls-19" x1="339.03" y1="431.54" x2="340.64" y2="432.73"/><line class="cls-24" x1="343.8" y1="435.08" x2="361.18" y2="448"/><line class="cls-19" x1="362.76" y1="449.18" x2="364.36" y2="450.37"/><circle class="cls-21" cx="364.36" cy="450.37" r="1.57"/><circle class="cls-21" cx="338.68" cy="431.29" r="1.57"/><line class="cls-19" x1="218.2" y1="565.96" x2="219.7" y2="564.63"/><line class="cls-23" x1="222.68" y1="562.01" x2="233.08" y2="552.83"/><line class="cls-19" x1="234.57" y1="551.52" x2="236.07" y2="550.2"/><circle class="cls-21" cx="236.61" cy="549.87" r="1.57"/><circle class="cls-21" cx="217.89" cy="566.26" r="1.57"/><line class="cls-19" x1="355.62" y1="535.25" x2="355.6" y2="533.25"/><line class="cls-25" x1="355.58" y1="529.62" x2="355.33" y2="495.1"/><line class="cls-19" x1="355.32" y1="493.28" x2="355.31" y2="491.28"/><circle class="cls-21" cx="355.31" cy="491.28" r="1.57"/><circle class="cls-21" cx="355.62" cy="535.91" r="1.57"/><line class="cls-19" x1="243.52" y1="639.08" x2="245.02" y2="637.76"/><line class="cls-23" x1="247.99" y1="635.14" x2="258.4" y2="625.96"/><line class="cls-19" x1="259.88" y1="624.65" x2="261.38" y2="623.33"/><circle class="cls-21" cx="261.93" cy="623" r="1.57"/><circle class="cls-21" cx="243.21" cy="639.39" r="1.57"/><line class="cls-19" x1="344.44" y1="586.61" x2="345.84" y2="588.03"/><line class="cls-26" x1="348.7" y1="590.94" x2="364.39" y2="606.92"/><line class="cls-19" x1="365.82" y1="608.37" x2="367.22" y2="609.8"/><circle class="cls-21" cx="367.58" cy="610.33" r="1.57"/><circle class="cls-21" cx="344.04" cy="586.2" r="1.57"/><line class="cls-19" x1="136.28" y1="518.84" x2="137.64" y2="517.38"/><line class="cls-27" x1="140.3" y1="514.51" x2="160.23" y2="493.06"/><line class="cls-19" x1="161.55" y1="491.63" x2="162.92" y2="490.17"/><circle class="cls-21" cx="162.92" cy="490.17" r="1.57"/><circle class="cls-21" cx="135.97" cy="519.14" r="1.57"/><line class="cls-19" x1="332.07" y1="355.98" x2="333.97" y2="355.35"/><line class="cls-28" x1="337.52" y1="354.18" x2="378.29" y2="340.75"/><line class="cls-19" x1="380.06" y1="340.16" x2="381.96" y2="339.54"/><circle class="cls-21" cx="382.51" cy="339.13" r="1.57"/><circle class="cls-21" cx="331.66" cy="356.11" r="1.57"/><text class="cls-8" transform="translate(253.27 524.69)">x5</text><circle class="cls-17" cx="242.42" cy="520.66" r="6.43"/><text class="cls-8" transform="translate(253.27 541.18)">x3</text><circle class="cls-18" cx="242.42" cy="537.15" r="6.43"/></svg>