<svg id="Capa_1" data-name="Capa 1" xmlns="http://www.w3.org/2000/svg" viewBox="0 0 554 932"><defs><style>.cls-1,.cls-3,.cls-35{isolation:isolate;}.cls-2,.cls-3{fill:#71c2e9;stroke:#377c9c;stroke-width:3px;fill-rule:evenodd;}.cls-2,.cls-3,.cls-34,.cls-35{stroke-miterlimit:1.75;}.cls-4{fill:#99a978;}.cls-5{fill:#87a177;}.cls-6{font-size:12px;font-family:Roboto-Light, Roboto;font-weight:300;}.cls-16,.cls-6,.cls-7{fill:#1d1d1b;}.cls-7{font-size:15px;font-family:Roboto-Bold, Roboto;font-weight:700;}.cls-8{letter-spacing:-0.02em;}.cls-9{letter-spacing:-0.01em;}.cls-10{letter-spacing:-0.01em;}.cls-11{letter-spacing:-0.01em;}.cls-12{letter-spacing:0.02em;}.cls-13{letter-spacing:-0.01em;}.cls-14{letter-spacing:-0.05em;}.cls-15,.cls-17,.cls-18,.cls-19,.cls-21,.cls-22,.cls-23,.cls-24,.cls-25,.cls-27,.cls-28{fill:none;}.cls-15,.cls-17,.cls-18,.cls-19,.cls-21,.cls-22,.cls-23,.cls-24,.cls-25,.cls-27{stroke:#0b0c0c;}.cls-15,.cls-17,.cls-18,.cls-19,.cls-21,.cls-22,.cls-23,.cls-24,.cls-25,.cls-27,.cls-28,.cls-29,.cls-30,.cls-31,.cls-32,.cls-33{stroke-linejoin:round;}.cls-15{stroke-dasharray:4;}.cls-18{stroke-dasharray:3.98 3.98;}.cls-19{stroke-dasharray:4 4;}.cls-20{fill:#0b0c0c;}.cls-21{stroke-dasharray:3.89 3.89;}.cls-22{stroke-dasharray:4.25 4.25;}.cls-23{stroke-dasharray:4.05 4.05;}.cls-24{stroke-dasharray:4.11 4.11;}.cls-25{stroke-dasharray:3.86 3.86;}.cls-26{letter-spacing:-0.02em;}.cls-27{stroke-dasharray:4.08 4.08;}.cls-28,.cls-29,.cls-30,.cls-31,.cls-32,.cls-33{stroke:#262626;stroke-linecap:round;stroke-width:0.5px;}.cls-29{fill:#fab637;}.cls-30{fill:#ffe7a1;}.cls-31{fill:#4ca8de;}.cls-32{fill:#cfcece;}.cls-33{fill:#2672ab;}.cls-34{fill:#ec6062;stroke:#cc444b;}.cls-35{fill:#afd28c;stroke:#71915a;}</style></defs><g class="cls-1"><path class="cls-2" d="M293.19,369.08l-16-27.81-16.71-41L244.15,275l-27.51,1.22-5-7.69L208.58,273l-8.87.27-6.05-8.2-4.36.19,1.78,8.59,1.94.89L183,287.18,178.4,302l-6.23,6.74-7,0,9,15.2-3.81,4.58-8.13-7.31-14-.56-13.43-10.31-9.62,10.37-8.29-4.78,1.34,21.75L112.93,340l9.19,17.55-8.27,9,7.28,22.93L125,393.1l63.07-5.64-.25-2.89L191,381s3-2.56,3.49-3.18S198,373,198,373l2-3.72,2.64-2.72s3.91-3.06,3.75-3.42a35.76,35.76,0,0,1,0-4.15s-1.27-7.83-2-9.42a29.9,29.9,0,0,1-2.2-4.75c-.5-1.81,3.28-1.64,3.28-1.64l1.17,1.37,2.06-1.61,1.39-4.57a13.53,13.53,0,0,0,3.56-.32,5.08,5.08,0,0,1,1.92-.38l3.8-.11s.87-.73,1.45,1.53,2.06,6.28,2.06,6.28l2.1,1.55,3,.76,1.15,4.14s2.41,2.82,3.23,3.57.74,2.09,1.47,4.19,7.09,2.46,7.09,2.46l1.63-.46,2.86,4.61s2.77,6,2.77,7.17,2,3.32,2,3.32,6.1-5.72,6.54-4.63,2,8,2,8l.36,1.13,1.42,4.49,3.56,3s1.18-7.12,1.1-6.95a17.82,17.82,0,0,0,1.71-1.27l.54-.44s.25.15.6.33c.79.42,2.15,1,2.49.32a6.66,6.66,0,0,1,.39-.57,28.76,28.76,0,0,1,4.29-4.33,34,34,0,0,1,4.22-1.62l4.76,1.4,3.41-.6,5.87,2.75Z"/><path class="cls-2" d="M338.65,322.53l12.25.48,2.91,12.88,7.8-1.86,5.1-9,7.88-2.62,5,4.3L393.16,355l-6.61,7.3,7,10.29-.42,12.18-10.55,15.36-11.07,3.26-3.79-18.11-23-3.31-16.85-9.5-16.74-4.1-4.08-7.61,13.79-17.14L315,339.07l-7.22-15Z"/><path class="cls-2" d="M467.46,222.54l3.17,16.19,6.13,6.13-1.47,12.41-8.58,10.67,7.52,32.71-1.55,37.46L456,346.86l-6.84-3.5-6.57,8-22.85-11.5L386.71,342l-12.12-19.65L367,324.67,361.61,334l-7.8,1.86L350.9,323l-35.3.71,19.53-12.5-18.82-21L327.17,273l6.28,2.58,3.71-8.7,3.73.91,10.84,12.72,13.63.16-2.1,7.57,4.81,4.94,15.11-5.3,18.92,2.91,8.72-5.66-12.61-26.36,10-24,12.55,0-2.16-6.2,3.8-.51,9,7.85,8.36-1L463.35,213Z"/><path class="cls-2" d="M303,433.87l2.69-12.63-10.6-11.91-1.48-13.21-4-4.95,4.1-3.08-.31-10v-.38l-5.87-2.75-3.41.6-4.76-1.4a34,34,0,0,0-4.22,1.62,28.76,28.76,0,0,0-4.29,4.33,6.66,6.66,0,0,0-.39.57c-.34.67-1.7.1-2.49-.32l-1.14.11a17.82,17.82,0,0,1-1.71,1.27c.08-.17-1.1,6.95-1.1,6.95l-3.56-3-1.42-4.49-.36-1.13s-1.55-6.87-2-8-6.54,4.63-6.54,4.63-2-2.12-2-3.32-2.77-7.17-2.77-7.17l-2.86-4.61-1.63.46s-6.36-.35-7.09-2.46-.66-3.43-1.47-4.19-3.23-3.57-3.23-3.57L228,347.65l-3-.76-2.1-1.55s-1.49-4-2.06-6.28-1.45-1.53-1.45-1.53l-3.8.11a5.08,5.08,0,0,0-1.92.38,13.53,13.53,0,0,1-3.56.32l-1.39,4.57-2.06,1.61-1.17-1.37s-3.78-.17-3.28,1.64a29.9,29.9,0,0,0,2.2,4.75c.74,1.59,2,9.42,2,9.42a35.76,35.76,0,0,0,0,4.15c.16.36-3.75,3.42-3.75,3.42L200,369.25,198,373s-3.07,4.21-3.53,4.82S191,381,191,381l-3.17,3.6.25,2.89L125,393.1l2.44,2.26,10.63,9.86-6.38,5.66,2.62,27.57,17.5,15.3-3,10.86,8.67,4.25-6.81,1.91-1.6,5.48,12.41,4.81-10.34,14.08,13.19,7.25,5.13,13.89,5.41,1.33L170.05,531l5.54,11.53,12.11-.37,10.35-8.13,26.06,4.44-5.45-14.11,1.91-12.48,11.19-10.78L267,519.49l13-9.25-8.69-20.11,18.42-1.69,3.87-6.42,9-1.19,4.15-28Z"/><path class="cls-2" d="M338.15,212.86,344,226.1l11.36,6.39,16.16,3.29,21.16-10.09,9.4,2.85,6.27,8.81-10.07,22,12.53,25.91-12.62,6.94-14.64-4.33-15.47,5.32-4.81-4.94,2.1-7.57-13.63-.16L337.5,266.61l-3.74,8.87-6.89-2.17-10.56,16.93,18.82,21-17.65,12.47-6.18.21-5.68-4.19,3.29-9.84L292.63,300l-6.94-19.57-15.51-1.22L262,274.48l-.75-16.22,3.15-13.39-3.56-15.36-7.22-4.23,5.93-8,14.48-5,44,2.3,8.11-1.79,4.79-7.87Z"/><path class="cls-2" d="M120.59,118.92l7.17-1.15,12.31,8.87,5.86-6.18,10.52,15L154,140.78l7.43,5.12,14.22-2.81,5.56,5.91L198,147.63l4.75,6.24,33,5.22L252.21,172l10.9,1.52.7,16.31L274,212.26l-20.41,13L261,230l3.55,21.42-3.17,6.53-5.1-3.28-13.86,2.5-2.87,6.76,6.75,10.28-12.22,4.24-19.34-3.9-.89-13.84-10.32-11,11.62-4.81-5-26.24,2.23-16.43-9.72.55-7-9.15-3.35-16.69-11.64-3L167.93,161l-14.14-.86-10.62,6.31-13.36-22.53,2.75-7.87-16.45-18.53Z"/><path class="cls-3" d="M261.22,258.26l.75,16.22,23.64,5.89,7,19.63,16.28,9.87-3.29,9.84,5.48,3.43v6.54l-11.21,9.61-4.31-2.87-18.07,4.28-17-40.45L244,282.56l1.59-8.77-6-9.88,2.87-6.76,13.86-2.5Z"/><path class="cls-3" d="M314.83,338.3l6,5.34-13.79,17.14,4.08,7.61L335.84,375l8.9,7,23.09,3.43L372,405.63l-11.16,16.23-.29,14.74,21.6,29.11-3.49,22.13,19.5,28.48L396,524.88l21.41-5.3,4.68,8.37-2.46,13.78-17.07,6.66,4.95,31.73-30,5.78-3.72,6.63-15.9-26.12-16.22-1.64-.29-8.8-6.62-.59-28.59-23.91-6.35.93-5.24-9.2,3.56-11.15-5-3.19,1-16.79L297.54,475l8.2-53.64-10.61-12-1.48-13.21-5.91-3.51,6-4.52-3.32-14.4,3.12-3.63-16.34-28.79,18.35-4.85,4.2,2.92,12.66-10.65Z"/><path class="cls-3" d="M121.6,125.22l11,10.78-2.75,7.87,13.36,22.53,10.62-6.31,14.14.86,12.8,12.9,11.64,3,3.35,16.69,7,9.15,9.72-.55-2.23,16.43L215.08,245l-11.51,4.68-4.32-14.06-19.5-5-7.84-12-5.85,3.61-6.71-9.94-10,10.22-21.19-13.32L131,202l-4.73-13.73L115.9,186,112,178.44l-.76-15.74,6.18-12.86-5-27.76,3.67-4.61Z"/><path class="cls-3" d="M296,482.82l3.35-.32L293.18,505l4.86,6.53-1.39,18.33,9.46,1.61,28.59,23.91,6.62.59.29,8.8,16.22,1.64L371.55,591l5.85,1.93-4.13,30,4.42,13.15-5.14,2.74-4.3,14.36-10.18,6.37-5-28.77-10-14.61-1.4-15.11-5.41-3-8.12,5.15-7.77,20.15-4.21,1-8.83-12.49-23.88,5.56-17.12-3.49-9.63,8.92-8.7.6-14.76-5.19-6.11,2.57-6.68-5.88,1.73-4.6-9.87-2,11.62-12.53,14.85-.21,8-5.9,4.12-12.12-1.69-19.93-11.68-7.2-5.76-10-7.63-1.93-5.45-14.11L222.79,508l11.36-7.31,22.59,13.48L267,519.49l13-9.25-8.49-20.44,12.57.26Z"/></g><path class="cls-4" d="M342.79,168.64l.33.35h0l-.33-.34Z"/><path class="cls-5" d="M404.81,370.56c-.11.23-.22.3-.33,0Z"/><text class="cls-6" transform="translate(45.7 202.78)">Rioja</text><text class="cls-7" transform="translate(59.16 220.62)"><tspan xml:space="preserve"> 1 p</tspan><tspan class="cls-8" x="24.52" y="0">r</tspan><tspan class="cls-9" x="29.73" y="0">o</tspan><tspan class="cls-10" x="38.1" y="0">y</tspan><tspan x="45.53" y="0">ec</tspan><tspan class="cls-11" x="61.46" y="0">t</tspan><tspan x="66.31" y="0">o</tspan></text><text class="cls-6" transform="translate(363.03 183.63)">Lamas</text><text class="cls-7" transform="translate(380.36 204.16)">0 p<tspan class="cls-8" x="20.79" y="0">r</tspan><tspan class="cls-9" x="25.99" y="0">o</tspan><tspan class="cls-10" x="34.37" y="0">y</tspan><tspan x="41.8" y="0">ec</tspan><tspan class="cls-11" x="57.73" y="0">t</tspan><tspan x="62.58" y="0">os</tspan></text><text class="cls-6" transform="translate(416.93 374.7)">San Ma<tspan class="cls-12" x="39.86" y="0">r</tspan><tspan x="44.19" y="0">tín</tspan></text><text class="cls-7" transform="translate(434.14 395.23)">1 p<tspan class="cls-8" x="20.79" y="0">r</tspan><tspan class="cls-9" x="25.99" y="0">o</tspan><tspan class="cls-10" x="34.37" y="0">y</tspan><tspan x="41.8" y="0">ec</tspan><tspan class="cls-11" x="57.73" y="0">t</tspan><tspan x="62.58" y="0">o</tspan></text><text class="cls-6" transform="translate(43.38 424.36)">Huallaga</text><text class="cls-7" transform="translate(59.27 444.89)">1 p<tspan class="cls-8" x="20.79" y="0">r</tspan><tspan class="cls-9" x="25.99" y="0">o</tspan><tspan class="cls-10" x="34.37" y="0">y</tspan><tspan x="41.8" y="0">ec</tspan><tspan class="cls-11" x="57.73" y="0">t</tspan><tspan x="62.58" y="0">o</tspan></text><text class="cls-6" transform="translate(64.82 527.36)">Mariscal Cáce<tspan class="cls-13" x="74.43" y="0">r</tspan><tspan x="78.36" y="0">es</tspan></text><text class="cls-7" transform="translate(82.04 547.89)">1 p<tspan class="cls-8" x="20.79" y="0">r</tspan><tspan class="cls-9" x="25.99" y="0">o</tspan><tspan class="cls-10" x="34.37" y="0">y</tspan><tspan x="41.8" y="0">ec</tspan><tspan class="cls-11" x="57.73" y="0">t</tspan><tspan x="62.58" y="0">o</tspan></text><text class="cls-6" transform="translate(409.83 489.14)">Bell<tspan class="cls-9" x="18.93" y="0">a</tspan><tspan x="25.27" y="0">vista</tspan></text><text class="cls-7" transform="translate(427.04 509.66)">4 p<tspan class="cls-8" x="20.79" y="0">r</tspan><tspan class="cls-9" x="25.99" y="0">o</tspan><tspan class="cls-10" x="34.37" y="0">y</tspan><tspan x="41.8" y="0">ec</tspan><tspan class="cls-11" x="57.73" y="0">t</tspan><tspan x="62.58" y="0">os</tspan></text><text class="cls-6" transform="translate(279.05 663.15)"><tspan class="cls-14">T</tspan><tspan x="6.59" y="0">ocache</tspan></text><text class="cls-7" transform="translate(296.26 683.79)">3 p<tspan class="cls-8" x="20.79" y="0">r</tspan><tspan class="cls-9" x="25.99" y="0">o</tspan><tspan class="cls-10" x="34.37" y="0">y</tspan><tspan x="41.8" y="0">ec</tspan><tspan class="cls-11" x="57.73" y="0">t</tspan><tspan x="62.58" y="0">os</tspan></text><path class="cls-5" d="M78.2,155.7l.42.33Z"/><line class="cls-15" x1="120.88" y1="157.32" x2="77.77" y2="198.74"/><circle class="cls-16" cx="77.32" cy="199.22" r="1.57"/><circle class="cls-16" cx="121.17" cy="157" r="1.57"/><line class="cls-17" x1="356.13" y1="181.34" x2="355.05" y2="183.02"/><line class="cls-18" x1="352.91" y1="186.38" x2="323.96" y2="231.61"/><line class="cls-17" x1="322.89" y1="233.28" x2="321.81" y2="234.97"/><circle class="cls-16" cx="321.81" cy="234.97" r="1.57"/><circle class="cls-16" cx="356.43" cy="181.02" r="1.57"/><line class="cls-17" x1="436.77" y1="303.89" x2="436.78" y2="305.89"/><line class="cls-19" x1="436.81" y1="309.89" x2="437.18" y2="355.9"/><line class="cls-17" x1="437.2" y1="357.9" x2="437.21" y2="359.9"/><circle class="cls-20" cx="437.22" cy="360.56" r="1.57"/><circle class="cls-20" cx="436.76" cy="303.45" r="1.57"/><text class="cls-6" transform="translate(385.96 430.16)">Picota</text><text class="cls-7" transform="translate(403.17 449.36)"><tspan xml:space="preserve"> 2 p</tspan><tspan class="cls-8" x="24.52" y="0">r</tspan><tspan class="cls-9" x="29.73" y="0">o</tspan><tspan class="cls-10" x="38.1" y="0">y</tspan><tspan x="45.53" y="0">ec</tspan><tspan class="cls-11" x="61.46" y="0">t</tspan><tspan x="66.31" y="0">os</tspan></text><line class="cls-17" x1="377.28" y1="381.55" x2="378.51" y2="383.13"/><line class="cls-21" x1="380.89" y1="386.2" x2="398.79" y2="409.24"/><line class="cls-17" x1="399.99" y1="410.78" x2="401.21" y2="412.36"/><circle class="cls-20" cx="401.7" cy="413.02" r="1.57"/><circle class="cls-20" cx="377.09" cy="381.11" r="1.57"/><line class="cls-17" x1="403.86" y1="484.9" x2="401.86" y2="484.9"/><line class="cls-22" x1="397.62" y1="484.91" x2="365.77" y2="484.91"/><line class="cls-17" x1="363.65" y1="484.91" x2="361.65" y2="484.91"/><circle class="cls-20" cx="360.99" cy="484.91" r="1.57"/><circle class="cls-20" cx="404.3" cy="484.91" r="1.57"/><line class="cls-15" x1="289.95" y1="648" x2="289.21" y2="591.99"/><circle class="cls-20" cx="289.2" cy="591.33" r="1.57"/><circle class="cls-20" cx="289.96" cy="648.43" r="1.57"/><line class="cls-17" x1="135.23" y1="379.91" x2="133.82" y2="381.33"/><line class="cls-23" x1="130.97" y1="384.21" x2="98.12" y2="417.29"/><line class="cls-17" x1="96.69" y1="418.72" x2="95.28" y2="420.14"/><circle class="cls-16" cx="94.8" cy="420.59" r="1.57"/><circle class="cls-16" cx="135.55" cy="379.62" r="1.57"/><line class="cls-17" x1="204.74" y1="485.35" x2="203.25" y2="486.69"/><line class="cls-24" x1="200.19" y1="489.44" x2="165.02" y2="521.08"/><line class="cls-17" x1="163.49" y1="522.46" x2="162" y2="523.8"/><circle class="cls-20" cx="161.52" cy="524.24" r="1.57"/><circle class="cls-20" cx="205.06" cy="485.06" r="1.57"/><text class="cls-6" transform="translate(280.81 138.12)">M<tspan class="cls-9" x="10.38" y="0">oy</tspan><tspan x="22.63" y="0">obamba</tspan></text><text class="cls-7" transform="translate(297.44 158.65)"><tspan xml:space="preserve"> 1 p</tspan><tspan class="cls-8" x="24.52" y="0">r</tspan><tspan class="cls-9" x="29.73" y="0">o</tspan><tspan class="cls-10" x="38.1" y="0">y</tspan><tspan x="45.53" y="0">ec</tspan><tspan class="cls-11" x="61.46" y="0">t</tspan><tspan x="66.31" y="0">o</tspan></text><line class="cls-17" x1="274.34" y1="134.79" x2="272.93" y2="136.21"/><line class="cls-25" x1="270.22" y1="138.94" x2="238.98" y2="170.42"/><line class="cls-17" x1="237.63" y1="171.78" x2="236.22" y2="173.2"/><circle class="cls-16" cx="235.77" cy="173.69" r="1.57"/><circle class="cls-16" cx="274.64" cy="134.47" r="1.57"/><text class="cls-6" transform="translate(46.06 275.06)">El Do<tspan class="cls-26" x="27.01" y="0">r</tspan><tspan x="30.81" y="0">ado</tspan></text><text class="cls-7" transform="translate(61.52 291.69)">3 p<tspan class="cls-8" x="20.79" y="0">r</tspan><tspan class="cls-9" x="25.99" y="0">o</tspan><tspan class="cls-10" x="34.37" y="0">y</tspan><tspan x="41.8" y="0">ec</tspan><tspan class="cls-11" x="57.73" y="0">t</tspan><tspan x="62.58" y="0">os</tspan></text><line class="cls-17" x1="278.28" y1="286.72" x2="276.28" y2="286.74"/><line class="cls-27" x1="272.2" y1="286.77" x2="151.97" y2="287.78"/><line class="cls-17" x1="149.93" y1="287.8" x2="147.93" y2="287.81"/><circle class="cls-16" cx="146.88" cy="287.74" r="1.57"/><circle class="cls-16" cx="278.28" cy="286.72" r="1.57"/><path class="cls-28" d="M286.21,154.12h1.31l.2-1,.17,0a4,4,0,0,0,1-.42l.14-.08.86.52.92-.94-.56-.85.09-.15a3.88,3.88,0,0,0,.4-1l0-.16,1-.24,0-1.32-1-.2,0-.17a4.18,4.18,0,0,0-.42-1l-.08-.14.52-.85-.94-.92-.85.55-.14-.08a3.74,3.74,0,0,0-1-.4l-.16,0-.24-1-1.32,0-.2,1-.17,0a4,4,0,0,0-1,.42l-.15.08-.84-.54-.91.94.55.85-.08.15a3.55,3.55,0,0,0-.4,1l0,.16-1,.24,0,1.32,1,.2,0,.17a3.55,3.55,0,0,0,.41,1l.09.14-.53.86.95.92.85-.55.14.08a4.2,4.2,0,0,0,1,.4l.17,0Zm2.59-4.93a2,2,0,1,1-2-2A2,2,0,0,1,288.8,149.19Z"/><path class="cls-28" d="M292.48,160.64h.92l.14-.69.12,0a2.62,2.62,0,0,0,.69-.29l.1-.06.6.37.65-.67-.4-.59.06-.11a2.28,2.28,0,0,0,.28-.69l0-.12.69-.16v-.93l-.69-.15,0-.11a2.49,2.49,0,0,0-.29-.69l-.06-.1.37-.6-.67-.65-.59.39-.1-.06a2.63,2.63,0,0,0-.7-.28l-.12,0-.16-.69h-.93l-.15.7-.11,0a2.89,2.89,0,0,0-.69.3l-.1.06-.59-.38-.65.66.4.6-.06.1a2.23,2.23,0,0,0-.28.7l0,.11-.69.17v.93l.69.14,0,.12a2.57,2.57,0,0,0,.29.68l.06.1-.37.61.67.64.59-.39.1.06a2.63,2.63,0,0,0,.7.28l.12,0Zm1.83-3.47a1.42,1.42,0,1,1-1.41-1.41A1.41,1.41,0,0,1,294.31,157.17Z"/><rect class="cls-29" x="284.68" y="147.27" width="2.36" height="11.25" transform="translate(191.84 -157.36) rotate(45)"/><polygon class="cls-30" points="278.91 161.29 281.05 156.03 284.39 159.38 278.91 161.29"/><rect class="cls-29" x="286.35" y="148.94" width="2.36" height="11.25" transform="translate(193.51 -158.05) rotate(45)"/><rect class="cls-31" x="292.19" y="144.52" width="2.7" height="4.73" transform="translate(604.97 43.19) rotate(135)"/><rect class="cls-32" x="290.28" y="146.43" width="2.7" height="4.73" transform="translate(603.06 47.8) rotate(135)"/><path class="cls-28" d="M52,217H53.3l.2-1,.17,0a4,4,0,0,0,1-.42l.14-.08.86.52.92-.94-.56-.85.09-.15a3.52,3.52,0,0,0,.39-1l0-.16,1-.24v-1.32l-1-.2,0-.17a4.18,4.18,0,0,0-.42-1L56,209.9l.52-.85-.94-.92-.85.55-.15-.08a3.55,3.55,0,0,0-1-.4l-.16,0-.24-1-1.32,0-.2,1-.17,0a4.58,4.58,0,0,0-1,.41l-.14.09-.84-.54-.92.94.56.85-.08.15a3.55,3.55,0,0,0-.4,1l0,.16-1,.24v1.32l1,.2,0,.17a3.55,3.55,0,0,0,.41,1l.08.14-.52.86,1,.92.85-.55.14.08a4,4,0,0,0,1,.4l.17,0Zm2.59-4.93a2,2,0,1,1-2-2A2,2,0,0,1,54.58,212.11Z"/><path class="cls-28" d="M58.26,223.56h.92l.14-.69.12,0a2.77,2.77,0,0,0,.69-.29l.09-.06.61.37.65-.67-.4-.59.06-.11a2.57,2.57,0,0,0,.28-.69l0-.12.69-.17v-.92l-.69-.15,0-.11a2.49,2.49,0,0,0-.29-.69l-.06-.1.37-.6-.67-.65-.59.39-.11-.06a2.57,2.57,0,0,0-.69-.28l-.12,0-.17-.7h-.92l-.15.7-.11,0a2.89,2.89,0,0,0-.69.3l-.1.06-.59-.38-.65.66.39.6-.06.1a2.48,2.48,0,0,0-.27.7l0,.11-.69.17v.93l.69.14,0,.12a2.57,2.57,0,0,0,.29.68l.06.1-.37.61.67.64.59-.39.1.06a2.63,2.63,0,0,0,.7.28l.12,0Zm1.82-3.47a1.41,1.41,0,1,1-1.41-1.41A1.41,1.41,0,0,1,60.08,220.09Z"/><rect class="cls-29" x="50.46" y="210.19" width="2.36" height="11.25" transform="translate(167.73 26.69) rotate(45)"/><polygon class="cls-30" points="44.69 224.21 46.83 218.95 50.17 222.3 44.69 224.21"/><rect class="cls-29" x="52.13" y="211.86" width="2.36" height="11.25" transform="translate(169.4 26) rotate(45)"/><rect class="cls-31" x="57.97" y="207.44" width="2.7" height="4.73" transform="translate(249.62 316.22) rotate(135)"/><rect class="cls-32" x="56.06" y="209.35" width="2.7" height="4.73" transform="translate(247.71 320.83) rotate(135)"/><path class="cls-28" d="M48.14,290.1h1.31l.2-1,.17-.05a3.55,3.55,0,0,0,1-.41l.14-.08.86.52.92-1-.56-.84.09-.15a3.65,3.65,0,0,0,.39-1l0-.16,1-.24v-1.32l-1-.21,0-.16a4.18,4.18,0,0,0-.42-1l-.08-.14.52-.86-1-.92-.84.56-.15-.08a3.55,3.55,0,0,0-1-.4l-.16,0-.24-1H48l-.2,1-.17,0a3.74,3.74,0,0,0-1,.41l-.14.09-.84-.54-.92.94.56.85-.08.14a3.81,3.81,0,0,0-.4,1l0,.17-1,.23v1.32l1,.21,0,.16a3.48,3.48,0,0,0,.41,1l.08.14-.52.86.95.92.85-.56.14.09a3.65,3.65,0,0,0,1,.39l.17,0Zm2.59-4.93a2,2,0,1,1-2-2A2,2,0,0,1,50.73,285.17Z"/><path class="cls-28" d="M54.41,296.62h.92l.14-.69.12,0a2.83,2.83,0,0,0,.69-.3l.09-.05.61.36.65-.66-.4-.6.06-.1a2.5,2.5,0,0,0,.28-.7l0-.11.69-.17v-.93l-.69-.14,0-.12a2.57,2.57,0,0,0-.29-.68l-.06-.1.37-.61-.67-.64-.59.39-.11-.06a2.57,2.57,0,0,0-.69-.28l-.12,0-.17-.69h-.92l-.15.69-.11,0a2.49,2.49,0,0,0-.69.29l-.1.06-.59-.38-.65.67.39.59-.06.11a2.94,2.94,0,0,0-.28.69l0,.12-.69.16v.93l.69.15,0,.11a2.49,2.49,0,0,0,.29.69l.06.1-.37.6.67.65.59-.39.1.06a3,3,0,0,0,.7.28l.12,0Zm1.82-3.47a1.41,1.41,0,1,1-1.41-1.41A1.41,1.41,0,0,1,56.23,293.15Z"/><rect class="cls-29" x="46.61" y="283.24" width="2.36" height="11.25" transform="translate(218.26 50.81) rotate(45)"/><polygon class="cls-30" points="40.84 297.26 42.98 292.01 46.32 295.35 40.84 297.26"/><rect class="cls-29" x="48.28" y="284.92" width="2.36" height="11.25" transform="translate(219.93 50.12) rotate(45)"/><rect class="cls-31" x="54.12" y="280.5" width="2.7" height="4.73" transform="translate(294.71 443.66) rotate(135)"/><rect class="cls-32" x="52.21" y="282.41" width="2.7" height="4.73" transform="translate(292.8 448.27) rotate(135)"/><path class="cls-28" d="M47.35,439.92h1.3l.21-1,.16,0a3.86,3.86,0,0,0,1-.42l.14-.08.86.53.92-.95-.56-.85.09-.14a3.71,3.71,0,0,0,.39-1l0-.16,1-.24v-1.32l-1-.2,0-.17a4,4,0,0,0-.42-1l-.08-.14.52-.86-1-.92-.84.56-.15-.09a3.52,3.52,0,0,0-1-.39l-.16,0-.24-1H47.2l-.2,1-.17,0a4.18,4.18,0,0,0-1,.42l-.14.08-.84-.54L44,432l.56.84-.08.15a3.38,3.38,0,0,0-.4,1l0,.16-1,.24v1.32l1,.2,0,.17a3.74,3.74,0,0,0,.41,1l.08.14-.52.86L45,439l.84-.56.15.08a3.68,3.68,0,0,0,1,.4l.16,0ZM49.94,435a2,2,0,1,1-2-2A2,2,0,0,1,49.94,435Z"/><path class="cls-28" d="M53.62,446.44h.92l.14-.69.12,0a2.57,2.57,0,0,0,.68-.29l.1-.06.61.37.64-.67-.39-.59.06-.1a2.63,2.63,0,0,0,.28-.7l0-.12.69-.16v-.93l-.69-.14,0-.12a2.62,2.62,0,0,0-.29-.69l-.06-.1.37-.6-.67-.65-.59.39-.11-.06a2.48,2.48,0,0,0-.7-.27l-.11,0-.17-.69h-.93l-.14.69-.12,0a2.57,2.57,0,0,0-.68.29l-.1.06-.6-.38-.64.66.39.6-.06.1a3,3,0,0,0-.28.7l0,.11-.69.17v.93l.69.14,0,.12a2.77,2.77,0,0,0,.29.69l0,.1-.36.6.66.65.6-.4.1.06a2.63,2.63,0,0,0,.7.28l.11,0ZM55.44,443A1.41,1.41,0,1,1,54,441.56,1.42,1.42,0,0,1,55.44,443Z"/><rect class="cls-29" x="45.82" y="433.07" width="2.36" height="11.25" transform="translate(323.97 95.26) rotate(45)"/><polygon class="cls-30" points="40.04 447.09 42.19 441.84 45.53 445.18 40.04 447.09"/><rect class="cls-29" x="47.49" y="434.74" width="2.36" height="11.25" transform="translate(325.64 94.56) rotate(45)"/><rect class="cls-31" x="53.33" y="430.33" width="2.7" height="4.73" transform="translate(399.3 699.99) rotate(135)"/><rect class="cls-32" x="51.42" y="432.24" width="2.7" height="4.73" transform="translate(397.39 704.6) rotate(135)"/><path class="cls-28" d="M68.07,544.91h1.31l.2-1,.17,0a4,4,0,0,0,1-.42l.14-.08.86.52.92-.95-.56-.84.09-.15a3.52,3.52,0,0,0,.39-1l0-.16,1-.24v-1.32l-1-.2,0-.17a4.18,4.18,0,0,0-.42-1l-.08-.14.52-.85-.94-.93-.85.56-.15-.08a3.55,3.55,0,0,0-1-.4l-.16,0-.24-1H67.92l-.2,1-.17,0a3.74,3.74,0,0,0-1,.41l-.14.09-.84-.54-.92.94.56.85-.08.14a3.74,3.74,0,0,0-.4,1l0,.16-1,.24v1.32l1,.2,0,.17a3.55,3.55,0,0,0,.41,1l.08.14-.52.86,1,.92.85-.56.14.09a3.65,3.65,0,0,0,1,.39l.17,0ZM70.66,540a2,2,0,1,1-2-2A2,2,0,0,1,70.66,540Z"/><path class="cls-28" d="M74.34,551.43h.92l.14-.69.12,0a2.77,2.77,0,0,0,.69-.29l.09-.06.61.37.65-.67-.4-.59.06-.11a2.5,2.5,0,0,0,.28-.7l0-.11.69-.17v-.93l-.69-.14,0-.12a2.57,2.57,0,0,0-.29-.68l-.06-.1.37-.61-.67-.64-.59.39-.11-.06a2.57,2.57,0,0,0-.69-.28l-.12,0-.17-.69h-.92l-.15.69-.11,0a2.54,2.54,0,0,0-.69.3l-.1.05-.59-.37-.65.66.39.59-.06.11a2.54,2.54,0,0,0-.27.69l0,.12-.69.17v.92l.69.15,0,.11a2.49,2.49,0,0,0,.29.69l.06.1-.37.6.67.65.59-.39.1.06a2.63,2.63,0,0,0,.7.28l.12,0ZM76.16,548a1.41,1.41,0,1,1-1.41-1.41A1.41,1.41,0,0,1,76.16,548Z"/><rect class="cls-29" x="66.54" y="538.06" width="2.36" height="11.25" transform="translate(404.28 111.35) rotate(45)"/><polygon class="cls-30" points="60.77 552.08 62.91 546.82 66.25 550.17 60.77 552.08"/><rect class="cls-29" x="68.21" y="539.73" width="2.36" height="11.25" transform="translate(405.95 110.66) rotate(45)"/><rect class="cls-31" x="74.05" y="535.31" width="2.7" height="4.73" transform="translate(508.91 864.56) rotate(135)"/><rect class="cls-32" x="72.14" y="537.22" width="2.7" height="4.73" transform="translate(507 869.16) rotate(135)"/><path class="cls-28" d="M282.31,680.26h1.3l.21-1,.16,0a4.18,4.18,0,0,0,1-.42l.14-.08.86.53.92-.95-.56-.85.08-.14a3.74,3.74,0,0,0,.4-1l0-.16,1-.23v-1.33l-1-.2,0-.17a3.55,3.55,0,0,0-.41-1l-.08-.14.52-.86-.95-.92-.84.56-.15-.09a3.65,3.65,0,0,0-1-.39l-.17,0-.23-1h-1.32l-.21,1-.16,0a4,4,0,0,0-1,.42l-.14.08-.84-.54-.92,1,.56.84-.09.15a3.65,3.65,0,0,0-.39,1l0,.16-1,.24v1.32l1,.2,0,.17a4.18,4.18,0,0,0,.42,1l.08.14-.52.86.95.92.84-.56.15.08a3.55,3.55,0,0,0,1,.4l.16,0Zm2.59-4.93a2,2,0,1,1-2-2A2,2,0,0,1,284.9,675.33Z"/><path class="cls-28" d="M288.58,686.78h.92l.14-.69.11,0a2.49,2.49,0,0,0,.69-.29l.1-.06.6.37.65-.67-.39-.59.06-.1a2.63,2.63,0,0,0,.28-.7l0-.12.69-.16v-.93l-.69-.14,0-.12a3.07,3.07,0,0,0-.3-.69l-.05-.1.36-.6-.66-.65-.6.39-.1-.06a2.6,2.6,0,0,0-.7-.27l-.11,0-.17-.69h-.93l-.14.69-.12,0a2.77,2.77,0,0,0-.69.29l-.1.06-.59-.38-.64.66.39.6-.06.1a2.63,2.63,0,0,0-.28.7l0,.11-.69.17v.93l.69.14,0,.12a2.83,2.83,0,0,0,.3.69l.05.1-.36.6.66.65.6-.4.1.06a2.5,2.5,0,0,0,.7.28l.11,0Zm1.82-3.47A1.41,1.41,0,1,1,289,681.9,1.42,1.42,0,0,1,290.4,683.31Z"/><rect class="cls-29" x="280.78" y="673.41" width="2.36" height="11.25" transform="translate(562.73 -0.49) rotate(45)"/><polygon class="cls-30" points="275 687.43 277.14 682.18 280.49 685.52 275 687.43"/><rect class="cls-29" x="282.45" y="675.08" width="2.36" height="11.25" transform="translate(564.41 -1.18) rotate(45)"/><rect class="cls-31" x="288.28" y="670.67" width="2.7" height="4.73" transform="translate(970.34 944.13) rotate(135)"/><rect class="cls-32" x="286.38" y="672.58" width="2.7" height="4.73" transform="translate(968.43 948.74) rotate(135)"/><path class="cls-28" d="M415.59,504.75h1.31l.2-1,.17,0a4.31,4.31,0,0,0,1-.41l.14-.09.86.53.92-.95-.56-.85.09-.14a3.71,3.71,0,0,0,.39-1l0-.16,1-.23V499.1l-1-.2,0-.17a4,4,0,0,0-.42-1l-.08-.14.52-.86-.94-.92-.85.56-.15-.09a3.52,3.52,0,0,0-1-.39l-.16,0-.24-1h-1.32l-.2,1-.17,0a4.18,4.18,0,0,0-1,.42l-.14.08-.84-.54-.92.95.56.84-.08.15a3.68,3.68,0,0,0-.4,1l0,.16-1,.24v1.32l1,.2,0,.17a3.74,3.74,0,0,0,.41,1l.08.14-.52.86.95.92.85-.56.14.08a3.68,3.68,0,0,0,1,.4l.17,0Zm2.59-4.93a2,2,0,1,1-2-2A2,2,0,0,1,418.18,499.82Z"/><path class="cls-28" d="M421.86,511.27h.92l.14-.69.12,0a2.77,2.77,0,0,0,.69-.29l.09-.06.61.37.65-.67-.4-.59.06-.1a2.63,2.63,0,0,0,.28-.7l0-.12.69-.16v-.93l-.69-.14,0-.12a2.62,2.62,0,0,0-.29-.69l-.06-.1.37-.6-.67-.65-.59.39-.11-.06a2.54,2.54,0,0,0-.69-.27l-.12,0-.17-.69h-.92l-.15.69-.11,0a2.49,2.49,0,0,0-.69.29l-.1.06-.59-.38-.65.66.39.6-.06.1a2.6,2.6,0,0,0-.27.7l0,.11-.69.17v.93l.69.14,0,.12a2.77,2.77,0,0,0,.29.69l.06.1-.37.6.67.65.59-.4.1.06a2.63,2.63,0,0,0,.7.28l.12,0Zm1.82-3.46a1.41,1.41,0,1,1-1.41-1.42A1.41,1.41,0,0,1,423.68,507.81Z"/><rect class="cls-29" x="414.06" y="497.9" width="2.36" height="11.25" transform="translate(477.67 -146.14) rotate(45)"/><polygon class="cls-30" points="408.29 511.92 410.43 506.67 413.77 510.01 408.29 511.92"/><rect class="cls-29" x="415.73" y="499.57" width="2.36" height="11.25" transform="translate(479.34 -146.83) rotate(45)"/><rect class="cls-31" x="421.57" y="495.16" width="2.7" height="4.73" transform="translate(1073.77 550.27) rotate(135)"/><rect class="cls-32" x="419.66" y="497.07" width="2.7" height="4.73" transform="translate(1071.86 554.88) rotate(135)"/><path class="cls-28" d="M391.11,445.67h1.3l.2-1,.17,0a4.18,4.18,0,0,0,1-.42l.14-.08.86.53.92-.95-.56-.85.08-.14a3.74,3.74,0,0,0,.4-1l0-.16,1-.23V440l-1-.2,0-.17a3.55,3.55,0,0,0-.41-1l-.08-.14.52-.86-.95-.92-.84.56-.15-.09a3.65,3.65,0,0,0-1-.39l-.17,0-.23-1H391l-.21,1-.16,0a4,4,0,0,0-1,.42l-.14.08-.84-.54-.92.95.56.84-.09.15a3.65,3.65,0,0,0-.39,1l0,.16-1,.24v1.32l1,.2,0,.17a4.18,4.18,0,0,0,.42,1l.08.14-.52.86,1,.92.84-.56.15.08a3.55,3.55,0,0,0,1,.4l.16,0Zm2.59-4.93a2,2,0,1,1-2-2A2,2,0,0,1,393.7,440.74Z"/><path class="cls-28" d="M397.38,452.19h.92l.14-.69.11,0a2.49,2.49,0,0,0,.69-.29l.1-.06.6.37.65-.67-.39-.59.06-.1a2.63,2.63,0,0,0,.28-.7l0-.12.69-.16v-.93l-.69-.14,0-.12a3.07,3.07,0,0,0-.3-.69l-.05-.1.36-.6-.66-.65-.6.39-.1-.06a2.6,2.6,0,0,0-.7-.27l-.11,0-.17-.69h-.93l-.14.69-.12,0a2.77,2.77,0,0,0-.69.29l-.1.06-.59-.38-.64.66.39.6-.06.1a2.63,2.63,0,0,0-.28.7l0,.11-.69.17v.93l.69.14,0,.12a3.2,3.2,0,0,0,.29.69l.06.1-.36.6.66.65.6-.4.1.06a2.5,2.5,0,0,0,.7.28l.11,0Zm1.82-3.47a1.41,1.41,0,1,1-1.41-1.41A1.42,1.42,0,0,1,399.2,448.72Z"/><rect class="cls-29" x="389.58" y="438.82" width="2.36" height="11.25" transform="translate(428.72 -146.13) rotate(45)"/><polygon class="cls-30" points="383.8 452.84 385.94 447.59 389.29 450.93 383.8 452.84"/><rect class="cls-29" x="391.25" y="440.49" width="2.36" height="11.25" transform="translate(430.39 -146.83) rotate(45)"/><rect class="cls-31" x="397.08" y="436.08" width="2.7" height="4.73" transform="translate(990.19 466.73) rotate(135)"/><rect class="cls-32" x="395.18" y="437.99" width="2.7" height="4.73" transform="translate(988.29 471.34) rotate(135)"/><path class="cls-28" d="M420.41,391.78h1.3l.2-1,.17,0a4.18,4.18,0,0,0,1-.42l.14-.08.85.52.92-.94-.55-.85.08-.15a3.55,3.55,0,0,0,.4-1l0-.16,1-.24v-1.32l-1-.2,0-.17a3.74,3.74,0,0,0-.41-1l-.09-.13.53-.86-1-.92-.85.55-.14-.08a4.2,4.2,0,0,0-1-.4l-.17,0-.23-1-1.32,0-.21,1-.16,0a3.86,3.86,0,0,0-1,.42l-.15.08-.84-.54-.91.94.56.85-.09.15a3.88,3.88,0,0,0-.4,1l0,.16-1,.24,0,1.32,1,.2,0,.17a4,4,0,0,0,.42,1l.08.14-.52.86.94.92.85-.55.15.08a3.88,3.88,0,0,0,1,.4l.16,0Zm2.59-4.93a2,2,0,1,1-2-2A2,2,0,0,1,423,386.85Z"/><path class="cls-28" d="M426.68,398.3h.91l.15-.69.11,0a2.49,2.49,0,0,0,.69-.29l.1-.06.6.37.65-.67-.39-.59.06-.11a2.94,2.94,0,0,0,.28-.69l0-.12.69-.16v-.93l-.69-.15,0-.11a2.49,2.49,0,0,0-.29-.69l-.06-.1.37-.6-.66-.65-.6.39-.1-.06a2.63,2.63,0,0,0-.7-.28l-.11,0-.17-.69h-.93l-.14.7-.12,0a3.28,3.28,0,0,0-.69.3l-.1.06-.59-.38-.64.66.39.6-.06.1a2.5,2.5,0,0,0-.28.7l0,.11-.69.17v.93l.69.14,0,.12a2.57,2.57,0,0,0,.29.68l.06.1-.37.61.67.64.59-.39.11.06a2.5,2.5,0,0,0,.7.28l.11,0Zm1.82-3.47a1.41,1.41,0,1,1-1.41-1.41A1.41,1.41,0,0,1,428.5,394.83Z"/><rect class="cls-29" x="418.87" y="384.93" width="2.36" height="11.25" transform="translate(399.19 -182.63) rotate(45)"/><polygon class="cls-30" points="413.1 398.95 415.24 393.69 418.59 397.04 413.1 398.95"/><rect class="cls-29" x="420.55" y="386.6" width="2.36" height="11.25" transform="translate(400.87 -183.33) rotate(45)"/><rect class="cls-31" x="426.38" y="382.18" width="2.7" height="4.73" transform="translate(1002.1 354.01) rotate(135)"/><rect class="cls-32" x="424.47" y="384.09" width="2.7" height="4.73" transform="translate(1000.19 358.62) rotate(135)"/><path class="cls-28" d="M369.43,201.67h1.1l.17-.83.14,0a3.42,3.42,0,0,0,.83-.36l.12-.06.72.44.78-.8-.47-.72.07-.12a3.37,3.37,0,0,0,.34-.84l0-.14.83-.2v-1.12l-.83-.17,0-.14a3,3,0,0,0-.35-.83l-.07-.12.44-.72-.8-.78-.71.47-.13-.07a2.91,2.91,0,0,0-.84-.34l-.13,0-.21-.83H369.3l-.18.83-.14,0a3.1,3.1,0,0,0-.82.35l-.12.07-.72-.46-.77.8.47.72-.07.12a3.37,3.37,0,0,0-.34.84l0,.14-.83.2v1.12l.83.17,0,.14a3.15,3.15,0,0,0,.35.83l.07.11-.44.73.8.78.71-.47.13.07a3.09,3.09,0,0,0,.84.34l.13,0Zm2.19-4.17a1.7,1.7,0,1,1-1.7-1.7A1.7,1.7,0,0,1,371.62,197.5Z"/><path class="cls-28" d="M374.73,207.19h.78l.12-.58.1,0a2.16,2.16,0,0,0,.58-.25l.08,0,.51.31.55-.57-.33-.5.05-.09a2,2,0,0,0,.24-.59l0-.1.58-.14v-.78l-.59-.12,0-.1a2.59,2.59,0,0,0-.25-.59l0-.08.31-.51-.56-.55-.51.33-.08-.05a2.67,2.67,0,0,0-.59-.23l-.1,0-.14-.58h-.79l-.12.58-.1,0a2,2,0,0,0-.58.25l-.09.05-.5-.33-.54.57.33.5-.05.09a2,2,0,0,0-.24.59l0,.09-.58.15v.78l.59.12,0,.1a2.36,2.36,0,0,0,.25.58l.05.09-.31.51.56.55.51-.34.08.05a2.29,2.29,0,0,0,.59.24l.1,0Zm1.54-2.93a1.19,1.19,0,1,1-1.19-1.2A1.19,1.19,0,0,1,376.27,204.26Z"/><rect class="cls-29" x="368.13" y="195.87" width="2" height="9.52" transform="translate(249.98 -202.25) rotate(45)"/><polygon class="cls-30" points="363.24 207.74 365.05 203.29 367.88 206.12 363.24 207.74"/><rect class="cls-29" x="369.54" y="197.29" width="2" height="9.52" transform="translate(251.4 -202.84) rotate(45)"/><rect class="cls-33" x="374.48" y="193.55" width="2.28" height="4" transform="translate(779.51 68.22) rotate(135)"/><rect class="cls-32" x="372.87" y="195.16" width="2.28" height="4" transform="translate(777.89 72.12) rotate(135)"/><circle class="cls-34" cx="330.21" cy="476.67" r="6.43"/><circle class="cls-34" cx="145.3" cy="369.77" r="6.43"/><circle class="cls-34" cx="216.58" cy="474.88" r="6.43"/><circle class="cls-34" cx="346.28" cy="476.67" r="6.43"/><circle class="cls-34" cx="330.21" cy="493.15" r="6.43"/><circle class="cls-34" cx="311.86" cy="578.26" r="6.43"/><circle class="cls-35" cx="346.28" cy="493.15" r="6.43"/><circle class="cls-35" cx="296.26" cy="578.26" r="6.43"/><circle class="cls-35" cx="279.75" cy="578.26" r="6.43"/><circle class="cls-35" cx="281.51" cy="286.33" r="6.43"/><circle class="cls-35" cx="286.96" cy="303.05" r="6.43"/><circle class="cls-35" cx="133.98" cy="168.64" r="6.43"/><circle class="cls-35" cx="292.84" cy="319.14" r="6.43"/><circle class="cls-34" cx="227.89" cy="181.35" r="6.43"/><circle class="cls-34" cx="345.02" cy="356.28" r="6.43"/><circle class="cls-34" cx="363.1" cy="356.28" r="6.43"/><circle class="cls-34" cx="436.99" cy="291.69" r="6.43"/></svg>