<svg id="Capa_1" data-name="Capa 1" xmlns="http://www.w3.org/2000/svg" viewBox="0 0 554 932"><defs><style>.cls-1{font-size:12px;font-family:Roboto-Light, Roboto;font-weight:300;}.cls-1,.cls-18,.cls-4{fill:#1d1d1b;}.cls-2{letter-spacing:-0.01em;}.cls-3{letter-spacing:-0.01em;}.cls-4{font-size:15px;font-family:Roboto-Bold, Roboto;font-weight:700;}.cls-5{letter-spacing:-0.02em;}.cls-6{letter-spacing:-0.01em;}.cls-7{letter-spacing:-0.01em;}.cls-8{letter-spacing:-0.01em;}.cls-16,.cls-17,.cls-9{fill:none;}.cls-10,.cls-11,.cls-12,.cls-13,.cls-9{stroke:#262626;stroke-linecap:round;stroke-width:0.5px;}.cls-10,.cls-11,.cls-12,.cls-13,.cls-16,.cls-17,.cls-9{stroke-linejoin:round;}.cls-10{fill:#fab637;}.cls-11{fill:#ffe7a1;}.cls-12{fill:#4ca8de;}.cls-13{fill:#cfcece;}.cls-14{letter-spacing:-0.01em;}.cls-15{fill:#71c2e9;stroke:#377c9c;stroke-width:3px;}.cls-15,.cls-21,.cls-22{stroke-miterlimit:1.75;}.cls-16,.cls-17{stroke:#0b0c0c;}.cls-17{stroke-dasharray:3.79 3.79;}.cls-19{letter-spacing:-0.01em;}.cls-20{letter-spacing:0.02em;}.cls-21{fill:#afd28c;stroke:#71915a;isolation:isolate;}.cls-22{fill:#ec6062;stroke:#cc444b;}</style></defs><text class="cls-1" transform="translate(54.98 188.75)"><tspan class="cls-2">P</tspan><tspan x="7.32" y="0">ad</tspan><tspan class="cls-3" x="20.42" y="0">r</tspan><tspan x="24.35" y="0">e Abad</tspan></text><text class="cls-4" transform="translate(73.51 209.27)"><tspan xml:space="preserve"> 4 p</tspan><tspan class="cls-5" x="24.52" y="0">r</tspan><tspan class="cls-6" x="29.73" y="0">o</tspan><tspan class="cls-7" x="38.1" y="0">y</tspan><tspan x="45.53" y="0">ec</tspan><tspan class="cls-8" x="61.46" y="0">t</tspan><tspan x="66.31" y="0">os</tspan></text><path class="cls-9" d="M62.29,204.74h1.3l.2-1,.17,0a3.74,3.74,0,0,0,1-.41l.14-.08.85.52.93-.95L66.3,202l.08-.15a3.68,3.68,0,0,0,.4-1l0-.16,1-.24V199.1l-1-.21,0-.16a3.61,3.61,0,0,0-.41-1l-.08-.14.52-.86-1-.92-.85.56-.14-.08a3.49,3.49,0,0,0-1-.4l-.17,0-.23-1H62.14l-.21,1-.16.05a3.48,3.48,0,0,0-1,.41l-.15.08-.84-.53-.91.94.56.85-.09.14a4,4,0,0,0-.4,1l0,.17-1,.23,0,1.32,1,.21,0,.16a3.86,3.86,0,0,0,.42,1l.08.14-.52.86.94.92.85-.56.15.09a3.52,3.52,0,0,0,1,.39l.16,0Zm2.59-4.92a2,2,0,1,1-2-2A2,2,0,0,1,64.88,199.82Z"/><path class="cls-9" d="M68.56,211.26h.91l.15-.68.11,0a2.89,2.89,0,0,0,.69-.3l.1-.05.6.36.65-.66-.39-.6.06-.1a2.85,2.85,0,0,0,.28-.7l0-.11.69-.17v-.93l-.69-.14,0-.12a2.77,2.77,0,0,0-.29-.69l0-.09.36-.61-.66-.65-.6.4-.1-.06a2.63,2.63,0,0,0-.7-.28l-.11,0-.17-.69h-.93l-.14.69-.12,0a2.77,2.77,0,0,0-.69.29l-.1.06-.59-.38-.64.67.39.59-.06.1a2.63,2.63,0,0,0-.28.7l0,.12-.69.16v.93l.69.15,0,.11a2.49,2.49,0,0,0,.29.69l.06.1-.37.6.67.65.59-.39.11.06a2.85,2.85,0,0,0,.7.28l.11,0Zm1.82-3.46A1.41,1.41,0,1,1,69,206.39,1.41,1.41,0,0,1,70.38,207.8Z"/><rect class="cls-10" x="60.75" y="197.89" width="2.36" height="11.25" transform="translate(162.05 15.81) rotate(45)"/><polygon class="cls-11" points="54.98 211.91 57.12 206.66 60.47 210 54.98 211.91"/><rect class="cls-10" x="62.43" y="199.57" width="2.36" height="11.25" transform="translate(163.72 15.12) rotate(45)"/><rect class="cls-12" x="68.26" y="195.15" width="2.7" height="4.73" transform="translate(258.5 287.96) rotate(135)"/><rect class="cls-13" x="66.35" y="197.06" width="2.7" height="4.73" transform="translate(256.59 292.56) rotate(135)"/><text class="cls-1" transform="translate(223.18 531.41)"><tspan class="cls-14">A</tspan><tspan x="7.39" y="0">tal</tspan><tspan class="cls-6" x="20.37" y="0">ay</tspan><tspan x="32.32" y="0">a</tspan></text><text class="cls-4" transform="translate(241.71 551.94)"><tspan xml:space="preserve"> 1 p</tspan><tspan class="cls-5" x="24.52" y="0">r</tspan><tspan class="cls-6" x="29.73" y="0">o</tspan><tspan class="cls-7" x="38.1" y="0">y</tspan><tspan x="45.53" y="0">ec</tspan><tspan class="cls-8" x="61.46" y="0">t</tspan><tspan x="66.31" y="0">o</tspan></text><path class="cls-9" d="M230.49,547.41h1.3l.2-1,.17,0a4.18,4.18,0,0,0,1-.42l.14-.08.85.52.92-.94-.55-.85.08-.15a3.88,3.88,0,0,0,.4-1l0-.16,1-.24,0-1.32-1-.2,0-.17a4,4,0,0,0-.42-1l-.08-.14.53-.86-1-.92-.85.56-.14-.09a4.1,4.1,0,0,0-1-.4l-.16,0-.24-1-1.32,0-.2,1-.17,0a4,4,0,0,0-1,.42l-.15.08-.84-.54-.91,1,.55.84-.08.15a3.88,3.88,0,0,0-.4,1l0,.16-1,.24,0,1.32,1,.2,0,.17a4.18,4.18,0,0,0,.42,1l.08.14-.52.85.94.92.85-.55.14.08a3.74,3.74,0,0,0,1,.4l.16,0Zm2.59-4.93a2,2,0,1,1-2-2A2,2,0,0,1,233.08,542.48Z"/><path class="cls-9" d="M236.76,553.93h.91l.14-.69.12,0a2.62,2.62,0,0,0,.69-.29l.1-.06.6.37.65-.67-.39-.59.06-.11a2.54,2.54,0,0,0,.27-.69l0-.12.69-.16V550l-.69-.15,0-.11a2.49,2.49,0,0,0-.29-.69l-.06-.1.37-.6-.67-.65-.59.39-.1-.06a3,3,0,0,0-.7-.28l-.12,0-.16-.69h-.93l-.14.69-.12,0a2.62,2.62,0,0,0-.69.29l-.1.06-.59-.38-.65.66.4.6-.06.1a2.5,2.5,0,0,0-.28.7l0,.11-.69.17V551l.69.14,0,.12a2.77,2.77,0,0,0,.29.69l.06.09-.37.61.67.64.59-.39.11.06a2.57,2.57,0,0,0,.69.28l.12,0Zm1.82-3.47a1.41,1.41,0,1,1-1.41-1.41A1.41,1.41,0,0,1,238.58,550.46Z"/><rect class="cls-10" x="228.95" y="540.56" width="2.36" height="11.25" transform="translate(453.61 -2.76) rotate(45)"/><polygon class="cls-11" points="223.18 554.58 225.32 549.32 228.67 552.67 223.18 554.58"/><rect class="cls-10" x="230.62" y="542.23" width="2.36" height="11.25" transform="translate(455.29 -3.45) rotate(45)"/><rect class="cls-12" x="236.46" y="537.82" width="2.7" height="4.73" transform="translate(787.93 753.99) rotate(135)"/><rect class="cls-13" x="234.55" y="539.72" width="2.7" height="4.73" transform="translate(786.02 758.59) rotate(135)"/><text class="cls-1" transform="translate(368.22 539.36)">Purús</text><text class="cls-4" transform="translate(386.75 559.89)"><tspan xml:space="preserve"> 0 p</tspan><tspan class="cls-5" x="24.52" y="0">r</tspan><tspan class="cls-6" x="29.73" y="0">o</tspan><tspan class="cls-7" x="38.1" y="0">y</tspan><tspan x="45.53" y="0">ec</tspan><tspan class="cls-8" x="61.46" y="0">t</tspan><tspan x="66.31" y="0">os</tspan></text><path class="cls-9" d="M375.53,555.36h1.3l.2-1,.17,0a4.18,4.18,0,0,0,1-.42l.14-.08.85.52.93-.94-.56-.85.08-.14a3.74,3.74,0,0,0,.4-1l0-.16,1-.24v-1.32l-1-.2,0-.17a3.55,3.55,0,0,0-.41-1l-.08-.14.52-.86-.95-.92-.85.56-.14-.09a3.78,3.78,0,0,0-1-.39l-.17,0-.23-1-1.32,0-.21,1-.16,0a3.86,3.86,0,0,0-1,.42l-.15.08-.84-.54-.91,1,.56.84-.09.15a3.88,3.88,0,0,0-.4,1l0,.16-1,.24,0,1.32,1,.2,0,.17a4.18,4.18,0,0,0,.42,1l.08.14-.52.85.94.93.85-.56.15.08a3.55,3.55,0,0,0,1,.4l.16,0Zm2.59-4.93a2,2,0,1,1-2-2A2,2,0,0,1,378.12,550.43Z"/><path class="cls-9" d="M381.8,561.88h.91l.15-.69.11,0a2.49,2.49,0,0,0,.69-.29l.1-.06.6.37.65-.67-.39-.59.06-.1a3,3,0,0,0,.28-.7l0-.12.69-.16v-.93l-.69-.14,0-.12a2.49,2.49,0,0,0-.29-.69l0-.1.36-.6-.66-.65-.6.39-.1-.06a2.6,2.6,0,0,0-.7-.27l-.11,0-.17-.69h-.93l-.14.69-.12,0a2.77,2.77,0,0,0-.69.29l-.1.06-.59-.38-.64.66.39.6-.06.1a2.63,2.63,0,0,0-.28.7l0,.11-.69.17v.93l.69.14,0,.12a2.77,2.77,0,0,0,.29.69l.06.09-.37.61.67.65.59-.4.11.06a2.5,2.5,0,0,0,.7.28l.11,0Zm1.82-3.47a1.41,1.41,0,1,1-1.41-1.41A1.41,1.41,0,0,1,383.62,558.41Z"/><rect class="cls-10" x="373.99" y="548.51" width="2.36" height="11.25" transform="translate(501.72 -102.99) rotate(45)"/><polygon class="cls-11" points="368.22 562.53 370.36 557.28 373.71 560.62 368.22 562.53"/><rect class="cls-10" x="375.67" y="550.18" width="2.36" height="11.25" transform="translate(503.39 -103.68) rotate(45)"/><rect class="cls-12" x="381.5" y="545.77" width="2.7" height="4.73" transform="translate(1041.16 665) rotate(135)"/><rect class="cls-13" x="379.59" y="547.67" width="2.7" height="4.73" transform="translate(1039.25 669.61) rotate(135)"/><path class="cls-15" d="M187.75,188l10,5.38,15.91,2.6,8.05,5.59,4.75,8.84,7,3.31-.9,2.88,2.54,2.76,2.27-.66,1.68,4,10.15,3.92.81,7.13-6.55.21-.84,3.82,12.2,9.83,2.31,16.23,4.8,2.35-1.26,6.2,10.64,6.42,1.46,3.06,4.42.29-.72,11.22,6.71,5.77,6.93.64,8.5,16.3,4.65.92,4.61,5.3-1.74,2.17,1.34,8.37-6.34,4.7,1.38,3.42-5,1-2.19,5.78L288.43,352l-2.1,22.76-4.61,1L285.34,390l10,2.29-.83,3.47,3.49,3.84-8.84,9.76-3.29-9.56-11.7-8.69-.17-2.86L267.19,386l-.79-3.52-11-8.36-6.38-9.16-10,.14-4.58,5.26-13.64,4.74-1.29,3.83-6.17-.07-3.26,4.77-10.28,2.84-1.68,5.05-2.49-1.4.73,4.18-4.05,4.15-.19-4.15-3-2.95L186,370l-6.36-1.53-.49-7.55-10.08-4.28,9.6-9.87-3.88-13.44-3.26-2.48,4.7-20.58,7.19-6.06-1.61-13.39-6.53-2.68-17,8.73-.39,8-8,7.89,1-11.15-2-4.39,2.17-5.77-6.74-11.76L146,275l-2.86-5.53-5.49-3.7-24-1.72-2.93-2.61,1.8-3.44,6.55-2.9,8.73,1.63L135,243.22l8.69-2.28,4,1.49,7.4,9,20.41-11.34L180,230.4l4.25-3-5.22-5.65.46-5.4-5.25-5.89,0-4.89,8.42-16.21,2.78-2.49Z"/><path class="cls-15" d="M289,355.8l36.51,0L341,362.05l12-.12,3.8,4.25,2.92-.12-.55,4.75,2.76,1,.61,3.38-1.38,7.24,8.76,3.65,1.21,6.09-3,4.46,1.92,2.7-3.15,3.26,3.84,6.53-1.15,5.77-14,1.11-8.66,6.05-2.63,6,4.59,11.11L345.28,442l6.72,3-2.14,8-3.12-.88-3,12.1,6.77,11,6.45,3.94,4.22-.87,6,2.93.15,6.57,4.86,1.14-6.71,5.12,1.59,1-2.54,8.8,1.12,4-5.92-.62-2.17-2.56-15,6.92-2.07,3.47-5.4.13-.55-1.76-.59,1.7-4.48-4.26-2.08.77-1.58-3.8-8.66,3.32-5.31-3.65-3.33.57.66-1.81-2.93.59,2.3-2.16-1.82-.22,1.57-1.08-3.25-6.17L298.14,503,276.42,505l-5.74,6-5.47-2.87,2.73-8.92-1.67-11.65-5.61-3.23L258.3,477l.92-7.48L245,459.7l-5.66,5.18.09,7-3.86,7-.07,14.95-8.85-3.42-2.46-10.55-14.42-.42-.93,2.76-13.37,2.79-9.68-4.43-.94-3.92L180,473.94l6.51-2.05.34-4.22,7.53-1.75.22-5.16,2.64.57,9.47-9.44L214.4,454l-3.67-13.54-5.82-5.62,1.75-18.13L201,415l-.95-4.06-4.08,0-4.07-6.85.51-5.64,4.16-4.56-.77-3.88,2.41,1.52,1.69-5.06,10.28-2.84,3.26-4.77,6.17.07,1.29-3.83,13.64-4.74,4.58-5.26,10-.14,6.38,9.16,11,8.36.79,3.52,6.81,2.33.17,2.86,11.7,8.69,3.29,9.56,8.86-9.62-3.53-4,.85-3.43-10-2.26-3.82-12.86,4.52-1.66Z"/><path class="cls-15" d="M112,262.94l12.9,2.63,4.27-1.84,10.7,2.66,3.23,3L146,275l-1.66,4.69L151,291.41l-2.17,5.77,2,4.39-1,11.15-13.2,1.37.23,8.06-4.25,2.2-2.56,7.06-2.73,0,2.3,5.92-7.25,9.47-11.59,0-3.27,6.34-13.76,3.26-4-11.1-6-5.86L80.5,328.31l-4.2-4.63-4.43-22.19,4.44-4.75,5.85-1.9,3-7-1.64-2.69,6.49-2,2.29-5L97.75,277l3.6,2.85,12,.55-7.11-9.18,4.31-9.75Z"/><path class="cls-15" d="M498.9,357l.12,6.13-5.1,2.22,1,3.24-3.32-1.08,1.21,6.32,4.67,5.83-1.63,5-6.08,3.28.76,4.16-4.23,7.64,1.39,8.55-12,13.49-6.09.85-.68,5.75-6.17,0,.76,4.25-5.19,7-11,4.17-4.42,8.29-.06,11-2.91.64-1.1,5.34-6.38,7.62-27.29,1.89-9.95,3-14.32-1.9-3.42,1.83L371.69,479,365,481.68l-3.8-3.3-6.66-.16-5.66-5-5.09-9.85,3-11.21,3.12.88,2.14-8-6.72-3,3.52-2.78-4.52-7.46.32-6L355.49,416l14-1,1.21-5.85L367.5,402l63.29,0,2.53-2.63,3.5,2,6.09-1.77,6.35-8.85,11.44-3.13,2.4-5.37,3.1-.59,6.88-7.71,3.37-.37,3.34-6.14,6.87-2.7,5.29-6.56Z"/><line class="cls-16" x1="92.54" y1="219.92" x2="92.54" y2="221.92"/><line class="cls-17" x1="92.55" y1="225.71" x2="92.73" y2="284.48"/><line class="cls-16" x1="92.74" y1="286.38" x2="92.74" y2="288.38"/><circle class="cls-18" cx="92.77" cy="289.03" r="1.57"/><circle class="cls-18" cx="92.52" cy="219.49" r="1.57"/><line class="cls-16" x1="270.66" y1="457" x2="270.67" y2="459"/><line class="cls-17" x1="270.68" y1="462.79" x2="270.85" y2="521.56"/><line class="cls-16" x1="270.86" y1="523.45" x2="270.87" y2="525.45"/><circle class="cls-18" cx="270.89" cy="526.11" r="1.57"/><circle class="cls-18" cx="270.64" cy="456.56" r="1.57"/><line class="cls-16" x1="403.61" y1="468" x2="403.62" y2="470"/><line class="cls-17" x1="403.63" y1="473.79" x2="403.81" y2="532.56"/><line class="cls-16" x1="403.81" y1="534.46" x2="403.82" y2="536.46"/><circle class="cls-18" cx="403.85" cy="537.11" r="1.57"/><circle class="cls-18" cx="403.6" cy="467.57" r="1.57"/><text class="cls-1" transform="translate(305.8 254.15)">Co<tspan class="cls-19" x="14.51" y="0">r</tspan><tspan x="18.43" y="0">onel </tspan><tspan class="cls-7" x="43.55" y="0">P</tspan><tspan x="50.87" y="0">o</tspan><tspan class="cls-20" x="57.59" y="0">r</tspan><tspan x="61.92" y="0">tillo</tspan></text><text class="cls-4" transform="translate(324.33 274.67)"><tspan xml:space="preserve"> 2 p</tspan><tspan class="cls-5" x="24.52" y="0">r</tspan><tspan class="cls-6" x="29.73" y="0">o</tspan><tspan class="cls-7" x="38.1" y="0">y</tspan><tspan x="45.53" y="0">ec</tspan><tspan class="cls-8" x="61.46" y="0">t</tspan><tspan x="66.31" y="0">os</tspan></text><path class="cls-9" d="M313.11,270.14h1.3l.21-1,.16,0a3.61,3.61,0,0,0,1-.41l.14-.08.86.52.92-.95-.56-.85.08-.14a3.38,3.38,0,0,0,.4-1l0-.17,1-.23V264.5l-1-.21-.05-.16a3.48,3.48,0,0,0-.41-1l-.08-.14.52-.86-.95-.92-.84.56-.15-.09a3.65,3.65,0,0,0-1-.39l-.16,0-.24-1H313l-.21,1-.16,0a4.18,4.18,0,0,0-1,.42l-.14.08-.84-.53-.92.94.56.84-.09.15a3.65,3.65,0,0,0-.39,1l0,.17-1,.23v1.32l1,.21,0,.16a4,4,0,0,0,.42,1l.08.14-.52.86,1,.92.84-.56.15.08a3.27,3.27,0,0,0,1,.4l.16,0Zm2.59-4.92a2,2,0,1,1-2-2A2,2,0,0,1,315.7,265.22Z"/><path class="cls-9" d="M319.38,276.66h.92l.14-.69.12,0a3,3,0,0,0,.68-.3l.1,0,.61.36.64-.66-.39-.6.06-.1a2.63,2.63,0,0,0,.28-.7l0-.11.69-.17v-.93l-.69-.14,0-.12a2.83,2.83,0,0,0-.3-.69l-.05-.09.36-.61-.66-.65-.6.4-.1-.06a2.5,2.5,0,0,0-.7-.28l-.11,0-.17-.69h-.93l-.14.69-.12,0a2.57,2.57,0,0,0-.68.29l-.11.06-.59-.38-.64.67.39.59-.06.1a2.63,2.63,0,0,0-.28.7l0,.12-.69.16v.93l.69.14,0,.12a2.89,2.89,0,0,0,.3.69l0,.1-.36.6.66.65.6-.39.1.06a2.48,2.48,0,0,0,.7.27l.11,0Zm1.82-3.46a1.41,1.41,0,1,1-1.41-1.41A1.41,1.41,0,0,1,321.2,273.2Z"/><rect class="cls-10" x="311.58" y="263.29" width="2.36" height="11.25" transform="translate(281.76 -142.39) rotate(45)"/><polygon class="cls-11" points="305.8 277.31 307.95 272.06 311.29 275.4 305.8 277.31"/><rect class="cls-10" x="313.25" y="264.96" width="2.36" height="11.25" transform="translate(283.43 -143.08) rotate(45)"/><rect class="cls-12" x="319.09" y="260.55" width="2.7" height="4.73" transform="translate(732.92 222.24) rotate(135)"/><rect class="cls-13" x="317.18" y="262.46" width="2.7" height="4.73" transform="translate(731.02 226.85) rotate(135)"/><line class="cls-16" x1="300.32" y1="250.66" x2="298.91" y2="252.08"/><line class="cls-17" x1="296.24" y1="254.76" x2="254.81" y2="296.45"/><line class="cls-16" x1="253.47" y1="297.79" x2="252.06" y2="299.21"/><circle class="cls-18" cx="251.61" cy="299.69" r="1.57"/><circle class="cls-18" cx="300.61" cy="250.34" r="1.57"/><circle class="cls-21" cx="270.76" cy="445.48" r="6.43"/><circle class="cls-22" cx="229.61" cy="309.66" r="6.43"/><circle class="cls-22" cx="245.53" cy="309.66" r="6.43"/><circle class="cls-22" cx="92.64" cy="300.61" r="6.43"/><circle class="cls-22" cx="107.89" cy="300.61" r="6.43"/><circle class="cls-22" cx="92.64" cy="315.61" r="6.43"/><circle class="cls-22" cx="107.89" cy="315.61" r="6.43"/></svg>